<svg xmlns="http://www.w3.org/2000/svg" xmlns:xlink="http://www.w3.org/1999/xlink" viewBox="0 0 186.92 101.63"><defs><style>.cls-1{fill:none;}.cls-2{isolation:isolate;}.cls-3{fill:#6a7dff;}.cls-4{fill:#6ad8ff;}.cls-24,.cls-5{fill:#ffe428;}.cls-6,.cls-9{opacity:0.5;}.cls-12,.cls-18,.cls-23,.cls-24,.cls-6,.cls-9{mix-blend-mode:multiply;}.cls-7,.cls-9{fill:#5a6ac6;}.cls-8{fill:#6aacff;}.cls-10{fill:#5435ff;}.cls-11{fill:#fff;}.cls-12{fill:#c5c8c9;}.cls-12,.cls-25{opacity:0.8;}.cls-13{clip-path:url(#clip-path);}.cls-14{fill:#3d160b;}.cls-15{fill:url(#linear-gradient);}.cls-16,.cls-25,.cls-26{mix-blend-mode:screen;}.cls-17{fill:url(#linear-gradient-2);}.cls-18{fill:#fa0;opacity:0.4;}.cls-19{fill:url(#linear-gradient-3);}.cls-20{fill:url(#linear-gradient-4);}.cls-21{fill:#ff9328;}.cls-22,.cls-25,.cls-26{fill:#ffff91;}.cls-26{opacity:0.3;}</style><clipPath id="clip-path"><path class="cls-1" d="M13.2,66.31c1.78,2.2,4.7,1.15,6.61-1.56,1.75-2.5,3.41-5.93,3.41-9,0-2.61-1.35-4.62-3.64-4.09S15,54.27,13.46,56.86C11.67,59.95,11.09,63.71,13.2,66.31Z"/></clipPath><linearGradient id="linear-gradient" x1="4948.48" y1="-292.19" x2="4952.64" y2="-281.4" gradientTransform="matrix(0.26, 0.47, -0.67, 0.81, -1483.14, -2035.87)" gradientUnits="userSpaceOnUse"><stop offset="0" stop-color="#000e57"/><stop offset="0.6" stop-color="#94fdff"/><stop offset="1" stop-color="#15acff"/></linearGradient><linearGradient id="linear-gradient-2" x1="4947.78" y1="-284.74" x2="4953.62" y2="-284.74" gradientTransform="matrix(0.26, 0.47, -0.67, 0.81, -1483.14, -2035.87)" gradientUnits="userSpaceOnUse"><stop offset="0" stop-color="#381400"/><stop offset="0.15" stop-color="#843700"/><stop offset="0.15" stop-color="#8b4004"/><stop offset="0.2" stop-color="#ae701d"/><stop offset="0.24" stop-color="#cb9730"/><stop offset="0.29" stop-color="#e2b640"/><stop offset="0.33" stop-color="#f2cc4b"/><stop offset="0.37" stop-color="#fcda52"/><stop offset="0.41" stop-color="#ffde54"/><stop offset="0.48" stop-color="#fad952"/><stop offset="0.57" stop-color="#edcb4c"/><stop offset="0.66" stop-color="#d7b442"/><stop offset="0.75" stop-color="#b89334"/><stop offset="0.85" stop-color="#906922"/><stop offset="0.95" stop-color="#60360c"/><stop offset="1" stop-color="#451a00"/></linearGradient><linearGradient id="linear-gradient-3" x1="28.32" y1="54.51" x2="32.59" y2="65.59" gradientTransform="matrix(1, 0, 0, 1, 0, 0)" xlink:href="#linear-gradient"/><linearGradient id="linear-gradient-4" x1="27.2" y1="62.73" x2="32.5" y2="62.73" gradientTransform="matrix(1, 0, 0, 1, 0, 0)" xlink:href="#linear-gradient-2"/></defs><title>fish5</title><g class="cls-2"><g id="Layer_2" data-name="Layer 2"><g id="Layer_2-2" data-name="Layer 2"><path class="cls-3" d="M70.05,92.24s2.81,4.73,27.53,0,50.79-10.21,58-8.45c4.44,1.19.9.49.88,1.78s3.68,1.28,3-1.47c-1-4-18.95-2.23-35.53.88S85.74,94,78,89.28C74.34,89.28,70.2,92.24,70.05,92.24Z"/><path class="cls-3" d="M56.87,92.39s21.91,13,54.63,8.14c20.14-3.4,27.5-2.19,26.36-1.48-.82.5-.25,1.46.89,1,2.37-.89.45-4.29-5.63-4.29s-46.49,8.44-70.62-5C58.35,91.05,56.87,92.39,56.87,92.39Z"/><path class="cls-4" d="M75.52,95.76c1.46,1.49,5.66,4.11,17.18,4.32A181.81,181.81,0,0,0,127.94,97c3.83-.63,7.65-1,10.24-.07a10.15,10.15,0,0,0-5.06-1.11C128,95.79,99,101.68,75.52,95.76Z"/><path class="cls-4" d="M123.94,85C111.72,87.28,96.73,91.1,86.63,91c2,.58,5.89.59,12.44-.3,12.14-1.62,42-9.47,51.67-8.58a59.05,59.05,0,0,0,6.49.25C151.76,80.81,137.41,82.46,123.94,85Z"/><path class="cls-5" d="M138.15,99.16s-.44.27-.22.61,1.94-.39,1.34-1.11S138.15,99.16,138.15,99.16Z"/><path class="cls-5" d="M157.81,85s-1.06.17-1,.61,1.34.78,1.72.22S158.09,84.9,157.81,85Z"/><g class="cls-6"><path class="cls-7" d="M78,89.28c-3.7,0-7.84,3-8,3,0,0,.89,1.51,6.11,2A30.68,30.68,0,0,0,85.43,91,15.43,15.43,0,0,1,78,89.28Z"/><path class="cls-7" d="M56.87,92.39A60.68,60.68,0,0,0,67.39,96.9c.14-.84,1.1-1.81,4.6-2.13a50.58,50.58,0,0,1-9.49-4C58.35,91.05,56.87,92.39,56.87,92.39Z"/></g><path class="cls-8" d="M22.23,51.3S35.21,4.89,83.63,0c0,0,2.11,0,14.7,11.7s26.2,23.55,52.27,35.83c7.25,3.1,8.14,4.14,7.84,5.32s-12.88-2.37-16.29-3.41-35.38-27.39-67.66-24S28,42.19,22.23,51.3Z"/><path class="cls-4" d="M88.18,3.21S81.08,7,78,13.21c.78-.33,5.55-5.72,15.1-6.05C92.18,6.27,88.18,3.21,88.18,3.21Z"/><path class="cls-4" d="M94.4,8.44a17.72,17.72,0,0,0-7.44,8c.22,0,5.77-4.78,11.44-4.22C96.63,10.43,95,8.33,94.4,8.44Z"/><path class="cls-4" d="M99.73,13.32a12.17,12.17,0,0,0-6.22,6.11c.56,0,5.44-3.22,9.1-3.67C102.4,15,99.73,13.32,99.73,13.32Z"/><path class="cls-4" d="M103.4,16.55A12.89,12.89,0,0,0,99,21.09c.33-.11,4.12-2.44,7.11-2.22C106,18.32,103.4,16.55,103.4,16.55Z"/><path class="cls-4" d="M107.29,20a10.22,10.22,0,0,0-3.22,4.45,34.36,34.36,0,0,1,6.22-1.9C109.5,21.76,107.29,20,107.29,20Z"/><path class="cls-3" d="M30.45,38.75S33,24.58,51.84,11.54c-4,2.52-11.7,11.85-11.1,16.88C42.66,31.68,43,12.73,68.12,3.55c-2.07.89-16.32,11.92-16.91,19.77C54,22.65,60.58,7.55,81.6.29,77.3,2.37,60.86,16.73,63.53,20.13c1.39,1.78,7.26-13,24-17.47-5.78,3.1-13.9,11.75-13.18,16.43.6,3.86-.3-7.7,19.4-11.25-3.85,2.08-11.09,8.83-8.88,11.85,1.18,1.62,1.62-5.48,14.36-6.82-2.66.89-9.32,6.22-7.7,8.59s3.7-3.25,11.4-5c-1,.6-6.66,4.59-5.63,6.36s3.26-3.1,9.63-3.26c-1.33.45-6.07,3.85-4,5.48,2.24,1.76,5.18-2.07,8.14-1.93.44,0-2.81,2.22-1.63,3.7s4-1,4.59-1.18-1.48,2.22-.15,3.41,4.74.14,4.74.14-2.07.75-1,2.22-2.52.3-3.26-.14S76,19.39,60.86,24.28,33.85,35.35,30.45,38.75Z"/><path class="cls-9" d="M26.89,39.64s8.77-8.11,16.32-15.77c1.67.22,7-1.55,11-4.78.12,0,6.77.23,11.66-2.77,0,2.77,5.88,1.22,10.44-.22.11,1.56,5.33,3,9.89,2.12-.11,1.55,5.33,2.22,7,2,.89.22,3.22,1.66,5.22,1.66,1.22.45,4.21,2.11,5.88,2.22,1.67.45,7.55,3.89,14.44,8A59.71,59.71,0,0,1,130.16,41S96.63,19.32,74.31,23.88,29.89,42,27,45.75,23.23,50,23.23,50A49.64,49.64,0,0,1,26.89,39.64Z"/><path class="cls-10" d="M95.85,10.1a6.14,6.14,0,0,0-.64.27l-.71.33c-.27.14-.58.29-.89.49s-.68.38-1,.61-.73.49-1.11.76-.75.57-1.13.88-.76.64-1.1,1l-.53.52c-.18.18-.33.36-.49.55l-.48.55-.42.56-.4.54-.34.55-.33.53c-.1.16-.18.34-.26.5-.16.34-.32.63-.44.9s-.2.52-.28.72L85,21v0a.22.22,0,0,1-.29.13.22.22,0,0,1-.12-.29h0l.26-.64.3-.73c.14-.28.31-.58.49-.92.09-.16.17-.34.28-.51s.23-.34.35-.52l.37-.55c.12-.18.28-.36.42-.54l.45-.56.5-.54c.17-.17.33-.37.5-.53l.56-.52a14.35,14.35,0,0,1,1.13-1c.38-.31.78-.58,1.17-.86s.76-.51,1.14-.72.72-.42,1.05-.59.64-.32.91-.46l.72-.32A6.34,6.34,0,0,1,95.85,10.1Z"/><path class="cls-10" d="M90.33,4.73s-.34.11-.9.34l-1,.44c-.39.19-.83.38-1.3.64l-.73.38L85.61,7c-.53.29-1.05.66-1.61,1s-1.1.76-1.64,1.21-1.09.88-1.58,1.37L80,11.3l-.71.75A20.26,20.26,0,0,0,78,13.6a17.57,17.57,0,0,0-1.1,1.55l-.48.73L76,16.6c-.24.46-.49.88-.67,1.27s-.31.73-.43,1l-.37.89h0a.22.22,0,1,1-.41-.16h0l.39-.9.46-1c.19-.39.45-.81.71-1.28l.4-.73.51-.73a15.27,15.27,0,0,1,1.13-1.54,18.07,18.07,0,0,1,1.35-1.55l.73-.76.79-.72c.52-.49,1.08-.92,1.62-1.35s1.13-.8,1.67-1.19,1.1-.7,1.64-1l.77-.43.74-.37c.47-.25.92-.44,1.31-.61s.75-.32,1-.42C90,4.84,90.33,4.73,90.33,4.73Z"/><path class="cls-10" d="M100.85,14.1a13.78,13.78,0,0,0-1.67.82c-.25.13-.51.28-.77.46s-.55.36-.84.55-.58.41-.86.64-.57.46-.84.72a10,10,0,0,0-.79.76c-.13.13-.25.26-.38.38l-.34.41-.33.39-.28.4a7.66,7.66,0,0,0-.5.73l-.39.65c-.11.19-.19.37-.25.52l-.22.44v0a.22.22,0,0,1-.3.1.21.21,0,0,1-.1-.29h0l.25-.47.28-.52c.13-.19.27-.41.42-.65a8.94,8.94,0,0,1,.54-.74l.31-.39.35-.38.36-.4.39-.38c.27-.27.54-.51.83-.75s.59-.46.88-.69.6-.41.89-.61.58-.38.86-.52.55-.31.8-.44A13.13,13.13,0,0,1,100.85,14.1Z"/><path class="cls-10" d="M104.51,17.43a13.1,13.1,0,0,0-1.33.67c-.39.22-.83.49-1.29.8s-.94.66-1.39,1c-.22.2-.45.38-.66.59a7.65,7.65,0,0,0-.6.6,5.61,5.61,0,0,0-.53.59,6,6,0,0,0-.44.55l-.34.49-.24.4-.2.34v0a.22.22,0,0,1-.3.07.21.21,0,0,1-.08-.3h0l.23-.36.26-.39L98,22a6.11,6.11,0,0,1,.48-.55c.17-.19.37-.4.57-.59s.42-.39.64-.58.46-.38.7-.56c.48-.36,1-.69,1.46-1s.94-.54,1.34-.74A14.5,14.5,0,0,1,104.51,17.43Z"/><path class="cls-10" d="M108.62,21a10.75,10.75,0,0,0-.94.52c-.28.16-.58.37-.92.6s-.68.47-1,.76l-.49.42a6,6,0,0,0-.46.41c-.27.3-.55.53-.75.79l-.68.81v0A.22.22,0,1,1,103,25h0l.75-.8c.22-.25.53-.48.83-.75a5,5,0,0,1,.48-.4l.53-.39c.33-.26.71-.47,1-.7s.68-.39,1-.54C108.22,21.15,108.62,21,108.62,21Z"/><path class="cls-4" d="M81.8,1A48.67,48.67,0,0,0,67.86,13.66C68.31,13,78.3,3.89,86.74,2,85.08.77,83.91-.51,81.8,1Z"/><path class="cls-4" d="M69.86,2.66s-9,5.66-14.1,13.43C55.54,15.88,69,4.44,77.53,1,76.08,1,69.86,2.66,69.86,2.66Z"/><path class="cls-10" d="M74.64,1.67s-.48.21-1.29.64c-.4.21-.89.49-1.45.79s-1.17.68-1.84,1.1l-1,.66c-.35.24-.72.47-1.09.73-.75.49-1.5,1.08-2.3,1.64s-1.58,1.21-2.36,1.88S61.71,10.45,61,11.19l-1.14,1.07-1.08,1.12c-.34.38-.7.73-1,1.11l-1,1.14c-.31.37-.63.72-.92,1.1s-.56.74-.82,1.1-.53.71-.78,1.06-.45.69-.67,1c-.42.66-.81,1.25-1.14,1.79l-.78,1.45L51,24.42v0a.22.22,0,0,1-.3.08.21.21,0,0,1-.09-.3h0l.7-1.27c.23-.4.5-.89.81-1.45s.75-1.14,1.18-1.79c.22-.33.43-.68.68-1l.8-1,.84-1.1c.3-.37.63-.73.94-1.1l1-1.14c.34-.37.7-.73,1.07-1.1l1.09-1.11c.39-.35.77-.71,1.15-1.06.76-.73,1.57-1.39,2.37-2s1.6-1.25,2.38-1.86S67.13,6,67.9,5.51L69,4.78l1-.64c.67-.41,1.3-.76,1.86-1.07s1-.57,1.45-.78C74.16,1.87,74.64,1.67,74.64,1.67Z"/><path class="cls-10" d="M84.44,1.37s-1.65.77-4,2.18a58.32,58.32,0,0,0-8.1,5.88c-.68.6-1.35,1.22-2,1.84-.32.31-.64.63-.94,1s-.59.64-.87,1-.56.64-.82,1-.51.63-.74.94-.46.61-.67.91-.42.59-.59.88c-.38.56-.69,1.1-1,1.58s-.47.91-.65,1.26c-.33.72-.51,1.13-.51,1.13v0a.23.23,0,0,1-.42-.19h0l.54-1.15c.2-.35.41-.79.69-1.28s.61-1,1-1.59c.18-.29.4-.58.62-.88s.44-.6.69-.91.49-.63.76-.94.55-.64.84-1,.59-.63.9-.95.62-.63.95-.95c.64-.63,1.33-1.23,2-1.83A58,58,0,0,1,80.42,3.5C82.78,2.12,84.44,1.37,84.44,1.37Z"/><path class="cls-4" d="M52.37,11.16s-7.22,5.72-9.49,13.16C44,22.37,49.1,13.43,57.6,7.77A61.62,61.62,0,0,0,52.37,11.16Z"/><path class="cls-10" d="M55,9.44s-1.18,1-2.8,2.57c-.4.41-.85.84-1.28,1.31s-.92,1-1.39,1.52-.94,1.1-1.42,1.66-.92,1.2-1.39,1.79-.89,1.23-1.3,1.85-.82,1.24-1.16,1.86c-.16.31-.34.62-.51.91s-.33.59-.46.89c-.27.6-.56,1.13-.77,1.66s-.39,1-.55,1.44-.24.82-.35,1.14l-.28,1v0a.22.22,0,1,1-.43-.12h0s.11-.37.3-1c.11-.31.19-.72.37-1.15s.37-.92.59-1.45.53-1.09.81-1.67c.14-.3.31-.6.49-.89l.53-.92c.36-.61.8-1.22,1.2-1.85s.89-1.23,1.35-1.84.94-1.19,1.43-1.77,1-1.13,1.46-1.65,1-1,1.42-1.49.91-.89,1.32-1.3C53.79,10.39,55,9.44,55,9.44Z"/><path class="cls-8" d="M161.28,58.66c-2.13,1.16,7,11.32,25.58,20.49,0-.29,0-.59.05-.89-4.77-2.91-19-11.86-19.14-15.19-.11-3.16,9.58-1.23,15,.08-.14-.29-.28-.57-.42-.84C176.92,61,163.11,57.66,161.28,58.66Z"/><path class="cls-4" d="M167.77,63.07c.11,3.33,14.38,12.28,19.14,15.19.16-4.82-1.76-10.32-4.14-15.11C177.35,61.84,167.67,59.92,167.77,63.07Z"/><path class="cls-4" d="M168,54.48c-1.51,1.64,5.45,4,12.51,4.52a46.44,46.44,0,0,0-4.29-6.1l.74-.59C174,52.58,169.14,53.21,168,54.48Z"/><path class="cls-8" d="M158.78,51.14c1.7-.76,10.83,1,20.09-.64.55-.57,1-1.14,1.51-1.71-6.68.8-16.14,1.68-15.66-1.41,1.76-5.3,15.8-11.26,21.17-13.37.06-.41.11-.76.16-1l-.63,0C180.45,34.8,165.91,40.72,158.78,51.14Z"/><path class="cls-3" d="M161.28,58.66c1.82-1,15.63,2.31,21.06,3.66-.38-.73-.77-1.43-1.15-2.11-9.43-1.57-22.56-2.84-21.54-5.17,2.52-2.8,14.84-3.59,18.43-3.75.28-.26.54-.52.79-.78-9.26,1.64-18.4-.12-20.09.64C165.91,40.72,180.45,34.8,185.41,33c-20.33,1-29.73,17.55-29.73,17.55s-.45.42.08,1.78c4.56,22.41,29.45,29.66,31,27.5,0-.24.05-.47.07-.71C168.31,70,159.16,59.82,161.28,58.66Z"/><path class="cls-8" d="M159.65,55c-1,2.33,12.11,3.6,21.54,5.17-.24-.42-.47-.81-.71-1.2-7.06-.54-14-2.88-12.51-4.52,1.17-1.28,6-1.9,9-2.17.41-.34.79-.68,1.15-1C174.49,51.45,162.17,52.23,159.65,55Z"/><path class="cls-4" d="M164.71,47.38c-.48,3.09,9,2.2,15.66,1.41,4.57-5.73,5.14-12,5.5-14.78C180.52,36.13,166.48,42.08,164.71,47.38Z"/><path class="cls-11" d="M13.2,66.31c1.78,2.2,4.7,1.15,6.61-1.56,1.75-2.5,3.41-5.93,3.41-9,0-2.61-1.35-4.62-3.64-4.09S15,54.27,13.46,56.86C11.67,59.95,11.09,63.71,13.2,66.31Z"/><path class="cls-12" d="M13.2,66.31c1.78,2.2,4.7,1.15,6.61-1.56,1.75-2.5,3.41-5.93,3.41-9,0-2.61-1.35-4.62-3.64-4.09S15,54.27,13.46,56.86C11.67,59.95,11.09,63.71,13.2,66.31Zm.61-9.83a9,9,0,0,1,4-3.82c1.33-.65,2.43-.61,3.37.47a3.11,3.11,0,0,1,1,2.33A14.78,14.78,0,0,1,20,61.83C19,63.67,18,65.08,16.38,65.37s-2.66-1.22-3.21-3A7.25,7.25,0,0,1,13.81,56.48Z"/><g class="cls-13"><path class="cls-14" d="M14.85,61c-1.49,2.53-3.1,3.45-3.58,2.07s.33-4.57,1.82-7.09,3.09-3.46,3.57-2.07S16.33,58.43,14.85,61Z"/><path class="cls-15" d="M14.74,60.68c-1.32,2.24-2.74,3.07-3.16,1.83s.28-4,1.61-6.29,2.74-3.06,3.16-1.83S16.06,58.43,14.74,60.68Z"/><path d="M14.43,59.79c-.79,1.35-1.64,1.84-1.9,1.1s.17-2.43,1-3.77,1.65-1.84,1.9-1.1S15.23,58.44,14.43,59.79Z"/><g class="cls-16"><path class="cls-17" d="M12.24,62.76c.2,0,.53-.25.7-.78.11-.36.07-.49,0-.55s-.51.1-.59-.21a3.72,3.72,0,0,1,.19-2.32c.33-.81.49-1.14.26-1.1s-.69,1.17-.87,1.78a4.8,4.8,0,0,0-.16,2.65c.1.27.23.5.43.52Z"/></g><path class="cls-11" d="M16.66,55.24c.16-1.73-.58-1.06-1.13.16s-.86,3.13-.43,3.79S16.42,57.57,16.66,55.24Z"/></g><path class="cls-5" d="M1.9,70.73S8.57,75.62,12.57,69,26.45,28.42,59,22.32s52.52,6,71.84,17c19.77,10.77,24.32,11.44,26.76,12.43s2,2.55-9.33,1.56-28.32,1.55-43.31,18-24.09,25-56.4,21.43C25.11,89.16,6,85.94.35,74.73-.65,71.18.68,70.07,1.9,70.73Z"/><path class="cls-18" d="M41.13,59.49a14.18,14.18,0,0,0-6.93-9.24,6.44,6.44,0,0,0-8.79,2.58c-2,3.49-1.49,8.26-.15,12,1.46,4.1,5.69,6.88,10.15,5.4C40.66,68.51,42.12,64,41.13,59.49Z"/><path class="cls-18" d="M40,59.79a12.7,12.7,0,0,0-6.23-8.27,5.8,5.8,0,0,0-7.9,2.3c-1.81,3.11-1.33,7.38-.13,10.74,1.31,3.66,5.12,6.15,9.12,4.83C39.57,67.83,40.87,63.75,40,59.79Z"/><path class="cls-11" d="M38.24,60.16A11.24,11.24,0,0,0,33,52.64c-2.66-1.49-5.41-.22-6.72,2.18-1.57,2.87-1.2,6.77-.2,9.84C27.18,68,30.4,70.25,33.81,69,37.82,67.53,39,63.79,38.24,60.16Z"/><path class="cls-14" d="M34.92,59.82c0,3.13-2,5.68-4.55,5.68S25.82,63,25.82,59.82s2-5.68,4.54-5.68S34.92,56.69,34.92,59.82Z"/><path class="cls-19" d="M34.4,59.82c0,2.77-1.81,5-4,5s-4-2.26-4-5,1.8-5,4-5S34.4,57,34.4,59.82Z"/><path d="M32.79,59.82a2.77,2.77,0,0,1-2.43,3c-1.33,0-2.41-1.35-2.41-3a2.77,2.77,0,0,1,2.41-3A2.77,2.77,0,0,1,32.79,59.82Z"/><g class="cls-16"><path class="cls-20" d="M31.94,64.08c.38-.28.74-.8.46-1.28a.48.48,0,0,0-.67-.23,2.16,2.16,0,0,1-1.37.69,2.51,2.51,0,0,1-2.26-1.33c-.27-.81-.35-1.17-.74-.85s0,1.45.33,2a3.28,3.28,0,0,0,2.73,1.43,2.62,2.62,0,0,0,1.41-.33Z"/></g><path class="cls-11" d="M31.91,54.79c-1.64-1-2.32.26-2,1.55a3.29,3.29,0,0,0,3.49,2.3C35,58.39,34.12,56.16,31.91,54.79Z"/><path class="cls-21" d="M2.68,73.51a2,2,0,0,0-.48,0,1,1,0,0,0-.53.21.63.63,0,0,0-.07.72,2.84,2.84,0,0,0,.52.8A5.6,5.6,0,0,0,3,76a19,19,0,0,0,2.36,1.39,31,31,0,0,0,6.44,2.36,34.5,34.5,0,0,0,3.8.72,36.52,36.52,0,0,0,4,.3,34.49,34.49,0,0,0,4-.16A32.75,32.75,0,0,0,27.38,80l1.8-.41,1.69-.47,1.58-.53c.51-.18,1-.38,1.46-.55s.91-.37,1.33-.56.81-.35,1.17-.53c.73-.37,1.37-.67,1.87-1l1.6-.89.44.77-1.65.87c-.52.28-1.18.57-1.92.92-.37.18-.79.34-1.21.52s-.88.38-1.36.54-1,.36-1.49.54l-1.63.49-1.73.46-1.83.38a37.81,37.81,0,0,1-3.89.49,36.53,36.53,0,0,1-4,.08,39.6,39.6,0,0,1-4-.38A36.05,36.05,0,0,1,11.75,80a31.58,31.58,0,0,1-6.43-2.5A17.18,17.18,0,0,1,3,76.05a5.47,5.47,0,0,1-.88-.75,3,3,0,0,1-.52-.83.65.65,0,0,1,.09-.74.87.87,0,0,1,.53-.2A1.78,1.78,0,0,1,2.68,73.51Z"/><path class="cls-21" d="M38,72.07s0,.14.13.38a7.14,7.14,0,0,0,.4.92c.09.19.22.36.34.55s.14.18.21.27a3.5,3.5,0,0,0,.23.27c.09.08.17.17.26.24l.29.22a1.53,1.53,0,0,0,.32.19,2.72,2.72,0,0,0,.33.18l.36.13.18.07.19,0a4.44,4.44,0,0,0,.74.14c.25,0,.49.08.72.06l.66,0a4.84,4.84,0,0,0,.58,0h.85l-.36.16-.43.18a2.65,2.65,0,0,1-.57.19l-.7.14a4.91,4.91,0,0,1-.8.05,4.58,4.58,0,0,1-.88-.08,3.67,3.67,0,0,1-.89-.27,2.81,2.81,0,0,1-.41-.23,1.76,1.76,0,0,1-.39-.26L39,75.3,38.7,75a1.78,1.78,0,0,1-.24-.36c-.06-.12-.13-.24-.19-.36a4,4,0,0,1-.23-.7,3.28,3.28,0,0,1-.09-.6c0-.19,0-.34,0-.47A2.21,2.21,0,0,1,38,72.07Z"/><path class="cls-22" d="M44.21,68.18c.66,0,3.33-2.23,6,.43s-1.33,4.67-4.89,3.78S42.44,68.18,44.21,68.18Z"/><g class="cls-23"><path class="cls-5" d="M122,52.26c-25.46,1.93-43.67,12-58.93,20.58S39,78,42.36,77.28s10.22-4,3.55-2.37c-6.81,2.22-7.25-4.59-7.85-4a3.45,3.45,0,0,0,0,4.15c1.18,1.78-4.14,4.59-18.8,5.48C3.57,80.54.87,73.86.4,71c-.45.6-.59,1.81-.05,3.75,5.66,11.21,24.76,14.43,48.2,18,32.31,3.56,41.42-5,56.4-21.43s32-19,43.31-18c9.13.8,11.19-.05,10.36-.94C152.78,52.8,140.41,50.87,122,52.26Z"/></g><path class="cls-24" d="M2.68,75.51s16.14,11.4,36.57.44c2.37-.3,1,3.41-5.77,6.82s28.14,8.73,45-6.67,46-24.87,65.88-23c-13.76.75-28.56,4-41.3,20.29-11.41,12.44-22.51,24.14-56.86,19C26.81,88.68,7.12,86,1.94,77.28.31,73.13,1.64,74.47,2.68,75.51Z"/><path class="cls-4" d="M111.84,23.76s-1.45,1.11-1.34,2.22,3.12-.89,3.12-.89Z"/><path class="cls-4" d="M114.84,26.54s-1,1.78.33,2a4.42,4.42,0,0,0,2.44-.33S114.61,25.76,114.84,26.54Z"/><path class="cls-4" d="M120.05,30.31s-1.44.33.78,2.55,23.77,13.55,27.65,14C148.26,46.52,125.05,35,120.05,30.31Z"/><path class="cls-24" d="M2.47,74S6.67,78.17,17,79.28a33.46,33.46,0,0,0,20.1-4.22c1.89-.66-6.21,4.77-14.77,5.22S3.13,76.62,2.47,74Z"/><path class="cls-8" d="M59.31,70.07s9.1,3,10.44,18.21C72.64,89.83,87.52,85.39,81,70.4,78.64,68,68.42,72.51,60.09,69.18,58.76,69.18,58.86,69.84,59.31,70.07Z"/><path class="cls-10" d="M59.33,70a9,9,0,0,1,1.24.58l.59.35c.2.13.39.25.57.39l.56.41.53.44c.36.28.68.62,1,.94s.62.68.94,1a13.06,13.06,0,0,1,.85,1.09c.13.19.28.37.4.56l.37.59a10.93,10.93,0,0,1,.69,1.2l.62,1.24c.18.43.34.86.51,1.29l.26.65c.08.22.13.45.2.67l.39,1.33c.13.44.19.91.29,1.36l.28,1.36L70,88.25l-.12-.17a3.57,3.57,0,0,0,1.5.27,9.37,9.37,0,0,0,1.6-.16,14.62,14.62,0,0,0,1.56-.41,11.62,11.62,0,0,0,1.51-.6,13.75,13.75,0,0,0,1.43-.78l.67-.45.65-.5.61-.55L80,84.3l.52-.62.47-.66.41-.71c.13-.25.24-.49.35-.74A9.19,9.19,0,0,0,82.22,80a5.28,5.28,0,0,0,.16-.81,7.43,7.43,0,0,0,.11-.81c0-.28.05-.54,0-.82v-.82c0-.27,0-.54-.07-.82l0-.41-.07-.4-.15-.81L82,73.53c-.12-.53-.33-1-.5-1.57s-.41-1-.62-1.52l0,0a2.16,2.16,0,0,0-1.11-.55,6,6,0,0,0-1.29-.13,21.27,21.27,0,0,0-2.63.17l-2.64.3c-.88.11-1.77.18-2.65.24a30.35,30.35,0,0,1-5.33-.06c-.44,0-.88-.11-1.32-.18l-.65-.12L62.62,70c-.22,0-.43-.11-.64-.16l-.65-.19c-.42-.12-.84-.29-1.26-.44h0a4,4,0,0,0-.45,0,1.24,1.24,0,0,0-.42.13.34.34,0,0,0-.18.36A.54.54,0,0,0,59.33,70Zm0,0a.6.6,0,0,1-.3-.35.28.28,0,0,1,0-.24.45.45,0,0,1,.16-.17,1.33,1.33,0,0,1,.44-.15,2.82,2.82,0,0,1,.46,0h0c.42.15.83.31,1.26.43a12.17,12.17,0,0,0,1.28.32l.65.13.65.09c.43.05.87.11,1.32.13a24.83,24.83,0,0,0,2.64.05c.88,0,1.76-.07,2.64-.15s1.76-.18,2.64-.26l2.63-.28c.44,0,.89-.07,1.33-.08a11.8,11.8,0,0,1,1.34,0,6.64,6.64,0,0,1,1.34.16,2.49,2.49,0,0,1,1.22.65l0,0h0c.19.51.41,1,.59,1.55s.37,1,.48,1.59l.2.8.15.82.07.41,0,.41c0,.28.06.55.08.83l0,.82c0,.28,0,.55,0,.84a6.29,6.29,0,0,1-.1.82,7.78,7.78,0,0,1-.15.82,10.73,10.73,0,0,1-.49,1.59c-.11.25-.22.51-.35.76l-.41.74-.46.69-.52.66-.56.62-.61.56-.65.53-.68.49a16,16,0,0,1-1.45.83,12.77,12.77,0,0,1-1.55.64,12.06,12.06,0,0,1-1.62.45,9.7,9.7,0,0,1-1.68.19,4,4,0,0,1-1.72-.3l-.1-.06,0-.13-.34-2.72-.26-1.33c-.11-.45-.16-.9-.3-1.33l-.38-1.32c-.06-.22-.11-.44-.19-.65l-.23-.64L67.35,79l-.58-1.23a11.91,11.91,0,0,0-.65-1.2l-.33-.6c-.11-.19-.25-.38-.38-.56a13.37,13.37,0,0,0-.8-1.12c-.3-.34-.56-.71-.89-1a12.72,12.72,0,0,0-1-1l-.52-.45-.54-.42c-.18-.14-.38-.26-.57-.39s-.37-.25-.58-.36a8.78,8.78,0,0,0-1.23-.6Z"/><path class="cls-3" d="M82.85,74.29c0-.13-.28-.25-.68-.36-1.71-.47-6.13-.9-7.65-2s.7-1.88,3.25-2.3c-4.26.12-11.49,2-17.68-.47-1.34,0-1.23.66-.78.89,0,0,9.1,3,10.44,18.21a2.84,2.84,0,0,0,.89.25,49,49,0,0,0-2.78-10.25c-1.31-3.51,3,.57,5.35,10.06,0,.12.06.25.09.37,1,1.44,1.22.11,1.34-.22a2,2,0,0,0-.11-.51c-.59-2.06-3.37-9.61-5.12-12-1.94-2.69,5.23,1.63,10,9.1l.42.67c1,.78.67-.22.44-.88a2.12,2.12,0,0,0-.24-.43c-1-1.49-4.69-6-6.64-8.46-2.21-2.77-1.89-3.21,3.78-1.88,3.12.8,4.55,1,5.2.88S82.9,74.59,82.85,74.29Z"/><path class="cls-10" d="M82.83,74.29c0-.12-.2-.17-.33-.22a2.15,2.15,0,0,0-.41-.13l-.83-.19-1.69-.3c-1.13-.21-2.27-.41-3.38-.73-.27-.09-.55-.17-.82-.28a4.14,4.14,0,0,1-.78-.38,2,2,0,0,1-.35-.27l-.15-.18a1.46,1.46,0,0,1-.09-.23.87.87,0,0,1,.46-.76,4.41,4.41,0,0,1,.77-.41c.27-.1.55-.2.83-.28a15.67,15.67,0,0,1,1.69-.38l0,.21c-1.49.07-3,.28-4.45.45s-3,.33-4.46.39c-.37,0-.75,0-1.13,0s-.74,0-1.12,0a9.82,9.82,0,0,1-1.12-.06c-.38,0-.76-.05-1.13-.1s-.75-.09-1.12-.17-.74-.13-1.1-.23-.73-.19-1.09-.31L60,69.36h.07c-.14,0-.29,0-.42,0l-.19,0-.09,0-.08,0a.27.27,0,0,0-.09.08s0,0,0,0,0,0,0,.05a.38.38,0,0,0,.19.2h0a9.13,9.13,0,0,1,1.27.61c.21.11.4.24.6.36a5.54,5.54,0,0,1,.57.4l.56.41.52.46a10,10,0,0,1,1,1,10.81,10.81,0,0,1,.92,1c.31.34.55.74.83,1.11.12.2.26.38.38.57l.35.6c.22.41.48.79.66,1.22l.58,1.25c.18.42.33.86.49,1.29l.24.65a6.46,6.46,0,0,1,.2.66l.37,1.33c.14.44.19.9.29,1.35l.27,1.35.34,2.74,0-.05.21.08a1,1,0,0,0,.21.08l.46.09-.08.07c-.17-1-.39-2.06-.61-3.08s-.49-2-.77-3c-.16-.5-.29-1-.46-1.51s-.33-1-.53-1.47-.4-.95-.58-1.46a1.72,1.72,0,0,1-.11-.84.27.27,0,0,1,.22-.22A.5.5,0,0,1,68,77a1.91,1.91,0,0,1,.34.25,8.31,8.31,0,0,1,1,1.24c.29.44.56.89.82,1.35a27.86,27.86,0,0,1,1.36,2.85,40.84,40.84,0,0,1,2,6l0-.06a2.28,2.28,0,0,0,.29.36.71.71,0,0,0,.31.21c.05,0,.12,0,.19-.17a1.4,1.4,0,0,0,.16-.42l0-.13v0h0v0a.06.06,0,0,0,0,0,1.64,1.64,0,0,1,0-.2c0-.16-.1-.31-.15-.47-.1-.32-.19-.64-.31-1-.43-1.25-.88-2.5-1.37-3.73-.24-.62-.5-1.24-.75-1.85S71.28,80,71,79.39s-.57-1.19-.87-1.78l-.23-.44-.26-.42c-.18-.27-.33-.55-.53-.83a1.66,1.66,0,0,1-.25-.55.43.43,0,0,1,0-.27.41.41,0,0,1,.26-.19.74.74,0,0,1,.35,0,4.56,4.56,0,0,1,1,.46,16.63,16.63,0,0,1,1.65,1.17,33,33,0,0,1,3,2.71,38,38,0,0,1,2.64,3c.41.53.81,1.06,1.19,1.62S79.69,85,80,85.61L80,85.55a1.52,1.52,0,0,0,.32.21s.1,0,.07,0l-.05,0h0v0a1,1,0,0,0,0-.34,3.65,3.65,0,0,0-.11-.39l0-.11v-.07s0,0,0,0h0l-.1-.18-.11-.19v0h0v0l0,0-.07-.08-.49-.69c-.34-.46-.67-.92-1-1.37l-1-1.34L73,75.64a6.46,6.46,0,0,1-.91-1.47.82.82,0,0,1-.05-.47.46.46,0,0,1,.33-.35,2.23,2.23,0,0,1,.87-.08,14.36,14.36,0,0,1,1.7.25l1.66.37c.56.12,1.11.27,1.66.4s1.1.26,1.66.38a16.12,16.12,0,0,0,1.68.25,2.65,2.65,0,0,0,.84,0,.44.44,0,0,0,.33-.2.61.61,0,0,0,0-.4Zm0,0a.73.73,0,0,1,0,.44.57.57,0,0,1-.36.23,3.1,3.1,0,0,1-.86,0,15,15,0,0,1-1.69-.25c-.56-.11-1.12-.23-1.67-.35s-1.1-.27-1.66-.39-1.1-.25-1.67-.35a12.37,12.37,0,0,0-1.68-.22,2.33,2.33,0,0,0-.81.08.36.36,0,0,0-.23.24.65.65,0,0,0,.05.37,6.17,6.17,0,0,0,.91,1.39l4.31,5.28,1.06,1.33c.36.45.7.9,1,1.36l.51.68.07.08,0,0,.05.08.11.18.11.19h0v.06l0,0,0,.11.13.42a1.77,1.77,0,0,1,.06.49l0,.08a.47.47,0,0,1,0,.11.35.35,0,0,1-.22.15.59.59,0,0,1-.34-.06,2.45,2.45,0,0,1-.4-.25s0,0,0,0h0c-.35-.57-.71-1.11-1.08-1.66s-.78-1.07-1.18-1.59a35.54,35.54,0,0,0-2.62-3,33.76,33.76,0,0,0-2.94-2.66,16.26,16.26,0,0,0-1.61-1.12,4.08,4.08,0,0,0-.84-.41.43.43,0,0,0-.14,0s0,0,.06-.05,0,0,0,0a2.27,2.27,0,0,0,.17.35c.18.26.36.56.54.85l.27.44.23.44c.31.6.61,1.2.88,1.81s.55,1.22.8,1.84.51,1.23.75,1.86c.49,1.25.94,2.49,1.37,3.77.11.32.2.64.3,1a4.49,4.49,0,0,1,.14.47,2,2,0,0,1,.07.3.64.64,0,0,1,0,.08v.08h0v0l0,.11a2.25,2.25,0,0,1-.19.51,1.14,1.14,0,0,1-.21.26.55.55,0,0,1-.38.1,1,1,0,0,1-.52-.33,3.4,3.4,0,0,1-.33-.41l0-.05h0a42.17,42.17,0,0,0-1.87-6A28.88,28.88,0,0,0,69.94,80c-.25-.45-.51-.91-.8-1.34a7.57,7.57,0,0,0-1-1.2,1.29,1.29,0,0,0-.29-.22l-.11,0s0,0,0,.05a1.73,1.73,0,0,0,.11.71c.15.47.38,1,.56,1.46s.34,1,.52,1.49.3,1,.45,1.52c.28,1,.52,2,.75,3.05s.42,2.06.59,3.09h0s0,.07-.05.07h0l-.46-.09a1.41,1.41,0,0,1-.23-.08l-.22-.08a.05.05,0,0,1,0,0h0l-.35-2.73-.28-1.34c-.1-.44-.16-.9-.3-1.34l-.38-1.32c-.07-.22-.12-.44-.21-.65l-.24-.64c-.18-.43-.33-.86-.51-1.28l-.61-1.23a11.88,11.88,0,0,0-.67-1.2L65.79,76c-.11-.19-.26-.37-.38-.56-.28-.36-.52-.75-.83-1.09s-.57-.71-.91-1-.64-.65-1-.93L62.16,72l-.56-.4a5.34,5.34,0,0,0-.56-.38,5.51,5.51,0,0,0-.58-.35,8,8,0,0,0-1.21-.58h0a.75.75,0,0,1-.39-.46.44.44,0,0,1,0-.35.64.64,0,0,1,.22-.24.54.54,0,0,1,.13-.05l.12-.05a1.6,1.6,0,0,1,.25-.06,3.65,3.65,0,0,1,.48,0h.08l1,.37c.35.11.71.19,1.07.3s.72.15,1.08.22.73.12,1.09.17.74.08,1.11.11.73.06,1.1.07.75,0,1.11,0,.74,0,1.12,0c.73,0,1.48-.07,2.22-.12s1.48-.12,2.22-.2c1.48-.14,3-.33,4.46-.37a.1.1,0,0,1,.11.1.12.12,0,0,1-.09.11,14.18,14.18,0,0,0-1.68.35c-.27.07-.55.17-.81.26a3.64,3.64,0,0,0-.75.38c-.22.16-.44.37-.41.63s.29.44.51.6a4.48,4.48,0,0,0,.76.39,8.42,8.42,0,0,0,.81.27,31.36,31.36,0,0,0,3.36.75l1.69.33c.28.05.57.12.84.19l.41.12c.12.07.3.11.35.26Z"/><path class="cls-4" d="M80.89,82.58a31.73,31.73,0,0,0-5.4-6.74c-2.82-2.36,5.35-1.13,6.66.08C83,76.73,82.08,81.54,80.89,82.58Z"/><path class="cls-4" d="M75,87.58s-1.78-6.66-2.82-8.44,5.33,3.7,6.55,5.59C79.14,85.34,76.33,87.28,75,87.58Z"/><path class="cls-4" d="M71,87.94a59.56,59.56,0,0,0-1.63-7c-.66-1.63,2.15,3.41,3.11,7C72.42,88.23,71.38,88.39,71,87.94Z"/><path class="cls-4" d="M81.86,73.29a31.21,31.21,0,0,0-5.4-1.63c-1.63-.22,3.33-1.55,4.63-.82A5.24,5.24,0,0,1,81.86,73.29Z"/><path class="cls-10" d="M59.87,70.17l.27,0a5.68,5.68,0,0,1,.77.17,3.62,3.62,0,0,1,.54.17c.19.07.4.14.61.24a9.83,9.83,0,0,1,1.42.74A16.09,16.09,0,0,1,65,72.62c.26.21.51.45.78.68l.39.36.38.39c.25.27.5.55.76.82s.46.6.7.9.49.6.7.92l.65,1c.44.64.78,1.34,1.16,2,.17.34.37.66.52,1s.31.68.47,1c.3.67.6,1.3.82,1.93s.45,1.22.65,1.77.34,1.06.48,1.51l.34,1.18.29,1s-.12-.37-.35-1L73.37,87c-.16-.44-.31-1-.53-1.49s-.45-1.12-.7-1.74-.55-1.25-.86-1.91c-.14-.32-.3-.66-.46-1s-.35-.67-.54-1a22.6,22.6,0,0,0-1.17-2c-.21-.33-.41-.66-.63-1S68,76.27,67.8,76s-.45-.6-.7-.89l-.73-.82L66,73.87l-.38-.37c-.25-.23-.5-.48-.75-.7a14.19,14.19,0,0,0-1.49-1.1A14.38,14.38,0,0,0,62,70.9l-.61-.26c-.19-.08-.36-.13-.52-.2-.32-.11-.57-.17-.76-.22Z"/><path class="cls-10" d="M59.31,69.81a8.06,8.06,0,0,1,1,.17l1.14.27c.43.11.92.24,1.45.43s1.1.39,1.7.62,1.21.51,1.83.81,1.28.63,1.9,1l1,.57.92.63c.63.41,1.2.89,1.77,1.34l.43.35.4.37.78.73a9.5,9.5,0,0,1,.73.73l.66.73c.2.25.42.46.61.7l.53.7c.33.45.67.84.9,1.23l.62,1,.52.88-.59-.84c-.18-.27-.4-.59-.66-1s-.61-.75-.94-1.19l-.54-.67c-.19-.24-.42-.45-.62-.67L74.15,78c-.12-.11-.23-.25-.35-.36l-.38-.34-.78-.71c-.14-.12-.26-.24-.4-.36l-.43-.34c-.57-.44-1.14-.91-1.77-1.31l-.9-.63-.94-.56c-.62-.41-1.26-.71-1.87-1s-1.23-.59-1.81-.84-1.14-.49-1.66-.66A26.71,26.71,0,0,0,60.31,70C59.68,69.88,59.31,69.81,59.31,69.81Z"/><path class="cls-10" d="M62.43,70.17l.81.14c.53.08,1.28.2,2.17.38s1.94.35,3.05.58,2.29.48,3.48.74,2.35.55,3.46.8,2.12.57,3,.8,1.6.49,2.09.65l.8.26-.81-.21c-.52-.12-1.24-.33-2.13-.52l-3-.69c-1.1-.25-2.29-.51-3.47-.76l-6.49-1.46Z"/><path class="cls-22" d="M43.69,64.84a3.13,3.13,0,0,1,2.36-1.48C47.55,63.36,43.69,67.07,43.69,64.84Z"/><path class="cls-8" d="M102,52c1.41-.74,3.8-8.86,1.31-16.33-1.68-5-2.43-8.44-3.25-10.82a80.54,80.54,0,0,0-12.2-3C92.64,26.31,101.4,36.57,102,52Z"/><path class="cls-8" d="M118,47.62c.91-.54,3-7.85,2.32-14-2.58-1.4-5.22-2.77-7.92-4.07a70.1,70.1,0,0,0,2.59,7.8C116.71,41.63,117.77,44.27,118,47.62Z"/><path class="cls-8" d="M129,46.13a.17.17,0,0,0,0,.07c.19.3,2.73-2.19,3.76-5.68l-2.65-1.43-.84-.48A29.77,29.77,0,0,1,129,46.13Z"/><path class="cls-3" d="M129,46.13a29.77,29.77,0,0,0,.31-7.52l-2-1.12c.31,1.36.72,3.22,1,4.7C128.91,44.69,128.84,45.73,129,46.13Z"/><path class="cls-3" d="M118,47.62c-.19-3.35-1.26-6-3-10.31a70.1,70.1,0,0,1-2.59-7.8c-1.89-.9-3.8-1.75-5.76-2.56,3,4.18,10.8,15.29,11.35,20.69Z"/><path class="cls-8" d="M52.65,35.42c6.51,5.13,19.28,17.65,21.64,28.28,1-1.37,1.53-12.69-15.35-28.31a53,53,0,0,0-12.69-8.45,49.91,49.91,0,0,0-8.41,5.18C41.62,31.77,48.1,31.84,52.65,35.42Z"/><path class="cls-3" d="M51.21,38.53c12.88,9,21,19.44,22.87,25.32a.41.41,0,0,0,.2-.16C71.93,53.07,59.16,40.55,52.65,35.42c-4.55-3.58-11-3.65-14.82-3.31-.82.62-1.6,1.25-2.37,1.9C38.62,33.22,43.87,33.41,51.21,38.53Z"/><path class="cls-3" d="M101.4,51.74c.15.29.36.36.58.24-.58-15.4-9.34-25.67-14.14-30.17a78.58,78.58,0,0,0-10.54-1c1.82,1.27,4.27,2.88,6.78,4.28C89.07,27.87,99.18,39.64,101.4,51.74Z"/><path class="cls-8" d="M91.17,60.6c.42,1.45.68,2.36.68,2.36s2.44-10.32-4-21.87c-5.31-9.52-13.35-17-18.77-19.77a91.74,91.74,0,0,0-10.44,1.55c-1.64.31-3.22.69-4.75,1.14a35.32,35.32,0,0,1,14.85,6.42C78.18,37.11,87.8,45.2,91.17,60.6Z"/><path class="cls-3" d="M76.53,39.2c3,2.45,11.66,11.55,13,15.88.66,2.15,1.24,4.09,1.66,5.52-3.38-15.39-13-23.48-22.42-30.17A35.32,35.32,0,0,0,53.9,24a47.51,47.51,0,0,0-5.69,2c2.8,0,7.72.42,10.55,2.72C62.87,32.09,73.53,36.75,76.53,39.2Z"/><path class="cls-25" d="M7.57,73.18s7.55.22,11.55-10.33c9.31-24.57,22.66-33.53,43.31-40.64,0,0-28.37,4.24-40,28C12.45,70.63,14.9,70.51,7.57,73.18Z"/><path class="cls-4" d="M70.9,23a9,9,0,0,1,3.62,2.63,23.22,23.22,0,0,0,4.74,4.75,17.87,17.87,0,0,1,3.57,4.11c.43.75,1.18.33,3.11,4.39s-1.86-1.84-3.3-3.21S78.91,32,77.76,31a14.52,14.52,0,0,0-3.17-2.77c-1.6-.95-.39-1.79-3.44-3.37S66.36,21.41,70.9,23Z"/><path class="cls-4" d="M98.63,25.91a42.57,42.57,0,0,0,1.93,5.18,9.19,9.19,0,0,1,1.18,4.29c.14,1.93,1.19,3,1.48,4.15a28.87,28.87,0,0,1,.3,4.89c0,.89.74.89,0,3.55s1.63-3.26.59-8.29-2.66-8.59-3.11-10.36a20.81,20.81,0,0,0-1.48-4C99.21,24.73,98.33,24.44,98.63,25.91Z"/><path class="cls-4" d="M118.47,34a10.07,10.07,0,0,0,.15,3.56,6.6,6.6,0,0,1,0,3.4,15.6,15.6,0,0,0-.15,3.11,9.14,9.14,0,0,1-.3,3s.89-3.7,1.19-6.22a28.25,28.25,0,0,0,.44-4.15,15.28,15.28,0,0,0-.3-3S118.47,32.57,118.47,34Z"/><path class="cls-4" d="M52.58,32s2.66,1.93,4.14,3,3.11,3.7,3.7,4.44a22.66,22.66,0,0,0,3.84,3.71c1.19.74,4.3,4,4.89,5.78s2.51,3.85,3.26,5.18a16,16,0,0,1,1.33,3.56c.15.59-2.37-7.85-6.22-12.74S57.62,33,52.58,32Z"/><path class="cls-11" d="M161.69,44.41s5-4.89,7.85-6.22,4.44-2.07,5.63-2.07-4.89,1.93-7.56,4.14S161.25,45.31,161.69,44.41Z"/><path class="cls-11" d="M160.21,60.85s4,6.94,9.82,11.12l.39.27C176.5,75.81,163.77,70,160.21,60.85Z"/><path class="cls-26" d="M45,36.72s9.62,5.63,13.76,11.1,1.34,5.63-4.29,5.49-10.66-1.19-12.14-2.67S39.1,45,36.3,42.35,38.37,33.75,45,36.72Z"/><path class="cls-26" d="M64.43,34.64s5,2.37,8.44,3.56,7.69,6.65,9,9,1.19,4.3-4.29,2.37-8-2.81-8.59-4.44-1.92-4.29-6.22-8.73S62.5,33.61,64.43,34.64Z"/><path class="cls-26" d="M83.38,27.25s3.69,1,8.29,7.84,5.77,8.45,3.4,8.59-6.21-3.26-6.36-4.74,0-1.62-3.69-5.77S78.64,25,83.38,27.25Z"/><path class="cls-26" d="M106.91,29.76s3.7,5.33,5.63,8.44,2.66,3.11,2.07,4.73-1.62-.44-4.74,1.49-3.25-1.63-3.25-3.55-.89-3.12-2.08-7S103.51,24.87,106.91,29.76Z"/><path class="cls-26" d="M121.57,37.31a8.51,8.51,0,0,1-.14,5.47c-1,3.41-.89,4.15,1.33,3s2.67-.6,3.71-2.67,2.36-2.66.3-4.45S121.43,34.5,121.57,37.31Z"/><path class="cls-11" d="M52.43,13.63a6.53,6.53,0,0,1,2.52-2.09C56.43,11,51.55,16,52.43,13.63Z"/><path class="cls-11" d="M57,10.06s.88-1.77,1.63-1.33S56.73,10.65,57,10.06Z"/><path class="cls-11" d="M64.87,10.51s1.92-2.07,2.81-2.22S64.27,11.4,64.87,10.51Z"/><path class="cls-11" d="M61.31,13.63s1.63-1.79,1.93-1.19-1,1.47-2.07,2.22S60.86,13.91,61.31,13.63Z"/><path class="cls-11" d="M64.57,12.29s.29-.89.89-.89S64.27,12.58,64.57,12.29Z"/><path class="cls-11" d="M72.42,12.58s2.22-2.22,3.11-2.36-2.37,2.8-3,3.25S71.82,13.18,72.42,12.58Z"/><path class="cls-11" d="M76.85,8.29s.9-1,1.33-.89S76.56,8.88,76.85,8.29Z"/><path class="cls-11" d="M80.56,14.06s2.23-2.22,3.26-2.36S80.26,15.1,80.56,14.06Z"/><path class="cls-11" d="M85.89,11a2.48,2.48,0,0,1,1.49-.44C88,10.65,85.15,11.11,85.89,11Z"/></g></g></g></svg>