<svg xmlns="http://www.w3.org/2000/svg" 
	xmlns:xlink="http://www.w3.org/1999/xlink" viewBox="0 0 122.44 99.82">
	<defs>
		<style>.cls-1{fill:none;}.cls-2{isolation:isolate;}.cls-3{fill:url(#linear-gradient);}.cls-16,.cls-18,.cls-4{fill:#0074c8;}.cls-21,.cls-22,.cls-4{opacity:0.7;}.cls-24,.cls-27,.cls-29,.cls-5{opacity:0.4;}.cls-21,.cls-22,.cls-24,.cls-29,.cls-5,.cls-9{mix-blend-mode:multiply;}.cls-24,.cls-6{fill:#4a7da0;}.cls-7{fill:#bdebff;}.cls-8{fill:url(#linear-gradient-2);}.cls-9{fill:#c5c8c9;opacity:0.8;}.cls-10{clip-path:url(#clip-path);}.cls-11{fill:url(#linear-gradient-3);}.cls-12{mix-blend-mode:screen;}.cls-13{fill:url(#linear-gradient-4);}.cls-14{fill:#fff;}.cls-15{fill:url(#linear-gradient-5);}.cls-16{opacity:0.6;}.cls-17,.cls-27{fill:#46a6db;}.cls-19{fill:#ffd833;}.cls-20,.cls-21,.cls-29{fill:#fa0;}.cls-22{fill:#ff9300;}.cls-23{fill:url(#radial-gradient);}.cls-25{fill:#1e4d72;}.cls-26{fill:#7c2705;}.cls-28{fill:#fff2bb;}.cls-30{fill:url(#radial-gradient-2);}.cls-31{fill:url(#linear-gradient-6);}.cls-32{fill:url(#linear-gradient-7);}</style>
		<linearGradient id="linear-gradient" x1="30.49" y1="30.08" x2="104.28" y2="30.08" gradientUnits="userSpaceOnUse">
			<stop offset="0.09" stop-color="#ffd833"/>
			<stop offset="0.82" stop-color="#46a6db"/>
		</linearGradient>
		<linearGradient id="linear-gradient-2" x1="4100.32" y1="224.93" x2="4122.17" y2="224.93" gradientTransform="matrix(-0.67, -0.07, -0.13, 0.98, 2795.6, 89.38)" gradientUnits="userSpaceOnUse">
			<stop offset="0.3" stop-color="#fff"/>
			<stop offset="0.92" stop-color="#e2eaec"/>
		</linearGradient>
		<clipPath id="clip-path">
			<path class="cls-1" d="M12.57,49.47c3.14,2.84,7.2.62,9.4-3.82,2-4.07,3.66-9.53,3-14.11-.6-3.84-3-6.49-6.29-5.19s-6.23,5-7.85,9.12C8.86,40.43,8.85,46.13,12.57,49.47Z"/>
		</clipPath>
		<linearGradient id="linear-gradient-3" x1="3417.57" y1="-62.22" x2="3423.79" y2="-46.09" gradientTransform="matrix(0.33, 0.42, -0.54, 0.9, -1155.4, -1362.82)" gradientUnits="userSpaceOnUse">
			<stop offset="0" stop-color="#381400"/>
			<stop offset="0.39" stop-color="#843700"/>
			<stop offset="1" stop-color="#de7c00"/>
		</linearGradient>
		<linearGradient id="linear-gradient-4" x1="3416.54" y1="-51.09" x2="3425.25" y2="-51.09" gradientTransform="matrix(0.33, 0.42, -0.54, 0.9, -1155.4, -1362.82)" gradientUnits="userSpaceOnUse">
			<stop offset="0" stop-color="#381400"/>
			<stop offset="0.15" stop-color="#843700"/>
			<stop offset="0.15" stop-color="#8b4004"/>
			<stop offset="0.2" stop-color="#ae701d"/>
			<stop offset="0.24" stop-color="#cb9730"/>
			<stop offset="0.29" stop-color="#e2b640"/>
			<stop offset="0.33" stop-color="#f2cc4b"/>
			<stop offset="0.37" stop-color="#fcda52"/>
			<stop offset="0.41" stop-color="#ffde54"/>
			<stop offset="0.48" stop-color="#fad952"/>
			<stop offset="0.57" stop-color="#edcb4c"/>
			<stop offset="0.66" stop-color="#d7b442"/>
			<stop offset="0.75" stop-color="#b89334"/>
			<stop offset="0.85" stop-color="#906922"/>
			<stop offset="0.95" stop-color="#60360c"/>
			<stop offset="1" stop-color="#451a00"/>
		</linearGradient>
		<linearGradient id="linear-gradient-5" x1="40.83" y1="76.03" x2="94.75" y2="76.03" xlink:href="#linear-gradient"/>
		<radialGradient id="radial-gradient" cx="1775.11" cy="-2881.52" r="3.07" gradientTransform="translate(-7801.94 12740.03) scale(4.4 4.4)" gradientUnits="userSpaceOnUse">
			<stop offset="0.42" stop-color="#8f2800"/>
			<stop offset="1" stop-color="#381a00"/>
		</radialGradient>
		<radialGradient id="radial-gradient-2" cx="1699.77" cy="-3260.99" r="3.39" gradientTransform="translate(-9319.35 19622.44) scale(5.5 6.01)" xlink:href="#linear-gradient-2"/>
		<linearGradient id="linear-gradient-6" x1="30.43" y1="29.42" x2="36.82" y2="45.98" gradientTransform="matrix(1, 0, 0, 1, 0, 0)" xlink:href="#linear-gradient-3"/>
		<linearGradient id="linear-gradient-7" x1="28.76" y1="41.71" x2="36.68" y2="41.71" gradientTransform="matrix(1, 0, 0, 1, 0, 0)" xlink:href="#linear-gradient-4"/>
	</defs>
	<title>fish3</title>
	<g class="cls-2">
		<g id="Layer_2" data-name="Layer 2">
			<g id="Layer_2-2" data-name="Layer 2">
				<path class="cls-3" d="M95.87,60.16l1-.14a9.19,9.19,0,0,1-.72-2.49,25.16,25.16,0,0,1-.24-5.05A60.42,60.42,0,0,1,98.79,37c.68-2.31,1.4-4.62,2.23-6.88.68-1.84,1.42-3.65,2-5.51,1.06-3.24,2.15-7.58-.08-10.59l-.07,0,0,0-.24-.38,0-.09C98.73,14.94,95.08,11.83,92,9.4A44.59,44.59,0,0,0,80.53,3.11,46.26,46.26,0,0,0,67,.07,35.42,35.42,0,0,0,54.7,1.48a59.09,59.09,0,0,0-14.06,6c-4,2.4-8,5.67-9.67,10.12l-.41.29c-.15.11,0,.36.15.26l.21-.14a.12.12,0,0,0,.17,0,.4.4,0,0,0,0-.08C38.84,13,47.07,9,56,7,64.5,5.16,74.16,5.41,81.2,11.1c5.77,4.65,8,12.08,8.85,19.18a82.36,82.36,0,0,1,.4,11c-.08,3.74-.38,7.53.39,11.22A12.43,12.43,0,0,0,95.87,60.16Z"/>
				<path class="cls-4" d="M103.85,15.71a20.11,20.11,0,0,1-2.5,9.52,66.54,66.54,0,0,0-3,7.91c-.41,1.14-1.56,4.81-3.38,4.38-1-.24-.25-7.68-.22-9.43a24.36,24.36,0,0,0-3.63-12.32,23.78,23.78,0,0,0-7.39-7.29,26.74,26.74,0,0,0-8.54-3.87,38.11,38.11,0,0,0-20.38.54,94.54,94.54,0,0,0-21.17,9.06c-.13.07.1-.92,0-1.05A15.53,15.53,0,0,0,31,17.58l-.41.29c-.15.11,0,.36.15.26l.21-.14a.12.12,0,0,0,.17,0,.4.4,0,0,0,0-.08C38.84,13,47.07,9,56,7,64.5,5.16,74.16,5.41,81.2,11.1c5.77,4.65,8,12.08,8.85,19.18a82.36,82.36,0,0,1,.4,11c-.08,3.74-.38,7.53.39,11.22a12.43,12.43,0,0,0,5,7.67l1-.14a9.19,9.19,0,0,1-.72-2.49,25.16,25.16,0,0,1-.24-5.05A60.42,60.42,0,0,1,98.79,37c.68-2.31,1.4-4.62,2.23-6.88.68-1.84,1.42-3.65,2-5.51C103.93,21.95,104.83,18.53,103.85,15.71Z"/>
				<g class="cls-5">
					<path class="cls-6" d="M102.55,16.12a13.61,13.61,0,0,1-5,6.14c-1,.78-2.14,1.49-3.25,2.18a29.85,29.85,0,0,0-3,2c-.19.15,0,.44.25.33,1.11-.6,2.17-1.36,3.23-2s2.34-1.55,3.45-2.42c2-1.58,3.95-3.57,4.63-6.1A.11.11,0,0,0,102.55,16.12Z"/>
					<path class="cls-6" d="M102,21.18a102.08,102.08,0,0,1-9.63,7.52c-.17.12,0,.4.16.29a55,55,0,0,0,9.61-7.66C102.21,21.24,102.07,21.1,102,21.18Z"/>
					<path class="cls-6" d="M100.75,25.25c-2.6,2.4-6.15,3.14-8.93,5.22-.16.12,0,.4.17.28,2.89-1.86,6.45-2.86,8.9-5.37C101,25.3,100.83,25.17,100.75,25.25Z"/>
					<path class="cls-6" d="M98.93,28.94c-2.63,1-5.25,2.26-7.79,3.52-.13.06,0,.27.09.22,2.63-1.08,5.21-2.35,7.78-3.56C99.1,29.06,99,28.89,98.93,28.94Z"/>
					<path class="cls-6" d="M97.69,31.66a18.79,18.79,0,0,0-3.43.87A6.23,6.23,0,0,0,91.63,34c-.09.11,0,.3.16.21a17,17,0,0,1,6-2.4C97.88,31.83,97.82,31.64,97.69,31.66Z"/>
					<path class="cls-6" d="M97.61,34.13a39,39,0,0,0-6,2.9c-.13.07,0,.3.1.25,2.06-.82,3.93-2.1,6-2.94C97.79,34.28,97.74,34.08,97.61,34.13Z"/>
					<path class="cls-6" d="M98,35.92a38.6,38.6,0,0,1-6.53,2.5.15.15,0,0,0,.09.3,27.82,27.82,0,0,0,6.54-2.62A.1.1,0,0,0,98,35.92Z"/>
					<path class="cls-6" d="M97,37.85a12.13,12.13,0,0,1-3,1.34,16.85,16.85,0,0,0-2.87,1,.14.14,0,0,0,.11.25A18.06,18.06,0,0,0,97.07,38C97.17,37.95,97.08,37.78,97,37.85Z"/>
					<path class="cls-6" d="M96.55,40.3a19.79,19.79,0,0,0-5.26,2.09.16.16,0,0,0,.16.28,52,52,0,0,1,5.15-2.14C96.74,40.47,96.69,40.25,96.55,40.3Z"/>
					<path class="cls-6" d="M96.37,42.68c-1.63.59-3.42.74-5,1.47-.17.08,0,.37.12.3,1.62-.62,3.39-.83,5-1.56A.11.11,0,0,0,96.37,42.68Z"/>
					<path class="cls-6" d="M95.43,45.68a11.82,11.82,0,0,0-4.28.41c-.17.06-.1.34.08.29a13.75,13.75,0,0,1,4.2-.48C95.57,45.91,95.57,45.69,95.43,45.68Z"/>
					<path class="cls-6" d="M94.84,47.62a6.15,6.15,0,0,0-4,.35c-.13.06,0,.28.11.24a7.3,7.3,0,0,1,3.81-.37C94.92,47.88,95,47.66,94.84,47.62Z"/>
					<path class="cls-6" d="M94.63,49.57a10.28,10.28,0,0,0-3.92.42.14.14,0,0,0,.07.27,15.65,15.65,0,0,1,3.85-.47C94.77,49.79,94.77,49.58,94.63,49.57Z"/>
					<path class="cls-6" d="M94.63,51.23a6,6,0,0,0-3.15.8c-.13.07,0,.3.1.25a7.9,7.9,0,0,1,3.05-.81C94.79,51.47,94.78,51.25,94.63,51.23Z"/>
					<path class="cls-6" d="M94.54,52.83a4.38,4.38,0,0,0-2.55.81c-.11.1,0,.26.14.2a6.29,6.29,0,0,1,2.41-.8C94.69,53,94.69,52.81,94.54,52.83Z"/>
					<path class="cls-6" d="M94.54,54.23a3.24,3.24,0,0,0-2.12.65c-.12.1,0,.27.16.2a4.14,4.14,0,0,1,2-.61A.12.12,0,1,0,94.54,54.23Z"/>
					<path class="cls-6" d="M100.43,15.06A13.84,13.84,0,0,1,95.84,21a28.55,28.55,0,0,1-3.17,2.28c-.49.31-1,.62-1.5.9a5,5,0,0,0-1.17.67.18.18,0,0,0,.13.31,7.69,7.69,0,0,0,2.79-1.47,28.78,28.78,0,0,0,3.19-2.43c1.87-1.61,3.95-3.67,4.56-6.14A.12.12,0,0,0,100.43,15.06Z"/>
					<path class="cls-6" d="M96.48,14.62A12.69,12.69,0,0,1,93,19.34c-.68.64-1.41,1.23-2.1,1.86-.38.35-.76.7-1.16,1a3.65,3.65,0,0,0-.36.45.17.17,0,0,0-.27.1.85.85,0,0,0,0,.34c0,.16.22.18.34.13a.84.84,0,0,0,.32-.33A10.46,10.46,0,0,1,91,21.73c.83-.77,1.67-1.53,2.47-2.32a12.06,12.06,0,0,0,3.25-4.73A.1.1,0,0,0,96.48,14.62Z"/>
					<path class="cls-6" d="M94.53,13a12.24,12.24,0,0,1-3.15,4.23c-1.07,1-2.42,1.82-3.42,2.9-.14.16,0,.44.24.31a28.46,28.46,0,0,0,3.63-3.13,10.84,10.84,0,0,0,2.92-4.25C94.79,12.94,94.58,12.9,94.53,13Z"/>
					<path class="cls-6" d="M92.71,11.78a13.64,13.64,0,0,1-3,3.09,6.55,6.55,0,0,0-2.25,2.73c0,.14.15.21.24.09a13.84,13.84,0,0,1,2.58-3,10.6,10.6,0,0,0,2.58-2.89A.08.08,0,0,0,92.71,11.78Z"/>
					<path class="cls-6" d="M91.48,10.43c-1.59,1.74-3.69,2.92-5.11,4.83-.12.17.17.34.3.17,1.42-1.86,3.45-3.09,5-4.87C91.69,10.47,91.56,10.34,91.48,10.43Z"/>
					<path class="cls-6" d="M89.56,9.09c-1.93,1.43-4.33,2.51-5.67,4.58-.13.2.18.38.32.19,1.44-2,3.63-3.05,5.46-4.62C89.75,9.17,89.64,9,89.56,9.09Z"/>
					<path class="cls-6" d="M86.64,8A18.63,18.63,0,0,0,82,11.52c-.16.16.1.41.25.25A19.77,19.77,0,0,1,86.74,8.2.1.1,0,1,0,86.64,8Z"/>
					<path class="cls-6" d="M85.22,6.34c-2.05,1-4.29,2.09-5.66,4-.15.21.17.39.33.19,1.42-1.87,3.52-2.73,5.45-4A.11.11,0,0,0,85.22,6.34Z"/>
					<path class="cls-6" d="M82.93,5.1A25.37,25.37,0,0,0,78,8.34c-.15.13.05.39.21.27A49.57,49.57,0,0,1,83,5.3.11.11,0,0,0,82.93,5.1Z"/>
					<path class="cls-6" d="M80.34,4.21a10.26,10.26,0,0,0-3.19.89,9.78,9.78,0,0,0-2.94,1.65c-.15.14,0,.37.22.27.89-.5,1.7-1.08,2.63-1.52a15.37,15.37,0,0,1,3.31-1.09A.11.11,0,0,0,80.34,4.21Z"/>
					<path class="cls-6" d="M78.22,3.25a12.09,12.09,0,0,0-6.3,2.62.18.18,0,0,0,.22.29,15.68,15.68,0,0,1,6.11-2.71C78.36,3.43,78.34,3.23,78.22,3.25Z"/>
					<path class="cls-6" d="M74.48,2.18a18.37,18.37,0,0,0-6.63,3.24c-.16.14.06.43.23.3A24.26,24.26,0,0,1,74.55,2.4.12.12,0,0,0,74.48,2.18Z"/>
					<path class="cls-6" d="M70.07,1.66a11.26,11.26,0,0,0-5.49,3.58c-.17.19.11.47.27.28a12.57,12.57,0,0,1,5.28-3.66A.1.1,0,0,0,70.07,1.66Z"/>
					<path class="cls-6" d="M67,1.07c-2.3.49-4,2.28-5.68,3.82-.18.16.1.45.28.27A16,16,0,0,1,67,1.22.08.08,0,1,0,67,1.07Z"/>
					<path class="cls-6" d="M62.81,1C60.73,2.24,58.07,3.88,57,6.16c-.09.18.15.4.29.22a21.09,21.09,0,0,1,2.36-2.71,36.1,36.1,0,0,1,3.31-2.53C63,1.07,62.93.89,62.81,1Z"/>
					<path class="cls-6" d="M59.37,1.22a18.92,18.92,0,0,0-6.48,6.16.21.21,0,0,0,.36.21C54.8,5,57.07,3.2,59.48,1.41,59.59,1.33,59.49,1.15,59.37,1.22Z"/>
					<path class="cls-6" d="M54.4,2.65a30.59,30.59,0,0,0-3.19,2.84,7.19,7.19,0,0,0-2,3.29c0,.18.22.31.31.13a12.32,12.32,0,0,1,2.13-3.38A33.38,33.38,0,0,1,54.56,2.8C54.67,2.71,54.52,2.57,54.4,2.65Z"/>
					<path class="cls-6" d="M51.15,3.54c-2.28,1.86-4.89,4-6.09,6.78a.18.18,0,0,0,.32.18,25.83,25.83,0,0,1,2.73-3.77,42.61,42.61,0,0,1,3.18-3C51.39,3.6,51.24,3.46,51.15,3.54Z"/>
					<path class="cls-6" d="M47,5a14.83,14.83,0,0,0-3.1,3,11.67,11.67,0,0,0-2.21,4,.17.17,0,0,0,.32.13c.7-1.23,1.2-2.52,2-3.7a14.87,14.87,0,0,1,3.11-3.28C47.25,5.11,47.12,4.94,47,5Z"/>
					<path class="cls-6" d="M42.14,7.42c-1.53,2-3.38,4-3.65,6.61,0,.22.35.27.39,0,.54-2.54,2-4.44,3.43-6.53C42.38,7.45,42.22,7.32,42.14,7.42Z"/>
					<path class="cls-6" d="M39.39,9a10.16,10.16,0,0,0-2.75,5.82c0,.21.32.26.37.05a13.32,13.32,0,0,1,2.55-5.7A.12.12,0,0,0,39.39,9Z"/>
					<path class="cls-6" d="M36.3,11.11a8.36,8.36,0,0,0-1.85,4.5c0,.19.28.22.34,0a13.64,13.64,0,0,1,1.71-4.4C36.58,11.15,36.4,11,36.3,11.11Z"/>
					<path class="cls-6" d="M33.89,13.46a6.93,6.93,0,0,0-.82,3.24.15.15,0,0,0,.3,0c.11-.52.14-1.05.28-1.58s.32-1.07.49-1.6C34.19,13.37,33.94,13.31,33.89,13.46Z"/>
				</g>
				<path class="cls-7" d="M100.39,16.42a6.5,6.5,0,0,1-1.51,2.15c-.55.59-1.31,1.12-1.36,2,0,.52.48.75.92.69.89-.11,1.65-1.32,2.16-2a4.41,4.41,0,0,0,1-2.69A.62.62,0,0,0,100.39,16.42Z"/>
				<path class="cls-7" d="M98.51,15.86a16.22,16.22,0,0,0-1.61,1.58c-.5.49-1.38,1.14-1.36,1.89a.61.61,0,0,0,.6.6c.76,0,1.34-.89,1.81-1.43a5.94,5.94,0,0,0,1.35-2C99.43,16,98.89,15.57,98.51,15.86Z"/>
				<path class="cls-7" d="M94.8,14.2c-.12.24-.27.46-.41.69s-.43.54-.59.83a.65.65,0,0,0,1,.79,3.32,3.32,0,0,0,.92-1.91C95.84,14.06,95.1,13.66,94.8,14.2Z"/>
				<path class="cls-7" d="M90.12,10a.52.52,0,0,0-.61.07,3.51,3.51,0,0,1-.38.29l-.21.13a.78.78,0,0,0-.38.47.65.65,0,0,0,.62.81,1,1,0,0,0,.78-.47,2.81,2.81,0,0,0,.41-.74A.49.49,0,0,0,90.12,10Z"/>
				<path class="cls-7" d="M92.37,11.57a.57.57,0,0,0-.93-.29h0l-.16.11a.66.66,0,0,0,0,.92.67.67,0,0,0,.64.17.64.64,0,0,0,.45-.45A1.14,1.14,0,0,0,92.37,11.57Z"/>
				<path class="cls-7" d="M98.36,27.33c-.34.12-.7.15-1,.29A.71.71,0,1,0,97.71,29a2.46,2.46,0,0,0,1.21-.71C99.3,27.9,98.92,27.12,98.36,27.33Z"/>
				<path class="cls-7" d="M99.67,24.16a.63.63,0,0,0,0,1.25A.63.63,0,0,0,99.67,24.16Z"/>
				<path class="cls-7" d="M87.49,8.09a.68.68,0,0,0-.54.09.78.78,0,0,0-.41.22.73.73,0,0,0,.14,1.13.9.9,0,0,0,1.3-.8A.68.68,0,0,0,87.49,8.09Z"/>
				<path class="cls-8" d="M12.57,49.47c3.14,2.84,7.2.62,9.4-3.82,2-4.07,3.66-9.53,3-14.11-.6-3.84-3-6.49-6.29-5.19s-6.23,5-7.85,9.12C8.86,40.43,8.85,46.13,12.57,49.47Z"/>
				<path class="cls-9" d="M12.57,49.47c3.14,2.84,7.2.62,9.4-3.82,2-4.07,3.66-9.53,3-14.11-.6-3.84-3-6.49-6.29-5.19s-6.23,5-7.85,9.12C8.86,40.43,8.85,46.13,12.57,49.47ZM11.2,34.83a13.38,13.38,0,0,1,5.07-6.56c1.81-1.26,3.44-1.47,5.08-.08a4.66,4.66,0,0,1,2,3.21c.41,3.08-.6,7-1.72,9.9S19.32,46.57,17,47.36s-4.2-1.18-5.41-3.62A10.83,10.83,0,0,1,11.2,34.83Z"/>
				<g class="cls-10">
					<path class="cls-11" d="M13.55,40.81C12.12,44.42,10.21,46,9.3,44.24s-.5-6,.94-9.65,3.33-5.15,4.26-3.43S15,37.19,13.55,40.81Z"/>
					<path d="M12.88,39.56c-.85,2.16-2,3.09-2.55,2.06s-.3-3.62.56-5.79,2-3.09,2.56-2.06S13.75,37.4,12.88,39.56Z"/>
					<g class="cls-12">
						<path class="cls-13" d="M10.34,44.45c.3-.07.72-.48.85-1.31.09-.55,0-.74-.16-.8-.31.13-.71.26-.91-.16a5.54,5.54,0,0,1-.25-3.48c.3-1.26.46-1.79.13-1.67s-.76,1.88-.89,2.81a7.26,7.26,0,0,0,.38,4c.2.37.45.68.75.66Z"/>
					</g>
					<path class="cls-14" d="M15.12,32.35c-.15-2.59-1.09-1.44-1.63.48s-.55,4.8.25,5.68S15.32,35.83,15.12,32.35Z"/>
				</g>
				<path class="cls-15" d="M92.64,65.86l.06,0a10.68,10.68,0,0,1-1.32.08c-1.54.74-3,1.56-4.54,2.37A46.55,46.55,0,0,1,80.52,71c-4.31,1.53-8.7,2.84-13.13,4C58.73,77.27,49.95,79,41,79a.16.16,0,0,0,0,.32l.22,0s0,0,0,0c2,2.88,6,3.87,9.28,4.38a51.29,51.29,0,0,0,13,.19c5.48-.54,10.89-1.69,16.38-2.18,4.07-.38,8.89.42,11.51,3.9a.18.18,0,0,0,.06.06l-.21.34a.13.13,0,0,0,.21.13C95.34,80.65,96,71.86,92.33,66Z"/>
				<path class="cls-16" d="M92.33,66l.31-.14.06,0a10.68,10.68,0,0,1-1.32.08c-1.54.74-3,1.56-4.54,2.37A46.55,46.55,0,0,1,80.52,71c-4.31,1.53-8.7,2.84-13.13,4C58.73,77.27,49.95,79,41,79a.16.16,0,0,0,0,.32l.22,0s0,0,0,0c2,2.88,6,3.87,9.28,4.38a36.34,36.34,0,0,0,6.3.49,35,35,0,0,1-4.5-.63c-2.15-.61-3.26-1.69-.36-2.33C57,80.17,62.33,80.22,67.44,79c4-.94,9.38-1.68,13-3.55a45.9,45.9,0,0,1,7-3.16c4.63-1.55,6,1.56,5.56,6.13-.19,1.86-.72,5.22-1.78,7.08l.12.15a.18.18,0,0,0,.06.06l-.21.34a.13.13,0,0,0,.21.13C95.34,80.65,96,71.86,92.33,66Z"/>
				<path class="cls-17" d="M122.32,25.4l-.11.07c-4,.28-7.85,2.85-10.66,5.56a24.57,24.57,0,0,0-6.11,10c-1.13,3.34-1.49,6.86-2.43,10.26s-2.45,6.88-6,7.93a.21.21,0,0,0-.15.2c0,.21,0,.43,0,.65a.18.18,0,0,0,0,.35,5.85,5.85,0,0,1-1.87,4.43c-.11-.07-.26.05-.19.16l-.19.16c-.17.12,0,.39.16.28l.28-.19c1.27,1.31,1.54,2.88,1.71,4.67.19,2.1.41,4.19.71,6.29a46.73,46.73,0,0,0,2.71,11.48,21.87,21.87,0,0,0,5.49,7.69,25,25,0,0,0,4.14,3.07,15.68,15.68,0,0,0,3.33,1.38h1.65l-.89-.31a5.72,5.72,0,0,1-1.52-1.35,8,8,0,0,1-1.29-3.87c-.6-4.55.13-9.15.58-13.69a40,40,0,0,0,.1-9.67c-.26-1.87-.95-4.15-2.68-5,3.24-.65,4.9-4.58,5.44-7.49A52.44,52.44,0,0,0,115.1,48c-.1-7-.44-15.35,5.1-20.59A13.17,13.17,0,0,1,121.94,26l.5-.62A.13.13,0,0,0,122.32,25.4Z"/>
				<path class="cls-18" d="M112.45,98.16a5.2,5.2,0,0,1-.5-.84,16.57,16.57,0,0,1-6.14-4.12c-2.61-3.06-3.54-5.8-4.11-9.82-.48-3.25-.75-6.51-1-9.79-.14-1.71-.41-3.72.25-5.38,1.42-3.62,5.83-2.83,8.9-1.88a3.26,3.26,0,0,0-.67-.46c2.15-.43,3.6-2.3,4.49-4.36a7.35,7.35,0,0,1-.74.59,7.94,7.94,0,0,1-6.46,1.18c-1.84-.49-3.87-1.73-4.32-3.71s1.45-4.31,2.23-6.07c1.21-2.76,1.31-5.95,1.47-8.92a49.93,49.93,0,0,1,.64-6.21c-.39.87-.73,1.75-1,2.65-1.13,3.34-1.49,6.86-2.43,10.26s-2.45,6.88-6,7.93a.21.21,0,0,0-.15.2c0,.21,0,.43,0,.65a.18.18,0,0,0,0,.35,5.85,5.85,0,0,1-1.87,4.43c-.11-.07-.26.05-.19.16l-.19.16c-.17.12,0,.39.16.28l.28-.19c1.27,1.31,1.54,2.88,1.71,4.67.19,2.1.41,4.19.71,6.29a46.73,46.73,0,0,0,2.71,11.48,21.87,21.87,0,0,0,5.49,7.69,25,25,0,0,0,4.14,3.07,15.68,15.68,0,0,0,3.33,1.38h1.65l-.89-.31A5.72,5.72,0,0,1,112.45,98.16Z"/>
				<g class="cls-5">
					<path class="cls-6" d="M103.84,58.26a24.11,24.11,0,0,0,3.92-7.63c1.07-3,1.87-6.08,2.88-9.1a35.16,35.16,0,0,1,4.55-9.12c.09-.12-.11-.23-.19-.11a34.24,34.24,0,0,0-4.1,7.6c-1.08,2.74-1.78,5.63-2.73,8.42a41.62,41.62,0,0,1-3.27,7.79,13.49,13.49,0,0,1-2.8,3.36c-1.19,1-3,2.18-4.62,1.61a2.72,2.72,0,0,1-.09.37C99.81,62.23,102.4,60,103.84,58.26Z"/>
					<path class="cls-6" d="M103.26,55.93a26.72,26.72,0,0,0,3.41-8.68,56.83,56.83,0,0,1,2.77-9.16,26.72,26.72,0,0,1,5.61-8,.09.09,0,0,0-.12-.13,26.27,26.27,0,0,0-5.3,7,37.51,37.51,0,0,0-2.83,8.31,42,42,0,0,1-2.93,8.89c-1.16,2.29-3.53,5.58-6.35,5.88,0,.12,0,.24,0,.35C100,60.05,101.93,57.83,103.26,55.93Z"/>
					<path class="cls-6" d="M100.39,62.14A17.28,17.28,0,0,0,103.88,60a18.46,18.46,0,0,0,4.83-6.74,36.7,36.7,0,0,0,2.61-8.37c.61-3.13,1.25-6.3,3.16-8.94.08-.11-.1-.2-.17-.1a17.74,17.74,0,0,0-2.94,7.29,51.12,51.12,0,0,1-2.16,8.06,23.32,23.32,0,0,1-4.1,7.12A13,13,0,0,1,102,60.88c-1.48.87-3,1.8-4.72,1.13,0,.11-.08.24-.12.36A3.92,3.92,0,0,0,100.39,62.14Z"/>
					<path class="cls-6" d="M113,43c-2.85,7.33-3.47,20.1-13.91,20.11a.14.14,0,0,0,0,.29c10.51.77,11.59-13.27,14.09-20.35C113.23,43,113.06,42.92,113,43Z"/>
					<path class="cls-6" d="M112.55,60.65c-1.18,2.41-3.86,3.39-6.34,3.84a17.4,17.4,0,0,1-2.15.25c3.39-.7,6.74-3,8-6.11.05-.14-.18-.24-.24-.1-1.82,3.88-6.14,5.86-10.21,6.18a23.83,23.83,0,0,1-2.89-.4l-.23-.21a.09.09,0,1,0-.12.12l0,0-.07,0a.14.14,0,0,0-.07.27l.58.19a41.55,41.55,0,0,1,4,4.43,16.25,16.25,0,0,1,2.77,6.67c.48,2.42.61,4.91,1.23,7.3a13.5,13.5,0,0,0,3,5.62c.09.11.29,0,.2-.16a16.45,16.45,0,0,1-3-6.18c-.58-2.51-.76-5.09-1.32-7.61-.93-4.17-3.51-7.12-6.48-10a7.86,7.86,0,0,0,.79.15c-.09,0-.13.16,0,.19,3.79,1,5.72,4.37,6.82,7.9s1,7.45,3.23,10.52c.1.15.36,0,.25-.14a11.47,11.47,0,0,1-1.62-3.46c-.21-.88-.33-1.79-.51-2.67a36.42,36.42,0,0,0-1.39-5.36c-1.13-3.19-3.19-6.11-6.63-7a11.27,11.27,0,0,0,1.5.15,12.21,12.21,0,0,1,6,5.37c1.35,2.53,1,5.7,2.64,8.11a.14.14,0,0,0,.23-.14c-1.5-2.8-1.33-6.13-3-8.86a11.43,11.43,0,0,0-5.19-4.47h.74a.11.11,0,0,0,.11.08c2.35-.37,4.09,1.49,5.26,3.28a15.23,15.23,0,0,1,2.19,5.58c0,.13.25.1.23,0a13.17,13.17,0,0,0-2.51-6.23,6.53,6.53,0,0,0-3.57-2.8c.57-.07,1.14-.14,1.68-.25,2.44-.44,5.24-1.55,6.23-4C112.77,60.63,112.6,60.55,112.55,60.65Z"/>
					<path class="cls-6" d="M113,50.89c-1.2,3.34-2.39,6.81-4.72,9.57-2.48,2.94-7.32,4.77-10.83,2.52-.15-.1-.28.13-.14.23,3.39,2.26,8.14.62,10.76-2.07s4-6.64,5.12-10.19C113.21,50.81,113,50.77,113,50.89Z"/>
					<path class="cls-6" d="M110.65,97.87a20.5,20.5,0,0,1-7.09-8.47,34.8,34.8,0,0,1-2.88-9.63c-.41-2.84-.5-5.71-1-8.53-.46-2.45-1.34-5-3.38-6.63-.09-.07-.22.05-.13.14,2.17,1.9,2.95,4.76,3.38,7.5s.5,5.64,1,8.44a35.37,35.37,0,0,0,3,9.4,18.65,18.65,0,0,0,7,7.94C110.66,98.08,110.75,97.93,110.65,97.87Z"/>
					<path class="cls-6" d="M110.25,95.93a22.4,22.4,0,0,1-5.8-8.16,33.64,33.64,0,0,1-1.68-8.28c-.61-5.24-1.1-11.11-5.26-14.87-.08-.06-.19,0-.12.12,4.33,4.24,4.53,10.55,5.23,16.2a27.19,27.19,0,0,0,1.78,7.58,18.16,18.16,0,0,0,5.7,7.58C110.22,96.17,110.34,96,110.25,95.93Z"/>
					<path class="cls-6" d="M109.38,92.11C105,88,104.55,82,103.77,76.43c-.65-4.68-1.84-9.84-6.27-12.35a.07.07,0,0,0-.08.12c4.69,3,5.55,8.5,6.2,13.6a50.46,50.46,0,0,0,1.23,7.08c.74,2.68,2.13,5.65,4.33,7.43C109.32,92.42,109.52,92.23,109.38,92.11Z"/>
				</g>
				<g class="cls-5">
					<path class="cls-6" d="M93.36,75.25a15,15,0,0,0-3.71-8.67.18.18,0,0,0-.28.21A29.37,29.37,0,0,1,91.93,71a18.47,18.47,0,0,1-.12,12.84c-.05.11.11.2.17.09C93.44,81.42,93.63,78.11,93.36,75.25Z"/>
					<path class="cls-6" d="M91.15,74.3c-.47-2.26-1.48-4.94-3.35-6.42a.2.2,0,0,0-.27.28,15.4,15.4,0,0,1,2,2.71,14,14,0,0,1,1.27,3.51,26,26,0,0,1,.53,7.14c0,.13.2.13.22,0A26.64,26.64,0,0,0,91.15,74.3Z"/>
					<path class="cls-6" d="M90.31,82.12a49.28,49.28,0,0,0-2.53-6.43c-1-1.93-2.52-4.1-4.52-5.1-.19-.1-.42.16-.24.31A22.16,22.16,0,0,1,85.43,73a14.49,14.49,0,0,1,2,2.91,48.23,48.23,0,0,1,2.67,6.29C90.18,82.29,90.36,82.24,90.31,82.12Z"/>
					<path class="cls-6" d="M89.35,82.38c-1.63-5-6.57-9.13-11.42-10.87-.24-.09-.41.31-.17.42,4.77,2,9.55,5.46,11.4,10.51C89.2,82.56,89.38,82.51,89.35,82.38Z"/>
					<path class="cls-6" d="M85.78,79.45A18.12,18.12,0,0,0,80.4,76.3c-2.23-1-4-2.62-6.14-3.76-.18-.1-.4.15-.23.3a27.82,27.82,0,0,0,5.6,3.52c2.06,1,4.27,1.68,6,3.2C85.74,79.64,85.86,79.52,85.78,79.45Z"/>
					<path class="cls-6" d="M85.08,80c-2-1.65-4.56-1.86-7-2.38A30.05,30.05,0,0,1,69.87,74c-.26-.14-.5.25-.24.4a30.21,30.21,0,0,0,7.53,3.36c2.67.62,5.53.62,7.82,2.34C85,80.17,85.15,80,85.08,80Z"/>
					<path class="cls-6" d="M83.36,80.11c-2.6-1-5.43-1.12-8.16-1.6A16.54,16.54,0,0,1,71,77.26a29.38,29.38,0,0,1-3.8-2.46c-.25-.17-.48.24-.24.41a29.22,29.22,0,0,0,3.54,2.33,14.13,14.13,0,0,0,4,1.27c2.94.55,5.92.6,8.8,1.51C83.43,80.34,83.48,80.16,83.36,80.11Z"/>
					<path class="cls-6" d="M76.36,80.85a17.21,17.21,0,0,1-6.89-1.51,36.77,36.77,0,0,1-5.78-3.65c-.25-.17-.47.23-.24.4a30.69,30.69,0,0,0,6.09,3.63A17.23,17.23,0,0,0,76.36,81,.07.07,0,0,0,76.36,80.85Z"/>
					<path class="cls-6" d="M69.95,81.35A45.45,45.45,0,0,1,59.8,76.58c-.24-.16-.46.22-.22.38A36.82,36.82,0,0,0,69.9,81.53.09.09,0,0,0,69.95,81.35Z"/>
					<path class="cls-6" d="M67.37,81.78a10.65,10.65,0,0,1-5.88-1.14c-1.74-.89-3.2-2.19-4.87-3.18-.25-.14-.43.21-.22.37,3.16,2.37,6.85,4.83,11,4.15C67.51,82,67.48,81.78,67.37,81.78Z"/>
					<path class="cls-6" d="M66.84,82.5a18.31,18.31,0,0,1-8.12-.87c-2.22-.78-3.88-2.63-5.8-3.92-.25-.16-.47.23-.23.39,2,1.35,3.67,3,5.94,3.88a17.45,17.45,0,0,0,8.23.69C67,82.66,66.94,82.49,66.84,82.5Z"/>
					<path class="cls-6" d="M59.08,83a17.74,17.74,0,0,1-10.7-4.54c-.21-.19-.53.12-.32.31a17.19,17.19,0,0,0,11,4.45C59.21,83.23,59.21,83,59.08,83Z"/>
					<path class="cls-6" d="M52.84,82.85a13.65,13.65,0,0,1-4.21-1.49,12.68,12.68,0,0,1-3.36-2.88c-.15-.17-.4.05-.3.24a7.89,7.89,0,0,0,3.49,2.94A12.69,12.69,0,0,0,52.8,83C52.92,83.06,52.94,82.87,52.84,82.85Z"/>
					<path class="cls-6" d="M89.25,75.44a16.63,16.63,0,0,0-5.13-6.6c-.23-.18-.57.13-.34.33a24.54,24.54,0,0,1,2.61,2.43,16.31,16.31,0,0,1,2.21,3.52,20,20,0,0,1,2.22,8.1.09.09,0,0,0,.18,0A18.45,18.45,0,0,0,89.25,75.44Z"/>
				</g>
				<path class="cls-19" d="M101.33,62.09l-.24-.07a2,2,0,0,0-.31-.51,6.16,6.16,0,0,0-2.42-1.34c-2.42-1-3.74-3.36-4.48-5.76-1.48-4.87-.81-10-1-15,.11-2,.28-3.91.32-5.84A30.5,30.5,0,0,0,90.45,19a26.22,26.22,0,0,0-7.91-9.37C74.65,3.77,64.35,3.5,55.11,5.71A68.73,68.73,0,0,0,40.84,11,56.67,56.67,0,0,0,28.4,19.22l-.22.2a.12.12,0,0,0,0,.18,26.57,26.57,0,0,0-3.8,3.25,47,47,0,0,0-8.51,12.1,44.73,44.73,0,0,0-3.46,9.54,37.34,37.34,0,0,1-2.73,8.11,8.29,8.29,0,0,1-2.42,3.1,3.16,3.16,0,0,1-3,.34c-.54-.7-1.07-1.45-2-1.46H2.14a1.58,1.58,0,0,0-.45,0,.2.2,0,0,0-.18.18A2.68,2.68,0,0,0,0,56.66c-.11,1.05.92,2,1.67,2.54A10.27,10.27,0,0,0,5.57,61a5.35,5.35,0,0,0,1,.12c2,1.64,4,3.14,4.95,5.65s.83,5.26,1.95,7.71c1,2.1,2.91,2.65,5.06,2.17a8.7,8.7,0,0,0,2.06-.74c3.7,0,7.18,1.12,10.72,2.07a30,30,0,0,0,5.17,1c.84.07,1.76.19,2.66.21,2.93,1.88,7.11,1.38,10.38,1.14,2.34-.17,4.68-.25,7-.54,2.69-.34,5.36-.87,8-1.45a84.14,84.14,0,0,0,15.33-4.52A40.07,40.07,0,0,0,86.6,70.2a48.65,48.65,0,0,1,6.11-3.77,9.94,9.94,0,0,1,3.89-1A11.85,11.85,0,0,0,100,65a2.3,2.3,0,0,0,1.51-2A1.79,1.79,0,0,0,101.33,62.09Z"/>
				<path class="cls-20" d="M15.19,52.71a1.19,1.19,0,0,0-.5-.36.36.36,0,0,0-.36-.24,1.76,1.76,0,0,0-1.54.66,1.46,1.46,0,0,0-.07,1.33,1.83,1.83,0,0,0,.12.26,1.16,1.16,0,0,0,.17.37,2.07,2.07,0,0,0,.86.77,1.62,1.62,0,0,0,.88.25C16.32,55.7,15.8,53.44,15.19,52.71Z"/>
				<path class="cls-20" d="M19.08,53.57a1.78,1.78,0,0,0-1.49-1.43,1.18,1.18,0,0,0-1,.4,1,1,0,0,0-.24.12A1.07,1.07,0,0,0,16,53.79a2.13,2.13,0,0,0,.52,1A2.14,2.14,0,0,0,18,55.9a.81.81,0,0,0,.52-.1.91.91,0,0,0,.69-.7A2.85,2.85,0,0,0,19.08,53.57Z"/>
				<path class="cls-21" d="M98.64,63.21A12.88,12.88,0,0,0,92,62.26,25.59,25.59,0,0,0,85.11,64C80.75,65.82,76.7,67.43,72,68.08a77.32,77.32,0,0,1-8.86,1.11c-2.38.06-5.44,0-7.3-1.75-2.24-2.1-2.32-5.92-2.5-8.78a48,48,0,0,0-.59-6.35c-.2-1-.45-1.9-.72-2.83A32,32,0,0,1,49.88,64.2c-1.86,4.63-4.66,9.31-10.26,9.33-3.4,0-8.38-1.37-6-5.62a21.17,21.17,0,0,1,5.6-6.31,16.2,16.2,0,0,0,3.38-3.06c-2.91,1.5-7,1.42-8.8-.84a4,4,0,0,0,1.46,2.36.42.42,0,0,1,0,.58c-2.1,2.6-6.25,5.11-9.53,2.93-3.67-2.45-5.86-7.75-11.2-6.54-3.66.83-7.15,3.53-11,1.81a4.49,4.49,0,0,1-2.76-3,1.5,1.5,0,0,1,0-.49A2.39,2.39,0,0,0,0,56.66c-.11,1.05.92,2,1.67,2.54A10.27,10.27,0,0,0,5.57,61a5.35,5.35,0,0,0,1,.12c2,1.64,4,3.14,4.95,5.65s.83,5.26,1.95,7.71c1,2.1,2.91,2.65,5.06,2.17a8.7,8.7,0,0,0,2.06-.74c3.7,0,7.18,1.12,10.72,2.07a30,30,0,0,0,5.17,1c.84.07,1.76.19,2.66.21,2.93,1.88,7.11,1.38,10.38,1.14,2.34-.17,4.68-.25,7-.54,2.69-.34,5.36-.87,8-1.45a84.14,84.14,0,0,0,15.33-4.52A40.07,40.07,0,0,0,86.6,70.2a48.65,48.65,0,0,1,6.11-3.77,9.94,9.94,0,0,1,3.89-1A11.85,11.85,0,0,0,100,65a2.3,2.3,0,0,0,1.51-2,1.25,1.25,0,0,0,0-.37A2.63,2.63,0,0,1,98.64,63.21Z"/>
				<path class="cls-22" d="M94.58,65.23c-5.48.89-9.9,4-14.88,6.23a99,99,0,0,1-15.21,5.34,38.78,38.78,0,0,1-15.82,1.27,2.27,2.27,0,0,1-1.58-2.78c.62-2.27,1.38-4.49,2-6.74A18,18,0,0,1,40,75.88a15.6,15.6,0,0,1-11.26-.58,7,7,0,0,1-3.81-4.68,22,22,0,0,1-2.41,2.66c-.62.9-1.27,1.8-2,2.62h0c3.7,0,7.18,1.12,10.72,2.07a30,30,0,0,0,5.17,1c.84.07,1.76.19,2.66.21,2.93,1.88,7.11,1.38,10.38,1.14,2.34-.17,4.68-.25,7-.54,2.69-.34,5.36-.87,8-1.45a84.14,84.14,0,0,0,15.33-4.52A40.07,40.07,0,0,0,86.6,70.2a48.65,48.65,0,0,1,6.11-3.77,9.94,9.94,0,0,1,3.89-1A11.85,11.85,0,0,0,100,65a2.47,2.47,0,0,0,.4-.19A36.8,36.8,0,0,0,94.58,65.23Z"/>
				<path class="cls-23" d="M8.76,60.68c2.2-.8,4.24-2.49,6.64-2.49,4.11,0,6.46,4.61,9.69,6.46a6.48,6.48,0,0,0,.75.37,6.17,6.17,0,0,0-3.45,1c-.83.6-1.59,1.32-2.37,2a13.18,13.18,0,0,1-3.32,2.34.12.12,0,0,0-.09-.07c-.67-.14-.89-1-1.11-1.55s-.44-1.22-.66-1.83a11,11,0,0,0-1.53-3A8.14,8.14,0,0,0,8.76,60.68Z"/>
				<path class="cls-21" d="M68.09,45.39c-3.91,1-8.3.78-11.94,2.69a8.13,8.13,0,0,1,1.66,2.85,9,9,0,0,0,3.44,4.52c2.93,1.87,6.72,2.47,9.83.64,5-2.94,7.28-9.11,8.74-14.46C75.68,41.23,72,44.4,68.09,45.39Z"/>
				<path class="cls-17" d="M77.41,32.94a4.8,4.8,0,0,1-1.83,1.43,38,38,0,0,0-11.07,4.9,34.1,34.1,0,0,0-8.84,7.88,5.07,5.07,0,0,1-.34.55.16.16,0,0,0,.12.08.19.19,0,0,0,.14.13c2.58,2.54,4.5,5.94,8.1,7.13a8.18,8.18,0,0,0,7.78-1.67c2.63-2.2,3.33-5.5,3.4-8.77,0-1.79-.07-3.57.1-5.36a10,10,0,0,1,2.37-5.64.12.12,0,0,0,0-.11,2.6,2.6,0,0,0,.25-.45A.12.12,0,0,0,77.41,32.94Z"/>
				<path class="cls-7" d="M71.61,39.24c-.5-.35-2.6.79-3.84,1.49-.72.42-2.07.9-1.83,1.45.4,1,3-.25,3.74-.59C70.58,41.18,72.93,40.13,71.61,39.24Z"/>
				<path class="cls-7" d="M69.81,43.4a2.38,2.38,0,0,0-1.1.09,4.49,4.49,0,0,0-.59.15c-.34.11-.55.54-.12.69a2,2,0,0,0,2.08-.41A.34.34,0,0,0,69.81,43.4Z"/>
				<path class="cls-7" d="M68.13,46.13a8,8,0,0,0-1,.29.44.44,0,0,0,0,.87,1.9,1.9,0,0,0,1.28-.11.55.55,0,0,0-.28-1.05Z"/>
				<path class="cls-24" d="M60.7,52.74a23.87,23.87,0,0,1-2.33-2.43,8.92,8.92,0,0,0,4,2.4,11.31,11.31,0,0,0,7.8-.65c.12-.07,0-.23-.1-.18a11.87,11.87,0,0,1-7.59.46,8.09,8.09,0,0,1-4-2.61A13.39,13.39,0,0,0,62.38,51a13.93,13.93,0,0,0,7.22-.74c.11,0,.07-.22-.05-.19a16.08,16.08,0,0,1-7.07.56,12.11,12.11,0,0,1-3.28-1.06,10.57,10.57,0,0,1-1.73-1.09,19.59,19.59,0,0,0,6.61.32,20.49,20.49,0,0,0,7.76-2.27c.11-.06,0-.21-.09-.16a21.37,21.37,0,0,1-15.28,1.37l0,0h0c4.57-1,9.3-1.47,13.73-3a.1.1,0,1,0-.06-.19c-4.51,1.23-9.14,1.79-13.69,2.83a61.6,61.6,0,0,1,7.1-3.14c2.55-.92,5.16-1.66,7.7-2.58.12,0,.07-.22-.05-.19-4.58,1.31-9.42,2.68-13.69,4.91.73-.56,1.46-1.11,2.25-1.61,1.29-.85,2.64-1.62,4-2.36,2.82-1.54,5.75-2.86,8.57-4.38.11-.06,0-.23-.1-.17-2.87,1.43-5.79,2.78-8.64,4.26a33.88,33.88,0,0,0-6.86,4.34c.24-.27.48-.52.73-.78a19.8,19.8,0,0,0-1.79,2C57.09,49.3,58.71,51.45,60.7,52.74Z"/>
				<path class="cls-25" d="M77.41,32.94a4.8,4.8,0,0,1-1.83,1.43,38,38,0,0,0-11.07,4.9,34.1,34.1,0,0,0-8.84,7.88,5.07,5.07,0,0,1-.34.55.16.16,0,0,0,.12.08.19.19,0,0,0,.14.13c2.58,2.54,4.5,5.94,8.1,7.13a8.18,8.18,0,0,0,7.78-1.67c2.63-2.2,3.33-5.5,3.4-8.77,0-1.79-.07-3.57.1-5.36a10,10,0,0,1,2.37-5.64.12.12,0,0,0,0-.11,2.6,2.6,0,0,0,.25-.45A.12.12,0,0,0,77.41,32.94ZM74.34,42c0,3.46.11,7-2.16,9.85a7.85,7.85,0,0,1-7.94,2.79c-2.23-.53-3.91-2.16-5.43-3.79-.91-1-1.81-2-2.72-2.94-.44-.47,0-1,.29-1.24s.4-.39.61-.58a39.9,39.9,0,0,1,7.76-6.42,44.68,44.68,0,0,1,9.38-4.37h.09a6.2,6.2,0,0,0,1.88-.68C74.6,36.75,74.36,39.44,74.34,42Z"/>
				<path class="cls-26" d="M15,54a2,2,0,0,0-.5-.82,1,1,0,0,0-.94-.15c-.1,0-.08.18,0,.18a.79.79,0,0,1,.82.51h-.12a.25.25,0,0,0-.15.06.9.9,0,0,0-.26.35c-.12.25-.28.58-.09.82a.62.62,0,0,0,.55.18A.79.79,0,0,0,15,54Z"/>
				<path class="cls-26" d="M18.42,54.66c-.1-.59-.69-1.38-1.35-1.32a.09.09,0,0,0,0,.18,1.36,1.36,0,0,1,.8.55.43.43,0,0,0-.21,0c-.74,0-.6,1.18-.16,1.49C18.11,55.94,18.51,55.18,18.42,54.66Z"/>
				<path class="cls-4" d="M54.4,14.41A6.27,6.27,0,0,0,50,11.7a5.16,5.16,0,0,0-5.66,5.21,5.84,5.84,0,0,0,6.42,5.39C54.93,21.83,56.79,17.85,54.4,14.41Z"/>
				<path class="cls-4" d="M40.14,14c-2.14-.6-4.46,1.46-2.92,3.41.68.86,1.23,1.38,2.39,1.23a3.19,3.19,0,0,0,2.61-1.75C42.74,15.53,41.34,14.38,40.14,14Z"/>
				<path class="cls-27" d="M52,27.94a2.46,2.46,0,0,0-1,.44l-.14.08a1.68,1.68,0,0,0-.71,1.29,1.75,1.75,0,0,0,1.64,1.9,2.69,2.69,0,0,0,2.25-2.47C54.12,28.06,52.89,27.77,52,27.94Z"/>
				<path class="cls-16" d="M58.08,19.39c-.33-.38-.87-.49-1.55-.05a2.38,2.38,0,0,0-1.09,1.59c-.11,1.37,1.46,1.51,2.33.87A1.74,1.74,0,0,0,58.08,19.39Z"/>
				<path class="cls-4" d="M63.24,19.6a1.07,1.07,0,0,0-1.05.14c-2.3,1.58,1.56,3.65,1.94,1.58A1.59,1.59,0,0,0,63.24,19.6Z"/>
				<path class="cls-16" d="M70.26,9.64c-2-.82-4.93.66-5.68,2.68-1.1,2.94,2.56,5.07,5.06,4.1a4.07,4.07,0,0,0,2-5.5A2.81,2.81,0,0,0,70.26,9.64Z"/>
				<path class="cls-4" d="M87.12,21.91a7.66,7.66,0,0,0-3.49-5.53,4.85,4.85,0,0,0-1.85-.67.24.24,0,0,0-.14-.09c-4.5-.64-9.43,1.2-10,6.27-.55,4.61,4.5,7.65,8.55,7.37C84,29,87.47,25.9,87.12,21.91Z"/>
				<path class="cls-4" d="M86.8,33.81a3.36,3.36,0,0,0-3.13,1.88c-.56,1.5,1.18,2.71,2.53,2.48S88.41,35.9,88,34.8A1.45,1.45,0,0,0,86.8,33.81Z"/>
				<path class="cls-27" d="M89,43.26a2.14,2.14,0,0,0-2-1.07,1.64,1.64,0,0,0-.8.37,1.27,1.27,0,0,0-.37.22,2.82,2.82,0,0,0-.73,2.31c.09,1.89,1.56,3.78,3.58,2.76C90.3,47,89.81,44.51,89,43.26Z"/>
				<path class="cls-28" d="M18.35,36.39c3.14-4.54,7.11-9.26,12.57-11a14.16,14.16,0,0,1,14.76,4.06c.29.32.57.64.84,1-2.79-6.19-8.93-13.15-16.42-10-6.34,2.67-10.77,9.07-13.45,15.16a42.2,42.2,0,0,0-2.1,6.62,17.64,17.64,0,0,0-.47,2.34A33.21,33.21,0,0,1,18.35,36.39Z"/>
				<path class="cls-28" d="M41.94,54.11a6.92,6.92,0,0,0-4.67-.31,1.39,1.39,0,0,0-.59.35l-.22.1c-1.35.84-.52,2.67.57,3.3a4.84,4.84,0,0,0,4.56-.41C42.64,56.49,43.28,54.82,41.94,54.11Z"/>
				<path class="cls-28" d="M45.22,54.57a3.38,3.38,0,0,0-1.11.22.76.76,0,0,0-.44.43v0a.6.6,0,0,0,.52.88,1.28,1.28,0,0,0,.49.13,1.05,1.05,0,0,0,.78-.32.49.49,0,0,0,.15-.26A.62.62,0,0,0,45.22,54.57Z"/>
				<path class="cls-19" d="M23.92,66.76c-1.63.81-8,7.39-9.54,4.16,0,0,0-.07,0-.09.05-.31-.41-.44-.46-.13-.29,1.66.14,3.71,1.78,4.54,1.09.56,2.27-.12,3.11-.82,2.39-2,3.46-4.95,5.4-7.28A.24.24,0,0,0,23.92,66.76Z"/>
				<path class="cls-28" d="M34.14,16.65S47.55,6.37,64.38,5.48,88.59,17.78,90.32,21.4,92,34.1,91.74,44.46s.93,13.33,4.38,15.67c0,0-5.88-.05-5.5-15s.3-22.77-6.25-29.38S65.3.25,34.14,16.65Z"/>
				<path class="cls-7" d="M115.13,30.5c-1.94,1.23-3.31,3.65-4.37,5.64a23.41,23.41,0,0,0-2.46,7c-.08.47.6.87.84.36,1-2,1.69-4.12,2.7-6.12,1.13-2.22,2.9-3.93,4.16-6A.65.65,0,0,0,115.13,30.5Z"/>
				<path class="cls-7" d="M112.71,37.72c-1.78,2-2.29,5.05-2.84,7.58-.1.44.57.78.78.32.48-1.09.93-2.17,1.31-3.31.47-1.4,1.17-2.68,1.68-4.05A.56.56,0,0,0,112.71,37.72Z"/>
				<path class="cls-7" d="M110.76,46.55c-.44,1.2-.39,2.52-1,3.71a.42.42,0,0,0,.73.43,7.55,7.55,0,0,0,1.41-4A.6.6,0,0,0,110.76,46.55Z"/>
				<path class="cls-7" d="M112,49.12a7.47,7.47,0,0,0-.75,2.21,14.67,14.67,0,0,1-.94,2.54.49.49,0,0,0,.84.5A8.83,8.83,0,0,0,112.45,52a7.76,7.76,0,0,0,.64-2.57A.58.58,0,0,0,112,49.12Z"/>
				<path class="cls-7" d="M112.55,54.1a3.83,3.83,0,0,0-.32.89,3.1,3.1,0,0,1-.38.83c-.22.34.31.76.57.44a4.9,4.9,0,0,0,1.06-1.76A.51.51,0,0,0,112.55,54.1Z"/>
				<path class="cls-7" d="M113.94,57.71a.57.57,0,0,0-.77-.19c-.56.41-.64,1.16-.93,1.77a6.76,6.76,0,0,1-1.54,2.07.41.41,0,0,0,.49.63,6.92,6.92,0,0,0,2.06-1.86C113.73,59.48,114.28,58.52,113.94,57.71Z"/>
				<path class="cls-7" d="M109.73,67.85c-.28-.36-.83.1-.6.47a5.74,5.74,0,0,1,.49,1.55,3.32,3.32,0,0,0,.52,1.46.54.54,0,0,0,.85-.11C111.6,70,110.42,68.73,109.73,67.85Z"/>
				<path class="cls-7" d="M109.24,70.84a.43.43,0,0,0-.74.44c.26.58.34,1.19.54,1.78a.44.44,0,0,0,.83,0A2.75,2.75,0,0,0,109.24,70.84Z"/>
				<path class="cls-7" d="M109.36,76.94c-.18-.67-.3-1.35-.49-2a.5.5,0,0,0-1,.13,7.28,7.28,0,0,0,.18,2.23,3.82,3.82,0,0,0,.84,1.95.58.58,0,0,0,1-.41A10.7,10.7,0,0,0,109.36,76.94Z"/>
				<path class="cls-7" d="M108.73,81.79a4.79,4.79,0,0,1-.76-2.38.51.51,0,0,0-1-.13,3.72,3.72,0,0,0,.64,3.17C108.09,83.11,109.18,82.51,108.73,81.79Z"/>
				<path class="cls-7" d="M106.9,85.36c-.09-.25-.14-.34-.19-.54a5.05,5.05,0,0,0-.27-.65.59.59,0,0,0-.67-.27.6.6,0,0,0-.41.73c0,.08,0,.09,0,0s0,.09,0,.13a3,3,0,0,0,.06.45,1.42,1.42,0,0,0,.39.74A.65.65,0,0,0,106.9,85.36Z"/>
				<path class="cls-7" d="M105.34,88.34a.61.61,0,0,0,0,1.21A.61.61,0,0,0,105.34,88.34Z"/>
				<path class="cls-7" d="M85.89,77.66a9.72,9.72,0,0,0-3.11-1.71c-.6-.22-1.11.24-.56.53a9.83,9.83,0,0,1,2.35,1.66,7.27,7.27,0,0,1,.83,1,2.91,2.91,0,0,0,.72.95c.46.34,1.23.33,1.34-.07C87.64,79.3,86.59,78.28,85.89,77.66Z"/>
				<path class="cls-7" d="M88.74,78.2a2.65,2.65,0,0,0-1.41-1.64.45.45,0,0,0-.55.71,4.34,4.34,0,0,1,.8,1.25A.6.6,0,0,0,88.74,78.2Z"/>
				<path class="cls-7" d="M89.55,76.59a2.74,2.74,0,0,0-.38-.72.5.5,0,0,0-.91.39,1.28,1.28,0,0,0,.6.85.51.51,0,0,0,.47,0A.47.47,0,0,0,89.55,76.59Z"/>
				<path class="cls-7" d="M90.44,73.83a1.94,1.94,0,0,0-1-1.31A.4.4,0,0,0,89,73c.11.39.46.68.62,1.06s.19.79.31,1.17c.07.23.43.32.54.07A1.94,1.94,0,0,0,90.44,73.83Z"/>
				<path class="cls-7" d="M80.2,78.29a37.31,37.31,0,0,1-5-.93c-.48-.13-.81.58-.34.81A10.15,10.15,0,0,0,80,79.43C80.64,79.37,80.9,78.38,80.2,78.29Z"/>
				<path class="cls-7" d="M75.75,79.81a2,2,0,0,0-.84-.15,6.26,6.26,0,0,0-.94-.09.3.3,0,0,0-.08.58,8,8,0,0,0,.92.19,1.41,1.41,0,0,0,.93,0A.29.29,0,0,0,75.75,79.81Z"/>
				<path class="cls-7" d="M71.48,80.66a1.08,1.08,0,0,0-.71-.23,6.08,6.08,0,0,1-.84-.19.33.33,0,0,0-.26.59,3,3,0,0,0,.81.3,1.3,1.3,0,0,0,.94,0A.31.31,0,0,0,71.48,80.66Z"/>
				<path class="cls-29" d="M49.57,36.89A21.2,21.2,0,0,0,39.21,23.07a9.63,9.63,0,0,0-13.14,3.85c-3,5.21-2.21,12.34-.22,18C28,51,34.35,55.16,41,52.94,48.85,50.32,51,43.53,49.57,36.89Z"/>
				<path class="cls-29" d="M47.85,37.3a19,19,0,0,0-9.31-12.35,8.68,8.68,0,0,0-11.81,3.43c-2.7,4.65-2,11-.18,16,1.95,5.46,7.64,9.18,13.61,7.21C47.23,49.3,49.19,43.24,47.85,37.3Z"/>
				<path class="cls-30" d="M45.25,37.87a16.86,16.86,0,0,0-7.8-11.23c-4-2.22-8.08-.33-10,3.26-2.34,4.29-1.78,10.12-.29,14.7,1.62,5,6.41,8.34,11.49,6.48C44.62,48.87,46.34,43.29,45.25,37.87Z"/>
				<ellipse class="cls-31" cx="33.49" cy="37.36" rx="6.02" ry="7.51"/>
				<path d="M37.11,37.36c0,2.49-1.62,4.5-3.61,4.5s-3.62-2-3.62-4.5,1.61-4.5,3.62-4.5S37.11,34.87,37.11,37.36Z"/>
				<g class="cls-12">
					<path class="cls-32" d="M35.84,43.72c.56-.43,1.1-1.21.7-1.91a.74.74,0,0,0-1-.34,3.23,3.23,0,0,1-2,1,3.74,3.74,0,0,1-3.39-2c-.42-1.2-.53-1.74-1.11-1.26s0,2.16.49,2.94a4.9,4.9,0,0,0,4.07,2.14,4.05,4.05,0,0,0,2.11-.49Z"/>
				</g>
				<path class="cls-14" d="M35.79,29.85c-2.45-1.52-3.45.4-3,2.32A4.9,4.9,0,0,0,38,35.61C40.4,35.21,39.08,31.9,35.79,29.85Z"/>
				<path class="cls-9" d="M45.25,37.87a16.86,16.86,0,0,0-7.8-11.23c-4-2.22-8.08-.33-10,3.26-2.34,4.29-1.78,10.12-.29,14.7,1.62,5,6.41,8.34,11.49,6.48C44.62,48.87,46.34,43.29,45.25,37.87Zm-3.64,7.85c-2.37,2-5.45,3.46-8.38,2s-3.7-4-4.34-7.27-.79-7.3.68-10.21c.77-1.52,2.09-2,3.66-2.56,2.63-.89,4.76-.2,6.81,1.56a13.39,13.39,0,0,1,4.83,7.9A8.76,8.76,0,0,1,41.61,45.71Z"/>
			</g>
		</g>
	</g>
</svg>