<svg xmlns="http://www.w3.org/2000/svg" xmlns:xlink="http://www.w3.org/1999/xlink" viewBox="0 0 120.75 100.61"><defs><style>.cls-1{mask:url(#mask);filter:url(#luminosity-noclip-3);}.cls-13,.cls-15,.cls-2,.cls-4{mix-blend-mode:multiply;}.cls-2{fill:url(#linear-gradient);}.cls-3{mask:url(#mask-2);filter:url(#luminosity-noclip-4);}.cls-4{fill:url(#linear-gradient-2);}.cls-5{fill:none;}.cls-6{isolation:isolate;}.cls-37,.cls-7{fill:#00abaf;}.cls-8{fill:#ffd05d;}.cls-15,.cls-9{fill:#1c8891;}.cls-10{fill:#ffad40;}.cls-11{fill:#ffc453;}.cls-12,.cls-13{fill:#026773;}.cls-13{opacity:0.3;}.cls-14{fill:#49d6d6;}.cls-15{opacity:0.6;}.cls-16{fill:#d3c9b4;}.cls-17{fill:#054449;}.cls-17,.cls-35,.cls-37{opacity:0.5;}.cls-18{fill:#ffb94a;}.cls-19{fill:#ffdb67;}.cls-20{fill:#fff27a;}.cls-21{fill:#f7f4f8;}.cls-22{fill:#cec5d6;}.cls-23{fill:#baa7ce;}.cls-24{clip-path:url(#clip-path);}.cls-25{fill:url(#linear-gradient-3);}.cls-26{mask:url(#mask-3);}.cls-27{fill:url(#linear-gradient-4);}.cls-28{fill:#fff;}.cls-29{fill:url(#linear-gradient-5);}.cls-30{mask:url(#mask-4);}.cls-31{fill:url(#linear-gradient-6);}.cls-32{fill:#e0dacf;}.cls-33,.cls-35{fill:#37b9bc;}.cls-34,.cls-36{fill:#97f2f2;}.cls-34,.cls-37{mix-blend-mode:screen;}.cls-38{fill:#f9f6f2;}.cls-39{filter:url(#luminosity-noclip-2);}.cls-40{filter:url(#luminosity-noclip);}</style><filter id="luminosity-noclip" x="5.55" y="-4658.43" width="4.74" height="32766" filterUnits="userSpaceOnUse" color-interpolation-filters="sRGB"><feFlood flood-color="#fff" result="bg"/><feBlend in="SourceGraphic" in2="bg"/></filter><mask id="mask" x="5.55" y="-4658.43" width="4.74" height="32766" maskUnits="userSpaceOnUse"><g class="cls-40"/></mask><linearGradient id="linear-gradient" x1="11710.45" y1="-5092.29" x2="11724.5" y2="-5092.29" gradientTransform="matrix(0.16, 0.49, -0.8, 0.68, -5902.69, -2279.11)" gradientUnits="userSpaceOnUse"><stop offset="0.01"/><stop offset="0.41" stop-color="#fff"/><stop offset="0.47" stop-color="#fafafa"/><stop offset="0.54" stop-color="#ececec"/><stop offset="0.62" stop-color="#d5d5d5"/><stop offset="0.7" stop-color="#b4b4b4"/><stop offset="0.79" stop-color="#8a8a8a"/><stop offset="0.88" stop-color="#565656"/><stop offset="0.96" stop-color="#1b1b1b"/><stop offset="1"/></linearGradient><filter id="luminosity-noclip-2" x="23.27" y="-4658.43" width="6.09" height="32766" filterUnits="userSpaceOnUse" color-interpolation-filters="sRGB"><feFlood flood-color="#fff" result="bg"/><feBlend in="SourceGraphic" in2="bg"/></filter><mask id="mask-2" x="23.27" y="-4658.43" width="6.09" height="32766" maskUnits="userSpaceOnUse"><g class="cls-39"/></mask><linearGradient id="linear-gradient-2" x1="8041.36" y1="-1984.9" x2="8049.27" y2="-1984.9" gradientTransform="matrix(0.72, 0.77, -0.65, 0.89, -7087.05, -4426.97)" xlink:href="#linear-gradient"/><clipPath id="clip-path"><path class="cls-5" d="M7.27,35c2.1,4.41,7.42,3.83,11.72.07,4-3.46,8.11-8.56,9.37-13.76C29.42,17,28,13.08,23.93,13s-8.83,2.55-12.4,6.28C7.3,23.77,4.79,29.84,7.27,35Z"/></clipPath><linearGradient id="linear-gradient-3" x1="11712.12" y1="-5110.24" x2="11722.14" y2="-5084.24" gradientTransform="matrix(0.16, 0.49, -0.8, 0.68, -5902.69, -2279.11)" gradientUnits="userSpaceOnUse"><stop offset="0" stop-color="#381400"/><stop offset="0.39" stop-color="#843700"/><stop offset="1" stop-color="#de7c00"/></linearGradient><filter id="luminosity-noclip-3" x="5.55" y="21.46" width="4.74" height="11.29" filterUnits="userSpaceOnUse" color-interpolation-filters="sRGB"><feFlood flood-color="#fff" result="bg"/><feBlend in="SourceGraphic" in2="bg"/></filter><mask id="mask-3" x="5.55" y="21.46" width="4.74" height="11.29" maskUnits="userSpaceOnUse"><g class="cls-1"><path class="cls-2" d="M6.47,32.75c.49,0,1.32-.38,2-1.56.43-.78.39-1.1.2-1.28-.52.05-1.2,0-1.25-.69-.07-.92,0-2.6,1.57-5.32,1.14-1.75,1.66-2.47,1.11-2.45s-2.14,2.45-2.86,3.8a11.77,11.77,0,0,0-1.63,6.12c.09.65.27,1.23.74,1.35Z"/></g></mask><linearGradient id="linear-gradient-4" x1="11710.45" y1="-5092.29" x2="11724.5" y2="-5092.29" gradientTransform="matrix(0.16, 0.49, -0.8, 0.68, -5902.69, -2279.11)" gradientUnits="userSpaceOnUse"><stop offset="0.01" stop-color="#381400"/><stop offset="0.41" stop-color="#ffde54"/><stop offset="0.48" stop-color="#fad952"/><stop offset="0.57" stop-color="#edcb4c"/><stop offset="0.66" stop-color="#d7b442"/><stop offset="0.75" stop-color="#b89334"/><stop offset="0.85" stop-color="#906922"/><stop offset="0.95" stop-color="#60360c"/><stop offset="1" stop-color="#451a00"/></linearGradient><linearGradient id="linear-gradient-5" x1="8042.81" y1="-1999.89" x2="8050.39" y2="-1980.21" gradientTransform="matrix(0.72, 0.77, -0.65, 0.89, -7087.05, -4426.97)" xlink:href="#linear-gradient-3"/><filter id="luminosity-noclip-4" x="23.27" y="20.56" width="6.09" height="9.74" filterUnits="userSpaceOnUse" color-interpolation-filters="sRGB"><feFlood flood-color="#fff" result="bg"/><feBlend in="SourceGraphic" in2="bg"/></filter><mask id="mask-4" x="23.27" y="20.56" width="6.09" height="9.74" maskUnits="userSpaceOnUse"><g class="cls-3"><path class="cls-4" d="M27.07,30.3a2.34,2.34,0,0,0,2.22-1.49c.2-.7-.08-1-.49-1.09a3,3,0,0,1-2.49-.44,4.22,4.22,0,0,1-.9-4.58c.72-1.57,1.11-2.22.23-2.14s-1.9,2.25-2.19,3.44a5.48,5.48,0,0,0,1.32,5.24,3.38,3.38,0,0,0,2.07,1Z"/></g></mask><linearGradient id="linear-gradient-6" x1="8041.36" y1="-1984.9" x2="8049.27" y2="-1984.9" gradientTransform="matrix(0.72, 0.77, -0.65, 0.89, -7087.05, -4426.97)" xlink:href="#linear-gradient-4"/></defs><title>fish4</title><g class="cls-6"><g id="Layer_2" data-name="Layer 2"><g id="Layer_2-2" data-name="Layer 2"><path class="cls-7" d="M84.85,27.75c-.39-.34-.8-.65-1.22-1a.35.35,0,0,0,.19-.16c1.12-1.94,1.8-3.81-.28-5.27-2.24-1.57-2.33-4.87-4.94-6.08-1.11-.51-2.66,0-3.6-.8-.75-.62-.42-2.23-.55-3.08a4.21,4.21,0,0,0-4.7-3.32c-1.22.08-3.45.48-4-1a10,10,0,0,0-1.11-2.86c-1.51-1.86-4.38-1.07-6.36-.55s-3.71,1.64-5.61.75C51.21,3.77,50.61,2,49.4,1a5.7,5.7,0,0,0-7.06.46.15.15,0,0,0-.06.12,10.43,10.43,0,0,0-1.34,1.52,9.17,9.17,0,0,1-1.88,2c-1.42,1-2.31-.22-3.19-1-1.55-1.43-4.26-2.49-6.29-1.47S26.12,6,27,8.16a3.68,3.68,0,0,0,2.07,1.78,4.57,4.57,0,0,0,1.66.28c1.53.07,2.59.66,2.8,2.21-.92.33-1.84.7-2.77,1.06-.21.09-.12.43.11.35,4.66-1.66,9.44-1.88,14.33-1.77,4.65.1,9.53-.07,13.92,1.57a101.21,101.21,0,0,1,13.3,6.16A44.49,44.49,0,0,1,78.25,24c1.94,1.53,4.05,2.83,6,4.4C84.66,28.75,85.29,28.13,84.85,27.75Z"/><path class="cls-8" d="M30.25,5.7c3.66.13,7,2.91,10.2-.08,2.26-2.09,5-4.74,8.1-2.61,1.53,1,2.75,4,4.94,3.75,2-.25,3.73-1.34,5.69-1.71,1.12-.22,2.43-.42,3.4.34,1.7,1.32.64,5.15,3.78,5,1.66-.09,3.35-.27,4.86.55,1.18.65,1.46,2.26,2.16,3.28,1.08,1.59,3.43,1.83,4.85,3.15a11.82,11.82,0,0,1,1.51,2.27c1,1.45,1.91,1.71,3.11,2.71a5.83,5.83,0,0,1,1.83,2.49,2.74,2.74,0,0,0-1.13-3.45c-2.24-1.57-2.33-4.87-4.94-6.08-1.11-.51-2.66,0-3.6-.8-.75-.62-.42-2.23-.55-3.08a4.21,4.21,0,0,0-4.7-3.32c-1.22.08-3.45.48-4-1a10,10,0,0,0-1.11-2.86c-1.51-1.86-4.38-1.07-6.36-.55s-3.71,1.64-5.61.75C51.21,3.77,50.61,2,49.4,1a5.7,5.7,0,0,0-7.06.46.15.15,0,0,0-.06.12,10.43,10.43,0,0,0-1.34,1.52,9.17,9.17,0,0,1-1.88,2c-1.42,1-2.31-.22-3.19-1-1.55-1.43-4.26-2.49-6.29-1.47S26.12,6,27,8.16a2.61,2.61,0,0,0,.47.72C27.39,7.19,28.06,5.62,30.25,5.7Z"/><path class="cls-9" d="M89.35,68.66c-1.62,1.53-3.77,2.32-5.67,3.42s-4,2.31-6.06,3.27c-4.31,2-8.86,3.48-13.33,5a62.91,62.91,0,0,1-14,2.84A29.57,29.57,0,0,1,43,82.68c-1.2-.18-2.37-.48-3.56-.7a10.31,10.31,0,0,1-3.6-1,.21.21,0,0,0-.26.33,4.29,4.29,0,0,0,1.12.72C36.52,84.37,39,87.19,41,87.92a4.84,4.84,0,0,0,2.38.31c1.39-.2,3.58-1.36,4.68.12.47.61.33,1.59.74,2.25A4.37,4.37,0,0,0,50.13,92c2.87,2,5.42-1.27,7.57-2.66s4.51,0,6.52.66a5.48,5.48,0,0,0,4.46-.38h0l.1-.05,0,0a2.92,2.92,0,0,0,1.07-1.17A4.36,4.36,0,0,1,72,86.22c.73-.28,2,.14,2.77.14,3.55,0,2.75-5,5.4-6,1.12-.4,2.2,0,3.3-.61s1.18-1.89,1.43-3c.2-.88,1.47-1.13,2.16-1.51a3.47,3.47,0,0,0,1-1.25,8.45,8.45,0,0,0,1.36-4.39,6.76,6.76,0,0,0,.5-.46A.38.38,0,0,0,89.35,68.66Z"/><path class="cls-10" d="M87,73c-1.54,1.29-3.08,1.42-3.75,3.59a2.85,2.85,0,0,1-1.65,1.94c-1.23.33-2.87-.33-3.73,1.2-.34.61-.6,1.25-.93,1.86A5,5,0,0,1,74.78,84c-1.8.7-4.12-.43-5.43,1.56-.54.81-1.22,2.21-2.16,2.64a4.69,4.69,0,0,1-3.9,0c-2.35-.82-4.05-1.53-6.36,0-2.08,1.38-4.11,1.7-5.85-.36-3.41-4-7.4-.65-11.55-2.38a11.31,11.31,0,0,1-2.37-1.3A7.63,7.63,0,0,0,41,87.92a4.84,4.84,0,0,0,2.38.31c1.39-.2,3.58-1.36,4.68.12.47.61.33,1.59.74,2.25A4.37,4.37,0,0,0,50.13,92c2.87,2,5.42-1.27,7.57-2.66s4.51,0,6.52.66a5.48,5.48,0,0,0,4.46-.38h0l.1-.05,0,0a2.92,2.92,0,0,0,1.07-1.17A4.36,4.36,0,0,1,72,86.22c.73-.28,2,.14,2.77.14,3.55,0,2.75-5,5.4-6,1.12-.4,2.2,0,3.3-.61s1.18-1.89,1.43-3c.2-.88,1.47-1.13,2.16-1.51a3.47,3.47,0,0,0,1-1.25,8.71,8.71,0,0,0,1.31-3.59A15.05,15.05,0,0,1,87,73Z"/><path class="cls-9" d="M117.29,22.11c1.65-1.45,3.14-3.11,3.43-5.37s-1.76-4.36-3.65-5.25c-4.27-2-9,.68-12,3.69C101.32,19,99,24.64,98.34,29.91a66.22,66.22,0,0,0-.3,10,19.62,19.62,0,0,1-.26,4.87,11.35,11.35,0,0,1-1.9,3.84.19.19,0,0,0-.11,0,7.11,7.11,0,0,0-1.91,6.07c.23,1.7.48,3.47,2.32,3.86A23.3,23.3,0,0,1,94,66.77a30.2,30.2,0,0,0-2.09,8.87,30.24,30.24,0,0,0,1.9,14.57,15.83,15.83,0,0,0,18.47,10c3-.68,6.18-2.67,5.62-6.19a7.94,7.94,0,0,1,.56-5,5.67,5.67,0,0,0-1-5.86,11.37,11.37,0,0,1-2-2.9c-.39-1.11.37-2.07.36-3.13.18-.82.21-1.89-.55-2.36a3.27,3.27,0,0,0-2-.46c-2.28,0-1.34-1.79-1-2.55a9.87,9.87,0,0,0,.49-1.24,3.37,3.37,0,0,0-1.4-3.58c-1.41-.91-3.77-.42-5.24-1.14-2-1.37-.4-4.62-.77-6.76-.21-1.28-1.51-2.22-2.41-3A5.91,5.91,0,0,0,101.18,55a1,1,0,0,0,.33-.31,5.85,5.85,0,0,0,.6-1.55c.57-2,2.72-.8,3.74-.31a7.59,7.59,0,0,0,6.5.16,9.34,9.34,0,0,0,5.22-4.89,5.07,5.07,0,0,0,.17-3.53,7.91,7.91,0,0,0-1.19-1.94,3.38,3.38,0,0,1-.42-3.49.39.39,0,0,0,0-.14,20.57,20.57,0,0,1,1.6-2.06,7.07,7.07,0,0,0,1.05-2.18A9.21,9.21,0,0,0,119,30a4.75,4.75,0,0,0-2.72-3.27c-.79-.37-2.34-.35-1.47-1.77A17,17,0,0,1,117.29,22.11Z"/><path class="cls-11" d="M117.29,22.11c1.65-1.45,3.14-3.11,3.43-5.37s-1.76-4.36-3.65-5.25a7.14,7.14,0,0,0-2.47-.67c2.55.52,4.55,1.9,4.53,4.79,0,3.42-4.82,5.07-6.3,7.7-3.67,6.49,5.08,4.66,5,8.91a5.44,5.44,0,0,1-1.6,3.52c-.82.94-2.32,2-2.82,3.1-.83,1.92.17,2.36.87,3.64,1.12,2,1.46,5.39-.79,6.89a6.22,6.22,0,0,1-4,1c-1.57-.08-3.88-1.4-5.4-.86-2.14.76-2.28,3.43-3.76,4.91a3.59,3.59,0,0,1-.64.48c1.7.69,2.75,2.21,3.11,4.49.46,3-1.06,8.8,3.32,8.82,3.55,0,5.55,1.44,4.4,5.38-.67,2.29.8,2.4,2.48,3.19.91.43.44,2.08.34,2.72-.3,1.92.1,2.28,1.29,3.75a4,4,0,0,1,1.21,2.31c0,2.78-3,3.79-2.16,7,1.16,4.27-3.19,5.28-6.36,4.94a19.28,19.28,0,0,1-13.86-8.13c.1.28.2.57.32.85a15.83,15.83,0,0,0,18.47,10c3-.68,6.18-2.67,5.62-6.19a7.94,7.94,0,0,1,.56-5,5.67,5.67,0,0,0-1-5.86,11.37,11.37,0,0,1-2-2.9c-.39-1.11.37-2.07.36-3.13.18-.82.21-1.89-.55-2.36a3.27,3.27,0,0,0-2-.46c-2.28,0-1.34-1.79-1-2.55a9.87,9.87,0,0,0,.49-1.24,3.37,3.37,0,0,0-1.4-3.58c-1.41-.91-3.77-.42-5.24-1.14-2-1.37-.4-4.62-.77-6.76-.21-1.28-1.51-2.22-2.41-3A5.91,5.91,0,0,0,101.18,55a1,1,0,0,0,.33-.31,5.85,5.85,0,0,0,.6-1.55c.57-2,2.72-.8,3.74-.31a7.59,7.59,0,0,0,6.5.16,9.34,9.34,0,0,0,5.22-4.89,5.07,5.07,0,0,0,.17-3.53,7.91,7.91,0,0,0-1.19-1.94,3.38,3.38,0,0,1-.42-3.49.39.39,0,0,0,0-.14,20.57,20.57,0,0,1,1.6-2.06,7.07,7.07,0,0,0,1.05-2.18A9.21,9.21,0,0,0,119,30a4.75,4.75,0,0,0-2.72-3.27c-.79-.37-2.34-.35-1.47-1.77A17,17,0,0,1,117.29,22.11Z"/><path class="cls-12" d="M114.63,14.44c-6.21-1.1-10.71,4.86-11.93,9.72-1.09,4.34-1.09,8.39-1.84,17.44-.25,3.09-2.73,7-5.74,8.06a.4.4,0,0,0,.21.77c5.46-1.49,6.82-6.74,7.38-11.79a43,43,0,0,1,2.57-11.3c1-2.5,2.28-5.26,4.63-6.76,1.71-1.08,5.76-1.28,6.37-3.56A2.57,2.57,0,0,0,114.63,14.44Z"/><path class="cls-12" d="M109.24,28.87C102.84,36,105.34,48,94.44,51.29a.32.32,0,0,0,.18.62,12.61,12.61,0,0,0,8.06-5.9c1.52-2.42,2.29-5.2,3.6-7.74a25.76,25.76,0,0,1,3.87-5.51c1.15-1.27,3.59-1.33,3.48-3.23C113.46,26.74,110,28,109.24,28.87Z"/><path class="cls-12" d="M112,38.15c-2.13-.79-4.77,2.68-5.81,4-2.72,3.28-5.32,9.19-10.06,9.82-.45.06-.49.75,0,.75,2.84,0,4.74-2.14,6.57-4,2.86-3,6.68-4.41,9.82-7C114,40.44,113.73,38.81,112,38.15Z"/><path class="cls-12" d="M105.28,68.45A40,40,0,0,1,103,64.52a12.72,12.72,0,0,0-4.11-6.78A8,8,0,0,0,97,56.29a.36.36,0,0,0-.45.55.48.48,0,0,0,.19.59,10,10,0,0,1,2.66,2.64,28.62,28.62,0,0,1,2.12,6.8c.5,2,1.14,4.57,2.82,5.94a1.51,1.51,0,0,0,2.49-1.3C106.78,70.44,105.82,69.28,105.28,68.45Z"/><path class="cls-12" d="M102.15,75.48a25.07,25.07,0,0,1-3.28-6.3c-.09-1-.15-1.74-.2-2.19-.3-2.66-.11-5.9-2.38-7.73a.39.39,0,0,0-.55.56c2.63,3.08,1.53,9.22,2,13.06.32,2.37,1.5,6.74,4.4,7a1,1,0,0,0,.92-.7C103.63,77.72,103.05,76.74,102.15,75.48Z"/><path class="cls-12" d="M99.57,86.34a27.51,27.51,0,0,1-2.63-6.52c-.84-5.83-.46-11.74-1.59-17.5-.08-.41-.79-.32-.75.1.47,4.28,0,8.56.17,12.86a63.05,63.05,0,0,0,1.12,8.81c.51,2.8,1.48,8.47,5.3,8.37a1,1,0,0,0,1-1C102.1,89.6,100.45,88,99.57,86.34Z"/><path class="cls-13" d="M83.63,26.78a.35.35,0,0,0,.19-.16,6.86,6.86,0,0,0,1.06-2.77A8.37,8.37,0,0,1,82,21.77c-1-1-1.84-2.08-2.82-3.06-1.29-1.29-3.09-1.32-4.46-2.37a39.16,39.16,0,0,0-4.11-3.23c-1.91-1.11-3.71-1.21-5.74-1.77-3.63-1-5.94-3.15-10-2.77S47,5.59,43,7.28a18.54,18.54,0,0,1-8.52,1.27C31.37,8.33,28,6,28.67,3.23A4.38,4.38,0,0,0,27,8.16a3.68,3.68,0,0,0,2.07,1.78,4.57,4.57,0,0,0,1.66.28c1.53.07,2.59.66,2.8,2.21-.92.33-1.84.7-2.77,1.06-.21.09-.12.43.11.35,4.66-1.66,9.44-1.88,14.33-1.77,4.65.1,9.53-.07,13.92,1.57a101.21,101.21,0,0,1,13.3,6.16A44.49,44.49,0,0,1,78.25,24c1.94,1.53,4.05,2.83,6,4.4.45.37,1.08-.25.64-.64S84,27.09,83.63,26.78Z"/><path class="cls-7" d="M98.49,56.25a60.43,60.43,0,0,0-7.94-23.68C86.29,25.36,79.71,20.32,72.66,16,60.34,8.57,44.32,6.23,30.82,11.81a26.11,26.11,0,0,0-7.54,3.8,45.66,45.66,0,0,0-8.46,8.6,37.09,37.09,0,0,0-4.9,10c-.7,2-1.17,4.2-2.3,6S4.77,42.72,3.3,43.94c-.2.15-.06.39.13.44A12.13,12.13,0,0,0,1.53,47,12.63,12.63,0,0,0,0,53.53c.19,4.48,3.6,8,7.6,9.59,1.89,3.86,5.65,6.95,8.78,9.74A48.31,48.31,0,0,0,28.1,80.38c9,4.21,19,5.16,28.86,4.73s18.66-5.2,26.68-10.35c6.45-4.14,13.56-10.09,15.13-18A.46.46,0,0,0,98.49,56.25Z"/><path class="cls-14" d="M94,46.42a34.77,34.77,0,0,0-3.26-7.88c-1.45-2.26-2.93-4.52-4.5-6.7-7-9.73-17.2-17.47-29.29-19.42-1.53-.24-5.39-1.06-6.55.31-1.45,1.73,1.67,3.78,1.82,5.51.19,2.19-1.23,4.74-1.52,6.95-.4,3,.3,5.91,3.66,6.42a17.22,17.22,0,0,0,4.7-.2,34.19,34.19,0,0,1,5.67-.26,25.16,25.16,0,0,1,14.73,5.26,48.5,48.5,0,0,1,7.07,7.22c1.5,1.78,3.07,5.26,5.39,6.07S94.53,48.78,94,46.42Z"/><path class="cls-15" d="M98.49,56.25a59.74,59.74,0,0,0-3.64-14.76c.12,1.16.24,2.33.42,3.51a34.7,34.7,0,0,1,.65,7.59c-.33,4.87-6.06,4.76-8.18,1a29.79,29.79,0,0,0-1.54-2.69c-2-2.71-1.81-1.72-3.46-1.19a2.85,2.85,0,0,1-2.51-.14c-1.86-1.22-2.13-3.23-2.08-5.33,0-1.19.66-5.15-1.17-5.42-2.17-.32-4.39.87-6.18,1.95a40.65,40.65,0,0,0-9.47,8.49c-.06,3.12-1.8,5.15-5,5.8-2.06.42-3.72,2.87-5.77,3.73a12.09,12.09,0,0,1-5.88,1C37.39,58.95,33.6,53.62,34.34,47a14.93,14.93,0,0,0-1.68,9.15.88.88,0,0,1-.06.46.88.88,0,0,1-.23,1.16,14.75,14.75,0,0,1-9.81,2.61c-3.06-.37-5.13-3-6.88-5.24a.9.9,0,0,1,.07-1.18c-.16-2.75-.75-6.25-3.22-7.76A5.82,5.82,0,0,0,11.7,46a3.86,3.86,0,0,1,1.73,2.77,5.76,5.76,0,0,1,.45,4.77,6.56,6.56,0,0,1-1.7,2.6A6.37,6.37,0,0,1,9.69,58.4a8.06,8.06,0,0,1-8.5-.73,12.57,12.57,0,0,0,6.42,5.46c1.89,3.86,5.65,6.95,8.78,9.74A48.31,48.31,0,0,0,28.1,80.38c9,4.21,19,5.16,28.86,4.73s18.66-5.2,26.68-10.35c6.45-4.14,13.56-10.09,15.13-18A.46.46,0,0,0,98.49,56.25Z"/><path class="cls-16" d="M93.77,61c-4.54.48-8.8,2.18-13,3.87-7.95,3.21-16.36,6.6-25.11,5.15-8.53-1.41-15.84-6.65-24.38-7.91a40.22,40.22,0,0,0-22.5,3c2,3,5,5.47,7.62,7.76A48.31,48.31,0,0,0,28.1,80.38c9,4.21,19,5.16,28.86,4.73s18.66-5.2,26.68-10.35c5.26-3.37,11-7.95,13.73-13.79A18.12,18.12,0,0,0,93.77,61Z"/><path class="cls-17" d="M42.88,61.76c-3.31-.57-7-1.63-9-4.56s-1.24-6.48.32-9.42a11.84,11.84,0,0,1,1.61-2.94.19.19,0,0,0-.25.05c-2.68,3.07-4.91,8-2.92,12h0c-3.3,2.84-7,4.53-11.35,3a8.74,8.74,0,0,1-3.73-2.75c-.23-.27-2.21-2.46-1.85-2.92a.23.23,0,0,0-.23-.38,8.81,8.81,0,0,0-4.69-8.74l.19.19c2.6,2.23,4.81,5.74,3.52,9.15-.06.15-.12.3-.18.45s0,.07,0,.1a5.16,5.16,0,0,1-.33.69,11.17,11.17,0,0,1-3.34,3.92,6.79,6.79,0,0,0,4.68-4.7,7.51,7.51,0,0,0,.88,1.49A11.65,11.65,0,0,0,19.51,60a9.74,9.74,0,0,0,6.65,1.39,13.43,13.43,0,0,0,7-3.61c2.06,3.17,6.06,4.31,9.7,4.59A.29.29,0,0,0,42.88,61.76Z"/><path class="cls-18" d="M66.91,69.22a4.48,4.48,0,0,0,.14-.48c.75-2.88.61-8.3-3.39-8.38-1.81,0-3,1.57-3.77,3.1a9.79,9.79,0,0,0-1.71,6.71A20.46,20.46,0,0,0,66.91,69.22Z"/><path class="cls-19" d="M58.18,70.18s0,0,0,0c.29,2,2.27,4.14,4.47,3.53a6.27,6.27,0,0,0,4.25-4.5A20.46,20.46,0,0,1,58.18,70.18Z"/><path class="cls-19" d="M78.91,65.28A3.53,3.53,0,0,0,80.32,69c2.07,1.34,3.94-.74,4.39-2.61a9.45,9.45,0,0,0,.17-3.77C82.83,63.37,80.87,64.31,78.91,65.28Z"/><path class="cls-18" d="M84.46,61.27a2,2,0,0,0-1.92-1.14,1.32,1.32,0,0,0-1.43.33l0,0a2.74,2.74,0,0,0-.41.28,3.81,3.81,0,0,0-1.2,1.94,2.26,2.26,0,0,0-.09.78,8.11,8.11,0,0,0-.46,1.78c2-1,3.91-1.91,6-2.69A5.22,5.22,0,0,0,84.46,61.27Z"/><path class="cls-8" d="M74.48,68.51a.81.81,0,0,0-.65-.11.51.51,0,0,0-.57.11,4.14,4.14,0,0,0-1.13,2.77,1.32,1.32,0,0,0,1,1.25,1.46,1.46,0,0,0,1.58-.76C75.29,70.9,75.51,69.18,74.48,68.51Z"/><path class="cls-10" d="M56.52,54.55c-.38-.83-1.37-2.12-2.43-1.84-2.06.53-.68,4.56,1.18,4.34a1.49,1.49,0,0,0,.48-.15C56.74,56.68,56.92,55.41,56.52,54.55Z"/><path class="cls-11" d="M91.67,55.35a1.3,1.3,0,0,0-.27,0,.44.44,0,0,0-.63-.13,3.39,3.39,0,0,0-1.14,3.12,1.35,1.35,0,0,0,2.52.48C92.71,58,93.08,55.55,91.67,55.35Z"/><path class="cls-10" d="M93.52,47.76c-.54-.58-1.29-.18-1.65.35a1.82,1.82,0,0,0,0,2.11,1.22,1.22,0,0,0,1.58.23,1.19,1.19,0,0,0,.49-1.19A1.75,1.75,0,0,0,93.52,47.76Z"/><path class="cls-20" d="M89.36,39.94a.55.55,0,0,0-.52-.45C87,39.29,87,41.58,87.42,42.79a2.9,2.9,0,0,0,1.34,1.71,1.56,1.56,0,0,0,2-.63C91.51,42.6,91.07,39.75,89.36,39.94Z"/><path class="cls-11" d="M66.65,33.67a2.1,2.1,0,0,0-3-.76,2.74,2.74,0,0,0-.69.69A2.55,2.55,0,0,0,62,36.15c.16.88,1.07,2.12,2.06,2l.08.05c1.28.81,2.26-.45,2.67-1.52A4,4,0,0,0,66.65,33.67Z"/><path class="cls-20" d="M73.08,23.76c-.67-.61-1.44.07-1.69.71,0,0,0,.09,0,.15l0,.06a1.54,1.54,0,0,0,0,1.37,1.24,1.24,0,0,0,2.2.07A2.14,2.14,0,0,0,73.08,23.76Z"/><path class="cls-18" d="M69.6,22.19c0-3.5-3-8.43-6.47-9.4-3.28-.91-6.94.91-7.62,4.29s1.89,7.56,4.61,9.54a4.27,4.27,0,0,0,6-.28C68,25.79,69.62,24.42,69.6,22.19Z"/><path class="cls-19" d="M79.36,22.46l-.31,0a.39.39,0,0,0-.37-.21c-1.64.12-2.34,2-2.45,3.74a6.54,6.54,0,0,0,0,1.8,7.27,7.27,0,0,0,1.55,3.79c.73.89,2.49,2.15,3.75,1.67a3.21,3.21,0,0,0,1.82-1.84C85.9,29,82.92,22.46,79.36,22.46Z"/><path class="cls-13" d="M28.28,13,28,12.85c-.9,1.33-1.8,2.66-2.76,3.95-2,2.64-4.29,4.92-6.48,7.38a55.37,55.37,0,0,0-6.59,9.4A24.45,24.45,0,0,1,8.5,38.76a13.39,13.39,0,0,0,1.82.82c6.25,2.26,16.93-5.4,19.84-10.71C33.55,22.68,34.36,18,28.28,13Z"/><path class="cls-21" d="M7.27,35c2.1,4.41,7.42,3.83,11.72.07,4-3.46,8.11-8.56,9.37-13.76C29.42,17,28,13.08,23.93,13s-8.83,2.55-12.4,6.28C7.3,23.77,4.79,29.84,7.27,35Z"/><path class="cls-22" d="M25.58,13.31A5,5,0,0,0,23.93,13c-4.05,0-8.84,2.54-12.39,6.28C7.3,23.77,4.79,29.84,7.27,35c2.11,4.42,7.41,3.84,11.72.08.34-.3.68-.6,1-.93,3.63-3.41,7.19-8.09,8.35-12.84C29.26,17.65,28.35,14.27,25.58,13.31ZM8.81,28.51a12.54,12.54,0,0,1,3.46-9.7A15.5,15.5,0,0,1,20.57,14c2.48-.54-1.12,4.74-1.94,6.43C14.76,28.39,9,31.65,8.81,28.51Z"/><path class="cls-23" d="M28.36,21.36C27.2,26.1,23.64,30.79,20,34.19c-5.32-5.63-1.3-15.58,5.57-20.88C28.35,14.27,29.26,17.65,28.36,21.36Z"/><path class="cls-23" d="M40.71,11.27l-.78-.44Z"/><g class="cls-24"><path class="cls-25" d="M13.2,28.81c-4.1,4.72-7.75,6.13-8.14,3.12s2.61-9.28,6.71-14,7.75-6.13,8.15-3.13S17.31,24.08,13.2,28.81Z"/><path d="M12.92,26.63C10.45,29.47,8.26,30.31,8,28.51s1.57-5.57,4-8.41,4.64-3.68,4.89-1.87S15.37,23.79,12.92,26.63Z"/><g class="cls-26"><path class="cls-27" d="M6.47,32.75c.49,0,1.32-.38,2-1.56.43-.78.39-1.1.2-1.28-.52.05-1.2,0-1.25-.69-.07-.92,0-2.6,1.57-5.32,1.14-1.75,1.66-2.47,1.11-2.45s-2.14,2.45-2.86,3.8a11.77,11.77,0,0,0-1.63,6.12c.09.65.27,1.23.74,1.35Z"/></g><path class="cls-28" d="M20.7,16.41c1.67-3.81-.5-2.4-2.65.25S13.78,23.49,14.27,25,18.45,21.54,20.7,16.41Z"/></g><path class="cls-13" d="M47.41,29.56c3.39-6.19,4.2-10.89-1.88-15.84C40.21,9.39,31.47,11.85,27,16.65c-4.31,4.63-7.62,11.29-6.18,17.1.74,3,3.64,5.41,6.74,6.53C33.82,42.54,44.5,34.86,47.41,29.56Z"/><path class="cls-22" d="M42.63,11.26c-13.94-7.85-32,17.08-18.2,24.86s32-17.07,18.2-24.86Z"/><path class="cls-21" d="M26,17.72C21.83,23.37,22.45,30.2,27.35,33s12.23.42,16.38-5.24,3.52-12.48-1.38-15.24S30.11,12.06,26,17.72Z"/><path class="cls-29" d="M35.5,26.34c-3.63,4.35-8.66,5.88-11.25,3.42s-1.76-8,1.85-12.31S34.76,11.57,37.35,14,39.12,22,35.5,26.34Z"/><path d="M33.62,24.57c-2.17,2.6-5.19,3.52-6.75,2.05S25.81,21.84,28,19.23s5.19-3.53,6.75-2.05S35.79,22,33.62,24.57Z"/><g class="cls-30"><path class="cls-31" d="M27.07,30.3a2.34,2.34,0,0,0,2.22-1.49c.2-.7-.08-1-.49-1.09a3,3,0,0,1-2.49-.44,4.22,4.22,0,0,1-.9-4.58c.72-1.57,1.11-2.22.23-2.14s-1.9,2.25-2.19,3.44a5.48,5.48,0,0,0,1.32,5.24,3.38,3.38,0,0,0,2.07,1Z"/></g><path class="cls-28" d="M38.91,16.81c0-3.71-2.79-2.74-4.61-.44s-2.39,6.3-.32,8.08S38.86,21.79,38.91,16.81Z"/><path class="cls-32" d="M50.32,71.48c-2.62-3-6.9-4.36-10.61-5.29a37.57,37.57,0,0,0-9.81-1.45c-4.46-.56-18.44-.66-12.64,5.4,6.73,7,15.85,10.38,25.32,11.51C48.75,82.38,55.38,77.3,50.32,71.48Z"/><path class="cls-32" d="M62.7,78.63c-.74-1-2.67-.92-3.76-1a7.64,7.64,0,0,0-2.07.21c-1.65,0-4.37.84-4.38,2.65,0,2.4,3.12,2.43,4.83,2.28C58.69,82.69,64.43,80.91,62.7,78.63Z"/><path class="cls-14" d="M10.48,47.62a2.82,2.82,0,0,0-3.76-1.54,3.24,3.24,0,0,0-1.58,1.83,3.19,3.19,0,0,0,.12,3.88c1,1.12,2.8.69,3.81-.08A3.82,3.82,0,0,0,10.48,47.62Z"/><path class="cls-14" d="M10.62,51.77a1.56,1.56,0,0,0,0,3.11A1.56,1.56,0,0,0,10.62,51.77Z"/><path class="cls-14" d="M45.79,46.44A4.18,4.18,0,0,0,41,45.51a1.79,1.79,0,0,0-1.73.14c-3.08,1.83-2.67,5.71-.26,7.92,2.69,2.47,7.55,1.76,8.27-2.23A5.5,5.5,0,0,0,45.79,46.44Z"/><path class="cls-14" d="M45.22,55.29a1.38,1.38,0,0,0,0,2.75A1.38,1.38,0,0,0,45.22,55.29Z"/><path class="cls-13" d="M29,43.29c-2-1.41-6.33-3.23-8.68-3.09-2.53.15-4.55,1.37-6.87,2.11a1.18,1.18,0,0,0,0,2.26c1.87.46,4.08-.42,6-.44,2.82,0,5.23,1,8.06,1.19C29.6,45.43,30.29,44.24,29,43.29Z"/><path class="cls-13" d="M25.85,43.07a13.24,13.24,0,0,0-5.76-1.75,20.3,20.3,0,0,0-4.55,1.19.65.65,0,0,0,0,1.28c1.24.26,2.71-.23,4-.25,1.87,0,3.46.59,5.35.67C26.27,44.27,26.73,43.6,25.85,43.07Z"/><path class="cls-14" d="M28.59,57c-1.86,1.92-4.89,2-7.29,1.09A12.26,12.26,0,0,1,17.68,56a3.86,3.86,0,0,1-1.24-1.91h0a.13.13,0,0,0,0-.2l-.07-.14a.14.14,0,0,0-.28,0c0,2.65,3.18,4.39,5.33,5.18,2.46.91,6.16,1,7.83-1.4C29.56,57.16,28.93,56.69,28.59,57Z"/><path class="cls-14" d="M30.73,56a.79.79,0,0,0-.84.12.31.31,0,0,0-.1.2,2.11,2.11,0,0,0-.19.23.39.39,0,0,0,.33.58,1.34,1.34,0,0,0,1-.44A.42.42,0,0,0,30.73,56Z"/><path class="cls-33" d="M4.69,45.44a9,9,0,0,0-2.8,9.21c.08.3.5.17.45-.12a9.63,9.63,0,0,1,3-8.49C5.68,45.64,5.1,45.1,4.69,45.44Z"/><path class="cls-34" d="M89.32,38.32c-2.61-6.53-8.45-12.76-14.13-16.71s-13-9.08-20.3-8.57c-3.52.25-1.7,3.27-.7,3.29,7,.21,13.67,3.76,19.43,7.52a49.42,49.42,0,0,1,14.47,15C88.48,39.46,89.61,39.06,89.32,38.32Z"/><path class="cls-34" d="M92.43,46.38a10.1,10.1,0,0,0-2.14-4.84c-.63-.67-1.83.22-1.29,1,.95,1.38,1.2,3,1.87,4.5C91.27,48,92.62,47.28,92.43,46.38Z"/><path class="cls-34" d="M51.4,12.94a2.26,2.26,0,0,0-.67-.41.84.84,0,0,0-.26-.1l-.07,0a1.2,1.2,0,0,0-1.09.19,1.69,1.69,0,0,0-.79.66,1.15,1.15,0,0,0,0,1.19,2,2,0,0,0,2.39,1,1.34,1.34,0,0,0,1-1.25A1.63,1.63,0,0,0,51.4,12.94Z"/><path class="cls-13" d="M85.55,52.14c-1.53-2.65,1.09-5.08,1.77-7.62,1-3.82-3-5.86-6.06-6.1-3.76-.3-7.77,1.59-11.07,3.19s-7.71,3.18-9.29,6.88a1.83,1.83,0,0,0,.15,1.78C62.36,56.09,66.14,62.95,71.3,66a6.12,6.12,0,0,0,7.31-.67,23.48,23.48,0,0,1,6.29-4.68c1.26-.61,2.73-1.76,2.63-3.36A11.55,11.55,0,0,0,85.55,52.14Z"/><path class="cls-9" d="M83.85,48.71c-.55-1.59.8-3.18.55-4.81-.42-2.8-5.17-2.65-2.23-6.36.66-.84,1.93-2,1.23-3.14s-2.78-1.24-4-1.18c-7.45.38-15.24,5.79-17.84,12.86a8,8,0,0,0-.43,3.2l-.08.16a.19.19,0,0,0,.1.27v.06a.19.19,0,0,0,.38,0c0-.08,0-.15,0-.23l.2-.16c.67,3.77,2.94,6.52,6,8.77s7,5,11,4.2A4,4,0,0,0,81.22,60c.48-.93.53-2,1.25-2.78s2.14-.77,2.94-1.46C87.93,53.65,84.63,50.9,83.85,48.71Z"/><path class="cls-11" d="M83.85,48.71c-.55-1.59.8-3.18.55-4.81-.42-2.8-5.17-2.65-2.23-6.36.66-.84,1.93-2,1.23-3.14s-2.78-1.24-4-1.18A21.19,21.19,0,0,0,61.93,45.15a32.66,32.66,0,0,1,9.61-7.9c1.64-.86,6.34-3.41,7.73-.79a2.68,2.68,0,0,1,0,2.54c-.18.38-3.26,5-.83,4.33C80,42.94,83.62,42,82.91,45a3.81,3.81,0,0,1-.77,1.78c-1.25,1.41-1.27,1.81-.24,3.07a2.92,2.92,0,0,1,.34,3.21c-.68,1.17-4.72,1.91-4.06,3.62.44,1.11,1.34,2.8.43,3.94a4.55,4.55,0,0,1-2.83,1.72,7.4,7.4,0,0,0,2.85,0A4,4,0,0,0,81.22,60c.48-.93.53-2,1.25-2.78s2.14-.77,2.94-1.46C87.93,53.65,84.63,50.9,83.85,48.71Z"/><path class="cls-12" d="M76.23,38a28.4,28.4,0,0,0-7.35,3.48,16.24,16.24,0,0,0-4.49,4.82,15.56,15.56,0,0,0-1.22,2.26,38.14,38.14,0,0,1,6.33-6c2.31-1.53,4.7-1.92,7.25-2.69C77.95,39.53,77.38,37.59,76.23,38Z"/><path class="cls-12" d="M79.49,44.48c-.79,1.29-5.41.68-6.59.83a25.18,25.18,0,0,0-7.67,2.24c-.43.21-1.9,1.19-1.45,1C67.63,47.06,73,46.85,77,47.08c1.72.1,4,0,4.17-2.14C81.27,44,79.94,43.76,79.49,44.48Z"/><path class="cls-12" d="M79.35,50.27c-2.63.92-4.9-.19-7.41-1A15.06,15.06,0,0,0,65,48.73c-.58.07-1.91.67-1.3.63,3.61-.24,7.46,1.12,10.73,2.44,1.95.79,3.69,1.22,5.58.13C80.93,51.43,80.34,49.92,79.35,50.27Z"/><path class="cls-12" d="M75.89,57.5C74,57.77,72.1,55,71,53.71A15.28,15.28,0,0,0,64.49,50c-.4-.11.4.49.77.69,2.94,1.53,4.73,3.7,6.62,6.35,1.05,1.48,2.82,3.2,4.72,2.18C77.6,58.64,76.86,57.36,75.89,57.5Z"/><path class="cls-35" d="M79,42.15A8.36,8.36,0,0,1,77.19,42c-1-.24.12-1.46.42-1.8.82-.91,2-1.61,2.54-2.72.91-1.73-.25-2.67-2-2.44a24.6,24.6,0,0,0-6.53,2.13A17.79,17.79,0,0,0,64,44a9.86,9.86,0,0,0-.95,1.22l-.18.34c-.26.5.49.93.75.44,1-1.86,2.86-3,4.65-4.06A22,22,0,0,1,71,40.64a11.39,11.39,0,0,1,1.13-.38c1.26-.35,1.1,1.25.94,2-.22,1.11,0,2.05,1.14,2.39,1.59.46-1.56,2.08-.29,2.89a2.33,2.33,0,0,0,1.49.35c1.43,0,.36,3.38.27,4-.14,1,.07,1.76,1.19,1.37s2-1.93,2.61-2.92c1.2-1.81,1.7-3.76,2.72-5.67C83.39,42.42,80.46,42.18,79,42.15Z"/><path class="cls-36" d="M76.73,35.94a28.61,28.61,0,0,0-11,6.43c-.21.19.1.49.32.31a32.48,32.48,0,0,1,10.87-6C77.41,36.54,77.22,35.79,76.73,35.94Z"/><path class="cls-36" d="M79.25,35.73l-.15,0a.19.19,0,0,0-.13,0,.52.52,0,0,0-.36.08.38.38,0,0,0-.17.33l0,0c-.16.21.06.45.27.47a1.28,1.28,0,0,0,.76-.23C79.78,36.21,79.56,35.77,79.25,35.73Z"/><path class="cls-36" d="M78.56,42.9A23,23,0,0,0,71.34,44a.31.31,0,0,0,.17.59,22.17,22.17,0,0,1,7.05-.78C79.11,43.82,79.12,42.92,78.56,42.9Z"/><path class="cls-36" d="M80.51,43.34a.23.23,0,0,0-.31-.15,3.59,3.59,0,0,0-.54.21.31.31,0,0,0-.06.49,1.42,1.42,0,0,0,.42.28c.21.06.39-.1.56-.19A.35.35,0,0,0,80.51,43.34Z"/><path class="cls-36" d="M79.32,47.85l-.12-.11a.25.25,0,0,0-.14-.31,1.9,1.9,0,0,0-2.46.41.4.4,0,0,0,.07.49,2.08,2.08,0,0,0,2.57.2A.44.44,0,0,0,79.32,47.85Z"/><path class="cls-36" d="M78.16,51a.1.1,0,0,1,0,0,.21.21,0,0,0,0-.1v0a.32.32,0,0,0-.42-.33l-.13,0a.3.3,0,0,0-.24.33s0,0,0,0a.29.29,0,0,0,0,.11v0a.31.31,0,0,0,.31.2h.08l.13,0a.3.3,0,0,0,.17-.11Z"/><path class="cls-37" d="M111.15,23.25c1.84-1.89,4.21-4.32,4.69-7,.45-2.45-1.74-2.8-3.6-2.55.26-.13,0-.52-.24-.39a16.56,16.56,0,0,0-8,6.92,39,39,0,0,0-4.33,13.2c-.32,1.95,0,4-.39,5.91-.16.78-.66,2.25.3,2.76a2.38,2.38,0,0,0,1.44.3c1.43-.2,2.5-.65,3.16,1,.56,1.44,1.2,2.51,2.81,2.85,2.85.61,5.12-3.19,4.11-5.56-.35-.82-1.14-1.59-1-2.54a3.55,3.55,0,0,1,1.19-1.7,20.06,20.06,0,0,0,2.81-2.86,2.44,2.44,0,0,0,.11-2.54c-.53-1.08-2.08-1-3.06-.85a8.64,8.64,0,0,1-2.32.12c-1.27-.19-1.27-1.78-1-2.68C108.36,25.94,109.93,24.51,111.15,23.25Z"/><path class="cls-37" d="M111.87,88.45c-1.23-.87-4.22-1.91-3.19-3.91.62-1.2,2.22-1.6,2.93-2.75,1.37-2.19-1-3.4-2.58-4.45-1.15-.77-1.83-1.68-.95-3,.59-.88,1.37-1.55,1.23-2.7a2.57,2.57,0,0,0-1.64-1.83A5.09,5.09,0,0,0,103,68a1.75,1.75,0,0,0-1.25,1.52c-.22,2.39,2.65,5.08-.67,6.46-1,.41-2.73.89-2.92,2.2a2.85,2.85,0,0,0,.18,1.75,14,14,0,0,1,1.52,4.26c.2,1.72,0,3.31.49,5a11.38,11.38,0,0,0,2.61,4.42c2.24,2.4,5.08,2.45,7.74.75C112.66,93.08,114.33,90.2,111.87,88.45Z"/><path class="cls-36" d="M112.2,13.24c-4.83,1.05-8.43,6.85-10.06,11.07a42,42,0,0,0-2.06,9.54c-.61,4.58-.06,9-2.26,13.25a.39.39,0,0,0,.67.4c3.06-4.87,2.39-11.16,3.51-16.62s4.27-14.43,10.72-15.74C114,14.88,113.44,13,112.2,13.24Z"/><path class="cls-36" d="M117.71,13.23a.89.89,0,0,0-1.2-.31l-.13.06a1.72,1.72,0,0,0-1.62.91,1.84,1.84,0,0,0-.25,1.23,1.22,1.22,0,0,0,.3.62c-.12-.14.11.14.15.19a1.57,1.57,0,0,0,.32.27,1.67,1.67,0,0,0,2.25-.56A2.24,2.24,0,0,0,117.71,13.23Z"/><path class="cls-36" d="M111.57,22.82a.48.48,0,0,0-.61-.49c-1.74.48-3.67,2.57-3.63,4.45a.68.68,0,0,0,.49.64c1.88.74,3.34-2.33,4.13-3.52A.73.73,0,0,0,111.57,22.82Z"/><path class="cls-36" d="M112.86,31.28a2.09,2.09,0,0,0-.49-.13.48.48,0,0,0-.25-.09,2.35,2.35,0,0,0-2.45,2.65.75.75,0,0,0,.73.55,2.79,2.79,0,0,0,2.85-2.31A.75.75,0,0,0,112.86,31.28Z"/><path class="cls-36" d="M112.51,35.6a.52.52,0,0,0-.4-.42c-.48-.11-1,0-1.15.49-.23.72.64,1,1.17.89A.64.64,0,0,0,112.51,35.6Z"/><path class="cls-36" d="M113.39,43a3.65,3.65,0,0,0-4.75,1.12.78.78,0,0,0,.34,1.13,1.34,1.34,0,0,0,.9.79c1.3.36,2.81-1,3.68-1.79A.8.8,0,0,0,113.39,43Z"/><path class="cls-36" d="M107.48,75.93c-4.33-.94-6.59-5.69-7.18-9.78-.07-.48-.89-.37-.85.11.37,3.78,3.07,11.16,7.84,11C108.07,77.29,108.27,76.1,107.48,75.93Z"/><path class="cls-36" d="M110.2,81.22a3.39,3.39,0,0,0-2-1.33.48.48,0,0,0-.4-.4,3.08,3.08,0,0,0-1.88.14,1.19,1.19,0,0,0-.48,1.62.73.73,0,0,0,.23.59,2.73,2.73,0,0,0,2.22.79,5.11,5.11,0,0,0,1.85-.29A.78.78,0,0,0,110.2,81.22Z"/><path class="cls-36" d="M107.75,73.3a.76.76,0,0,0-.93.58.5.5,0,0,0,.47.62h.08a.55.55,0,0,0,.77-.2A.68.68,0,0,0,107.75,73.3Z"/><path class="cls-36" d="M111,91.92a2.45,2.45,0,0,0-1-.39c.78,0,1.33-1.08.5-1.47-2.51-1.22-4.94-2.07-7.13-3.86a13.65,13.65,0,0,1-4.53-7.31c-.16-.62-1.08-.35-1,.27C99,84.83,103.9,90.37,109.76,91.5a2.22,2.22,0,0,0-.93.09,1.39,1.39,0,0,0-.65.48,1,1,0,0,0-1,.63c-.2.57.25,1.11.68,1.42,1,.74,2.61,1,3.42-.09A1.43,1.43,0,0,0,111,91.92Z"/><path class="cls-36" d="M110.22,86.66l-.23,0-.11,0a6,6,0,0,0-.66-.11.89.89,0,0,0-.71.46.58.58,0,0,0,.21.8c.67.28,1.35.51,2-.06C111,87.38,110.79,86.59,110.22,86.66Z"/><path class="cls-14" d="M48.21,3.55A2.33,2.33,0,0,0,46,2.82a2.15,2.15,0,0,0-2.09.8,1.38,1.38,0,0,0,.43,2,2.86,2.86,0,0,0,4.07-1.24A.81.81,0,0,0,48.21,3.55Z"/><path class="cls-14" d="M41.6,5.36a.45.45,0,0,0-.07.26.15.15,0,0,1,0,0,.6.6,0,0,0,.6.6.81.81,0,0,0,.73-.58C43.18,4.9,41.79,4.53,41.6,5.36Z"/><path class="cls-14" d="M61.86,6a1.9,1.9,0,0,0-2.37.07,2.55,2.55,0,0,0-.74.51.69.69,0,0,0-.18.69A2.12,2.12,0,0,0,61.77,8a1.71,1.71,0,0,0,.61-.78A1,1,0,0,0,61.86,6Z"/><path class="cls-14" d="M56.26,6.26l-.23,0a.72.72,0,0,0,0,1.44l.23,0C57.21,7.84,57.21,6.17,56.26,6.26Z"/><path class="cls-14" d="M69.84,10.77a.92.92,0,0,0-.61-.08.71.71,0,0,0-.44.9.65.65,0,0,0,1.2.09A.52.52,0,0,0,69.84,10.77Z"/><path class="cls-14" d="M32.54,6.12a1.66,1.66,0,0,0-.43-.34c-.68-.91-2.56.15-1.92,1.33a1.46,1.46,0,0,0,1.25.7,1.36,1.36,0,0,0,1.3-1A.75.75,0,0,0,32.54,6.12Z"/><path class="cls-14" d="M33.73,6.78a.68.68,0,0,0,0,1.36A.68.68,0,0,0,33.73,6.78Z"/><path class="cls-7" d="M56.31,86.09a3,3,0,0,0-2.06-.21,2.75,2.75,0,0,0-1.39.36,1.35,1.35,0,0,0-.65,1,1.27,1.27,0,0,0,.71.95c1.23.69,3.3.24,3.74-1.2A.79.79,0,0,0,56.31,86.09Z"/><path class="cls-7" d="M59.73,85.69a.51.51,0,0,0-.66-.22,1,1,0,0,0-.5.35.63.63,0,0,0,.71.92l.13,0a.63.63,0,0,0,.28-.17A.55.55,0,0,0,59.73,85.69Z"/><path class="cls-7" d="M67.66,84.92a2,2,0,0,0-2-.49,2.66,2.66,0,0,0-2.14.82,1.38,1.38,0,0,0,.24,2.1c1.18.75,3.44-.3,4-1.41A.85.85,0,0,0,67.66,84.92Z"/><path class="cls-7" d="M70,82.52a1,1,0,0,0-.54,0,.65.65,0,0,0-.47.61s0,0,0,.08c0,.45.65.87,1,.45C70.54,83.53,70.56,82.61,70,82.52Z"/><path class="cls-7" d="M74,81.73a.79.79,0,0,0-.66-.27.41.41,0,0,0-.41.05,1.33,1.33,0,0,0-.53.63.58.58,0,0,0,.27.67A1,1,0,0,0,74,82.64.65.65,0,0,0,74,81.73Z"/><path class="cls-7" d="M81.2,76.27a.63.63,0,0,0,0,1.25A.63.63,0,0,0,81.2,76.27Z"/><path class="cls-38" d="M29,68.78c-2.1-1.53-5.39-3.21-8.07-2.38a1.69,1.69,0,0,0-1.22,1.76,1.25,1.25,0,0,0-.13,1.45C20.71,71.51,23.19,72.9,25,74c1.47.89,4.68,2.8,6.25,1.08C33.22,72.93,30.83,70.08,29,68.78Z"/><path class="cls-38" d="M38.73,74.24A4.64,4.64,0,0,0,36,73.73a2.22,2.22,0,0,0-1.35.38,2.45,2.45,0,0,0-.71,3.27C35,79,37.58,78.93,39.32,78.54A1.58,1.58,0,0,0,40.5,77,3.19,3.19,0,0,0,38.73,74.24Z"/><path class="cls-38" d="M44.18,77.41a1,1,0,0,0,0,2A1,1,0,0,0,44.18,77.41Z"/><path class="cls-38" d="M69.17,77.24a6.42,6.42,0,0,0-1.33-.08,12.12,12.12,0,0,0-7.3,2,1.3,1.3,0,0,0-.47,1.78c2.16,3,7.66.94,9.72-1.25A1.44,1.44,0,0,0,69.17,77.24Z"/><path class="cls-38" d="M73.15,75a1.31,1.31,0,0,0,0,2.62A1.31,1.31,0,0,0,73.15,75Z"/></g></g></g></svg>