<svg xmlns="http://www.w3.org/2000/svg" 
	xmlns:xlink="http://www.w3.org/1999/xlink" viewBox="0 0 481.96 262.04">
	<defs>
		<style>.cls-1{fill:none;}.cls-2{isolation:isolate;}.cls-3{fill:#6a7dff;}.cls-4{fill:#6ad8ff;}.cls-24,.cls-5{fill:#ffe428;}.cls-6,.cls-9{opacity:0.5;}.cls-12,.cls-18,.cls-23,.cls-24,.cls-6,.cls-9{mix-blend-mode:multiply;}.cls-7,.cls-9{fill:#5a6ac6;}.cls-8{fill:#6aacff;}.cls-10{fill:#5435ff;}.cls-11{fill:#fff;}.cls-12{fill:#c5c8c9;}.cls-12,.cls-25{opacity:0.8;}.cls-13{clip-path:url(#clip-path);}.cls-14{fill:#3d160b;}.cls-15{fill:url(#linear-gradient);}.cls-16,.cls-25,.cls-26{mix-blend-mode:screen;}.cls-17{fill:url(#linear-gradient-2);}.cls-18{fill:#fa0;opacity:0.4;}.cls-19{fill:url(#linear-gradient-3);}.cls-20{fill:url(#linear-gradient-4);}.cls-21{fill:#ff9328;}.cls-22,.cls-25,.cls-26{fill:#ffff91;}.cls-26{opacity:0.3;}</style>
		<clipPath id="clip-path">
			<path class="cls-1" d="M34,171c4.6,5.68,12.13,3,17.06-4,4.51-6.44,8.8-15.29,8.8-23.29,0-6.72-3.48-11.9-9.38-10.54s-11.94,6.79-15.8,13.48C30.1,154.57,28.59,164.27,34,171Z"/>
		</clipPath>
		<linearGradient id="linear-gradient" x1="4343.55" y1="1118.22" x2="4354.27" y2="1146.05" gradientTransform="matrix(0.26, 0.47, -0.67, 0.81, -352.73, -2807.04)" gradientUnits="userSpaceOnUse">
			<stop offset="0" stop-color="#000e57"/>
			<stop offset="0.6" stop-color="#94fdff"/>
			<stop offset="1" stop-color="#15acff"/>
		</linearGradient>
		<linearGradient id="linear-gradient-2" x1="4341.75" y1="1137.43" x2="4356.8" y2="1137.43" gradientTransform="matrix(0.26, 0.47, -0.67, 0.81, -352.73, -2807.04)" gradientUnits="userSpaceOnUse">
			<stop offset="0" stop-color="#381400"/>
			<stop offset="0.15" stop-color="#843700"/>
			<stop offset="0.15" stop-color="#8b4004"/>
			<stop offset="0.2" stop-color="#ae701d"/>
			<stop offset="0.24" stop-color="#cb9730"/>
			<stop offset="0.29" stop-color="#e2b640"/>
			<stop offset="0.33" stop-color="#f2cc4b"/>
			<stop offset="0.37" stop-color="#fcda52"/>
			<stop offset="0.41" stop-color="#ffde54"/>
			<stop offset="0.48" stop-color="#fad952"/>
			<stop offset="0.57" stop-color="#edcb4c"/>
			<stop offset="0.66" stop-color="#d7b442"/>
			<stop offset="0.75" stop-color="#b89334"/>
			<stop offset="0.85" stop-color="#906922"/>
			<stop offset="0.95" stop-color="#60360c"/>
			<stop offset="1" stop-color="#451a00"/>
		</linearGradient>
		<linearGradient id="linear-gradient-3" x1="73.03" y1="140.54" x2="84.04" y2="169.11" gradientTransform="matrix(1, 0, 0, 1, 0, 0)" xlink:href="#linear-gradient"/>
		<linearGradient id="linear-gradient-4" x1="70.14" y1="161.74" x2="83.81" y2="161.74" gradientTransform="matrix(1, 0, 0, 1, 0, 0)" xlink:href="#linear-gradient-2"/>
	</defs>
	<title>Asset 6</title>
	<g class="cls-2">
		<g id="Layer_2" data-name="Layer 2">
			<g id="Layer_2-2" data-name="Layer 2">
				<path class="cls-3" d="M180.62,237.84s7.25,12.21,71,0,131-26.34,149.66-21.78c11.46,3.06,2.33,1.26,2.28,4.58,0,3.06,9.48,3.3,7.63-3.8-2.66-10.32-48.85-5.74-91.6,2.28s-98.49,23.28-118.35,11.07C191.68,230.19,181,237.84,180.62,237.84Z"/>
				<path class="cls-3" d="M146.63,238.22s56.5,33.59,140.87,21c51.92-8.78,70.9-5.64,68-3.82-2.1,1.29-.65,3.77,2.29,2.67,6.1-2.29,1.16-11.06-14.51-11.06s-119.87,21.75-182.09-13C150.46,234.77,146.63,238.22,146.63,238.22Z"/>
				<path class="cls-4" d="M194.73,246.91c3.77,3.83,14.59,10.61,44.3,11.15,41.61.77,74.83-5.35,90.85-8,9.88-1.63,19.72-2.56,26.4-.17-2.84-1.65-7.2-2.87-13-2.87C330.16,247,255.31,262.17,194.73,246.91Z"/>
				<path class="cls-4" d="M319.58,219.12c-31.51,5.92-70.16,15.78-96.21,15.63,5.26,1.49,15.19,1.53,32.08-.76,31.3-4.17,108.41-24.42,133.23-22.12a152.26,152.26,0,0,0,16.73.65C391.29,208.36,354.3,212.61,319.58,219.12Z"/>
				<path class="cls-5" d="M356.22,255.68s-1.14.71-.57,1.57,5-1,3.45-2.85S356.22,255.68,356.22,255.68Z"/>
				<path class="cls-5" d="M406.91,219.16s-2.73.44-2.59,1.57,3.45,2,4.43.58S407.61,218.9,406.91,219.16Z"/>
				<g class="cls-6">
					<path class="cls-7" d="M201.23,230.19c-9.55,0-20.22,7.64-20.61,7.64,0,0,2.3,3.89,15.76,5.07a79.1,79.1,0,0,0,23.89-8.24C212.41,234.38,205.84,233,201.23,230.19Z"/>
					<path class="cls-7" d="M146.63,238.22s9.72,5.76,27.12,11.64c.35-2.17,2.84-4.66,11.86-5.5A130.42,130.42,0,0,1,161.14,234C150.46,234.77,146.63,238.22,146.63,238.22Z"/>
				</g>
				<path class="cls-8" d="M57.31,132.28S90.8,12.6,215.64,0c0,0,5.45,0,37.9,30.16s67.56,60.71,134.77,92.4c18.69,8,21,10.67,20.22,13.73s-33.21-6.12-42-8.79S275.3,56.88,192.08,65.65,72.2,108.79,57.31,132.28Z"/>
				<path class="cls-4" d="M227.37,8.29S209.07,18,201,34.06c2-.85,14.32-14.75,38.95-15.6C237.68,16.17,227.37,8.29,227.37,8.29Z"/>
				<path class="cls-4" d="M243.41,21.75c-.88.19-14,8-19.18,20.62.57,0,14.88-12.33,29.5-10.88C249.14,26.9,244.83,21.47,243.41,21.75Z"/>
				<path class="cls-4" d="M257.15,34.34s-10,3.45-16,15.75c1.43,0,14-8.3,23.47-9.45C264,38.64,257.15,34.34,257.15,34.34Z"/>
				<path class="cls-4" d="M266.61,42.67a33.24,33.24,0,0,0-11.46,11.72c.86-.27,10.61-6.29,18.33-5.73C273.2,47.24,266.61,42.67,266.61,42.67Z"/>
				<path class="cls-4" d="M276.63,51.53S270,56.69,268.32,63c.88-.89,12.6-4.31,16-4.89C282.35,56.11,276.63,51.53,276.63,51.53Z"/>
				<path class="cls-3" d="M78.5,99.92s6.66-36.55,55.16-70.16C123.35,36.25,103.49,60.31,105,73.29c4.95,8.4,5.71-40.46,70.61-64.13-5.34,2.29-42.08,30.73-43.61,51C139.18,58.4,156.19,19.46,210.4.75c-11.08,5.36-53.47,42.4-46.59,51.16,3.58,4.58,18.72-33.59,61.86-45-14.9,8-35.84,30.29-34,42.37,1.54,9.94-.78-19.85,50-29-9.94,5.37-28.59,22.76-22.9,30.56,3,4.18,4.18-14.12,37-17.57-6.86,2.29-24,16-19.84,22.14s9.54-8.38,29.4-13c-2.67,1.54-17.18,11.84-14.52,16.41,2.77,4.75,8.42-8,24.82-8.41-3.42,1.16-15.65,9.93-10.3,14.13,5.77,4.54,13.35-5.33,21-5,1.14.07-7.25,5.73-4.21,9.54s10.32-2.67,11.84-3-3.81,5.73-.38,8.79,12.22.37,12.22.37-5.35,1.93-2.67,5.73-6.49.76-8.4-.37S195.88,50,156.93,62.59,87.28,91.14,78.5,99.92Z"/>
				<path class="cls-9" d="M69.33,102.22s22.61-20.9,42.08-40.66c4.3.56,18-4,28.35-12.33.3,0,17.46.59,30.06-7.15,0,7.15,15.16,3.15,26.91-.58.28,4,13.75,7.73,25.49,5.46-.29,4,13.74,5.73,18,5.16,2.29.57,8.3,4.28,13.46,4.28,3.14,1.15,10.87,5.43,15.17,5.72,4.3,1.15,19.48,10,37.23,20.63a154,154,0,0,1,29.49,22.9s-86.47-55.82-144-44.09S77.07,108.22,69.62,118s-9.73,10.87-9.73,10.87S63.31,113.67,69.33,102.22Z"/>
				<path class="cls-10" d="M247.15,26a15.84,15.84,0,0,0-1.64.7c-.52.23-1.12.53-1.82.86s-1.5.74-2.3,1.25-1.74,1-2.67,1.57-1.88,1.27-2.87,1.95-1.94,1.47-2.91,2.26-2,1.64-2.84,2.55l-1.36,1.34c-.46.46-.84.94-1.26,1.41s-.83.94-1.23,1.43l-1.09,1.44c-.33.47-.71.94-1,1.4l-.88,1.43c-.28.46-.58.9-.85,1.36s-.45.88-.67,1.3c-.41.87-.82,1.62-1.14,2.33s-.51,1.35-.71,1.86c-.39,1-.62,1.61-.62,1.61l0,.08a.56.56,0,0,1-.75.33.58.58,0,0,1-.32-.75h0l.68-1.65c.22-.52.48-1.18.78-1.87s.8-1.5,1.25-2.37c.23-.41.45-.87.72-1.33s.6-.88.91-1.35.62-.94.95-1.43.72-.93,1.09-1.4.76-.95,1.15-1.45.86-.93,1.3-1.39.86-1,1.3-1.37l1.43-1.33a37,37,0,0,1,2.92-2.49c1-.81,2-1.5,3-2.21s2-1.32,2.94-1.86,1.86-1.08,2.71-1.52,1.64-.83,2.35-1.18,1.32-.61,1.85-.82A16.35,16.35,0,0,1,247.15,26Z"/>
				<path class="cls-10" d="M232.92,12.21s-.88.28-2.33.87c-.75.29-1.65.68-2.65,1.12s-2.15,1-3.35,1.64c-.6.33-1.23.64-1.88,1s-1.3.77-2,1.15c-1.36.75-2.72,1.71-4.15,2.62s-2.85,2-4.22,3.13-2.8,2.26-4.07,3.53l-2,1.87c-.62.63-1.23,1.3-1.84,1.94a52.25,52.25,0,0,0-3.37,4,45.31,45.31,0,0,0-2.83,4c-.41.64-.85,1.28-1.24,1.88s-.68,1.27-1,1.86c-.61,1.2-1.26,2.26-1.72,3.28s-.79,1.89-1.1,2.6c-.6,1.47-1,2.3-1,2.3l0,0a.57.57,0,1,1-1.06-.42h0l1-2.31,1.18-2.65c.48-1,1.15-2.08,1.84-3.3l1-1.87c.42-.61.86-1.23,1.33-1.88a39.37,39.37,0,0,1,2.92-4,46.58,46.58,0,0,1,3.49-4c.64-.64,1.25-1.3,1.89-1.95l2-1.85c1.33-1.25,2.79-2.36,4.19-3.47s2.91-2.06,4.31-3.06,2.83-1.8,4.23-2.54l2-1.1c.66-.33,1.28-.66,1.9-1,1.22-.64,2.36-1.12,3.38-1.58s1.92-.82,2.67-1.08C232,12.48,232.92,12.21,232.92,12.21Z"/>
				<path class="cls-10" d="M260,36.37a35.54,35.54,0,0,0-4.29,2.1c-.65.35-1.31.73-2,1.18s-1.42.93-2.16,1.42-1.49,1.07-2.22,1.65-1.47,1.2-2.18,1.85a25.71,25.71,0,0,0-2,2c-.34.33-.64.68-1,1l-.87,1c-.28.35-.58.66-.84,1s-.5.67-.73,1a19.75,19.75,0,0,0-1.28,1.88c-.38.61-.71,1.17-1,1.68s-.48.95-.65,1.34c-.37.72-.58,1.14-.58,1.14l0,.05a.56.56,0,0,1-.76.25.55.55,0,0,1-.26-.75v0l.65-1.21c.2-.35.44-.81.72-1.34s.7-1,1.09-1.67A23,23,0,0,1,241,50.05c.26-.34.52-.65.81-1s.6-.67.89-1,.6-.69.94-1,.66-.64,1-1c.69-.7,1.4-1.31,2.15-1.94s1.52-1.2,2.28-1.77,1.55-1.07,2.3-1.57,1.49-1,2.21-1.35,1.41-.8,2.05-1.12A33.86,33.86,0,0,1,260,36.37Z"/>
				<path class="cls-10" d="M269.47,44.95A33.79,33.79,0,0,0,266,46.68c-1,.57-2.15,1.25-3.34,2.06s-2.42,1.71-3.59,2.67c-.58.51-1.17,1-1.7,1.51a19.72,19.72,0,0,0-1.55,1.55A14.47,14.47,0,0,0,254.5,56a15.35,15.35,0,0,0-1.13,1.43c-.32.47-.63.89-.88,1.26s-.44.74-.62,1l-.52.88,0,.06a.57.57,0,0,1-.77.19.55.55,0,0,1-.2-.77v0l.59-.92c.19-.26.42-.63.67-1l1-1.28a15.74,15.74,0,0,1,1.24-1.42c.44-.5.94-1,1.47-1.51s1.08-1,1.65-1.49,1.2-1,1.8-1.45c1.23-.94,2.53-1.77,3.76-2.54S264.93,47,266,46.51A37.38,37.38,0,0,1,269.47,44.95Z"/>
				<path class="cls-10" d="M280.06,54.11a27.71,27.71,0,0,0-2.43,1.35c-.71.41-1.51,1-2.36,1.54s-1.76,1.22-2.59,2L271.42,60a15.59,15.59,0,0,0-1.18,1.07c-.69.77-1.42,1.37-1.92,2l-1.75,2.09,0,.05a.58.58,0,1,1-.88-.74l0,0s.78-.82,1.92-2.06c.56-.64,1.36-1.23,2.13-1.94a13,13,0,0,1,1.24-1c.44-.33.9-.64,1.37-1,.86-.68,1.84-1.22,2.69-1.81s1.76-1,2.49-1.39C279,54.53,280.06,54.11,280.06,54.11Z"/>
				<path class="cls-4" d="M210.92,2.56A125.49,125.49,0,0,0,175,35.21C176.14,33.48,201.9,10,223.65,5.15,219.38,2,216.36-1.31,210.92,2.56Z"/>
				<path class="cls-4" d="M180.14,6.87s-23.2,14.6-36.36,34.63c-.57-.57,34.07-30.06,56.12-38.95C196.18,2.56,180.14,6.87,180.14,6.87Z"/>
				<path class="cls-10" d="M192.46,4.3s-1.23.53-3.33,1.64c-1,.54-2.3,1.26-3.73,2s-3,1.75-4.74,2.84L178,12.53c-.91.61-1.86,1.22-2.8,1.88-1.94,1.26-3.88,2.78-5.93,4.23s-4.08,3.13-6.08,4.86-4.09,3.44-6,5.35c-1,.9-2,1.84-2.93,2.77l-2.78,2.9c-.88,1-1.81,1.88-2.68,2.86s-1.67,2-2.49,2.94-1.62,1.86-2.37,2.84-1.43,1.92-2.11,2.84-1.38,1.83-2,2.72-1.17,1.79-1.72,2.62C137,53,136,54.58,135.16,56s-1.45,2.7-2,3.74C132,61.78,131.41,63,131.41,63l0,.05a.57.57,0,0,1-.76.22.55.55,0,0,1-.22-.77h0s.64-1.19,1.8-3.28c.58-1,1.29-2.29,2.08-3.75s1.94-2.93,3-4.63c.57-.85,1.1-1.75,1.74-2.63s1.37-1.76,2.07-2.69,1.43-1.88,2.17-2.84,1.62-1.88,2.43-2.83,1.69-1.95,2.54-2.93S150.08,35,151,34s1.87-1.91,2.82-2.87,2-1.82,3-2.73c2-1.89,4.06-3.57,6.11-5.28s4.14-3.23,6.14-4.79,4-2.92,6-4.16l2.81-1.86c.94-.57,1.84-1.13,2.69-1.65,1.73-1.07,3.35-1.95,4.79-2.77s2.7-1.48,3.75-2C191.23,4.83,192.46,4.3,192.46,4.3Z"/>
				<path class="cls-10" d="M217.73,3.54s-4.26,2-10.28,5.62a150.37,150.37,0,0,0-20.89,15.16c-1.75,1.55-3.47,3.14-5.09,4.75-.83.81-1.64,1.62-2.42,2.45s-1.53,1.64-2.24,2.47-1.43,1.64-2.11,2.46-1.31,1.63-1.91,2.43-1.19,1.58-1.72,2.35-1.08,1.51-1.53,2.28c-1,1.45-1.77,2.83-2.48,4.08s-1.21,2.35-1.68,3.26c-.85,1.86-1.31,2.92-1.31,2.92l0,0a.59.59,0,0,1-1.07-.48h0s.52-1.09,1.39-3c.51-.9,1.07-2,1.79-3.3s1.56-2.65,2.56-4.09c.46-.75,1-1.5,1.59-2.28s1.13-1.56,1.79-2.35,1.27-1.63,2-2.42,1.41-1.66,2.16-2.46,1.52-1.63,2.32-2.44,1.6-1.63,2.45-2.44c1.66-1.61,3.42-3.17,5.21-4.72A149.64,149.64,0,0,1,207.35,9C213.45,5.45,217.73,3.54,217.73,3.54Z"/>
				<path class="cls-4" d="M135,28.77S116.43,43.52,110.57,62.7c3-5,16-28.07,37.95-42.67C146.35,20.89,135.76,28.2,135,28.77Z"/>
				<path class="cls-10" d="M141.77,24.33s-3,2.5-7.22,6.62c-1,1-2.18,2.16-3.3,3.39s-2.38,2.53-3.59,3.92-2.43,2.83-3.67,4.28-2.38,3.08-3.59,4.61-2.3,3.18-3.35,4.78-2.1,3.19-3,4.79c-.42.79-.87,1.59-1.31,2.35s-.86,1.53-1.19,2.29c-.7,1.54-1.44,2.92-2,4.29s-1,2.61-1.42,3.71-.63,2.12-.89,2.93c-.46,1.64-.71,2.57-.71,2.57l0,.05a.57.57,0,1,1-1.1-.3h0s.29-.95.78-2.62c.27-.79.5-1.85,1-3s.95-2.38,1.51-3.73,1.36-2.8,2.08-4.3c.36-.78.8-1.54,1.25-2.3s.89-1.55,1.37-2.36c.92-1.58,2.06-3.14,3.08-4.76s2.3-3.18,3.48-4.75,2.43-3.08,3.68-4.55,2.49-2.92,3.76-4.26,2.46-2.65,3.66-3.83,2.34-2.3,3.39-3.34C138.69,26.78,141.77,24.33,141.77,24.33Z"/>
				<path class="cls-8" d="M415.86,151.24c-5.48,3,18.13,29.19,66,52.84.05-.75.1-1.52.13-2.29-12.29-7.49-49.07-30.57-49.35-39.16-.27-8.14,24.69-3.18,38.67.21-.36-.74-.72-1.46-1.09-2.17C456.16,157.19,420.56,148.67,415.86,151.24Z"/>
				<path class="cls-4" d="M432.59,162.63c.29,8.59,37.07,31.67,49.35,39.16.4-12.42-4.53-26.62-10.69-39C457.28,159.45,432.31,154.49,432.59,162.63Z"/>
				<path class="cls-4" d="M433.1,140.48c-3.89,4.24,14.06,10.27,32.26,11.65a119.73,119.73,0,0,0-11.07-15.73l1.91-1.52C448.67,135.57,436.12,137.19,433.1,140.48Z"/>
				<path class="cls-8" d="M409.39,131.85c4.38-1.95,27.93,2.58,51.81-1.64,1.43-1.46,2.7-2.93,3.89-4.41-17.23,2.06-41.62,4.33-40.39-3.63,4.55-13.68,40.74-29,54.58-34.48.16-1.07.28-2,.41-2.6-.53,0-1.1,0-1.63.07C465.27,89.74,427.79,105,409.39,131.85Z"/>
				<path class="cls-3" d="M415.86,151.24c4.7-2.58,40.31,5.94,54.3,9.43-1-1.87-2-3.68-3-5.44-24.32-4-58.17-7.33-55.55-13.34,6.49-7.22,38.26-9.24,47.52-9.68.72-.68,1.4-1.34,2-2-23.88,4.22-47.43-.3-51.81,1.64,18.4-26.87,55.88-42.12,68.67-46.7-52.42,2.45-76.65,45.24-76.65,45.24s-1.16,1.08.21,4.59c11.75,57.78,75.94,76.48,80,70.91.08-.61.13-1.22.19-1.82C434,180.44,410.37,154.23,415.86,151.24Z"/>
				<path class="cls-8" d="M411.65,141.89c-2.62,6,31.23,9.29,55.55,13.34-.62-1.08-1.22-2.09-1.83-3.1-18.2-1.38-36.15-7.41-32.26-11.65,3-3.29,15.56-4.91,23.09-5.61,1-.88,2-1.76,3-2.66C449.91,132.65,418.14,134.67,411.65,141.89Z"/>
				<path class="cls-4" d="M424.7,122.17c-1.23,8,23.16,5.68,40.39,3.63,11.77-14.78,13.26-30.86,14.19-38.11C465.45,93.15,429.25,108.5,424.7,122.17Z"/>
				<path class="cls-11" d="M34,171c4.6,5.68,12.13,3,17.06-4,4.51-6.44,8.8-15.29,8.8-23.29,0-6.72-3.48-11.9-9.38-10.54s-11.94,6.79-15.8,13.48C30.1,154.57,28.59,164.27,34,171Z"/>
				<path class="cls-12" d="M34,171c4.6,5.68,12.13,3,17.06-4,4.51-6.44,8.8-15.29,8.8-23.29,0-6.72-3.48-11.9-9.38-10.54s-11.94,6.79-15.8,13.48C30.1,154.57,28.59,164.27,34,171Zm1.57-25.35A23.17,23.17,0,0,1,46,135.77c3.42-1.67,6.27-1.58,8.69,1.22,1.46,1.7,2.64,3.19,2.56,6-.13,5.37-2.89,11.8-5.57,16.42s-5.32,8.39-9.43,9.13-6.85-3.15-8.26-7.64C32.34,155.78,32.79,151,35.61,145.63Z"/>
				<g class="cls-13">
					<path class="cls-14" d="M38.28,157.19c-3.85,6.53-8,8.9-9.23,5.33s.86-11.78,4.69-18.29,8-8.92,9.22-5.35S42.11,150.66,38.28,157.19Z"/>
					<path class="cls-15" d="M38,156.45c-3.41,5.77-7.07,7.9-8.15,4.73S30.58,150.73,34,145s7.06-7.89,8.15-4.71S41.41,150.66,38,156.45Z"/>
					<path d="M37.21,154.15c-2,3.47-4.23,4.74-4.89,2.84s.43-6.27,2.47-9.73,4.25-4.74,4.91-2.84S39.27,150.69,37.21,154.15Z"/>
					<g class="cls-16">
						<path class="cls-17" d="M31.57,161.83c.52-.06,1.36-.64,1.81-2,.28-.93.17-1.27-.07-1.43-.57.14-1.31.25-1.52-.53-.28-1-.59-2.8.5-6,.86-2.08,1.26-2.94.66-2.83s-1.79,3-2.25,4.58a12.37,12.37,0,0,0-.41,6.84c.25.7.6,1.3,1.12,1.35Z"/>
					</g>
					<path class="cls-11" d="M42.95,142.43c.42-4.45-1.49-2.72-2.9.4s-2.22,8.06-1.1,9.77S42.34,148.44,42.95,142.43Z"/>
				</g>
				<path class="cls-5" d="M4.9,182.37s17.19,12.6,27.51-4.56S68.19,73.29,152.08,57.55,287.5,73,337.33,101.36c51,27.76,62.7,29.48,69,32.05s5.14,6.58-24.05,4-73,4-111.67,46.38-62.12,64.41-145.42,55.25C64.75,229.9,15.51,221.59.9,192.68-1.67,183.54,1.76,180.66,4.9,182.37Z"/>
				<path class="cls-18" d="M106.05,153.4c-2.14-9.61-8.78-19.05-17.87-23.83s-18.31-.88-22.66,6.65c-5.22,9-3.83,21.31-.4,31C68.88,177.78,79.8,185,91.28,181.14,104.85,176.64,108.61,164.9,106.05,153.4Z"/>
				<path class="cls-18" d="M103.1,154.15c-1.94-8.62-7.9-17.06-16.07-21.33s-16.45-.82-20.37,5.92c-4.68,8-3.43,19-.34,27.69,3.38,9.44,13.2,15.85,23.51,12.44C102,174.88,105.39,164.39,103.1,154.15Z"/>
				<path class="cls-11" d="M98.61,155.12c-1.56-7.87-6.55-15.56-13.47-19.39s-13.94-.57-17.32,5.63c-4,7.4-3.09,17.46-.51,25.38,2.78,8.62,11.07,14.4,19.85,11.18C97.51,174.13,100.48,164.48,98.61,155.12Z"/>
				<path class="cls-14" d="M90,154.24c0,8.08-5.24,14.63-11.74,14.63s-11.72-6.55-11.72-14.63,5.25-14.64,11.72-14.64S90,146.16,90,154.24Z"/>
				<path class="cls-19" d="M88.7,154.24c0,7.14-4.67,13-10.41,13s-10.38-5.81-10.38-13,4.63-13,10.38-13S88.7,147.08,88.7,154.24Z"/>
				<path d="M84.55,154.24c0,4.3-2.8,7.78-6.25,7.78s-6.22-3.48-6.22-7.78,2.79-7.77,6.22-7.77S84.55,149.95,84.55,154.24Z"/>
				<g class="cls-16">
					<path class="cls-20" d="M82.36,165.23c1-.73,1.91-2.07,1.2-3.29a1.24,1.24,0,0,0-1.73-.59c-.92.83-2.22,1.83-3.54,1.77a6.47,6.47,0,0,1-5.84-3.43c-.71-2.09-.89-3-1.91-2.19s0,3.75.84,5.09a8.46,8.46,0,0,0,7,3.68,6.74,6.74,0,0,0,3.64-.84A1.89,1.89,0,0,0,82.36,165.23Z"/>
				</g>
				<path class="cls-11" d="M82.29,141.28c-4.22-2.65-6,.67-5.14,4s4.87,6.62,9,5.93S88,144.81,82.29,141.28Z"/>
				<path class="cls-21" d="M6.91,189.54a5.25,5.25,0,0,0-1.23.05,2.54,2.54,0,0,0-1.36.53A1.62,1.62,0,0,0,4.15,192,7.32,7.32,0,0,0,5.49,194a14.44,14.44,0,0,0,2.26,1.87,48.9,48.9,0,0,0,6.09,3.58,80,80,0,0,0,16.6,6.08,89,89,0,0,0,9.79,1.85,94.15,94.15,0,0,0,10.26.77,88.93,88.93,0,0,0,10.26-.42,84.46,84.46,0,0,0,9.83-1.44l4.65-1.07,4.35-1.22,4.07-1.37c1.31-.46,2.57-1,3.77-1.42s2.34-1,3.43-1.45,2.1-.89,3-1.37c1.87-.95,3.52-1.72,4.83-2.45,2.61-1.46,4.13-2.29,4.13-2.29l1.13,2s-1.54.83-4.26,2.25c-1.34.73-3,1.47-5,2.38-1,.47-2,.88-3.11,1.34s-2.27,1-3.52,1.38-2.51.94-3.84,1.39l-4.2,1.27-4.46,1.18-4.73,1a97.48,97.48,0,0,1-10,1.26,94.19,94.19,0,0,1-10.39.21,102.11,102.11,0,0,1-10.37-1,93,93,0,0,1-9.82-2.08,81.44,81.44,0,0,1-16.58-6.46,44.31,44.31,0,0,1-6.06-3.73,14.11,14.11,0,0,1-2.26-1.94A7.64,7.64,0,0,1,4.06,192a1.67,1.67,0,0,1,.24-1.92,2.24,2.24,0,0,1,1.36-.52A4.58,4.58,0,0,1,6.91,189.54Z"/>
				<path class="cls-21" d="M98,185.81s.11.37.35,1a18.41,18.41,0,0,0,1,2.36c.23.49.57.93.87,1.43.15.24.36.46.53.71a9,9,0,0,0,.6.69c.23.21.43.43.66.63s.51.38.75.58a4,4,0,0,0,.82.5,7,7,0,0,0,.85.46l.92.34.46.17.48.1a11.44,11.44,0,0,0,1.9.37c.65,0,1.27.2,1.87.16s1.17,0,1.71,0a12.49,12.49,0,0,0,1.49,0c.45,0,.82,0,1.16,0,.64,0,1,0,1,0l-.92.41c-.31.13-.67.29-1.11.46a6.84,6.84,0,0,1-1.46.48c-.56.12-1.17.25-1.81.37a12.67,12.67,0,0,1-2.07.13,11.8,11.8,0,0,1-2.28-.22,9.47,9.47,0,0,1-2.29-.7,7.25,7.25,0,0,1-1.07-.59,4.53,4.53,0,0,1-1-.68c-.3-.28-.6-.54-.89-.79s-.49-.61-.72-.89a4.59,4.59,0,0,1-.62-.94c-.15-.32-.34-.61-.48-.94a10.32,10.32,0,0,1-.59-1.8,8.47,8.47,0,0,1-.24-1.54c0-.48,0-.88,0-1.21A5.7,5.7,0,0,1,98,185.81Z"/>
				<path class="cls-22" d="M114,175.8c1.71,0,8.6-5.74,15.46,1.12S126,189,116.86,186.67,109.42,175.8,114,175.8Z"/>
				<g class="cls-23">
					<path class="cls-5" d="M314.61,134.75c-65.66,5-112.61,30.92-151.94,53.07s-62.22,13.36-53.44,11.45,26.35-10.3,9.16-6.11c-17.56,5.73-18.69-11.84-20.24-10.31s-3,6.12,0,10.69-10.68,11.84-48.49,14.12C9.22,207.67,2.24,190.43,1,183c-1.15,1.55-1.53,4.66-.13,9.67,14.6,28.91,63.85,37.22,124.28,46.38,83.31,9.17,106.79-12.89,145.42-55.25s82.46-49,111.67-46.38c23.54,2.07,28.84-.14,26.71-2.43C393.93,136.14,362,131.17,314.61,134.75Z"/>
				</g>
				<path class="cls-24" d="M6.91,194.69s41.61,29.4,94.28,1.14c6.12-.77,2.67,8.79-14.88,17.57-17.18,8.58,72.55,22.51,116.06-17.19S321.1,132.09,372.24,137c-35.48,1.93-73.65,10.33-106.48,52.32-29.42,32.07-58.05,62.25-146.6,48.88C69.14,228.66,18.36,221.8,5,199.27.81,188.57,4.22,192,6.91,194.69Z"/>
				<path class="cls-4" d="M288.37,61.27s-3.75,2.86-3.46,5.73,8-2.29,8-2.29Z"/>
				<path class="cls-4" d="M296.09,68.42s-2.58,4.58.86,5.16a11.41,11.41,0,0,0,6.3-.85S295.52,66.42,296.09,68.42Z"/>
				<path class="cls-4" d="M309.55,78.16s-3.71.85,2,6.58,61.28,34.94,71.3,36.07C382.28,120,322.44,90.2,309.55,78.16Z"/>
				<path class="cls-24" d="M6.36,190.69s10.85,10.85,37.48,13.73c26.93,2.86,45.25-7.44,51.83-10.88,4.88-1.71-16,12.3-38.09,13.46S8.06,197.56,6.36,190.69Z"/>
				<path class="cls-8" d="M152.94,180.66s23.47,7.73,26.92,47c7.45,4,45.82-7.45,28.92-46.11-6-6.27-32.36,5.44-53.83-3.14C151.5,178.38,151.78,180.08,152.94,180.66Z"/>
				<path class="cls-10" d="M153,180.61a23.12,23.12,0,0,1,3.21,1.49c.53.29,1,.61,1.52.91s1,.65,1.48,1l1.43,1,1.38,1.14c.94.72,1.74,1.6,2.62,2.42s1.6,1.75,2.42,2.61a33.68,33.68,0,0,1,2.19,2.82c.34.49.71,1,1,1.45l1,1.52a28.19,28.19,0,0,1,1.78,3.1l1.59,3.2c.47,1.1.88,2.21,1.32,3.32l.66,1.67c.2.56.33,1.17.52,1.73l1,3.42c.35,1.14.49,2.34.76,3.5l.72,3.5.89,7.08-.31-.45a9.2,9.2,0,0,0,3.86.69,24.17,24.17,0,0,0,4.13-.42,37.68,37.68,0,0,0,4-1.07,30,30,0,0,0,3.9-1.56,35.47,35.47,0,0,0,3.67-2c.59-.38,1.17-.79,1.74-1.17l1.67-1.3,1.57-1.41,1.44-1.5,1.33-1.61L208.7,214l1-1.82c.33-.63.61-1.27.9-1.92a23.7,23.7,0,0,0,1.35-4,13.62,13.62,0,0,0,.42-2.08,19.15,19.15,0,0,0,.27-2.08c0-.73.13-1.4.11-2.12l0-2.11c0-.71-.1-1.4-.17-2.11l-.11-1.06-.19-1-.39-2.09-.53-2c-.31-1.37-.85-2.68-1.3-4s-1.07-2.59-1.6-3.93l.07.11a5.57,5.57,0,0,0-2.87-1.42,15.49,15.49,0,0,0-3.33-.33,54.83,54.83,0,0,0-6.78.44l-6.79.77c-2.26.27-4.55.47-6.83.62a78.26,78.26,0,0,1-13.74-.15c-1.13-.11-2.27-.28-3.4-.47l-1.68-.32-1.68-.38c-.56-.11-1.12-.29-1.65-.42s-1.11-.31-1.67-.48c-1.09-.32-2.16-.74-3.24-1.14h0a10.23,10.23,0,0,0-1.16.08,3.21,3.21,0,0,0-1.08.35.89.89,0,0,0-.46.92A1.38,1.38,0,0,0,153,180.61Zm-.07.11a1.55,1.55,0,0,1-.77-.9.73.73,0,0,1,.08-.61,1.16,1.16,0,0,1,.41-.43,3.43,3.43,0,0,1,1.14-.39,7.27,7.27,0,0,1,1.19-.1h0c1.08.39,2.13.79,3.24,1.11a31.39,31.39,0,0,0,3.3.82l1.69.34,1.69.23c1.1.14,2.25.28,3.39.34a64,64,0,0,0,6.79.13c2.28-.06,4.55-.19,6.8-.38s4.54-.47,6.82-.68l6.79-.73c1.14-.1,2.3-.17,3.44-.22a30.43,30.43,0,0,1,3.46,0,17.12,17.12,0,0,1,3.46.42,6.43,6.43,0,0,1,3.14,1.69l.05.05v0c.5,1.33,1.06,2.65,1.51,4s.95,2.7,1.25,4.11l.51,2.06.38,2.11.18,1.06.08,1.07c.07.72.16,1.42.21,2.13l0,2.12c0,.73-.1,1.43-.11,2.16a16.21,16.21,0,0,1-.26,2.11,20.06,20.06,0,0,1-.38,2.11,27.68,27.68,0,0,1-1.27,4.11c-.29.64-.56,1.32-.89,1.95l-1,1.91-1.2,1.77-1.34,1.7-1.45,1.6-1.58,1.45L202,222.27c-.59.42-1.15.85-1.76,1.26a41.27,41.27,0,0,1-3.73,2.13,32.92,32.92,0,0,1-4,1.64,31.09,31.09,0,0,1-4.18,1.15,25,25,0,0,1-4.33.48,10.19,10.19,0,0,1-4.44-.78l-.26-.15,0-.34-.89-7-.68-3.43c-.27-1.17-.42-2.32-.77-3.44l-1-3.4c-.15-.57-.29-1.14-.48-1.69l-.59-1.64c-.41-1.11-.83-2.22-1.24-3.31l-1.5-3.18a30.71,30.71,0,0,0-1.67-3.1l-.86-1.55c-.29-.49-.65-1-1-1.45a34.47,34.47,0,0,0-2.05-2.89c-.76-.88-1.44-1.84-2.3-2.67a32.79,32.79,0,0,0-2.5-2.48l-1.33-1.17-1.4-1.08c-.47-.35-1-.66-1.47-1s-1-.65-1.49-.93a22.64,22.64,0,0,0-3.18-1.55Z"/>
				<path class="cls-3" d="M213.63,191.55c-.06-.35-.71-.64-1.75-.94-4.4-1.22-15.79-2.31-19.73-5.1-3.67-2.58,1.8-4.86,8.38-5.92-11,.32-29.62,5.16-45.59-1.22-3.45,0-3.16,1.7-2,2.29,0,0,23.47,7.73,26.92,47a7.32,7.32,0,0,0,2.3.65c-.77-4.54-3.22-17.58-7.17-26.42-3.38-9,7.71,1.46,13.8,25.95.06.32.15.64.23,1,2.59,3.72,3.14.29,3.45-.58a5.08,5.08,0,0,0-.28-1.31c-1.51-5.3-8.69-24.77-13.2-31.05-5-6.92,13.49,4.21,25.85,23.47.36.57.72,1.14,1.09,1.73,2.57,2,1.72-.58,1.13-2.28a5.47,5.47,0,0,0-.62-1.11c-2.58-3.85-12.08-15.49-17.13-21.82-5.71-7.14-4.86-8.29,9.76-4.85,8.06,2.06,11.74,2.54,13.4,2.28C213.78,193,213.76,192.31,213.63,191.55Z"/>
				<path class="cls-10" d="M213.57,191.55c-.1-.3-.51-.45-.84-.58a5.53,5.53,0,0,0-1.06-.34c-.72-.17-1.43-.33-2.15-.48-1.45-.28-2.92-.52-4.37-.78-2.92-.53-5.84-1.07-8.72-1.88-.69-.23-1.42-.45-2.11-.72a10.67,10.67,0,0,1-2-1,5.15,5.15,0,0,1-.89-.71c-.14-.15-.27-.32-.38-.46a3.77,3.77,0,0,1-.23-.59A2.24,2.24,0,0,1,192,182.1a11.37,11.37,0,0,1,2-1.07c.7-.26,1.41-.51,2.13-.72a40.4,40.4,0,0,1,4.36-1l.07.53c-3.84.19-7.63.72-11.46,1.17s-7.64.85-11.49,1c-1,.07-1.94.07-2.92.07s-1.91,0-2.88,0a25.32,25.32,0,0,1-2.89-.15c-1-.05-2-.13-2.9-.26s-1.94-.23-2.88-.45-1.91-.33-2.85-.6-1.88-.48-2.8-.79l-2.74-1,.19,0c-.37,0-.75,0-1.09.08l-.5.12-.22.09a1.41,1.41,0,0,0-.22.1.69.69,0,0,0-.22.22c0,.05,0,.09,0,.12s0,.07,0,.13a1,1,0,0,0,.5.52l-.07,0a23.54,23.54,0,0,1,3.27,1.58c.55.28,1,.62,1.54.94a14.29,14.29,0,0,1,1.48,1l1.44,1.07,1.35,1.2a25.77,25.77,0,0,1,2.56,2.48,27.86,27.86,0,0,1,2.37,2.7c.8.88,1.42,1.92,2.13,2.85.32.51.68,1,1,1.48l.91,1.54c.57,1.07,1.24,2,1.71,3.16l1.51,3.22c.47,1.09.86,2.22,1.27,3.33l.61,1.68a16.65,16.65,0,0,1,.51,1.71l1,3.42c.36,1.13.5,2.33.76,3.47l.69,3.48.89,7.08-.1-.14.54.2a2.52,2.52,0,0,0,.55.21l1.18.24-.21.19c-.45-2.66-1-5.3-1.58-7.94s-1.26-5.24-2-7.84c-.4-1.3-.75-2.6-1.18-3.89s-.85-2.54-1.36-3.8-1-2.44-1.49-3.77a4.43,4.43,0,0,1-.29-2.16.71.71,0,0,1,.57-.57,1.28,1.28,0,0,1,.66.16,4.92,4.92,0,0,1,.87.65,21.42,21.42,0,0,1,2.6,3.2c.74,1.12,1.45,2.29,2.1,3.48a71.83,71.83,0,0,1,3.52,7.34,105.29,105.29,0,0,1,5.05,15.46l-.07-.16a5.87,5.87,0,0,0,.75.94,1.82,1.82,0,0,0,.8.55c.14,0,.31-.11.48-.44a3.6,3.6,0,0,0,.4-1.09l.09-.33,0,0h0s0-.14,0,.08v-.08a.16.16,0,0,0,0-.1,4.22,4.22,0,0,1-.12-.51c-.1-.4-.25-.79-.38-1.21-.27-.82-.48-1.66-.81-2.46-1.1-3.22-2.26-6.44-3.54-9.61-.63-1.6-1.28-3.19-1.94-4.76s-1.34-3.16-2.07-4.7-1.47-3.08-2.25-4.59l-.58-1.13-.66-1.09c-.47-.7-.85-1.41-1.37-2.13a4.28,4.28,0,0,1-.64-1.42,1.11,1.11,0,0,1,.12-.7,1,1,0,0,1,.67-.48,1.9,1.9,0,0,1,.91.09,11.76,11.76,0,0,1,2.47,1.18,42.87,42.87,0,0,1,4.26,3,85.11,85.11,0,0,1,7.7,7,97.93,97.93,0,0,1,6.81,7.81c1.06,1.36,2.08,2.74,3.07,4.17s1.91,2.87,2.82,4.34l-.15-.15a3.93,3.93,0,0,0,.82.54c.1.07.27.09.19.09s-.14.07-.14.09v0a2.52,2.52,0,0,0-.11-.88,9.4,9.4,0,0,0-.29-1l-.09-.28,0-.13v0c0-.06,0,.08,0,0h0l0,0-.25-.47L206,218l0-.07h0v0c.08.13,0,0,0,0l-.06-.11-.19-.22-1.27-1.77c-.87-1.19-1.72-2.36-2.64-3.53l-2.68-3.45L188.32,195a16.66,16.66,0,0,1-2.36-3.78,2.11,2.11,0,0,1-.13-1.22,1.2,1.2,0,0,1,.86-.89,5.76,5.76,0,0,1,2.25-.21,37,37,0,0,1,4.38.64c1.43.31,2.86.63,4.28.95s2.87.69,4.27,1,2.85.68,4.29,1a41.57,41.57,0,0,0,4.33.64,6.84,6.84,0,0,0,2.16-.07,1.15,1.15,0,0,0,.86-.52,1.58,1.58,0,0,0,.06-1Zm.11,0a1.88,1.88,0,0,1,0,1.13,1.47,1.47,0,0,1-.94.59,8,8,0,0,1-2.22.09,38.79,38.79,0,0,1-4.34-.64c-1.44-.27-2.89-.6-4.31-.91s-2.84-.71-4.27-1-2.84-.64-4.3-.89a31.89,31.89,0,0,0-4.33-.56,6,6,0,0,0-2.08.2.92.92,0,0,0-.59.61,1.67,1.67,0,0,0,.14.95,15.9,15.9,0,0,0,2.35,3.59l11.1,13.62,2.74,3.44c.93,1.15,1.82,2.32,2.68,3.51l1.31,1.75.17.22.07.12.13.2.28.47.28.48h0l0,.1,0,.06.06.12.08.27c.11.36.22.73.33,1.09a4.56,4.56,0,0,1,.16,1.27l-.05.22a1.21,1.21,0,0,1-.1.28.91.91,0,0,1-.58.38,1.52,1.52,0,0,1-.87-.16,6.33,6.33,0,0,1-1-.65c-.05,0-.09-.08-.1-.12l0,0c-.89-1.46-1.82-2.87-2.79-4.29s-2-2.75-3-4.11a91.65,91.65,0,0,0-6.76-7.7,87.06,87.06,0,0,0-7.57-6.86,41.92,41.92,0,0,0-4.15-2.9,10.53,10.53,0,0,0-2.16-1,1.12,1.12,0,0,0-.36-.07s.09,0,.16-.14,0-.11,0,0a5.86,5.86,0,0,0,.44.9c.47.66.94,1.45,1.39,2.19l.69,1.13.59,1.14c.79,1.55,1.58,3.08,2.26,4.67s1.42,3.14,2.05,4.75,1.31,3.18,1.93,4.79c1.25,3.21,2.42,6.42,3.54,9.71.28.82.51,1.64.78,2.48a11.57,11.57,0,0,1,.35,1.22,5.14,5.14,0,0,1,.17.77,1.65,1.65,0,0,1,0,.22v.2h0l0,0-.09.29a5.81,5.81,0,0,1-.48,1.31,2.94,2.94,0,0,1-.53.66,1.41,1.41,0,0,1-1,.26,2.58,2.58,0,0,1-1.33-.85,8.77,8.77,0,0,1-.86-1.07.83.83,0,0,1-.06-.14v0a108.74,108.74,0,0,0-4.82-15.38,74.47,74.47,0,0,0-3.4-7.32c-.65-1.15-1.32-2.34-2.05-3.45a19.53,19.53,0,0,0-2.47-3.1,3.32,3.32,0,0,0-.75-.57.84.84,0,0,0-.29-.12s-.07,0-.09.14a4.46,4.46,0,0,0,.27,1.82c.39,1.22,1,2.51,1.44,3.77s.88,2.56,1.33,3.83.77,2.61,1.15,3.92c.72,2.58,1.35,5.23,1.92,7.87s1.08,5.3,1.53,8h0c0,.09,0,.19-.13.19h-.07l-1.2-.24a3.64,3.64,0,0,1-.59-.21l-.57-.22a.14.14,0,0,1-.09-.12v0l-.9-7-.72-3.46c-.26-1.14-.42-2.33-.78-3.45l-1-3.4c-.17-.57-.3-1.12-.53-1.69l-.62-1.64c-.46-1.11-.86-2.21-1.31-3.29l-1.57-3.18a30.62,30.62,0,0,0-1.72-3.08l-.93-1.5c-.29-.5-.66-1-1-1.44-.72-.93-1.34-1.94-2.15-2.8s-1.47-1.82-2.33-2.62-1.66-1.68-2.56-2.39l-1.33-1.13-1.45-1a13.76,13.76,0,0,0-1.43-1,14.2,14.2,0,0,0-1.51-.91,20.69,20.69,0,0,0-3.11-1.5h-.07a1.93,1.93,0,0,1-1-1.19,1.15,1.15,0,0,1,.12-.89,1.65,1.65,0,0,1,.56-.62,1.4,1.4,0,0,1,.33-.14,1.86,1.86,0,0,1,.32-.14,4.13,4.13,0,0,1,.65-.15,9.41,9.41,0,0,1,1.24-.09.3.3,0,0,1,.16,0h0l2.67.95c.9.28,1.84.5,2.75.76s1.85.38,2.78.58,1.88.3,2.82.45,1.9.22,2.85.29,1.88.16,2.83.17,1.92.09,2.87.07,1.92,0,2.89-.07c1.89-.05,3.81-.17,5.72-.32s3.81-.32,5.72-.52c3.81-.37,7.64-.84,11.5-.95a.26.26,0,0,1,.28.25.31.31,0,0,1-.22.28,36.56,36.56,0,0,0-4.33.89c-.71.19-1.41.44-2.1.67a9.37,9.37,0,0,0-1.94,1c-.58.4-1.13.95-1.07,1.62s.75,1.13,1.31,1.54a11.55,11.55,0,0,0,2,1,21.71,21.71,0,0,0,2.08.71,80.86,80.86,0,0,0,8.67,1.93c1.46.27,2.91.53,4.37.84.72.13,1.46.31,2.17.49l1.06.32c.32.17.76.27.9.67Z"/>
				<path class="cls-4" d="M208.57,212.93s-6.68-11.27-13.92-17.39,13.8-2.91,17.16.2C214.11,197.85,211.62,210.24,208.57,212.93Z"/>
				<path class="cls-4" d="M193.42,225.81s-4.59-17.17-7.26-21.75,13.74,9.54,16.89,14.4C204.06,220,196.82,225,193.42,225.81Z"/>
				<path class="cls-4" d="M183.09,226.74s-2.49-13.72-4.21-17.93,5.54,8.79,8,17.93C186.72,227.51,184,227.9,183.09,226.74Z"/>
				<path class="cls-4" d="M211.06,189s-9.73-3.82-13.92-4.21c-4.2-.57,8.58-4,11.93-2.1C210.1,183.82,211.06,187.44,211.06,189Z"/>
				<path class="cls-10" d="M154.37,180.94a6.14,6.14,0,0,1,.7.09,14.65,14.65,0,0,1,2,.45,9.34,9.34,0,0,1,1.4.45c.49.19,1,.37,1.58.62a25.35,25.35,0,0,1,3.65,1.92,41.48,41.48,0,0,1,4,2.8c.66.54,1.33,1.17,2,1.76l1,.93c.34.33.64.68,1,1,.64.71,1.28,1.42,2,2.11s1.19,1.55,1.81,2.32,1.26,1.54,1.81,2.37,1.1,1.69,1.67,2.53c1.14,1.64,2,3.46,3,5.18.44.88,1,1.71,1.35,2.6s.79,1.75,1.2,2.61c.77,1.72,1.55,3.35,2.11,5s1.15,3.15,1.67,4.56.87,2.74,1.23,3.9.64,2.19.88,3c.46,1.67.75,2.65.75,2.65s-.32-1-.9-2.6c-.28-.84-.63-1.83-1-3s-.79-2.46-1.38-3.84-1.15-2.89-1.81-4.48-1.43-3.21-2.22-4.92c-.37-.83-.78-1.71-1.19-2.56s-.91-1.72-1.39-2.58a58.28,58.28,0,0,0-3-5.09c-.55-.85-1.07-1.7-1.61-2.53s-1.18-1.59-1.75-2.37-1.16-1.56-1.8-2.3-1.27-1.39-1.89-2.1l-.95-1c-.34-.32-.65-.63-1-.95-.65-.6-1.29-1.23-1.93-1.8a36.58,36.58,0,0,0-3.84-2.84,37.09,37.09,0,0,0-3.51-2.07l-1.57-.68c-.48-.22-.93-.35-1.35-.51-.82-.27-1.48-.43-1.95-.57Z"/>
				<path class="cls-10" d="M152.94,180a20.78,20.78,0,0,1,2.6.45c.82.17,1.8.4,3,.7s2.38.63,3.74,1.11,2.84,1,4.39,1.59,3.12,1.31,4.73,2.08,3.3,1.63,4.91,2.63c.81.48,1.63,1,2.47,1.47l2.37,1.61c1.62,1,3.09,2.29,4.56,3.45l1.12.89c.35.31.69.64,1,.95.67.63,1.37,1.24,2,1.87a24.51,24.51,0,0,1,1.88,1.87c.57.65,1.13,1.28,1.69,1.89s1.09,1.18,1.56,1.8.93,1.22,1.37,1.8c.86,1.15,1.72,2.18,2.33,3.18s1.14,1.85,1.6,2.56c.87,1.44,1.34,2.27,1.34,2.27s-.54-.79-1.51-2.17c-.46-.7-1-1.51-1.71-2.47s-1.56-1.94-2.43-3.06c-.44-.57-.91-1.12-1.4-1.73s-1.08-1.15-1.61-1.73l-1.75-1.84c-.31-.29-.59-.63-.89-.94l-1-.88c-.66-.61-1.33-1.21-2-1.84-.35-.3-.67-.63-1-.93l-1.11-.87c-1.48-1.14-2.94-2.34-4.56-3.37-.78-.53-1.56-1.09-2.32-1.63s-1.63-1-2.43-1.44c-1.6-1-3.24-1.82-4.82-2.67s-3.17-1.52-4.67-2.18-2.93-1.25-4.29-1.71a68.87,68.87,0,0,0-6.57-2.1C153.89,180.17,152.94,180,152.94,180Z"/>
				<path class="cls-10" d="M161,180.94s.77.12,2.1.36,3.29.52,5.59,1,5,.9,7.87,1.49,5.92,1.24,9,1.9,6.07,1.41,8.93,2.07,5.48,1.46,7.75,2.06,4.12,1.25,5.4,1.67l2.06.67-2.09-.53c-1.33-.32-3.2-.85-5.49-1.35s-4.94-1.14-7.8-1.77-5.9-1.33-9-2c-6.09-1.36-12.18-2.74-16.75-3.76S161,180.94,161,180.94Z"/>
				<path class="cls-22" d="M112.66,167.2s2.3-3.82,6.09-3.82S112.66,172.93,112.66,167.2Z"/>
				<path class="cls-8" d="M263,134c3.65-1.91,9.79-22.85,3.38-42.12-4.34-13-6.27-21.75-8.39-27.91a207.66,207.66,0,0,0-31.46-7.76C238.87,67.84,261.45,94.3,263,134Z"/>
				<path class="cls-8" d="M304.16,122.78c2.35-1.4,7.84-20.25,6-36.2-6.66-3.61-13.46-7.15-20.43-10.48a180.76,180.76,0,0,0,6.68,20.11C300.92,107.33,303.67,114.15,304.16,122.78Z"/>
				<path class="cls-8" d="M332.66,118.93a.45.45,0,0,0,.1.17c.5.78,7-5.64,9.68-14.64-2.22-1.18-4.46-2.38-6.83-3.68-.72-.4-1.43-.83-2.17-1.23C333.83,105.38,333.92,112.8,332.66,118.93Z"/>
				<path class="cls-3" d="M332.66,118.93c1.27-6.13,1.18-13.55.79-19.38l-5.07-2.89c.79,3.52,1.85,8.31,2.65,12.13C332.37,115.24,332.2,117.92,332.66,118.93Z"/>
				<path class="cls-3" d="M304.16,122.78c-.49-8.63-3.24-15.45-7.77-26.58a180.76,180.76,0,0,1-6.68-20.11c-4.87-2.31-9.8-4.52-14.86-6.61,7.83,10.77,27.86,39.42,29.26,53.34C304.14,122.83,304.16,122.8,304.16,122.78Z"/>
				<path class="cls-8" d="M135.76,91.33c16.77,13.22,49.7,45.5,55.78,72.91,2.63-3.54,3.94-32.71-39.58-73-16.87-14.67-26.71-18.53-32.72-21.8A128.68,128.68,0,0,0,97.55,82.78C107.3,81.91,124,82.11,135.76,91.33Z"/>
				<path class="cls-3" d="M132,99.34c33.21,23.21,54.11,50.12,59,65.3a1.05,1.05,0,0,0,.53-.4c-6.08-27.41-39-59.69-55.78-72.91C124,82.11,107.3,81.91,97.55,82.78c-2.11,1.6-4.14,3.22-6.1,4.9C99.59,85.66,113.11,86.14,132,99.34Z"/>
				<path class="cls-3" d="M261.45,133.41c.39.75.92.93,1.5.61-1.5-39.72-24.08-66.18-36.47-77.78a202.62,202.62,0,0,0-27.18-2.57c4.69,3.27,11,7.44,17.48,11C229.67,71.87,255.73,102.22,261.45,133.41Z"/>
				<path class="cls-8" d="M235.08,156.24c1.09,3.75,1.75,6.09,1.75,6.09s6.29-26.61-10.31-56.4c-13.7-24.54-34.43-43.79-48.39-51-8.87.64-17.24,2.19-26.92,4-4.24.79-8.31,1.79-12.25,2.93,8.6,1.34,22.41,5.28,38.3,16.55C201.59,95.69,226.38,116.56,235.08,156.24Z"/>
				<path class="cls-3" d="M197.32,101.06c7.72,6.3,30.06,29.78,33.5,40.94,1.69,5.53,3.19,10.55,4.27,14.24-8.71-39.69-33.49-60.55-57.81-77.8C161.38,67.18,147.57,63.24,139,61.9a122.5,122.5,0,0,0-14.67,5.25c7.22.07,19.91,1.09,27.19,7C162.11,82.75,189.58,94.76,197.32,101.06Z"/>
				<path class="cls-25" d="M19.52,188.68S39,189.23,49.29,162C73.3,98.7,107.71,75.58,161,57.27c0,0-73.16,10.94-103.08,72.14C32.09,182.1,38.42,181.8,19.52,188.68Z"/>
				<path class="cls-4" d="M182.81,59.39s6.41,2.49,9.34,6.78a59.88,59.88,0,0,0,12.21,12.24c3.36,2.41,8.13,8.66,9.21,10.61s3,.84,8,11.32-4.81-4.74-8.51-8.28-9.62-9.46-12.6-12.24-4.05-4.73-8.18-7.13-1-4.63-8.88-8.7S171.11,55.21,182.81,59.39Z"/>
				<path class="cls-4" d="M254.3,66.81s3.05,9.92,5,13.36,2.66,6.1,3,11.06,3.06,7.63,3.82,10.69.76,10.32.76,12.6,1.9,2.3,0,9.16,4.2-8.4,1.52-21.37-6.87-22.14-8-26.72a53.66,53.66,0,0,0-3.82-10.31C255.81,63.76,253.53,63,254.3,66.81Z"/>
				<path class="cls-4" d="M305.46,87.79s-.77,6.12.38,9.18.39,5.73,0,8.78-.38,2.28-.38,8-.77,7.63-.77,7.63,2.29-9.54,3.06-16,1.13-6.5,1.13-10.69a39.39,39.39,0,0,0-.76-7.64S305.46,84,305.46,87.79Z"/>
				<path class="cls-4" d="M135.58,82.45s6.85,5,10.69,7.63,8,9.54,9.54,11.44,6.86,7.67,9.91,9.56,11.1,10.3,12.61,14.89,6.48,9.92,8.4,13.35a41.2,41.2,0,0,1,3.44,9.17c.38,1.51-6.12-20.25-16-32.85S148.56,85.13,135.58,82.45Z"/>
				<path class="cls-11" d="M416.91,114.52s13-12.6,20.24-16,11.46-5.35,14.52-5.35-12.6,5-19.48,10.68S415.77,116.82,416.91,114.52Z"/>
				<path class="cls-11" d="M413.1,156.91s10.22,17.9,25.33,28.68l1,.71C455.09,195.47,422.27,180.58,413.1,156.91Z"/>
				<path class="cls-26" d="M116.1,94.67s24.8,14.52,35.49,28.62,3.45,14.51-11.06,14.14-27.48-3.07-31.3-6.88-8.39-14.5-15.63-21.36S98.93,87,116.1,94.67Z"/>
				<path class="cls-26" d="M166.12,89.31s13,6.12,21.75,9.18,19.84,17.16,23.27,23.28,3.06,11.08-11.06,6.11-20.61-7.25-22.15-11.45-5-11.06-16-22.52S161.14,86.66,166.12,89.31Z"/>
				<path class="cls-26" d="M215,70.25s9.53,2.66,21.37,20.22,14.88,21.78,8.76,22.15-16-8.4-16.41-12.23,0-4.18-9.52-14.88S202.76,64.51,215,70.25Z"/>
				<path class="cls-26" d="M275.67,76.73s9.54,13.74,14.51,21.77,6.86,8,5.34,12.19-4.19-1.12-12.23,3.83-8.39-4.2-8.39-9.16-2.29-8-5.35-17.94S266.89,64.13,275.67,76.73Z"/>
				<path class="cls-26" d="M313.46,96.21s2.3,5.32-.37,14.11-2.3,10.7,3.43,7.65,6.89-1.55,9.55-6.88,6.09-6.87.76-11.47S313.1,88.94,313.46,96.21Z"/>
				<path class="cls-11" d="M135.19,35.14a16.84,16.84,0,0,1,6.5-5.38C145.5,28.24,132.91,41.22,135.19,35.14Z"/>
				<path class="cls-11" d="M147,25.95s2.28-4.57,4.2-3.44S146.26,27.47,147,25.95Z"/>
				<path class="cls-11" d="M167.25,27.1s5-5.34,7.25-5.73S165.71,29.39,167.25,27.1Z"/>
				<path class="cls-11" d="M158.08,35.14s4.21-4.61,5-3.06-2.66,3.8-5.35,5.72S156.93,35.88,158.08,35.14Z"/>
				<path class="cls-11" d="M166.5,31.68s.75-2.3,2.29-2.3S165.71,32.45,166.5,31.68Z"/>
				<path class="cls-11" d="M186.72,32.45s5.73-5.73,8-6.1-6.11,7.23-7.62,8.38S185.19,34,186.72,32.45Z"/>
				<path class="cls-11" d="M198.16,21.37s2.31-2.68,3.44-2.29S197.41,22.9,198.16,21.37Z"/>
				<path class="cls-11" d="M207.71,36.25s5.74-5.72,8.41-6.09S206.95,38.94,207.71,36.25Z"/>
				<path class="cls-11" d="M221.46,28.24s2.3-1.52,3.83-1.14S219.56,28.65,221.46,28.24Z"/>
			</g>
		</g>
	</g>
</svg>