<svg xmlns="http://www.w3.org/2000/svg" 
	xmlns:xlink="http://www.w3.org/1999/xlink" viewBox="0 0 364.55 262.04">
	<defs>
		<style>.cls-1{mask:url(#mask);filter:url(#luminosity-noclip-3);}.cls-16,.cls-2,.cls-21,.cls-24,.cls-37,.cls-4,.cls-42,.cls-44,.cls-8{mix-blend-mode:multiply;}.cls-2{fill:url(#linear-gradient);}.cls-3{mask:url(#mask-2);filter:url(#luminosity-noclip-4);}.cls-4{fill:url(#linear-gradient-2);}.cls-5{fill:none;}.cls-6{isolation:isolate;}.cls-7{fill:url(#linear-gradient-3);}.cls-8{fill:#c5c8c9;opacity:0.8;}.cls-9{clip-path:url(#clip-path);}.cls-10{fill:url(#linear-gradient-4);}.cls-11{mask:url(#mask-3);}.cls-12{fill:url(#linear-gradient-5);}.cls-13,.cls-17,.cls-18,.cls-19,.cls-20,.cls-27,.cls-28,.cls-29,.cls-30,.cls-39,.cls-40{fill:#fff;}.cls-14{fill:url(#linear-gradient-6);}.cls-15{fill:#4d2480;}.cls-16,.cls-23,.cls-24,.cls-33,.cls-34,.cls-35,.cls-36{fill:#71479a;}.cls-16,.cls-20,.cls-21,.cls-27,.cls-36,.cls-44{opacity:0.3;}.cls-17,.cls-18,.cls-19,.cls-20,.cls-26,.cls-30{mix-blend-mode:overlay;}.cls-18,.cls-29,.cls-34{opacity:0.7;}.cls-19,.cls-24,.cls-28,.cls-33,.cls-42{opacity:0.5;}.cls-21{fill:#100020;}.cls-22{fill:url(#linear-gradient-7);}.cls-25{fill:url(#radial-gradient);}.cls-30,.cls-35{opacity:0.4;}.cls-31{fill:url(#linear-gradient-8);}.cls-32{fill:#572e91;}.cls-33,.cls-34,.cls-35,.cls-36{mix-blend-mode:screen;}.cls-37,.cls-42,.cls-44{fill:#f68d1f;}.cls-37{opacity:0.9;}.cls-38{fill:url(#radial-gradient-2);}.cls-39{opacity:0.1;}.cls-40{opacity:0.6;}.cls-41{fill:url(#linear-gradient-9);}.cls-43{fill:#784d18;}.cls-45{fill:#c5d3d6;}.cls-46{fill:url(#linear-gradient-10);}.cls-47{fill:url(#linear-gradient-11);}.cls-48{mask:url(#mask-4);}.cls-49{fill:url(#linear-gradient-12);}.cls-50{filter:url(#luminosity-noclip-2);}.cls-51{filter:url(#luminosity-noclip);}</style>
		<filter id="luminosity-noclip" x="14.2" y="-4866.34" width="4.23" height="32766" filterUnits="userSpaceOnUse" color-interpolation-filters="sRGB">
			<feFlood flood-color="#fff" result="bg"/>
			<feBlend in="SourceGraphic" in2="bg"/>
		</filter>
		<mask id="mask" x="14.2" y="-4866.34" width="4.23" height="32766" maskUnits="userSpaceOnUse">
			<g class="cls-51"/>
		</mask>
		<linearGradient id="linear-gradient" x1="2528.95" y1="856.13" x2="2546.9" y2="856.13" gradientTransform="matrix(0.3, 0.42, -0.56, 0.89, -259.48, -1696.19)" gradientUnits="userSpaceOnUse">
			<stop offset="0"/>
			<stop offset="0.41" stop-color="#fff"/>
			<stop offset="0.47" stop-color="#fafafa"/>
			<stop offset="0.54" stop-color="#ececec"/>
			<stop offset="0.62" stop-color="#d5d5d5"/>
			<stop offset="0.7" stop-color="#b4b4b4"/>
			<stop offset="0.79" stop-color="#8a8a8a"/>
			<stop offset="0.88" stop-color="#565656"/>
			<stop offset="0.96" stop-color="#1b1b1b"/>
			<stop offset="1"/>
		</linearGradient>
		<filter id="luminosity-noclip-2" x="30.29" y="-4866.34" width="13.75" height="32766" filterUnits="userSpaceOnUse" color-interpolation-filters="sRGB">
			<feFlood flood-color="#fff" result="bg"/>
			<feBlend in="SourceGraphic" in2="bg"/>
		</filter>
		<mask id="mask-2" x="30.29" y="-4866.34" width="13.75" height="32766" maskUnits="userSpaceOnUse">
			<g class="cls-50"/>
		</mask>
		<linearGradient id="linear-gradient-2" x1="1913.5" y1="426.84" x2="1928.05" y2="426.84" gradientTransform="matrix(0.99, 0.37, -0.18, 1.09, -1798.73, -1025.95)" xlink:href="#linear-gradient"/>
		<linearGradient id="linear-gradient-3" x1="447.95" y1="547.77" x2="480.04" y2="547.77" gradientTransform="matrix(1, 0.09, -0.09, 1, -384.76, -454.91)" gradientUnits="userSpaceOnUse">
			<stop offset="0.3" stop-color="#fff"/>
			<stop offset="0.92" stop-color="#e2eaec"/>
		</linearGradient>
		<clipPath id="clip-path">
			<path class="cls-5" d="M17.94,153.18c5.95,6.38,14.67,2.56,20-6.12,4.87-8,9.21-18.9,8.61-28.44-.53-8-5.1-13.87-12-11.77s-13.66,9-17.72,17.3C12,134,10.95,145.65,17.94,153.18Z"/>
		</clipPath>
		<linearGradient id="linear-gradient-4" x1="2531.07" y1="833.21" x2="2543.87" y2="866.41" gradientTransform="matrix(0.3, 0.42, -0.56, 0.89, -259.48, -1696.19)" gradientUnits="userSpaceOnUse">
			<stop offset="0" stop-color="#690044"/>
			<stop offset="0.39" stop-color="#ab00bb"/>
			<stop offset="1" stop-color="#4a5993"/>
		</linearGradient>
		<filter id="luminosity-noclip-3" x="14.2" y="127.69" width="4.23" height="15.21" filterUnits="userSpaceOnUse" color-interpolation-filters="sRGB">
			<feFlood flood-color="#fff" result="bg"/>
			<feBlend in="SourceGraphic" in2="bg"/>
		</filter>
		<mask id="mask-3" x="14.2" y="127.69" width="4.23" height="15.21" maskUnits="userSpaceOnUse">
			<g class="cls-1">
				<path class="cls-2" d="M16.52,142.84c.6-.14,1.46-.95,1.8-2.64.25-1.1.07-1.49-.23-1.63-.62.26-1.43.52-1.79-.37-.43-1.09-1-3.17-.12-7.08.72-2.56,1.08-3.64.42-3.41s-1.67,3.8-2,5.71c-.62,3.35-.43,6.44.36,8.1.34.75.79,1.39,1.41,1.37A.41.41,0,0,0,16.52,142.84Z"/>
			</g>
		</mask>
		<linearGradient id="linear-gradient-5" x1="2528.95" y1="856.13" x2="2546.9" y2="856.13" gradientTransform="matrix(0.3, 0.42, -0.56, 0.89, -259.48, -1696.19)" gradientUnits="userSpaceOnUse">
			<stop offset="0" stop-color="#690044"/>
			<stop offset="0.41" stop-color="#6b7fcc"/>
			<stop offset="0.5" stop-color="#6b7ac7"/>
			<stop offset="0.61" stop-color="#6b6db9"/>
			<stop offset="0.72" stop-color="#6a56a2"/>
			<stop offset="0.84" stop-color="#6a3681"/>
			<stop offset="0.96" stop-color="#690d58"/>
			<stop offset="1" stop-color="#69004a"/>
		</linearGradient>
		<linearGradient id="linear-gradient-6" x1="224.08" y1="137.07" x2="364.67" y2="97.16" gradientUnits="userSpaceOnUse">
			<stop offset="0" stop-color="#3c1965"/>
			<stop offset="0.16" stop-color="#552e7e"/>
			<stop offset="0.31" stop-color="#71479a"/>
			<stop offset="0.39" stop-color="#795191"/>
			<stop offset="0.52" stop-color="#8f6b7a"/>
			<stop offset="0.69" stop-color="#b29653"/>
			<stop offset="0.89" stop-color="#e3d01f"/>
			<stop offset="1" stop-color="#fff200"/>
		</linearGradient>
		<linearGradient id="linear-gradient-7" x1="37.09" y1="34.52" x2="217.22" y2="117.65" gradientUnits="userSpaceOnUse">
			<stop offset="0.05" stop-color="#fff200"/>
			<stop offset="0.06" stop-color="#fbed05"/>
			<stop offset="0.16" stop-color="#d6c12c"/>
			<stop offset="0.27" stop-color="#b79b4e"/>
			<stop offset="0.39" stop-color="#9e7d6a"/>
			<stop offset="0.5" stop-color="#8a657f"/>
			<stop offset="0.63" stop-color="#7c548e"/>
			<stop offset="0.76" stop-color="#744a97"/>
			<stop offset="0.93" stop-color="#71479a"/>
		</linearGradient>
		<radialGradient id="radial-gradient" cx="2649.34" cy="-2697.93" r="28.1" gradientTransform="translate(-11525.78 12029.36) scale(4.4 4.4)" gradientUnits="userSpaceOnUse">
			<stop offset="0.69" stop-color="#71479a"/>
			<stop offset="0.72" stop-color="#7a5290"/>
			<stop offset="0.78" stop-color="#926e77"/>
			<stop offset="0.84" stop-color="#b89d4d"/>
			<stop offset="0.92" stop-color="#eddc13"/>
			<stop offset="0.95" stop-color="#fff200"/>
		</radialGradient>
		<linearGradient id="linear-gradient-8" x1="0.16" y1="148.11" x2="252.34" y2="148.11" gradientUnits="userSpaceOnUse">
			<stop offset="0.78" stop-color="#fff02e"/>
			<stop offset="0.83" stop-color="#feec2e"/>
			<stop offset="0.88" stop-color="#fcdf2e"/>
			<stop offset="0.92" stop-color="#f8c92e"/>
			<stop offset="0.97" stop-color="#f2ac2f"/>
			<stop offset="1" stop-color="#ef992f"/>
		</linearGradient>
		<radialGradient id="radial-gradient-2" cx="2636.75" cy="-2700.17" r="8.65" gradientTransform="translate(-11525.78 12029.36) scale(4.4 4.4)" gradientUnits="userSpaceOnUse">
			<stop offset="0.26" stop-color="#300e45"/>
			<stop offset="0.6" stop-color="#5b3283"/>
			<stop offset="0.75" stop-color="#5d3483"/>
			<stop offset="0.8" stop-color="#623b82"/>
			<stop offset="0.85" stop-color="#6d4781"/>
			<stop offset="0.88" stop-color="#7b5880"/>
			<stop offset="0.91" stop-color="#8e6f7e"/>
			<stop offset="0.94" stop-color="#a58b7c"/>
			<stop offset="0.96" stop-color="#c1ac79"/>
			<stop offset="0.98" stop-color="#e0d176"/>
			<stop offset="1" stop-color="#faf074"/>
		</radialGradient>
		<linearGradient id="linear-gradient-9" x1="0.01" y1="160.28" x2="80.21" y2="160.28" gradientUnits="userSpaceOnUse">
			<stop offset="0" stop-color="#ef992f"/>
			<stop offset="0.06" stop-color="#f4b22f"/>
			<stop offset="0.14" stop-color="#fad42e"/>
			<stop offset="0.21" stop-color="#fee92e"/>
			<stop offset="0.26" stop-color="#fff02e"/>
		</linearGradient>
		<linearGradient id="linear-gradient-10" x1="10810.52" y1="-28.58" x2="10855.47" y2="-28.58" gradientTransform="matrix(-0.79, -0.09, -0.1, 0.99, 8636.77, 1122.06)" gradientUnits="userSpaceOnUse">
			<stop offset="0.56" stop-color="#fff"/>
			<stop offset="1" stop-color="#e2eaec"/>
		</linearGradient>
		<linearGradient id="linear-gradient-11" x1="1915.88" y1="401.17" x2="1929.14" y2="435.57" gradientTransform="matrix(0.99, 0.37, -0.18, 1.09, -1798.73, -1025.95)" xlink:href="#linear-gradient-4"/>
		<filter id="luminosity-noclip-4" x="30.29" y="132.18" width="13.75" height="15.35" filterUnits="userSpaceOnUse" color-interpolation-filters="sRGB">
			<feFlood flood-color="#fff" result="bg"/>
			<feBlend in="SourceGraphic" in2="bg"/>
		</filter>
		<mask id="mask-4" x="30.29" y="132.18" width="13.75" height="15.35" maskUnits="userSpaceOnUse">
			<g class="cls-3">
				<path class="cls-4" d="M41.92,147.13a3.54,3.54,0,0,0,2-3.93c-.31-1.26-1-1.5-1.69-1.42-1.18.73-2.79,1.58-4.16,1A8.77,8.77,0,0,1,32.65,136c-.3-3-.3-4.34-1.55-3.62s-.87,4.94-.23,7.05A11.51,11.51,0,0,0,37.5,147a5.93,5.93,0,0,0,4.07.26Z"/>
			</g>
		</mask>
		<linearGradient id="linear-gradient-12" x1="1913.5" y1="426.84" x2="1928.05" y2="426.84" gradientTransform="matrix(0.99, 0.37, -0.18, 1.09, -1798.73, -1025.95)" xlink:href="#linear-gradient-5"/>
	</defs>
	<title>Asset 4</title>
	<g class="cls-6">
		<g id="Layer_2" data-name="Layer 2">
			<g id="Layer_2-2" data-name="Layer 2">
				<path class="cls-7" d="M46.53,118.62a19.84,19.84,0,0,0-.37-2.78,3.8,3.8,0,0,0-.16-.69,2.63,2.63,0,0,0-.08-.39,12.67,12.67,0,0,0-3.37-6.15A7.58,7.58,0,0,0,40,106.92a1.8,1.8,0,0,0-.47-.14.69.69,0,0,0-.25-.08.3.3,0,0,0-.14,0,.61.61,0,0,0-.2,0,.87.87,0,0,0-.23,0,8.55,8.55,0,0,0-4.13.29c-6.93,2.06-13.67,9-17.72,17.29-4.54,9.18-5.74,20-.16,27.51a1.13,1.13,0,0,1,.12.16.2.2,0,0,1,.08.1c.33.43.69.84,1.06,1.25l.18.18a10.66,10.66,0,0,0,1.27,1.12c3.54,2.7,7.81,2.33,11.69-.14a14.26,14.26,0,0,0,1.49-1.06,23.09,23.09,0,0,0,4.6-5.07l0,0c.27-.37.49-.74.74-1.12C39,145.31,40,143.43,41,141.45c.25-.47.47-1,.69-1.45.51-1.08,1-2.21,1.43-3.35.65-1.61,1.23-3.29,1.72-5,.25-.82.45-1.66.65-2.47.27-1.1.49-2.21.65-3.29A34,34,0,0,0,46.53,118.62Z"/>
				<path class="cls-8" d="M46.53,118.62a19.84,19.84,0,0,0-.37-2.78,3.8,3.8,0,0,0-.16-.69,2.63,2.63,0,0,0-.08-.39,12.67,12.67,0,0,0-3.37-6.15A7.58,7.58,0,0,0,40,106.92a1.8,1.8,0,0,0-.47-.14.69.69,0,0,0-.25-.08.3.3,0,0,0-.14,0,.61.61,0,0,0-.2,0,.87.87,0,0,0-.23,0,8.55,8.55,0,0,0-4.13.29c-6.93,2.06-13.67,9-17.72,17.29-4.54,9.18-5.74,20-.16,27.51a1.13,1.13,0,0,1,.12.16.2.2,0,0,1,.08.1c.33.43.69.84,1.06,1.25l.18.18a10.66,10.66,0,0,0,1.27,1.12c3.54,2.7,7.81,2.33,11.69-.14a14.26,14.26,0,0,0,1.49-1.06,23.09,23.09,0,0,0,4.6-5.07l0,0c.27-.37.49-.74.74-1.12C39,145.31,40,143.43,41,141.45c.25-.47.47-1,.69-1.45.51-1.08,1-2.21,1.43-3.35.65-1.61,1.23-3.29,1.72-5,.25-.82.45-1.66.65-2.47.27-1.1.49-2.21.65-3.29A34,34,0,0,0,46.53,118.62Zm-28.74,4.27a27.71,27.71,0,0,1,11.59-12.53c1.8-1,2.08.69,1.82,3.19l0,0c-.31,2.94-1.41,7-1.68,8.77a44.76,44.76,0,0,1-4.64,14.57s0,0,0,.06c-3,5.52-6.5,7.46-7.75,4.27C14.72,135.23,14.87,129.47,17.79,122.89Z"/>
				<g class="cls-9">
					<path class="cls-10" d="M23.21,135.48c-3.19,7.34-7.1,10.42-8.73,6.92s-.36-12.3,2.82-19.65,7.1-10.43,8.73-6.91S26.41,128.13,23.21,135.48Z"/>
					<path d="M22,132.92c-1.91,4.43-4.25,6.26-5.23,4.16s-.22-7.38,1.7-11.79,4.25-6.25,5.23-4.15S24,128.54,22,132.92Z"/>
					<g class="cls-11">
						<path class="cls-12" d="M16.52,142.84c.6-.14,1.46-.95,1.8-2.64.25-1.1.07-1.49-.23-1.63-.62.26-1.43.52-1.79-.37-.43-1.09-1-3.17-.12-7.08.72-2.56,1.08-3.64.42-3.41s-1.67,3.8-2,5.71c-.62,3.35-.43,6.44.36,8.1.34.75.79,1.39,1.41,1.37A.41.41,0,0,0,16.52,142.84Z"/>
					</g>
					<path class="cls-13" d="M26.77,118.08c.31-5.1-1.56-2.71-2.88,1.14s-2,9.56-.83,11.22S26.35,124.95,26.77,118.08Z"/>
				</g>
				<path class="cls-14" d="M241.06,119.51s-2.47-7.24-1.07-12-.46-31.72,18-50.35S311.28,32.48,317.45,0c0,0,4,65.07-19.48,90.53-26.41,28.64-40.89,22-38.58,33.56,0,0,8.92,1.84,14.18,21.1s9.84,36.79,31.23,39.4,48.66-25.23,59.74,7.09a14.6,14.6,0,0,0-12.32-4.61c-7.68.92-9.08,5.84-16.48,14.94s-20.62,27.08-48.34,23.1-50.19-28.8-51.34-66.9l-10.08-11Z"/>
				<path class="cls-15" d="M250.74,131.4a6.53,6.53,0,0,1,.15-.89,17,17,0,0,1,.71-2.41,25.77,25.77,0,0,1,4.59-7.75,35.29,35.29,0,0,1,4.29-4.29,39.68,39.68,0,0,1,5.56-3.81c1-.59,2.08-1.16,3.11-1.71s2.13-1.13,3.17-1.77c.53-.31,1.06-.61,1.59-.92l1.55-1c1-.64,2.08-1.33,3.09-2s2.05-1.41,3-2.11,2-1.46,3-2.19c1.94-1.47,3.79-3,5.54-4.5s3.42-3,4.94-4.5c.78-.73,1.5-1.48,2.2-2.19s1.35-1.43,2-2.12,1.2-1.36,1.75-2S302,84,302.45,83.41l1.29-1.68,1-1.48c.62-.88,1-1.64,1.33-2.14s.45-.76.45-.76-.14.28-.41.8-.62,1.3-1.22,2.2l-1,1.54c-.37.54-.79,1.12-1.2,1.74s-.95,1.24-1.44,1.92-1.1,1.37-1.71,2.08-1.24,1.45-1.93,2.16-1.38,1.52-2.16,2.27c-1.48,1.53-3.11,3.09-4.87,4.62s-3.61,3.08-5.55,4.58c-1,.76-1.95,1.51-3,2.23s-2,1.45-3,2.14-2.07,1.36-3.13,2l-1.59,1-1.59.92c-1.06.63-2.15,1.2-3.19,1.75s-2.11,1.12-3.12,1.67a46.52,46.52,0,0,0-5.54,3.66,35.38,35.38,0,0,0-4.31,4.07,28.15,28.15,0,0,0-3,4,27.63,27.63,0,0,0-1.8,3.45,23.67,23.67,0,0,0-.83,2.36A8.49,8.49,0,0,0,250.74,131.4Z"/>
				<path class="cls-15" d="M243.69,120.55q.08-4.74.21-9.48v0a85.16,85.16,0,0,1,.92-17.38,79.2,79.2,0,0,1,1.76-8.57,60.35,60.35,0,0,1,2.82-8.29,43,43,0,0,1,9.89-14.53L261,60.87c.57-.46,1.17-.9,1.77-1.35,1.25-.85,2.43-1.6,3.65-2.41,2.45-1.55,5-3,7.56-4.38l7.61-4.14c1.27-.68,2.51-1.39,3.78-2.12.61-.35,1.24-.7,1.85-1.08L289,44.24l1.82-1.14,1.74-1.25,1.75-1.25L296,39.24l1.66-1.34c.54-.46,1-1,1.54-1.47a34,34,0,0,0,3-3l1.4-1.61a16,16,0,0,0,1.34-1.69l2.49-3.5A70.27,70.27,0,0,0,311.52,19l.92-1.95c.15-.33.32-.66.46-1l.39-1L314.81,11c.56-1.33.86-2.75,1.31-4.13l1.25-4.15-1,4.23a41.29,41.29,0,0,1-1.13,4.19l-1.35,4.15-.34,1c-.12.33-.27.65-.41,1l-.84,2a69,69,0,0,1-3.92,7.81l-2.45,3.64a14.43,14.43,0,0,1-1.33,1.75l-1.39,1.7a36.93,36.93,0,0,1-3,3.22c-.52.52-1,1.06-1.56,1.54L297,40.45l-1.7,1.42-1.77,1.27-1.78,1.3-1.83,1.18-1.84,1.19c-.61.39-1.26.74-1.88,1.11-1.25.74-2.51,1.48-3.79,2.17l-7.6,4.2c-2.52,1.42-5,2.85-7.43,4.35-1.21.77-2.46,1.55-3.62,2.33-.56.44-1.12.83-1.68,1.26l-1.61,1.36a41.33,41.33,0,0,0-9.62,13.89,67.32,67.32,0,0,0-3,8.05,76.49,76.49,0,0,0-2,8.36c-.52,2.83-.89,5.68-1.15,8.55a79.6,79.6,0,0,0-.39,8.63v0h0C244.18,114.24,243.94,117.4,243.69,120.55Z"/>
				<path class="cls-15" d="M247.16,120.77l-2-9h0v0a70.69,70.69,0,0,1,.68-8.42A79.08,79.08,0,0,1,247.48,95l.54-2,.6-2c.39-1.36.91-2.68,1.37-4s1.07-2.6,1.62-3.9l.94-1.91c.32-.64.64-1.27,1-1.89a38,38,0,0,1,2.23-3.6l1.2-1.77,1.3-1.65A68.86,68.86,0,0,1,264,65.9a71.28,71.28,0,0,1,6.49-5.5,74.82,74.82,0,0,1,7.11-4.61c2.44-1.42,5-2.69,7.45-4,1.24-.65,2.47-1.32,3.67-2.05.6-.33,1.16-.72,1.75-1.12s1.2-.77,1.75-1.19a74.53,74.53,0,0,0,6.55-5.22,65.28,65.28,0,0,0,5.94-5.92l1.39-1.58,1.28-1.65c.9-1.09,1.63-2.27,2.44-3.43s1.43-2.4,2.12-3.59l.92-1.9.47-.94c.14-.31.25-.65.37-1l.76-2c.27-.66.41-1.34.62-2s.4-1.34.54-2l.37-2.07.19-1c0-.34,0-.68.07-1l.14-2.11,0-.52V8.93l-.06-1.05-.11-2.11.18,2.11.07,1.05,0,.53V10l-.08,2.12c0,.35,0,.71-.05,1.05l-.18,1-.29,2.1c-.13.69-.35,1.37-.51,2.05s-.31,1.39-.56,2l-.72,2a16.47,16.47,0,0,1-.82,2l-.88,1.91c-.68,1.23-1.36,2.49-2.11,3.68s-1.51,2.39-2.4,3.49l-1.28,1.71-1.37,1.61a66.73,66.73,0,0,1-5.93,6.07,82.07,82.07,0,0,1-6.62,5.3c-.58.42-1.16.78-1.74,1.2s-1.16.8-1.79,1.16c-1.2.75-2.45,1.42-3.69,2.09-2.49,1.32-5,2.6-7.41,4s-4.76,2.93-7,4.57a70.8,70.8,0,0,0-6.41,5.39,66.16,66.16,0,0,0-5.63,6.2l-1.31,1.66-1.18,1.71a34.18,34.18,0,0,0-2.22,3.53,15.64,15.64,0,0,0-1,1.86l-1,1.86c-.57,1.26-1.15,2.55-1.66,3.85s-1,2.61-1.4,4l-.63,2-.56,2a82.91,82.91,0,0,0-1.73,8.23,72.57,72.57,0,0,0-.89,8.37v0Z"/>
				<path class="cls-15" d="M248,127.17s0,0,0,.11a.41.41,0,0,0,.32,0,2.05,2.05,0,0,0,1.05-.56,2.68,2.68,0,0,0,.78-1.77,5.44,5.44,0,0,0-.08-1.22,5.14,5.14,0,0,1-.11-1.47,9.73,9.73,0,0,1,1-3.31,20,20,0,0,1,2.14-3.42,31.93,31.93,0,0,1,7-6.67c.7-.51,1.5-1,2.27-1.48s1.61-1,2.46-1.37,1.73-.85,2.6-1.28,1.76-.87,2.63-1.33a88.66,88.66,0,0,0,10.57-6.64A82.35,82.35,0,0,0,290.7,88a72.6,72.6,0,0,0,8.6-10.72,66.4,66.4,0,0,0,6.47-12.11c.4-1.06.82-2.11,1.23-3.17s.68-2.14,1-3.2c.67-2.14,1.35-4.27,2-6.37s1.05-4.18,1.56-6.21c.27-1,.53-2,.79-3s.4-2,.61-3c.39-2,.78-3.86,1.17-5.71s.58-3.64.86-5.38c.12-.85.26-1.7.4-2.52s.2-1.64.29-2.42c.19-1.59.38-3.09.56-4.51s.23-2.73.32-4,.23-2.35.25-3.36c.08-2,.18-3.64.14-4.74V6l.1,1.68c.11,1.1.11,2.71.11,4.75,0,1,0,2.16-.09,3.38s-.1,2.57-.17,4-.22,2.93-.36,4.53c-.05.79-.14,1.62-.2,2.44s-.24,1.69-.34,2.56q-.35,2.62-.71,5.43c-.33,1.88-.67,3.8-1,5.78-.18,1-.36,2-.55,3s-.46,2-.7,3.06c-.47,2.08-1,4.19-1.51,6.32s-1.28,4.22-1.95,6.38c-.33,1.1-.62,2.14-1,3.29s-.82,2.15-1.23,3.24a67.4,67.4,0,0,1-6.52,12.49,74.65,74.65,0,0,1-8.91,10.89A85.33,85.33,0,0,1,281.55,98a76.67,76.67,0,0,1-10.91,6.54c-.91.46-1.81.89-2.7,1.28L265.33,107c-.84.39-1.63.86-2.42,1.26s-1.54.9-2.23,1.41a32.67,32.67,0,0,0-7,6.23,18.52,18.52,0,0,0-2.22,3.22,9.47,9.47,0,0,0-1.11,3.09c-.15,1,.22,1.91.06,2.71a2.87,2.87,0,0,1-.93,1.8,2.15,2.15,0,0,1-1.13.54c-.14,0-.27,0-.32,0S248,127.17,248,127.17Z"/>
				<path class="cls-15" d="M247.09,123l2.24-3.26,0,0a12.34,12.34,0,0,1,.89-3.78l.76-1.8c.28-.58.63-1.12.94-1.69s.61-1.15,1-1.7l1.13-1.56a29.38,29.38,0,0,1,2.39-3.06l2.58-2.9c.9-.94,1.87-1.81,2.8-2.68s1.87-1.81,2.85-2.67,2-1.66,3-2.44c2-1.63,4.11-3.14,6.18-4.66s4.14-3.06,6.16-4.65a130.77,130.77,0,0,0,11.63-10.1c1.82-1.8,3.57-3.69,5.24-5.63.82-1,1.65-2,2.42-3s1.53-2,2.27-3.09,1.42-2.14,2.13-3.19,1.33-2.2,2-3.32c1.23-2.24,2.43-4.52,3.45-6.88.52-1.16,1-2.34,1.48-3.56l.69-1.78.63-1.83.61-1.82.55-1.86.52-1.84.47-1.87c.32-1.25.63-2.5.87-3.75s.54-2.53.73-3.8.42-2.55.57-3.8l.47-3.84-.33,3.84c-.11,1.29-.32,2.56-.48,3.84s-.41,2.55-.64,3.84-.47,2.52-.75,3.79L314,38.42l-.51,1.88L313,42.18,312.4,44l-.58,1.84-.67,1.82c-.43,1.22-.94,2.42-1.45,3.62a74,74,0,0,1-3.4,7c-.62,1.12-1.29,2.22-2,3.35s-1.37,2.2-2.14,3.25S300.72,67,299.92,68s-1.6,2-2.43,3c-1.66,2-3.42,3.9-5.27,5.71s-3.76,3.57-5.71,5.25-4,3.3-6,4.88C276.4,90,272.16,93,268.08,96.1q-1.52,1.16-3,2.41c-1,.83-1.9,1.7-2.86,2.57s-1.91,1.72-2.82,2.62l-2.61,2.85a29.46,29.46,0,0,0-2.44,3l-1.15,1.54c-.34.53-.67,1.07-1,1.63s-.68,1.09-1,1.66l-.78,1.75a11.63,11.63,0,0,0-1,3.69v0l0,0Z"/>
				<path class="cls-15" d="M245.54,125.39l1.53-5.62c.26-.91.53-1.89.83-3s.64-2.27,1.06-3.49a58.13,58.13,0,0,1,3.57-8,62.25,62.25,0,0,1,5.67-8.69A65.33,65.33,0,0,1,266,88.11c.72-.72,1.52-1.33,2.31-2s1.58-1.34,2.38-2l4.91-3.8q5-3.81,9.89-7.86l2.38-2.05,1.2-1.05,1.14-1.07c.78-.71,1.53-1.43,2.27-2.14l2.16-2.27,1.07-1.11,1-1.19c.68-.78,1.33-1.57,2-2.34s1.2-1.63,1.77-2.43a25.43,25.43,0,0,0,1.71-2.42c1-1.68,2.13-3.28,3-5,.44-.83.9-1.66,1.33-2.47s.79-1.68,1.19-2.49A101.7,101.7,0,0,0,311.53,35c.93-3,1.91-5.78,2.5-8.29s1.29-4.65,1.62-6.48l1.23-5.7s-.31,2.08-.88,5.77c-.26,1.84-.77,4-1.3,6.57s-1.34,5.38-2.18,8.47a91.25,91.25,0,0,1-3.57,9.7c-.39.84-.69,1.73-1.14,2.56s-.87,1.69-1.3,2.54a58.64,58.64,0,0,1-3,5.15c-.5.87-1.1,1.68-1.7,2.51s-1.19,1.68-1.8,2.52l-2,2.42-1,1.21L296,65.13c-.72.76-1.46,1.53-2.18,2.31s-1.54,1.47-2.3,2.21l-1.15,1.1-1.22,1.05-2.41,2.12c-3.31,2.7-6.66,5.34-10,7.86-1.68,1.26-3.31,2.51-5,3.75-.84.62-1.59,1.25-2.36,1.88s-1.58,1.23-2.28,1.91a69.23,69.23,0,0,0-7.86,8.19,65,65,0,0,0-9.67,16c-.5,1.19-.9,2.34-1.22,3.39s-.67,2-1,2.93C246.21,123.38,245.54,125.39,245.54,125.39Z"/>
				<path class="cls-15" d="M242.78,125.62l4-10.67,0,0a37.1,37.1,0,0,1,1.28-7.61,44.57,44.57,0,0,1,2.69-7.27c.5-1.19,1.18-2.29,1.78-3.44s1.34-2.2,2.09-3.27a43.63,43.63,0,0,1,4.95-6,55.58,55.58,0,0,1,5.83-5.11l6.09-4.74c2-1.57,4-3.17,6-4.8,1-.81,2-1.63,3-2.46s2-1.65,2.91-2.52l2.88-2.55L289,62.61c.93-.87,1.82-1.79,2.71-2.71s1.81-1.81,2.67-2.78c1.69-1.9,3.43-3.79,5-5.81s3.14-4,4.65-6.12c.77-1,1.4-2.13,2.13-3.2s1.41-2.13,2-3.26L310,35.38c.32-.55.59-1.14.86-1.71l.83-1.74.83-1.72.42-.87.36-.89,1.41-3.58c.5-1.18.85-2.41,1.23-3.63l1.17-3.69-1,3.72A35.55,35.55,0,0,1,315,24.94l-1.34,3.61-.32.91-.39.88-.8,1.77c-.55,1.16-1,2.36-1.64,3.49L308.61,39c-.57,1.16-1.3,2.22-2,3.33s-1.33,2.2-2.08,3.26c-1.5,2.09-2.94,4.24-4.57,6.21s-3.32,4-5,5.88c-.84,1-1.75,1.88-2.64,2.82s-1.78,1.86-2.72,2.74l-2.79,2.67-2.88,2.58C283,69.35,282,70.17,281,71s-2,1.67-3,2.47c-2,1.64-4,3.22-6,4.8L265.89,83a60.84,60.84,0,0,0-5.77,5,49.13,49.13,0,0,0-4.94,5.82c-.72,1-1.41,2.11-2.09,3.19s-1.3,2.2-1.8,3.36a42.93,42.93,0,0,0-2.76,7.13,36,36,0,0,0-1.44,7.53v0l0,0Z"/>
				<path class="cls-15" d="M242.3,129.78c.4-3,.81-6,1.24-9l1.29-9v.09a31.92,31.92,0,0,1,.81-7.19c.12-.6.27-1.18.43-1.76s.3-1.17.5-1.73c.39-1.14.7-2.3,1.19-3.4s.89-2.24,1.45-3.31a33.19,33.19,0,0,1,1.68-3.19,56.35,56.35,0,0,1,4-6l2.27-2.8c.76-.93,1.63-1.77,2.45-2.65.42-.43.82-.88,1.23-1.32l1.35-1.19c.88-.8,1.76-1.63,2.67-2.41,1.9-1.46,3.76-3,5.68-4.37s3.83-2.81,5.7-4.23,3.72-2.9,5.59-4.36,3.67-3,5.46-4.5,3.57-3.1,5.34-4.66,3.48-3.19,5.15-4.87c.86-.82,1.66-1.65,2.49-2.51s1.65-1.69,2.43-2.56c1.59-1.76,3.11-3.54,4.58-5.4.73-.92,1.48-1.84,2.13-2.82l1-1.44c.33-.5.64-1,1-1.49a58.4,58.4,0,0,0,3.45-6.2,48,48,0,0,1-3.09,6.42c-.29.52-.58,1-.89,1.56l-1,1.5c-.63,1-1.33,2-2,3q-2.09,2.91-4.4,5.62c-.75.93-1.57,1.8-2.35,2.69s-1.62,1.77-2.45,2.61c-1.63,1.75-3.35,3.4-5.05,5.07s-3.49,3.23-5.3,4.79-3.62,3.09-5.45,4.63-3.68,3-5.59,4.41-3.79,2.9-5.71,4.29-3.73,2.86-5.59,4.29c-.89.76-1.73,1.57-2.62,2.34l-1.3,1.18c-.41.4-.82.84-1.22,1.26-.79.84-1.64,1.67-2.4,2.56l-2.24,2.69A58.21,58.21,0,0,0,252.26,92c-.65,1-1.14,2-1.71,3.07s-1,2.1-1.48,3.18-.83,2.17-1.26,3.24-.7,2.25-1,3.38a31.61,31.61,0,0,0-1,6.89v.09l-1.73,9C243.49,123.81,242.93,126.81,242.3,129.78Z"/>
				<path class="cls-15" d="M238.92,148.89s0,1.62.32,4.41c.14,1.4.36,3.1.68,5s.76,4.1,1.26,6.45l.87,3.65c.36,1.24.72,2.52,1.08,3.86s.82,2.68,1.29,4,.93,2.77,1.46,4.16,1.08,2.82,1.67,4.26,1.24,2.85,1.87,4.28,1.34,2.82,2,4.26,1.56,2.8,2.36,4.21,1.74,2.61,2.6,3.93,2,2.44,3,3.66,2.12,2.27,3.17,3.37,2.27,2.05,3.36,3.07,2.32,1.82,3.45,2.69,2.33,1.63,3.49,2.37,2.28,1.41,3.42,2,2.22,1.24,3.3,1.73a64.63,64.63,0,0,0,10.81,4.24c1.34.38,2.43.64,3.16.8l1.15.17s-.4,0-1.15-.08-1.85-.23-3.25-.53a59.55,59.55,0,0,1-11.14-3.63c-1.13-.46-2.26-1.05-3.46-1.61s-2.34-1.29-3.57-2-2.38-1.52-3.64-2.3-2.37-1.78-3.6-2.7-2.35-2-3.51-3.07-2.25-2.24-3.32-3.43-2.09-2.49-3.08-3.79-1.89-2.7-2.76-4.07l-2.33-4.23c-.7-1.47-1.38-2.94-2.07-4.4s-1.22-2.93-1.83-4.38-1.08-2.91-1.6-4.35-.94-2.85-1.4-4.25-.78-2.79-1.14-4.14-.65-2.65-.95-3.93-.5-2.54-.72-3.72-.4-2.35-.54-3.45-.28-2.13-.36-3.13c-.19-2-.32-3.66-.34-5.08s0-2.52,0-3.28S238.92,148.89,238.92,148.89Z"/>
				<path class="cls-15" d="M243.08,147.65l-.44,11.87v-.05c.72,2.3,1.54,4.58,2.37,6.87s1.72,4.51,2.64,6.74,1.92,4.46,2.95,6.66l1.56,3.27,1.66,3.23c1.13,2.13,2.28,4.27,3.57,6.31.61,1,1.26,2.07,1.95,3.07s1.3,2,2.05,3,1.43,1.94,2.2,2.86l2.35,2.74c.83.84,1.69,1.74,2.56,2.58s1.77,1.58,2.71,2.34,1.9,1.47,2.88,2.13,2,1.34,3.06,1.95,2.09,1.16,3.18,1.69l3.28,1.45,3.42,1.25,3.48.94c1.16.28,2.35.45,3.52.69a14.16,14.16,0,0,0,1.8.25l1.8.17a30.68,30.68,0,0,0,3.61.15h1.81l1.8-.15a52.87,52.87,0,0,0,7.15-1l3.5-.93.88-.24.85-.33,1.69-.62,1.72-.63c.55-.22,1.1-.5,1.65-.75l3.3-1.53-3.25,1.66c-.55.25-1.08.55-1.64.78l-1.7.68-1.69.67-.84.34-.87.27-3.51,1a52.46,52.46,0,0,1-7.21,1.19l-1.82.17h-1.84a29.9,29.9,0,0,1-3.66-.08l-1.82-.14a14.1,14.1,0,0,1-1.83-.22c-1.2-.21-2.41-.39-3.62-.64l-3.53-1-3.47-1.19L280,215.62c-1.1-.54-2.16-1.15-3.24-1.71s-2.06-1.32-3.11-1.95-2-1.46-3-2.18-1.87-1.59-2.8-2.4-1.71-1.68-2.57-2.59L262.9,202c-.78-.94-1.49-1.95-2.23-2.92s-1.37-2-2.05-3-1.33-2-2-3.09c-1.29-2.08-2.42-4.22-3.56-6.37l-1.65-3.25L249.91,180c-1-2.22-1.94-4.46-2.85-6.72s-1.73-4.54-2.54-6.83-1.56-4.6-2.23-6.94l0,0,0,0Z"/>
				<path class="cls-15" d="M346.38,189.36l-1.28,1.12-3.5,3.26c-1.45,1.48-3.2,3.27-5.23,5.3s-4.07,4.55-6.48,7.15a28,28,0,0,1-4,3.93,23,23,0,0,1-5.34,2.92,38.52,38.52,0,0,1-12.71,2.43,60.85,60.85,0,0,1-27.34-5.6,38.73,38.73,0,0,1-11.68-8.29,55.08,55.08,0,0,1-4.63-5.25l-2-2.79-1.81-2.88a76.83,76.83,0,0,1-5.54-11.6c-1.49-3.8-2.7-7.45-3.91-10.78a56.15,56.15,0,0,0-3.85-8.76c-1.42-2.44-3.17-4.31-4.2-6.12a6.54,6.54,0,0,1-1.07-2.6.9.9,0,0,1,.58-1,2.13,2.13,0,0,1,1-.05,6,6,0,0,1,1.22.34l.39.17a3.37,3.37,0,0,0-.41-.14,6.53,6.53,0,0,0-1.23-.26,1.87,1.87,0,0,0-.86.1.7.7,0,0,0-.41.83,6.61,6.61,0,0,0,1.14,2.41c1.09,1.71,2.9,3.48,4.49,6a50.5,50.5,0,0,1,4.24,8.77c1.29,3.29,2.61,6.89,4.18,10.63a88.43,88.43,0,0,0,5.66,11.28c.6.93,1.19,1.84,1.79,2.79s1.35,1.79,2,2.69a52.08,52.08,0,0,0,4.53,5.07,37.66,37.66,0,0,0,11.25,7.84,58.24,58.24,0,0,0,13.12,4.4,57.14,57.14,0,0,0,13.36,1.27,39.9,39.9,0,0,0,12.3-2.11,21.62,21.62,0,0,0,5.09-2.61,27.09,27.09,0,0,0,4-3.66c2.46-2.56,4.68-4.93,6.75-6.95l5.47-5.08,3.68-3.07Z"/>
				<path class="cls-15" d="M363.63,189.83a10.26,10.26,0,0,0-3.11-3.91,12.42,12.42,0,0,0-4.51-2.2c-.4-.13-.82-.17-1.23-.26a6.61,6.61,0,0,0-1.25-.18l-1.24-.12H351a22.06,22.06,0,0,0-2.51.2c-.21,0-.43,0-.62.06l-.62.13a6.19,6.19,0,0,0-1.2.32c-3.14,1.09-5.78,3.32-8.25,5.58s-4.79,4.75-7.24,7.1a61,61,0,0,1-7.82,6.52,35.05,35.05,0,0,1-9.17,4.52,30.76,30.76,0,0,1-10.15,1.34c-.85,0-1.7-.11-2.55-.16s-1.7-.24-2.54-.35-1.68-.37-2.52-.54l-2.47-.7A51,51,0,0,1,275.8,197a71,71,0,0,1-13.21-15.45A74.2,74.2,0,0,1,254.25,163a61.37,61.37,0,0,1-2.33-20.11l.07.07-6.93-.24,7,.08h.08l0,.09a62.88,62.88,0,0,0,2.68,20,73.18,73.18,0,0,0,8.49,18.26,70.21,70.21,0,0,0,13.13,15.21,51.06,51.06,0,0,0,17.27,10l2.41.71c.82.16,1.62.37,2.44.51s1.69.27,2.5.36,1.66.19,2.49.19a30.49,30.49,0,0,0,9.87-1.27,34.16,34.16,0,0,0,9-4.39,61.94,61.94,0,0,0,7.81-6.37c2.46-2.3,4.82-4.72,7.32-7a43.39,43.39,0,0,1,4-3.24,17.22,17.22,0,0,1,4.55-2.35,10.94,10.94,0,0,1,1.26-.32l.62-.11c.22,0,.43,0,.64-.05a19,19,0,0,1,2.54-.14l1.27,0,1.27.14a22,22,0,0,1,2.51.52,12.86,12.86,0,0,1,4.5,2.32A10.54,10.54,0,0,1,363.63,189.83Z"/>
				<path class="cls-15" d="M252.47,125.39s.47.15,1.33.52a31,31,0,0,1,3.54,1.9,33.89,33.89,0,0,1,4.94,3.86,37.13,37.13,0,0,1,5.2,6.25,42.54,42.54,0,0,1,4.28,8.63c.25.82.54,1.63.83,2.46s.5,1.69.77,2.54c.49,1.72,1.05,3.43,1.61,5.21,1.14,3.53,2.41,7.13,3.87,10.74a83.36,83.36,0,0,0,5.08,10.57,44.93,44.93,0,0,0,7,9.35,25.15,25.15,0,0,0,9.36,6.14,40.1,40.1,0,0,0,10.31,2.15,47,47,0,0,0,9.52-.22,41.92,41.92,0,0,0,7.88-1.63c.56-.18,1.12-.35,1.66-.54l1.52-.61a21,21,0,0,0,2.57-1.21,20.7,20.7,0,0,0,2-1.18c.28-.19.57-.34.78-.53s.43-.32.6-.47l1.1-.9-1.07.93-.58.51c-.22.19-.49.35-.75.54a20.1,20.1,0,0,1-2,1.26,26.78,26.78,0,0,1-2.57,1.3l-1.51.63c-.53.2-1.09.39-1.66.6a16.34,16.34,0,0,1-1.79.55c-.62.16-1.26.36-1.91.52-1.35.27-2.74.58-4.22.76a49.14,49.14,0,0,1-9.63.36,38,38,0,0,1-10.57-2.08,26.06,26.06,0,0,1-9.65-6.25,46.19,46.19,0,0,1-7.16-9.5,85.55,85.55,0,0,1-5.1-10.74c-1.45-3.62-2.69-7.26-3.82-10.8-.54-1.78-1.09-3.52-1.57-5.24-.25-.84-.47-1.7-.75-2.55s-.51-1.63-.76-2.44a40.85,40.85,0,0,0-4.07-8.57,39.59,39.59,0,0,0-5-6.3,35.25,35.25,0,0,0-4.8-4A24.59,24.59,0,0,0,252.47,125.39Z"/>
				<path class="cls-15" d="M247.85,129a6.24,6.24,0,0,1,1.38-.43,8.93,8.93,0,0,1,4.06.24,12.91,12.91,0,0,1,5.4,3.34,26.1,26.1,0,0,1,2.56,3,40.46,40.46,0,0,1,2.22,3.77,77.94,77.94,0,0,1,3.72,9c1.19,3.23,2.46,6.63,3.79,10.13s2.73,7.1,4.29,10.69c.83,1.76,1.57,3.59,2.52,5.33l1.37,2.62c.48.87,1,1.7,1.51,2.56s1,1.72,1.53,2.54l1.67,2.44.84,1.22.18.26.23.29.47.56.92,1.17,1,1a34.17,34.17,0,0,0,9.15,6.45,41.19,41.19,0,0,0,5,2l2.53.7c.82.25,1.7.32,2.51.49l1.24.21c.41.06.83.06,1.23.1l2.42.19c.8,0,1.57,0,2.35-.05l1.14,0c.37,0,.76-.09,1.1-.12a29.74,29.74,0,0,0,4.19-.68,26.33,26.33,0,0,0,3.72-1c.57-.18,1.13-.38,1.66-.55a12.24,12.24,0,0,0,1.51-.59l2.62-1.21a18.49,18.49,0,0,0,2.06-1.11l1.48-.86c.82-.47,1.25-.74,1.25-.74s-.41.31-1.19.82l-1.43,1a16.26,16.26,0,0,1-2,1.23l-2.57,1.35a13.15,13.15,0,0,1-1.5.68l-1.66.67a29.68,29.68,0,0,1-3.73,1.19,26,26,0,0,1-4.28.86,7.37,7.37,0,0,1-1.13.16c-.39,0-.78.06-1.19.08-.79.05-1.6.11-2.4.14s-1.66-.08-2.52-.11c-.43,0-.86,0-1.28-.07l-1.3-.19c-.87-.15-1.76-.2-2.63-.44l-2.65-.64a38.65,38.65,0,0,1-5.26-2,34.27,34.27,0,0,1-9.75-6.69l-1.08-1.09-.95-1.14-.47-.58-.24-.29-.24-.35-.86-1.23-1.71-2.49c-.58-.84-1.06-1.72-1.59-2.6s-1.05-1.71-1.53-2.61l-1.38-2.68c-1-1.78-1.7-3.64-2.53-5.45-1.58-3.64-2.92-7.28-4.19-10.83s-2.44-7-3.55-10.21a85.89,85.89,0,0,0-3.39-9,37,37,0,0,0-2-3.73,23.3,23.3,0,0,0-2.33-3,12.22,12.22,0,0,0-5-3.49,8.6,8.6,0,0,0-3.95-.46A4.89,4.89,0,0,0,247.85,129Z"/>
				<path class="cls-15" d="M241.23,136.09l11.22-1.23h.06l0,0a4.69,4.69,0,0,1,.72.63,4.17,4.17,0,0,1,.61.69,15.06,15.06,0,0,1,1.11,1.45,33.92,33.92,0,0,1,1.92,3.09l1.73,3.2,1.55,3.29c1.1,2.17,2,4.43,2.91,6.65.46,1.12.95,2.24,1.39,3.36l1.26,3.41,2.53,6.81c.82,2.27,1.76,4.45,2.78,6.65a71.87,71.87,0,0,0,3.5,6.29,65.77,65.77,0,0,0,4.16,5.87,52.44,52.44,0,0,0,4.89,5.27,46.3,46.3,0,0,0,5.59,4.46,38.19,38.19,0,0,0,6.28,3.45,33.75,33.75,0,0,0,6.82,2.22c1.16.29,2.34.43,3.52.61s2.4.22,3.6.19a34.39,34.39,0,0,0,7.15-.68c1.2-.18,2.35-.52,3.52-.81s2.31-.68,3.43-1.14a56.13,56.13,0,0,0,6.56-3.06,50.2,50.2,0,0,1-6.47,3.26c-1.11.5-2.28.83-3.41,1.26s-2.34.7-3.54.91a34,34,0,0,1-7.24.81c-1.21,0-2.42-.06-3.64-.14s-2.43-.29-3.62-.56a33.74,33.74,0,0,1-7-2.15,39.48,39.48,0,0,1-6.43-3.48,45.86,45.86,0,0,1-5.73-4.51,48.47,48.47,0,0,1-5-5.36,54.5,54.5,0,0,1-4.24-5.92,68.76,68.76,0,0,1-3.51-6.41c-1-2.2-2-4.46-2.78-6.73L265,160.92l-1.25-3.41c-.42-1.12-.88-2.24-1.33-3.36-.91-2.22-1.76-4.49-2.79-6.67l-1.5-3.29-1.68-3.2c-.53-1.09-1.22-2.06-1.83-3.11a17.81,17.81,0,0,0-1-1.46,5.59,5.59,0,0,0-.56-.67,6.11,6.11,0,0,0-.63-.6h.09Z"/>
				<path class="cls-15" d="M244.46,138.72q3.53,1.63,7,3.3h-.06a2.57,2.57,0,0,1,.83.45,3.84,3.84,0,0,1,.68.54l.63.61a7.37,7.37,0,0,1,.55.66l1.07,1.35.88,1.45.89,1.48.75,1.53c.47,1,1,2,1.44,3.08.79,2.13,1.64,4.23,2.36,6.37l2,6.5,1,3.2c.39,1,.69,2.07,1.15,3.09l.65,1.53.7,1.49c.44,1,1,2,1.51,3a55.27,55.27,0,0,0,3.54,5.6c1.26,1.83,2.66,3.55,4.09,5.23a61.66,61.66,0,0,0,4.66,4.74,57.87,57.87,0,0,0,5.12,4.21,49.16,49.16,0,0,0,5.63,3.51,40.45,40.45,0,0,0,6.05,2.71c1,.42,2.1.67,3.17,1s2.14.53,3.23.66a29.36,29.36,0,0,0,6.64.34,26.91,26.91,0,0,0,6.53-1.17l1.58-.52c.53-.21,1-.45,1.56-.67l.78-.32.73-.39,1.51-.79a27.2,27.2,0,0,1-12.64,4.7,29.1,29.1,0,0,1-6.83,0,31.83,31.83,0,0,1-3.39-.56c-1.11-.3-2.24-.54-3.31-.9A42,42,0,0,1,290.8,203a52,52,0,0,1-5.87-3.53,49.45,49.45,0,0,1-5.35-4.27,64.41,64.41,0,0,1-4.83-4.85,58.17,58.17,0,0,1-4.23-5.38,63.37,63.37,0,0,1-3.61-5.81,56,56,0,0,1-2.88-6.22c-.44-1-.77-2.16-1.14-3.25l-.93-3.27-1.8-6.46c-.64-2.14-1.43-4.22-2.13-6.34-.4-1.05-.86-2.06-1.29-3.1l-.65-1.53-.8-1.46-.78-1.47-.95-1.35a8.22,8.22,0,0,0-.48-.68l-.58-.59a4.18,4.18,0,0,0-1.19-.94l-.06,0Q247.85,140.62,244.46,138.72Z"/>
				<path class="cls-15" d="M259.72,124.15s-.64,0-1.58.09a13.9,13.9,0,0,0-1.55.25,7.82,7.82,0,0,0-1.66.58,5.88,5.88,0,0,0-.78.42,5,5,0,0,0-.68.52,5.55,5.55,0,0,0-.61.55,4,4,0,0,0-.47.56,6.19,6.19,0,0,0-.41.51,4.63,4.63,0,0,1-.26.41l-.27.37s0-.17.1-.45.1-.3.14-.49a2.84,2.84,0,0,1,.26-.64,2.79,2.79,0,0,1,.39-.69,4.44,4.44,0,0,1,.57-.74,4,4,0,0,1,.74-.63,4.48,4.48,0,0,1,.88-.53,7.93,7.93,0,0,1,.94-.37c.34-.09.66-.13,1-.18a6.74,6.74,0,0,1,1.7,0A4.91,4.91,0,0,1,259.72,124.15Z"/>
				<path class="cls-16" d="M307.77,223.66c-23.67,1.74-37.41-5.31-46.18-15.24-10.46-11.84,4.87-1.85,4.87-1.85s-11.22-11.31-3.13-12.46c0,0-7.54-15.64,1.84-8.78,0,0-13.27-24.59-1.74-16.29,0,0-5.66-28,3.92-17,0,0-7.18-17.31.33-12.08,0,0,1.19-8.49-5.34-13.73a10.15,10.15,0,0,1-1.11-1,7.28,7.28,0,0,0-2.07-.92,7.83,7.83,0,0,1,0-4c-5.39-6.18,3.34-11.89,3.34-11.89-15.13,6.53-7.29-6.86-7.29-6.86-4.57,5.33-6.74,2.5-2.93-4.47s-7.3,8.38-7.72-.33c-.39-7.55-.43-17.8,4.71-28.09-9.41,16.76-8.4,35.17-9.54,39.06-1.41,4.8,1.07,12.07,1.07,12.07l-15.08,27.66,10.07,11c1.15,38.1,23.64,62.89,51.36,66.9a46.37,46.37,0,0,0,21.78-1.7C308.52,223.63,308.11,223.64,307.77,223.66Z"/>
				<path class="cls-17" d="M314.82,8.08a27.19,27.19,0,0,1-.82,3.4c-.31,1.06-.71,2.35-1.26,3.83a51.35,51.35,0,0,1-2.08,4.8c-.4.87-.87,1.75-1.38,2.67s-1,1.82-1.62,2.77-1.24,1.87-1.93,2.8c-.33.48-.65,1-1,1.43s-.78.91-1.16,1.39-.77.94-1.19,1.4-.87.9-1.3,1.33-.86.92-1.32,1.37-.95.82-1.45,1.23l-1.45,1.27-1.58,1.13L293.68,40c-.55.37-1.11.67-1.66,1l-1.71,1-.41.25-.41.22-.83.44-3.3,1.77c-1.12.59-2.19,1.17-3.27,1.72s-2.11,1.17-3.14,1.74c-2,1.17-4.07,2.2-5.92,3.34s-3.65,2.1-5.23,3.13-3.08,1.87-4.36,2.75S261,59,260.12,59.6c-1.83,1.26-2.81,2.06-2.81,2.06s.2-.25.62-.68a25,25,0,0,1,1.84-1.8c.8-.77,1.82-1.66,3-2.64s2.59-2.07,4.1-3.22,3.22-2.32,5-3.56,3.78-2.46,5.81-3.7,4.14-2.53,6.34-3.72l3.29-1.81.83-.46.43-.24.39-.24,1.58-.92c.53-.32,1.07-.6,1.58-.92l1.49-1.08,1.51-1c.47-.41.92-.8,1.37-1.19s.94-.77,1.4-1.16.87-.83,1.3-1.22.86-.83,1.29-1.25.79-.86,1.18-1.28l1.15-1.27c.37-.44.72-.87,1.08-1.32.7-.85,1.41-1.7,2-2.59s1.23-1.7,1.77-2.56,1.1-1.65,1.56-2.46c1-1.6,1.8-3.12,2.5-4.48s1.28-2.57,1.72-3.57.79-1.81,1-2.36Z"/>
				<path class="cls-18" d="M312.36,22.78a16,16,0,0,1-.61,2,22.5,22.5,0,0,1-.95,2.2,30.48,30.48,0,0,1-1.45,2.76,35,35,0,0,1-2,3.08A38.21,38.21,0,0,1,304.8,36c-.44.57-1,1.06-1.46,1.61s-1,1.11-1.52,1.62c-1.12,1-2.18,2.11-3.36,3.06s-2.34,2-3.57,2.81c-.6.44-1.21.86-1.8,1.28s-1.19.82-1.81,1.19c-1.2.74-2.39,1.46-3.51,2.11s-2.24,1.16-3.27,1.67c-.51.25-1,.51-1.45.74l-1.35.55c-.85.36-1.61.68-2.2.91l-1.94.75s.66-.39,1.77-1.07l2.05-1.21,1.26-.73,1.36-.85c.94-.62,2-1.27,3.06-1.93l3.31-2.29c1.17-.75,2.28-1.69,3.47-2.54s2.28-1.86,3.42-2.78,2.21-2,3.32-2.92,2.08-2,3-3,1.88-2,2.67-3,1.55-1.93,2.22-2.82c.33-.45.62-.89.92-1.31s.57-.83.8-1.2c.5-.76.9-1.44,1.23-2s.57-1,.71-1.33Z"/>
				<path class="cls-18" d="M311.28,31.11s-.36.71-1.11,1.93c-.37.62-.83,1.35-1.39,2.17s-1.19,1.77-1.94,2.73-1.53,2-2.45,3.12-1.87,2.2-2.92,3.32-2.12,2.28-3.32,3.36l-1.78,1.67c-.61.54-1.24,1.06-1.86,1.6-1.23,1.06-2.53,2.07-3.82,3s-2.61,1.86-3.89,2.71-2.55,1.59-3.76,2.3c-.63.34-1.2.69-1.78,1l-1.74.83c-1.1.54-2.1,1-3,1.42l-2.41.93L272,64l2-1.12c.62-.32,1.38-.76,2.23-1.21S278,60.6,279,60c.51-.32,1-.65,1.61-1l1.68-1.14c1.14-.78,2.37-1.55,3.57-2.47s2.48-1.78,3.72-2.79c.62-.49,1.25-1,1.88-1.47s1.22-1,1.83-1.55,1.24-1,1.84-1.56L297,46.43c1.16-1,2.27-2.14,3.36-3.19s2.1-2.11,3.06-3.1,1.86-2,2.65-2.88C309.28,33.67,311.28,31.11,311.28,31.11Z"/>
				<path class="cls-19" d="M306.51,45.92s-.29.71-.89,1.91c-.3.6-.68,1.31-1.13,2.13s-1,1.74-1.6,2.71-1.32,2-2.05,3.09-1.58,2.2-2.5,3.3-1.82,2.28-2.86,3.39c-.49.56-1,1.14-1.52,1.7l-1.61,1.65c-1.05,1.1-2.22,2.09-3.33,3.13l-.84.75-.85.7-1.72,1.39c-1.08.93-2.26,1.67-3.34,2.46a32.07,32.07,0,0,1-3.08,2c-1,.6-1.86,1.17-2.7,1.6s-1.54.81-2.13,1.1c-1.2.61-1.88.94-1.88.94s.62-.43,1.73-1.17c.56-.36,1.23-.82,2-1.31s1.59-1.17,2.51-1.83,1.94-1.38,2.93-2.21c.51-.4,1-.81,1.56-1.25a10.24,10.24,0,0,0,.82-.63l.79-.69c1.06-.93,2.2-1.84,3.29-2.89s2.2-2,3.23-3.11L293,63.2c.53-.55,1-1.11,1.54-1.65,1-1.07,2-2.2,2.89-3.26s1.77-2.14,2.59-3.17,1.58-2,2.23-2.92c1.37-1.82,2.44-3.39,3.17-4.51S306.51,45.92,306.51,45.92Z"/>
				<path class="cls-20" d="M306.51,53.58s-.1.19-.24.55-.4.93-.74,1.59-.76,1.48-1.25,2.42-1.06,2-1.75,3.06c-.34.55-.69,1.12-1.06,1.71s-.78,1.17-1.19,1.8c-.81,1.24-1.76,2.48-2.72,3.79s-2,2.58-3.16,3.86l-1.72,1.91-.87.95-.92.92c-1.23,1.19-2.47,2.42-3.78,3.51-.63.55-1.29,1.11-1.91,1.66s-1.34,1-2,1.48l-1.92,1.43-1.94,1.22a30.35,30.35,0,0,1-3.6,2.11c-1.16.61-2.23,1.14-3.16,1.58s-1.83.72-2.53,1l-2.22.83L270,89.9l2.43-1.19,3-1.83c1.12-.62,2.23-1.44,3.45-2.27.57-.43,1.19-.86,1.84-1.29l1.82-1.47,1.89-1.51,1.85-1.66c1.29-1.1,2.48-2.31,3.69-3.51l.92-.88.85-.93,1.73-1.86c1.08-1.27,2.19-2.51,3.19-3.74s2-2.46,2.83-3.64,1.72-2.28,2.45-3.34,1.37-2,2-2.89,1.07-1.65,1.45-2.28.7-1.14.89-1.48Z"/>
				<path class="cls-21" d="M261.29,117.9c4.62-4.14,17.54-6.2,36.91-27.2,9.76-10.58,14.77-28,17.29-44.78C311.92,62.59,302.46,82.21,261.29,117.9Z"/>
				<path class="cls-21" d="M361.94,189.32c-5.31-6.69-15.94-9-29.34,10.39s-42.66,22.79-59.35,11.55c-23.38-15.76-36.71-45.74-36.85-51.07,1.79,37.07,24,61.13,51.25,65.08,27.71,4,41-14,48.33-23.09s8.79-14,16.47-14.94a14.23,14.23,0,0,1,9.7,2.39A3,3,0,0,0,361.94,189.32Z"/>
				<path class="cls-17" d="M356.16,181.29a4.39,4.39,0,0,0-.73-.45,12,12,0,0,0-2.23-.83,16.69,16.69,0,0,0-3.64-.52,27.76,27.76,0,0,0-4.74.25,43.15,43.15,0,0,0-5.49,1.23c-1,.3-2,.54-2.93.95s-2,.69-3,1.14l-3.11,1.33c-1.06.44-2.11.92-3.24,1.34s-2.23.84-3.4,1.25-2.28.76-3.46,1.11a56.37,56.37,0,0,1-7.11,1.49,26.05,26.05,0,0,1-3.56.37l-1.77.08c-.59,0-1.17,0-1.74-.06a27.88,27.88,0,0,1-6.6-1,12.55,12.55,0,0,1-1.5-.48l-1.43-.52c-.92-.41-1.77-.88-2.6-1.28s-1.51-1-2.21-1.44-1.25-1.05-1.81-1.53c-.29-.25-.56-.47-.81-.71l-.68-.73L287.19,181c-.67-.82-1.1-1.53-1.44-2l-.49-.69,2.32,2.32,1.34,1.08c.23.21.47.4.72.62s.56.39.86.6c.6.39,1.19.85,1.89,1.22s1.41.78,2.21,1.15,1.63.69,2.5,1,1.8.56,2.77.72l1.49.28c.23,0,.48.08.74.1l.78.07c.51,0,1,.07,1.55.13s1.06,0,1.62,0h1.62c.55-.06,1.1-.1,1.66-.14,1.1-.08,2.22-.28,3.35-.44a56.31,56.31,0,0,0,6.75-1.53c1.13-.31,2.23-.68,3.37-1s2.17-.76,3.26-1.17,2.17-.82,3.24-1.24,2.16-.8,3.21-1.2a49.43,49.43,0,0,1,6.31-1.83,34.71,34.71,0,0,1,5.87-.8,23.52,23.52,0,0,1,5,.27,14.82,14.82,0,0,1,3.71,1.05,10,10,0,0,1,2.13,1.21A6.26,6.26,0,0,1,356.16,181.29Z"/>
				<path class="cls-19" d="M339.92,187.23l-.71.72c-.48.44-1.17,1.13-2.15,1.91a43.53,43.53,0,0,1-3.62,2.62c-.72.48-1.53.94-2.36,1.44s-1.75.92-2.74,1.35a32.92,32.92,0,0,1-3.08,1.28c-.56.18-1.11.39-1.67.57s-1.17.32-1.74.49a41.18,41.18,0,0,1-7.67,1.24c-1.34.07-2.71,0-4.09,0s-2.77-.19-4.21-.42c-.69-.12-1.37-.21-2.07-.38s-1.43-.34-2.11-.55-1.38-.44-2.06-.69-1.36-.54-2-.84a32.7,32.7,0,0,1-7.25-4.69,37.87,37.87,0,0,1-5.66-6.06,55.29,55.29,0,0,1-7-12.76,94.72,94.72,0,0,1-3.22-9.72c-.32-1.19-.59-2.13-.75-2.77l-.29-1s.56,1.31,1.37,3.63,2.11,5.6,3.87,9.41A61.45,61.45,0,0,0,286,184.26a40.49,40.49,0,0,0,5.53,5.69,31.15,31.15,0,0,0,6.87,4.39c.61.28,1.26.53,1.88.8s1.3.44,1.94.67,1.29.34,1.95.52,1.35.25,2,.4c1.3.2,2.67.29,4,.46s2.64.09,3.93.05a40.39,40.39,0,0,0,7.4-1c.57-.12,1.16-.25,1.72-.39l1.62-.51a28.8,28.8,0,0,0,3.09-1.07c1-.38,1.88-.81,2.75-1.18s1.67-.82,2.41-1.25a39.36,39.36,0,0,0,3.78-2.32A33.07,33.07,0,0,0,339.92,187.23Z"/>
				<path class="cls-20" d="M326.2,204.62a20.43,20.43,0,0,1-2.46,1.59,41.09,41.09,0,0,1-7.12,3.2,44.67,44.67,0,0,1-5.05,1.41,38.29,38.29,0,0,1-5.8.8,37.69,37.69,0,0,1-6.28-.09c-1.07-.13-2.13-.24-3.2-.46s-2.13-.44-3.19-.7-2.07-.65-3.1-1-2-.78-3-1.2-1.93-.9-2.84-1.41-1.82-1-2.67-1.56-1.7-1.11-2.48-1.68l-2.26-1.75c-.75-.58-1.38-1.21-2.05-1.77-.32-.28-.64-.58-1-.85s-.58-.6-.87-.86c-.57-.59-1.12-1.14-1.64-1.65s-1-1.08-1.38-1.57c-.86-1-1.61-1.84-2.17-2.6l-1.79-2.34,2,2.16c.62.7,1.42,1.52,2.35,2.42.46.46.95.95,1.49,1.45l1.69,1.54.9.83c.32.26.66.52,1,.81.67.51,1.34,1.11,2.09,1.63s1.5,1.06,2.27,1.62l2.48,1.57c.84.52,1.74,1,2.64,1.47s1.84.88,2.79,1.33,1.93.77,2.91,1.15,2,.67,3,.9a27.9,27.9,0,0,0,3.06.71c1,.22,2.07.33,3.1.46a39.49,39.49,0,0,0,6.09.2,46.38,46.38,0,0,0,5.68-.57c1.78-.29,3.45-.72,5-1.13s2.91-.94,4.13-1.4,2.25-.9,3.08-1.32A27.8,27.8,0,0,0,326.2,204.62Z"/>
				<path class="cls-20" d="M317.75,203.85a22.35,22.35,0,0,1-2.59.5,39.92,39.92,0,0,1-7,.39c-1.44-.09-3-.18-4.65-.41a41,41,0,0,1-5.13-1,43.7,43.7,0,0,1-5.32-1.81,41.88,41.88,0,0,1-5.19-2.63,47.31,47.31,0,0,1-4.76-3.3c-.75-.6-1.46-1.24-2.16-1.84s-1.33-1.32-2-1.95-1.21-1.34-1.78-2-1.07-1.35-1.59-2-1-1.32-1.41-2-.89-1.25-1.24-1.87c-.75-1.24-1.43-2.37-1.95-3.43s-1-1.95-1.35-2.72c-.66-1.54-1-2.42-1-2.42s.45.84,1.28,2.3c.38.75.93,1.61,1.54,2.6s1.36,2.05,2.14,3.25c.38.6.87,1.16,1.33,1.78s.93,1.26,1.47,1.86,1.07,1.26,1.66,1.89,1.18,1.24,1.81,1.88,1.29,1.23,2,1.84,1.39,1.17,2.12,1.76a44.17,44.17,0,0,0,4.65,3.16,38.83,38.83,0,0,0,5,2.56,45.21,45.21,0,0,0,5.12,1.87,46.4,46.4,0,0,0,5,1.2,45.48,45.48,0,0,0,4.56.62c1.42.1,2.72.18,3.89.2s2.16,0,3-.07C316.8,204,317.75,203.85,317.75,203.85Z"/>
				<path class="cls-21" d="M240,107.46s13.78,6.71,15.52,25.18c2.13,22.81-13.51,37.9-19.44,25.56Z"/>
				<path class="cls-22" d="M55.55,96.69s-9.24.9-5.85-7.56,4.93-17.71,17.85-27.54,51.66-31.11,98.22-20.34c43.53,10.07,61.91,42.5,66.83,71.75,0,0-3.09,11.08-9.55,1.86s-40-43.44-81-46.5S55.55,96.69,55.55,96.69Z"/>
				<path class="cls-23" d="M69.55,60.26s-.34.4-.89,1.15c-.27.37-.62.82-1,1.35s-.74,1.15-1.15,1.82-.8,1.43-1.21,2.25-.79,1.65-1.16,2.58c-.2.46-.4.9-.57,1.38s-.33.95-.52,1.45c-.36,1-.57,2-.88,3s-.45,2-.69,3-.3,2-.46,3-.18,1.91-.25,2.83-.06,1.74-.1,2.54-.06,1.51,0,2.15,0,1.2.07,1.67c0,.92,0,1.46,0,1.46s-.07-.53-.2-1.45c-.08-.46-.15-1-.23-1.67a14.93,14.93,0,0,1-.16-2.16c0-.8-.11-1.66-.07-2.56s.07-1.9.13-2.9.26-2,.4-3.06.42-2.07.67-3.12.55-2.05.94-3.06a30.75,30.75,0,0,1,1.17-2.85c.39-.92.89-1.77,1.32-2.57s.93-1.53,1.37-2.2.89-1.24,1.3-1.74.8-.91,1.1-1.27C69.14,60.62,69.55,60.26,69.55,60.26Z"/>
				<path class="cls-23" d="M90.11,48.66l-1,1c-.67.63-1.54,1.61-2.63,2.74-.53.6-1.1,1.21-1.67,1.9S83.6,55.75,83,56.51s-1.23,1.57-1.85,2.39-1.21,1.67-1.81,2.52S78.18,63.16,77.64,64s-1,1.75-1.45,2.62S75.3,68.37,75,69.2s-.67,1.61-.91,2.34-.43,1.44-.61,2a13.25,13.25,0,0,0-.36,1.63c-.17.9-.29,1.42-.29,1.42s.06-.54.12-1.45a12.07,12.07,0,0,1,.19-1.66q.19-.95.45-2.13c.23-.76.51-1.56.79-2.44s.72-1.71,1.11-2.64.93-1.78,1.42-2.71,1.1-1.79,1.69-2.67,1.22-1.74,1.88-2.55,1.29-1.62,1.94-2.35,1.31-1.45,1.94-2.12,1.24-1.24,1.81-1.82C87.26,51,88.26,50.15,89,49.56S90.11,48.66,90.11,48.66Z"/>
				<path class="cls-23" d="M111.74,41.57s-.46.34-1.23,1-1.87,1.62-3.17,2.78c-.61.61-1.32,1.24-2,1.94s-1.44,1.45-2.19,2.24-1.46,1.63-2.23,2.47-1.47,1.76-2.19,2.65-1.42,1.83-2,2.78-1.29,1.84-1.78,2.81S93.81,62,93.41,63a23.77,23.77,0,0,0-1.18,2.54c-.3.8-.58,1.53-.86,2.2s-.37,1.25-.51,1.74c-.28,1-.45,1.54-.45,1.54s.11-.56.28-1.58c.09-.49.17-1.1.36-1.8s.41-1.45.69-2.3.68-1.7,1-2.64a27.21,27.21,0,0,1,1.4-2.84c.5-1,1.14-1.91,1.75-2.88s1.35-1.9,2-2.85,1.48-1.8,2.24-2.67,1.54-1.7,2.33-2.45,1.55-1.51,2.3-2.16S106.35,45.53,107,45A43.55,43.55,0,0,1,111.74,41.57Z"/>
				<path class="cls-23" d="M130.76,38.49s-2.13,1.38-5.16,3.69c-1.51,1.13-3.23,2.54-5,4.09-.9.76-1.8,1.59-2.7,2.44s-1.8,1.74-2.67,2.65-1.7,1.84-2.51,2.79-1.54,1.91-2.23,2.86-1.3,1.9-1.86,2.84c-.26.47-.53.92-.76,1.36s-.46.9-.68,1.32c-.37.86-.72,1.65-1,2.37s-.42,1.38-.61,1.9c-.25,1.07-.39,1.7-.39,1.7a3.84,3.84,0,0,1,.06-.45c0-.3.07-.74.17-1.28s.21-1.22.46-2a19.48,19.48,0,0,1,.83-2.47c.2-.46.4-.9.6-1.39s.48-.94.73-1.44c.5-.95,1.1-1.95,1.77-3s1.41-2,2.21-3,1.65-1.92,2.52-2.85a63.45,63.45,0,0,1,5.52-5.1c1.84-1.5,3.66-2.79,5.23-3.87s3-1.87,3.93-2.44S130.76,38.49,130.76,38.49Z"/>
				<path class="cls-23" d="M147.93,38.33l-1.39.83c-.89.5-2.12,1.29-3.61,2.22s-3.17,2.1-4.95,3.36c-.87.65-1.78,1.33-2.68,2.05s-1.79,1.44-2.66,2.19-1.72,1.57-2.53,2.37-1.56,1.63-2.25,2.48c-.35.42-.68.83-1,1.25a14.66,14.66,0,0,0-.88,1.24,11.62,11.62,0,0,0-.76,1.22,13.46,13.46,0,0,0-.65,1.19c-.19.39-.36.77-.5,1.14a10.07,10.07,0,0,0-.4,1,13.11,13.11,0,0,0-.47,1.79c-.11.49-.12.89-.16,1.16s0,.42,0,.42v-.44a8.38,8.38,0,0,1,0-1.19,13.65,13.65,0,0,1,.31-1.83c.08-.36.18-.72.3-1.1s.28-.8.45-1.2a11.6,11.6,0,0,1,.59-1.26c.21-.43.45-.87.71-1.31s.55-.88.86-1.32a15.15,15.15,0,0,1,1-1.32,30.62,30.62,0,0,1,2.25-2.58c.83-.84,1.68-1.65,2.57-2.44a58.78,58.78,0,0,1,5.48-4.21c1.83-1.25,3.6-2.29,5.16-3.16s2.84-1.48,3.78-1.94S147.93,38.33,147.93,38.33Z"/>
				<path class="cls-23" d="M161.79,40.25s-1.85,1-4.48,2.55c-1.33.81-2.81,1.8-4.39,2.91-.79.54-1.57,1.15-2.36,1.77s-1.59,1.26-2.34,1.94-1.52,1.37-2.21,2.09a29.08,29.08,0,0,0-2,2.17c-.61.75-1.17,1.48-1.66,2.2a22,22,0,0,0-1.28,2.1c-.35.68-.66,1.31-.9,1.89s-.4,1.1-.55,1.52l-.41,1.35s0-.12.07-.36.07-.6.16-1,.21-1,.42-1.58c.1-.31.18-.63.32-1s.29-.66.43-1a24.05,24.05,0,0,1,2.76-4.57c.62-.78,1.28-1.56,2-2.3s1.45-1.47,2.24-2.14A41.84,41.84,0,0,1,152.47,45c1.62-1.06,3.22-1.94,4.58-2.66s2.58-1.23,3.41-1.59S161.79,40.25,161.79,40.25Z"/>
				<path class="cls-23" d="M176.1,44.1s-.47.22-1.26.66c-.41.19-.87.48-1.41.8s-1.14.68-1.78,1.13-1.33.9-2,1.44-1.39,1.16-2.14,1.76-1.45,1.33-2.13,2a24.36,24.36,0,0,0-2,2.29l-.95,1.19-.83,1.26c-.27.42-.58.81-.81,1.25l-.67,1.28a24.31,24.31,0,0,0-1.17,2.49c-.17.4-.35.81-.49,1.19s-.21.78-.33,1.15c-.19.74-.45,1.4-.59,2s-.2,1.17-.29,1.6c-.18.9-.29,1.4-.29,1.4s0-.51.11-1.42c0-.45.09-1,.14-1.63a19.2,19.2,0,0,1,.43-2.08l.27-1.2c.12-.4.28-.82.43-1.24a17,17,0,0,1,1-2.63,18.86,18.86,0,0,1,1.47-2.65c.28-.43.56-.87.85-1.31l1-1.23a28.15,28.15,0,0,1,2.09-2.34c.72-.75,1.5-1.4,2.24-2s1.52-1.18,2.27-1.67,1.47-1,2.15-1.34,1.31-.7,1.88-1,1.06-.49,1.5-.66A11.14,11.14,0,0,1,176.1,44.1Z"/>
				<path class="cls-23" d="M186.41,48.5l-1,.69c-.62.45-1.47,1.11-2.48,1.9s-2.18,1.79-3.37,2.85A48.37,48.37,0,0,0,176,57.5c-.56.63-1.11,1.29-1.62,2s-1,1.33-1.38,2a16.65,16.65,0,0,0-1.79,4,15.7,15.7,0,0,0-.33,1.7,10.54,10.54,0,0,0-.09,1.34c0,.75,0,1.19,0,1.19s0-.1-.06-.29a7.44,7.44,0,0,1-.17-.89,13.13,13.13,0,0,1-.07-1.37,8.63,8.63,0,0,1,.18-1.82,13.46,13.46,0,0,1,.57-2.05,14.06,14.06,0,0,1,1-2.16,23.21,23.21,0,0,1,3-4.21c.59-.65,1.2-1.27,1.82-1.86s1.27-1.16,1.9-1.69a43.62,43.62,0,0,1,3.6-2.64c1.08-.74,2-1.26,2.69-1.64S186.41,48.5,186.41,48.5Z"/>
				<path class="cls-23" d="M202.12,58.35a10.24,10.24,0,0,0-1.08.11,22,22,0,0,0-2.79.59c-.56.12-1.16.35-1.8.54s-1.27.52-1.92.84c-.32.17-.67.32-1,.51s-.63.39-1,.56a17.53,17.53,0,0,0-1.88,1.34c-.63.47-1.18,1-1.74,1.53s-1,1.12-1.52,1.66-.87,1.14-1.26,1.68-.68,1.12-1,1.62a12.15,12.15,0,0,0-.77,1.41c-.22.43-.41.8-.56,1.12-.32.62-.49,1-.49,1s.11-.39.33-1c.09-.35.24-.75.39-1.2a9.39,9.39,0,0,1,.65-1.5,19,19,0,0,1,.89-1.73c.35-.57.73-1.21,1.17-1.82s1-1.21,1.52-1.78,1.14-1.13,1.8-1.63a21,21,0,0,1,2-1.37c.36-.19.69-.4,1-.58l1-.47a16.44,16.44,0,0,1,2.05-.73,19.35,19.35,0,0,1,1.91-.45,13.22,13.22,0,0,1,1.62-.19c.5,0,.92,0,1.28,0A7.93,7.93,0,0,1,202.12,58.35Z"/>
				<path class="cls-23" d="M215.29,72s-.35,0-.95,0a20.41,20.41,0,0,0-2.48,0,27.6,27.6,0,0,0-3.44.45c-.62.13-1.26.27-1.89.47a16.76,16.76,0,0,0-1.92.61c-.65.21-1.25.52-1.87.76s-1.16.62-1.73.9-1.05.66-1.56,1-.93.65-1.36.95-.81.57-1.1.84-.6.52-.83.71l-.74.61s.21-.28.61-.75c.2-.22.44-.48.72-.83a23.94,23.94,0,0,1,2.3-2.11c.49-.34,1-.75,1.54-1.08s1.13-.71,1.77-1,1.25-.61,1.93-.83a18.1,18.1,0,0,1,2-.61,12.62,12.62,0,0,1,2-.4,18.21,18.21,0,0,1,1.88-.19c.59,0,1.17,0,1.69,0a18.74,18.74,0,0,1,2.49.31C215,71.94,215.29,72,215.29,72Z"/>
				<path class="cls-23" d="M222.44,83.14a8.21,8.21,0,0,0-2,.1c-.3.05-.6.11-.93.2a7.9,7.9,0,0,0-1,.27l-1,.39a8.79,8.79,0,0,0-1,.5,7.48,7.48,0,0,0-1,.55c-.32.21-.66.37-.95.59l-.9.61q-.4.32-.76.58c-.48.33-.85.67-1.15.88l-.45.33a4.06,4.06,0,0,1,.32-.46,14,14,0,0,1,.93-1.16A14.81,14.81,0,0,1,214,85.09a10.38,10.38,0,0,1,1-.7c.33-.23.71-.4,1.07-.61s.76-.33,1.13-.5.78-.24,1.16-.33a8.49,8.49,0,0,1,2.11-.23,5.69,5.69,0,0,1,1.49.23A2.9,2.9,0,0,1,222.44,83.14Z"/>
				<path class="cls-24" d="M227.3,93.71c-10.9-3.48-6.52-10.81-6.52-10.81-15.49-2.44-7-11.2-7-11.2s-11.92-.71-16.1-4.89,2.54-8.45,2.54-8.45c-4.79-.1-13.25,2.24-17.71-1-4.26-3.1,1.11-6.91,1.68-7.31-.82.54-12.29,8.18-15.41,4.36-3.27-4,5.38-9.48,5.38-9.48-5.91,1.42-14.87,11.3-19.65,7.54s4.36-10.9,4.36-10.9c-3,.62-18.12,11.5-20.56,8.46s4.79-9.07,4.79-9.07C138.9,42.57,127.3,52.46,123,51s-1.12-6.52-1.12-6.52c-2,1.33-12.31,12-16.89,10.49s1-8.87,1-8.87c-4.9,2.56-16.51,16.71-21,16.71s-1.22-8.05-1.22-8.05A93.1,93.1,0,0,0,73.72,66.71c-4.06,6-11.91,5.7-9.57,1.62.83-1.44,2.49-4.29,4.28-7.39l-.87.65C54.63,71.43,53.1,80.67,49.7,89.13s5.85,7.56,5.85,7.56,45.57-31.41,86.53-28.33,74.52,37.26,81,46.5,9.55-1.86,9.55-1.86a100.1,100.1,0,0,0-5.25-19.29Z"/>
				<path class="cls-25" d="M44.76,201.12s-10.16-.09-5.46,9.6S44.85,226.63,62,241.5c10.32,8.95,59.86,31.29,109.19,13.41,46.09-16.7,62.21-57.21,64.08-92.49,0,0-4.68-12.82-10.6-1.16s-38.33,55.94-82.48,64.07S44.76,201.12,44.76,201.12Z"/>
				<path class="cls-23" d="M64.32,242.85s-.5-.4-1.28-1.15c-.37-.39-.87-.87-1.36-1.44s-1.06-1.25-1.65-2-1.16-1.59-1.75-2.49-1.19-1.88-1.73-2.93-1.08-2.13-1.6-3.28-.9-2.33-1.37-3.51-.74-2.41-1.08-3.6-.53-2.39-.77-3.56-.34-2.29-.49-3.36-.16-2.1-.24-3a23.44,23.44,0,0,1-.09-2.56c0-.76,0-1.42,0-2,0-1.11.05-1.73.05-1.73s.06.62.13,1.73c0,.54.07,1.2.14,1.95s.15,1.63.26,2.54.17,1.95.37,3,.4,2.16.61,3.3l.85,3.5c.35,1.18.72,2.35,1.08,3.55s.83,2.33,1.33,3.44.94,2.22,1.52,3.25,1,2,1.58,3,1.08,1.77,1.59,2.55,1,1.48,1.48,2.06.89,1.12,1.23,1.55C63.87,242.4,64.32,242.85,64.32,242.85Z"/>
				<path class="cls-23" d="M88.05,254.38s-.53-.33-1.38-1-2.08-1.56-3.47-2.78c-.69-.61-1.45-1.25-2.2-2s-1.59-1.48-2.37-2.33-1.61-1.7-2.41-2.61-1.55-1.89-2.33-2.84-1.47-2-2.14-3-1.3-2-1.84-3-1.08-2-1.49-3-.81-1.89-1.11-2.78-.52-1.7-.73-2.42-.29-1.38-.4-1.9c-.17-1-.29-1.65-.29-1.65s.17.57.47,1.62c.16.5.29,1.14.54,1.84s.58,1.47.89,2.33.81,1.71,1.25,2.66,1,1.87,1.58,2.85,1.27,2,1.89,3,1.4,1.95,2.12,2.93,1.48,1.91,2.28,2.82,1.53,1.82,2.32,2.64,1.52,1.65,2.24,2.4,1.45,1.45,2.09,2.08c1.32,1.26,2.42,2.33,3.22,3S88.05,254.38,88.05,254.38Z"/>
				<path class="cls-23" d="M112.41,260.45s-.61-.3-1.61-.93-2.43-1.51-4.05-2.71c-.81-.61-1.7-1.26-2.6-2s-1.84-1.51-2.78-2.36-1.88-1.77-2.85-2.7-1.85-1.93-2.74-2.94-1.77-2.06-2.53-3.17-1.58-2.13-2.23-3.21a30.62,30.62,0,0,1-1.84-3.19c-.49-1.05-1.07-2-1.41-3s-.72-1.82-1-2.59-.41-1.48-.57-2c-.3-1.14-.49-1.8-.49-1.8s.25.63.66,1.74c.21.55.42,1.23.73,2s.76,1.57,1.17,2.48,1,1.84,1.53,2.85,1.24,2,1.91,3.06S93.17,242,94,243.11s1.68,2,2.52,3.07,1.79,2,2.69,3,1.81,1.88,2.76,2.7,1.8,1.7,2.66,2.44,1.71,1.46,2.48,2.09c1.57,1.27,2.89,2.33,3.84,3S112.41,260.45,112.41,260.45Z"/>
				<path class="cls-23" d="M133.44,262s-.68-.3-1.81-.88-2.77-1.41-4.64-2.56-4-2.52-6.26-4.15a82.22,82.22,0,0,1-6.61-5.52c-1.07-1-2.09-2.09-3.06-3.15s-1.88-2.16-2.71-3.27a40.1,40.1,0,0,1-4-6.4c-.22-.5-.43-1-.65-1.44s-.36-.92-.5-1.34c-.33-.85-.51-1.6-.7-2.21s-.25-1.12-.32-1.44l-.12-.51.62,1.91c.24.59.46,1.33.85,2.13l.58,1.28.72,1.38c.52.94,1.11,2,1.81,3s1.48,2.07,2.32,3.15,1.75,2.13,2.71,3.18,2,2.07,3.06,3.06a72.81,72.81,0,0,0,6.46,5.53c2.17,1.67,4.22,3.16,6,4.36s3.36,2.2,4.44,2.85Z"/>
				<path class="cls-23" d="M152.11,260.33s-.62-.21-1.71-.65-2.64-1.08-4.45-2a68.21,68.21,0,0,1-6.06-3.28,71.28,71.28,0,0,1-6.54-4.5c-1-.84-2.07-1.73-3-2.64a35.76,35.76,0,0,1-2.73-2.81,25.37,25.37,0,0,1-2.23-2.9,24.44,24.44,0,0,1-1.66-2.85,16.31,16.31,0,0,1-1-2.57,19.09,19.09,0,0,1-.52-2.05c-.13-.58-.14-1-.19-1.37a4.23,4.23,0,0,0-.06-.47s0,.18.11.46.15.76.31,1.34a14,14,0,0,0,.68,2,8.46,8.46,0,0,0,.51,1.17c.23.42.39.86.65,1.28a29.74,29.74,0,0,0,4,5.45,34.89,34.89,0,0,0,2.71,2.71c.95.9,2,1.74,3,2.55a64.05,64.05,0,0,0,6.38,4.54c2.11,1.34,4.11,2.56,5.87,3.52s3.24,1.76,4.29,2.27Z"/>
				<path class="cls-23" d="M167,256.54s-.57-.17-1.55-.49-2.36-.87-4-1.6a57.71,57.71,0,0,1-5.41-2.77,49.19,49.19,0,0,1-5.75-3.94c-.94-.75-1.83-1.53-2.68-2.32s-1.64-1.66-2.37-2.52a28.08,28.08,0,0,1-3.45-5c-.2-.4-.39-.78-.56-1.14s-.3-.72-.46-1.07c-.27-.67-.43-1.28-.6-1.77-.27-1-.39-1.58-.39-1.58l.55,1.52c.21.47.42,1.06.76,1.69.16.32.33.66.53,1s.4.72.63,1.11a27.06,27.06,0,0,0,1.58,2.34c.6.79,1.29,1.61,2,2.42s1.55,1.59,2.38,2.38,1.71,1.53,2.65,2.27a60.3,60.3,0,0,0,5.59,4c1.87,1.17,3.65,2.2,5.21,3s2.89,1.48,3.82,1.88Z"/>
				<path class="cls-23" d="M182.06,250.42a15.8,15.8,0,0,1-1.57-.48c-.51-.16-1.08-.41-1.77-.69s-1.44-.6-2.23-1-1.65-.89-2.55-1.42-1.79-1.15-2.7-1.8l-1.36-1.08-.68-.54-.64-.61c-.43-.42-.86-.83-1.31-1.23s-.8-.9-1.22-1.35-.82-.89-1.18-1.39-.7-.95-1.06-1.44a27.52,27.52,0,0,1-1.84-3,8.34,8.34,0,0,0-.43-.74c-.12-.25-.22-.5-.32-.76-.23-.49-.44-1-.66-1.45a23.53,23.53,0,0,1-1-2.73,22.56,22.56,0,0,1-.68-2.37c-.12-.72-.24-1.34-.33-1.87-.18-1-.29-1.61-.29-1.61s.17.56.46,1.56c.14.51.3,1.12.5,1.81a7.37,7.37,0,0,0,.37,1.1c.15.38.29.78.46,1.19a20.39,20.39,0,0,0,1.11,2.64c.25.45.47.91.71,1.39l.35.73c.15.23.29.46.43.69a31.45,31.45,0,0,0,1.87,2.85l1,1.4c.35.47.78.89,1.15,1.33s.76.89,1.18,1.32l1.27,1.22.61.61.66.54,1.3,1.08c.9.66,1.71,1.34,2.57,1.9s1.64,1.1,2.44,1.53,1.48.83,2.13,1.18,1.21.62,1.69.83C181.49,250.2,182.06,250.42,182.06,250.42Z"/>
				<path class="cls-23" d="M192.75,244.08s-.45-.19-1.26-.59-1.91-.93-3.2-1.71-2.78-1.72-4.3-2.85a28.81,28.81,0,0,1-2.27-1.84c-.73-.62-1.48-1.32-2.2-2a29.11,29.11,0,0,1-2-2.26,25,25,0,0,1-1.73-2.38A22.63,22.63,0,0,1,174.5,228c-.18-.4-.32-.81-.47-1.19s-.24-.77-.36-1.13a12,12,0,0,1-.37-2.05c-.09-.61-.06-1.14-.09-1.58s.07-.79.08-1,0-.36,0-.36,0,.5.07,1.36a12.79,12.79,0,0,0,.25,1.55,16.6,16.6,0,0,0,.54,1.94c.12.35.25.7.4,1.06s.34.75.52,1.12c.41.75.87,1.51,1.37,2.27a32.64,32.64,0,0,0,3.7,4.44,49.56,49.56,0,0,0,4.33,3.9c1.43,1.16,2.83,2.21,4.07,3.06s2.25,1.56,3,2S192.75,244.08,192.75,244.08Z"/>
				<path class="cls-23" d="M208.64,230.65a6.77,6.77,0,0,1-1.23.18,10.86,10.86,0,0,1-1.42.09c-.27,0-.57,0-.9,0s-.64-.07-1-.09a18.29,18.29,0,0,1-2.17-.37,15.33,15.33,0,0,1-2.36-.7c-.4-.16-.82-.29-1.22-.48l-1.2-.6A10.48,10.48,0,0,1,196,228l-1.15-.76c-.71-.58-1.43-1.16-2.09-1.77s-1.25-1.27-1.8-1.94-1-1.35-1.46-2-.76-1.31-1.11-1.9c-.16-.29-.32-.57-.48-.83s-.25-.56-.36-.82c-.22-.5-.4-1-.57-1.31-.28-.73-.46-1.14-.46-1.14s.22.39.64,1.06c.17.33.42.76.69,1.24a16,16,0,0,0,1,1.54c.37.54.76,1.18,1.22,1.77s1,1.21,1.52,1.84,1.21,1.19,1.8,1.82,1.33,1.12,2,1.68l1.1.72a8.59,8.59,0,0,0,1.11.68c.4.19.78.4,1.14.61s.78.33,1.16.51c.75.34,1.53.54,2.23.82s1.43.39,2.09.48a18.06,18.06,0,0,0,1.8.27,13,13,0,0,0,1.41.1C208.19,230.68,208.64,230.65,208.64,230.65Z"/>
				<path class="cls-23" d="M221.32,212.94a8.43,8.43,0,0,1-1,.38c-.32.09-.71.19-1.19.3a12.55,12.55,0,0,1-1.54.29c-.58.09-1.22.11-1.88.16a18.3,18.3,0,0,1-2.08,0l-1.13-.1c-.37,0-.75-.12-1.12-.18-.76-.11-1.51-.34-2.26-.53s-1.48-.54-2.2-.79-1.37-.68-2-1-1.21-.76-1.78-1.12-1-.8-1.48-1.14a10.23,10.23,0,0,1-1.19-1l-.86-.87-.72-.77s.3.24.86.63c.25.21.56.45.94.74s.82.55,1.28.89a16.79,16.79,0,0,0,1.54,1l1.79,1,2,.89c.7.24,1.39.54,2.11.73a21.67,21.67,0,0,0,2.17.54l1.09.21,1.07.14c.69.09,1.38.1,2,.17s1.27,0,1.83,0c1.15-.06,2.08-.16,2.74-.26S221.32,212.94,221.32,212.94Z"/>
				<path class="cls-23" d="M227.78,199a2.74,2.74,0,0,1-.56.28,7.08,7.08,0,0,1-1.62.39,6.74,6.74,0,0,1-1.13,0,9.26,9.26,0,0,1-1.25-.11,11.22,11.22,0,0,1-1.3-.31,13,13,0,0,1-1.3-.48c-.43-.19-.84-.4-1.22-.62s-.78-.47-1.12-.71a14,14,0,0,1-1.8-1.5,14.64,14.64,0,0,1-1.1-1.2,4.6,4.6,0,0,1-.4-.48l.51.34c.34.24.77.57,1.33.94.28.18.58.39.9.61s.66.4,1,.62.72.4,1.1.61A9.8,9.8,0,0,0,221,198a13.89,13.89,0,0,0,2.39.85c.41.06.78.18,1.14.22s.72.08,1,.11.64,0,.91,0a5.09,5.09,0,0,0,.7-.05C227.55,199,227.78,199,227.78,199Z"/>
				<path class="cls-24" d="M231.79,185.93c-11.42,5.3-5.8,13.52-5.8,13.52-16.53,4.59-6.29,14.08-6.29,14.08s-12.88,2.16-16.91,7.57,3.77,9.76,3.77,9.76c-5.2.64-14.66-1.2-19.14,3.14-4.27,4.14,2,8.1,2.69,8.48-.95-.57-14.33-8.37-17.29-3.49-3.06,5.08,7,10.68,7,10.68-6.57-1.06-17.5-11.82-22.25-6.82s6.06,12.47,6.06,12.47c-3.39-.4-21.07-11.7-23.37-7.8s6.28,10.24,6.28,10.24c-4.72-1.47-18.52-11.94-23-9.78s-.46,7.86-.46,7.86c-2.37-1.35-14.81-12.92-19.63-10.61s2.17,10.42,2.17,10.42c-5.62-2.49-19.92-18-24.79-17.56s-.37,9.7-.37,9.7a109.1,109.1,0,0,1-12.38-13.05c-5.13-6.69-13.62-5.48-10.6-.9,1.09,1.63,3.22,4.87,5.52,8.33a10.67,10.67,0,0,1-1-.68c-18.22-16.41-18-21.09-22.69-30.77s5.46-9.6,5.46-9.6,53.27,32.33,97.42,24.2,76.56-52.39,82.48-64.07,10.6,1.16,10.6,1.16a129.5,129.5,0,0,1-3.42,23.5Z"/>
				<path class="cls-24" d="M229.84,101.27c-1.8,1.65-5.65-5-6-5.71A80.18,80.18,0,0,0,216.29,84c-3.08-3.55-16.79-18.47-28.8-22.32-15.56-5-25.48-8.38-44.68-8.62-19.58-.25-33.46,1.48-46.52,6s-27.2,11.64-33,16.55c-4.91,4.21-10.12,6.09-9.82,3.3-1.54,3.5-2.56,6.9-3.88,10.19-3.38,8.46,5.86,7.53,5.86,7.53S101,65.24,142,68.32s74.51,37.26,81,46.49,9.55-1.84,9.55-1.84A99.38,99.38,0,0,0,229.84,101.27Z"/>
				<path class="cls-24" d="M30.29,190.59l8.32,19.1s22.17,34.17,95.76,34.8,106.24-70.21,102.55-93.92Z"/>
				<g class="cls-26">
					<path class="cls-27" d="M200,59.55a22.62,22.62,0,0,1,2,1.28c.59.41,1.26.9,2,1.46s1.36,1.26,2,1.95c.35.34.67.7,1,1s.58.73.87,1.08c.55.71,1,1.38,1.44,2a19.15,19.15,0,0,1,1.15,2.14,19.79,19.79,0,0,1-1.75-1.63c-.53-.47-1.14-1.05-1.75-1.69s-1.27-1.29-1.94-1.94l-1-1c-.32-.32-.59-.69-.92-1-.64-.62-1.2-1.25-1.68-1.78A23.36,23.36,0,0,1,200,59.55Z"/>
					<path class="cls-28" d="M185.76,50.23a19.29,19.29,0,0,1,2.13.69c.6.25,1.33.52,2.07.9s1.52.84,2.28,1.29a24.82,24.82,0,0,1,2.15,1.51,14.74,14.74,0,0,1,1.74,1.46,17.15,17.15,0,0,1,1.55,1.63,19.22,19.22,0,0,1-2-1c-.29-.18-.61-.35-.93-.53l-1-.58c-.36-.23-.73-.42-1.1-.66s-.71-.47-1.1-.68c-.74-.47-1.48-.92-2.16-1.4-.33-.23-.65-.47-1-.67s-.61-.42-.89-.62A18.6,18.6,0,0,1,185.76,50.23Z"/>
					<path class="cls-28" d="M174.65,45.54a8.52,8.52,0,0,1,1.5.13,17.42,17.42,0,0,1,3.11.83,16.16,16.16,0,0,1,2.87,1.56,9.36,9.36,0,0,1,1.17.95,11.5,11.5,0,0,1-1.49-.21,11.83,11.83,0,0,1-1.45-.4c-.51-.17-1-.38-1.58-.59a14.5,14.5,0,0,1-2.91-1.41A8,8,0,0,1,174.65,45.54Z"/>
					<path class="cls-29" d="M159.82,41.82a13.61,13.61,0,0,1,2,0,29,29,0,0,1,4.31.57c.76.18,1.52.42,2.23.65s1.36.51,1.91.76a13,13,0,0,1,1.79.89,18,18,0,0,1-2-.12c-.59-.06-1.27-.18-2-.32L167,44c-.38-.08-.75-.2-1.13-.27a34.89,34.89,0,0,1-4.18-1.14A15.92,15.92,0,0,1,159.82,41.82Z"/>
					<path class="cls-29" d="M145.78,40.44a11.5,11.5,0,0,1,1.84-.28,26.17,26.17,0,0,1,4-.05,23.26,23.26,0,0,1,4,.75,12,12,0,0,1,1.76.6,13.24,13.24,0,0,1-1.84.19c-.58,0-1.21,0-1.89,0s-1.39-.09-2.11-.16a27.77,27.77,0,0,1-4-.53A17.26,17.26,0,0,1,145.78,40.44Z"/>
					<path class="cls-13" d="M128,41a18.25,18.25,0,0,1,2.23-.55c.66-.13,1.46-.25,2.28-.35s1.75-.19,2.65-.25,1.83,0,2.67,0,1.66.11,2.32.18a19.1,19.1,0,0,1,2.26.37,21.25,21.25,0,0,1-2.24.43c-.66.1-1.46.18-2.29.25s-1.73.09-2.63.12-1.81.09-2.65.07-1.65,0-2.32,0A20.43,20.43,0,0,1,128,41Z"/>
					<path class="cls-13" d="M109.66,43.9a23.66,23.66,0,0,1,2.27-.87c.69-.24,1.52-.46,2.38-.7.45-.11.9-.24,1.36-.34s.93-.19,1.41-.29c1-.11,1.91-.25,2.84-.33s1.75-.12,2.5-.14a23.77,23.77,0,0,1,2.44.05,22.65,22.65,0,0,1-2.35.74c-.69.18-1.5.38-2.38.54s-1.83.34-2.78.48c-.47.07-.93.18-1.4.26s-.94.13-1.39.22c-.89.13-1.73.21-2.46.28A19.85,19.85,0,0,1,109.66,43.9Z"/>
					<path class="cls-13" d="M88.46,50.88s1-.65,2.6-1.49a24.74,24.74,0,0,1,2.77-1.3c1-.44,2.17-.9,3.31-1.29s2.3-.72,3.37-1c.55-.16,1.07-.27,1.59-.38l1.44-.28c1.77-.32,3-.42,3-.42s-1.09.54-2.76,1.19c-.42.17-.87.33-1.35.5s-1,.37-1.52.56c-1,.39-2.15.77-3.28,1.16-.58.16-1.13.38-1.68.56s-1.1.37-1.63.54c-1.07.35-2.07.65-2.91.91C89.64,50.65,88.46,50.88,88.46,50.88Z"/>
					<path class="cls-28" d="M69.09,62l.53-.59A17.23,17.23,0,0,1,71.12,60a27.25,27.25,0,0,1,2.29-1.82c.88-.61,1.83-1.21,2.79-1.82l1.45-.86c.51-.25,1-.47,1.49-.72,1-.46,1.89-.84,2.67-1.16a26.48,26.48,0,0,1,2.67-1s-.9.74-2.3,1.66c-.7.47-1.55,1-2.45,1.55-.45.25-.93.54-1.4.79s-1,.6-1.41.9c-1,.56-1.91,1.14-2.85,1.65-.46.26-.91.49-1.31.76l-1.18.69-1.79,1Z"/>
				</g>
				<path class="cls-30" d="M78.67,247.53a19.53,19.53,0,0,1-2.29-.49c-.68-.19-1.44-.41-2.27-.7s-1.67-.6-2.53-.95-1.68-.78-2.45-1.19-1.48-.8-2.09-1.17a15.42,15.42,0,0,1-1.94-1.31,22.84,22.84,0,0,1,2.27.58c.68.2,1.42.47,2.23.79s1.66.67,2.49,1,1.7.72,2.49,1.12,1.49.74,2.09,1.07A21.85,21.85,0,0,1,78.67,247.53Z"/>
				<path class="cls-18" d="M102.67,254.82s-1.26-.09-3.11-.39c-.91-.13-2-.33-3.12-.57-.58-.13-1.17-.24-1.77-.39s-1.19-.25-1.79-.44c-1.19-.38-2.36-.76-3.48-1.19s-2.11-.8-3-1.17c-1.73-.73-2.81-1.31-2.81-1.31s1.24.15,3.05.54c.91.21,2,.46,3.09.76s2.28.65,3.45,1c.59.19,1.21.33,1.79.49s1.16.34,1.71.49c1.12.33,2.17.68,3.05,1C101.52,254.28,102.67,254.82,102.67,254.82Z"/>
				<path class="cls-18" d="M124.25,257.81s-1.09.13-2.68.17c-.81,0-1.73,0-2.74,0-.5,0-1,0-1.55-.07s-1-.06-1.56-.14c-1.06-.18-2.12-.33-3.12-.54s-1.89-.42-2.68-.63a26.36,26.36,0,0,1-2.56-.79,24.2,24.2,0,0,1,2.68,0c.8,0,1.73.11,2.71.2s2,.25,3.08.39c.52.08,1.06.11,1.57.16s1,.15,1.53.21c1,.13,1.91.28,2.7.46A26.31,26.31,0,0,1,124.25,257.81Z"/>
				<path class="cls-17" d="M143.19,257.35a21.59,21.59,0,0,1-2.31.56c-.69.14-1.51.27-2.37.39s-1.8.2-2.74.27-1.87,0-2.77-.05-1.7-.1-2.41-.18a21.65,21.65,0,0,1-2.34-.38s.94-.23,2.34-.41c.69-.11,1.5-.19,2.38-.25s1.78-.09,2.72-.11c.46,0,.92-.05,1.38-.06s.92,0,1.36-.06c.87,0,1.69,0,2.39,0A23.07,23.07,0,0,1,143.19,257.35Z"/>
				<path class="cls-17" d="M159.08,254.45a12,12,0,0,1-1.62.79,25,25,0,0,1-3.7,1.15,23.35,23.35,0,0,1-3.91.41,12.27,12.27,0,0,1-1.79-.09,10.87,10.87,0,0,1,1.66-.7,24.25,24.25,0,0,1,3.72-1c.69-.14,1.38-.28,2-.39s1.26-.17,1.8-.2A11.88,11.88,0,0,1,159.08,254.45Z"/>
				<path class="cls-18" d="M175.14,248.85a15.53,15.53,0,0,1-1.79,1.15,34.16,34.16,0,0,1-4.15,2,31.36,31.36,0,0,1-4.49,1.19,18.48,18.48,0,0,1-2.1.29,16.42,16.42,0,0,1,1.85-1,38.58,38.58,0,0,1,4.23-1.72c.4-.13.77-.28,1.16-.41s.76-.28,1.14-.4c.76-.25,1.46-.46,2.07-.61A15.77,15.77,0,0,1,175.14,248.85Z"/>
				<path class="cls-18" d="M187.47,242.44a9.06,9.06,0,0,1-1.05,1.06,16.62,16.62,0,0,1-2.64,1.86,18.65,18.65,0,0,1-3,1.23,10,10,0,0,1-1.47.32,9.53,9.53,0,0,1,1.1-1,17.52,17.52,0,0,1,2.67-1.72A21.17,21.17,0,0,1,186,242.8,9.67,9.67,0,0,1,187.47,242.44Z"/>
				<path class="cls-30" d="M202.16,231.83a22.83,22.83,0,0,1-1.59,1.77c-.5.51-1.11,1.09-1.75,1.69-.35.28-.68.6-1,.89s-.71.61-1.09.89c-.8.54-1.58,1.08-2.35,1.55s-1.5.89-2.13,1.21a19.76,19.76,0,0,1-2.17,1s.65-.72,1.73-1.67c.53-.47,1.15-1,1.85-1.54s1.45-1.11,2.2-1.65c.4-.25.76-.56,1.13-.84s.74-.54,1.11-.81c.72-.51,1.4-1,2-1.33A18.19,18.19,0,0,1,202.16,231.83Z"/>
				<path class="cls-20" d="M216.9,216.16l-.3.66a18.13,18.13,0,0,1-1,1.64c-.21.34-.42.7-.69,1.07a7.65,7.65,0,0,1-.84,1.14c-.6.78-1.28,1.56-2,2.37l-1.07,1.15c-.36.36-.73.7-1.1,1-.72.67-1.41,1.26-2,1.76a24.48,24.48,0,0,1-2.12,1.55,25.9,25.9,0,0,1,1.57-2.13c.47-.62,1.06-1.3,1.72-2,.32-.37.65-.75,1-1.1s.65-.78,1-1.17c.67-.77,1.37-1.53,2.05-2.22.33-.35.69-.69,1-1s.58-.62.86-.91c.54-.55,1-1,1.35-1.32A5.37,5.37,0,0,1,216.9,216.16Z"/>
				<path class="cls-31" d="M252.33,136.46c0,.55,0,1.1-.06,1.64v.08c0,.84-.1,1.68-.2,2.49l-.12.86c0,.22-.06.43-.1.63a5.11,5.11,0,0,1-.1.59v0h0a.3.3,0,0,1,0,.14l-.06.37c-.08.51-.2,1-.31,1.51a1.53,1.53,0,0,0-.08.33c-.12.49-.27,1-.41,1.47s-.29,1-.45,1.43a2.74,2.74,0,0,1-.14.37,28,28,0,0,1-1.7,3.94c-.2.41-.43.8-.65,1.17a24.39,24.39,0,0,1-1.53,2.27c-.2.27-.39.51-.59.76a0,0,0,0,1,0,0,3.69,3.69,0,0,1-.39.41s0,0,0,0a11.8,11.8,0,0,1-2,1.82l-.7.45a3.11,3.11,0,0,1-.35.2,5.51,5.51,0,0,1-2.06.65,3.67,3.67,0,0,1-.82,0,3.62,3.62,0,0,1-.65-.1h0a5,5,0,0,1-.59-.2,2.92,2.92,0,0,1-.61-.33,5.36,5.36,0,0,1-.55-.39l0,0a6,6,0,0,1-.84-.9l-.06.37c0,.18-.08.43-.14.76-.12.55-.29,1.33-.51,2.27-.06.2-.1.43-.16.67v0c-.06.18-.1.37-.16.57a113.08,113.08,0,0,1-8,21.58,111.61,111.61,0,0,1-7.4,12.86c-.16.22-.33.47-.49.72a101.49,101.49,0,0,1-11.32,13.82c-.22.22-.45.47-.69.69a89.41,89.41,0,0,1-14.35,11.67,7.66,7.66,0,0,1-.74.49,86.47,86.47,0,0,1-10.16,5.68c-1.23.59-2.49,1.17-3.78,1.72l-.84.37h0c-1.61.65-3.27,1.31-5,1.9,0,0,0,0-.08,0-2.47.86-5,1.66-7.71,2.35a7.32,7.32,0,0,1-1,.25q-4.2,1.07-8.71,1.84c-2.15.37-4.27.69-6.38,1-1.45.2-2.9.37-4.33.53l-.76.08h0a170.57,170.57,0,0,1-17.25.94h-.84a148.73,148.73,0,0,1-17.56-1.06l-1-.12c-2.88-.37-5.66-.8-8.36-1.33,0,0,0,0,0,0-2.94-.55-5.76-1.19-8.5-1.9a6.66,6.66,0,0,1-.86-.22h0A123.66,123.66,0,0,1,69.83,230s0,0-.08,0c-.33-.12-.63-.29-1-.43,0,0-.06,0-.1,0l-.43-.18a2.88,2.88,0,0,0-.37-.16l-.67-.35c-2.15-1-4.19-2-6.11-3.11-2.92-1.59-5.62-3.21-8.05-4.82-.35-.22-.69-.45-1-.69a98.63,98.63,0,0,1-13.18-10.49l-.39-.39c-.53-.51-1-1-1.45-1.43-2-2-4-4.33-6-6.74-4.66-5.56-9.14-11.63-12-15.66,0,0,0,0,0-.06-.47-.65-.88-1.23-1.23-1.76s-.84-1.23-1.14-1.66c-.53-.72-.8-1.12-.8-1.12H15.6v0s0,0,0,0a0,0,0,0,1,0,0c-.31,0-.9,0-1.7-.12a1.07,1.07,0,0,1-.35,0l-.29,0a.31.31,0,0,0-.14,0l-.49-.06a1.19,1.19,0,0,0-.27,0c-.27,0-.55-.06-.82-.1l-.88-.18a27.24,27.24,0,0,1-3.25-.84c-.33-.12-.65-.25-1-.39a.64.64,0,0,1-.2-.1c-.27-.1-.53-.2-.78-.33s-.25-.1-.35-.16a4.32,4.32,0,0,0-.43-.22.08.08,0,0,1-.06,0l-.1-.06a5.34,5.34,0,0,1-.61-.41,4.94,4.94,0,0,1-.65-.49,4.52,4.52,0,0,1-.67-.57,7.06,7.06,0,0,1-1.1-1.37,8.5,8.5,0,0,1-1-2.13,5.06,5.06,0,0,1,1.14-5.38,4.26,4.26,0,0,1,1.47-.92,5.28,5.28,0,0,1,.86-.25,4.64,4.64,0,0,1,1.19-.08l0,0-.18-.18a6.39,6.39,0,0,1-.55-.61s0,0-.06-.06a12.7,12.7,0,0,1-.88-1.14v0a12.46,12.46,0,0,1-1.16-2c-.1-.27-.22-.53-.35-.82a8.41,8.41,0,0,1-.33-.86c0-.14-.08-.27-.12-.43a2.89,2.89,0,0,1-.14-.45v0A12.86,12.86,0,0,1,1,156c.16-2.17,1.37-3.19,2.58-3.19a1.13,1.13,0,0,1,.37,0h0a.14.14,0,0,1,.12,0s0,0,.06,0a2.35,2.35,0,0,1,.67.35,1.77,1.77,0,0,1,.29.27c.06,0,.1.08.14.12.53.59.82,1.14,1.25,1.61a1.93,1.93,0,0,0,.2.2,2.94,2.94,0,0,0,1.57.82l.35.08a2.39,2.39,0,0,0,.53.08l.37,0h.25a4.46,4.46,0,0,0,.74-.06,1.33,1.33,0,0,0,.41-.08,7.64,7.64,0,0,0,3.07-1.55l.49-.37a13.88,13.88,0,0,0,1.41-1.33c.31-.33.63-.67,1-1,0,0,0-.06.06-.08l.57-.67c.31-.39.63-.8,1-1.25l1-1.37c.39-.57.8-1.21,1.21-1.86.18-.29.39-.59.57-.92,1.23-2,2.51-4.33,3.86-7v0a.28.28,0,0,0,.06-.08v0c.33-.61.63-1.27,1-1.92s.53-1.08.78-1.64q2-4.17,4.17-9.32c.08-.2.16-.39.25-.57,1.61-3.8,3-7,4.17-9.79l.25-.57c.27-.65.55-1.29.8-1.88,1-2.39,1.94-4.41,2.76-6.21a.29.29,0,0,0,0-.12c.1-.2.2-.41.29-.59A84.1,84.1,0,0,1,47.9,91.72c.1-.16.23-.33.35-.49.39-.59.82-1.21,1.27-1.84l.18-.27,0,0a5.87,5.87,0,0,1,.49-.55,82,82,0,0,1,7.54-7.15l0,0c.84-.72,1.76-1.45,2.74-2.25l.12-.08c.27-.22.57-.45.88-.69L62,78c1.12-.86,2.35-1.76,3.64-2.68C68.11,73.57,70.91,71.77,74,70l.86-.49c.16-.1.31-.18.47-.27.45-.27.92-.51,1.41-.78,1.29-.72,2.62-1.39,4-2.06.59-.31,1.21-.59,1.84-.88q2.12-1,4.35-2c1.37-.57,2.78-1.12,4.23-1.68.74-.27,1.51-.55,2.29-.82a.29.29,0,0,1,.12,0s0,0,0,0l.78-.27.18-.06a.48.48,0,0,1,.16,0v0s0,0,0,0c.88-.31,1.78-.59,2.68-.86s1.8-.55,2.72-.8a.08.08,0,0,1,.06,0c.94-.25,1.86-.51,2.82-.74.78-.2,1.57-.39,2.37-.57l1.39-.31c1-.18,1.94-.39,2.94-.57a2.9,2.9,0,0,0,.41-.08,4.59,4.59,0,0,1,.74-.12c1.14-.2,2.31-.37,3.5-.55,1.82-.25,3.68-.45,5.58-.63a4,4,0,0,1,.49,0l2.51-.18c.84,0,1.68-.1,2.53-.12a5,5,0,0,1,.55,0s0,0,0,0l.92,0,.84,0c.88,0,1.76,0,2.64,0,4-.06,7.91,0,11.65.14a6,6,0,0,1,.86,0c.92,0,1.82.06,2.72.12,1.21,0,2.41.12,3.6.2a.26.26,0,0,1,.12,0l.25,0c1,.06,2,.14,3,.27a.17.17,0,0,1,.14,0c2.66.22,5.25.51,7.75.88h0c.33,0,.65.08,1,.14h0c2.15.31,4.23.67,6.25,1.08,1.12.2,2.25.45,3.33.69.82.18,1.66.37,2.45.59a.08.08,0,0,1,.06,0l.57.12a.65.65,0,0,1,.18.06.11.11,0,0,1,.1,0c.43.1.84.2,1.27.33s1,.27,1.55.43a1.09,1.09,0,0,1,.2.06l.16.06q1.41.4,2.82.86c1,.33,2.06.69,3.07,1.08s1.82.67,2.7,1a7.48,7.48,0,0,1,.72.29l.16.06,1,.43a6.12,6.12,0,0,1,.84.37h0c1.43.63,2.82,1.31,4.17,2,.59.29,1.17.61,1.74.94.39.2.76.43,1.14.67.7.37,1.37.8,2,1.23a55.57,55.57,0,0,1,4.6,3.17c.25.2.51.41.78.61h0c.27.2.55.43.82.65.63.51,1.29,1,1.9,1.57s1.25,1.08,1.86,1.66,1.35,1.29,2,2a3.45,3.45,0,0,1,.39.39c.55.53,1.06,1.08,1.55,1.64s1.08,1.19,1.57,1.8.94,1.12,1.39,1.7c.2.22.39.47.57.69.33.41.63.82,1,1.25s.63.82.94,1.25c.45.63.9,1.27,1.35,1.92.1.16.22.33.33.51a3.57,3.57,0,0,1,.23.37.53.53,0,0,1,.1.12c.43.65.86,1.31,1.29,2s1,1.72,1.55,2.6c.12.22.25.45.37.65l.1.16.49.86c.16.29.33.59.47.86a.28.28,0,0,0,.06.08,1.21,1.21,0,0,0,.08.12c.1.18.2.35.29.51.49.88,1,1.72,1.45,2.53,1,1.76,1.9,3.35,2.74,4.8a1.79,1.79,0,0,0,.12.2.06.06,0,0,0,0,0c.29.49.55,1,.82,1.43,0,0,0,0,0,.06a3.31,3.31,0,0,1,.2.37c0,.06.06.1.08.16s0,0,0,.06q.4.71.8,1.35c.1.18.2.37.31.53a.52.52,0,0,1,.08.14c.06.1.12.2.16.29a0,0,0,0,1,0,0c.37.67.74,1.27,1,1.82,0,0,0,0,0,0,.16.27.33.51.47.76a.28.28,0,0,0,.06.08v0c.06.1.12.18.16.27l.06.1c.27.41.51.8.76,1.12.41.59.76,1.06,1.06,1.45a3.3,3.3,0,0,0,1,.92c1.12.59,1.61-1.12,2.51-4.15.06-.16.1-.33.16-.49a.29.29,0,0,0,0-.14c.08-.22.16-.45.22-.67.27-.84.57-1.76.92-2.74,0,0,0,0,0,0,.1-.31.23-.63.35-1a1,1,0,0,1,.08-.2.32.32,0,0,0,0-.08,1.38,1.38,0,0,1,.25.12l.35.2a14.12,14.12,0,0,1,3.31,2.8,4.45,4.45,0,0,1,.51.55c.14.16.29.33.43.51a7.32,7.32,0,0,1,.47.63c.1.12.2.25.31.39a.07.07,0,0,1,0,0c.37.51.74,1.06,1.1,1.68a.51.51,0,0,1,.08.14c.1.16.2.33.29.49v0s.06.1.1.14l.76,1.41c.1.22.2.45.31.69.37.76.72,1.59,1.06,2.47v0l.06.12v0c.22.59.43,1.23.63,1.88,0,0,0,0,0,0a5.81,5.81,0,0,1,.18.55c0,.08.06.16.08.25v0c.47,1.61.9,3.37,1.27,5.33v0s0,.1,0,.16v0a.06.06,0,0,0,0,0,1,1,0,0,0,0,.25v0a1,1,0,0,1,0,.27c.06.35.12.69.16,1.06s.12.74.16,1.1a32.37,32.37,0,0,1,.31,3.94v.31C252.33,135.62,252.35,136,252.33,136.46Z"/>
				<path class="cls-32" d="M61.72,107.14c13.17-12.94,28.4-5.08,40.2-.46,3.52,1.39,13.54,7.08,30.31,2.15s18.49-4.62,25.57-.32,16-4.92,30.49-2,21.56,5.85,27.86,1.69,11.24-2,14.31,1.69a2.79,2.79,0,0,0,.52.47c-.73-1.26-1.59-2.73-2.55-4.42-.06-.07-.12-.12-.19-.21-19.16-19.39-46.89-14.08-83.37-13.85-32.58.21-29.25-8.48-55.12-5.69s-36,18.47-36,18.47l-14.51,2.15c-1.08,2.36-2.32,5.15-3.81,8.67C41.86,116.17,53,115.74,61.72,107.14Z"/>
				<path class="cls-32" d="M107,75c16.87,4.39,32.81,14,58.88,9.24,30.5-5.56,55.44,13.38,62.37,21.46l.05,0c-1.66-2.88-3.63-6.38-6.06-10.58C205.37,65.8,177.65,54,127.76,54.94a111.75,111.75,0,0,0-70,26.46l.26-.13C70.5,75,90.13,70.65,107,75Z"/>
				<path class="cls-32" d="M69.11,135.55c3.91,9.7,26.56,12.23,50.57,9.25s11.09-9.48,38.81-6,37.64-3,45.5-8.76,24,5,31.66-13.09c-.76-.39-1.86-1.86-3.59-4.71-2.18-1.41-11.07-3.6-16.69-1.37-5.85,2.3-21,8.93-39.43,5.08s-26.61,1.23-35.71,4.92-15.08,9.09-37.41,2.78-28-11.23-41.11.93c-8.74,8.11-22.37,4.24-30.48.75-.09.18-.15.35-.24.55-1.46,3.44-2.85,6.54-4.18,9.34a39.2,39.2,0,0,0,11.81,1.75C54.55,136.92,65.17,125.84,69.11,135.55Z"/>
				<path class="cls-32" d="M235.17,157.25c-12.49,9.24-17.34,11.32-28.89,14.33s-13.38,15.25-24.7,18.7-29.56.46-43.88,7.17S113,203.2,99.36,200.89s-18.93-8.07-35.56,1.85c-7.43,4.44-17.28,5.75-25.94,5.93a89.68,89.68,0,0,0,7.82,6.87c9.37-.68,19.3-.61,23.43,2,8.77,5.54,18.47,12.69,43.65,6.92s30.47-10.63,52.18-8.06,40.43-10.87,51-25.65,11.78-22.17,20.1-32.56c2.91-3.64,6.64-3.74,10.28-2.38a24.7,24.7,0,0,0,1.52-2.27C242.55,154,238,155.17,235.17,157.25Z"/>
				<path class="cls-32" d="M252.29,138.18c0,.84-.12,1.68-.22,2.49l-.12.86c0,.22,0,.43-.08.65l-.12.57v0a.35.35,0,0,1,0,.14v0a2.14,2.14,0,0,1-.08.35c-.08.51-.2,1-.31,1.51a1.53,1.53,0,0,0-.08.33c-.12.49-.27,1-.41,1.47s-.29,1-.45,1.43l-.12.37h0c-2.58.18-5,.39-7.22.59h0l-.53.06h0c-1.23.1-2.37.22-3.5.37h-.06c-.74.08-1.45.16-2.15.27-2.74.35-5.19.74-7.38,1.17l-.37.06h0a46,46,0,0,0-10.57,3.23h0a24.1,24.1,0,0,0-5.62,3.56c-7.62,6.48-18.95,9.71-25.18,9.24s-15.23-2.31-26.78,6.23-21.73,6.7-37,8.54c-9.32,1.14-16.74.2-25.32-.69-4.09-.45-8.46-.86-13.45-1h0c-1.53-.06-3.13-.1-4.8-.1H80c-.76,0-1.49,0-2.17,0-1.55,0-2.92,0-4.13-.08-9.87-.31-9.5-1.51-24.4-3-1.78-.16-3.78-.37-6-.55-8.58-.74-16.53,2.06-23.26,6-.76.43-1.47.88-2.19,1.35l-.1.06c-.45-.65-.84-1.23-1.14-1.66-.49-.74-.78-1.14-.78-1.14l-.18,0h-.1c-.16,0-.53,0-1-.06a.57.57,0,0,1-.18,0h0a1,1,0,0,1-.25,0,3,3,0,0,1-.43,0H13.5a30,30,0,0,1-6.13-1.35.52.52,0,0,1-.14,0l-.51-.18-.51-.18c-.27-.1-.53-.2-.78-.33s-.25-.1-.35-.16a4.32,4.32,0,0,0-.43-.22l-.78-.49a4.94,4.94,0,0,1-.65-.49,4.52,4.52,0,0,1-.67-.57,7.06,7.06,0,0,1-1.1-1.37,10.25,10.25,0,0,1-1-2.13,5.06,5.06,0,0,1,1.14-5.38,4.26,4.26,0,0,1,1.47-.92,3,3,0,0,1,.86-.25.38.38,0,0,1,.14,0,1.58,1.58,0,0,1,.31,0,1.92,1.92,0,0,1,.59,0h.16a2,2,0,0,0-.23-.18l-.55-.61s0,0-.06-.06c-.25-.31-.55-.69-.88-1.14v0a16.64,16.64,0,0,1-1.16-2c-.1-.27-.22-.53-.35-.82a8.41,8.41,0,0,1-.33-.86c0-.14-.08-.27-.12-.43L1.34,160l0,0v0A12.86,12.86,0,0,1,1,156c.16-2.17,1.37-3.19,2.58-3.19a1.13,1.13,0,0,1,.37,0h0a.14.14,0,0,1,.12,0s0,0,.06,0a2.35,2.35,0,0,1,.67.35,1.77,1.77,0,0,1,.29.27c.06,0,.1.08.14.12.53.59.82,1.14,1.25,1.61a1.93,1.93,0,0,0,.2.2,2.94,2.94,0,0,0,1.57.82,3.24,3.24,0,0,1-.59-.25,4.23,4.23,0,0,0,.94.31l.53.1.37,0h.25a4.46,4.46,0,0,0,.74-.06l.41-.08a8.35,8.35,0,0,0,3.07-1.55l.49-.37c.45-.39.92-.84,1.41-1.33.31-.33.63-.67,1-1,0,0,0-.06.06-.08l.57-.67c.31-.39.63-.8,1-1.25l1-1.37c.39-.57.8-1.21,1.21-1.86.18-.29.39-.59.57-.92,1.23-2,2.51-4.33,3.86-7v0a.28.28,0,0,0,.06-.08v0c.33-.61.63-1.27,1-1.92,1.08.1,2.17.25,3.25.41.2,0,.41,0,.61.08,1.68.25,3.37.55,5,.92,2.29.49,4.56,1.08,6.74,1.78.45.12.9.27,1.35.41,1.88.63,3.7,1.33,5.44,2.11A44.78,44.78,0,0,1,57,147.17a28,28,0,0,1,2.88,2.31c.25.22.51.45.78.67a20.93,20.93,0,0,0,3.45,2.23,43.86,43.86,0,0,0,9.44,3.56c1.43.37,2.94.72,4.5,1,.53.1,1.06.2,1.61.29l0,0,0,0s0,0,0,0l.27,0a4.77,4.77,0,0,0,.53.08,2.63,2.63,0,0,0,.39.08l.74.12a2.26,2.26,0,0,1,.37,0l.35.06.22,0,.41.06a5.13,5.13,0,0,0,.55.08,2,2,0,0,0,.35,0h0a1.79,1.79,0,0,0,.35,0l.1,0,.1,0,.18,0h0c.55.08,1.12.14,1.7.2l.31,0c1.35.14,2.72.27,4.09.37l.27,0h0c2.39.16,4.84.27,7.32.29.59,0,1.19,0,1.78,0h0c1.8,0,3.62,0,5.44-.1h0c1.35-.06,2.7-.12,4-.2l1.14-.1a.4.4,0,0,0,.16,0h0s.08,0,.12,0h0a5.27,5.27,0,0,0,.59-.06h.2a.07.07,0,0,0,0,0,3.83,3.83,0,0,0,.69-.06.07.07,0,0,1,0,0l.06,0a1.54,1.54,0,0,0,.31,0,4.35,4.35,0,0,0,.51-.06,4,4,0,0,0,.49,0c1.27-.12,2.53-.27,3.78-.41a106.62,106.62,0,0,0,19.85-4.35c14-4.62,12.32-3.7,41.72-2.15,29.15,1.51,33.79-16.88,52.3-15h0a.15.15,0,0,1,.08,0,3,3,0,0,1,.43,0c1.61.2,3.43.39,5.4.57,2.27.22,4.7.45,7.3.65h0c2.31.2,4.74.39,7.22.55Z"/>
				<path class="cls-33" d="M50.16,87.14S90.71,48,156.29,59.71s76.46,55.75,76.46,55.75-20.63-60.34-81.9-59.73C150.85,55.73,94.81,43.72,50.16,87.14Z"/>
				<path class="cls-34" d="M126.13,93.29c8.46,1.81,27,2.78,45.52.47s22.86,6.69,10.6,9.23-20.08,6-25.85,1.84-15.94-1.61-25.64,1.4-20.55,2.53-31.88-5.32S100.27,87.75,126.13,93.29Z"/>
				<path class="cls-35" d="M126.6,128.86c2.69-1.35,20.55-9.47,32.11-10.38s18,3.92,32.32,2.07,3.47,16.62-17.32,16.15-25.41-4.59-35.8-.23S107.44,138.56,126.6,128.86Z"/>
				<path class="cls-36" d="M128.91,158.89c7.65-2.72,21.72-8.09,31-4.85s19.86,4.15,33.49-.71,6.46,11.1-15.93,10.42-21.72,13.38-43.64,13.84-25.87-4.61-10.39-9.23S116,163.51,128.91,158.89Z"/>
				<path class="cls-16" d="M236.08,158.19l-.06.37a4,4,0,0,1,.41-2.43c.55,2.84-.55-5.17,5.6-6.93,5.29-1.55,7.38-3.17,7.91-5.17s-.29-5.4-4.93-6.4A11.66,11.66,0,0,0,250,126c-1-6.91-6.66-12.1-8.16-8.87-1.92,4.29-5,3.78-8.07-1.66-.35-.61-.67-1.27-1-2l-.06-.1-.06-.18c.53.94,3.41,5.76,4.62,2.17l1-3a.29.29,0,0,0,0-.14c.61-1.76,1.27-3.7,1.51-4.41.06-.18.1-.29.1-.29a1.38,1.38,0,0,1,.25.12c1.47.78,9.48,5.78,11.77,23.36C254.56,150.34,241.86,165.81,236.08,158.19Z"/>
				<path class="cls-37" d="M78,197.38s-8.62,22.46,13.24,30.18,69.26,14.77,109-9.26c0,0-48.54,45.2-131.58,11.21,0,0-1.91-7.23.29-13.36S76.8,202.39,78,197.38Z"/>
				<path class="cls-33" d="M49.7,89.13s37.88-1.84,89.61-16.46c57.77-16.34,84.31,26.29,96.34,44.25,0,0-24.3-62.88-92.19-62.42C143.46,54.49,82.5,49.88,49.7,89.13Z"/>
				<path class="cls-24" d="M77.46,154.68s4.67,21.24,16.9,22.66,21.46-16.27,21.24-29.16c0,0-7.59,11.16-19.84,11.28S77.46,154.68,77.46,154.68Z"/>
				<path class="cls-15" d="M80.39,154.47s6,3,13.54-9.19,10.68-17.06,15.69-14.32,9.49,22.1.34,34.58-19.31,1.52-23-2.42S76.8,153.07,80.39,154.47Z"/>
				<path class="cls-15" d="M115.61,145.25a36.15,36.15,0,0,0-.74-5.25c-1-4.6-2.9-8.2-4.91-9.36a.43.43,0,0,0-.12-.08,5.78,5.78,0,0,0-2.78-.8,4.13,4.13,0,0,0-1.7.35h0a.07.07,0,0,0,0,0,5.26,5.26,0,0,0-1.43.8,2.66,2.66,0,0,0-.41.31.07.07,0,0,1,0,0,2.14,2.14,0,0,1-.22.18c-2.68,2.31-5.56,6.95-9.67,13.61-.14.22-.27.43-.41.63a29.48,29.48,0,0,1-2.82,3.76c-3,3.52-5.6,4.58-7.3,4.82H83a.69.69,0,0,1-.2,0s0,0,0,0h-.14a2.6,2.6,0,0,1-.39,0,3.35,3.35,0,0,1-1.59-.29c-1.23-.47-1.57,0-1.66.16a.2.2,0,0,0,0,.18.07.07,0,0,0,0,.06v0a1,1,0,0,0,.06.33v0a.16.16,0,0,1,0,.1l0,0a.16.16,0,0,0,0,.08,3.39,3.39,0,0,0,.39.65,0,0,0,0,0,0,0,3.68,3.68,0,0,0,.29.39c.29.39.69.84,1.16,1.39.86.94,2,2.13,3.5,3.66l1,1a0,0,0,0,1,0,0c.43.43.82.86,1.21,1.25l.08.08a36.21,36.21,0,0,0,6.77,5.95,16.58,16.58,0,0,0,2.39,1.25s0,0,0,0a1.55,1.55,0,0,0,.27.12l.16.06a11.74,11.74,0,0,0,2.64.74,9.69,9.69,0,0,0,1.53.12c3.62,0,6.93-2,9.83-6a26.36,26.36,0,0,0,3.82-7.56,1.31,1.31,0,0,0,0-.14.48.48,0,0,0,0-.16A34.65,34.65,0,0,0,115.61,145.25ZM113.24,158a.29.29,0,0,1,0,.12.92.92,0,0,1-.06.22,25.32,25.32,0,0,1-3.56,6.93,21.13,21.13,0,0,1-1.41,1.72c-.31.33-.59.63-.9.92a12.14,12.14,0,0,1-2.27,1.7,8.7,8.7,0,0,1-3.11,1.14s-.06,0-.08,0a2,2,0,0,1-.35,0s0,0,0,0a7,7,0,0,1-.94.06,6.85,6.85,0,0,1-1.45-.14c-3.39-.53-6.52-2.8-8.85-5a.28.28,0,0,1-.08-.06c-1.1-1-2-2-2.74-2.76l-.1-.08c-.65-.72-1.43-1.51-2.21-2.31-.53-.57-1.19-1.23-1.8-1.88l0,0-.86-.88-.61-.69-.18-.18c-.33-.37-.65-.74-.9-1,0,0,0,0,0,0s-.18-.25-.27-.37h0c-.16-.22-.29-.41-.39-.57a.85.85,0,0,1,.25.08,4.62,4.62,0,0,0,2,.37c1.72,0,4.7-.72,8.3-4.6a32.71,32.71,0,0,0,3.72-4.93l.12-.2c4.31-7,7.15-11.43,9.63-13.47a5.76,5.76,0,0,1,2.06-1.21h0a3.09,3.09,0,0,1,1-.16,3.32,3.32,0,0,1,.63.06,5.29,5.29,0,0,1,1.72.61,3.52,3.52,0,0,1,.67.49,8.07,8.07,0,0,1,1,1.12s0,0,0,0a20.53,20.53,0,0,1,2.78,6.85v0a1.7,1.7,0,0,1,.08.31,37.22,37.22,0,0,1,.78,9.12v.22A31.38,31.38,0,0,1,113.24,158Z"/>
				<path class="cls-38" d="M78.64,154.37s6,3,13.54-9.19,10.68-17.07,15.69-14.33,9.49,22.1.33,34.58S88.9,167,85.18,163,75,152.94,78.64,154.37Z"/>
				<path class="cls-15" d="M77.6,154.28a.12.12,0,0,0,0,.08l0,0a.88.88,0,0,1,0-.1S77.6,154.26,77.6,154.28Zm.06-.08v0l0,0Zm0,.29v0a1.87,1.87,0,0,0,.14.29C77.7,154.67,77.66,154.59,77.62,154.49Zm.25.49a0,0,0,0,0,0,0v0Zm0,0h0a.33.33,0,0,0-.08-.14C77.78,154.87,77.82,154.92,77.82,155Zm.37.51a.8.8,0,0,0-.16-.2,1.81,1.81,0,0,0,.25.35l.08.08Zm2.7-.8,0,0s0,0,0,0Zm.12,0h.1l.18,0A1.38,1.38,0,0,1,81,154.65Zm33.32-9.28a35.24,35.24,0,0,0-.82-5.68.4.4,0,0,1,0-.14c-.25-1-.53-1.92-.86-2.86a22.15,22.15,0,0,0-1.12-2.6c-.18-.35-.37-.69-.57-1,0,0,0,0,0-.06a10.24,10.24,0,0,0-.8-1.12l-.14-.18a6.89,6.89,0,0,0-1.1-1.06s0,0-.06,0c-.2-.14-.35-.22-.51-.33s-.31-.14-.43-.2l-.31-.12a1.83,1.83,0,0,0-.47-.16,7.53,7.53,0,0,0-.92-.22,4.7,4.7,0,0,0-1.51,0,5.42,5.42,0,0,0-1.41.45,9.7,9.7,0,0,0-1.19.74,10.51,10.51,0,0,0-1,.9,7.8,7.8,0,0,0-.9.94,36.93,36.93,0,0,0-2.94,4c-.39.61-.78,1.21-1.12,1.8-1.29,2-2.45,4-3.54,5.87-.27.45-.53.9-.82,1.35a30.72,30.72,0,0,1-3.56,4.82,14.71,14.71,0,0,1-4.6,3.54,9.11,9.11,0,0,1-.94.39h-.06c-.16.06-.29.08-.43.12a1.47,1.47,0,0,0,.39-.08.6.6,0,0,0,.18,0s0,0,0,0a7.37,7.37,0,0,0,.86-.33,15.9,15.9,0,0,0,4.66-3.47,32,32,0,0,0,3.82-4.91c.27-.37.51-.76.78-1.14.12-.18.25-.37.35-.55.25-.35.47-.67.72-1v0c1.21-1.84,2.51-3.82,3.94-5.8a34.82,34.82,0,0,1,3-3.74,8.68,8.68,0,0,1,.88-.86,6.29,6.29,0,0,1,.92-.74c.14-.1.29-.2.43-.29s.18-.1.29-.14a.07.07,0,0,0,0,0c.1,0,.18-.1.27-.14a4.19,4.19,0,0,1,1.08-.27.18.18,0,0,1,.1,0h0a3.48,3.48,0,0,1,.92,0,.4.4,0,0,1,.14,0h0l.06,0c.1,0,.23.06.37.12a3.39,3.39,0,0,1,.33.12.43.43,0,0,1,.2.08,1.7,1.7,0,0,1,.27.14l.22.1a4,4,0,0,1,.53.37,6.2,6.2,0,0,1,.76.84l.12.18a4.56,4.56,0,0,1,.27.41h0l.12.18a16,16,0,0,1,1.37,2.78c.12.33.25.67.35,1,.16.51.31,1,.45,1.53,0,.16.08.33.12.51a33.5,33.5,0,0,1,.92,6.23c0,.78.06,1.53.06,2.31,0,.43,0,.84,0,1.27v.31c0,.84-.1,1.7-.23,2.55v0a32.59,32.59,0,0,1-1.41,6.44s0,.06,0,.1a.08.08,0,0,1,0,.06c-.1.29-.2.57-.33.86v0a28.77,28.77,0,0,1-1.57,3.41s0,0,0,0l-.61,1c-.06.08-.12.18-.18.29a25.25,25.25,0,0,1-1.63,2.25s0,0,0,0c-.22.27-.47.55-.72.8s-.51.51-.78.76a10.94,10.94,0,0,1-1.68,1.27h0a6.84,6.84,0,0,1-1.47.8,8.66,8.66,0,0,1-2.25.57,2.1,2.1,0,0,1-.51,0,7.57,7.57,0,0,1-1.8,0,3.25,3.25,0,0,1-.61-.12h0a12,12,0,0,1-3.15-1.08,24.36,24.36,0,0,1-4-2.62c-.51-.41-1-.82-1.47-1.27a2,2,0,0,1-.23-.2c-1.39-1.27-2.62-2.6-3.76-3.76-1.59-1.57-3-3-4.07-4.17a1.31,1.31,0,0,0-.18-.16v0s0,0,0,0a1.07,1.07,0,0,0-.2-.22c-.33-.39-.65-.74-.94-1.06a2.3,2.3,0,0,0,.2.27l.9,1,0,0,.16.2c1.1,1.21,2.49,2.6,4,4.27s3.19,3.56,5.31,5.44a23.05,23.05,0,0,0,3.5,2.58,13,13,0,0,0,4.44,1.72,9.21,9.21,0,0,0,1.84.18h.67a10.07,10.07,0,0,0,2-.41.06.06,0,0,0,.08,0v0a3.29,3.29,0,0,0,.43-.1,11.82,11.82,0,0,0,2.82-1.53,12.37,12.37,0,0,0,1.49-1.25.07.07,0,0,1,0,0l.1-.1c.33-.31.63-.63.94-1a21.08,21.08,0,0,0,2.51-3.31s0,0,0-.06a25.27,25.27,0,0,0,2.37-4.91c.06-.18.14-.37.2-.57,0,0,0,0,0-.06s.06-.16.08-.25a31.5,31.5,0,0,0,1.53-8.28v0a2,2,0,0,0,0-.35.35.35,0,0,0,0-.14c0-.49,0-1,0-1.49C114.43,147,114.39,146.19,114.32,145.37Zm-32.4,9.12a1.1,1.1,0,0,0,.2-.06c-.22.06-.45.1-.65.14A2.91,2.91,0,0,0,81.93,154.49Z"/>
				<path class="cls-33" d="M107.39,131.44a4.15,4.15,0,0,0-4.39-.14c5.1,3.26,11.23,20.37,4.59,33.31a20.13,20.13,0,0,1-2,3.13,18.11,18.11,0,0,0,2.12-2.52C116.32,153,112.1,134.11,107.39,131.44Z"/>
				<path class="cls-15" d="M77.77,154.15a11.25,11.25,0,0,0,1.66.89,10.12,10.12,0,0,0,2,.65,9.62,9.62,0,0,0,2.73.23,9.36,9.36,0,0,0,3.09-.79,11.29,11.29,0,0,0,1.51-.9c.24-.19.48-.36.73-.54l.68-.62a28.41,28.41,0,0,0,2.64-2.89c.85-1,1.71-2.12,2.54-3.2,1.71-2.14,3.39-4.33,5-6.29a44.23,44.23,0,0,1,4.94-5.08,11.16,11.16,0,0,1,4.33-2.49,4.89,4.89,0,0,1,1.41-.12l.48.05-.48,0a5.25,5.25,0,0,0-1.36.26,11.64,11.64,0,0,0-4,2.7,52.39,52.39,0,0,0-4.67,5.2c-1.61,2-3.26,4.18-4.94,6.36-.86,1.08-1.72,2.15-2.6,3.18a34.73,34.73,0,0,1-2.74,2.92l-.75.66c-.26.18-.54.38-.8.54a13,13,0,0,1-1.64.9,9.76,9.76,0,0,1-3.34.69,9.1,9.1,0,0,1-2.85-.39,12.65,12.65,0,0,1-2-.83A8.84,8.84,0,0,1,77.77,154.15Z"/>
				<path class="cls-15" d="M114,139.93a4.2,4.2,0,0,0-.44-.21,5.76,5.76,0,0,0-1.28-.37,5.23,5.23,0,0,0-2,.08,6.25,6.25,0,0,0-2.26,1.19,10.89,10.89,0,0,0-2.08,2.28c-.71.92-1.41,1.91-2.17,2.93s-1.54,2.07-2.38,3.11S99.64,151,98.66,152a29.62,29.62,0,0,1-3.08,2.78c-.56.39-1.13.78-1.69,1.14a5.43,5.43,0,0,1-.89.5c-.31.14-.61.3-.89.44l-1,.45-.88.26-.86.26L89,158l-.47.06a16.94,16.94,0,0,1-1.83.21c-.56-.05-1.14-.05-1.66-.12s-1-.23-1.49-.34l-1.26-.54a12.52,12.52,0,0,1-1.84-1.16,9.06,9.06,0,0,1-1.09-.85l-.37-.31s.57.34,1.65.85c.51.27,1.19.52,1.93.82l1.22.33,1.36.16c.48,0,1-.06,1.49-.08a13.17,13.17,0,0,0,1.51-.3l.41-.08.4-.16.85-.33.86-.32c-.11.05,0,0,0,0l0,0h0l.05,0,.09-.06.2-.09.4-.22.8-.44a3.86,3.86,0,0,0,.79-.49c.49-.36,1-.73,1.52-1.09a31.3,31.3,0,0,0,2.86-2.67c.94-.9,1.78-1.93,2.67-2.92l2.46-3c.8-1,1.62-1.91,2.35-2.79a11.64,11.64,0,0,1,2.55-2.28,6.43,6.43,0,0,1,2.74-1,4.78,4.78,0,0,1,2.22.26,4.55,4.55,0,0,1,1.25.62A3.66,3.66,0,0,1,114,139.93Z"/>
				<path class="cls-15" d="M115.41,149.77a1.61,1.61,0,0,0-.36-.15,5.15,5.15,0,0,0-1.08-.25c-.23,0-.5,0-.79,0s-.58.05-.92.09a4,4,0,0,0-1,.24,7.46,7.46,0,0,0-1.11.37l-1.12.55a7.5,7.5,0,0,0-1.13.74c-.76.49-1.55,1.13-2.41,1.73a37,37,0,0,1-5.76,3.11c-1,.45-2.07.81-3.11,1.18a31.16,31.16,0,0,1-3.11.83,19.82,19.82,0,0,1-3,.47,17.72,17.72,0,0,1-2.71.06c-.42,0-.82-.09-1.2-.11s-.73-.16-1.08-.25l-.48-.11c-.14-.07-.29-.11-.41-.17l-.77-.3c-.43-.2-.73-.45-1-.57l-.34-.22a2.6,2.6,0,0,0,.36.18c.24.1.56.29,1,.45l.77.22.43.12a3.92,3.92,0,0,0,.47.06,9.23,9.23,0,0,0,1.05.13l1.16,0a12.5,12.5,0,0,0,1.27,0,10.41,10.41,0,0,0,1.35-.18c.92-.11,1.88-.35,2.88-.57.47-.15,1-.25,1.47-.42l1.52-.47c1-.37,2-.76,3-1.19a40.43,40.43,0,0,0,5.68-2.93c.43-.25.83-.58,1.26-.84l1.24-.76a6.22,6.22,0,0,1,1.23-.69c.42-.2.83-.35,1.22-.52a6,6,0,0,1,1.18-.32,3.57,3.57,0,0,1,1.08-.15,8.83,8.83,0,0,1,1,0l.81.12a4.9,4.9,0,0,1,1.06.37A1.76,1.76,0,0,1,115.41,149.77Z"/>
				<path class="cls-15" d="M113.55,157.87a3.26,3.26,0,0,1-.29.2c-.2.12-.48.32-.86.52a21.07,21.07,0,0,1-3.32,1.4c-.72.22-1.49.47-2.33.65a25.43,25.43,0,0,1-2.65.49c-.92.1-1.92.27-2.87.3s-2,.08-3,.1-2,0-2.95-.11-1.94-.16-2.87-.29-1.8-.3-2.65-.48-1.61-.42-2.34-.66a12.56,12.56,0,0,1-3.27-1.54,2.8,2.8,0,0,1-.94-1l.26.23a3.36,3.36,0,0,0,.86.45,17.13,17.13,0,0,0,3.36.85c.7.11,1.48.22,2.31.32s1.69.16,2.59.23,1.81.08,2.77.11,1.9.06,2.86.06,1.93,0,2.89,0,1.85-.09,2.77-.14,1.77-.16,2.58-.22,1.6-.23,2.32-.31,1.37-.26,1.94-.39,1.09-.22,1.48-.35A9.63,9.63,0,0,0,113.55,157.87Z"/>
				<path class="cls-15" d="M110.37,163.9s-.48.1-1.31.21-2.06.27-3.51.34-3.18.11-5,0a40,40,0,0,1-5.7-.71c-1-.19-1.92-.43-2.85-.69a23.14,23.14,0,0,1-2.68-.93,22.05,22.05,0,0,1-4.42-2.41l-.86-.62c-.25-.23-.47-.44-.72-.63-.44-.39-.77-.79-1.07-1.1-.57-.63-.88-1-.88-1s.36.32,1,.9c.34.25.7.62,1.19.95s1,.7,1.62,1.1,1.3.75,2,1.08a25.05,25.05,0,0,0,2.39,1c.84.32,1.72.59,2.63.84s1.85.47,2.78.64,1.89.35,2.82.47,1.88.25,2.77.32c1.79.15,3.49.27,4.94.28s2.66,0,3.5,0Z"/>
				<path class="cls-15" d="M108.74,166.63s-.08.11-.27.31a6.56,6.56,0,0,1-.87.73,7.54,7.54,0,0,1-1.57.9,7.29,7.29,0,0,1-1,.4,5.23,5.23,0,0,1-1.21.28,11.75,11.75,0,0,1-2.8.22l-1.52-.13c-.5-.06-1-.19-1.55-.31a6.92,6.92,0,0,1-.81-.18c-.26-.07-.51-.15-.79-.25-.53-.17-1.05-.33-1.58-.54l-1.55-.7a11.49,11.49,0,0,1-1.52-.76,33.71,33.71,0,0,1-2.87-1.79c-.46-.31-.91-.63-1.34-1a13.89,13.89,0,0,1-1.27-1l-2.3-2c-.73-.69-1.32-1.33-1.91-1.93-2.32-2.41-3.74-4.11-3.74-4.11s1.86,1.24,4.45,3.33l2.09,1.66c.76.54,1.59,1.11,2.39,1.72s1.73,1.14,2.62,1.77,1.83,1.1,2.76,1.64a13.48,13.48,0,0,0,1.43.75c.49.25,1,.46,1.44.7s1,.4,1.45.57l.72.27c.24.09.49.15.72.22.47.12.94.28,1.42.39s.91.15,1.38.25a14.15,14.15,0,0,0,2.56.11,9.31,9.31,0,0,0,1.14-.11,6.7,6.7,0,0,0,1-.19,8.69,8.69,0,0,0,1.62-.54A6.29,6.29,0,0,0,108.74,166.63Z"/>
				<path class="cls-24" d="M97.78,168c-8.44-3.37-4.35-7.82-4.35-7.82-5.95-1.12-.11-4.6-.11-4.6-5.47,2,.36-5.22.36-5.22s-6.58,2.73-1.61-4A13,13,0,0,0,94,142.64l-1.58,2.54c-7.52,12.14-13.52,9.19-13.52,9.19-3.6-1.42,2.85,4.71,6.54,8.64s13.85,14.89,23,2.42a25.94,25.94,0,0,0,3.66-7.18C108,165.46,102.52,169.88,97.78,168Z"/>
				<g class="cls-26">
					<path class="cls-13" d="M93.79,147.81A21.34,21.34,0,0,1,95,144.76a30.42,30.42,0,0,1,1.65-3A31.57,31.57,0,0,1,99,138.66c.42-.53.86-1,1.31-1.51a19.11,19.11,0,0,1,1.41-1.32,11.05,11.05,0,0,1,1.43-1.13,12.61,12.61,0,0,1,1.4-.85,9,9,0,0,1,1.3-.53,5.21,5.21,0,0,1,1.06-.23,4.25,4.25,0,0,1,.91,0,1.29,1.29,0,0,1-.21.1,4.94,4.94,0,0,0-.61.27c-.24.11-.54.32-.85.51s-.67.5-1,.78a27.91,27.91,0,0,0-2.28,2.26c-.81.87-1.62,1.84-2.42,2.83s-1.62,2-2.38,2.92-1.46,1.83-2.08,2.58C94.69,146.83,93.79,147.81,93.79,147.81Z"/>
					<path class="cls-29" d="M109.73,137.41s-.24-.09-.6.07a2.49,2.49,0,0,0-.6.34,6.23,6.23,0,0,0-.71.58c-.25.24-.5.47-.79.76s-.54.58-.84.9-.57.67-.89,1l-.92,1c-.31.36-.62.69-.92,1s-.63.68-.92,1c-.58.65-1.16,1.24-1.7,1.74A17.5,17.5,0,0,1,99,147.45a18.41,18.41,0,0,1,1-2.24c.35-.64.79-1.37,1.28-2.13a19.56,19.56,0,0,1,1.74-2.24,17.44,17.44,0,0,1,2.06-2,8.2,8.2,0,0,1,1.1-.8,7.41,7.41,0,0,1,1.07-.58,6.16,6.16,0,0,1,1-.34,2.26,2.26,0,0,1,.83,0,1,1,0,0,1,.51.17A.47.47,0,0,1,109.73,137.41Z"/>
					<path class="cls-28" d="M110.48,157.09l-.52.27a15,15,0,0,1-1.42.63c-.59.24-1.31.43-2.08.66-.39.1-.79.18-1.22.25a7.37,7.37,0,0,1-1.27.21l-1.27.12a5.87,5.87,0,0,1-1.24,0c-.41,0-.78,0-1.15,0a6.2,6.2,0,0,1-1-.12c-1.27-.25-2.08-.49-2.08-.49s.87-.06,2.13,0c.62,0,1.35-.1,2.11-.11l.61,0,.59-.08c.42,0,.83-.08,1.25-.13s.81-.11,1.22-.16l1.19-.18c.77-.17,1.5-.25,2.12-.39C109.64,157.23,110.48,157.09,110.48,157.09Z"/>
					<path class="cls-27" d="M108.21,163a20.07,20.07,0,0,1-2,.39,19.23,19.23,0,0,1-2.08.21c-.37,0-.77.07-1.17.07l-1.24,0c-.79,0-1.63-.09-2.38-.14a10.67,10.67,0,0,1-1.11-.16l-1-.19a12.39,12.39,0,0,1-1.4-.47l-.51-.22.55,0c.36,0,.85.11,1.45.12s1.32.06,2.06.07,1.56.05,2.37,0,1.61,0,2.36,0l2.06.06C107.39,162.89,108.21,163,108.21,163Z"/>
					<path class="cls-39" d="M93.49,164.19a2.39,2.39,0,0,0,.45.17l.51.16c.19,0,.42.12.66.18l.81.18a7.29,7.29,0,0,0,.87.15c.62.11,1.28.18,1.95.25.32,0,.65.1,1,.1s.65,0,1,0l.91.06h.81c1,0,1.73.11,1.73.11a16.27,16.27,0,0,1-1.68.43c-.25,0-.53.11-.83.14s-.6.05-.94.06-.67,0-1,0-.69,0-1-.08l-1-.12a8.66,8.66,0,0,1-1-.26,5.4,5.4,0,0,1-.9-.28c-.29-.11-.54-.23-.78-.34s-.43-.25-.62-.35a3.53,3.53,0,0,1-.46-.32A2.55,2.55,0,0,1,93.49,164.19Z"/>
					<path class="cls-40" d="M97.81,155.19s.16-.18.46-.47.75-.74,1.29-1.2,1.21-1,1.93-1.55,1.54-1.09,2.36-1.6a23.54,23.54,0,0,1,2.56-1.32,9.27,9.27,0,0,1,1.23-.48,6.76,6.76,0,0,1,1.14-.33,4.3,4.3,0,0,1,1-.16,3.89,3.89,0,0,1,.76,0,6.41,6.41,0,0,1,.68.07s-.24.05-.65.11a4.14,4.14,0,0,0-.73.19,8.79,8.79,0,0,0-.91.33,19.68,19.68,0,0,0-2.16,1,13.54,13.54,0,0,0-1.2.67c-.41.2-.81.47-1.23.71-.8.47-1.62,1-2.38,1.46s-1.48.91-2.08,1.3l-1.49.9C98,155.07,97.81,155.19,97.81,155.19Z"/>
				</g>
				<path class="cls-41" d="M80.21,179.89v1a65.61,65.61,0,0,1-1.74,14.61q-.21.89-.43,1.72a.48.48,0,0,0,0,.16,1.37,1.37,0,0,0-.06.16.6.6,0,0,0,0,.18c-.08.27-.16.55-.27.8v0a1.32,1.32,0,0,1-.08.27l-.06.18a3.38,3.38,0,0,1-.12.43A36.21,36.21,0,0,1,75,205.18a23.91,23.91,0,0,1-1.78,2.94,31.56,31.56,0,0,0-3.13,5.48,26.29,26.29,0,0,0-1.35,3.72,26,26,0,0,0-.76,3.58c0,.12,0,.25,0,.35a0,0,0,0,0,0,.06v0a.92.92,0,0,0,0,.25,19.34,19.34,0,0,0,.67,7.66l.06.22s0,0,0,.06l-.43-.2a2.91,2.91,0,0,1-.37-.16c-.22-.1-.45-.2-.67-.33-1.33-.61-2.64-1.25-3.88-1.9a1.63,1.63,0,0,1-.33-.16c-3.68-1.92-7-3.88-10-5.83-.35-.22-.69-.45-1-.72A100,100,0,0,1,38.9,209.86a3.1,3.1,0,0,1-.37-.37l0,0c-.29-.27-.53-.49-.78-.74s-.61-.61-.9-.9c-1.21-1.25-2.45-2.6-3.7-4s-2.49-2.9-3.72-4.41a.38.38,0,0,0-.12-.14l-.69-.86-.1-.12-.25-.31c-.49-.63-1-1.25-1.49-1.88s-1-1.25-1.43-1.86c-1.7-2.21-3.27-4.33-4.64-6.19l-.49-.69c-2.6-3.58-4.35-6.15-4.6-6.52v0l0,0h-.1c-.16,0-.53,0-1-.06a.57.57,0,0,1-.18,0h0a1,1,0,0,1-.25,0h-.14l-.29,0H13.5l-.29,0a.31.31,0,0,0-.14,0l-.49-.06a1.19,1.19,0,0,0-.27,0c-.53-.08-1.1-.16-1.7-.29a27.24,27.24,0,0,1-3.25-.84c-.33-.12-.65-.25-1-.39a3.7,3.7,0,0,1-.43-.16c-.18-.08-.37-.16-.55-.27s-.25-.1-.35-.16a4.32,4.32,0,0,0-.43-.22.08.08,0,0,1-.06,0l-.1-.06a11.43,11.43,0,0,1-1.35-.84,5.65,5.65,0,0,1-.76-.63,7.05,7.05,0,0,1-1.1-1.37,8.86,8.86,0,0,1-1.12-2.64.08.08,0,0,1,0-.06l-.06-.43a.68.68,0,0,1,0-.2.26.26,0,0,1,0-.12,8.2,8.2,0,0,1,0-1,.84.84,0,0,1,0-.22,4.58,4.58,0,0,1,4-4,1.58,1.58,0,0,1,.31,0,1.92,1.92,0,0,1,.59,0,14.27,14.27,0,0,1-3.68-6.11v0A12,12,0,0,1,.83,156c.14-2.27,1.45-3.27,2.72-3.19a1.13,1.13,0,0,1,.37,0h0l.18.06a2.35,2.35,0,0,1,.67.35,1.77,1.77,0,0,1,.29.27c.06,0,.1.08.14.12.53.59.82,1.14,1.25,1.61a1.93,1.93,0,0,0,.2.2,2.94,2.94,0,0,0,1.57.82.65.65,0,0,0,.18.06.45.45,0,0,0,.16,0,2.39,2.39,0,0,0,.53.08l.37,0h.25l.33,0c2-.22,4.23-1.64,6.72-4.58A68.84,68.84,0,0,0,25,138.54s0,0,0-.06c1.17-2.31,2.37-4.86,3.64-7.71.08-.18.16-.37.25-.57.63-1.39,1.25-2.84,1.9-4.37,1.78-4.21,3.27-7.73,4.56-10.71v0L36.76,112c.72-1.68,1.37-3.17,2-4.5.12-.27.25-.55.37-.8a4,4,0,0,1,.2-.43c1.23-2.66,2.29-4.78,3.43-6.77,1.41-2.45,2.9-4.72,4.91-7.62l.25-.12a5.59,5.59,0,0,1,1.1-.47.08.08,0,0,1,.06,0c2.88-.82,5.33,1.23,7.52,4.68,0,0,0,0,0,.06a37.16,37.16,0,0,1,1.9,3.39c1.14,2.33,2.25,5,3.33,7.66.74,1.8,1.45,3.64,2.17,5.42q.61,1.53,1.23,3a32.32,32.32,0,0,1,1.61,4.93,117.14,117.14,0,0,1,2.35,15.37v0c.1,1,.22,2,.35,3,.72,6.05,1.72,12.06,4,17.21a30.63,30.63,0,0,0,1.86,3.54c3.07,4.88,4.56,11.83,4.76,19.13C80.19,179,80.21,179.46,80.21,179.89Z"/>
				<path class="cls-42" d="M77.18,163.75s4.73,34.67-9.93,37.86c-17.67,3.85-33.83-15-20.94-30.1,0,0,2-2.62,3.23-4.56a19.19,19.19,0,0,1-1.71,1v0C38.62,172.12,34,160.12,34,160.12c.62,5.54.46,10.13-14,10.31-10.63.14-18.77-10.62-18.77-10.62.3,2.77,2.92,6.61,2.92,6.61s-4.64-.59-4.07,5.38a3.3,3.3,0,0,0,.09.51,1.82,1.82,0,0,1-.09-.51c0,1.37.8,8.35,15.53,9,0,0,16.1,31.91,53,49.68,0,0-4.16-11,4.62-22.36S81.57,172.74,77.18,163.75Z"/>
				<path class="cls-42" d="M5.45,166.15s5.92,10.09,17.12,10,22.54-6.92,22.54-6.92-5.27-.76-8.55-4.15a19.6,19.6,0,0,1-15.36,5.9C11.13,170.29,5.45,166.15,5.45,166.15Z"/>
				<path class="cls-43" d="M4.68,165.19s.46.36,1.3.95a36.83,36.83,0,0,0,3.52,2.21,34.14,34.14,0,0,0,5.29,2.42,26.39,26.39,0,0,0,3.12.89,22.9,22.9,0,0,0,3.28.51,23.1,23.1,0,0,0,3.31,0c.54-.07,1.08-.11,1.6-.19.27-.06.54-.1.8-.15l.76-.18c.52-.11,1-.27,1.48-.42a10.09,10.09,0,0,0,1.39-.49c.92-.33,1.75-.76,2.52-1.11s1.47-.76,2-1.15,1.14-.67,1.55-1c.83-.58,1.33-.9,1.33-.9s-.4.44-1.1,1.19c-.35.38-.82.77-1.36,1.25a21.18,21.18,0,0,1-1.9,1.48,17.33,17.33,0,0,1-2.5,1.47c-.45.24-.95.46-1.44.67a16.36,16.36,0,0,1-1.58.55l-.83.24-.84.19a12.34,12.34,0,0,1-1.75.29A21.69,21.69,0,0,1,21,174a22.78,22.78,0,0,1-3.56-.6,21.68,21.68,0,0,1-3.29-1.12,23,23,0,0,1-2.87-1.45,23.66,23.66,0,0,1-2.39-1.6,25.39,25.39,0,0,1-3.21-2.82A13.8,13.8,0,0,1,4.68,165.19Z"/>
				<path class="cls-44" d="M68.15,120.29A28.89,28.89,0,0,0,63,111.16,23.26,23.26,0,0,0,56.85,106a20.94,20.94,0,0,0-4.78-1.75c-1.15-.2-1.77-.32-1.77-.32h0s-.63,0-1.79-.09a19.42,19.42,0,0,0-5,.61,21.86,21.86,0,0,0-7.05,3.63A27.75,27.75,0,0,0,29.59,116a34.75,34.75,0,0,0-4.26,11.73c-.14,1.11-.36,2.22-.43,3.37a33.22,33.22,0,0,0-.14,3.48c0,.58,0,1.19,0,1.78s.11,1.17.17,1.77a32.94,32.94,0,0,0,2.81,10.64,34.43,34.43,0,0,0,1.73,3.34,30.08,30.08,0,0,0,2.23,3.07,21.37,21.37,0,0,0,5.73,4.94,19.53,19.53,0,0,0,7.14,2.46,18.84,18.84,0,0,0,7.47-.76,20.15,20.15,0,0,0,6.6-3.57,25.4,25.4,0,0,0,2.8-2.52,30.26,30.26,0,0,0,2.34-2.89,32.74,32.74,0,0,0,2-3.13c.32-.54.55-1.11.83-1.65a14.53,14.53,0,0,0,.75-1.66,38.2,38.2,0,0,0,2.76-13.7A36.24,36.24,0,0,0,68.15,120.29Z"/>
				<path class="cls-45" d="M48.42,105.73c-11.61-1.3-22.21,9.41-23.68,23.95S31.49,157,43.11,158.35s22.22-9.42,23.69-24S60,107,48.42,105.73Z"/>
				<path class="cls-46" d="M29.07,127.56c-1.22,12,5.78,22.56,15.63,23.67s18.81-7.7,20-19.68S58.93,109,49.08,107.88,30.27,115.57,29.07,127.56Z"/>
				<path class="cls-47" d="M51.08,135c-1.58,9.49-7.81,15.41-13.9,13.22S27.44,136.53,29,127s7.8-15.41,13.89-13.23S52.68,125.46,51.08,135Z"/>
				<path d="M46.67,133.37c-.94,5.7-4.69,9.26-8.33,7.94s-5.86-7-4.9-12.7,4.68-9.25,8.33-7.94S47.63,127.67,46.67,133.37Z"/>
				<g class="cls-48">
					<path class="cls-49" d="M41.92,147.13a3.54,3.54,0,0,0,2-3.93c-.31-1.26-1-1.5-1.69-1.42-1.18.73-2.79,1.58-4.16,1A8.77,8.77,0,0,1,32.65,136c-.3-3-.3-4.34-1.55-3.62s-.87,4.94-.23,7.05A11.51,11.51,0,0,0,37.5,147a5.93,5.93,0,0,0,4.07.26Z"/>
				</g>
				<path class="cls-13" d="M47.75,117.2c-3.23-6-6.63-2.51-7.35,2.47s2,11.79,6.72,13.25S52.12,125.31,47.75,117.2Z"/>
				<path class="cls-37" d="M78.81,195.43l-.25-.06s-9.23,21.46-27.48,15.47-34.64-34.16-34.64-34.16c-1.84,1.84-6.47.91-11.08.68l-.93,0c2.31,1.39,5.88,2.53,11.4,2.78,0,0,16.1,31.88,53,49.67,0,0-4.16-11,4.62-22.35A32,32,0,0,0,78.81,195.43Z"/>
				<path class="cls-28" d="M54.52,166.17s12.64-1.12,14.06-9.51c0,0,14.74,32.47-5.26,32.06C42.75,188.3,49.29,168.58,54.52,166.17Z"/>
				<path class="cls-13" d="M21.48,148.59s-6.08,10.78-11.9,9.49S16.94,167.65,21.48,148.59Z"/>
				<path class="cls-13" d="M43.7,101.3s3.69-9.39,7.85-8.93S40.93,108.07,43.7,101.3Z"/>
			</g>
		</g>
	</g>
</svg>