<svg xmlns="http://www.w3.org/2000/svg" 
	xmlns:xlink="http://www.w3.org/1999/xlink" viewBox="0 0 314.49 262.04">
	<defs>
		<style>.cls-1{mask:url(#mask);filter:url(#luminosity-noclip-3);}.cls-13,.cls-15,.cls-2,.cls-4{mix-blend-mode:multiply;}.cls-2{fill:url(#linear-gradient);}.cls-3{mask:url(#mask-2);filter:url(#luminosity-noclip-4);}.cls-4{fill:url(#linear-gradient-2);}.cls-5{fill:none;}.cls-6{isolation:isolate;}.cls-37,.cls-7{fill:#00abaf;}.cls-8{fill:#ffd05d;}.cls-15,.cls-9{fill:#1c8891;}.cls-10{fill:#ffad40;}.cls-11{fill:#ffc453;}.cls-12,.cls-13{fill:#026773;}.cls-13{opacity:0.3;}.cls-14{fill:#49d6d6;}.cls-15{opacity:0.6;}.cls-16{fill:#d3c9b4;}.cls-17{fill:#054449;}.cls-17,.cls-35,.cls-37{opacity:0.5;}.cls-18{fill:#ffb94a;}.cls-19{fill:#ffdb67;}.cls-20{fill:#fff27a;}.cls-21{fill:#f7f4f8;}.cls-22{fill:#cec5d6;}.cls-23{fill:#baa7ce;}.cls-24{clip-path:url(#clip-path);}.cls-25{fill:url(#linear-gradient-3);}.cls-26{mask:url(#mask-3);}.cls-27{fill:url(#linear-gradient-4);}.cls-28{fill:#fff;}.cls-29{fill:url(#linear-gradient-5);}.cls-30{mask:url(#mask-4);}.cls-31{fill:url(#linear-gradient-6);}.cls-32{fill:#e0dacf;}.cls-33,.cls-35{fill:#37b9bc;}.cls-34,.cls-36{fill:#97f2f2;}.cls-34,.cls-37{mix-blend-mode:screen;}.cls-38{fill:#f9f6f2;}.cls-39{filter:url(#luminosity-noclip-2);}.cls-40{filter:url(#luminosity-noclip);}</style>
		<filter id="luminosity-noclip" x="14.47" y="-4846.86" width="12.34" height="32766" filterUnits="userSpaceOnUse" color-interpolation-filters="sRGB">
			<feFlood flood-color="#fff" result="bg"/>
			<feBlend in="SourceGraphic" in2="bg"/>
		</filter>
		<mask id="mask" x="14.47" y="-4846.86" width="12.34" height="32766" maskUnits="userSpaceOnUse">
			<g class="cls-40"/>
		</mask>
		<linearGradient id="linear-gradient" x1="11085.85" y1="-3864.57" x2="11122.45" y2="-3864.57" gradientTransform="matrix(0.16, 0.49, -0.8, 0.68, -4812.38, -2767.49)" gradientUnits="userSpaceOnUse">
			<stop offset="0.01"/>
			<stop offset="0.41" stop-color="#fff"/>
			<stop offset="0.47" stop-color="#fafafa"/>
			<stop offset="0.54" stop-color="#ececec"/>
			<stop offset="0.62" stop-color="#d5d5d5"/>
			<stop offset="0.7" stop-color="#b4b4b4"/>
			<stop offset="0.79" stop-color="#8a8a8a"/>
			<stop offset="0.88" stop-color="#565656"/>
			<stop offset="0.96" stop-color="#1b1b1b"/>
			<stop offset="1"/>
		</linearGradient>
		<filter id="luminosity-noclip-2" x="60.6" y="-4846.86" width="15.85" height="32766" filterUnits="userSpaceOnUse" color-interpolation-filters="sRGB">
			<feFlood flood-color="#fff" result="bg"/>
			<feBlend in="SourceGraphic" in2="bg"/>
		</filter>
		<mask id="mask-2" x="60.6" y="-4846.86" width="15.85" height="32766" maskUnits="userSpaceOnUse">
			<g class="cls-39"/>
		</mask>
		<linearGradient id="linear-gradient-2" x1="8233.05" y1="-1166.22" x2="8253.65" y2="-1166.22" gradientTransform="matrix(0.72, 0.77, -0.65, 0.89, -6657.29, -5269.95)" xlink:href="#linear-gradient"/>
		<clipPath id="clip-path">
			<path class="cls-5" d="M18.94,91.28c5.48,11.49,19.32,10,30.52.18,10.3-9,21.12-22.3,24.41-35.84,2.77-11.36-1-21.54-11.53-21.67S39.33,40.58,30,50.31C19,61.9,12.47,77.71,18.94,91.28Z"/>
		</clipPath>
		<linearGradient id="linear-gradient-3" x1="11090.2" y1="-3911.33" x2="11116.3" y2="-3843.62" gradientTransform="matrix(0.16, 0.49, -0.8, 0.68, -4812.38, -2767.49)" gradientUnits="userSpaceOnUse">
			<stop offset="0" stop-color="#381400"/>
			<stop offset="0.39" stop-color="#843700"/>
			<stop offset="1" stop-color="#de7c00"/>
		</linearGradient>
		<filter id="luminosity-noclip-3" x="14.47" y="55.89" width="12.34" height="29.41" filterUnits="userSpaceOnUse" color-interpolation-filters="sRGB">
			<feFlood flood-color="#fff" result="bg"/>
			<feBlend in="SourceGraphic" in2="bg"/>
		</filter>
		<mask id="mask-3" x="14.47" y="55.89" width="12.34" height="29.41" maskUnits="userSpaceOnUse">
			<g class="cls-1">
				<path class="cls-2" d="M16.85,85.3c1.27.06,3.43-1,5.14-4.05,1.13-2,1-2.87.53-3.34-1.36.14-3.13.1-3.26-1.79-.18-2.39,0-6.77,4.08-13.85,3-4.57,4.32-6.42,2.89-6.38s-5.59,6.39-7.45,9.91C15.58,71.9,14.07,78,14.55,81.73c.23,1.69.71,3.2,1.93,3.52A2.23,2.23,0,0,0,16.85,85.3Z"/>
			</g>
		</mask>
		<linearGradient id="linear-gradient-4" x1="11085.85" y1="-3864.57" x2="11122.45" y2="-3864.57" gradientTransform="matrix(0.16, 0.49, -0.8, 0.68, -4812.38, -2767.49)" gradientUnits="userSpaceOnUse">
			<stop offset="0.01" stop-color="#381400"/>
			<stop offset="0.41" stop-color="#ffde54"/>
			<stop offset="0.48" stop-color="#fad952"/>
			<stop offset="0.57" stop-color="#edcb4c"/>
			<stop offset="0.66" stop-color="#d7b442"/>
			<stop offset="0.75" stop-color="#b89334"/>
			<stop offset="0.85" stop-color="#906922"/>
			<stop offset="0.95" stop-color="#60360c"/>
			<stop offset="1" stop-color="#451a00"/>
		</linearGradient>
		<linearGradient id="linear-gradient-5" x1="8236.81" y1="-1205.25" x2="8256.56" y2="-1153.99" gradientTransform="matrix(0.72, 0.77, -0.65, 0.89, -6657.29, -5269.95)" xlink:href="#linear-gradient-3"/>
		<filter id="luminosity-noclip-4" x="60.6" y="53.55" width="15.85" height="25.38" filterUnits="userSpaceOnUse" color-interpolation-filters="sRGB">
			<feFlood flood-color="#fff" result="bg"/>
			<feBlend in="SourceGraphic" in2="bg"/>
		</filter>
		<mask id="mask-4" x="60.6" y="53.55" width="15.85" height="25.38" maskUnits="userSpaceOnUse">
			<g class="cls-3">
				<path class="cls-4" d="M70.51,78.92c2.12-.09,5-1.19,5.77-3.89.52-1.81-.22-2.49-1.28-2.83-2.16.26-5,.42-6.49-1.14-1.84-2-4.42-5.63-2.35-11.92,1.88-4.09,2.89-5.78.59-5.57s-5,5.85-5.7,9c-1.29,5.39.24,10.63,3.43,13.65a8.8,8.8,0,0,0,5.4,2.73Z"/>
			</g>
		</mask>
		<linearGradient id="linear-gradient-6" x1="8233.05" y1="-1166.22" x2="8253.65" y2="-1166.22" gradientTransform="matrix(0.72, 0.77, -0.65, 0.89, -6657.29, -5269.95)" xlink:href="#linear-gradient-4"/>
	</defs>
	<title>Asset 3</title>
	<g class="cls-6">
		<g id="Layer_2" data-name="Layer 2">
			<g id="Layer_2-2" data-name="Layer 2">
				<path class="cls-7" d="M221,72.27c-1-.88-2.09-1.7-3.17-2.52a.91.91,0,0,0,.5-.42c2.92-5.05,4.68-9.93-.72-13.72-5.83-4.09-6.06-12.68-12.87-15.84-2.89-1.33-6.93,0-9.38-2.09-2-1.62-1.08-5.8-1.43-8-.95-6-6.57-9-12.24-8.65-3.19.2-9,1.24-10.51-2.55-1-2.49-1.14-5.25-2.89-7.44-3.93-4.84-11.41-2.79-16.56-1.42-4.8,1.28-9.65,4.26-14.62,1.95-3.71-1.73-5.28-6.38-8.43-8.88-5.34-4.25-13.49-3.1-18.39,1.19a.39.39,0,0,0-.14.31,27.17,27.17,0,0,0-3.48,4,23.88,23.88,0,0,1-4.89,5.21c-3.69,2.72-6-.56-8.31-2.65C89.4,6.95,82.36,4.21,77,6.86c-5,2.52-9,8.77-6.71,14.4,1,2.31,3.22,3.69,5.39,4.65a11.9,11.9,0,0,0,4.33.72c4,.2,6.74,1.71,7.28,5.76-2.4.86-4.79,1.82-7.21,2.76-.54.23-.31,1.13.28.92,12.13-4.32,24.58-4.9,37.33-4.62,12.11.26,24.82-.19,36.26,4.08a263.6,263.6,0,0,1,34.64,16c5.44,3,10.28,7.08,15.16,10.91,5.05,4,10.56,7.36,15.52,11.45C220.49,74.89,222.14,73.27,221,72.27Z"/>
				<path class="cls-8" d="M78.79,14.85c9.53.34,18.18,7.59,26.57-.2,5.88-5.45,13.05-12.36,21.09-6.81,4,2.72,7.16,10.44,12.86,9.76,5.21-.66,9.72-3.5,14.82-4.46,2.92-.58,6.33-1.11,8.86.88,4.42,3.43,1.66,13.4,9.84,13,4.33-.23,8.73-.71,12.65,1.44,3.07,1.69,3.8,5.88,5.63,8.54,2.82,4.14,8.94,4.77,12.62,8.2,1.72,1.59,2.65,4,3.93,5.91,2.51,3.78,5,4.44,8.1,7.05a15.18,15.18,0,0,1,4.77,6.48c1.08-3.32.75-6.41-3-9-5.83-4.09-6.06-12.68-12.87-15.84-2.89-1.33-6.93,0-9.38-2.09-2-1.62-1.08-5.8-1.43-8-.95-6-6.57-9-12.24-8.65-3.19.2-9,1.24-10.51-2.55-1-2.49-1.14-5.25-2.89-7.44-3.93-4.84-11.41-2.79-16.56-1.42-4.8,1.28-9.65,4.26-14.62,1.95-3.71-1.73-5.28-6.38-8.43-8.88-5.34-4.25-13.49-3.1-18.39,1.19a.39.39,0,0,0-.14.31,27.17,27.17,0,0,0-3.48,4,23.88,23.88,0,0,1-4.89,5.21c-3.69,2.72-6-.56-8.31-2.65C89.4,6.95,82.36,4.21,77,6.86c-5,2.52-9,8.77-6.71,14.4a6.81,6.81,0,0,0,1.22,1.87C71.34,18.72,73.08,14.64,78.79,14.85Z"/>
				<path class="cls-9" d="M232.7,178.83c-4.21,4-9.82,6-14.77,8.9-5.21,3-10.3,6-15.79,8.52-11.22,5.08-23.07,9.07-34.72,13.05s-24.2,6.15-36.56,7.39c-6.25.63-12.73-.43-18.86-1.35-3.12-.48-6.18-1.25-9.27-1.82-3.36-.64-6.36-.81-9.37-2.58a.55.55,0,0,0-.67.87,11.18,11.18,0,0,0,2.91,1.86c-.49,6.07,5.91,13.4,11.24,15.3a12.61,12.61,0,0,0,6.19.81c3.62-.51,9.31-3.53,12.19.31,1.21,1.6.86,4.14,1.94,5.86a11.37,11.37,0,0,0,3.41,3.54c7.48,5.22,14.12-3.31,19.71-6.94,5.28-3.42,11.74.08,17,1.73a14.27,14.27,0,0,0,11.63-1h0a1.21,1.21,0,0,1,.26-.14.14.14,0,0,1,.07-.06,7.6,7.6,0,0,0,2.78-3c1.31-2.3,2.8-4.48,5.39-5.51,1.91-.74,5.18.36,7.22.36,9.24,0,7.15-13.09,14.06-15.54,2.92-1,5.73.06,8.59-1.59s3.07-4.91,3.71-7.68c.53-2.28,3.82-2.94,5.63-3.93,1.16-.62,2-2.21,2.64-3.27a22,22,0,0,0,3.55-11.45,17.61,17.61,0,0,0,1.31-1.21A1,1,0,0,0,232.7,178.83Z"/>
				<path class="cls-10" d="M226.53,190.14c-4,3.37-8,3.7-9.77,9.34-.62,2-2.14,4.47-4.3,5-3.19.87-7.48-.85-9.7,3.12-.88,1.59-1.57,3.26-2.43,4.85-1.29,2.3-3,5.27-5.57,6.28-4.69,1.83-10.73-1.12-14.13,4.06-1.4,2.1-3.17,5.75-5.63,6.88-3.57,1.64-6.41,1.38-10.16.07-6.13-2.14-10.56-4-16.56,0-5.43,3.59-10.71,4.42-15.23-.93-8.89-10.47-19.28-1.69-30.07-6.2a29.46,29.46,0,0,1-6.17-3.39c2,4.37,6.3,8.4,10,9.73a12.61,12.61,0,0,0,6.19.81c3.62-.51,9.31-3.53,12.19.31,1.21,1.6.86,4.14,1.94,5.86a11.37,11.37,0,0,0,3.41,3.54c7.48,5.22,14.12-3.31,19.71-6.94,5.28-3.42,11.74.08,17,1.73a14.27,14.27,0,0,0,11.63-1h0a1.21,1.21,0,0,1,.26-.14.14.14,0,0,1,.07-.06,7.6,7.6,0,0,0,2.78-3c1.31-2.3,2.8-4.48,5.39-5.51,1.91-.74,5.18.36,7.22.36,9.24,0,7.15-13.09,14.06-15.54,2.92-1,5.73.06,8.59-1.59s3.07-4.91,3.71-7.68c.53-2.28,3.82-2.94,5.63-3.93,1.16-.62,2-2.21,2.64-3.27a22.67,22.67,0,0,0,3.4-9.35A39.21,39.21,0,0,1,226.53,190.14Z"/>
				<path class="cls-9" d="M305.49,57.58c4.3-3.77,8.17-8.09,8.92-14s-4.6-11.34-9.5-13.68c-11.11-5.28-23.53,1.78-31.22,9.61-9.8,10-15.76,24.67-17.57,38.39-1.13,8.69-1,17.39-.77,26.14.09,4.3.28,8.48-.68,12.7-.85,3.76-2.85,6.88-5,10a.49.49,0,0,0-.28.13c-4.21,3.86-5.71,10.27-5,15.82.6,4.42,1.26,9,6.05,10.06-.24,7.49-2.75,14.25-5.57,21.15a78.65,78.65,0,0,0-5.45,23.1c-1.14,12.94-.15,25.93,4.94,37.94,4.24,10,11.63,19.19,21.78,23.55a43.78,43.78,0,0,0,26.32,2.6c7.78-1.76,16.1-7,14.64-16.13-.83-5.17-.48-8,1.46-12.89,2.24-5.68,1-10.44-2.51-15.27-1.85-2.52-4.21-4.52-5.25-7.57s1-5.4.95-8.16c.47-2.14.56-4.93-1.43-6.15a8.51,8.51,0,0,0-5.15-1.2c-5.94.06-3.5-4.66-2.58-6.65a25.71,25.71,0,0,0,1.27-3.23c1.08-3.32-.8-7.51-3.63-9.33-3.67-2.36-9.81-1.08-13.65-3-5.11-3.56-1-12-2-17.6-.55-3.33-3.92-5.77-6.28-7.82a15.39,15.39,0,0,0-4.84-2.81,2.59,2.59,0,0,0,.86-.8,15.24,15.24,0,0,0,1.56-4c1.48-5.27,7.09-2.09,9.73-.82a19.76,19.76,0,0,0,16.92.42c5.65-2.43,11.4-6.77,13.6-12.74a13.19,13.19,0,0,0,.44-9.19c-.61-1.89-2-3.45-3.11-5-2.2-3.16-2.29-5.47-1.09-9.09a1,1,0,0,0,0-.37c1.13-2,2.94-3.73,4.17-5.36a18.42,18.42,0,0,0,2.74-5.68A24,24,0,0,0,309.81,78a12.37,12.37,0,0,0-7.09-8.52c-2-1-6.09-.92-3.82-4.62C300.6,62.12,303.21,59.92,305.49,57.58Z"/>
				<path class="cls-11" d="M305.49,57.58c4.3-3.77,8.17-8.09,8.92-14s-4.6-11.34-9.5-13.68a18.58,18.58,0,0,0-6.44-1.74c6.63,1.34,11.85,4.94,11.81,12.48,0,8.9-12.54,13.21-16.42,20.07C284.31,77.61,307.09,72.86,307,83.94c-.06,3.56-1.83,6.51-4.17,9.16-2.14,2.46-6.05,5.11-7.35,8.08-2.16,5,.45,6.15,2.28,9.47,2.91,5.3,3.8,14-2.06,17.94-3.26,2.14-6.46,2.64-10.31,2.48-4.09-.2-10.1-3.65-14.06-2.24-5.59,2-5.94,8.94-9.8,12.78a9.34,9.34,0,0,1-1.67,1.24c4.44,1.8,7.17,5.76,8.09,11.69,1.19,7.72-2.75,22.92,8.65,23,9.25,0,14.47,3.74,11.47,14-1.74,6,2.09,6.26,6.46,8.31,2.37,1.12,1.15,5.4.89,7.08-.78,5,.26,5.94,3.36,9.78,1.4,1.7,3.09,3.63,3.14,6,.11,7.23-7.94,9.87-5.63,18.3,3,11.11-8.3,13.76-16.56,12.87a50.21,50.21,0,0,1-36.1-21.17c.27.73.51,1.47.83,2.2,4.24,10,11.63,19.19,21.78,23.55a43.78,43.78,0,0,0,26.32,2.6c7.78-1.76,16.1-7,14.64-16.13-.83-5.17-.48-8,1.46-12.89,2.24-5.68,1-10.44-2.51-15.27-1.85-2.52-4.21-4.52-5.25-7.57s1-5.4.95-8.16c.47-2.14.56-4.93-1.43-6.15a8.51,8.51,0,0,0-5.15-1.2c-5.94.06-3.5-4.66-2.58-6.65a25.71,25.71,0,0,0,1.27-3.23c1.08-3.32-.8-7.51-3.63-9.33-3.67-2.36-9.81-1.08-13.65-3-5.11-3.56-1-12-2-17.6-.55-3.33-3.92-5.77-6.28-7.82a15.39,15.39,0,0,0-4.84-2.81,2.59,2.59,0,0,0,.86-.8,15.24,15.24,0,0,0,1.56-4c1.48-5.27,7.09-2.09,9.73-.82a19.76,19.76,0,0,0,16.92.42c5.65-2.43,11.4-6.77,13.6-12.74a13.19,13.19,0,0,0,.44-9.19c-.61-1.89-2-3.45-3.11-5-2.2-3.16-2.29-5.47-1.09-9.09a1,1,0,0,0,0-.37c1.13-2,2.94-3.73,4.17-5.36a18.42,18.42,0,0,0,2.74-5.68A24,24,0,0,0,309.81,78a12.37,12.37,0,0,0-7.09-8.52c-2-1-6.09-.92-3.82-4.62C300.6,62.12,303.21,59.92,305.49,57.58Z"/>
				<path class="cls-12" d="M298.54,37.6c-16.18-2.87-27.89,12.66-31.07,25.32-2.85,11.3-2.85,21.85-4.8,45.42-.65,8-7.11,18.12-14.94,21a1,1,0,0,0,.56,2c14.23-3.87,17.77-17.55,19.22-30.69,1.11-10,2.94-20,6.71-29.43,2.61-6.52,5.94-13.69,12.07-17.6,4.44-2.82,15-3.33,16.58-9.27C303.48,42.06,301,38,298.54,37.6Z"/>
				<path class="cls-12" d="M284.5,75.18C267.84,93.86,274.34,125,246,133.59a.85.85,0,0,0,.47,1.63c9.09-2,16.08-7.57,21-15.36,4-6.31,6-13.56,9.39-20.16a67.09,67.09,0,0,1,10.08-14.36c3-3.32,9.36-3.46,9.06-8.42C295.49,69.64,286.48,73,284.5,75.18Z"/>
				<path class="cls-12" d="M291.59,99.36c-5.55-2.07-12.41,7-15.14,10.3-7.09,8.54-13.85,23.93-26.21,25.56-1.18.15-1.27,2,0,1.94,7.39-.12,12.36-5.58,17.1-10.48,7.46-7.73,17.41-11.48,25.57-18.16C296.82,105.31,296.19,101.08,291.59,99.36Z"/>
				<path class="cls-12" d="M274.18,178.27a104.19,104.19,0,0,1-6-10.24,33.12,33.12,0,0,0-10.69-17.67,20.73,20.73,0,0,0-4.95-3.77.94.94,0,0,0-1.18,1.44,1.25,1.25,0,0,0,.5,1.55,26,26,0,0,1,6.92,6.88c2.86,5.34,4,11.62,5.51,17.7,1.3,5.23,3,11.9,7.34,15.48,3,2.43,6.49.16,6.49-3.38C278.11,183.46,275.61,180.44,274.18,178.27Z"/>
				<path class="cls-12" d="M266.05,196.59a65.28,65.28,0,0,1-8.54-16.42c-.24-2.51-.39-4.54-.51-5.71-.77-6.93-.29-15.38-6.19-20.12a1,1,0,0,0-1.43,1.45c6.84,8,4,24,5.34,34,.84,6.17,3.91,17.56,11.47,18.33a2.48,2.48,0,0,0,2.39-1.82C269.9,202.42,268.39,199.86,266.05,196.59Z"/>
				<path class="cls-12" d="M259.33,224.86a71.66,71.66,0,0,1-6.84-17c-2.2-15.18-1.2-30.58-4.14-45.59-.21-1.08-2.05-.83-1.94.27,1.22,11.15,0,22.3.45,33.49a164.21,164.21,0,0,0,2.91,23c1.32,7.28,3.84,22.06,13.8,21.81a2.54,2.54,0,0,0,2.51-2.52C265.9,233.37,261.62,229.08,259.33,224.86Z"/>
				<path class="cls-13" d="M217.82,69.75a.91.91,0,0,0,.5-.42c1.44-2.49,2.6-4.94,2.75-7.22a21.8,21.8,0,0,1-7.58-5.42c-2.54-2.58-4.8-5.42-7.35-8-3.36-3.36-8.06-3.43-11.61-6.16s-6.76-6.13-10.7-8.41c-5-2.89-9.68-3.14-15-4.61-9.44-2.64-15.47-8.2-26-7.22-10.87,1-20.42-7.76-30.81-3.34a48.29,48.29,0,0,1-22.19,3.3c-8.21-.57-17-6.58-15.27-13.85-3.79,3-6.24,8.15-4.32,12.84,1,2.31,3.22,3.69,5.39,4.65a11.9,11.9,0,0,0,4.33.72c4,.2,6.74,1.71,7.28,5.76-2.4.86-4.79,1.82-7.21,2.76-.54.23-.31,1.13.28.92,12.13-4.32,24.58-4.9,37.33-4.62,12.11.26,24.82-.19,36.26,4.08a263.6,263.6,0,0,1,34.64,16c5.44,3,10.28,7.08,15.16,10.91,5.05,4,10.56,7.36,15.52,11.45,1.17,1,2.82-.66,1.66-1.67S218.89,70.57,217.82,69.75Z"/>
				<path class="cls-7" d="M256.51,146.49a157.38,157.38,0,0,0-20.69-61.68c-11.1-18.76-28.22-31.89-46.57-43-32.09-19.47-73.82-25.55-109-11-6.93,2.47-13.58,5.2-19.63,9.89A118.92,118.92,0,0,0,38.61,63c-5.85,7.8-9.53,17-12.76,26.08-1.83,5.14-3,10.94-6,15.58-2.77,4.35-7.43,6.56-11.27,9.75-.51.4-.15,1,.34,1.16A31.59,31.59,0,0,0,4,122.36a32.9,32.9,0,0,0-4,17.07c.49,11.66,9.36,20.86,19.79,25,4.91,10,14.71,18.1,22.87,25.36a125.83,125.83,0,0,0,30.49,19.57c23.41,11,49.55,13.44,75.16,12.32,25.25-1.11,48.6-13.53,69.48-27,16.81-10.78,35.32-26.27,39.4-46.84A1.19,1.19,0,0,0,256.51,146.49Z"/>
				<path class="cls-14" d="M244.78,120.89c-1.85-7.94-7.18-18.5-8.48-20.53-3.79-5.89-7.63-11.78-11.73-17.45-18.31-25.34-44.79-45.49-76.28-50.57-4-.62-14-2.77-17.06.82-3.77,4.52,4.36,9.85,4.73,14.34.48,5.71-3.2,12.34-4,18.09-1,7.91.79,15.4,9.53,16.71,4,.6,8.23,0,12.25-.53a89.06,89.06,0,0,1,14.76-.67A65.52,65.52,0,0,1,206.9,94.82c6.93,5.44,12.76,12.07,18.41,18.81,3.91,4.64,8,13.69,14,15.81C245.57,131.61,246.21,127.05,244.78,120.89Z"/>
				<path class="cls-15" d="M256.51,146.49A155.59,155.59,0,0,0,247,108.05c.3,3,.61,6.07,1.11,9.13,1,6.54,2.14,13.1,1.7,19.76-.85,12.7-15.79,12.4-21.32,2.61a77.6,77.6,0,0,0-4-7c-5.08-7.05-4.71-4.47-9-3.09-2.18.69-4.5,1-6.55-.37-4.85-3.18-5.56-8.41-5.41-13.89.08-3.1,1.71-13.41-3-14.11-5.65-.84-11.44,2.27-16.1,5.07-9.79,5.91-17.16,13.58-24.67,22.11-.16,8.14-4.7,13.4-13.07,15.11-5.36,1.09-9.68,7.46-15,9.71a31.49,31.49,0,0,1-15.31,2.53c-19-2.09-28.85-16-26.93-33.26A38.89,38.89,0,0,0,85,146.17a2.3,2.3,0,0,1-.15,1.19,2.29,2.29,0,0,1-.61,3,38.42,38.42,0,0,1-25.56,6.81c-8-1-13.36-7.77-17.91-13.66a2.35,2.35,0,0,1,.19-3.07c-.4-7.17-1.94-16.27-8.37-20.2a15.16,15.16,0,0,0-2.17-.55,10,10,0,0,1,4.5,7.21,15,15,0,0,1,1.18,12.42,17.07,17.07,0,0,1-4.44,6.77,16.58,16.58,0,0,1-6.46,6A21,21,0,0,1,3.1,150.18c3.53,6.48,9.78,11.48,16.72,14.23,4.91,10,14.71,18.1,22.87,25.36a125.83,125.83,0,0,0,30.49,19.57c23.41,11,49.55,13.44,75.16,12.32,25.25-1.11,48.6-13.53,69.48-27,16.81-10.78,35.32-26.27,39.4-46.84A1.19,1.19,0,0,0,256.51,146.49Z"/>
				<path class="cls-16" d="M244.21,158.82c-11.81,1.25-22.91,5.67-33.84,10.08-20.7,8.37-42.61,17.2-65.4,13.4-22.21-3.68-41.24-17.33-63.5-20.59a104.76,104.76,0,0,0-58.61,7.84c5.29,7.72,13.12,14.25,19.84,20.22a125.83,125.83,0,0,0,30.49,19.57c23.41,11,49.55,13.44,75.16,12.32,25.25-1.11,48.6-13.53,69.48-27,13.7-8.78,28.52-20.7,35.75-35.93A47.18,47.18,0,0,0,244.21,158.82Z"/>
				<path class="cls-17" d="M111.68,160.84c-8.63-1.49-18.25-4.25-23.42-11.88-5-7.38-3.23-16.88.83-24.54a30.83,30.83,0,0,1,4.19-7.65.5.5,0,0,0-.64.14c-7,8-12.8,20.89-7.61,31.38l0,0c-8.59,7.4-18.19,11.79-29.56,7.8-4-1.37-7-4.05-9.72-7.17-.6-.71-5.76-6.42-4.81-7.61a.61.61,0,0,0-.59-1c1.06-8.79-3.71-18.59-12.22-22.77.17.15.34.34.5.49,6.77,5.82,12.52,14.94,9.18,23.82-.14.39-.31.79-.48,1.18,0,.09-.05.17-.11.26a13.44,13.44,0,0,1-.86,1.8,29.09,29.09,0,0,1-8.71,10.22c6.82-2.26,10.71-6.88,12.18-12.24A19.56,19.56,0,0,0,42.16,147a30.35,30.35,0,0,0,8.67,9.16,25.37,25.37,0,0,0,17.31,3.62c7.28-1.09,12.72-4.72,18.1-9.39,5.37,8.25,15.79,11.22,25.26,12A.76.76,0,0,0,111.68,160.84Z"/>
				<path class="cls-18" d="M174.26,180.29a11.67,11.67,0,0,0,.37-1.24c2-7.5,1.59-21.62-8.84-21.84-4.72-.09-7.82,4.09-9.81,8.08a25.51,25.51,0,0,0-4.45,17.48C159.26,183.81,166.93,182.54,174.26,180.29Z"/>
				<path class="cls-19" d="M151.53,182.77s0,0,0,0c.76,5.32,5.91,10.77,11.65,9.18s9.34-6.2,11.07-11.71C166.93,182.54,159.26,183.81,151.53,182.77Z"/>
				<path class="cls-19" d="M205.53,170c-.51,3.81.32,7.42,3.67,9.61,5.4,3.5,10.27-1.93,11.43-6.8a24.62,24.62,0,0,0,.43-9.82C215.72,165,210.62,167.48,205.53,170Z"/>
				<path class="cls-18" d="M220,159.56a5.3,5.3,0,0,0-5-3,3.45,3.45,0,0,0-3.72.85l-.1.12a7.14,7.14,0,0,0-1.07.74,9.92,9.92,0,0,0-3.12,5,5.88,5.88,0,0,0-.23,2,21.13,21.13,0,0,0-1.2,4.65c5.09-2.53,10.2-5,15.54-7A13.59,13.59,0,0,0,220,159.56Z"/>
				<path class="cls-8" d="M194,178.44a2.1,2.1,0,0,0-1.7-.29,1.32,1.32,0,0,0-1.49.3,10.79,10.79,0,0,0-2.94,7.21,3.43,3.43,0,0,0,2.5,3.27c1.72.56,3.2-.66,4.13-2C196.08,184.66,196.65,180.16,194,178.44Z"/>
				<path class="cls-10" d="M147.19,142.07c-1-2.15-3.56-5.52-6.33-4.8-5.38,1.39-1.78,11.88,3.08,11.29a3.88,3.88,0,0,0,1.25-.38C147.78,147.63,148.24,144.32,147.19,142.07Z"/>
				<path class="cls-11" d="M238.75,144.15a3.39,3.39,0,0,0-.7,0,1.13,1.13,0,0,0-1.64-.33c-2.41,1.59-3.35,5.39-3,8.12.54,3.55,4.64,4,6.57,1.24C241.46,151.07,242.42,144.69,238.75,144.15Z"/>
				<path class="cls-10" d="M243.56,124.4c-1.4-1.51-3.37-.48-4.31.92a4.73,4.73,0,0,0-.12,5.5,3.17,3.17,0,0,0,4.11.6,3.1,3.1,0,0,0,1.27-3.1A4.56,4.56,0,0,0,243.56,124.4Z"/>
				<path class="cls-20" d="M232.73,104a1.42,1.42,0,0,0-1.34-1.17c-4.85-.54-4.88,5.42-3.7,8.58a7.57,7.57,0,0,0,3.49,4.45,4.07,4.07,0,0,0,5.3-1.65C238.34,111,237.19,103.52,232.73,104Z"/>
				<path class="cls-11" d="M173.58,87.69a5.46,5.46,0,0,0-7.94-2,7.12,7.12,0,0,0-1.8,1.79,6.64,6.64,0,0,0-2.37,6.64c.43,2.28,2.77,5.51,5.37,5.28a1.13,1.13,0,0,0,.2.14c3.32,2.1,5.89-1.17,7-4A10.42,10.42,0,0,0,173.58,87.69Z"/>
				<path class="cls-20" d="M190.32,61.87c-1.74-1.6-3.74.19-4.41,1.84,0,.12,0,.25-.09.38l-.1.14a4,4,0,0,0-.12,3.57,3.24,3.24,0,0,0,5.74.17A5.57,5.57,0,0,0,190.32,61.87Z"/>
				<path class="cls-18" d="M181.26,57.79c-.05-9.11-7.73-22-16.85-24.48-8.55-2.36-18.09,2.37-19.86,11.18-1.84,9.12,4.92,19.69,12,24.84,6,4.37,11.51,3.22,15.52-.73C177.1,67.18,181.31,63.59,181.26,57.79Z"/>
				<path class="cls-19" d="M206.68,58.5c-.28,0-.54,0-.8.05a1,1,0,0,0-1-.54c-4.28.32-6.11,5.25-6.38,9.74a17,17,0,0,0-.07,4.68,18.93,18.93,0,0,0,4,9.88c1.91,2.31,6.49,5.61,9.76,4.35A8.37,8.37,0,0,0,217,81.86C223.73,75.4,216,58.5,206.68,58.5Z"/>
				<path class="cls-13" d="M73.65,33.94c-.21-.17-.42-.31-.61-.48-2.34,3.46-4.68,6.94-7.19,10.28C60.71,50.62,54.67,56.55,49,63A144.21,144.21,0,0,0,31.79,87.44C29,92.33,26.06,97,22.14,101a34.86,34.86,0,0,0,4.73,2.14C43.15,109,71,89,78.54,75.21,87.38,59.06,89.49,46.81,73.65,33.94Z"/>
				<path class="cls-21" d="M18.94,91.28c5.48,11.49,19.32,10,30.52.18,10.3-9,21.12-22.3,24.41-35.84,2.77-11.36-1-21.54-11.53-21.67S39.33,40.58,30,50.31C19,61.9,12.47,77.71,18.94,91.28Z"/>
				<path class="cls-22" d="M66.61,34.67A13.08,13.08,0,0,0,62.33,34c-10.56-.12-23,6.61-32.28,16.36C19,61.9,12.46,77.72,18.94,91.27c5.49,11.51,19.31,10,30.52.2.89-.77,1.76-1.56,2.65-2.42C61.56,80.18,70.85,68,73.86,55.62,76.22,46,73.84,37.16,66.61,34.67ZM22.94,74.26C22.29,64.87,25,56.89,32,49A40.37,40.37,0,0,1,53.58,36.59c6.46-1.41-2.91,12.34-5.05,16.73C38.43,73.94,23.52,82.44,22.94,74.26Z"/>
				<path class="cls-23" d="M73.86,55.62c-3,12.36-12.3,24.56-21.75,33.43-13.84-14.68-3.39-40.58,14.5-54.38C73.84,37.16,76.22,46,73.86,55.62Z"/>
				<path class="cls-23" d="M106,29.34l-2-1.15Z"/>
				<g class="cls-24">
					<path class="cls-25" d="M34.38,75C23.69,87.35,14.2,91,13.17,83.16S20,59,30.65,46.67s20.18-16,21.21-8.14S45.08,62.71,34.38,75Z"/>
					<path d="M33.64,69.36c-6.41,7.39-12.11,9.58-12.73,4.88S25,59.73,31.41,52.34s12.1-9.57,12.73-4.87S40,62,33.64,69.36Z"/>
					<g class="cls-26">
						<path class="cls-27" d="M16.85,85.3c1.27.06,3.43-1,5.14-4.05,1.13-2,1-2.87.53-3.34-1.36.14-3.13.1-3.26-1.79-.18-2.39,0-6.77,4.08-13.85,3-4.57,4.32-6.42,2.89-6.38s-5.59,6.39-7.45,9.91C15.58,71.9,14.07,78,14.55,81.73c.23,1.69.71,3.2,1.93,3.52A2.23,2.23,0,0,0,16.85,85.3Z"/>
					</g>
					<path class="cls-28" d="M53.92,42.73c4.35-9.93-1.31-6.25-6.9.64S35.9,61.18,37.16,65.13,48,56.11,53.92,42.73Z"/>
				</g>
				<path class="cls-13" d="M123.47,77c8.84-16.13,10.94-28.37-4.88-41.26C104.73,24.46,82,30.87,70.34,43.37,59.11,55.44,50.48,72.78,54.25,87.89c1.92,7.74,9.48,14.08,17.55,17C88.08,110.78,115.9,90.8,123.47,77Z"/>
				<path class="cls-22" d="M111,29.34C74.72,8.89,27.61,73.82,63.61,94.09,99.93,114.53,147,49.62,111,29.34Z"/>
				<path class="cls-21" d="M67.63,46.15c-10.79,14.72-9.16,32.51,3.59,39.68s31.86,1.11,42.67-13.64,9.18-32.51-3.6-39.7S78.41,31.42,67.63,46.15Z"/>
				<path class="cls-29" d="M92.45,68.6C83,79.92,69.91,83.91,63.15,77.52S58.56,56.76,68,45.45s22.55-15.31,29.3-8.92S101.88,57.28,92.45,68.6Z"/>
				<path d="M87.56,64C81.9,70.75,74,73.15,70,69.32s-2.74-12.45,2.91-19.25,13.51-9.18,17.57-5.34S93.21,57.17,87.56,64Z"/>
				<g class="cls-30">
					<path class="cls-31" d="M70.51,78.92c2.12-.09,5-1.19,5.77-3.89.52-1.81-.22-2.49-1.28-2.83-2.16.26-5,.42-6.49-1.14-1.84-2-4.42-5.63-2.35-11.92,1.88-4.09,2.89-5.78.59-5.57s-5,5.85-5.7,9c-1.29,5.39.24,10.63,3.43,13.65a8.8,8.8,0,0,0,5.4,2.73Z"/>
				</g>
				<path class="cls-28" d="M101.34,43.78c.12-9.67-7.27-7.14-12-1.16S83.12,59,88.5,63.67,101.2,56.75,101.34,43.78Z"/>
				<path class="cls-32" d="M131.06,186.15c-6.82-7.86-18-11.36-27.63-13.77-8.53-2.15-17-3.92-25.55-3.77-11.61-1.46-48-1.73-32.91,14.06,17.52,18.31,41.28,27,66,30C127,214.56,144.23,201.33,131.06,186.15Z"/>
				<path class="cls-32" d="M163.3,204.79c-1.92-2.52-6.95-2.39-9.78-2.52a19.89,19.89,0,0,0-5.39.55c-4.31.13-11.37,2.2-11.41,6.89-.08,6.25,8.13,6.32,12.57,5.93C152.84,215.35,167.8,210.72,163.3,204.79Z"/>
				<path class="cls-14" d="M27.3,124a7.34,7.34,0,0,0-9.79-4,8.45,8.45,0,0,0-4.11,4.77c-2,3.06-2.31,7,.32,10.11,2.48,2.92,7.28,1.8,9.92-.2C26.77,132.29,28.6,127.86,27.3,124Z"/>
				<path class="cls-14" d="M27.67,134.83c-5.22,0-5.22,8.11,0,8.11S32.88,134.83,27.67,134.83Z"/>
				<path class="cls-14" d="M119.26,120.94c-3-3.1-8.5-4.69-12.45-2.43a4.66,4.66,0,0,0-4.49.37c-8,4.77-7,14.87-.68,20.64,7,6.44,19.65,4.59,21.54-5.8A14.33,14.33,0,0,0,119.26,120.94Z"/>
				<path class="cls-14" d="M117.77,144c-4.62,0-4.62,7.16,0,7.16S122.39,144,117.77,144Z"/>
				<path class="cls-13" d="M75.42,112.75c-5.11-3.67-16.47-8.4-22.6-8-6.58.4-11.85,3.57-17.89,5.5-2.77.88-3,5.13,0,5.9C39.8,117.3,45.56,115,50.61,115c7.34-.12,13.62,2.7,21,3.09C77.08,118.32,78.88,115.21,75.42,112.75Z"/>
				<path class="cls-13" d="M67.33,112.16c-3.4-2.09-10.94-4.77-15-4.55-4.35.2-7.86,2-11.85,3.1-1.85.49-2,2.92,0,3.34,3.22.68,7.05-.6,10.39-.66,4.86,0,9,1.53,13.92,1.75C68.43,115.31,69.61,113.54,67.33,112.16Z"/>
				<path class="cls-14" d="M74.46,148.56c-4.84,5-12.73,5.26-19,2.84A31.94,31.94,0,0,1,46.05,146a10,10,0,0,1-3.22-5s0,0-.07,0a.35.35,0,0,0,.12-.53c-.06-.11-.13-.24-.19-.36a.36.36,0,0,0-.72,0c-.08,6.91,8.27,11.44,13.89,13.49,6.41,2.36,16,2.66,20.39-3.63C77,148.87,75.35,147.65,74.46,148.56Z"/>
				<path class="cls-14" d="M80,145.94a2.05,2.05,0,0,0-2.2.32.8.8,0,0,0-.26.52,5.49,5.49,0,0,0-.49.59,1,1,0,0,0,.86,1.51,3.5,3.5,0,0,0,2.55-1.14A1.08,1.08,0,0,0,80,145.94Z"/>
				<path class="cls-33" d="M12.21,118.36c-6.9,5.61-9.62,15.54-7.28,24,.2.78,1.31.43,1.17-.32-1.45-8.48,1.82-16.13,7.68-22.1C14.8,118.88,13.29,117.47,12.21,118.36Z"/>
				<path class="cls-34" d="M232.62,99.8c-6.8-17-22-33.22-36.8-43.52C180.68,45.72,162,32.63,143,33.95c-9.18.64-4.43,8.51-1.83,8.58,18.19.54,35.61,9.79,50.6,19.58s28.2,23.84,37.69,39.05C230.43,102.77,233.39,101.72,232.62,99.8Z"/>
				<path class="cls-34" d="M240.73,120.78c-.95-4.42-2.42-9.24-5.59-12.61-1.65-1.75-4.77.58-3.37,2.61,2.46,3.6,3.14,7.81,4.86,11.73C237.72,124.93,241.23,123.13,240.73,120.78Z"/>
				<path class="cls-34" d="M133.87,33.71a5.88,5.88,0,0,0-1.74-1.07,2.2,2.2,0,0,0-.68-.26.53.53,0,0,0-.19-.07,3.11,3.11,0,0,0-2.83.49,4.41,4.41,0,0,0-2.05,1.72,3,3,0,0,0,0,3.09,5.15,5.15,0,0,0,6.23,2.61A3.48,3.48,0,0,0,135.07,37,4.24,4.24,0,0,0,133.87,33.71Z"/>
				<path class="cls-13" d="M222.8,135.78c-4-6.91,2.83-13.22,4.61-19.85,2.65-9.94-7.71-15.27-15.78-15.89-9.78-.78-20.24,4.15-28.84,8.3-8.77,4.22-20.08,8.28-24.19,17.91a4.78,4.78,0,0,0,.4,4.64c3.41,15.2,13.26,33.05,26.69,41.12,6,3.59,13.9,3.12,19-1.74,5.46-5.18,9.59-8.88,16.38-12.2,3.29-1.6,7.11-4.58,6.85-8.76C227.65,144.19,225.34,140.16,222.8,135.78Z"/>
				<path class="cls-9" d="M218.39,126.86c-1.43-4.15,2.08-8.29,1.43-12.53-1.1-7.28-13.45-6.89-5.82-16.57,1.72-2.2,5-5.08,3.21-8.19-1.94-3.32-7.23-3.23-10.46-3.06-19.4,1-39.7,15.07-46.47,33.49a20.77,20.77,0,0,0-1.13,8.32c-.07.14-.13.28-.2.42a.49.49,0,0,0,.25.71v.15a.5.5,0,0,0,1,0c0-.2,0-.38,0-.59.18-.13.34-.28.51-.42,1.73,9.81,7.66,17,15.51,22.84s18.29,13.06,28.54,10.94c3.22-.67,5.31-3.26,6.75-6,1.26-2.43,1.38-5.12,3.25-7.24s5.56-2,7.66-3.8C229,139.72,220.4,132.57,218.39,126.86Z"/>
				<path class="cls-11" d="M218.39,126.86c-1.43-4.15,2.08-8.29,1.43-12.53-1.1-7.28-13.45-6.89-5.82-16.57,1.72-2.2,5-5.08,3.21-8.19-1.94-3.32-7.23-3.23-10.46-3.06-18.54.94-37.87,13.85-45.46,31.09,7.21-8.26,15-15.39,25-20.58,4.28-2.23,16.51-8.89,20.14-2.05a7,7,0,0,1,.09,6.62c-.46,1-8.49,12.94-2.16,11.28,3.88-1,13.39-3.4,11.53,4.39a9.94,9.94,0,0,1-2,4.65c-3.25,3.69-3.31,4.71-.62,8a7.59,7.59,0,0,1,.88,8.36c-1.77,3.05-12.29,5-10.56,9.44,1.15,2.88,3.5,7.3,1.12,10.25a11.84,11.84,0,0,1-7.37,4.47,19.28,19.28,0,0,0,7.42,0c3.22-.67,5.31-3.26,6.75-6,1.26-2.43,1.38-5.12,3.25-7.24s5.56-2,7.66-3.8C229,139.72,220.4,132.57,218.39,126.86Z"/>
				<path class="cls-12" d="M198.54,99c-6.93,2.59-13,4.62-19.15,9.07-5.74,4.15-7.63,6.76-11.69,12.54-.57.76-3.79,6.6-3.17,5.88,4.62-5.11,10.7-11.83,16.48-15.64,6-4,12.23-5,18.88-7C203,102.95,201.53,97.91,198.54,99Z"/>
				<path class="cls-12" d="M207,115.85c-2.06,3.35-14.1,1.76-17.16,2.17a65.58,65.58,0,0,0-20,5.85c-1.11.54-5,3.09-3.78,2.63,10-3.93,23.94-4.48,34.46-3.88,4.48.26,10.41-.13,10.86-5.57C211.65,114.58,208.21,114,207,115.85Z"/>
				<path class="cls-12" d="M206.66,130.93c-6.85,2.39-12.76-.5-19.3-2.56a39.22,39.22,0,0,0-18-1.45c-1.5.19-5,1.75-3.38,1.63,9.4-.61,19.44,2.91,28,6.36,5.07,2.07,9.62,3.17,14.54.34C210.77,133.94,209.24,130,206.66,130.93Z"/>
				<path class="cls-12" d="M197.66,149.76c-5,.7-9.88-6.61-12.87-9.87-3.89-4.23-11.16-8.2-16.82-9.74-1-.29,1,1.28,2,1.8,7.66,4,12.32,9.62,17.25,16.53,2.74,3.86,7.34,8.34,12.29,5.67C202.11,152.74,200.18,149.39,197.66,149.76Z"/>
				<path class="cls-35" d="M205.67,109.78a21.78,21.78,0,0,1-4.63-.37c-2.68-.63.3-3.79,1.09-4.68,2.13-2.37,5.09-4.2,6.62-7.07,2.38-4.49-.66-7-5.14-6.36-5.79.81-11.69,3.14-17,5.55a46.35,46.35,0,0,0-19.86,17.66,25.67,25.67,0,0,0-2.47,3.17l-.47.88c-.68,1.29,1.27,2.42,2,1.15,2.59-4.85,7.45-7.94,12.1-10.57a57.33,57.33,0,0,1,7-3.28,29.66,29.66,0,0,1,2.95-1c3.28-.92,2.86,3.27,2.45,5.22-.58,2.9-.07,5.34,3,6.22,4.14,1.19-4.06,5.43-.75,7.51a6.07,6.07,0,0,0,3.87.9c3.72-.11.94,8.79.69,10.53-.35,2.53.18,4.58,3.09,3.56,3.11-1.08,5.1-5,6.81-7.6,3.12-4.71,4.42-9.79,7.08-14.77C217.18,110.48,209.56,109.86,205.67,109.78Z"/>
				<path class="cls-36" d="M199.83,93.59c-10.71,3.16-20.37,9.29-28.59,16.76-.54.49.27,1.29.82.81a84.58,84.58,0,0,1,28.3-15.59C201.61,95.16,201.11,93.22,199.83,93.59Z"/>
				<path class="cls-36" d="M206.39,93.06A3.18,3.18,0,0,0,206,93a.51.51,0,0,0-.34,0,1.37,1.37,0,0,0-.94.21,1,1,0,0,0-.44.86c0,.05-.06.08-.09.13-.41.55.15,1.18.71,1.23a3.33,3.33,0,0,0,2-.59C207.79,94.32,207.22,93.15,206.39,93.06Z"/>
				<path class="cls-36" d="M204.6,111.72c-6.43-.37-12.63,1.12-18.79,2.75a.8.8,0,0,0,.43,1.54c6-1.38,12.12-2.63,18.36-2C206,114.12,206.06,111.79,204.6,111.72Z"/>
				<path class="cls-36" d="M209.69,112.88a.59.59,0,0,0-.8-.38,9.36,9.36,0,0,0-1.42.54.82.82,0,0,0-.17,1.29,3.7,3.7,0,0,0,1.09.72c.54.14,1-.26,1.46-.49A.92.92,0,0,0,209.69,112.88Z"/>
				<path class="cls-36" d="M206.58,124.63a2.48,2.48,0,0,0-.32-.28.66.66,0,0,0-.37-.82c-2.11-.91-5-1.18-6.4,1.06a1,1,0,0,0,.17,1.27c1.5,1.83,4.82,1.77,6.69.52A1.15,1.15,0,0,0,206.58,124.63Z"/>
				<path class="cls-36" d="M203.56,132.76a.25.25,0,0,1,0-.09.56.56,0,0,0,.06-.26v-.13a.84.84,0,0,0-1.09-.86c-.12,0-.22.09-.34.12a.77.77,0,0,0-.62.85s0,0,0,0a.75.75,0,0,0,.06.28l0,.05a.8.8,0,0,0,.8.53h0a1.82,1.82,0,0,0,.22,0l.33-.12a.77.77,0,0,0,.43-.3S203.53,132.79,203.56,132.76Z"/>
				<path class="cls-37" d="M289.48,60.55c4.78-4.93,11-11.26,12.21-18.25,1.17-6.39-4.54-7.3-9.37-6.64.68-.34.06-1.34-.62-1-8.88,4.11-15.89,9.39-20.81,18-6.2,10.84-9.17,22.15-11.27,34.37-.84,5.07,0,10.4-1,15.39-.43,2-1.71,5.85.79,7.2a6.2,6.2,0,0,0,3.74.79c3.72-.52,6.52-1.7,8.23,2.68,1.45,3.76,3.14,6.54,7.32,7.42,7.42,1.58,13.33-8.31,10.69-14.47-.92-2.14-3-4.14-2.55-6.62.29-1.77,1.91-3.23,3.11-4.42,2.48-2.47,5.35-4.49,7.33-7.44a6.35,6.35,0,0,0,.29-6.62c-1.39-2.82-5.43-2.49-8-2.2a22.52,22.52,0,0,1-6.05.32c-3.3-.49-3.31-4.63-2.63-7C282.21,67.57,286.31,63.83,289.48,60.55Z"/>
				<path class="cls-37" d="M291.35,230.36c-3.2-2.26-11-5-8.31-10.18,1.61-3.12,5.77-4.18,7.63-7.17,3.57-5.7-2.66-8.85-6.72-11.59-3-2-4.77-4.37-2.47-7.85,1.54-2.3,3.56-4,3.19-7-.29-2.21-2.09-3.69-4.26-4.76-3-3.39-7.9-5.79-12.24-4.73a4.56,4.56,0,0,0-3.26,4c-.57,6.21,6.91,13.23-1.76,16.82-2.58,1.07-7.11,2.32-7.61,5.73a7.44,7.44,0,0,0,.48,4.57c1.69,3.72,3.47,7,4,11.1.52,4.47,0,8.62,1.28,13a29.64,29.64,0,0,0,6.8,11.52c5.83,6.26,13.24,6.39,20.15,1.95C293.4,242.41,297.78,234.91,291.35,230.36Z"/>
				<path class="cls-36" d="M292.22,34.48C279.63,37.22,270.27,52.31,266,63.32c-3,7.87-4.26,16.53-5.37,24.84-1.58,11.94-.15,23.42-5.9,34.51a1,1,0,0,0,1.75,1c8-12.68,6.23-29.08,9.15-43.28s11.11-37.59,27.92-41C296.82,38.76,295.45,33.78,292.22,34.48Z"/>
				<path class="cls-36" d="M306.56,34.45a2.31,2.31,0,0,0-3.12-.81c-.12,0-.23.1-.35.15-1.59-.38-3.42,1-4.22,2.36a4.8,4.8,0,0,0-.64,3.19A3.18,3.18,0,0,0,299,41c-.32-.37.28.37.38.49a4.09,4.09,0,0,0,.83.71c2.1,1.39,4.48.34,5.87-1.46A5.82,5.82,0,0,0,306.56,34.45Z"/>
				<path class="cls-36" d="M290.56,59.44a1.25,1.25,0,0,0-1.6-1.28c-4.54,1.24-9.57,6.7-9.47,11.58a1.76,1.76,0,0,0,1.28,1.67c4.89,1.92,8.69-6.06,10.74-9.17A1.89,1.89,0,0,0,290.56,59.44Z"/>
				<path class="cls-36" d="M293.93,81.46a5.44,5.44,0,0,0-1.26-.35,1.25,1.25,0,0,0-.66-.24,6.13,6.13,0,0,0-6.39,6.9,2,2,0,0,0,1.9,1.44c3.41-.08,7.16-2.36,7.41-6A2,2,0,0,0,293.93,81.46Z"/>
				<path class="cls-36" d="M293,92.72a1.35,1.35,0,0,0-1-1.11c-1.24-.3-2.54-.09-3,1.27-.6,1.87,1.66,2.72,3.05,2.32A1.66,1.66,0,0,0,293,92.72Z"/>
				<path class="cls-36" d="M295.31,112c-4.05-2.26-9.85-1.14-12.37,2.92a2,2,0,0,0,.89,3,3.49,3.49,0,0,0,2.34,2.06c3.38.94,7.32-2.6,9.57-4.67A2.08,2.08,0,0,0,295.31,112Z"/>
				<path class="cls-36" d="M279.93,197.75c-11.28-2.46-17.16-14.82-18.71-25.48-.19-1.24-2.33-1-2.2.3,1,9.85,8,29.06,20.42,28.77C281.46,201.31,282,198.2,279.93,197.75Z"/>
				<path class="cls-36" d="M287,211.53a8.82,8.82,0,0,0-5.23-3.46,1.26,1.26,0,0,0-1-1,8,8,0,0,0-4.9.37,3.1,3.1,0,0,0-1.24,4.22,1.89,1.89,0,0,0,.61,1.55,7.12,7.12,0,0,0,5.79,2.06,13.32,13.32,0,0,0,4.81-.75A2,2,0,0,0,287,211.53Z"/>
				<path class="cls-36" d="M280.63,190.91a2,2,0,0,0-2.43,1.52,1.29,1.29,0,0,0,1.23,1.63h.2a1.43,1.43,0,0,0,2-.52A1.78,1.78,0,0,0,280.63,190.91Z"/>
				<path class="cls-36" d="M289,239.39a6.38,6.38,0,0,0-2.59-1c2,.06,3.48-2.8,1.31-3.84-6.53-3.17-12.85-5.4-18.58-10a35.56,35.56,0,0,1-11.79-19c-.4-1.63-2.8-.92-2.49.71,2.94,14.79,15.77,29.22,31,32.16a5.77,5.77,0,0,0-2.43.24,3.62,3.62,0,0,0-1.69,1.26,2.56,2.56,0,0,0-2.57,1.64c-.52,1.49.66,2.89,1.76,3.71,2.57,1.93,6.79,2.71,8.9-.23A3.73,3.73,0,0,0,289,239.39Z"/>
				<path class="cls-36" d="M287.06,225.7c-.18,0-.4.05-.59.08a1.34,1.34,0,0,0-.29-.09,15.49,15.49,0,0,0-1.72-.28,2.31,2.31,0,0,0-1.85,1.19,1.5,1.5,0,0,0,.55,2.09c1.74.73,3.53,1.33,5.08-.15C289.2,227.59,288.54,225.53,287.06,225.7Z"/>
				<path class="cls-14" d="M125.56,9.25a6.07,6.07,0,0,0-5.74-1.91c-2.07-.11-4,.12-5.43,2.09a3.59,3.59,0,0,0,1.13,5.12c3.4,2.37,9.24.63,10.59-3.23A2.12,2.12,0,0,0,125.56,9.25Z"/>
				<path class="cls-14" d="M108.35,14a1.18,1.18,0,0,0-.19.67.39.39,0,0,1,0,.13,1.55,1.55,0,0,0,1.56,1.57,2.11,2.11,0,0,0,1.89-1.52C112.45,12.76,108.85,11.8,108.35,14Z"/>
				<path class="cls-14" d="M161.11,15.71a4.94,4.94,0,0,0-6.18.2A6.64,6.64,0,0,0,153,17.24a1.81,1.81,0,0,0-.47,1.79c1.2,3.25,5.74,3.86,8.35,1.89a4.46,4.46,0,0,0,1.58-2C163,17.51,162.24,16.46,161.11,15.71Z"/>
				<path class="cls-14" d="M146.51,16.3c-.2,0-.39,0-.6.07a1.88,1.88,0,0,0,0,3.75l.6.06C149,20.41,149,16.08,146.51,16.3Z"/>
				<path class="cls-14" d="M181.88,28.05a2.4,2.4,0,0,0-1.6-.22,1.85,1.85,0,0,0-1.15,2.35,1.7,1.7,0,0,0,3.12.24A1.35,1.35,0,0,0,181.88,28.05Z"/>
				<path class="cls-14" d="M84.74,15.93a4.32,4.32,0,0,0-1.13-.88c-1.76-2.37-6.68.4-5,3.47a3.8,3.8,0,0,0,3.25,1.83,3.55,3.55,0,0,0,3.39-2.48A2,2,0,0,0,84.74,15.93Z"/>
				<path class="cls-14" d="M87.84,17.67a1.78,1.78,0,0,0,0,3.55A1.78,1.78,0,0,0,87.84,17.67Z"/>
				<path class="cls-7" d="M146.66,224.22a7.73,7.73,0,0,0-5.36-.54,7.16,7.16,0,0,0-3.61.94,3.51,3.51,0,0,0-1.69,2.6,3.3,3.3,0,0,0,1.86,2.47c3.19,1.79,8.6.63,9.75-3.12A2.05,2.05,0,0,0,146.66,224.22Z"/>
				<path class="cls-7" d="M155.57,223.17a1.32,1.32,0,0,0-1.71-.56,2.48,2.48,0,0,0-1.31.92,1.64,1.64,0,0,0,1.84,2.39l.35-.09a1.63,1.63,0,0,0,.73-.45A1.44,1.44,0,0,0,155.57,223.17Z"/>
				<path class="cls-7" d="M176.21,221.17a5.19,5.19,0,0,0-5.22-1.29,6.93,6.93,0,0,0-5.57,2.14,3.59,3.59,0,0,0,.61,5.46c3.07,2,9-.77,10.51-3.68A2.21,2.21,0,0,0,176.21,221.17Z"/>
				<path class="cls-7" d="M182.26,214.92a2.55,2.55,0,0,0-1.41,0,1.68,1.68,0,0,0-1.23,1.58c0,.07,0,.13,0,.2.12,1.17,1.69,2.27,2.67,1.17C183.71,217.55,183.76,215.15,182.26,214.92Z"/>
				<path class="cls-7" d="M192.61,212.85a2.06,2.06,0,0,0-1.71-.71,1.06,1.06,0,0,0-1.06.14,3.46,3.46,0,0,0-1.39,1.65,1.52,1.52,0,0,0,.71,1.74,2.73,2.73,0,0,0,3.46-.43A1.7,1.7,0,0,0,192.61,212.85Z"/>
				<path class="cls-7" d="M211.47,198.64a1.63,1.63,0,0,0,0,3.26A1.63,1.63,0,0,0,211.47,198.64Z"/>
				<path class="cls-38" d="M75.64,179.12c-5.47-4-14-8.35-21-6.2a4.41,4.41,0,0,0-3.18,4.59,3.25,3.25,0,0,0-.33,3.78c2.83,4.94,9.28,8.57,14,11.42C68.93,195,77.3,200,81.39,195.54,86.52,189.94,80.29,182.51,75.64,179.12Z"/>
				<path class="cls-38" d="M100.87,193.35A12.09,12.09,0,0,0,93.63,192a5.78,5.78,0,0,0-3.51,1c-2.63,1.78-3.72,5.8-1.86,8.53,2.93,4.3,9.62,4,14.15,3a4.12,4.12,0,0,0,3.06-4A8.3,8.3,0,0,0,100.87,193.35Z"/>
				<path class="cls-38" d="M115.07,201.61c-3.29,0-3.29,5.1,0,5.1S118.37,201.61,115.07,201.61Z"/>
				<path class="cls-38" d="M180.14,201.16a16.73,16.73,0,0,0-3.46-.22c-6.71-.71-13.19,1.7-19,5.09-1.47.86-2.31,3.14-1.22,4.63,5.62,7.69,20,2.45,25.3-3.27C183.56,205.5,183,201.68,180.14,201.16Z"/>
				<path class="cls-38" d="M190.52,195.35c-4.39,0-4.39,6.83,0,6.83S194.91,195.35,190.52,195.35Z"/>
			</g>
		</g>
	</g>
</svg>