<svg xmlns="http://www.w3.org/2000/svg" 
	xmlns:xlink="http://www.w3.org/1999/xlink" viewBox="0 0 321.43 262.04">
	<defs>
		<style>.cls-1{fill:none;}.cls-2{isolation:isolate;}.cls-3{fill:url(#linear-gradient);}.cls-16,.cls-18,.cls-4{fill:#0074c8;}.cls-21,.cls-22,.cls-4{opacity:0.7;}.cls-24,.cls-27,.cls-29,.cls-5{opacity:0.4;}.cls-21,.cls-22,.cls-24,.cls-29,.cls-5,.cls-9{mix-blend-mode:multiply;}.cls-24,.cls-6{fill:#4a7da0;}.cls-7{fill:#bdebff;}.cls-8{fill:url(#linear-gradient-2);}.cls-9{fill:#c5c8c9;opacity:0.8;}.cls-10{clip-path:url(#clip-path);}.cls-11{fill:url(#linear-gradient-3);}.cls-12{mix-blend-mode:screen;}.cls-13{fill:url(#linear-gradient-4);}.cls-14{fill:#fff;}.cls-15{fill:url(#linear-gradient-5);}.cls-16{opacity:0.6;}.cls-17,.cls-27{fill:#46a6db;}.cls-19{fill:#ffd833;}.cls-20,.cls-21,.cls-29{fill:#fa0;}.cls-22{fill:#ff9300;}.cls-23{fill:url(#radial-gradient);}.cls-25{fill:#1e4d72;}.cls-26{fill:#7c2705;}.cls-28{fill:#fff2bb;}.cls-30{fill:url(#radial-gradient-2);}.cls-31{fill:url(#linear-gradient-6);}.cls-32{fill:url(#linear-gradient-7);}</style>
		<linearGradient id="linear-gradient" x1="80.03" y1="78.97" x2="273.75" y2="78.97" gradientUnits="userSpaceOnUse">
			<stop offset="0.09" stop-color="#ffd833"/>
			<stop offset="0.82" stop-color="#46a6db"/>
		</linearGradient>
		<linearGradient id="linear-gradient-2" x1="5843.1" y1="355.63" x2="5900.45" y2="355.63" gradientTransform="matrix(-0.67, -0.07, -0.13, 0.98, 4017.98, 139.64)" gradientUnits="userSpaceOnUse">
			<stop offset="0.3" stop-color="#fff"/>
			<stop offset="0.92" stop-color="#e2eaec"/>
		</linearGradient>
		<clipPath id="clip-path">
			<path class="cls-1" d="M33,129.87c8.25,7.45,18.91,1.64,24.68-10,5.3-10.69,9.61-25,7.77-37.05-1.57-10.09-8-17-16.52-13.63s-16.35,13-20.61,23.93C23.27,106.14,23.24,121.09,33,129.87Z"/>
		</clipPath>
		<linearGradient id="linear-gradient-3" x1="2824.74" y1="589.02" x2="2841.06" y2="631.35" gradientTransform="matrix(0.33, 0.42, -0.54, 0.9, -583.8, -1650.64)" gradientUnits="userSpaceOnUse">
			<stop offset="0" stop-color="#381400"/>
			<stop offset="0.39" stop-color="#843700"/>
			<stop offset="1" stop-color="#de7c00"/>
		</linearGradient>
		<linearGradient id="linear-gradient-4" x1="2822.03" y1="618.24" x2="2844.9" y2="618.24" gradientTransform="matrix(0.33, 0.42, -0.54, 0.9, -583.8, -1650.64)" gradientUnits="userSpaceOnUse">
			<stop offset="0" stop-color="#381400"/>
			<stop offset="0.15" stop-color="#843700"/>
			<stop offset="0.15" stop-color="#8b4004"/>
			<stop offset="0.2" stop-color="#ae701d"/>
			<stop offset="0.24" stop-color="#cb9730"/>
			<stop offset="0.29" stop-color="#e2b640"/>
			<stop offset="0.33" stop-color="#f2cc4b"/>
			<stop offset="0.37" stop-color="#fcda52"/>
			<stop offset="0.41" stop-color="#ffde54"/>
			<stop offset="0.48" stop-color="#fad952"/>
			<stop offset="0.57" stop-color="#edcb4c"/>
			<stop offset="0.66" stop-color="#d7b442"/>
			<stop offset="0.75" stop-color="#b89334"/>
			<stop offset="0.85" stop-color="#906922"/>
			<stop offset="0.95" stop-color="#60360c"/>
			<stop offset="1" stop-color="#451a00"/>
		</linearGradient>
		<linearGradient id="linear-gradient-5" x1="107.18" y1="199.58" x2="248.71" y2="199.58" xlink:href="#linear-gradient"/>
		<radialGradient id="radial-gradient" cx="2333.77" cy="-2726.71" r="8.06" gradientTransform="translate(-10246.37 12158.86) scale(4.4 4.4)" gradientUnits="userSpaceOnUse">
			<stop offset="0.42" stop-color="#8f2800"/>
			<stop offset="1" stop-color="#381a00"/>
		</radialGradient>
		<radialGradient id="radial-gradient-2" cx="2296.19" cy="-3108.44" r="8.9" gradientTransform="translate(-12553.99 18766.75) scale(5.5 6.01)" xlink:href="#linear-gradient-2"/>
		<linearGradient id="linear-gradient-6" x1="79.89" y1="77.23" x2="96.64" y2="120.7" gradientTransform="matrix(1, 0, 0, 1, 0, 0)" xlink:href="#linear-gradient-3"/>
		<linearGradient id="linear-gradient-7" x1="75.5" y1="109.48" x2="96.29" y2="109.48" gradientTransform="matrix(1, 0, 0, 1, 0, 0)" xlink:href="#linear-gradient-4"/>
	</defs>
	<title>Asset 5</title>
	<g class="cls-2">
		<g id="Layer_2" data-name="Layer 2">
			<g id="Layer_2-2" data-name="Layer 2">
				<path class="cls-3" d="M251.68,157.93c.9-.11,1.77-.23,2.66-.36a24.13,24.13,0,0,1-1.89-6.55,66,66,0,0,1-.64-13.27c.41-13.82,3.59-27.39,7.54-40.58,1.8-6.05,3.66-12.13,5.87-18,1.78-4.82,3.73-9.58,5.33-14.46,2.79-8.52,5.65-19.89-.21-27.8a.58.58,0,0,0-.18-.11l.11-.05c-.22-.33-.42-.63-.64-1a1.53,1.53,0,0,1-.12-.24c-10.31,3.73-19.89-4.41-28-10.8A117,117,0,0,0,211.4,8.16a121.43,121.43,0,0,0-35.62-8,93,93,0,0,0-32.19,3.68,155.13,155.13,0,0,0-36.92,15.72c-10.45,6.3-20.89,14.9-25.4,26.57l-1.08.75c-.4.28,0,1,.41.68l.56-.36a.3.3,0,0,0,.45-.12,1,1,0,0,0,.09-.21C102,34.19,123.57,23.6,147,18.45c22.29-4.89,47.64-4.25,66.13,10.7,15.14,12.22,21.1,31.7,23.22,50.35a216.2,216.2,0,0,1,1,28.84c-.21,9.82-1,19.77,1,29.46A32.63,32.63,0,0,0,251.68,157.93Z"/>
				<path class="cls-4" d="M272.61,41.25c.25,8.52-2.59,17.2-6.57,25-3.39,6.63-5.46,13.79-8,20.77-1.08,3-4.09,12.63-8.88,11.5-2.69-.63-.66-20.17-.57-24.76.18-10.8-3.95-23.28-9.53-32.33-5.14-8.3-11.29-13.55-19.41-19.14a70.19,70.19,0,0,0-22.43-10.17,100,100,0,0,0-53.5,1.43C125,19.23,110.68,24.7,88.18,37.32c-.33.19.27-2.4.12-2.76a40.78,40.78,0,0,0-7,11.59l-1.08.75c-.4.28,0,1,.41.68l.56-.36a.3.3,0,0,0,.45-.12,1,1,0,0,0,.09-.21C102,34.19,123.57,23.6,147,18.45c22.29-4.89,47.64-4.25,66.13,10.7,15.14,12.22,21.1,31.7,23.22,50.35a216.2,216.2,0,0,1,1,28.84c-.21,9.82-1,19.77,1,29.46a32.63,32.63,0,0,0,13.23,20.14c.9-.11,1.77-.23,2.66-.36a24.13,24.13,0,0,1-1.89-6.55,66,66,0,0,1-.64-13.27c.41-13.82,3.59-27.39,7.54-40.58,1.8-6.05,3.66-12.13,5.87-18,1.78-4.82,3.73-9.58,5.33-14.46C272.84,57.62,275.2,48.63,272.61,41.25Z"/>
				<g class="cls-5">
					<path class="cls-6" d="M269.21,42.31c-2.38,6.81-7.58,11.86-13.21,16.11-2.75,2.05-5.63,3.9-8.53,5.73a78.35,78.35,0,0,0-8,5.18c-.5.4.12,1.14.65.85,2.92-1.58,5.69-3.58,8.47-5.36,3.09-2,6.15-4.08,9-6.34,5.31-4.15,10.37-9.37,12.15-16A.3.3,0,0,0,269.21,42.31Z"/>
					<path class="cls-6" d="M267.68,55.61C259.83,63,251.05,69,242.41,75.36c-.46.32-.05,1.06.43.76A144.41,144.41,0,0,0,268.08,56C268.32,55.77,267.95,55.38,267.68,55.61Z"/>
					<path class="cls-6" d="M264.47,66.29C257.64,72.58,248.33,74.53,241,80c-.43.33,0,1.06.44.73,7.59-4.89,16.92-7.51,23.36-14.09C265,66.42,264.69,66.07,264.47,66.29Z"/>
					<path class="cls-6" d="M259.69,76c-6.91,2.75-13.78,5.94-20.45,9.23-.33.15-.11.7.23.58,6.91-2.84,13.67-6.17,20.43-9.35C260.15,76.28,260,75.84,259.69,76Z"/>
					<path class="cls-6" d="M256.45,83.12a49.32,49.32,0,0,0-9,2.29c-2.42.85-5.21,2-6.93,4-.25.28.08.79.42.55,4.86-3.31,9.94-5,15.66-6.31C256.94,83.56,256.79,83.06,256.45,83.12Z"/>
					<path class="cls-6" d="M256.22,89.59a102.43,102.43,0,0,0-15.86,7.62c-.35.18-.11.79.27.64,5.4-2.16,10.32-5.51,15.74-7.71C256.72,90,256.57,89.45,256.22,89.59Z"/>
					<path class="cls-6" d="M257.33,94.28a101.32,101.32,0,0,1-17.14,6.55.4.4,0,0,0,.23.77,73,73,0,0,0,17.17-6.89A.26.26,0,0,0,257.33,94.28Z"/>
					<path class="cls-6" d="M254.53,99.36a31.83,31.83,0,0,1-7.79,3.51c-2.48.83-5.23,1.37-7.54,2.65a.37.37,0,0,0,.28.67c5.1-1.47,11-3.14,15.33-6.39C255.07,99.62,254.84,99.18,254.53,99.36Z"/>
					<path class="cls-6" d="M253.44,105.79c-4.62,1.46-9.76,2.72-13.8,5.49a.42.42,0,0,0,.43.72,136.41,136.41,0,0,1,13.53-5.63C253.95,106.24,253.81,105.66,253.44,105.79Z"/>
					<path class="cls-6" d="M253,112c-4.28,1.54-9,1.95-13.11,3.85-.44.2-.12,1,.33.79,4.25-1.64,8.9-2.18,13-4.1A.3.3,0,0,0,253,112Z"/>
					<path class="cls-6" d="M250.51,119.91A31,31,0,0,0,239.27,121c-.46.16-.26.89.21.75a36.1,36.1,0,0,1,11-1.25C250.88,120.51,250.88,120,250.51,119.91Z"/>
					<path class="cls-6" d="M249,125a16.14,16.14,0,0,0-10.47.92c-.34.17-.1.73.29.63,3.37-.93,6.48-1.81,10-1C249.17,125.68,249.33,125.11,249,125Z"/>
					<path class="cls-6" d="M248.42,130.12a27,27,0,0,0-10.29,1.09.37.37,0,0,0,.19.71,41.07,41.07,0,0,1,10.1-1.23C248.79,130.7,248.77,130.15,248.42,130.12Z"/>
					<path class="cls-6" d="M248.42,134.49a15.7,15.7,0,0,0-8.28,2.09c-.35.18-.11.78.26.65,2.67-1,5.11-2.18,8-2.13C248.82,135.12,248.8,134.53,248.42,134.49Z"/>
					<path class="cls-6" d="M248.18,138.69c-2.26.21-4.94.54-6.7,2.13-.3.26.07.7.38.54a16.52,16.52,0,0,1,6.33-2.09C248.56,139.21,248.56,138.63,248.18,138.69Z"/>
					<path class="cls-6" d="M248.18,142.36a8.51,8.51,0,0,0-5.56,1.7c-.32.26.09.71.42.54a10.88,10.88,0,0,1,5.14-1.59A.32.32,0,1,0,248.18,142.36Z"/>
					<path class="cls-6" d="M263.65,39.52c-2.09,6.34-7,11.35-12.06,15.57a75,75,0,0,1-8.32,6c-1.29.82-2.59,1.62-3.93,2.36a13,13,0,0,0-3.08,1.77.48.48,0,0,0,.33.81c2.45-.23,5.29-2.55,7.31-3.85a75.55,75.55,0,0,0,8.37-6.39c4.9-4.22,10.37-9.63,12-16.12A.3.3,0,0,0,263.65,39.52Z"/>
					<path class="cls-6" d="M253.28,38.37c-1.83,5-5.43,8.83-9.23,12.39-1.8,1.68-3.7,3.23-5.52,4.89-1,.92-2,1.85-3,2.75a9.58,9.58,0,0,0-1,1.19.45.45,0,0,0-.7.26,2.23,2.23,0,0,0-.1.89c.06.42.57.49.89.34a2.22,2.22,0,0,0,.83-.85,27.47,27.47,0,0,1,3.3-3.19c2.18-2,4.38-4,6.49-6.1,3.61-3.54,6.94-7.55,8.53-12.43A.26.26,0,0,0,253.28,38.37Z"/>
					<path class="cls-6" d="M248.14,34.19c-1.77,4.39-4.87,7.9-8.26,11.1-2.82,2.66-6.35,4.77-9,7.61-.38.41.11,1.15.62.82a74.71,74.71,0,0,0,9.53-8.22c3.25-3.14,6.21-6.81,7.66-11.16C248.82,34,248.27,33.85,248.14,34.19Z"/>
					<path class="cls-6" d="M243.38,30.93c-2,3.28-5,5.64-7.91,8.11-2.21,1.91-5.07,4.26-5.9,7.18-.11.38.41.55.62.25a36.33,36.33,0,0,1,6.77-7.76c2.6-2.25,5.14-4.52,6.78-7.58A.2.2,0,0,0,243.38,30.93Z"/>
					<path class="cls-6" d="M240.14,27.38C236,31.95,230.45,35,226.71,40.06c-.33.46.44.89.77.45,3.73-4.88,9.06-8.1,13-12.78C240.69,27.48,240.35,27.14,240.14,27.38Z"/>
					<path class="cls-6" d="M235.1,23.85c-5.07,3.74-11.36,6.59-14.89,12-.35.54.47,1,.83.5,3.77-5.25,9.54-8,14.34-12.12C235.59,24.06,235.31,23.7,235.1,23.85Z"/>
					<path class="cls-6" d="M227.44,21.07a48.92,48.92,0,0,0-12.25,9.17c-.41.42.26,1.07.67.65a51.91,51.91,0,0,1,11.84-9.35A.27.27,0,1,0,227.44,21.07Z"/>
					<path class="cls-6" d="M223.72,16.64c-5.38,2.62-11.26,5.49-14.86,10.41-.4.55.46,1,.85.51,3.74-4.92,9.25-7.18,14.31-10.42A.29.29,0,0,0,223.72,16.64Z"/>
					<path class="cls-6" d="M217.71,13.4a66.6,66.6,0,0,0-12.93,8.5c-.39.33.14,1,.55.71A130.12,130.12,0,0,1,218,13.91.29.29,0,0,0,217.71,13.4Z"/>
					<path class="cls-6" d="M210.89,11.05a26.93,26.93,0,0,0-8.37,2.33c-2.61,1.11-5.64,2.36-7.71,4.34-.39.36.11,1,.57.72,2.33-1.3,4.47-2.85,6.91-4A40.35,40.35,0,0,1,211,11.6.28.28,0,0,0,210.89,11.05Z"/>
					<path class="cls-6" d="M205.32,8.53c-5.56.65-12.31,3-16.54,6.87a.48.48,0,0,0,.58.76c4.9-3.36,10.13-6.06,16-7.11C205.71,9,205.64,8.49,205.32,8.53Z"/>
					<path class="cls-6" d="M195.51,5.72c-6.11,1.9-12.46,4.26-17.4,8.51-.43.37.15,1.12.61.78a63.67,63.67,0,0,1,17-8.71A.3.3,0,0,0,195.51,5.72Z"/>
					<path class="cls-6" d="M183.95,4.35c-5.72,1.39-10.51,5.11-14.41,9.39-.45.5.28,1.23.71.74a33,33,0,0,1,13.85-9.6A.27.27,0,0,0,183.95,4.35Z"/>
					<path class="cls-6" d="M175.86,2.81c-6,1.29-10.54,6-14.9,10-.48.43.26,1.18.73.71C166,9.35,170.19,5.34,176,3.2A.2.2,0,1,0,175.86,2.81Z"/>
					<path class="cls-6" d="M164.89,2.51c-5.48,3.36-12.46,7.66-15.33,13.67-.23.47.39,1.06.76.59a55.36,55.36,0,0,1,6.18-7.12A94.77,94.77,0,0,1,165.18,3C165.47,2.81,165.19,2.33,164.89,2.51Z"/>
					<path class="cls-6" d="M155.85,3.21c-6.62,4.26-13.05,9.27-17,16.18a.55.55,0,0,0,1,.56c4.07-6.88,10-11.57,16.35-16.25C156.43,3.5,156.17,3,155.85,3.21Z"/>
					<path class="cls-6" d="M142.82,6.95a80.31,80.31,0,0,0-8.39,7.46c-2.22,2.36-4.65,5.38-5.26,8.62-.1.47.57.81.8.33a32.34,32.34,0,0,1,5.6-8.87,87.62,87.62,0,0,1,7.65-7.14C143.5,7.13,143.12,6.74,142.82,6.95Z"/>
					<path class="cls-6" d="M134.27,9.28c-6,4.89-12.83,10.53-16,17.79a.48.48,0,0,0,.83.48,67.81,67.81,0,0,1,7.17-9.89,111.85,111.85,0,0,1,8.35-8C134.91,9.44,134.52,9.07,134.27,9.28Z"/>
					<path class="cls-6" d="M123.4,13.17a38.94,38.94,0,0,0-8.14,8c-2.27,3-4.93,6.69-5.8,10.43a.46.46,0,0,0,.84.35c1.83-3.24,3.14-6.61,5.3-9.72a39,39,0,0,1,8.18-8.6C124,13.42,123.69,13,123.4,13.17Z"/>
					<path class="cls-6" d="M110.62,19.47c-4,5.13-8.87,10.6-9.58,17.36-.06.57.91.71,1,.12,1.41-6.68,5.15-11.65,9-17.14C111.26,19.55,110.82,19.21,110.62,19.47Z"/>
					<path class="cls-6" d="M103.41,23.62c-4,3.79-6.51,9.87-7.21,15.27-.07.56.85.67,1,.14,1.39-5.45,2.94-10.62,6.69-15A.31.31,0,0,0,103.41,23.62Z"/>
					<path class="cls-6" d="M95.3,29.17A21.94,21.94,0,0,0,90.46,41c0,.51.73.57.88.11,1.25-4.12,1.89-7.94,4.49-11.55C96,29.26,95.55,28.9,95.3,29.17Z"/>
					<path class="cls-6" d="M89,35.34c-1,2.51-2.56,5.76-2.15,8.52a.4.4,0,0,0,.78,0c.28-1.36.37-2.76.72-4.16s.84-2.8,1.29-4.19C89.75,35.1,89.1,34.94,89,35.34Z"/>
				</g>
				<path class="cls-7" d="M263.53,43.1c-.72,2.18-2.43,4-4,5.65S256.15,51.69,256,54c-.09,1.37,1.26,2,2.4,1.82,2.33-.3,4.33-3.46,5.67-5.17a11.57,11.57,0,0,0,2.63-7.07A1.64,1.64,0,0,0,263.53,43.1Z"/>
				<path class="cls-7" d="M258.59,41.62a42.58,42.58,0,0,0-4.24,4.14c-1.3,1.29-3.62,3-3.58,5a1.6,1.6,0,0,0,1.59,1.57c2-.12,3.51-2.33,4.76-3.74a15.6,15.6,0,0,0,3.54-5.34C261,42.11,259.6,40.86,258.59,41.62Z"/>
				<path class="cls-7" d="M248.86,37.29c-.32.62-.7,1.22-1.07,1.81-.47.77-1.12,1.41-1.54,2.18a1.72,1.72,0,0,0,2.68,2.08,8.72,8.72,0,0,0,2.42-5C251.58,36.92,249.64,35.86,248.86,37.29Z"/>
				<path class="cls-7" d="M236.58,26.19a1.36,1.36,0,0,0-1.59.19,9.22,9.22,0,0,1-1,.76c-.18.12-.37.24-.56.34a2.05,2.05,0,0,0-1,1.24,1.69,1.69,0,0,0,1.62,2.11,2.52,2.52,0,0,0,2.05-1.23,7.37,7.37,0,0,0,1.07-1.95A1.28,1.28,0,0,0,236.58,26.19Z"/>
				<path class="cls-7" d="M242.48,30.38a1.5,1.5,0,0,0-2.43-.76l-.05,0-.42.3a1.74,1.74,0,0,0,0,2.4,1.77,1.77,0,0,0,1.67.44,1.69,1.69,0,0,0,1.19-1.19A3,3,0,0,0,242.48,30.38Z"/>
				<path class="cls-7" d="M258.21,71.74c-.88.33-1.85.41-2.71.76a1.88,1.88,0,1,0,1,3.62,6.46,6.46,0,0,0,3.19-1.88C260.68,73.23,259.68,71.2,258.21,71.74Z"/>
				<path class="cls-7" d="M261.63,63.42a1.65,1.65,0,0,0,0,3.29A1.65,1.65,0,0,0,261.63,63.42Z"/>
				<path class="cls-7" d="M229.65,21.25a1.79,1.79,0,0,0-1.41.23,2,2,0,0,0-1.08.57,1.92,1.92,0,0,0,.38,3,2.37,2.37,0,0,0,3.4-2.11A1.78,1.78,0,0,0,229.65,21.25Z"/>
				<path class="cls-8" d="M33,129.87c8.25,7.45,18.91,1.64,24.68-10,5.3-10.69,9.61-25,7.77-37.05-1.57-10.09-8-17-16.52-13.63s-16.35,13-20.61,23.93C23.27,106.14,23.24,121.09,33,129.87Z"/>
				<path class="cls-9" d="M33,129.87c8.25,7.45,18.91,1.64,24.68-10,5.3-10.69,9.61-25,7.77-37.05-1.57-10.09-8-17-16.52-13.63s-16.35,13-20.61,23.93C23.27,106.14,23.24,121.09,33,129.87ZM29.41,91.43A35.13,35.13,0,0,1,42.72,74.21c4.76-3.3,9-3.86,13.34-.21,2.56,2.19,4.7,4.18,5.24,8.43,1.07,8.1-1.57,18.4-4.52,26-3,7.75-6.06,13.84-12,15.89-6.18,2.14-11-3.11-14.2-9.51C26.89,107.43,26.42,100.1,29.41,91.43Z"/>
				<g class="cls-10">
					<path class="cls-11" d="M35.57,107.12c-3.76,9.48-8.76,13.51-11.16,9s-1.31-15.86,2.46-25.33,8.75-13.51,11.17-9S39.34,97.63,35.57,107.12Z"/>
					<path d="M33.82,103.86c-2.24,5.68-5.25,8.1-6.69,5.41s-.79-9.51,1.46-15.19S33.86,86,35.3,88.67,36.09,98.17,33.82,103.86Z"/>
					<g class="cls-12">
						<path class="cls-13" d="M27.15,116.69c.79-.19,1.89-1.27,2.24-3.43.23-1.45,0-1.93-.43-2.11-.8.35-1.88.68-2.4-.42-.66-1.43-1.56-4.09-.66-9.14.79-3.31,1.2-4.7.35-4.38s-2,4.92-2.33,7.38c-.6,4.3-.11,8.27,1,10.4.53,1,1.17,1.79,2,1.74A1,1,0,0,0,27.15,116.69Z"/>
					</g>
					<path class="cls-14" d="M39.69,84.93c-.41-6.8-2.87-3.77-4.27,1.27s-1.44,12.6.66,14.92S40.22,94.06,39.69,84.93Z"/>
				</g>
				<path class="cls-15" d="M243.19,172.88c.07,0,.11-.07.17-.1a28,28,0,0,1-3.45.22c-4,1.93-8,4.09-11.93,6.21a122.19,122.19,0,0,1-16.61,7.28c-11.3,4-22.83,7.45-34.46,10.46-22.74,5.89-45.79,10.35-69.33,10.47a.42.42,0,0,0,0,.84l.58,0s0,0,0,0c5.3,7.57,15.77,10.15,24.36,11.5a134.65,134.65,0,0,0,34.09.5c14.39-1.43,28.58-4.43,43-5.74,10.68-1,23.33,1.11,30.22,10.24a.47.47,0,0,0,.17.15c-.18.3-.36.61-.55.9a.33.33,0,0,0,.56.34c10.22-14.53,11.91-37.59,2.33-53Z"/>
				<path class="cls-16" d="M242.37,173.26l.82-.38c.07,0,.11-.07.17-.1a28,28,0,0,1-3.45.22c-4,1.93-8,4.09-11.93,6.21a122.19,122.19,0,0,1-16.61,7.28c-11.3,4-22.83,7.45-34.46,10.46-22.74,5.89-45.79,10.35-69.33,10.47a.42.42,0,0,0,0,.84l.58,0s0,0,0,0c5.3,7.57,15.77,10.15,24.36,11.5a95.4,95.4,0,0,0,16.53,1.29c-4-.57-7.91-.57-11.8-1.66-5.64-1.59-8.54-4.44-.94-6.1,13.43-2.92,27.3-2.77,40.72-6,10.42-2.48,24.62-4.4,34.13-9.32,8.47-4.41,13.08-6.5,18.45-8.3,12.15-4.07,15.83,4.11,14.59,16.09-.51,4.88-1.89,13.7-4.67,18.6l.33.4a.47.47,0,0,0,.17.15c-.18.3-.36.61-.55.9a.33.33,0,0,0,.56.34C250.27,211.7,252,188.65,242.37,173.26Z"/>
				<path class="cls-17" d="M321.11,66.67a2.42,2.42,0,0,1-.28.19c-10.57.74-20.6,7.47-28,14.61s-12.71,16.39-16,26.22c-3,8.77-3.92,18-6.38,26.92-2.33,8.54-6.44,18.07-15.66,20.82a.54.54,0,0,0-.41.53c.05.56.07,1.14.11,1.7a.48.48,0,0,0,0,.91c-.09,4.46-1.52,8.65-4.92,11.64-.3-.18-.69.14-.51.41-.18.14-.33.29-.51.42-.44.32,0,1,.42.73l.73-.51c3.34,3.43,4.05,7.56,4.48,12.26.49,5.51,1.07,11,1.86,16.5,1.49,10.12,3.1,20.66,7.13,30.14a57.4,57.4,0,0,0,14.41,20.2,65.51,65.51,0,0,0,10.87,8.05,41.17,41.17,0,0,0,8.74,3.61c1.45,0,2.89,0,4.34,0l-2.33-.81a15,15,0,0,1-4-3.55c-2.18-2.9-2.94-6.63-3.39-10.16-1.59-12,.34-24,1.52-35.93.84-8.36,1.49-17,.27-25.39-.7-4.9-2.48-10.9-7-13.25,8.51-1.7,12.86-12,14.29-19.65,1.7-9,1.4-18.25,1.29-27.33-.26-18.45-1.16-40.3,13.38-54.06a34.58,34.58,0,0,1,4.59-3.64l1.32-1.62A.34.34,0,0,0,321.11,66.67Z"/>
				<path class="cls-18" d="M295.19,257.68a13.64,13.64,0,0,1-1.32-2.2,43.51,43.51,0,0,1-16.12-10.82c-6.84-8-9.28-15.23-10.8-25.78-1.25-8.53-2-17.1-2.65-25.69-.36-4.49-1.07-9.78.64-14.11,3.72-9.5,15.29-7.43,23.37-4.92a8.55,8.55,0,0,0-1.75-1.2c5.64-1.12,9.44-6,11.79-11.44a19.3,19.3,0,0,1-1.93,1.55,20.86,20.86,0,0,1-17,3.09c-4.82-1.29-10.16-4.55-11.33-9.75-1.22-5.49,3.81-11.3,5.87-15.94,3.17-7.24,3.43-15.61,3.86-23.41a131.08,131.08,0,0,1,1.67-16.3c-1,2.27-1.92,4.59-2.73,7-3,8.77-3.92,18-6.38,26.92-2.33,8.54-6.44,18.07-15.66,20.82a.54.54,0,0,0-.41.53c.05.56.07,1.14.11,1.7a.48.48,0,0,0,0,.91c-.09,4.46-1.52,8.65-4.92,11.64-.3-.18-.69.14-.51.41-.18.14-.33.29-.51.42-.44.32,0,1,.42.73l.73-.51c3.34,3.43,4.05,7.56,4.48,12.26.49,5.51,1.07,11,1.86,16.5,1.49,10.12,3.1,20.66,7.13,30.14a57.4,57.4,0,0,0,14.41,20.2,65.51,65.51,0,0,0,10.87,8.05,41.17,41.17,0,0,0,8.74,3.61c1.45,0,2.89,0,4.34,0l-2.33-.81A15,15,0,0,1,295.19,257.68Z"/>
				<g class="cls-5">
					<path class="cls-6" d="M272.6,152.94c4.89-5.76,7.79-13,10.3-20,2.82-7.88,4.9-16,7.57-23.88a92.3,92.3,0,0,1,12-23.94c.23-.33-.29-.61-.51-.29a89.89,89.89,0,0,0-10.76,19.94c-2.83,7.21-4.67,14.77-7.17,22.09-2.4,7-4.8,14-8.58,20.44a35.4,35.4,0,0,1-7.35,8.83c-3.14,2.7-7.92,5.73-12.12,4.23a7.15,7.15,0,0,1-.23,1C262,163.36,268.82,157.38,272.6,152.94Z"/>
					<path class="cls-6" d="M271.06,146.81c4.65-6.72,7-15,9-22.8,2.1-8.15,3.83-16.31,7.28-24A70.15,70.15,0,0,1,302,78.91a.23.23,0,0,0-.33-.33A69,69,0,0,0,287.78,97c-3.58,6.87-5.53,14.31-7.42,21.81-2,7.95-4,16-7.68,23.33-3,6-9.27,14.64-16.66,15.43,0,.32.06.62.06.91C262.47,157.64,267.59,151.82,271.06,146.81Z"/>
					<path class="cls-6" d="M263.53,163.13a45.36,45.36,0,0,0,9.17-5.69c5.7-4.63,9.65-11.13,12.68-17.71a96.35,96.35,0,0,0,6.86-22c1.61-8.22,3.29-16.53,8.3-23.46.2-.28-.26-.52-.46-.27-4.31,5.65-6.25,12.3-7.72,19.14-1.56,7.21-3,14.24-5.66,21.15-2.61,6.71-6,13.25-10.77,18.68a34.08,34.08,0,0,1-8.28,6.79c-3.88,2.28-7.92,4.72-12.39,3-.1.3-.2.64-.32.94C257.9,164.88,260.59,164.51,263.53,163.13Z"/>
					<path class="cls-6" d="M296.67,113c-7.49,19.25-9.12,52.77-36.52,52.8a.37.37,0,0,0,0,.75c27.59,2,30.43-34.82,37-53.43C297.24,112.81,296.8,112.67,296.67,113Z"/>
					<path class="cls-6" d="M295.45,159.22c-3.1,6.33-10.12,8.9-16.64,10.08a45.67,45.67,0,0,1-5.66.64c8.9-1.84,17.69-8,21-16,.13-.36-.48-.63-.63-.27-4.77,10.19-16.12,15.39-26.81,16.23a62.56,62.56,0,0,1-7.59-1.06l-.61-.56a.22.22,0,1,0-.32.32l.07.07a.61.61,0,0,1-.19,0,.36.36,0,0,0-.19.7c.5.18,1,.34,1.53.49a109.08,109.08,0,0,1,10.49,11.62,42.67,42.67,0,0,1,7.27,17.5c1.25,6.35,1.6,12.89,3.24,19.17a35.44,35.44,0,0,0,7.83,14.75c.25.28.77-.11.54-.41-3.72-5.11-6.41-10-7.84-16.23-1.53-6.6-2-13.36-3.47-20-2.45-11-9.21-18.68-17-26.13a20.65,20.65,0,0,0,2.06.41c-.25,0-.35.42-.07.49,10,2.75,15,11.46,17.91,20.74s2.7,19.56,8.48,27.62c.26.4.93.05.64-.37a30.1,30.1,0,0,1-4.25-9.07c-.55-2.32-.87-4.7-1.34-7a95.61,95.61,0,0,0-3.64-14.06c-3-8.37-8.39-16-17.41-18.25a29.57,29.57,0,0,0,3.93.4A32,32,0,0,1,282.63,185c3.54,6.65,2.67,15,6.94,21.3a.36.36,0,0,0,.62-.36c-3.95-7.35-3.49-16.1-7.86-23.25A30,30,0,0,0,268.7,171c.65,0,1.3,0,2,0a.28.28,0,0,0,.29.2c6.16-1,10.75,3.91,13.82,8.61a40,40,0,0,1,5.74,14.65c.05.35.66.26.62-.08-.39-5.75-3.36-11.72-6.58-16.35-2.26-3.23-5.52-6.47-9.36-7.34,1.51-.19,3-.38,4.4-.65,6.41-1.16,13.74-4.07,16.34-10.58C296,159.15,295.58,159,295.45,159.22Z"/>
					<path class="cls-6" d="M296.58,133.59c-3.15,8.76-6.27,17.88-12.39,25.11-6.51,7.71-19.22,12.52-28.42,6.61-.39-.26-.74.35-.37.61,8.89,5.93,21.37,1.63,28.23-5.44S294,143,297.09,133.71C297.18,133.38,296.69,133.27,296.58,133.59Z"/>
					<path class="cls-6" d="M290.47,256.91a53.82,53.82,0,0,1-18.61-22.23,91.35,91.35,0,0,1-7.55-25.28c-1.08-7.45-1.3-15-2.7-22.39-1.22-6.44-3.51-13.22-8.86-17.42-.23-.18-.58.14-.33.36,5.71,5,7.73,12.48,8.88,19.68,1.17,7.36,1.3,14.82,2.54,22.16a92.84,92.84,0,0,0,7.93,24.67c4.06,8.4,10.4,16,18.45,20.84C290.49,257.47,290.74,257.07,290.47,256.91Z"/>
					<path class="cls-6" d="M289.41,251.81c-6.51-6.16-12-13-15.21-21.42-2.68-6.91-3.55-14.44-4.4-21.74-1.6-13.76-2.88-29.16-13.79-39-.21-.17-.5.11-.31.31,11.37,11.13,11.88,27.7,13.72,42.52.85,6.75,1.91,13.65,4.66,19.91,3.22,7.34,8.28,15.3,15,19.91C289.33,252.46,289.64,252,289.41,251.81Z"/>
					<path class="cls-6" d="M287.13,241.79c-11.43-10.73-12.68-26.58-14.73-41.15-1.72-12.3-4.82-25.82-16.47-32.42a.19.19,0,0,0-.2.33C268,176.39,270.3,190.86,272,204.24c.82,6.24,1.54,12.52,3.24,18.59,1.94,7,5.6,14.83,11.36,19.49C287,242.61,287.49,242.11,287.13,241.79Z"/>
				</g>
				<g class="cls-5">
					<path class="cls-6" d="M245.07,197.55a39.34,39.34,0,0,0-9.74-22.77.47.47,0,0,0-.74.56c2.29,3.74,5.08,7,6.75,11.11a43.86,43.86,0,0,1,2.57,11.1c.85,7.62.25,15.55-2.89,22.6-.13.29.28.54.44.25C245.3,213.73,245.77,205,245.07,197.55Z"/>
					<path class="cls-6" d="M239.27,195.06c-1.23-5.92-3.88-13-8.79-16.84a.51.51,0,0,0-.71.74,40.43,40.43,0,0,1,5.31,7.13,36.8,36.8,0,0,1,3.32,9.21A68.34,68.34,0,0,1,239.8,214c0,.35.53.35.58,0A69.92,69.92,0,0,0,239.27,195.06Z"/>
					<path class="cls-6" d="M237.07,215.58a129.38,129.38,0,0,0-6.64-16.88c-2.6-5.06-6.61-10.76-11.86-13.39-.5-.26-1.11.43-.64.82a58.16,58.16,0,0,1,6.32,5.43,38,38,0,0,1,5.31,7.65c2.91,5.23,4.89,10.93,7,16.51C236.72,216,237.19,215.89,237.07,215.58Z"/>
					<path class="cls-6" d="M234.54,216.27c-4.29-13.09-17.26-24-30-28.53-.63-.23-1.07.82-.46,1.09,12.51,5.34,25.08,14.33,29.92,27.59C234.15,216.72,234.64,216.59,234.54,216.27Z"/>
					<path class="cls-6" d="M225.19,208.55c-3.92-3.77-9.21-6.08-14.14-8.25-5.85-2.55-10.54-6.88-16.12-9.87-.48-.26-1,.4-.6.78A73,73,0,0,0,209,200.46c5.41,2.59,11.2,4.42,15.82,8.4C225.08,209.05,225.4,208.74,225.19,208.55Z"/>
					<path class="cls-6" d="M223.34,209.92c-5.18-4.33-12-4.89-18.33-6.25-7.86-1.68-14.65-5.54-21.6-9.4-.69-.38-1.3.67-.63,1,6.37,3.5,12.62,7.14,19.76,8.82s14.53,1.62,20.52,6.15C223.26,210.45,223.52,210.09,223.34,209.92Z"/>
					<path class="cls-6" d="M218.84,210.29c-6.82-2.69-14.26-2.94-21.42-4.2a43.41,43.41,0,0,1-11-3.29c-3.57-1.67-6.72-4.26-10-6.47-.66-.46-1.26.62-.63,1.07a76.71,76.71,0,0,0,9.28,6.1,37.09,37.09,0,0,0,10.5,3.34c7.72,1.44,15.54,1.58,23.1,4C219,210.9,219.14,210.42,218.84,210.29Z"/>
					<path class="cls-6" d="M200.46,212.23a45.19,45.19,0,0,1-18.09-4c-5.49-2.48-10.27-6.15-15.18-9.58-.64-.46-1.23.59-.62,1a80.55,80.55,0,0,0,16,9.52,45.22,45.22,0,0,0,17.9,3.34A.18.18,0,0,0,200.46,212.23Z"/>
					<path class="cls-6" d="M183.62,213.56A119.32,119.32,0,0,1,157,201c-.63-.41-1.2.59-.58,1a96.64,96.64,0,0,0,27.1,12A.23.23,0,0,0,183.62,213.56Z"/>
					<path class="cls-6" d="M176.85,214.69a28,28,0,0,1-15.43-3c-4.57-2.34-8.4-5.75-12.77-8.36-.64-.38-1.12.55-.57,1,8.3,6.23,18,12.69,28.85,10.89C177.21,215.15,177.14,214.67,176.85,214.69Z"/>
					<path class="cls-6" d="M175.46,216.57a48.06,48.06,0,0,1-21.31-2.28c-5.84-2.05-10.17-6.91-15.23-10.28-.65-.43-1.22.61-.6,1,5.13,3.55,9.64,8,15.59,10.18,6.64,2.44,14.63,2.84,21.6,1.82C175.78,217,175.72,216.54,175.46,216.57Z"/>
					<path class="cls-6" d="M155.08,217.9c-10.43-.48-20.31-5.13-28.08-11.93-.56-.49-1.39.32-.84.82a45.13,45.13,0,0,0,28.92,11.69C155.43,218.48,155.43,217.93,155.08,217.9Z"/>
					<path class="cls-6" d="M138.7,217.48a35.82,35.82,0,0,1-11.06-3.9,33.29,33.29,0,0,1-8.82-7.57c-.41-.45-1.06.13-.79.63,1.78,3.5,5.8,6,9.16,7.71A33.31,33.31,0,0,0,138.61,218C138.92,218,139,217.54,138.7,217.48Z"/>
					<path class="cls-6" d="M234.3,198a43.65,43.65,0,0,0-13.47-17.34c-.61-.47-1.5.35-.88.85a64.42,64.42,0,0,1,6.85,6.38,42.82,42.82,0,0,1,5.8,9.23,52.36,52.36,0,0,1,5.84,21.26.24.24,0,0,0,.48,0C239.13,211.42,237.07,204.39,234.3,198Z"/>
				</g>
				<path class="cls-19" d="M266,163l-.63-.18a5.24,5.24,0,0,0-.81-1.33c-1.63-1.87-4.14-2.58-6.36-3.52-6.34-2.7-9.83-8.81-11.77-15.13-3.89-12.78-2.13-26.19-2.64-39.3.3-5.15.72-10.25.85-15.32.35-13.28-1.24-26.3-7.19-38.32a68.83,68.83,0,0,0-20.77-24.6C196,9.91,168.93,9.19,144.67,15a180.43,180.43,0,0,0-37.46,13.9A148.76,148.76,0,0,0,74.55,50.47L74,51a.32.32,0,0,0,0,.47A69.76,69.76,0,0,0,64,60,123.28,123.28,0,0,0,41.63,91.74a117.42,117.42,0,0,0-9.07,25.05c-1.78,7.25-3.77,14.61-7.18,21.3-1.54,3-3.52,6.12-6.34,8.13a8.29,8.29,0,0,1-7.79.88c-1.43-1.85-2.81-3.8-5.25-3.83a1.73,1.73,0,0,0-.37,0,4.14,4.14,0,0,0-1.19,0,.53.53,0,0,0-.47.48,7,7,0,0,0-3.94,5c-.28,2.77,2.43,5.17,4.38,6.66A27,27,0,0,0,14.63,160a14,14,0,0,0,2.65.33c5.2,4.3,10.48,8.25,13,14.82s2.18,13.82,5.12,20.23c2.54,5.52,7.64,7,13.27,5.71a22.84,22.84,0,0,0,5.41-1.94c9.72.07,18.84,2.94,28.14,5.44a78.75,78.75,0,0,0,13.58,2.55c2.21.19,4.62.5,7,.55,7.68,4.93,18.67,3.61,27.25,3,6.14-.46,12.28-.67,18.4-1.43,7.06-.89,14.06-2.29,21-3.81,13.76-3,27.23-6.34,40.24-11.87a105.19,105.19,0,0,0,17.64-9.32c5.22-3.49,10.33-7.21,16-9.9a26.1,26.1,0,0,1,10.22-2.62c3-.13,6.08-.09,8.93-1.08a6,6,0,0,0,4-5.37A4.71,4.71,0,0,0,266,163Z"/>
				<path class="cls-20" d="M39.88,138.36a3.13,3.13,0,0,0-1.31-1,.94.94,0,0,0-.93-.63,4.62,4.62,0,0,0-4,1.74A3.82,3.82,0,0,0,33.4,142a4.8,4.8,0,0,0,.32.69,3,3,0,0,0,.46,1,5.43,5.43,0,0,0,2.26,2,4.24,4.24,0,0,0,2.32.67C42.84,146.23,41.48,140.28,39.88,138.36Z"/>
				<path class="cls-20" d="M50.09,140.62c-.59-1.89-1.79-3.59-3.9-3.75a3.1,3.1,0,0,0-2.5,1.06,2.63,2.63,0,0,0-.62.31,2.82,2.82,0,0,0-1.12,3,5.59,5.59,0,0,0,1.36,2.7,5.61,5.61,0,0,0,4,2.85,2.13,2.13,0,0,0,1.36-.26,2.39,2.39,0,0,0,1.81-1.85A7.48,7.48,0,0,0,50.09,140.62Z"/>
				<path class="cls-21" d="M258.93,165.93a33.8,33.8,0,0,0-17.31-2.49,67.18,67.18,0,0,0-18.2,4.59c-11.45,4.76-22.07,9-34.45,10.69-7.71,1.08-15.46,2.75-23.25,2.92-6.24.16-14.29,0-19.15-4.6-5.88-5.52-6.1-15.54-6.55-23-.35-5.54-.46-11.21-1.55-16.68-.53-2.5-1.18-5-1.89-7.43a84,84,0,0,1-5.63,38.64C126.06,180.7,118.7,193,104,193c-8.93,0-22-3.59-15.7-14.76A55.57,55.57,0,0,1,103,161.7c3.17-2.47,6.48-4.76,8.86-8-7.65,3.94-18.44,3.73-23.11-2.21a10.51,10.51,0,0,0,3.83,6.2,1.1,1.1,0,0,1,0,1.52c-5.52,6.82-16.4,13.41-25,7.68-9.63-6.42-15.39-20.35-29.4-17.16-9.62,2.18-18.76,9.27-28.9,4.76-3.58-1.6-6.29-4.09-7.24-8a3.93,3.93,0,0,1-.11-1.29A6.27,6.27,0,0,0,0,148.74c-.28,2.77,2.43,5.17,4.38,6.66A27,27,0,0,0,14.63,160a14,14,0,0,0,2.65.33c5.2,4.3,10.48,8.25,13,14.82s2.18,13.82,5.12,20.23c2.54,5.52,7.64,7,13.27,5.71a22.84,22.84,0,0,0,5.41-1.94c9.72.07,18.84,2.94,28.14,5.44a78.75,78.75,0,0,0,13.58,2.55c2.21.19,4.62.5,7,.55,7.68,4.93,18.67,3.61,27.25,3,6.14-.46,12.28-.67,18.4-1.43,7.06-.89,14.06-2.29,21-3.81,13.76-3,27.23-6.34,40.24-11.87a105.19,105.19,0,0,0,17.64-9.32c5.22-3.49,10.33-7.21,16-9.9a26.1,26.1,0,0,1,10.22-2.62c3-.13,6.08-.09,8.93-1.08a6,6,0,0,0,4-5.37,3.28,3.28,0,0,0-.07-1C264.38,166.15,261.82,167.1,258.93,165.93Z"/>
				<path class="cls-22" d="M248.27,171.23c-14.39,2.33-26,10.48-39.05,16.35a259.84,259.84,0,0,1-39.93,14c-13.65,3.59-27.46,5.48-41.52,3.34-3.21-.48-4.9-4.46-4.14-7.3,1.62-6,3.63-11.79,5.34-17.7-6,8.77-13.87,16-24,19.28-9.19,3-20.77,2.85-29.55-1.52a18.26,18.26,0,0,1-10-12.3,57.73,57.73,0,0,1-6.32,7c-1.63,2.36-3.34,4.72-5.13,6.87l.11,0c9.72.07,18.84,2.94,28.14,5.44a78.75,78.75,0,0,0,13.58,2.55c2.21.19,4.62.5,7,.55,7.68,4.93,18.67,3.61,27.25,3,6.14-.46,12.28-.67,18.4-1.43,7.06-.89,14.06-2.29,21-3.81,13.76-3,27.23-6.34,40.24-11.87a105.19,105.19,0,0,0,17.64-9.32c5.22-3.49,10.33-7.21,16-9.9a26.1,26.1,0,0,1,10.22-2.62c3-.13,6.08-.09,8.93-1.08a6.49,6.49,0,0,0,1-.51A96.6,96.6,0,0,0,248.27,171.23Z"/>
				<path class="cls-23" d="M23,159.28c5.77-2.1,11.12-6.53,17.44-6.53,10.8,0,16.95,12.11,25.45,17a17,17,0,0,0,2,1c-3.16.09-6.47.66-9,2.51-2.18,1.59-4.17,3.47-6.21,5.22-1.71,1.48-5.41,4.88-8.72,6.15a.3.3,0,0,0-.25-.19c-1.76-.36-2.33-2.61-2.93-4.06s-1.16-3.21-1.73-4.81a29,29,0,0,0-4-8A21.38,21.38,0,0,0,23,159.28Z"/>
				<path class="cls-21" d="M178.74,119.16c-10.27,2.62-21.78,2-31.35,7.06a21.33,21.33,0,0,1,4.36,7.48c1.92,4.81,4.55,9,9,11.87,7.69,4.9,17.64,6.49,25.81,1.67,13.08-7.73,19.11-23.92,23-37.95C198.66,108.23,188.89,116.55,178.74,119.16Z"/>
				<path class="cls-17" d="M203.21,86.47a12.6,12.6,0,0,1-4.79,3.76c-10.27,2.48-20.16,7.28-29.07,12.87a89.52,89.52,0,0,0-23.2,20.67,13.31,13.31,0,0,1-.9,1.45.41.41,0,0,0,.33.22.51.51,0,0,0,.36.33c6.77,6.66,11.8,15.58,21.26,18.72,7.09,2.37,14.81.33,20.43-4.39,6.91-5.79,8.74-14.43,8.91-23,.1-4.7-.18-9.38.26-14.06A26.17,26.17,0,0,1,203,88.24a.33.33,0,0,0,.08-.29,6.83,6.83,0,0,0,.64-1.18A.3.3,0,0,0,203.21,86.47Z"/>
				<path class="cls-7" d="M188,103c-1.32-.91-6.84,2.07-10.08,3.9-1.9,1.1-5.43,2.37-4.8,3.81,1,2.51,7.92-.66,9.82-1.54C185.28,108.11,191.46,105.35,188,103Z"/>
				<path class="cls-7" d="M183.25,113.93a6.25,6.25,0,0,0-2.89.25,11.79,11.79,0,0,0-1.55.4c-.88.28-1.45,1.43-.32,1.82a5.29,5.29,0,0,0,5.46-1.08A.89.89,0,0,0,183.25,113.93Z"/>
				<path class="cls-7" d="M178.85,121.09a20.89,20.89,0,0,0-2.61.76,1.16,1.16,0,0,0,0,2.29,5,5,0,0,0,3.37-.28,1.44,1.44,0,0,0-.74-2.77Z"/>
				<path class="cls-24" d="M159.35,138.46a62.67,62.67,0,0,1-6.11-6.37,23.42,23.42,0,0,0,10.46,6.29c6.45,1.66,14.48,1.48,20.46-1.72.32-.18,0-.62-.26-.48-6.24,2.86-13.38,2.71-19.93,1.21-4.59-1.07-7.48-3.88-10.43-6.85a35.14,35.14,0,0,0,10.2,3.44,36.55,36.55,0,0,0,19-1.94c.3-.11.18-.59-.14-.49A42.2,42.2,0,0,1,164,133a31.79,31.79,0,0,1-8.62-2.77,27.74,27.74,0,0,1-4.55-2.86,51.42,51.42,0,0,0,17.36.85,53.79,53.79,0,0,0,20.37-5.95c.28-.15,0-.56-.25-.42-12.05,6-27.22,7.58-40.12,3.6l-.07-.07-.07,0c12-2.62,24.42-3.87,36-7.92a.27.27,0,1,0-.15-.51c-11.84,3.22-24,4.7-35.95,7.42a161.71,161.71,0,0,1,18.65-8.25c6.69-2.41,13.54-4.37,20.23-6.77.31-.11.19-.59-.13-.5-12,3.43-24.72,7-35.93,12.89,1.93-1.47,3.83-2.92,5.91-4.24,3.39-2.22,6.94-4.25,10.5-6.18,7.4-4.05,15.08-7.5,22.5-11.49.3-.16,0-.6-.26-.45-7.54,3.75-15.19,7.3-22.67,11.18-6.22,3.19-12.66,6.75-18,11.4.63-.7,1.27-1.36,1.91-2A52,52,0,0,0,146,125C149.86,129.43,154.13,135.07,159.35,138.46Z"/>
				<path class="cls-25" d="M203.21,86.47a12.6,12.6,0,0,1-4.79,3.76c-10.27,2.48-20.16,7.28-29.07,12.87a89.52,89.52,0,0,0-23.2,20.67,13.31,13.31,0,0,1-.9,1.45.41.41,0,0,0,.33.22.51.51,0,0,0,.36.33c6.77,6.66,11.8,15.58,21.26,18.72,7.09,2.37,14.81.33,20.43-4.39,6.91-5.79,8.74-14.43,8.91-23,.1-4.7-.18-9.38.26-14.06A26.17,26.17,0,0,1,203,88.24a.33.33,0,0,0,.08-.29,6.83,6.83,0,0,0,.64-1.18A.3.3,0,0,0,203.21,86.47Zm-8.05,23.88c-.06,9.09.3,18.3-5.68,25.85a20.61,20.61,0,0,1-20.84,7.31c-5.86-1.39-10.26-5.66-14.24-9.94-2.39-2.56-4.75-5.17-7.14-7.73-1.14-1.22,0-2.52.75-3.27.49-.52,1.06-1,1.6-1.51A104.75,104.75,0,0,1,170,104.19a117.3,117.3,0,0,1,24.61-11.48h.24a16.27,16.27,0,0,0,4.94-1.78C195.84,96.47,195.21,103.54,195.16,110.35Z"/>
				<path class="cls-26" d="M39.27,141.75A5.22,5.22,0,0,0,38,139.59a2.67,2.67,0,0,0-2.48-.39c-.26,0-.2.48.06.47A2.07,2.07,0,0,1,37.69,141l-.1,0h-.21a.65.65,0,0,0-.41.16,2.36,2.36,0,0,0-.68.91c-.31.64-.73,1.52-.23,2.14a1.63,1.63,0,0,0,1.44.48A2.08,2.08,0,0,0,39.27,141.75Z"/>
				<path class="cls-26" d="M48.34,143.48c-.26-1.56-1.81-3.62-3.53-3.47a.23.23,0,0,0,0,.47,3.57,3.57,0,0,1,2.09,1.44,1.13,1.13,0,0,0-.55-.11c-2,.11-1.57,3.1-.42,3.92C47.55,146.85,48.59,144.86,48.34,143.48Z"/>
				<path class="cls-4" d="M142.82,37.82a16.46,16.46,0,0,0-11.56-7.1A13.54,13.54,0,0,0,116.39,44.4c.18,8.31,8.44,15.13,16.84,14.16C144.21,57.3,149.07,46.85,142.82,37.82Z"/>
				<path class="cls-4" d="M105.38,36.86c-5.63-1.59-11.7,3.82-7.66,8.94,1.78,2.26,3.22,3.63,6.27,3.22,2.69-.35,5.85-1.89,6.85-4.61C112.19,40.76,108.53,37.75,105.38,36.86Z"/>
				<path class="cls-27" d="M136.56,73.33A6.47,6.47,0,0,0,134,74.48l-.37.22a4.41,4.41,0,0,0-1.87,3.39,4.59,4.59,0,0,0,4.3,5c3,0,5.8-3.65,5.9-6.47S138.85,72.9,136.56,73.33Z"/>
				<path class="cls-16" d="M152.45,50.9c-.86-1-2.27-1.29-4.07-.14a6.24,6.24,0,0,0-2.85,4.17c-.3,3.59,3.82,4,6.11,2.27A4.58,4.58,0,0,0,152.45,50.9Z"/>
				<path class="cls-4" d="M166,51.44a2.81,2.81,0,0,0-2.77.36c-6,4.16,4.09,9.59,5.09,4.14A4.17,4.17,0,0,0,166,51.44Z"/>
				<path class="cls-16" d="M184.45,25.31c-5.26-2.16-12.93,1.73-14.91,7-2.89,7.71,6.72,13.3,13.29,10.76,5.44-2.13,8.09-9.44,5.3-14.44A7.37,7.37,0,0,0,184.45,25.31Z"/>
				<path class="cls-4" d="M228.69,57.51A20.11,20.11,0,0,0,219.52,43a12.74,12.74,0,0,0-4.84-1.76.64.64,0,0,0-.38-.23c-11.81-1.68-24.76,3.14-26.35,16.45-1.44,12.11,11.82,20.07,22.45,19.34C220.39,76.12,229.62,68,228.69,57.51Z"/>
				<path class="cls-4" d="M227.86,88.77c-3.12-.44-7.24,2.26-8.21,4.92-1.46,3.94,3.1,7.13,6.64,6.52,3.3-.55,5.79-6,4.67-8.85A3.81,3.81,0,0,0,227.86,88.77Z"/>
				<path class="cls-27" d="M233.56,113.57c-1.21-1.78-3.07-3.13-5.31-2.82a4.31,4.31,0,0,0-2.09,1,3.32,3.32,0,0,0-1,.57c-1.71,1.38-2,4-1.91,6.07.23,5,4.09,9.93,9.39,7.24C237.05,123.35,235.77,116.85,233.56,113.57Z"/>
				<path class="cls-28" d="M48.16,95.51c8.25-11.93,18.67-24.3,33-28.84,14-4.46,28.82-.07,38.74,10.66.77.84,1.5,1.69,2.2,2.54C114.77,63.63,98.65,45.34,79,53.61c-16.63,7-28.29,23.81-35.31,39.81a110.79,110.79,0,0,0-5.51,17.38,46.31,46.31,0,0,0-1.23,6.15A87.18,87.18,0,0,1,48.16,95.51Z"/>
				<path class="cls-28" d="M110.1,142c-3.25-1.77-8.77-1.88-12.26-.81a3.66,3.66,0,0,0-1.54.92c-.2.1-.38.16-.58.27-3.55,2.19-1.36,7,1.51,8.67,3.52,2,8.72.92,12-1.08C111.92,148.3,113.61,143.91,110.1,142Z"/>
				<path class="cls-28" d="M118.7,143.25a8.88,8.88,0,0,0-2.92.58,2,2,0,0,0-1.15,1.13l0,.05a1.58,1.58,0,0,0,1.37,2.3,3.37,3.37,0,0,0,1.29.34,2.76,2.76,0,0,0,2-.85,1.29,1.29,0,0,0,.39-.7C120.92,145.34,120.13,143.24,118.7,143.25Z"/>
				<path class="cls-19" d="M62.8,175.25c-4.27,2.13-21.06,19.39-25.05,10.92,0-.1,0-.18,0-.25.14-.8-1.07-1.14-1.21-.33-.75,4.36.37,9.75,4.68,11.92,2.87,1.46,6-.33,8.16-2.16,6.27-5.17,9.09-13,14.16-19.1A.64.64,0,0,0,62.8,175.25Z"/>
				<path class="cls-28" d="M89.62,43.72s35.21-27,79.39-29.34,63.56,32.31,68.1,41.79,4.48,33.35,3.73,60.54,2.44,35,11.5,41.15c0,0-15.43-.14-14.45-39.31s.78-59.78-16.42-77.12S171.43.67,89.62,43.72Z"/>
				<path class="cls-7" d="M302.23,80.07c-5.1,3.22-8.69,9.58-11.46,14.8a61.44,61.44,0,0,0-6.45,18.45c-.21,1.24,1.59,2.27,2.2.93,2.5-5.31,4.44-10.82,7.1-16.06,3-5.84,7.61-10.32,10.92-15.83A1.7,1.7,0,0,0,302.23,80.07Z"/>
				<path class="cls-7" d="M295.87,99c-4.68,5.23-6,13.27-7.44,19.9-.26,1.15,1.51,2.05,2,.85,1.26-2.87,2.44-5.71,3.44-8.69,1.23-3.67,3.07-7,4.42-10.63A1.48,1.48,0,0,0,295.87,99Z"/>
				<path class="cls-7" d="M290.75,122.19c-1.16,3.15-1,6.62-2.53,9.74a1.11,1.11,0,0,0,1.91,1.12c2-3,3.7-6.82,3.71-10.45C293.85,120.74,291.35,120.58,290.75,122.19Z"/>
				<path class="cls-7" d="M294.07,128.94c-1.15,1.64-1.42,3.9-2,5.8a38.52,38.52,0,0,1-2.46,6.67,1.28,1.28,0,0,0,2.21,1.3,23.17,23.17,0,0,0,3.35-6.26c.72-2.05,1.74-4.55,1.68-6.74A1.52,1.52,0,0,0,294.07,128.94Z"/>
				<path class="cls-7" d="M295.45,142a10.06,10.06,0,0,0-.83,2.34,8.13,8.13,0,0,1-1,2.18c-.58.89.8,2,1.49,1.14a12.87,12.87,0,0,0,2.77-4.63A1.34,1.34,0,0,0,295.45,142Z"/>
				<path class="cls-7" d="M299.1,151.5a1.48,1.48,0,0,0-2-.5c-1.48,1.08-1.67,3-2.45,4.65a17.74,17.74,0,0,1-4.05,5.43,1.07,1.07,0,0,0,1.29,1.66,18.16,18.16,0,0,0,5.41-4.88C298.54,156.13,300,153.62,299.1,151.5Z"/>
				<path class="cls-7" d="M288.06,178.11c-.72-.93-2.18.26-1.59,1.22a15.06,15.06,0,0,1,1.28,4.08c.34,1.33.43,2.74,1.37,3.82a1.42,1.42,0,0,0,2.22-.28C293,183.7,289.86,180.43,288.06,178.11Z"/>
				<path class="cls-7" d="M286.77,186a1.13,1.13,0,0,0-2,1.14c.69,1.52.88,3.13,1.43,4.67a1.14,1.14,0,0,0,2.18,0C289,189.79,287.9,187.56,286.77,186Z"/>
				<path class="cls-7" d="M287.09,202c-.48-1.75-.78-3.53-1.29-5.29a1.3,1.3,0,0,0-2.55.34,19.12,19.12,0,0,0,.48,5.85c.41,1.73.88,3.88,2.21,5.11a1.53,1.53,0,0,0,2.58-1.07C288.43,205.22,287.51,203.63,287.09,202Z"/>
				<path class="cls-7" d="M285.41,214.71a12.58,12.58,0,0,1-2-6.25,1.35,1.35,0,0,0-2.63-.34,9.77,9.77,0,0,0,1.68,8.32C283.73,218.18,286.61,216.59,285.41,214.71Z"/>
				<path class="cls-7" d="M280.62,224.09c-.23-.65-.37-.88-.51-1.42a13.26,13.26,0,0,0-.7-1.72,1.54,1.54,0,0,0-1.76-.71,1.58,1.58,0,0,0-1.08,1.91c0,.22,0,.25,0,.12,0,.11,0,.23,0,.34a7.85,7.85,0,0,0,.17,1.17,3.74,3.74,0,0,0,1,1.93C279,226.84,281.15,225.73,280.62,224.09Z"/>
				<path class="cls-7" d="M276.54,231.89a1.59,1.59,0,0,0,0,3.18A1.59,1.59,0,0,0,276.54,231.89Z"/>
				<path class="cls-7" d="M225.46,203.87a25.51,25.51,0,0,0-8.17-4.5c-1.58-.58-2.92.63-1.47,1.39a25.81,25.81,0,0,1,6.18,4.37,19.08,19.08,0,0,1,2.17,2.53,7.64,7.64,0,0,0,1.89,2.48c1.2.89,3.23.87,3.52-.18C230.06,208.18,227.31,205.48,225.46,203.87Z"/>
				<path class="cls-7" d="M232.95,205.27c-.32-1.86-2.13-3.49-3.69-4.32a1.19,1.19,0,0,0-1.44,1.87,11.4,11.4,0,0,1,2.1,3.28A1.57,1.57,0,0,0,232.95,205.27Z"/>
				<path class="cls-7" d="M235.08,201a7.2,7.2,0,0,0-1-1.89,1.3,1.3,0,0,0-2.38,1,3.37,3.37,0,0,0,1.57,2.24,1.33,1.33,0,0,0,1.23,0A1.23,1.23,0,0,0,235.08,201Z"/>
				<path class="cls-7" d="M237.41,193.8c-.42-1.32-1.25-3-2.62-3.44a1,1,0,0,0-1.28,1.28c.28,1,1.21,1.78,1.63,2.78s.5,2.06.8,3.07c.18.59,1.12.84,1.41.19A5.09,5.09,0,0,0,237.41,193.8Z"/>
				<path class="cls-7" d="M210.54,205.52a97.94,97.94,0,0,1-13.07-2.43c-1.26-.34-2.11,1.53-.9,2.13,4.09,2,8.95,3.74,13.55,3.3C211.69,208.35,212.37,205.75,210.54,205.52Z"/>
				<path class="cls-7" d="M198.86,209.5a5.31,5.31,0,0,0-2.2-.4,16.42,16.42,0,0,0-2.46-.23.78.78,0,0,0-.2,1.52,21,21,0,0,0,2.41.49,3.69,3.69,0,0,0,2.45-.08A.76.76,0,0,0,198.86,209.5Z"/>
				<path class="cls-7" d="M187.65,211.74a2.84,2.84,0,0,0-1.87-.59,16,16,0,0,1-2.2-.51.86.86,0,0,0-.67,1.56A7.84,7.84,0,0,0,185,213a3.4,3.4,0,0,0,2.47,0A.82.82,0,0,0,187.65,211.74Z"/>
				<path class="cls-29" d="M130.11,96.84c-3.28-14.66-13.37-29-27.18-36.28s-27.84-1.35-34.49,10.1c-7.91,13.69-5.81,32.4-.58,47.15,5.71,16,22.31,27,39.76,21.16C128.25,132.11,134,114.27,130.11,96.84Z"/>
				<path class="cls-29" d="M125.61,97.92c-3-13.09-12-25.92-24.43-32.43s-25-1.22-31,9c-7.1,12.2-5.21,28.92-.48,42.11,5.12,14.33,20.06,24.11,35.74,18.93C124,129.43,129.13,113.5,125.61,97.92Z"/>
				<path class="cls-30" d="M118.78,99.41c-2.39-12-10-23.64-20.46-29.48S77.1,69.05,72,78.48c-6.13,11.27-4.67,26.56-.77,38.6,4.25,13.08,16.83,21.88,30.17,17C117.14,128.29,121.65,113.64,118.78,99.41Z"/>
				<path class="cls-31" d="M103.72,98.07c0,10.88-7.06,19.71-15.79,19.71s-15.81-8.83-15.81-19.71,7.07-19.71,15.81-19.71S103.72,87.17,103.72,98.07Z"/>
				<path d="M97.41,98.07c0,6.53-4.26,11.82-9.49,11.82s-9.5-5.29-9.5-11.82,4.24-11.82,9.5-11.82S97.41,91.52,97.41,98.07Z"/>
				<g class="cls-12">
					<path class="cls-32" d="M94.09,114.78c1.48-1.12,2.89-3.17,1.83-5a1.94,1.94,0,0,0-2.63-.89c-1.4,1.26-3.37,2.79-5.36,2.7-2.53-.13-6.6-.79-8.89-5.22-1.09-3.15-1.39-4.58-2.92-3.31s0,5.68,1.29,7.73a12.87,12.87,0,0,0,10.68,5.62,10.64,10.64,0,0,0,5.54-1.28Z"/>
				</g>
				<path class="cls-14" d="M94,78.35c-6.42-4-9.06,1-7.8,6.1s7.39,10.08,13.66,9S102.59,83.74,94,78.35Z"/>
				<path class="cls-9" d="M118.78,99.41c-2.39-12-10-23.64-20.46-29.48S77.1,69.05,72,78.48c-6.13,11.27-4.67,26.56-.77,38.6,4.25,13.08,16.83,21.88,30.17,17C117.14,128.29,121.65,113.64,118.78,99.41ZM109.22,120c-6.22,5.36-14.31,9.09-22,5.2-7.4-3.77-9.71-10.62-11.4-19.08-1.66-8.29-2.08-19.16,1.8-26.81,2-4,5.48-5.31,9.6-6.72,6.91-2.33,12.49-.52,17.88,4.09,6,5.15,11.42,12.25,12.69,20.74C119.21,106.81,116.35,113.87,109.22,120Z"/>
			</g>
		</g>
	</g>
</svg>