<svg xmlns="http://www.w3.org/2000/svg" viewBox="0 0 215.42 262.04">
	<defs>
		<style>.cls-1{fill:#fd818b;}.cls-2{fill:#d66d79;}.cls-3{fill:#ddebeb;}.cls-4{fill:#fc929e;}.cls-5{fill:#fb8f9c;}.cls-6{fill:#fb999a;}.cls-7{fill:#fb9a9b;}.cls-8{fill:#faa199;}.cls-9{fill:#fb9f99;}.cls-10{fill:#fb989a;}.cls-11{fill:#fba099;}.cls-12{fill:#fc828c;}.cls-13{fill:#fc818b;}.cls-14{fill:#fcbcb5;}.cls-15{fill:#fd828c;}.cls-16{fill:#fbb7b7;}.cls-17{fill:#fb818b;}.cls-18{fill:#fbc0b5;}.cls-19{fill:#fbbcb6;}.cls-20{fill:#f7c9b5;}.cls-21{fill:#f8cab5;}.cls-22{fill:#deebeb;}.cls-23{fill:#c7dede;}.cls-24{fill:#231f20;}.cls-25,.cls-26{fill:#fafbfb;}.cls-25{opacity:0.3;}.cls-27{fill:#522016;}.cls-28{fill:#fbfcfc;}.cls-29{fill:#29201f;}.cls-30{fill:#f98391;}.cls-31{fill:#590a17;}.cls-32{fill:#902232;}.cls-33{fill:#902231;}.cls-34{fill:#eee;}.cls-35{fill:#f0f0f0;}.cls-36{fill:#f5f5f5;}.cls-37{fill:#efefef;}.cls-38{fill:#eaeae9;}.cls-39{fill:#edecec;}.cls-40{fill:#642111;}.cls-41{fill:#7c270c;}.cls-42{fill:#272020;}.cls-43{fill:#6a2110;}.cls-44{fill:#31201e;}.cls-45{fill:#572115;}.cls-46{fill:#7d260b;}.cls-47{fill:#ed505d;}.cls-48{fill:#fdc2c2;}.cls-49{fill:#fdbcc4;}.cls-50{fill:#fdc2c3;}.cls-51{fill:#fdc5c2;}.cls-52{fill:#fbb4ad;}</style>
	</defs>
	<title>Asset 8</title>
	<g id="Layer_2" data-name="Layer 2">
		<g id="Layer_1-2" data-name="Layer 1">
			<path class="cls-1" d="M55,111.16s-14.6,18-.45,29.21A59.22,59.22,0,0,0,84.88,152.5l16.63,20.89-2,9.21s-7,7-11,9-1.57,4.94-1.57,4.94l18.47-10.91s19.95-15.37,12.31-42.78,24.94-22.24,24.94-22.24l55.72,11.46,9,17.75L186,203.05l1.35,17.75-3.57,3.84-91,32.1-3.15,4.72-5.39-.22L13.66,229.56l-1.8.9-4.13-5.2,4.35-47.14,18.2-9.66L21.35,161,16.8,142.16l.22-8.31,2.7-3.82s18.2-10.34,19.55-15.5,2.47-7,2.47-7l11-4.49S59.94,98.35,55,111.16Z"/>
			<path class="cls-2" d="M162.51,29.7s-.25,1.48-.6,3.37a71.42,71.42,0,0,1-1.72,8.07c-.43.52-28.38,16.42-28.38,16.42l-21,6.89L104,66.68l-8.69-.86s-5.13-5.35-7.74-8.75a17.86,17.86,0,0,1-1.08-1.54,4.46,4.46,0,0,1-.29-.55c-1-2.37-3.38-13.55-3.46-13.9h0s-2.56-10.43,3.72-18.6c5.67-7.38,15.07-9.22,18.41-10.2a7.61,7.61,0,0,0,.85-.29c1.21-.53,6.23-3.4,10.42-5.83,3.3-1.91,6.09-3.55,6.09-3.55l8.67-2.4h0l.27,0,.11,0c2-.28,11-.78,20.58,10.2,1.09,1.25,2.07,2.43,2.94,3.57l.62.81C162.78,24.42,162.51,29.7,162.51,29.7Z"/>
			<path class="cls-3" d="M164.48,40.4s-23,16.38-28.14,19.3S120.76,64.12,115,64.4c-1.2.06-2.63.07-4.15.06-5.82-.06-13.08-.53-15-.53s-6.23-4.54-8.22-6.84a9.48,9.48,0,0,1-1-1.3l-.06-.24C86.16,53.84,84.07,44,84.07,44l-1.29-2.91h0s-2.56-10.43,3.72-18.6l2.3-2,12.26-5.93,3.84-2.29L113,7.44l3.16-1.27L130.93.21h0l.27,0,.11,0c2-.28,11-.78,20.58,10.2l1.3,2.3,1.65,1.27.46.36.16.45,6.42,18.35Z"/>
			<path class="cls-4" d="M86.2,22.51c.52-1.75,2.09-2.61,3.25-3.82.5-.53,1.07-1,1.61-1.48.75-.24,1.23-1,2.06-1.1a18,18,0,0,1,3.79-.77c6.67-.8,11.91,2.2,17,6.63a29.35,29.35,0,0,1-1.19-6.4,15.67,15.67,0,0,1,6.2-13.09,8.6,8.6,0,0,0,.92-.79c.5-.5,1.16-.38,1.77-.48,0,0,.94.19.2-.36,3-.19,6-1.32,9.1-.64a1.79,1.79,0,0,1-1.47.78c-9.88,1.36-15.26,10.57-11.5,20.65,3.43,9.19,10.24,14.77,19.91,16.43a16.08,16.08,0,0,0,13.64-3.39c.76-.64,1.3-1.46,2-2.15.39-.39.62-1,1.37-.77.56,1.57-.56,2.54-1.42,3.45A16.57,16.57,0,0,1,142,40.5c-7.74.41-14.31-2.49-20-7.52q-.46-.4-.89-.82a2.33,2.33,0,0,0-1-.75,30.77,30.77,0,0,1,1.83,6.52c.36,2.39-.3,4.71-.33,7.06a.65.65,0,0,1-.65.67c-.71-.71-.44-1.62-.47-2.46-.38-10.82-5.2-18.89-14.93-23.82a15.52,15.52,0,0,0-17.82,2.36C87.24,22.13,86.87,22.61,86.2,22.51Z"/>
			<path class="cls-5" d="M107.37,194.87c-.56-2.87-1.34-5.71-1.07-8.69a2.4,2.4,0,0,1,.72-1.85,33.42,33.42,0,0,0,8.4-11.84,44.59,44.59,0,0,0,3.39-14.67c1.12-.12,1.59.81,2.2,1.43a53.57,53.57,0,0,0,13.6,10.3,35.9,35.9,0,0,0,20.92,3.87,53.3,53.3,0,0,0,15.95-4.35,58.61,58.61,0,0,0,13.64-8.74,56.2,56.2,0,0,0,9.15-10.55c.42-.59.85-1.58,1.65-1.25s.54,1.41.41,2.19c-1.18,6.89-2.6,13.7-5.4,20.16-1.33,3.08-3,6-4.56,8.93A168.81,168.81,0,0,1,172.51,202a117.49,117.49,0,0,1-22.62,23.2,4.26,4.26,0,0,1-3.22.93,43.77,43.77,0,0,1-21-8.23c-6.44-4.63-11.33-10.6-15.46-17.27C109.07,198.78,108.64,196.62,107.37,194.87Z"/>
			<path class="cls-6" d="M125.34,156.79c-4-2.76-6.92-6.11-7.31-11.35-.4-5.46-2.33-10.61-4.28-15.7l-2.63-6.89c.38-.21.64.11,1,.26a5.53,5.53,0,0,1,2.82-4.92,1.75,1.75,0,0,0,.89-1.21,5.19,5.19,0,0,1,2.13-3.61,2,2,0,0,0,.85-1.27c.18-1.27,1.24-1.93,1.81-2.84a40.14,40.14,0,0,1,3.8-4.46,3.1,3.1,0,0,0,.45-1.65,2,2,0,0,1,1.14-1.8,1.59,1.59,0,0,0,1-1.32c.2-1.41,1-2.18,2.39-2,.39-.9-1.09-1.18-.48-2,1.08-.39,2,.15,3,.42a29.43,29.43,0,0,0,16.7.26,28,28,0,0,0,12.9-8.29c6.6-7.29,9.88-16.13,12.24-25.42a125.3,125.3,0,0,0,3.05-20c.05-.62,0-1.29.61-1.72,1.08-.32,1.44.55,1.79,1.22,1.83,3.49,4.13,6.74,5.48,10.49a100.2,100.2,0,0,1,5.07,12.29,26.17,26.17,0,0,0,2.75,9.84c.94,1.88-.1,4.5-2.21,5.75-.82.49-1.38,1-1.36,2a1.6,1.6,0,0,1-.42.94C186.79,86,186,88.84,184,91a13,13,0,0,0-1.78,2.91A2.52,2.52,0,0,1,181,95.24a1.89,1.89,0,0,0-1,.86,40.18,40.18,0,0,1-3.37,4.92c-1.8,2.48-3.25,5.15-4.89,7.71-.47.74-.8,1.51-1.74,1.79-.73.22-.8.91-.91,1.54a3.51,3.51,0,0,1-1.57,2.75,2.36,2.36,0,0,0-.94,1.41,5.24,5.24,0,0,1-2.5,3.37,1.73,1.73,0,0,0-.71.94c-1,2.16-1.73,4.46-3.8,5.92a2.22,2.22,0,0,0-.81,1.1c-.81,2.45-2.59,4.37-4,6.38-1.17,1.65-1.92,3.61-3.38,5.06a4.61,4.61,0,0,0-1,1.8,3.75,3.75,0,0,1-.77,1.53c-2.48,2.39-3.82,5.56-5.76,8.31a47.9,47.9,0,0,1-3.18,4,12.61,12.61,0,0,0-2.8,4.87c-.46,1.66-1.22,2.14-2.8,1.55A81.15,81.15,0,0,1,125.34,156.79Z"/>
			<path class="cls-6" d="M185.67,76.44S162.86,95,160.74,97.84,145.88,118,142,127.37s-5,15.56-3.54,18.74,14.32,9.73,19.63,9.73S188.15,147,193.8,127s8.17-25.71,6.12-33.28S185.67,76.44,185.67,76.44Z"/>
			<path class="cls-7" d="M89,188.31l1.12.56a26.18,26.18,0,0,0-5.3.75c-6.89,1.82-11.9,6.23-16.16,11.67l-1.46,1.9c-4.78,6.55-7.78,13.74-7.47,22A48.45,48.45,0,0,0,63,240.83a44.29,44.29,0,0,0,1.82,4.85,1.52,1.52,0,0,1,0,1.79c-.49.55-1.16.36-1.79.21a150.88,150.88,0,0,1-27.06-9.43c-5.53-2.45-11.08-4.86-16.56-7.42C11.33,227.08,8.32,220,9.14,211.73c.74-7.38,4.51-13.3,9.34-18.64-1,.59-2.1,1.29-3.2,1.91-.45.25-1.06.88-1.45-.13A30,30,0,0,1,24.41,187c7.83-3.73,16.14-5.27,24.77-5.78,4.22-.25,8.38.05,12.56.13a1.25,1.25,0,0,1,1,.31c-.71.71-1.62.5-2.46.51-5.36.07-10.72-.19-16.06.64-7.5,1.16-14.78,2.93-21.38,7a70.88,70.88,0,0,1,21.53-6.2,93.73,93.73,0,0,1,28.43.63,82.59,82.59,0,0,1,15.54,4A1.12,1.12,0,0,0,89,188.31Z"/>
			<path class="cls-5" d="M69.25,202.15a27.4,27.4,0,0,1,16.65-11.94,18.18,18.18,0,0,1,5.8-.53,18.56,18.56,0,0,0,10.79-2.08c.81.34.78,1.08.79,1.76a40.27,40.27,0,0,0,4.56,18.25,36.16,36.16,0,0,0,3.37,5.22,3.29,3.29,0,0,1,.33.44,57,57,0,0,0,25,18.71,12.89,12.89,0,0,1,1.29.49c1.12.58,1.25,1.29.33,2.14a20,20,0,0,1-2.42,1.67,83,83,0,0,1-30.83,13.13,91,91,0,0,1-23,1.52c-3.8-.23-6.12-1.85-8.27-4.63a41.29,41.29,0,0,1-8.89-29.75A33.92,33.92,0,0,1,69.25,202.15Z"/>
			<path class="cls-6" d="M199.2,131.85a63.41,63.41,0,0,1-1.87,9.13,5.84,5.84,0,0,1-1.09,2.12,7.54,7.54,0,0,1-.7.79,24.09,24.09,0,0,1-1.94,1.81l-.34.35a54.82,54.82,0,0,1-7,6.17,61.58,61.58,0,0,1-6.49,4.2c-8,4.49-16.32,7.56-25.58,8.2a49,49,0,0,1-7.17,0,48.3,48.3,0,0,1-17.71-5c-.42-.21-.77-.51-1.18-.72a7.37,7.37,0,0,1-2.78-2.08,13.32,13.32,0,0,1,1.66.45c2.28.78,4.36,2.07,6.65,2.82.65.21,1.27.53,1.93.76.9.32,1.69-.13,1.67-.93,0-1.5.92-2.34,1.67-3.37a3.27,3.27,0,0,0,.61-1.4c.08-.64.18-1.09.95-1.17a1.21,1.21,0,0,0,.83-.54,27.9,27.9,0,0,1,2.34-3.71h0c32.94-18.14,42.27-45.64,44.3-65.51a2.39,2.39,0,0,0,.18-.54c.12-.62.77-1.09.38-1.89-.28-.59.23-.69.71-.86a4.39,4.39,0,0,0,2.59-6.3,25.14,25.14,0,0,1-2.16-5.4,35.47,35.47,0,0,1-.23-3.86c1,.06,1.13.88,1.38,1.55a149.76,149.76,0,0,1,8.33,33.64c.5,4,.8,8,.92,12A134.7,134.7,0,0,1,199.2,131.85Z"/>
			<path class="cls-8" d="M128.82,96.18a3.67,3.67,0,0,1,.87.8c.24.43.88.8.65,1.32s-.94.35-1.4.25c-1.37-.29-1.4.73-1.48,1.53s-.15,1.57-1.26,1.68c-.84.08-.84.79-.86,1.45a3.69,3.69,0,0,1-1.93,3.37c-.93.52-1.78,1-1.59,2.33a.89.89,0,0,1-.69.9c-1.56.13-1.75,1.17-1.77,2.4a1.21,1.21,0,0,1-.36.77c-1.43,1.33-2.88,2.61-2.82,4.84,0,.44-.7.52-1.05.8-1.44,1.15-3,2.26-2.32,4.49a.65.65,0,0,1-.34.87c-.33.12-.49-.19-.62-.45a1.25,1.25,0,0,0-.73-.68c-1.76-3.68-3.56-7.34-5.27-11-2.32-5-4.57-10-6.88-15.06A228.77,228.77,0,0,1,86.62,64.6c.18-2-.51-3.84-.94-5.71-.69-3.06-.52-6.17-.92-9.24a1.37,1.37,0,0,1,.74-1.6c2.66,4.23,5.84,7.94,10.3,10.42,6.64,3.69,13.76,3.46,18.93-.74,3.85-3.12,5.49-7.39,6.17-12.14a21.88,21.88,0,0,0-1.22-13.76c-.19-.41-.84-1-.23-1.34s1,.36,1.39.75c6,6.12,13.18,9.41,21.77,8.73a14.93,14.93,0,0,0,11.53-6.39,2.62,2.62,0,0,0,.61-1.92c3.43-6.73,2.12-13.1-1.48-19.29.81-.11,1.23.55,1.72,1,2,1.74,4.39,3.06,6,5.23a95.6,95.6,0,0,1,15.63,19.66c.52.84,1.36,1.71.42,2.8a70,70,0,0,1-8.95,5.22,197.26,197.26,0,0,1-26.33,11.4,184.68,184.68,0,0,1-34.2,8.48c-4.61.69-9.27.95-14,1.46a19.41,19.41,0,0,0,3.21,3.89c7.12,7.67,14.66,14.87,23.82,20.14,2.15,1.24,4.39,2.31,6.64,3.34C127.85,95.26,128.58,95.4,128.82,96.18Z"/>
			<path class="cls-6" d="M128.82,96.18l-7.72-3.43s-1.42,15.35-13.37,22.36l5.37,12.17s15.24,3.51,18.2-3.18,10.08-19.18,10.08-20.06S134.14,98.18,128.82,96.18Z"/>
			<path class="cls-9" d="M1.39,212.18a33.28,33.28,0,0,1,.07-19.24,35.38,35.38,0,0,1,3.7-9.17c.66.79.2,1.58-.14,2.25-2.59,5.07-3.59,10.54-4.18,16.13-.15,1.39.23,2.75.15,4.12a43.56,43.56,0,0,1,1.91-10.45,85.37,85.37,0,0,1,3.63-10.06,91.78,91.78,0,0,1,5.05-9.63,62.11,62.11,0,0,1,6.52-8.7,71.81,71.81,0,0,1,7.52-7.61c2.72-2.39,5.63-4.53,8.43-6.75-1,.07-2,1.06-3.2.26,1-1.84,2.73-2.83,4.45-3.85.79.77,1.55.33,2.33,0,1-.49,2-1,3.21-.37,0,1.4-1.33,1.26-2.07,1.81a3.84,3.84,0,0,0-2.07,1.06c1.12.46,2.25,0,3.37,0a50.77,50.77,0,0,1,22.51,4.51,63.4,63.4,0,0,1,17.94,11.85c2.67,2.47,2.68,2.81-.48,4.58a121.09,121.09,0,0,1-16.34,7.79c-2.82.12-5.6-.38-8.42-.38-4.6,0-9.17.35-13.74.76a46.59,46.59,0,0,0-15.62,3.3,36.48,36.48,0,0,0-12.7,8.19,39.84,39.84,0,0,0-9.37,14.38,33.41,33.41,0,0,0-1.54,4.22C2.2,211.59,2.12,212.23,1.39,212.18Z"/>
			<path class="cls-1" d="M145.79,251.33a93.76,93.76,0,0,1-18.27,6.57,49.81,49.81,0,0,1-8.75,1.75,9.49,9.49,0,0,0-5.26-.45,5.37,5.37,0,0,1-2.24,0,4.89,4.89,0,0,0-3.2.4,4.12,4.12,0,0,1-3.2.27,9.63,9.63,0,0,0-7.59.67c-2.18,1-5,1.63-7.19-.61a1.74,1.74,0,0,0-1.42-.54c-1.61.39-3-.54-4.5-.61-.71,0-1.42-.49-1.41-1.07,0-1.43-.87-1.09-1.72-1.32a5.61,5.61,0,0,1-3.73-2.86,5.05,5.05,0,0,0-.77-1.34c-.37-.38-.73-.8-.32-1.36a1.22,1.22,0,0,1,1.4-.4,44.16,44.16,0,0,0,10.3.74,66.81,66.81,0,0,0,12.22-.71,3.57,3.57,0,0,1,2.31.4c1,.5,2.06.75,2.63-.81.46-1.28,1.46-.65,2.13-.21a4.28,4.28,0,0,0,3.57.78c.86-.2,1.53-.45,1.85-1.32a4.81,4.81,0,0,1,.31-.62c1.12-2.05,2.41-2.23,4.23-.28-.38-1-.8-1.85.23-2.37a4.13,4.13,0,0,1,2.44-.71,11.39,11.39,0,0,0,2.91.33c.66-.08,1.14-.29.72-1.11-.6-1.17.13-1.66,1.11-1.71a2.13,2.13,0,0,0,1.87-1,.66.66,0,0,1,.39-.33c1.88-.21,3.13-1.59,4.65-2.48.72-.41,1.4-.62,1.78.46a.82.82,0,0,0,1.14.49,1,1,0,0,0,.73-1.21c-.59-1.95.42-2.73,2.1-3.22,1-.29,1.37-1.56,2.46-1.59a1.36,1.36,0,0,0-.3-.93c-.24-.46-.55-.94-.17-1.45a1.53,1.53,0,0,1,1.71-.52c.78.2,1.58.33,2.36.49,3,.64,6.06.28,9.1,0a19.35,19.35,0,0,1,4.49,0,9.7,9.7,0,0,0,4.58-.3c1.52-.49,2.9.47,4.17,1.21.68.4,1.24.87,2,.35s.82-1.08.35-1.9c-.35-.61.28-1,.79-1.05a29.85,29.85,0,0,0,4.68-1.23,2,2,0,0,1,1.81.38c1.08.71,1,1.65-.12,2.22a14.29,14.29,0,0,1-1.74.76,2.13,2.13,0,0,0-1.76,2.18c-.05,1.25-2,2.59-3.67,2.67-1.32.06-2.33,0-2.72,1.82-.26,1.2-2,1.47-3,2.42a5.54,5.54,0,0,1-2.58,1.35c-1.45.34-2.8.48-3.22,2.41-.21,1-1.55,1.23-2.54.85-1.42-.54-2.2-.14-2.59,1.28a1.55,1.55,0,0,1-1.84,1.17c-2.61-.16-2.61-.13-3.23,2.3A2.07,2.07,0,0,1,145.79,251.33Z"/>
			<path class="cls-1" d="M215.13,144.27A122.59,122.59,0,0,0,213.95,129a188.51,188.51,0,0,0-4.31-22.24,215.2,215.2,0,0,0-9-27.46A58.91,58.91,0,0,0,196,69.15a51.42,51.42,0,0,1-2.52-4.64c-1.08-2.48-2.74-4.67-4-7.08-.73-1.4-1.86-2.62-2.21-4.27-.14-.67-.38-1.59-1.09-1.58s-1,.93-1.05,1.7a.55.55,0,0,0,0,.17,23.83,23.83,0,0,1,3.49,8,4.64,4.64,0,0,0,2,3.12,2.57,2.57,0,0,1,1.22,2.93c-.24,1.49-.3,3.31.73,4.29s2,2.54,3.34,3.49c-1.93,1-2,1.3-1.4,3.29.16.5.27,1,.38,1.51.61,2.68,1,3,3.73,2.93.56,0,1.23-.25,1.51.47a9.17,9.17,0,0,1,.18,5.21c-.94-1.25-.68-2.67-.82-4a1.63,1.63,0,0,0-2-1.64c-1.22.09-1.23.89-1.26,1.84-.07,1.93,1.12,3.5,1.4,5.31a1.67,1.67,0,0,0,2.08,1.54,10.17,10.17,0,0,1,1.42,0c-.91,0-2.24-.16-2.31,1.26,0,.55.34.82.8,1v1.42a.84.84,0,0,0-.1.36,1,1,0,0,0,.1.47v1.24h1.24c1.32.9,3.27,1.68,4.13,2.2a1.59,1.59,0,0,1,.84,1.59,12.57,12.57,0,0,0,.86,6.08c.15.37.29.76-.21,1s-3.24.3-3.69-.18a2.5,2.5,0,0,1-.52-3,3.6,3.6,0,0,0,.32-1.85c-.11-1.61-1.07-3-2.1-2.71-1.6.37-1.24,1.76-1.16,2.85.42,5.38,1.36,10.75.64,16.18a4.14,4.14,0,0,0,.08,1.38c.16.78.51,1.5,1.38,1.57,1.06.08,2.25.36,3.11-.5a1.26,1.26,0,0,0-.19-2,3.58,3.58,0,0,0-1.1-.49c-1-.42-1-1.33-1-2.19s.9-.88,1.58-.93,1.62,0,2.42-.09,1.43-.56,1.4-1.47-.6-1.31-1.48-1.35c-.56,0-1.12,0-1.47,0a18.85,18.85,0,0,1,2,0c.73.09,1.57.12,2,.85.83,1.41.1,2.94.19,4.41.06,1-1,.75-1.58,1a1.37,1.37,0,0,0-1,1.47,1.29,1.29,0,0,0,1.4,1.24h.55a2.82,2.82,0,0,0-1.46.3,2.92,2.92,0,0,1-2.79,0,3.07,3.07,0,0,0-4.18,2.38,38.22,38.22,0,0,1-.75,5.81,1.09,1.09,0,0,0,.64,1.29c.4.2,1,.22,1.1-.12.52-1.47,1.72-1.67,3-1.94.7-.15,1-.88,1.23-1.57s.52-1.17,1.29-1.18a27.15,27.15,0,0,1,4.6.12c-1.23.43-2.19.13-3.06.44-.63.22-1.23.5-1.12,1.31a1.24,1.24,0,0,0,1.23,1,6.58,6.58,0,0,0,.7.05h-.28c-.8,0-1.6.23-1.63,1.17s.81,1.15,1.57,1.3A6.1,6.1,0,0,0,210,133c1-.06,1.33.41,1.62,1.35.56,1.78,0,3.56.27,5.33.23,1.6-.12,2-1.72,2-1.9.07-3.81,0-5.71,0a7.5,7.5,0,0,0-1.72.11c-.69.17-1.43.39-1.39,1.27s.73,1.09,1.47,1.16l.29,0c-.84,0-1.67.11-1.7,1.17,0,1.5,1.47,1.33,2.52,1.38,1.24.06,2.49,0,3.75-.07-.83.15-1.41.55-1.39,1.56s.83,1.54,1.92,1.51c.76,0,1.53,0,2.3,0h-1.78c-.84,0-1.77.1-1.83,1.14s.89,1.23,1.7,1.34c1.2.16,2.43,0,3.59.14-.54,1.51.12,3-.29,4.5-.26.94-.65,1.4-1.63,1.39a9.53,9.53,0,0,0-2.76.16,1.33,1.33,0,0,0-1.06,1.56,1.26,1.26,0,0,0,1.28,1.18l.93,0h-.12c-.79,0-1.61.21-1.65,1.15s.76,1.17,1.55,1.24h.35a2.88,2.88,0,0,0-.83.08c-.58.16-1.09.46-1.08,1.17s.47.88,1,1.09a3.59,3.59,0,0,0,1,.2c2.58.26,2.58.27,2.58,2.8,0,.35,0,.69,0,1,0,1.24.06,2.48-1.55,2.85a.83.83,0,0,0-.59.8c0,1.46-.75,2.81-.61,4.27a8.68,8.68,0,0,1-.77,4.49c-1.14,2.62-1.38,2.91-4.2,2.92-5.47,0-10.94,0-16.36,0a1.27,1.27,0,0,0,.9-1.66,1.47,1.47,0,0,0-1.42-1.08,3.94,3.94,0,0,0-1.54.07,5.88,5.88,0,0,0-2.55,4.81c1,1,2.34.87,3.59.88,5.65,0,11.29,0,16.94,0a2.49,2.49,0,0,1,2.2.57c-1.85.27-2.34,1.29-2.22,2.85a2.71,2.71,0,0,1-.67,2.26,2.42,2.42,0,0,0-3.17-1.72,13.33,13.33,0,0,0-3.3,1.82,1.3,1.3,0,0,0-.41,1.57c.17.62.7.72,1.22.77.24,0,.48,0,.7,0a2.39,2.39,0,0,1-1.5-.23,5.54,5.54,0,0,0-4.52-.47,28.54,28.54,0,0,1-6.85.54c-2.53.06-5.07-.12-7.6.1-2,.8-2.69,2.66-3.59,4.36.5,1.47,1.89,1.25,2.91,1.28,4.84.15,9.68.09,14.34.06a1.29,1.29,0,0,0-1,1.59c.19.79.89,1,1.59,1.12a7.67,7.67,0,0,0,2.23-.15c.45-.06,1-.17,1.18.41a4.06,4.06,0,0,1-.23,2.37c-.23.59-.76.4-1.19.27a5.2,5.2,0,0,0-2-.24c-.82.08-1.48.39-1.58,1.3a1.42,1.42,0,0,0,1.1,1.55c.39.15,1,.08,1.07.82-1.34.37-2.79.75-2,2.71a5.36,5.36,0,0,0-2,.27c-.61.34-1,.73-.69,1.53.39,1.08-.17,1.76-1.33,1.49s-1.58.16-1.76,1.08a1.47,1.47,0,0,1-1.48,1.38,1.25,1.25,0,0,0-1,.35c-.93,1.32-2.28,1.39-3.7,1.34s-2.25.5-2.23,2a1.33,1.33,0,0,1-1.18,1.44,8.44,8.44,0,0,1-2.7.54c-2.06-.18-4,.63-6.09.48a.89.89,0,0,0-.86.5c-.63,1.29-1.79,1.26-3,1.26-1.79,0-3.58-.11-5.36.06-1.55.14-2,.7-1.91,2.14a46,46,0,0,0,8.6-.42,108.17,108.17,0,0,0,16.11-4.24,20.6,20.6,0,0,0,10.39-7.43,146.45,146.45,0,0,0,14.33-21.85,93.93,93.93,0,0,0,7.86-19.6c2.2-8.38,2.85-16.93,3.29-25.52C215.51,148.62,215.12,146.44,215.13,144.27Zm-6.42-21.78h.79C209.24,122.5,209,122.5,208.71,122.49Zm1,8,.6,0Zm.25,13.87-1.48,0Zm-6,0h0Zm5.26,2.44a15.9,15.9,0,0,1,2.7.23A7.47,7.47,0,0,1,209.16,146.76Z"/>
			<path class="cls-1" d="M13.82,194.87c.77.7,1.12-.24,1.58-.48,1.45-.74,2.69-1.9,4.44-2.13a41.76,41.76,0,0,0-5.93,7.53c-2.68,4.44-4.62,9.15-4.54,14.39a18.91,18.91,0,0,0,4,11.87,16.5,16.5,0,0,0,5.73,4.08c8.09,4.1,16.46,7.61,24.86,11a125.52,125.52,0,0,0,19.5,6.23c.4.09.83.27,1.12-.11s.06-1-.15-1.45a61,61,0,0,1-3.61-10.41A43.46,43.46,0,0,1,59.22,223a33.73,33.73,0,0,1,6.92-18.92,6.31,6.31,0,0,1,1-.89c-1.53,3.64-3.57,7.07-4.45,11a41.67,41.67,0,0,0-.87,16,39.37,39.37,0,0,0,7.27,17.45A46.64,46.64,0,0,0,82.27,259.4l2.91,1.83a16.27,16.27,0,0,1-5.63-.29,138,138,0,0,1-19.38-3.74,181.92,181.92,0,0,1-22.85-8.09,69.87,69.87,0,0,1-14.79-8.74A59.65,59.65,0,0,1,10.43,228.7c-1.59-2.13-1.94-4.76-2.37-7.27a42.33,42.33,0,0,1-.8-9.42,29.5,29.5,0,0,1,5.91-16.61A3.57,3.57,0,0,1,13.82,194.87Z"/>
			<path class="cls-1" d="M11.38,196.24l-3.62,3s-1.85,3.93-2.39,5.62-1.77,5-1.77,6.47.85,8.78.85,8.78L7.53,224l1,1,1.54-.77s-1-6.93-1-7.93.08-12.7.08-13S11.38,196.24,11.38,196.24Z"/>
			<path class="cls-5" d="M57.83,80.92a28.46,28.46,0,0,1,3,19.31A22.12,22.12,0,0,1,56,110c-.58.7-.85,1.94-1.53,2.19-.87.32-1.31-1.07-2.14-1.47-3-1.44-8.13-1.92-10.53-.13,3-.17,6-.67,8.86.45a6.14,6.14,0,0,1,1.66.89c1.13.9,1.43,1.63.53,3.12a27.09,27.09,0,0,0-4.34,13.61c0,.9-.29,1.1-1.13.81-4.29-1.49-8.76-1.21-13.16-1A46.21,46.21,0,0,0,20.74,131c-.47.17-1,.3-1.93.59a27,27,0,0,1,3.67-4.7c4.41-4.68,9-9.16,13.76-13.51a63.53,63.53,0,0,0,4.26-4.73c1.83-2.5,4.2-4.52,5.86-7.2,4-6.47,4.09-13,.63-19.62a30.24,30.24,0,0,0-3.42-5.36c-.33-.4-.65-.83-.36-1.4,1.34-.1,1.89.95,2.44,1.82a7.41,7.41,0,0,0,6.21,3.7,14,14,0,0,1,4.22.69A1.62,1.62,0,0,0,57.83,80.92Z"/>
			<path class="cls-8" d="M70.27,136.71A41.4,41.4,0,0,1,90,140.15a16,16,0,0,1,4.5,2.43,11.21,11.21,0,0,1,2,5.44c1,6.4-.57,12-5.23,16.62-1.6,1.58-2.18,1.67-3.76.15a54.7,54.7,0,0,0-13.84-9.66c-7.63-3.76-15.56-6.36-24.21-6.22-2.17,0-4.37.39-6.51-.3-.42-1.12.54-1.4,1.17-1.75a103.81,103.81,0,0,1,11.71-5.49,105.92,105.92,0,0,1,11.87-4.13A9.34,9.34,0,0,0,70.27,136.71Z"/>
			<path class="cls-1" d="M145.79,251.33c-.06-.73.33-1.4.07-2.19-.31-.95.52-1.35,1.26-1.51a4.19,4.19,0,0,1,2,0c1.15.37,1.62.16,1.9-1.1.36-1.65,1.12-1.9,2.74-1.24a1.81,1.81,0,0,0,2.68-1.58c0-1.08.4-1.36,1.43-1.38a6.2,6.2,0,0,0,5-2.61c.13-.17.35-.41.52-.41,1.46,0,1.87-.6,1.65-2.06-.12-.81.78-.82,1.43-.79a4.79,4.79,0,0,0,3.85-1.1c.69-.65,1.28-1.07.87-2.12-.21-.54.11-1.2.65-1.19,1.2,0,1.9-1.08,3-1.14.42,0,.83-.16.87-.66a1,1,0,0,0-.69-.9c-.46-.19-1.12-.5-1.45-.32-1.69.93-3.6,1-5.82,1.51,2.35,1,1.13,1.91.32,2.66a1.64,1.64,0,0,1-2.65-.23,4.66,4.66,0,0,0-4.74-.91,3.92,3.92,0,0,1-2.54.21c-4-.73-7.87.15-11.8.2a20.54,20.54,0,0,1-4.86-.77c-.73-.17-1.5-.7-2,0s.49,1.13.72,1.73a5.88,5.88,0,0,0,.79,1.06c-1.55-.31-2.49,0-3,1.3-.06.17-.49.26-.76.28-1.55.12-2.4.59-1.65,2.4a1.41,1.41,0,0,1-1.16,2.08c-1.12.18-2.2.09-1.71-1.64a5.71,5.71,0,0,0-2.76,1.7c-.59.66-1.19,1.3-2.22.89-.1,0-.28,0-.33,0-.93,1.16-1.91,2.09-3.62,1.89-.43,0-.45.62.09,1,1.41,1,.31,1.46-.5,1.66a4.34,4.34,0,0,1-2.38-.08,4.07,4.07,0,0,0-4.22.94c.21.18.38.31.53.45a1.44,1.44,0,0,1,.56,1.2c-.05.36-.43.31-.71.32a1.12,1.12,0,0,1-1.19-.78,1.34,1.34,0,0,0-2.31-.06,9.22,9.22,0,0,0-.42.94c-1.25,2.38-3.44,2.94-5.72,1.47a9.67,9.67,0,0,0-1.37-.7c-.41-.18-.73-.25-.8.42a1.84,1.84,0,0,1-2.9,1.33c-1.22-1-2.32-.53-3.48-.45a41.62,41.62,0,0,1-7.15.36c-1.49-.15-3.08.43-4.62.23-3.3-.42-6.7.3-9.91-.93a.74.74,0,0,0-.92.27c-.27.41,0,.63.35.79A1.55,1.55,0,0,1,77.6,253a4.45,4.45,0,0,0,4.56,2.89c1.14-.15,1.29.05.8,1.18-.23.53.21.72.46,1,.38.43.81.72,1.28.11.59-.78,1-.46,1.13.27.18.94.53.93,1.3.54a3.13,3.13,0,0,1,3.73,1.36.69.69,0,0,0,.71.36c1.56,0,3.12,0,4.67-.06.86,0,1.38-1.07,2-1.22,2-.47,4-1.16,6-.22a3.92,3.92,0,0,0,3.94-.13c.25-.15.55-.37.78-.33,3,.48,6.12-.67,9.15.24a.75.75,0,0,1,.63.7c-2.07,1-4.36,1-6.55,1.3A156,156,0,0,1,94.72,262a34.27,34.27,0,0,1-6.34-.43c-1.84-.33-3.58-1.52-5.24-2.53a51.54,51.54,0,0,1-11.08-9.26A37.06,37.06,0,0,1,63,231.58a37.54,37.54,0,0,1,.75-17.88c1.18-4.13,2.68-8.17,5.51-11.54-1,3.17-2.47,6.19-3.21,9.46a39.7,39.7,0,0,0-.35,16.06A41.93,41.93,0,0,0,75.63,248a6.9,6.9,0,0,0,5.18,2.35,81.48,81.48,0,0,0,9.48.29,88.19,88.19,0,0,0,11.12-1.07,77.25,77.25,0,0,0,17.54-4.81,95,95,0,0,0,18.86-10.36c.35-.24.7-.45.64-.93s-.59-.51-.94-.62c-6.45-2.06-12.07-5.65-17.29-9.81a51.76,51.76,0,0,1-8.86-9.13,2,2,0,0,1-.2-.65,14.17,14.17,0,0,1,1.42-.63c.34-.16.83-.17.83.24,0,1,1.08,1.4,1.2,2,.3,1.47,1.79,1.56,2.39,2.59a.31.31,0,0,0,.56,0c.15-.23,0-.55-.18-.55-1.74,0-1.73-1.58-2.37-2.56s-.79-2.18-2.16-2.49c-.49-.11-.46-.74-.59-1.18s-.25-.56-.59-.51-.49.44-.46.8c0,.77.65,1.54,0,2.29a11,11,0,0,1-3-4,41.32,41.32,0,0,1-5.11-15.54c-.22-2,.19-4.15-.6-6.12l2.87-2c.27,13.78,7,24.22,16.63,33a46,46,0,0,0,24.67,11.47,60.09,60.09,0,0,0,28-2.53c3-1,6-2,9.09-2.93-1.93,1.92-3.77,3.94-5.81,5.74a123.19,123.19,0,0,1-17.39,13.24A95,95,0,0,1,145.79,251.33Z"/>
			<path class="cls-1" d="M42.92,148.45c2.71,0,5.42,0,8.12,0,6.79,0,13.13,2,19.28,4.55a54.59,54.59,0,0,1,17.6,11.52c1,1,1.7,1.24,2.91,0,5.58-5.68,6.75-12.25,4.41-19.66-.24-.77-.47-1.53-.71-2.3,6.87,4,12.67,9,15,17a15.72,15.72,0,0,1,0,7.36c-1.06,5.38-4.06,9.69-7.73,13.6-.43.46-.9.89-1.34,1.35-1.72,1.8-1.78,1.84-3.09-.36a65.93,65.93,0,0,0-11.4-14,61.09,61.09,0,0,0-21.36-13.26,62.54,62.54,0,0,0-21.58-3.71c-1.44,0-2.83.58-4.28.34.48-.83,1.51-1,2.08-1.71C41.23,148,42,148,42.92,148.45Z"/>
			<path class="cls-10" d="M44.32,129.76c.79.13,1.59.2,2.37.4a3,3,0,0,1,2.45,2.34A10.51,10.51,0,0,0,52.42,138c1.05.91.7,1.33-.38,1.71-7.64,2.71-14.49,6.9-21,11.6-1.49,1.07-2.9,2.24-4.35,3.36-1.55-.18-2.56-1.31-3.6-2.23-5.2-4.65-7-9.85-5.2-16.41a5.56,5.56,0,0,1,4.07-4.21,60.33,60.33,0,0,1,13.85-2.46A76.13,76.13,0,0,1,44.32,129.76Z"/>
			<path class="cls-1" d="M173.85,200.77c.81,1.14,2.07,1,3.19,1,4.62.05,9.23,0,13.85,0,.59,0,1.25-.24,1.87.33-.47.55-1.1.23-1.59.41s-1,.32-1,1,.56.85,1.05,1a6.32,6.32,0,0,0,2.55-.24c1.62-.32,1.91,0,1.62,1.62a6.31,6.31,0,0,0-.07.69c-.16,2.29-.15,2.26-2.33,1.57a6,6,0,0,0-1.71-.11c-.67,0-1.12.29-1.13,1s.42,1,1.1,1c.23,0,.46,0,.69,0,.6.08,1,.4.86,1s-.29.94-1,1c-2,.07-2,.2-1,1.77.17.27.35.48.09.72a1.44,1.44,0,0,1-.61.19s-.11,0-.16-.06a1.69,1.69,0,0,0-2.46.27c-.63,1.07,1.08.87,1.31,1.78-.94.32-2.23.27-2.25,1.67-.93.08-.55-1.32-1.46-1s-.62,1-.66,1.61c0,.34,0,1-.31.9-2.35-.45-3.41,2.79-6,1.95-1.47-.49-2.37.36-2,2,.23.94-.37,1.14-1,1.31a15.1,15.1,0,0,1-4.61.8c-1.23,0-2.53-.5-3.45.79-1.68-1.25-2.08.84-3.12,1.15a13.4,13.4,0,0,1-3.61.15q-1.82,0-3.64,0a1.85,1.85,0,0,0-2.16,1.74h-.69a3.05,3.05,0,0,0-2.82-1.25c-1,0-2,.19-3.06.11s-2-.5-1.55-1.95c1.18-.82,2.57-.73,3.89-1,.73-.18,1.17-.52.68-1.33.38-.73,1.12-.91,1.8-1.18a7.52,7.52,0,0,1,2,.18c.77,0,1.46,0,1.82-.87s-.14-1.26-.7-1.69c-.09-1.2.68-1.66,1.67-1.93,1,.73,1.75.62,2.72-.43,1.13-1.24,2-2.75,3.6-3.6,1.21-.66,1.23-1.5.23-2.41a.6.6,0,0,1,.08-.5,53,53,0,0,1,5.11-5.28c1-.27,1.92.11,2.88.09.39,0,.88,0,1-.48s-.41-.61-.78-.69c-.69-.16-1.34-.35-1.5-1.18a1,1,0,0,1,.85-1.11,5.8,5.8,0,0,0,3.29.67c.38-.06.9-.06.88-.6s-.45-.47-.79-.51c-.92-.11-1.83-.21-2.33-1.16C173.05,201.27,173.08,200.74,173.85,200.77Z"/>
			<path class="cls-1" d="M63.71,180.67c1.59-1.49,3.71-2,5.6-2.86,4.08-1.87,8-4,12-6.08.88-.47,1.24-.87.33-1.75-9.16-8.91-19.83-14.88-32.53-17a74.34,74.34,0,0,0-12.18-.65c-.05,0-.14,0-.15-.06a1.42,1.42,0,0,1,0-.28c2.8-.26,5.61-.33,8.43-.38a53.2,53.2,0,0,1,21.92,4.51,62.13,62.13,0,0,1,17.31,11.1A76.31,76.31,0,0,1,97,182.3c1.21,1.85,1.15,2.12-.54,3.53l-.27.22c-4,3-4,3-8.44.77-5.47-2.68-11.34-4-17.28-5.09C68.23,181.31,66,181,63.71,180.67Z"/>
			<path class="cls-11" d="M57.83,80.92c0,1.33-.89,1.24-1.63.87A12.8,12.8,0,0,0,51.52,81a7.26,7.26,0,0,1-6.12-3.75A6.62,6.62,0,0,0,43.27,75c-.56.2-.85-.2-1.15-.54-5-5.63-10.76-10.34-16.65-14.94a47.49,47.49,0,0,1-6.1-5.3,19,19,0,0,1-2.7-3.52,2.59,2.59,0,0,1-.1-2.72c2.83-1,5.48,0,8,1,6.3,2.34,11.62,6.27,16.42,10.9a92.32,92.32,0,0,1,15.6,19.67c.19.32.26.81.83.7C57.76,80.39,57.8,80.65,57.83,80.92Z"/>
			<path class="cls-12" d="M172.12,203.54a1,1,0,0,0-.69,1,4.23,4.23,0,0,1-1.73,2.42l-5.2,5.54a1.33,1.33,0,0,1-.46,1.07c-1.79,1.69-3.56,3.4-5.21,5.23a.74.74,0,0,1-.91.27,5.33,5.33,0,0,0-1.73,1.73,7.17,7.17,0,0,1-3.12,2.77l-1.73,1A3.36,3.36,0,0,1,151,226a12.79,12.79,0,0,1-4.16.69,1.14,1.14,0,0,1-1,.28,9.66,9.66,0,0,0-1.77-.22c-2.44,0-4.63-1.31-6.93-1.57a12.73,12.73,0,0,1-4.93-2,68.42,68.42,0,0,1-13-9.5c-1.12-1-1.9-2.48-3.5-2.92l-.37-.68c0-.23.05-.51-.1-.66-1.22-1.24-1.9-2.88-3-4.19a39.68,39.68,0,0,1-4.82-10.4c1.43.74,1.62,2.3,2.22,3.54a52,52,0,0,0,6.54,9.88,46.4,46.4,0,0,0,29.12,17.21c3.87.74,5.6-1.79,7.84-3.56a83.9,83.9,0,0,0,8.36-7.64c2.78-2.89,5.39-6,7.94-9.06a145.26,145.26,0,0,0,13.47-20c4.65-8.07,9.25-16.22,11.26-25.46.79-3.62,1.36-7.29,2-10.94l-.44-.21c-1.11,1.46-2.31,2.87-3.32,4.39a41.15,41.15,0,0,1-9.46,9.68,55.59,55.59,0,0,1-21.12,10.14c-9.06,2.16-17.94,1.77-26.38-2.31a51.62,51.62,0,0,1-14.61-10.84c-.64-.66-1.35-1.25-2-1.87,0-2,0-3.94,0-6.11.78.42.95,1.12,1.36,1.59a4.43,4.43,0,0,0,2.35,5.61,2,2,0,0,1,.54.45,15.32,15.32,0,0,0,1.4,1.75,4.37,4.37,0,0,0,1.1,1.31c.25.17.5.32.76.48,2.61,1.66,4.83,3.91,7.75,5.09a15.31,15.31,0,0,0,1.46,1c4.35,2.34,9.2,2.86,13.94,3.75,1.6.3,3.21-.15,4.81-.25a57.79,57.79,0,0,0,6-.79,31.08,31.08,0,0,0,3.35-.79c1.77-.16,3.24-1.14,4.84-1.74,1-.37.92-1.21.92-2,.78-1.3,1-1.32,2.08-.18s2,.06,2.9-.38c1-.84,2.51-.95,3.41-2a17.6,17.6,0,0,1,2-1.45c.46-.47-.08-1.39.76-1.68.72,0,1.58.68,2.09-.41A16.13,16.13,0,0,0,186,158.1a33.72,33.72,0,0,1,3-3,22.17,22.17,0,0,0,4-5.38c-.74.66-1.22.92-1.77.43l2.77-3.82c.45.24.81.91,1.45.31,1.25-.31,1.66.39,1.78,1.46a12.08,12.08,0,0,1-.14,4.76c-.35,1.2-.36,2.5-.64,3.73a8.25,8.25,0,0,0-.35,4.21,1.74,1.74,0,0,1-.28,1.47c-1.39,1.48-1.72,3.43-2.38,5.24a8.37,8.37,0,0,1-1.11,2.87c-.6,1.08-.63,2.41-1.46,3.39a6.36,6.36,0,0,0-1.13,1.8,20.27,20.27,0,0,1-2.68,5,8.79,8.79,0,0,0-.43.83,2.51,2.51,0,0,1-1.28,1.61c-1.42,1-1.64,2.75-2.42,4.16a8,8,0,0,1-.8,1.91c-1,2.28-2.56,4.25-3.75,6.43A3.09,3.09,0,0,1,177,197c-1.55.85-1.87,2.71-3.12,3.81l-.69,1A1.81,1.81,0,0,1,172.12,203.54Z"/>
			<path class="cls-1" d="M19.38,54.26a32.19,32.19,0,0,1,5,3.83q5.78,4.59,11.38,9.4A60,60,0,0,1,42.2,74,3.72,3.72,0,0,0,43.27,75c0,.93.89,1.3,1.34,1.95,2.31,3.38,4.38,6.89,5.08,11a18.88,18.88,0,0,1-2.41,12.94,28.1,28.1,0,0,1-6.77,7.73,49,49,0,0,0,3.14-6.07,23.71,23.71,0,0,0-.29-17,54.52,54.52,0,0,0-9.7-15.53c-4.11-4.87-8.51-9.46-13-14A5.63,5.63,0,0,1,19.38,54.26Z"/>
			<path class="cls-1" d="M122.59,159.2a2.42,2.42,0,0,1-2.45-2.16,1,1,0,0,0-.25-.62c-1.52-1.19-.61-2.15.28-3.11l3.81,3.8c.33,1.5,1.75,1.74,2.78,2.42h0c.36.7,1.17.67,1.73,1,1.56.31,2.75,1.4,4.08,2.13a44.76,44.76,0,0,0,16.18,5.17,42.76,42.76,0,0,0,25.35-4.51,54.84,54.84,0,0,0,13.33-9.61c1.24-1.2,2.49-2.38,3.73-3.58.93.24,1.34-.73,2.2-1-.68,2.73-2.82,4.42-4.26,6.52-.57.83-1.71,1.16-2.45,2.29a9.68,9.68,0,0,1-3.79,3.24c-.3.54-.73.41-1.18.23s-.87-.34-1.25.11c-.64.47.82,1.36-.35,1.73-.74.4-1.91.13-2.08,1.39-.72,1.42-2.35,1.31-3.46,2.08-1.36-.82-2.4,0-3.46.69,0-.53,0-1.06-.78-1s-.59.56-.61,1a1.76,1.76,0,0,1-2.65,1.25c-1.94-.78-3.66.7-5.54.59-.22,0-.39.25-.36.5,0,.43.37.37.65.3a3.2,3.2,0,0,1,1.68-.2c.89.24,1.25.66.33,1.37-1.16.23-2.22.88-3.46.69a.65.65,0,0,1-.94-.08c-2.27-2.44-4.9-1.88-7.54-.91-2,.73-3,.53-4.23-1.22a1.42,1.42,0,0,0-1.16-.58c-1.76-.22-3.56-.14-5.23-1a2.26,2.26,0,0,0-2.28.49,4.08,4.08,0,0,1-3.89.49,2.17,2.17,0,0,1-1-1c0-1.22.87-.92,1.59-.86.39,0,.91.15,1-.42s-.47-.6-.86-.66a10.74,10.74,0,0,0-1.86-.33,2.29,2.29,0,0,1-2.57-1.66c-.52-1.26-2-1.06-3.22-1.07-.68,0-1.37.31-2-.19a.83.83,0,0,1-.79-1.14c.12-.35.59-.75.18-1.07s-.73.34-1.12.48c-.64-.43-1.3-.85-1.39-1.73.08-.12.25-.25.17-.38S122.76,159.18,122.59,159.2Z"/>
			<path class="cls-13" d="M128.12,158.87c3.52,1.06,6.7,3,10.32,3.81a54.23,54.23,0,0,0,15.29,1.51,56.89,56.89,0,0,0,18.93-4.68,67.38,67.38,0,0,0,16.63-10.29c1.28-1.08,2.16-2.72,4-3.16a40.89,40.89,0,0,1-6.65,7.44,60.47,60.47,0,0,1-10.71,8.06,43.72,43.72,0,0,1-16.48,5.66c-11.06,1.32-21-1.61-30.34-7.38A5.89,5.89,0,0,1,128.12,158.87Z"/>
			<path class="cls-14" d="M30.84,153.33c1.56,0,2.94-.89,4.65-.85C16.34,165.85,4.12,183.59.89,207c-1-7,.38-13.54,3.13-19.87a8.52,8.52,0,0,0,1.14-3.4,58.25,58.25,0,0,1,6.51-11.34A80.66,80.66,0,0,1,21.35,161C24.22,158.09,27.13,155.19,30.84,153.33Z"/>
			<path class="cls-15" d="M44.32,129.76c-2.91.28-5.81-.22-8.74-.09a58.07,58.07,0,0,0-13.63,2.54,4.57,4.57,0,0,0-3.35,3.1c-2.44,7-.07,13.31,6.16,17.92.64.48,1.26,1,1.9,1.47-1.7,1.63-3.39,3.27-5.09,4.88-.39.37-.75.35-1.17-.1-6.87-7.27-8.86-15.27-3.78-24.51.95-1.72,2.66-2.5,4.38-3.13a49.05,49.05,0,0,1,12.43-2.51,60.3,60.3,0,0,1,9.79.08C43.61,129.45,44,129.39,44.32,129.76Z"/>
			<path class="cls-13" d="M1.39,212.18c.94-2.44,1.76-4.94,2.84-7.31A39.29,39.29,0,0,1,20.8,186.32a46.74,46.74,0,0,1,14.88-5.13c1.83-.34,3.89-1.14,5.86-.14a21.7,21.7,0,0,1-3.66.7c-6.28,1.43-12.44,3.17-17.9,6.77C12.88,193.19,8.11,199.41,6.89,208a42.72,42.72,0,0,0,.94,16,1.42,1.42,0,0,1-.1,1.19A38.08,38.08,0,0,1,1.39,212.18Z"/>
			<path class="cls-16" d="M89,188.31c-.54.65-1.08.1-1.57,0a117.22,117.22,0,0,0-22.21-4.53,99.63,99.63,0,0,0-15.71-.2,71.92,71.92,0,0,0-25.74,6.38c-1,.44-1,.44-2.5.33,1.49-1.48,3.38-2.06,5.05-2.89,5.64-2.83,11.76-4,18-5s12.3-.45,18.44-.66A71.93,71.93,0,0,1,89,188.31Z"/>
			<path class="cls-17" d="M196,69.15A7.83,7.83,0,0,1,193.28,65c-.19-.74-.25-1.56-.89-2a6.44,6.44,0,0,1-2.55-4.31,1.8,1.8,0,0,0-1-1.45c-1.39-.64-1.49-2.1-1.79-3.3a6.79,6.79,0,0,0-.84-2.19l-.91,1.47a2.48,2.48,0,0,1-1,0c-1.38-4.16-4-7.69-6-11.51-.08-.15-.39-.18-.6-.27a.94.94,0,0,1-.67-.68,1.17,1.17,0,0,0-.12-1.4,107.47,107.47,0,0,0-10.62-14.74,55.87,55.87,0,0,0-4.79-5.12,1.22,1.22,0,0,1-.41-.92c1.89.77,3.07,2.42,4.38,3.8a139,139,0,0,1,13.54,16.46A163,163,0,0,1,192.69,62C193.81,64.39,195.25,66.61,196,69.15Z"/>
			<path class="cls-18" d="M42.92,148.45a3.61,3.61,0,0,0-2.07.71c-1.51-.26-2.71.54-4,1.09-.66.28-1.8,1-1.55-.78a72.35,72.35,0,0,1,30-12.37,17.9,17.9,0,0,1,5-.4c-.72.81-1.77.72-2.68,1-4.31,1.33-8.54,2.87-12.72,4.58-3.49,1.43-6.87,3.09-10.23,4.8A3.31,3.31,0,0,0,42.92,148.45Z"/>
			<path class="cls-19" d="M57.45,80.28c-.6.2-.62.21-.94-.26-1.15-1.71-2.29-3.43-3.44-5.14A89.35,89.35,0,0,0,40.31,59.81a49,49,0,0,0-16-10.48A19.52,19.52,0,0,0,16.58,48c1.27-1.78,3.11-1.59,4.85-1.21,5,1.09,9.22,3.79,13.28,6.73A78.17,78.17,0,0,1,52.09,70.88,55.87,55.87,0,0,1,57.45,80.28Z"/>
			<path class="cls-1" d="M145.79,226.74h1c-.14,1.36.63,1.75,1.77,1.52a23.17,23.17,0,0,1,3.77-.13c1.16,0,1.89.41,1.73,1.72-16,0-28.49-6.9-38.42-19.06.53-.27,1.05-.54,1.54.07,3.61,4.55,8.44,7.62,13.11,10.88,1.43,1,3.45,1.11,4.32,2.93,0,.08.22.19.28.16,2.36-1,4.12.69,6.14,1.31.9.27,2-.19,3,.24C144.53,227,145.2,226.7,145.79,226.74Z"/>
			<path class="cls-20" d="M85.51,48.05c-.7,1.12,0,2.24,0,3.35A55,55,0,0,0,86.85,63c.1.54.26,1.15-.23,1.63a105,105,0,0,1-3-16.18c-.14-1.51-.47-3.06.17-4.56Z"/>
			<path class="cls-1" d="M195,147.08c-1.25,1.1-.53-.71-1-.7a.68.68,0,0,0-.34-.68c.08-.88.74-1.3,1.38-1.74,1.25-.78,2.47-.17,3.66.14a1.16,1.16,0,0,1,.75,1.55,1.72,1.72,0,0,1-1.75,1.15C196.74,146.87,195.8,146.38,195,147.08Z"/>
			<path class="cls-1" d="M112.19,205.27c1.77.84,2,2.94,3.39,4.13.2.18,0,.53-.27.71C114.13,208.59,112.68,207.24,112.19,205.27Z"/>
			<path class="cls-12" d="M126.75,159.54c-2.55-.41-3-.77-2.78-2.42C124.89,157.94,126.1,158.42,126.75,159.54Z"/>
			<path class="cls-12" d="M128.48,160.59c-.73-.1-1.81.39-1.73-1A2.22,2.22,0,0,1,128.48,160.59Z"/>
			<path class="cls-8" d="M116,2.67a12,12,0,0,1,4.17-.74c-.79.74-1.59,1.46-2.36,2.23-4.62,4.58-5.54,10.05-3.84,16.14a4.36,4.36,0,0,1,.44,2.63c-5.11-4.45-10.4-8.07-17.46-7.14-.15-.91.59-1.33,1.1-1.82a47.74,47.74,0,0,1,16.2-10.59A7.81,7.81,0,0,0,116,2.67Z"/>
			<path class="cls-21" d="M116,2.67c-.22.58-.78.6-1.24.8A49.71,49.71,0,0,0,96.95,15.8c-1.47-.2-2.72.83-4.18.71,4.86-5.64,11.08-9.28,17.83-12.11A21.43,21.43,0,0,1,116,2.67Z"/>
			<path class="cls-22" d="M92.78,55.31a25.42,25.42,0,0,1-9.37-16.53c-.39-4.41,1.23-8.13,4-11.41a18.72,18.72,0,0,1,13.73-6.75,18.18,18.18,0,0,1,9,2.12,23.94,23.94,0,0,1,9,14.33,19.43,19.43,0,0,1,.71,3.21c.39,2.16-.45,4.14-1.25,6A18.84,18.84,0,0,1,95.89,56.79,15,15,0,0,1,92.78,55.31Z"/>
			<path class="cls-23" d="M110.12,22.75c-2.09-.47-4.16-1-6.26-1.39-9-1.62-18.48,5.74-19.78,13.73a18,18,0,0,0-.67,3.7c-1.47-7.32,1.25-15.2,7-18.71S104.57,17.67,110.12,22.75Z"/>
			<path class="cls-23" d="M92.78,55.31c2.63.69,5.14,1.85,8,1.78A18.31,18.31,0,0,0,112,53.51a18.69,18.69,0,0,0,5.79-6.75,21.14,21.14,0,0,0,2-6.48C121.21,47.09,118.33,58,108,60,102.25,61.06,97.18,59.11,92.78,55.31Z"/>
			<path class="cls-3" d="M137.57,1.92A24.21,24.21,0,0,1,153,13.78c4.11,9.09-2.65,21.42-13.23,23.07a20.11,20.11,0,0,1-3.75.46,24.19,24.19,0,0,1-16.25-12.47c-3.38-10.39,3.6-21.5,15.37-22.9A23.44,23.44,0,0,1,137.57,1.92Z"/>
			<path class="cls-23" d="M137.57,1.92c-2.34.72-4.79.84-7.13,1.7a17.56,17.56,0,0,0-10.65,12.52,30.33,30.33,0,0,0,0,8.7,17.21,17.21,0,0,1-2-14.05c1.82-6.11,8-10.11,14.86-9.69A13,13,0,0,1,137.57,1.92Z"/>
			<path class="cls-23" d="M136.07,37.31c1.4-.76,3-.71,4.49-1.06A16.29,16.29,0,0,0,150.81,29a16.48,16.48,0,0,0,2.1-14.74c0-.13.08-.32.13-.49A17.5,17.5,0,0,1,155.41,28a13.83,13.83,0,0,1-12.89,10A14.92,14.92,0,0,1,136.07,37.31Z"/>
			<path class="cls-1" d="M195,147.08c.52-1,1.47-.61,2.27-.69s1.75,0,1.82-1.06-.85-1-1.58-1A9.9,9.9,0,0,0,195,144a10.19,10.19,0,0,0,2.42-5.05,104.53,104.53,0,0,0,2.15-17.72c.11-3.73,0-7.45-.09-11.17a99.86,99.86,0,0,0-1.52-14.17c-.62-3.49-1.21-7-1.95-10.46-.49-2.29-1.15-4.55-1.85-6.79-1.22-3.94-2.52-7.87-3.82-11.79a7.79,7.79,0,0,0-.87-1.46c-1.56-3.5-2.58-7.22-4.39-10.62-.26-.5-.54-1-.8-1.5a.91.91,0,0,1,1,0c.81,1.05,1.95,1.89,2.12,3.36a.74.74,0,0,0,.21.46c1.38,1.09,1.09,2.78,1.45,4.2a4.36,4.36,0,0,0,2.33,3.23A1.74,1.74,0,0,1,192.45,67a5.35,5.35,0,0,0,.26,4c.73,1.46,2.33,2.5,3.6,3.68.16.15.54.08.87.11-.24.74-.69,1.24-1.35,1.26-1.54,0-1.35,1-1.06,1.91s.48,1.64.68,2.48c.54,2.24,1.47,2.84,3.61,2,1.28-.49,1.5.13,1.78,1,.52,1.68.25,3.41.37,5.11,0,.61-.18,1-.87,1s-.75-.3-.87-.84a13.43,13.43,0,0,1-.33-3.77c.06-1-.24-1.66-1.44-1.63s-.91.9-1,1.59c-.16,1.23.59,2.2.91,3.29.09.33.44.63.42.93-.17,2.54,1.56,2.2,3.15,2.17a4.57,4.57,0,0,1,2.31.22c-.5.78-1.25.37-1.85.45s-1.38-.09-2,.31a.82.82,0,0,0-.44.86c.06.43.38.5.74.57a5,5,0,0,1,3.8,3.55c.18.62.48,1.36,1.05,1.52,2.36.68,1.7,2.57,1.57,4a8.68,8.68,0,0,0,1.38,4.88c.32.6.29.72-.34.93a11.62,11.62,0,0,1-4.46.27c-.9-.06-1.92-2.88-1.29-3.61,1-1.19.6-2.36.23-3.57a1.29,1.29,0,0,0-1.32-.93c-.8,0-.71.77-.71,1.34,0,1.84.31,3.66.41,5.49.21,3.77,1.05,7.5.3,11.3a7,7,0,0,0,0,1.56c0,.65.1,1.43.82,1.54a4.16,4.16,0,0,0,3-.22.87.87,0,0,0,.26-.95c-.1-.54-.48-.71-1-.81-1.25-.26-2.44-2.29-2-3.43.25-.61.86-.71,1.45-.72,1,0,2.08,0,3.12,0,.65,0,1.15-.24,1.17-1s-.49-1.1-1.23-1.1h-1.73a3,3,0,0,1-1.63-.32,13.06,13.06,0,0,1,5.78-.16,1.89,1.89,0,0,1,1.14,2.42,5,5,0,0,0-.13,2.9c.33,1.26-.28,1.4-1.23,1.4-.77,0-1.62,0-1.59,1.07s.9,1,1.65,1a9.1,9.1,0,0,1,3.22.31,4,4,0,0,1-2.22.37c-.68.06-1.46-.21-2,.23-1.28,1-2.37.86-3.76,0s-3.65,1.23-3.38,3a9.29,9.29,0,0,1-.53,4.51c-.15.45-.38.85,0,1.28a.73.73,0,0,0,.78.23.85.85,0,0,0,.59-1.08c-.16-.87.24-1.12,1.07-1,1.55.25,2.61-.14,2.58-2a1,1,0,0,1,1.14-1c1.62,0,3.23,0,4.85,0,.63,0,1.31.25,1.25.9s-.81.46-1.31.48-1.15,0-1.73,0c-.74,0-1.75,0-1.73.91s1,.76,1.67.82c.93.07,1.9-.19,2.81.36a8.57,8.57,0,0,1-3.09.34c-.62.06-1.44.09-1.42.9s.77.73,1.35.81h.17c3.3.25,3.37.27,3.27.94-.22,1.37,1.08,2.55.37,4a3.75,3.75,0,0,0,.09,2.38c.43,1.7-.1,2.33-1.9,2.35-2.25,0-4.5,0-6.75,0a7,7,0,0,0-1.53.18c-.33.08-.67.27-.66.69a.75.75,0,0,0,.69.67A9,9,0,0,0,204,144c2.56,0,5.12,0,7.79,0-.32.92-.86.68-1.26.68-2.42,0-4.85,0-7.27,0-.69,0-1.63,0-1.61.87s1,.84,1.65.84c1.67,0,3.35,0,5,0a20.7,20.7,0,0,0,4.77-.2c-.8,1.21-1.66,2.12-3.17,1.13a.7.7,0,0,0-.32-.13c-.95,0-2-.47-2.76.4a1,1,0,0,0-.18,1.12c.53,1.17,1.57.77,2.42.78a9,9,0,0,0,3.43-.24,1,1,0,0,1,1.25.31.54.54,0,0,1,0,.78,1.27,1.27,0,0,1-1.32.1,12,12,0,0,0-3.78-.22c-.63,0-1.47.07-1.49.82s.82.89,1.44.87a36.55,36.55,0,0,0,4.85,0c-2.22,1.5-.47,3.7-1.11,5.54-.39,1.13-.68,1.49-1.76,1.43-.92-.06-1.85,0-2.77,0-.68,0-1.1.33-1.09,1.05s.48,1,1.14,1h4.15c-.1,1-.7.66-1.07.68-.86.05-1.73,0-2.59,0-.51,0-1.16.17-1.2.77,0,.76.69.86,1.24.9,1,.07,2,0,2.94,0v.72c-1,0-2,0-3,0-.51,0-1.16.16-1.2.76-.05.76.69.79,1.23.92a2.73,2.73,0,0,0,.52,0c3,.13,3,.13,3,3.06a20.28,20.28,0,0,1-.08,3.11c-.09.58-.07,1.67-1.33,1.18-.42-.16-.94.15-.87.58.35,2.21-1.15,4.31-.26,6.57.43,1.08-1,1.62-1.2,2.76-.35,2.25-2,2.94-4.27,2.87-5.42-.15-10.85,0-16.27-.05-.6,0-1.26.17-1.79-.35.12-.14.17-.28.24-.29.78-.15,2,.22,1.88-1.15s-1.23-.88-2-1a6.39,6.39,0,0,0-.69,0l1-1.73c.8.11.49-.33.35-.69l2.77-5.2c.34.06.8.42.86-.27a10.8,10.8,0,0,1,.18-1.46l1.39-3.46c1.83-.37,1-1.72,1-2.77.82-1.89.83-4.16,2.67-5.58.18-.14.08-.66.1-1,.49-.52,1.15-.38,1.76-.47.39-.05.87-.05.93-.55s-.36-.54-.68-.64a2.41,2.41,0,0,1-1.66-2.5,23.33,23.33,0,0,1,.59-4.19c.54-1.67.11-3.25.07-4.87C196.63,146.37,195.56,147.26,195,147.08Z"/>
			<path class="cls-8" d="M177,40.76l.67.68a12.08,12.08,0,0,0-.62,4.18,105.41,105.41,0,0,1-2.55,16.61A65.46,65.46,0,0,1,166,83.39c-6.36,9.82-15.05,15.47-27.12,14.82a37.19,37.19,0,0,1-9.23-1.94,4.18,4.18,0,0,0-.85-.09,76.19,76.19,0,0,1-17.49-10.3,118.54,118.54,0,0,1-15.68-15,19.69,19.69,0,0,1-3-3.64c2.86-.28,5.63-.6,8.4-.81a135.82,135.82,0,0,0,13.94-2A170.54,170.54,0,0,0,139.44,58,191.41,191.41,0,0,0,161,49.29C166.46,46.68,171.8,43.89,177,40.76Z"/>
			<path class="cls-5" d="M160.67,112.49a1.39,1.39,0,0,1,1.76-.09A1.39,1.39,0,0,1,160.67,112.49Z"/>
			<path class="cls-1" d="M181.81,189a3.18,3.18,0,0,1,1-1.73,5.78,5.78,0,0,0,3.12.7h18.69c.61,0,1.42-.18,1.61.62s-.22,1.31-1.16,1.18c-1.15-.16-1.66.21-1.27,1.46.32,1-.34,2-.32,3,0,.34-.2.87-.71.82a.88.88,0,0,1-.89-.88c0-1.36-.84-1.39-1.85-1.4-1.59,0-2.31,1.69-3.83,1.83-.3,0-.26.72-.18,1.11s.54.53,1,.53a15.5,15.5,0,0,1,3.54.28c-3.86.9-7.69-.67-11.69.23-3.79.85-7.92.18-11.9.18l1-1.39a1.34,1.34,0,0,0,1.47-1.34c.06-.89.66-1.13,1.4-1.2s1.13.41,1.35,1.06.37,1.66,1.49,1.54c.59-.07.84-.56,1-1.09.22-1.06-.55-1.23-1.29-1.42a1.25,1.25,0,0,1-.93-1.29A13.12,13.12,0,0,0,181.81,189Z"/>
			<path class="cls-1" d="M118.53,219.83l.8-1.59c1.59,1.39,3.36,2.44,4.3,4.5.49,1.08,2.29.95,3,2.08,0,0,.33-.12.37-.24.43-1,.91-.48,1.45-.1.8.56.22,1,0,1.61-.28.81-.83.73-1.38.46-2.83-1.36-5.66-2.74-6.68-6.08C120.16,219.51,119.3,220.07,118.53,219.83Z"/>
			<path class="cls-1" d="M111.16,213.23a4.3,4.3,0,0,0-.44-2.18c-.35-.9.11-1.32.83-1.57s1,.35,1.13.93,0,1.49,1.19,1.19c.43-.11.68.62.77,1,.25,1.19,1.51,1.92,1.44,3.25,0,.34.33.46.63.44.54,0,1.17-.35,1.42.48s-.45,1.28-1,2c-.44-1.23-1-2.11-2.22-2.34a.76.76,0,0,1-.6-.92c.09-.57.2-.82-.68-.85-1.53-.05.21-1.36-.65-1.89-.53.1-1,1.19-1.82.44Z"/>
			<path class="cls-1" d="M108,203.46c-2.76-1.61-3.64-3.46-1.55-5.45.73,1.56.71,3.33,1.84,4.66s1.37,3.2,2.56,4.54c.62.7.34,1.07-.58,1.2a2.15,2.15,0,0,1-2-1C107.34,206.45,107.14,204.18,108,203.46Z"/>
			<path class="cls-1" d="M132.59,229.93c1.12-.83,2.22-.77,3.09-1.34.62-.4,1.33.07,1.85.55a.94.94,0,0,1,.19,1.12,1.86,1.86,0,0,1-1.7,1C134.78,231.33,134,230.18,132.59,229.93Z"/>
			<path class="cls-1" d="M132.5,226.93c-.52.5-.7,1.49-1.52,1.42-.56,0-1.61.11-1.7-.76s.91-1.17,1.53-1.38A1.59,1.59,0,0,1,132.5,226.93Z"/>
			<path class="cls-1" d="M157.92,219.12l6.58-6.58c1.59.71,1.76,1.67.26,2.58a17.92,17.92,0,0,0-4.3,4.37C159.66,220.46,158.81,220.35,157.92,219.12Z"/>
			<path class="cls-1" d="M185.14,210.12c-.84-.08-2,.34-2.68-.48s-1.17-1.89-.28-2.62a2.12,2.12,0,0,1,3,.17c.46.5.83.9,1.55.86s1.4.2,1.34,1.14-.7.94-1.38.93Z"/>
			<path class="cls-1" d="M182.12,204.56c-.69,0-1.38,0-2.06,0a.92.92,0,0,1-1-1,.89.89,0,0,1,.89-1c1.43,0,2.87,0,4.3,0a.91.91,0,0,1,1,1,1,1,0,0,1-1.06,1.07c-.69,0-1.38,0-2.06,0Z"/>
			<path class="cls-1" d="M172.12,203.54c.35-.58.48-1.28,1-1.73a4.7,4.7,0,0,0,2.54.75,1,1,0,0,1,1.22.95c0,.76-.6,1-1.14,1C174.5,204.48,173,205.11,172.12,203.54Z"/>
			<path class="cls-1" d="M153.07,223.62a13.92,13.92,0,0,1,3.12-2.77c.68,0,1.54-.1,1.35,1-.16.87-.06,2-1.44,2.16A16.79,16.79,0,0,1,153.07,223.62Z"/>
			<path class="cls-1" d="M169.69,207c.17-1.1,1.23-1.56,1.73-2.42.35.81,1.09.66,1.76.71a1,1,0,0,1,1,1.12c0,.61-.43.87-1,.93A19,19,0,0,1,169.69,207Z"/>
			<path class="cls-1" d="M189,207.35c-.75,0-1.62.07-1.63-1s1-1,1.75-1.06,1.62-.08,1.62,1S189.81,207.31,189,207.35Z"/>
			<path class="cls-1" d="M169.77,216.35c-.78,0-1.75.17-1.76-1.05s.86-1,1.61-1,1.75-.17,1.76,1S170.52,216.34,169.77,216.35Z"/>
			<path class="cls-1" d="M183.48,216.35c-.75,0-1.62.07-1.62-1s1-1,1.75-1.06,1.62-.08,1.62,1S184.26,216.32,183.48,216.35Z"/>
			<path class="cls-1" d="M169.69,219.12c0,.73.13,1.63-1,1.68s-1.12-.88-1.12-1.69-.13-1.63,1-1.68S169.68,218.32,169.69,219.12Z"/>
			<path class="cls-1" d="M169.63,221.89c.78,0,1.75-.16,1.75,1.07s-.88,1-1.63,1-1.75.16-1.75-1.06S168.88,221.91,169.63,221.89Z"/>
			<path class="cls-1" d="M151,226c-.35-.58-.39-1.08.35-1.39.35.06,1-.12.88.45A1.18,1.18,0,0,1,151,226Z"/>
			<path class="cls-1" d="M168.17,212.32a.71.71,0,0,1-.78.51c-.36,0-.71-.22-.63-.63s.52-.33.84-.34S168.16,211.94,168.17,212.32Z"/>
			<path class="cls-1" d="M135.06,169.25c1.79.44,3.11-.73,4.58-1.35.49-.21,1-.55,1.45-.27,1.93,1.1,4,1.1,6.14,1a1,1,0,0,1,.94.65c.68,1.77,1.92,2.32,3.54,1.25,2.14-1.4,4.37-.33,6.55-.54.48,0,.89.51,1,1.05a1.06,1.06,0,0,0,1.07.94c-1.91.8-4,.74-6,1-5.6.7-11-.56-16.24-2.36A32.7,32.7,0,0,1,135.06,169.25Z"/>
			<path class="cls-1" d="M126.05,163a10.87,10.87,0,0,1,4.38,0c.89.26,1.47.6,1.49,1.56s.35,1,1.28.88a9.28,9.28,0,0,1,3.3.49,1,1,0,0,1,.76,1.33,1.21,1.21,0,0,1-1.58.66c-.74-.4-1.25-.52-1.69.31a6.58,6.58,0,0,1-3-1.4A53.82,53.82,0,0,1,126.05,163Z"/>
			<path class="cls-1" d="M181.81,189c1.1.51.93,1.59,1,2.47s.23,1.42,1.26,1.35c.87-.06,1.29.45,1.18,1.29s-.25,1.89-1.39,2.09a1.36,1.36,0,0,1-1.74-1,9.58,9.58,0,0,1-.31-1.15c-.11-.71-.51-.75-1.11-.62s-1,.16-.73,1-.51,1.28-1.17,1.63-.74.06-.79-.46C179,193.24,180.61,191.22,181.81,189Z"/>
			<path class="cls-1" d="M163.8,171.33c.19-2-1.08-.92-1.76-.75-.48.12-.88.6-1.38.12s.08-1.07.07-1.61c0-.33.28-.49.61-.36,1.08.44,2-.19,3-.4.7-.14,1.4-.62,2.15-.2a2.29,2.29,0,0,0,3.22-.63c.29.8.16,1.53-.65,1.85C167.31,170.06,165.73,171.15,163.8,171.33Z"/>
			<path class="cls-1" d="M196,156.78c.74.88.86,2.43,2.59,2.25.38,0,.53.54.5,1a.88.88,0,0,1-.86.9c-.86,0-1.72,0-2.57,0C194.93,159.48,195.53,158.13,196,156.78Z"/>
			<path class="cls-1" d="M171.08,167.52c.14-.1.33-.16.4-.29,1.08-1.89,1.38-1.94,3.06-.4C173.2,168.11,171.9,168.37,171.08,167.52Z"/>
			<path class="cls-1" d="M124.32,161.28a1,1,0,0,1,.88-1.26c.47-.11.75.25,1,.57.37.54-.16.8-.4,1.16a6.1,6.1,0,0,0-.41.91A1.64,1.64,0,0,1,124.32,161.28Z"/>
			<path class="cls-1" d="M192.9,167.52c1.16,1,.43,2.18,0,3.11s-1,.57-1.08-.34A6.36,6.36,0,0,0,192.9,167.52Z"/>
			<path class="cls-1" d="M190.47,173.75c.53.43.08,1.05.3,1.58a.74.74,0,0,1-.56,1c-.6.09-.71-.42-.77-.89A2.14,2.14,0,0,1,190.47,173.75Z"/>
			<path class="cls-1" d="M180.43,161.63c.58-1.75,1.67.12,2.42-.35C182.27,163,181.3,162,180.43,161.63Z"/>
			<path class="cls-1" d="M178,164.75c-.74-1.12-.45-1.57.88-1.39a9.38,9.38,0,0,0,1.2,0Z"/>
			<path class="cls-1" d="M186.66,180.68c.74-.33.71.16.69.65s0,.77-.42.83c-.55.09-.56-.4-.62-.79A.72.72,0,0,1,186.66,180.68Z"/>
			<path class="cls-1" d="M122.59,159.2c.06-.38.08-.93.59-.78a1,1,0,0,1,.61,1.2c-.16.43-.56,0-.85-.07Z"/>
			<path class="cls-1" d="M145.79,226.74c-.76.8-1.44,1.22-1.73-.35C144.65,226.48,145.31,226.16,145.79,226.74Z"/>
			<path class="cls-24" d="M114.92,43.89c.22,5.26-2.52,9.67-6.88,10.8a11.36,11.36,0,0,1-7.24-.56c-.46-.19-.86-.58-1.41-.51a.72.72,0,0,1-.84-.48c.41-.81.56-1.34-.45-2.06-4-2.88-5.54-6.93-5-11.8.36-3,3.22-6.31,6.69-6.44A7.68,7.68,0,0,0,105.54,34a11.54,11.54,0,0,1,6.06,9.13,11.06,11.06,0,0,1-1.83,7.36A11.18,11.18,0,0,0,113.83,45C114,44.45,114.1,43.8,114.92,43.89Z"/>
			<ellipse class="cls-25" cx="104.48" cy="50.98" rx="3.63" ry="2.73"/>
			<path class="cls-26" d="M105.53,34.18a4.77,4.77,0,0,1-5.68-1.1c-1.13-.66-1.25-1.74-1.23-2.89a8.51,8.51,0,0,1,.87-2.61c-4.54-.16-7.85,3-8.82,8.36a8.93,8.93,0,0,0-.08,3.44,3.52,3.52,0,0,1,.13.48,17.82,17.82,0,0,0,6.07,11.29,8.21,8.21,0,0,1,1.9,2l.7.47c-.82.59-1.63.23-2.46,0C91.15,52,86.43,45.22,86.46,39.31A15.22,15.22,0,0,1,98.29,24.39c4.87-1,9.43-.11,13.3,3.42,4.5,4.1,5.85,9.11,4.79,14.95-.1.54-.26,1-.81,1.19-.1,0-.36-.5-.54-.78-.7-.57-.67-1.43-.82-2.2A17.52,17.52,0,0,0,109,31.78c-.28-.28-.51-.87-1.1-.43C107.37,32.51,107,33.8,105.53,34.18Z"/>
			<path class="cls-27" d="M107.63,30.93c-.07-.51-.14-1.29.62-.59,3.12,2.87,5.54,6.21,6.37,10.49.15.78.28,1.56.41,2.34l-.12.72c-1,1.23-1.2,2.86-2.14,4.17a12,12,0,0,1-3.87,3.29,11.92,11.92,0,0,0,2.27-8.17c1.06.24.56,1.19.75,1.63,1.3-2.08.46-4.41.22-6.66s-1.88-3.73-3.52-5.09C107.93,32.46,107.26,32,107.63,30.93Z"/>
			<path class="cls-28" d="M138.87,32.84c.72.62.47.83-.34,1a12.73,12.73,0,0,1-6.23-.55,14.14,14.14,0,0,1-10.07-12.11A14.75,14.75,0,0,1,130,6.74a14.43,14.43,0,0,1,20.43,8.63c.39,1.25,1,2.61,0,3.9-.5,0-.68-.44-.88-.81a17.33,17.33,0,0,0-8.91-8.24c-1-.46-1.53-.35-1.29.91a4.07,4.07,0,0,1-.4,2.07c-2.12,2.86-4.12,3.28-7,1.48a5.27,5.27,0,0,1-1.25-2,6.3,6.3,0,0,1-.06-2.58,8.39,8.39,0,0,0-5,9.75,16,16,0,0,0,2.07,5.07c2.56,3.86,6.26,6.11,10.57,7.51A.94.94,0,0,1,138.87,32.84Z"/>
			<path class="cls-29" d="M149.84,18.26l.55,1c.54,2.09,1.15,4.13.65,6.38a9.37,9.37,0,0,1-7.58,7.18,18.79,18.79,0,0,1-4.59,0l-.69-.11c-.38-.74.23-.91.68-1.05a14.25,14.25,0,0,1,2.6-.81c2.58.63,2.67.6,3.92-1.72,2.91-2.36,3.92-5.51,3.84-9.14C149.2,19.38,149,18.61,149.84,18.26Z"/>
			<path class="cls-1" d="M200.28,172.72h3.1c.72,0,1.26.23,1.26,1.06s-.47,1-1.13,1q-3.36,0-6.72,0a1,1,0,0,1-1.08-1c0-.72.47-1,1.13-1Z"/>
			<path class="cls-1" d="M194.62,185.17h-3.27c-.65,0-1.15-.23-1.18-1s.46-1.11,1.2-1.11h6.55c.65,0,1.15.23,1.18,1s-.46,1.11-1.2,1.11Z"/>
			<path class="cls-1" d="M199.85,149.91a12.83,12.83,0,0,1,1.35.69c.44.3.4.69,0,1a3.11,3.11,0,0,1-2.66.21,1.5,1.5,0,0,1-1.14-1.69c0-.56-.28-1.13-.25-1.68.06-.86.29-1.69,1.48-1a2.46,2.46,0,0,0,.95.34c.73.08,1.7-.07,1.87.82S200.42,149.28,199.85,149.91Z"/>
			<path class="cls-1" d="M200.18,165.83c-1.08,0-2.17-.06-3.25-.17a.82.82,0,0,1-.83-.73.8.8,0,0,1,.81-.75,33.88,33.88,0,0,1,6.51,0c.37,0,.84.25.83.73s-.55.77-1,.8c-1,.07-2.06,0-3.09,0Z"/>
			<path class="cls-1" d="M200.32,163.34c-.92,0-1.84,0-2.76,0a.84.84,0,1,1,0-1.66c1.9,0,3.8,0,5.69,0,.42,0,1,.23,1,.79s-.56.76-1,.79c-1,.07-2,0-2.93,0Z"/>
			<path class="cls-1" d="M201.49,136.37c.94.16,2.64-.49,2.62.92,0,1.17-1.68.77-2.65.76-1.2,0-2.2,0-2.05,1.64,0,.44-.2,1.18-.87,1s-.41-.8-.26-1.28a3.44,3.44,0,0,0,.3-1C198.52,136.35,199.74,136,201.49,136.37Z"/>
			<path class="cls-1" d="M201.56,135.71c-.77-.32-2.21.51-2.21-.85,0-1.11,1.34-1,2.24-.93s2.56-.36,2.54.87S202.48,135.46,201.56,135.71Z"/>
			<path class="cls-1" d="M202.92,185.18c-.74,0-1.63.1-1.66-1s.91-1.09,1.71-1.09,1.62-.11,1.66,1S203.71,185.16,202.92,185.18Z"/>
			<path class="cls-1" d="M203.1,132.55c-.68-.11-1.39-.16-1.44-.83s.67-.85,1.22-.88,1.27.12,1.33.78S203.48,132.3,203.1,132.55Z"/>
			<path class="cls-1" d="M201.08,98.29a.69.69,0,0,1-.74.6c-.44,0-.79-.25-.74-.74a.53.53,0,0,1,.6-.48C200.59,97.73,201,97.84,201.08,98.29Z"/>
			<path class="cls-1" d="M197.74,142.31c.43,0,.64.14.64.46a.75.75,0,0,1-.71.79.45.45,0,0,1-.55-.46A.74.74,0,0,1,197.74,142.31Z"/>
			<path class="cls-30" d="M162.79,85.4l-.66.74c-.89.14-1.16-.63-1.54-1.13a16.23,16.23,0,0,0-3.34-3.24c-2.23-1.67-3.56-1.16-4.16,1.51s.12,5.15.28,7.73c.05.9.51,1.79.06,2.71l-1.41.7a9.69,9.69,0,0,1-2.41-2.69,26,26,0,0,0-4.45-4.58c-2-1.59-3.63-1-4.18,1.48a27.73,27.73,0,0,0-.66,5.83c0,.5.06,1.2-.55,1.31s-.8-.57-1-1a32.26,32.26,0,0,0-2.21-4.88c-.48-.84-1-1.81-2.19-1.72s-1.45,1.18-1.8,2.09a21.11,21.11,0,0,0-.84,3.35c-.12.55,0,1.18-.59,1.56l-.65,0c-.83-1.34-.94-2.93-1.52-4.36-.74-1.83-1.56-3.56-3.58-4.34a16.85,16.85,0,0,1-1.25-7.68c.86-4,3.62-6.23,7.15-7.5a12.8,12.8,0,0,1,13,2.32c.34.27.6.71,1.29.68a20.55,20.55,0,0,1,.79-3.28c1.2-3.36,3.66-4.79,7.06-3.74a25.56,25.56,0,0,1,10.94,7.3.51.51,0,0,1,.07.63c-1.81.79-2.21,2.3-2.06,4.07a20.47,20.47,0,0,0,.57,4.22A2.22,2.22,0,0,1,162.79,85.4Z"/>
			<path class="cls-31" d="M109.79,66.78A192.14,192.14,0,0,0,158.68,52c.42-.19.85-.34,1.28-.51.84,0,1,.68,1.18,1.27A57.75,57.75,0,0,1,162.5,70a1.49,1.49,0,0,1-.32.79c-.83.57-1.41-.07-2-.45a36.81,36.81,0,0,0-5.36-3.15c-4.41-1.84-7.42-.44-8.83,4.09-.63,2-1,2.16-2.91,1-5.93-3.72-12.82-2.92-17.12,2-1,1.19-1.57,2.68-2.5,3.93-1,.57-1.63-.13-2.28-.66-3.16-2.57-6.24-5.24-9.3-7.91-.65-.57-1.33-1.09-2-1.64C109.52,67.63,109,67.24,109.79,66.78Z"/>
			<path class="cls-32" d="M109.79,66.78c-.26.38-.05.54.26.8q5.72,4.78,11.4,9.62a2.85,2.85,0,0,0,1.78.92c.38.61.09,1.22,0,1.81a25.16,25.16,0,0,0-.27,8.3A3.3,3.3,0,0,1,121.16,91a10.77,10.77,0,0,1-2.76-1.74,6.34,6.34,0,0,1-.81-2.44,10.78,10.78,0,0,0-1.93-4.58c-1.49-2-3.33-2.3-5.38-.89-.46.32-.83.83-1.5.75a67.65,67.65,0,0,1-9.7-9c-.95-1-1.87-2-2.8-3-.38-.42-1-.85-.84-1.41s1-.42,1.54-.43A113.74,113.74,0,0,0,109.79,66.78Z"/>
			<path class="cls-33" d="M161.71,70.91c.11-.19.31-.38.32-.58a64,64,0,0,0-1.44-17.89,3.67,3.67,0,0,0-.63-1c5.37-2.61,10.67-5.35,16.13-8.43a101.75,101.75,0,0,1-3.29,20.63c-1.24.44-2.49,0-3.73.05-2.62.14-3.72,1.56-3,4.11a14.5,14.5,0,0,0,2.42,4.72,5.17,5.17,0,0,1,.89,1.84l-.72,1.41c-1,.42-1.84-.1-2.71-.45C164.45,73.91,162.72,72.75,161.71,70.91Z"/>
			<path class="cls-34" d="M150.61,95a25.4,25.4,0,0,1-9.35,1.78c-1.36-1.64-.71-8.58.93-9.73a1.92,1.92,0,0,1,2.29,0,22.57,22.57,0,0,1,6.21,6.65A1,1,0,0,1,150.61,95Z"/>
			<path class="cls-35" d="M161.39,87.18a23.06,23.06,0,0,1-6.94,5.88c-.84-.56-.73-1.49-.88-2.31a28.37,28.37,0,0,1-.22-7.2c.13-2.11,1.55-2.9,3.33-1.8A9.94,9.94,0,0,1,161.39,87.18Z"/>
			<path class="cls-36" d="M172.42,65a65.39,65.39,0,0,1-2.47,7.9.66.66,0,0,1-1-.14c-1.39-1.77-2.73-3.58-2.79-6,0-1.57.63-2.46,2.17-2.55C169.69,64.2,171.28,63.54,172.42,65Z"/>
			<path class="cls-37" d="M132.24,95.5a17.56,17.56,0,0,1,1.32-5.63c.5-1.22,1.26-1.3,2-.29A19.63,19.63,0,0,1,138.4,96c.14.47-.29.54-.6.67A18.47,18.47,0,0,1,132.24,95.5Z"/>
			<path class="cls-38" d="M128.84,94.48a24.73,24.73,0,0,1-6.64-3.13,5.41,5.41,0,0,1,2.41-3.42,2,2,0,0,1,3,.52,14.22,14.22,0,0,1,2.07,5.07C129.81,94.09,129.82,94.78,128.84,94.48Z"/>
			<path class="cls-39" d="M116.74,88.23a53,53,0,0,1-7-5.23,3.18,3.18,0,0,1,4.39-1.79c1.56.87,3.45,4.46,3.24,6.19C117.36,87.79,117.3,88.22,116.74,88.23Z"/>
			<path class="cls-36" d="M168,77.12A41.36,41.36,0,0,1,164.08,84a.62.62,0,0,1-.7-.38,9.62,9.62,0,0,1-.53-6.21C163.37,75.5,166.32,75.4,168,77.12Z"/>
			<path class="cls-1" d="M187.24,193.93c.78-1.07.67-2.41,1-3.66.2-.81,1.5-.81,1.58-.2.18,1.58,1.37,3,.7,4.7-.31.78-.61,1.71-1.8,1.42S187.6,194.89,187.24,193.93Z"/>
			<path class="cls-40" d="M98.68,53.14c-4.69-3.26-7.74-7.55-8.35-13.36A12,12,0,0,1,96.9,30.1c.65-.35,1.37-.68,2.09-.09a6.1,6.1,0,0,0,.86,3.08,7.54,7.54,0,0,0-6.38,7.46c-.21,4.8,1.87,8.3,5.75,10.88.38.25.83.4,1,.89C99.84,52.88,98.88,52.32,98.68,53.14Z"/>
			<path class="cls-41" d="M107.63,30.93c-.07.91.6,1.3,1.22,1.72a8.61,8.61,0,0,1,3.28,3.9,12.79,12.79,0,0,1,.2,9,8.07,8.07,0,0,1-.38.76c-.82-1.17,0-2.34-.77-3.16-.27-3.5-2.15-6.07-4.74-8.22l-.91-.77A6.06,6.06,0,0,0,107.63,30.93Z"/>
			<path class="cls-42" d="M99,30c-2.93.23-4.63,2.24-6.27,4.35C91.46,36,91.27,38,90.33,39.78h0a13.3,13.3,0,0,1,0-3.87c.44-5.44,4.94-9.41,10.15-8.78A6.93,6.93,0,0,0,99,30Z"/>
			<path class="cls-40" d="M90.33,35.89q0,1.94,0,3.87A6.18,6.18,0,0,1,90.33,35.89Z"/>
			<path class="cls-24" d="M132,14.34c2.85,1.67,4.52,1.34,6.54-1.28a1.15,1.15,0,0,1,1.29-.06c4.27,1.67,7.26,4.48,8.11,9.17a6.58,6.58,0,0,1-.38,3.23,11.71,11.71,0,0,1-3,2.77,1.92,1.92,0,0,1-.47.07,2.05,2.05,0,0,0-2.33.89,1.67,1.67,0,0,1-.56.43,2.3,2.3,0,0,1-1.68-.13c.48.41,1.1.13,1.59.39a.48.48,0,0,1,.26.43.66.66,0,0,1-.36.39c-6.47,1.11-13.19-5.26-12.24-11.72C129.09,17,129.66,14.94,132,14.34Z"/>
			<path class="cls-24" d="M139.67,24.2s-3.43,3.67-3.24,4.29a18.74,18.74,0,0,0,2.43,3.19c.34.34,2.58.54,3.68.49s4.58-.76,5-1.77,2-3.29,1.34-4.48a4.39,4.39,0,0,0-3.2-2.39C144.16,23.29,139.67,24.2,139.67,24.2Z"/>
			<path class="cls-43" d="M132,14.34c-3.68,2.92-3.89,8.21-.48,12a11.35,11.35,0,0,0,9.77,4c.59.05.52.35.27.72-1,.81-2.55.54-3.42,1.64a17.61,17.61,0,0,1-10.72-7.56c-1.58-3.5-.76-6.82.77-10.07a3.85,3.85,0,0,1,2.7-2.42Z"/>
			<path class="cls-44" d="M130.92,12.68c-3.16,2.59-3.92,6.07-3.87,9.94,0,.91,1,1.6.4,2.56a11.45,11.45,0,0,1-2.19-9.53c.7-3.17,2.73-5.19,5.91-6.37A7.73,7.73,0,0,0,130.92,12.68Z"/>
			<path class="cls-45" d="M147.15,25.59c.65-1.13.25-2.38.4-3.56a7.22,7.22,0,0,0-.49-4.6c-1.3-2.59-3-4.69-6-5.46a4.75,4.75,0,0,1-2.15-1l-.48-1.87c5.17,1.6,9,4.43,11.39,9.17-.42.82,0,1.67-.09,2.48-.25,3.07-1,6-3.42,8.18a3.43,3.43,0,0,1-.91.41c-1.07-.43-.55-1.05-.12-1.54A21.91,21.91,0,0,0,147.15,25.59Z"/>
			<path class="cls-46" d="M138.93,11c4.25.41,8.43,4,9.14,8.14.17.95.4,2.09-.52,2.93-1.12-4.86-4.32-7.64-9-9Z"/>
			<path class="cls-30" d="M165.9,75l-1.44,0c-2.87-2.49-5.66-5.07-9.21-6.62a9.53,9.53,0,0,0-3.47-.93,4.45,4.45,0,0,0-4.7,3,12.45,12.45,0,0,0-1,3.82c0,.33.12.76-.24.94s-.71-.25-1-.51a12.7,12.7,0,0,0-9.84-3.77A11.81,11.81,0,0,0,125,77.2a5.25,5.25,0,0,0-.37,1.31,24,24,0,0,0-.86,6.43,5.09,5.09,0,0,1-.44,2.68,1.36,1.36,0,0,1-.76.91,19.36,19.36,0,0,1,.65-10.4,12.36,12.36,0,0,1,9.37-8.3c4.61-1,8.62.33,12.23,3.08.66-.67.61-1.48.83-2.18,1.36-4.22,4.47-5.77,8.64-4.22a34.22,34.22,0,0,1,7.39,4.4A36.74,36.74,0,0,1,165.9,75Z"/>
			<path class="cls-47" d="M123.35,87.61a21.86,21.86,0,0,1,.5-7.45,3,3,0,0,1,.81-1.66,29.36,29.36,0,0,0,1,7.89C124.67,86.37,124.11,87.19,123.35,87.61Z"/>
			<ellipse class="cls-25" cx="142.35" cy="28.73" rx="3.63" ry="2.73"/>
			<path class="cls-48" d="M114.9,98.12s14.28,14.78,40.09,7c0,0-2.28,31.51-14.34,40.94-9.68,7.57-17.12,5.89-18.87-8.39s-20.18-48-20.18-48S112.65,96.36,114.9,98.12Z"/>
			<path class="cls-49" d="M121.81,168.92s17,13.76,36.25,11c0,0-18.81,28-29.36,33,0,0-16.52-11.93-18.81-24.32C109.88,188.64,120,181.76,121.81,168.92Z"/>
			<path class="cls-49" d="M97.49,192.77H89.24s-19.73,4.59-18.81,24.32c0,0,6.88,11,33.49,1.84C103.92,218.93,93.82,206.08,97.49,192.77Z"/>
			<path class="cls-50" d="M21.25,190.26S13,201,24.8,205.52s32.9,6.86,32.9,6.86,3.79-20.35,27-24.85C84.68,187.54,56.28,174.75,21.25,190.26Z"/>
			<path class="cls-51" d="M33.3,154.75S58,155,64,163.19L49.52,173.57S16,170.92,2.89,195.82C2.89,195.82,12.1,161.46,33.3,154.75Z"/>
			<path class="cls-1" d="M200.7,111c0-5-.54-29.46-.54-29.46S193.47,70,192.32,67.09s-5.46-7.62-5.46-7.62l7.26,19.12c.13,88.31-60.21,80.61-67.24,80.41-1,.4,0-.6-1.07-.21h0a23.66,23.66,0,0,0,13.65,5.39c4.9.31,6.35,1.29,6.71,2.05a1,1,0,0,1-.06,1l22.46-1.44,14.73-9.7L186,153.7c2.81-2.51,7.18-6.44,10.16-9.27,1.92-1.83,3.26-3.21,3.22-3.45C199.26,140.13,200.7,116.05,200.7,111Z"/>
			<path class="cls-52" d="M115.58,27l-32-.18s4.5-8.28,7.45-9.64a18.29,18.29,0,0,1,17.73,1.42C112.4,21.16,115.58,22.87,115.58,27Z"/>
			<path class="cls-52" d="M121.84.86s-14,5.23-7.24,21.34l2.65,3.87L130.93.21A25.69,25.69,0,0,0,121.84.86Z"/>
			<path class="cls-1" d="M86.3,24.73"/>
			<path class="cls-21" d="M116.34,22.27S107.61,4.81,126.63,1.58C126.63,1.58,113.35,11.27,116.34,22.27Z"/>
			<path class="cls-21" d="M85.87,25.62s3-10.48,14-9c0,0-4.85,4.29-5.07,9.15Z"/>
		</g>
	</g>
</svg>