<svg xmlns="http://www.w3.org/2000/svg" viewBox="0 0 82.62 100.5"><defs><style>.cls-1{fill:#fd818b;}.cls-2{fill:#d66d79;}.cls-3{fill:#ddebeb;}.cls-4{fill:#fc929e;}.cls-5{fill:#fb8f9c;}.cls-6{fill:#fb999a;}.cls-7{fill:#fb9a9b;}.cls-8{fill:#faa199;}.cls-9{fill:#fb9f99;}.cls-10{fill:#fb989a;}.cls-11{fill:#fba099;}.cls-12{fill:#fc828c;}.cls-13{fill:#fc818b;}.cls-14{fill:#fcbcb5;}.cls-15{fill:#fd828c;}.cls-16{fill:#fbb7b7;}.cls-17{fill:#fb818b;}.cls-18{fill:#fbc0b5;}.cls-19{fill:#fbbcb6;}.cls-20{fill:#f7c9b5;}.cls-21{fill:#f8cab5;}.cls-22{fill:#deebeb;}.cls-23{fill:#c7dede;}.cls-24{fill:#231f20;}.cls-25,.cls-26{fill:#fafbfb;}.cls-25{opacity:0.3;}.cls-27{fill:#522016;}.cls-28{fill:#fbfcfc;}.cls-29{fill:#29201f;}.cls-30{fill:#f98391;}.cls-31{fill:#590a17;}.cls-32{fill:#902232;}.cls-33{fill:#902231;}.cls-34{fill:#eee;}.cls-35{fill:#f0f0f0;}.cls-36{fill:#f5f5f5;}.cls-37{fill:#efefef;}.cls-38{fill:#eaeae9;}.cls-39{fill:#edecec;}.cls-40{fill:#642111;}.cls-41{fill:#7c270c;}.cls-42{fill:#272020;}.cls-43{fill:#6a2110;}.cls-44{fill:#31201e;}.cls-45{fill:#572115;}.cls-46{fill:#7d260b;}.cls-47{fill:#ed505d;}.cls-48{fill:#fdc2c2;}.cls-49{fill:#fdbcc4;}.cls-50{fill:#fdc2c3;}.cls-51{fill:#fdc5c2;}.cls-52{fill:#fbb4ad;}</style></defs><title>fish0</title><g id="Layer_2" data-name="Layer 2"><g id="Layer_1-2" data-name="Layer 1"><path class="cls-1" d="M21.09,42.63s-5.6,6.89-.17,11.2a22.71,22.71,0,0,0,11.63,4.65l6.38,8L38.16,70a24.72,24.72,0,0,1-4.22,3.45c-1.55.78-.6,1.9-.6,1.9l7.09-4.19a15.62,15.62,0,0,0,4.72-16.41c-2.93-10.51,9.57-8.53,9.57-8.53l21.37,4.39,3.45,6.81L71.33,77.88l.52,6.81-1.37,1.47L35.57,98.48l-1.21,1.81-2.07-.09L5.24,88l-.69.34L3,86.4,4.64,68.31l7-3.71L8.19,61.74,6.44,54.53l.09-3.19,1-1.46s7-4,7.5-5.95A10.87,10.87,0,0,1,16,41.26l4.22-1.72S23,37.72,21.09,42.63Z"/><path class="cls-2" d="M62.33,11.39s-.1.57-.23,1.29a27.39,27.39,0,0,1-.66,3.1c-.16.2-10.88,6.3-10.88,6.3l-8.05,2.64-2.6.85-3.33-.33s-2-2.05-3-3.35a6.85,6.85,0,0,1-.41-.59,1.71,1.71,0,0,1-.11-.21c-.39-.91-1.3-5.2-1.33-5.33h0a9.17,9.17,0,0,1,1.43-7.13C35.35,5.79,39,5.09,40.24,4.71l.33-.11c.46-.2,2.39-1.3,4-2.23L46.9,1,50.22.08h0l.1,0h0c.77-.11,4.2-.3,7.89,3.91.42.48.79.93,1.13,1.37l.24.31C62.43,9.37,62.33,11.39,62.33,11.39Z"/><path class="cls-3" d="M63.09,15.5s-8.83,6.28-10.79,7.4-6,1.7-8.19,1.8c-.46,0-1,0-1.59,0-2.23,0-5-.2-5.75-.2s-2.39-1.74-3.15-2.62a3.63,3.63,0,0,1-.39-.5l0-.09c-.14-.65-.94-4.43-.94-4.43l-.49-1.12h0a9.17,9.17,0,0,1,1.43-7.13l.88-.76,4.7-2.27,1.47-.88,3.11-1.86,1.21-.49L50.22.08h0l.1,0h0c.77-.11,4.2-.3,7.89,3.91l.5.88.63.49.18.14.06.17,2.46,7Z"/><path class="cls-4" d="M33.06,8.64c.2-.67.8-1,1.25-1.47.19-.2.41-.38.62-.57s.47-.38.79-.42a6.89,6.89,0,0,1,1.45-.29c2.56-.31,4.57.84,6.53,2.54A11.26,11.26,0,0,1,43.24,6a6,6,0,0,1,2.38-5A3.3,3.3,0,0,0,46,.65c.19-.19.45-.15.68-.19,0,0,.36.07.08-.14C47.89.25,49-.18,50.22.08a.69.69,0,0,1-.56.3C45.87.9,43.8,4.43,45.25,8.3a9.41,9.41,0,0,0,7.64,6.3,6.17,6.17,0,0,0,5.23-1.3c.29-.25.5-.56.76-.82s.24-.39.52-.3c.22.6-.21,1-.54,1.32a6.36,6.36,0,0,1-4.42,2,10.52,10.52,0,0,1-7.69-2.88l-.34-.31A.89.89,0,0,0,46,12a11.8,11.8,0,0,1,.7,2.5,16.25,16.25,0,0,1-.13,2.71.25.25,0,0,1-.25.26c-.27-.27-.17-.62-.18-.94a9.94,9.94,0,0,0-5.73-9.14,6,6,0,0,0-6.83.91C33.46,8.49,33.32,8.67,33.06,8.64Z"/><path class="cls-5" d="M41.18,74.74a11.72,11.72,0,0,1-.41-3.33A.92.92,0,0,1,41,70.7a12.82,12.82,0,0,0,3.22-4.54,17.1,17.1,0,0,0,1.3-5.63c.43,0,.61.31.84.55a20.55,20.55,0,0,0,5.22,4,13.77,13.77,0,0,0,8,1.48,20.44,20.44,0,0,0,6.12-1.67A22.48,22.48,0,0,0,71,61.5a21.55,21.55,0,0,0,3.51-4c.16-.23.33-.61.63-.48s.21.54.16.84a33.37,33.37,0,0,1-2.07,7.73c-.51,1.18-1.15,2.29-1.75,3.43a64.75,64.75,0,0,1-5.31,8.48,45.06,45.06,0,0,1-8.68,8.9,1.63,1.63,0,0,1-1.24.36,16.79,16.79,0,0,1-8.06-3.15,22.51,22.51,0,0,1-5.93-6.62C41.83,76.24,41.67,75.41,41.18,74.74Z"/><path class="cls-6" d="M48.07,60.14a5.62,5.62,0,0,1-2.8-4.35,21.4,21.4,0,0,0-1.64-6l-1-2.64c.15-.08.25,0,.4.1a2.12,2.12,0,0,1,1.08-1.89.67.67,0,0,0,.34-.46,2,2,0,0,1,.82-1.38.77.77,0,0,0,.32-.49c.07-.49.48-.74.69-1.09a15.39,15.39,0,0,1,1.46-1.71,1.19,1.19,0,0,0,.17-.63.76.76,0,0,1,.44-.69.61.61,0,0,0,.37-.51c.08-.54.37-.83.92-.76.15-.34-.42-.45-.18-.78a1.83,1.83,0,0,1,1.16.16,11.29,11.29,0,0,0,6.41.1A10.74,10.74,0,0,0,62,33.91c2.53-2.8,3.79-6.19,4.69-9.75a48.06,48.06,0,0,0,1.17-7.66c0-.24,0-.5.23-.66.42-.12.55.21.69.47a32.74,32.74,0,0,1,2.1,4A38.43,38.43,0,0,1,72.79,25a10,10,0,0,0,1.05,3.77A1.8,1.8,0,0,1,73,31c-.32.19-.53.36-.52.75a.62.62,0,0,1-.16.36c-.67.86-1,1.94-1.73,2.77A5,5,0,0,0,69.9,36a1,1,0,0,1-.5.51.72.72,0,0,0-.4.33,15.41,15.41,0,0,1-1.29,1.89c-.69,1-1.25,2-1.87,3-.18.28-.31.58-.67.69s-.31.35-.35.59a1.35,1.35,0,0,1-.6,1.05.91.91,0,0,0-.36.54,2,2,0,0,1-1,1.29.66.66,0,0,0-.27.36,4.94,4.94,0,0,1-1.46,2.27.85.85,0,0,0-.31.42,9.69,9.69,0,0,1-1.54,2.45A13.42,13.42,0,0,1,58,53.31a1.77,1.77,0,0,0-.39.69,1.44,1.44,0,0,1-.3.59,20.18,20.18,0,0,0-2.21,3.19,18.37,18.37,0,0,1-1.22,1.53,4.84,4.84,0,0,0-1.07,1.87c-.17.64-.47.82-1.07.59A31.12,31.12,0,0,1,48.07,60.14Z"/><path class="cls-6" d="M71.21,29.32s-8.75,7.12-9.56,8.21S56,45.26,54.46,48.85s-1.9,6-1.36,7.19,5.49,3.73,7.53,3.73,11.53-3.39,13.7-11.06S77.47,38.86,76.68,36,71.21,29.32,71.21,29.32Z"/><path class="cls-7" d="M34.13,72.23l.43.22a10,10,0,0,0-2,.29,11.67,11.67,0,0,0-6.2,4.48l-.56.73a13.23,13.23,0,0,0-2.87,8.43,18.58,18.58,0,0,0,1.26,6,17,17,0,0,0,.7,1.86.58.58,0,0,1,0,.69c-.19.21-.45.14-.69.08a57.87,57.87,0,0,1-10.38-3.62c-2.12-.94-4.25-1.87-6.35-2.85-3.09-1.44-4.24-4.17-3.93-7.33a12.49,12.49,0,0,1,3.58-7.15c-.4.23-.8.5-1.23.73-.17.1-.41.34-.56-.05a11.52,11.52,0,0,1,4.06-3,25.11,25.11,0,0,1,9.5-2.22c1.62-.09,3.21,0,4.82,0a.48.48,0,0,1,.37.12c-.27.27-.62.19-.94.2a44.08,44.08,0,0,0-6.16.24,21.68,21.68,0,0,0-8.2,2.67A27.19,27.19,0,0,1,17,70.42a36,36,0,0,1,10.9.24,31.68,31.68,0,0,1,6,1.55A.43.43,0,0,0,34.13,72.23Z"/><path class="cls-5" d="M26.56,77.54A10.51,10.51,0,0,1,32.95,73a7,7,0,0,1,2.22-.2,7.12,7.12,0,0,0,4.14-.8c.31.13.3.42.3.68a15.45,15.45,0,0,0,1.75,7,13.87,13.87,0,0,0,1.29,2,1.26,1.26,0,0,1,.13.17A21.88,21.88,0,0,0,52.37,89a4.94,4.94,0,0,1,.5.19c.43.22.48.5.13.82a7.66,7.66,0,0,1-.93.64,31.85,31.85,0,0,1-11.82,5,34.89,34.89,0,0,1-8.84.58,4,4,0,0,1-3.17-1.78,15.84,15.84,0,0,1-3.41-11.41A13,13,0,0,1,26.56,77.54Z"/><path class="cls-6" d="M76.4,50.57a24.32,24.32,0,0,1-.72,3.5,2.24,2.24,0,0,1-.42.81,2.89,2.89,0,0,1-.27.3,9.24,9.24,0,0,1-.75.7l-.13.13a21,21,0,0,1-2.69,2.37A23.62,23.62,0,0,1,68.94,60a23,23,0,0,1-9.81,3.14,18.79,18.79,0,0,1-2.75,0,18.52,18.52,0,0,1-6.79-1.92c-.16-.08-.29-.2-.45-.28a2.83,2.83,0,0,1-1.07-.8,5.11,5.11,0,0,1,.64.17c.87.3,1.67.79,2.55,1.08.25.08.49.2.74.29s.65,0,.64-.36c0-.58.35-.9.64-1.29a1.26,1.26,0,0,0,.24-.54c0-.25.07-.42.36-.45a.46.46,0,0,0,.32-.21,10.7,10.7,0,0,1,.9-1.42h0c12.63-7,16.21-17.5,17-25.13a.92.92,0,0,0,.07-.21c0-.24.29-.42.15-.72s.09-.26.27-.33a1.68,1.68,0,0,0,1-2.42,9.64,9.64,0,0,1-.83-2.07,13.61,13.61,0,0,1-.09-1.48c.37,0,.43.34.53.59a57.44,57.44,0,0,1,3.19,12.9c.19,1.52.31,3.07.35,4.62A51.66,51.66,0,0,1,76.4,50.57Z"/><path class="cls-8" d="M49.41,36.89a1.41,1.41,0,0,1,.34.31c.09.17.34.31.25.5s-.36.13-.54.1c-.52-.11-.54.28-.57.59s-.06.6-.48.64-.32.3-.33.56a1.42,1.42,0,0,1-.74,1.29c-.36.2-.68.39-.61.89a.34.34,0,0,1-.26.35c-.6.05-.67.45-.68.92a.46.46,0,0,1-.14.29,2.42,2.42,0,0,0-1.08,1.86c0,.17-.27.2-.4.31-.55.44-1.13.87-.89,1.72a.25.25,0,0,1-.13.33c-.13,0-.19-.07-.24-.17a.48.48,0,0,0-.28-.26c-.68-1.41-1.36-2.81-2-4.23C39.71,41,38.85,39,38,37.11a87.74,87.74,0,0,1-4.74-12.33,7,7,0,0,0-.36-2.19c-.26-1.17-.2-2.37-.35-3.54a.53.53,0,0,1,.29-.61,11.11,11.11,0,0,0,4,4A6.34,6.34,0,0,0,44,22.14a6.92,6.92,0,0,0,2.37-4.66,8.39,8.39,0,0,0-.47-5.28c-.07-.16-.32-.37-.09-.51s.38.14.53.29a10.18,10.18,0,0,0,8.35,3.35,5.73,5.73,0,0,0,4.42-2.45,1,1,0,0,0,.23-.74c1.32-2.58.81-5-.57-7.4.31,0,.47.21.66.37a14.46,14.46,0,0,1,2.31,2,36.67,36.67,0,0,1,6,7.54c.2.32.52.65.16,1.07a26.86,26.86,0,0,1-3.43,2,75.66,75.66,0,0,1-10.1,4.37,70.83,70.83,0,0,1-13.12,3.25c-1.77.26-3.55.36-5.39.56a7.44,7.44,0,0,0,1.23,1.49,39.72,39.72,0,0,0,9.14,7.72c.83.47,1.68.88,2.55,1.28C49,36.54,49.32,36.59,49.41,36.89Z"/><path class="cls-6" d="M49.41,36.89l-3-1.32s-.55,5.89-5.13,8.58l2.06,4.67s5.84,1.35,7-1.22,3.87-7.36,3.87-7.69S51.45,37.66,49.41,36.89Z"/><path class="cls-9" d="M.53,81.38A12.77,12.77,0,0,1,.56,74,13.57,13.57,0,0,1,2,70.48c.25.3.08.61-.05.86a17.37,17.37,0,0,0-1.6,6.19c-.06.54.09,1.05.06,1.58a16.71,16.71,0,0,1,.73-4A32.74,32.74,0,0,1,2.5,71.25a35.2,35.2,0,0,1,1.94-3.69,23.82,23.82,0,0,1,2.5-3.34A27.54,27.54,0,0,1,9.82,61.3c1-.92,2.16-1.74,3.23-2.59-.4,0-.78.41-1.23.1a4.11,4.11,0,0,1,1.71-1.48c.3.3.6.13.89,0s.79-.4,1.23-.14c0,.54-.51.48-.79.69a1.47,1.47,0,0,0-.79.41,2.91,2.91,0,0,0,1.29,0A19.47,19.47,0,0,1,24,60a24.32,24.32,0,0,1,6.88,4.55c1,.95,1,1.08-.18,1.76a46.44,46.44,0,0,1-6.27,3c-1.08,0-2.15-.15-3.23-.15-1.76,0-3.52.13-5.27.29a17.87,17.87,0,0,0-6,1.27,14,14,0,0,0-4.87,3.14,15.28,15.28,0,0,0-3.59,5.52A12.82,12.82,0,0,0,.89,81C.85,81.16.81,81.4.53,81.38Z"/><path class="cls-1" d="M55.92,96.4a36,36,0,0,1-7,2.52,19.1,19.1,0,0,1-3.35.67,3.64,3.64,0,0,0-2-.17,2.06,2.06,0,0,1-.86,0,1.88,1.88,0,0,0-1.23.15,1.58,1.58,0,0,1-1.23.1,3.69,3.69,0,0,0-2.91.26,2.29,2.29,0,0,1-2.76-.24.67.67,0,0,0-.55-.21c-.62.15-1.15-.21-1.73-.23-.27,0-.54-.19-.54-.41,0-.55-.33-.42-.66-.51a2.15,2.15,0,0,1-1.43-1.1,1.94,1.94,0,0,0-.3-.51c-.14-.15-.28-.31-.12-.52a.47.47,0,0,1,.54-.15,16.94,16.94,0,0,0,4,.28,25.62,25.62,0,0,0,4.69-.27,1.37,1.37,0,0,1,.89.15c.39.19.79.29,1-.31s.56-.25.82-.08a1.64,1.64,0,0,0,1.37.3c.33-.08.59-.17.71-.51a1.84,1.84,0,0,1,.12-.24c.43-.79.92-.86,1.62-.11-.14-.4-.31-.71.09-.91a1.59,1.59,0,0,1,.94-.27,4.37,4.37,0,0,0,1.12.13c.25,0,.44-.11.27-.43s0-.64.43-.66a.82.82,0,0,0,.72-.38.25.25,0,0,1,.15-.13,4.71,4.71,0,0,0,1.78-.95c.27-.16.54-.24.68.18a.32.32,0,0,0,.44.19.37.37,0,0,0,.28-.46c-.22-.75.16-1,.8-1.24.38-.11.52-.6.94-.61a.52.52,0,0,0-.12-.36c-.09-.18-.21-.36-.07-.56a.59.59,0,0,1,.66-.2c.3.08.61.13.91.19a11.86,11.86,0,0,0,3.49,0,7.42,7.42,0,0,1,1.72,0,3.72,3.72,0,0,0,1.76-.12,2,2,0,0,1,1.6.47c.26.15.47.33.78.13s.31-.41.13-.73.11-.37.3-.4a11.45,11.45,0,0,0,1.79-.47.78.78,0,0,1,.69.14c.42.27.4.63,0,.85a5.48,5.48,0,0,1-.67.29.82.82,0,0,0-.67.83c0,.48-.77,1-1.41,1s-.9,0-1,.7c-.1.46-.78.56-1.14.93a2.13,2.13,0,0,1-1,.52c-.56.13-1.08.18-1.23.93-.08.37-.59.47-1,.33-.54-.21-.84-.06-1,.49a.59.59,0,0,1-.71.45c-1-.06-1-.05-1.24.88A.8.8,0,0,1,55.92,96.4Z"/><path class="cls-1" d="M82.51,55.34a47,47,0,0,0-.45-5.85,72.3,72.3,0,0,0-1.65-8.53A82.54,82.54,0,0,0,77,30.42a22.6,22.6,0,0,0-1.78-3.9,19.72,19.72,0,0,1-1-1.78c-.41-.95-1.05-1.79-1.54-2.72a6.61,6.61,0,0,1-.85-1.64c-.06-.26-.15-.61-.42-.61s-.39.36-.4.65a.21.21,0,0,0,0,.06,9.14,9.14,0,0,1,1.34,3.07,1.78,1.78,0,0,0,.77,1.2,1,1,0,0,1,.47,1.12,1.9,1.9,0,0,0,.28,1.65,12.23,12.23,0,0,0,1.28,1.34c-.74.39-.79.5-.54,1.26.06.19.1.38.15.58.23,1,.37,1.13,1.43,1.13.21,0,.47-.1.58.18a3.52,3.52,0,0,1,.07,2,2.73,2.73,0,0,1-.32-1.54.63.63,0,0,0-.76-.63c-.47,0-.47.34-.48.7,0,.74.43,1.34.54,2a.64.64,0,0,0,.8.59,3.9,3.9,0,0,1,.54,0c-.35,0-.86-.06-.89.48,0,.21.13.31.31.37v.55a.32.32,0,0,0,0,.14.39.39,0,0,0,0,.18v.47h.47c.51.34,1.26.64,1.58.84a.61.61,0,0,1,.32.61,4.82,4.82,0,0,0,.33,2.33c.06.14.11.29-.08.4a2.17,2.17,0,0,1-1.42-.07,1,1,0,0,1-.2-1.16,1.38,1.38,0,0,0,.12-.71c0-.62-.41-1.13-.8-1-.61.14-.48.68-.44,1.09a29.28,29.28,0,0,1,.24,6.2,1.59,1.59,0,0,0,0,.53c.06.3.2.58.53.6s.86.14,1.19-.19a.48.48,0,0,0-.07-.76,1.37,1.37,0,0,0-.42-.19c-.39-.16-.4-.51-.38-.84s.35-.34.6-.36.62,0,.93,0,.55-.21.54-.56-.23-.5-.57-.52-.43,0-.56,0a7.23,7.23,0,0,1,.78,0c.28,0,.6,0,.77.32.32.54,0,1.13.07,1.69,0,.37-.38.29-.61.38a.53.53,0,0,0-.37.56.5.5,0,0,0,.54.48h.21a1.08,1.08,0,0,0-.56.12,1.12,1.12,0,0,1-1.07,0,1.18,1.18,0,0,0-1.6.91,14.66,14.66,0,0,1-.29,2.23.42.42,0,0,0,.25.5c.15.08.38.08.42,0,.2-.56.66-.64,1.15-.74.27-.06.4-.34.47-.6s.2-.45.49-.45A10.41,10.41,0,0,1,81,49c-.47.17-.84.05-1.17.17s-.47.19-.43.5a.48.48,0,0,0,.47.4l.27,0H80c-.31,0-.61.09-.63.45s.31.44.6.5a2.34,2.34,0,0,0,.6,0c.38,0,.51.16.62.52a11.94,11.94,0,0,1,.1,2c.09.61,0,.76-.66.78s-1.46,0-2.19,0a2.88,2.88,0,0,0-.66,0c-.27.06-.55.15-.53.49s.28.42.56.44h.11c-.32,0-.64,0-.65.45,0,.58.56.51,1,.53s1,0,1.44,0c-.32.06-.54.21-.53.6s.32.59.74.58h.2c-.32,0-.68,0-.7.44s.34.47.65.51c.46.06.93,0,1.38.05-.21.58,0,1.16-.11,1.73-.1.36-.25.54-.62.53a3.66,3.66,0,0,0-1.06.06.51.51,0,0,0-.41.6.48.48,0,0,0,.49.45H80c-.3,0-.62.08-.63.44s.29.45.6.48h.13a1.1,1.1,0,0,0-.32,0c-.22.06-.42.18-.41.45s.18.34.37.42a1.38,1.38,0,0,0,.39.08c1,.1,1,.1,1,1.07,0,.13,0,.27,0,.4,0,.48,0,1-.6,1.09a.32.32,0,0,0-.23.31c0,.56-.29,1.08-.23,1.64a3.33,3.33,0,0,1-.3,1.72c-.44,1-.53,1.12-1.61,1.12-2.1,0-4.2,0-6.28,0a.49.49,0,0,0,.35-.64.57.57,0,0,0-.54-.41,1.51,1.51,0,0,0-.59,0,2.25,2.25,0,0,0-1,1.84,1.87,1.87,0,0,0,1.38.34H78a1,1,0,0,1,.84.22A.88.88,0,0,0,78,73.6a1,1,0,0,1-.26.87.93.93,0,0,0-1.22-.66,5.11,5.11,0,0,0-1.27.7.5.5,0,0,0-.16.6c.07.24.27.28.47.3h.27a.91.91,0,0,1-.58-.09,2.13,2.13,0,0,0-1.73-.18,11,11,0,0,1-2.63.21c-1,0-1.94,0-2.91,0-.76.31-1,1-1.38,1.67.19.56.72.48,1.12.49,1.86.06,3.71,0,5.5,0a.49.49,0,0,0-.37.61c.07.3.34.38.61.43a2.94,2.94,0,0,0,.86-.06c.17,0,.4-.07.45.16a1.56,1.56,0,0,1-.09.91c-.09.23-.29.15-.46.1a2,2,0,0,0-.78-.09c-.31,0-.57.15-.61.5a.54.54,0,0,0,.42.59c.15.06.37,0,.41.31-.51.14-1.07.29-.76,1a2.06,2.06,0,0,0-.77.1c-.23.13-.38.28-.27.59s-.07.67-.51.57-.61.06-.68.41a.56.56,0,0,1-.57.53.48.48,0,0,0-.37.14,1.46,1.46,0,0,1-1.42.51c-.52,0-.86.19-.85.77a.51.51,0,0,1-.45.55,3.24,3.24,0,0,1-1,.21c-.79-.07-1.55.24-2.33.18a.34.34,0,0,0-.33.19c-.24.49-.69.48-1.14.48-.69,0-1.37,0-2.06,0s-.77.27-.73.82a17.66,17.66,0,0,0,3.3-.16,41.49,41.49,0,0,0,6.18-1.63,7.9,7.9,0,0,0,4-2.85,56.17,56.17,0,0,0,5.5-8.38,36,36,0,0,0,3-7.52,47.82,47.82,0,0,0,1.26-9.79C82.66,57,82.51,56.17,82.51,55.34ZM80,47h0ZM80.42,50h0Zm.1,5.32h0Zm-2.31,0h0Zm2,.93a6.1,6.1,0,0,1,1,.09A2.87,2.87,0,0,1,80.22,56.29Z"/><path class="cls-1" d="M5.3,74.74c.29.27.43-.09.6-.18a5.32,5.32,0,0,1,1.7-.82,16,16,0,0,0-2.27,2.89A10.33,10.33,0,0,0,3.6,82.15,7.25,7.25,0,0,0,5.12,86.7a6.33,6.33,0,0,0,2.2,1.56c3.1,1.57,6.31,2.92,9.53,4.23a48.14,48.14,0,0,0,7.48,2.39c.15,0,.32.1.43,0s0-.38-.06-.56a23.41,23.41,0,0,1-1.39-4,16.67,16.67,0,0,1-.61-4.76,12.94,12.94,0,0,1,2.65-7.26,2.42,2.42,0,0,1,.4-.34,25.83,25.83,0,0,0-1.71,4.21,16,16,0,0,0-.33,6.14A15.1,15.1,0,0,0,26.51,95a17.89,17.89,0,0,0,5,4.51l1.12.7a6.24,6.24,0,0,1-2.16-.11,52.93,52.93,0,0,1-7.43-1.43,69.78,69.78,0,0,1-8.76-3.1,26.8,26.8,0,0,1-5.67-3.35A22.88,22.88,0,0,1,4,87.72a6.2,6.2,0,0,1-.91-2.79,16.24,16.24,0,0,1-.31-3.61A11.32,11.32,0,0,1,5,74.95,1.37,1.37,0,0,1,5.3,74.74Z"/><path class="cls-1" d="M4.36,75.27,3,76.42s-.71,1.51-.92,2.16a12.54,12.54,0,0,0-.68,2.48c0,.56.32,3.37.32,3.37l1.18,1.51.38.38.59-.3s-.38-2.66-.38-3,0-4.87,0-5S4.36,75.27,4.36,75.27Z"/><path class="cls-5" d="M22.18,31a10.91,10.91,0,0,1,1.15,7.41,8.48,8.48,0,0,1-1.87,3.74c-.22.27-.32.74-.59.84s-.5-.41-.82-.56c-1.14-.55-3.12-.73-4-.05a7.87,7.87,0,0,1,3.4.17,2.36,2.36,0,0,1,.64.34c.43.34.55.63.2,1.2a10.39,10.39,0,0,0-1.66,5.22c0,.35-.11.42-.43.31a13.44,13.44,0,0,0-5-.4,17.72,17.72,0,0,0-5.16,1l-.74.23a10.37,10.37,0,0,1,1.41-1.8c1.69-1.79,3.46-3.51,5.28-5.18a24.37,24.37,0,0,0,1.63-1.81c.7-1,1.61-1.74,2.25-2.76A7.15,7.15,0,0,0,18,31.38a11.6,11.6,0,0,0-1.31-2.06c-.13-.15-.25-.32-.14-.54.51,0,.73.36.94.7a2.84,2.84,0,0,0,2.38,1.42,5.37,5.37,0,0,1,1.62.26A.62.62,0,0,0,22.18,31Z"/><path class="cls-8" d="M27,52.43a15.88,15.88,0,0,1,7.58,1.32,6.15,6.15,0,0,1,1.72.93A4.3,4.3,0,0,1,37,56.77a7,7,0,0,1-2,6.37c-.61.61-.83.64-1.44.06a21,21,0,0,0-5.31-3.71A20.11,20.11,0,0,0,19,57.11,7.57,7.57,0,0,1,16.5,57c-.16-.43.21-.54.45-.67a39.82,39.82,0,0,1,4.49-2.11A40.63,40.63,0,0,1,26,52.64,3.58,3.58,0,0,0,27,52.43Z"/><path class="cls-1" d="M55.92,96.4c0-.28.13-.54,0-.84s.2-.52.48-.58a1.61,1.61,0,0,1,.79,0c.44.14.62.06.73-.42s.43-.73,1-.48a.7.7,0,0,0,1-.61c0-.41.15-.52.55-.53a2.38,2.38,0,0,0,1.92-1c.05-.07.13-.16.2-.16.56,0,.72-.23.63-.79,0-.31.3-.31.55-.3a1.84,1.84,0,0,0,1.48-.42c.26-.25.49-.41.33-.81-.08-.21,0-.46.25-.46.46,0,.73-.41,1.16-.44.16,0,.32-.06.33-.25a.36.36,0,0,0-.27-.35c-.18-.07-.43-.19-.56-.12a8.43,8.43,0,0,1-2.23.58c.9.38.43.73.12,1a.63.63,0,0,1-1-.09A1.79,1.79,0,0,0,61.66,89a1.5,1.5,0,0,1-1,.08,22.9,22.9,0,0,0-4.53.08,7.88,7.88,0,0,1-1.86-.29c-.28-.07-.58-.27-.78,0s.19.43.27.66a2.26,2.26,0,0,0,.3.41c-.59-.12-1,0-1.14.5,0,.06-.19.1-.29.11-.59,0-.92.23-.63.92a.54.54,0,0,1-.45.8c-.43.07-.84,0-.66-.63a2.19,2.19,0,0,0-1.06.65c-.22.25-.46.5-.85.34,0,0-.11,0-.13,0a1.47,1.47,0,0,1-1.39.73c-.16,0-.17.24,0,.38.54.38.12.56-.19.64a1.66,1.66,0,0,1-.91,0,1.56,1.56,0,0,0-1.62.36l.2.17a.55.55,0,0,1,.21.46c0,.14-.16.12-.27.12a.43.43,0,0,1-.45-.3.52.52,0,0,0-.89,0,3.54,3.54,0,0,0-.16.36,1.41,1.41,0,0,1-2.2.56,3.71,3.71,0,0,0-.53-.27c-.16-.07-.28-.1-.31.16a.7.7,0,0,1-1.11.51c-.47-.39-.89-.2-1.33-.17a16,16,0,0,1-2.74.14c-.57-.06-1.18.16-1.77.09-1.26-.16-2.57.11-3.8-.36a.28.28,0,0,0-.35.1c-.1.16,0,.24.14.3a.59.59,0,0,1,.32.46,1.71,1.71,0,0,0,1.75,1.11c.44-.06.49,0,.31.45-.09.2.08.28.17.38s.31.28.49,0,.38-.18.43.1.2.36.5.21a1.2,1.2,0,0,1,1.43.52.26.26,0,0,0,.27.14c.6,0,1.19,0,1.79,0,.33,0,.53-.41.77-.47A3.38,3.38,0,0,1,40,99.4a1.5,1.5,0,0,0,1.51-.05c.09-.06.21-.14.3-.13,1.17.18,2.35-.26,3.51.09a.29.29,0,0,1,.24.27,7.93,7.93,0,0,1-2.51.5,59.85,59.85,0,0,1-6.72.42,13.14,13.14,0,0,1-2.43-.17,6.28,6.28,0,0,1-2-1,19.77,19.77,0,0,1-4.25-3.55,14.21,14.21,0,0,1-3.48-7A14.4,14.4,0,0,1,24.45,82a11.6,11.6,0,0,1,2.12-4.43c-.4,1.21-.95,2.37-1.23,3.63a15.23,15.23,0,0,0-.14,6.16A16.08,16.08,0,0,0,29,95.11a2.65,2.65,0,0,0,2,.9,31.25,31.25,0,0,0,3.64.11,33.82,33.82,0,0,0,4.26-.41,29.63,29.63,0,0,0,6.73-1.85,36.42,36.42,0,0,0,7.24-4c.13-.09.27-.17.25-.36s-.23-.19-.36-.24a20.91,20.91,0,0,1-6.63-3.76,19.85,19.85,0,0,1-3.4-3.5.77.77,0,0,1-.08-.25,5.44,5.44,0,0,1,.54-.24c.13-.06.32-.07.32.09,0,.38.41.54.46.77.11.56.69.6.92,1a.12.12,0,0,0,.21,0c.06-.09,0-.21-.07-.21-.67,0-.67-.6-.91-1s-.3-.84-.83-1c-.19,0-.18-.29-.23-.45s-.09-.22-.22-.19-.19.17-.18.31c0,.29.25.59,0,.88a4.2,4.2,0,0,1-1.13-1.52,15.85,15.85,0,0,1-2-6A8.5,8.5,0,0,0,39.31,72l1.1-.76c.1,5.28,2.67,9.29,6.38,12.66a17.64,17.64,0,0,0,9.46,4.4,23,23,0,0,0,10.73-1c1.14-.38,2.29-.76,3.49-1.12-.74.74-1.45,1.51-2.23,2.2a47.25,47.25,0,0,1-6.67,5.08A36.45,36.45,0,0,1,55.92,96.4Z"/><path class="cls-1" d="M16.46,56.94h3.12A18.82,18.82,0,0,1,27,58.69a20.94,20.94,0,0,1,6.75,4.42c.37.37.65.48,1.12,0a7,7,0,0,0,1.69-7.54l-.27-.88c2.63,1.53,4.86,3.45,5.75,6.51A6,6,0,0,1,42,64a10.67,10.67,0,0,1-3,5.22l-.51.52c-.66.69-.68.7-1.18-.14A25.29,25.29,0,0,0,33,64.25a23.43,23.43,0,0,0-8.19-5.09,24,24,0,0,0-8.28-1.42,9.91,9.91,0,0,1-1.64.13c.19-.32.58-.38.8-.66C15.81,56.77,16.11,56.77,16.46,56.94Z"/><path class="cls-10" d="M17,49.77c.3,0,.61.08.91.15a1.17,1.17,0,0,1,.94.9,4,4,0,0,0,1.26,2.12c.4.35.27.51-.15.66A32.67,32.67,0,0,0,11.89,58c-.57.41-1.11.86-1.67,1.29a2.61,2.61,0,0,1-1.38-.86,5.76,5.76,0,0,1-2-6.29,2.13,2.13,0,0,1,1.56-1.61,23.14,23.14,0,0,1,5.31-.94A29.2,29.2,0,0,1,17,49.77Z"/><path class="cls-1" d="M66.68,77c.31.44.79.39,1.22.39,1.77,0,3.54,0,5.31,0,.23,0,.48-.09.72.13-.18.21-.42.09-.61.16s-.39.12-.39.38.21.33.4.37a2.42,2.42,0,0,0,1-.09c.62-.12.73,0,.62.62a2.42,2.42,0,0,0,0,.26c-.06.88-.06.87-.89.6a2.3,2.3,0,0,0-.66,0c-.26,0-.43.11-.43.39s.16.39.42.4h.27c.23,0,.38.16.33.4s-.11.36-.39.37c-.75,0-.78.08-.39.68.07.1.13.19,0,.28a.55.55,0,0,1-.23.07s0,0-.06,0a.65.65,0,0,0-.94.1c-.24.41.41.34.5.68-.36.12-.86.11-.86.64-.35,0-.21-.5-.56-.38s-.24.38-.25.62,0,.37-.12.35c-.9-.17-1.31,1.07-2.29.75-.57-.19-.91.14-.76.76.09.36-.14.44-.37.5a5.79,5.79,0,0,1-1.77.31c-.47,0-1-.19-1.32.3-.65-.48-.8.32-1.2.44a5.14,5.14,0,0,1-1.38.06H60.2a.71.71,0,0,0-.83.67h-.27A1.17,1.17,0,0,0,58,87.68c-.39,0-.78.07-1.17,0s-.78-.19-.59-.75a3.42,3.42,0,0,1,1.49-.37c.28-.07.45-.2.26-.51.15-.28.43-.35.69-.45a2.88,2.88,0,0,1,.77.07c.3,0,.56,0,.7-.33s-.05-.48-.27-.65c0-.46.26-.63.64-.74.4.28.67.24,1-.17A5.83,5.83,0,0,1,63,82.45c.47-.25.47-.58.09-.92a.23.23,0,0,1,0-.19,20.34,20.34,0,0,1,2-2,4.21,4.21,0,0,1,1.11,0c.15,0,.34,0,.37-.19s-.16-.23-.3-.27-.51-.13-.58-.45A.37.37,0,0,1,66,78a2.23,2.23,0,0,0,1.26.26c.15,0,.34,0,.34-.23s-.17-.18-.3-.2c-.35,0-.7-.08-.9-.45C66.37,77.2,66.38,77,66.68,77Z"/><path class="cls-1" d="M24.43,69.29a7.35,7.35,0,0,1,2.15-1.1c1.56-.72,3.08-1.52,4.59-2.33.34-.18.48-.33.13-.67a23.2,23.2,0,0,0-12.48-6.54,28.51,28.51,0,0,0-4.67-.25s-.05,0-.06,0a.54.54,0,0,1,0-.11c1.08-.1,2.15-.13,3.23-.15a20.41,20.41,0,0,1,8.41,1.73,23.83,23.83,0,0,1,6.64,4.26,29.27,29.27,0,0,1,4.85,5.81c.47.71.44.81-.21,1.35l-.1.08c-1.52,1.14-1.52,1.14-3.24.29a25.38,25.38,0,0,0-6.63-2C26.17,69.54,25.3,69.43,24.43,69.29Z"/><path class="cls-11" d="M22.18,31c0,.51-.34.48-.62.34a4.91,4.91,0,0,0-1.79-.31,2.79,2.79,0,0,1-2.35-1.44,2.54,2.54,0,0,0-.82-.84c-.22.08-.33-.08-.44-.21a46.41,46.41,0,0,0-6.39-5.73,18.22,18.22,0,0,1-2.34-2,7.27,7.27,0,0,1-1-1.35,1,1,0,0,1,0-1,4.36,4.36,0,0,1,3.07.38A18.36,18.36,0,0,1,15.73,23a35.41,35.41,0,0,1,6,7.54c.07.12.1.31.32.27S22.17,30.93,22.18,31Z"/><path class="cls-12" d="M66,78.07a.4.4,0,0,0-.27.4,1.62,1.62,0,0,1-.66.93l-2,2.13a.51.51,0,0,1-.18.41c-.69.65-1.37,1.3-2,2a.28.28,0,0,1-.35.11,2,2,0,0,0-.66.66,2.75,2.75,0,0,1-1.2,1.06l-.66.4a1.29,1.29,0,0,1-.13.53,4.91,4.91,0,0,1-1.59.27.44.44,0,0,1-.38.11,3.7,3.7,0,0,0-.68-.09,22.55,22.55,0,0,1-2.66-.6,4.88,4.88,0,0,1-1.89-.77,26.24,26.24,0,0,1-5-3.65c-.43-.39-.73-1-1.34-1.12l-.14-.26c0-.09,0-.19,0-.25-.47-.48-.73-1.11-1.16-1.61a15.22,15.22,0,0,1-1.85-4c.55.28.62.88.85,1.36a19.94,19.94,0,0,0,2.51,3.79,17.8,17.8,0,0,0,11.17,6.6c1.48.29,2.15-.68,3-1.37a32.18,32.18,0,0,0,3.21-2.93C63,81.08,64,79.91,65,78.72a55.71,55.71,0,0,0,5.17-7.66c1.78-3.09,3.55-6.22,4.32-9.77.3-1.39.52-2.8.78-4.19L75.07,57c-.43.56-.89,1.1-1.28,1.68a15.78,15.78,0,0,1-3.63,3.71,21.32,21.32,0,0,1-8.1,3.89,14.75,14.75,0,0,1-10.12-.89,19.8,19.8,0,0,1-5.6-4.16c-.24-.25-.52-.48-.78-.72,0-.76,0-1.51,0-2.34.3.16.36.43.52.61A1.7,1.7,0,0,0,47,61a.75.75,0,0,1,.21.17,5.88,5.88,0,0,0,.54.67,1.67,1.67,0,0,0,.42.5l.29.18a19,19,0,0,0,3,2,5.87,5.87,0,0,0,.56.39,17.8,17.8,0,0,0,5.35,1.44,7.36,7.36,0,0,0,1.84-.1,22.17,22.17,0,0,0,2.29-.3,11.92,11.92,0,0,0,1.29-.3,7.18,7.18,0,0,0,1.86-.67c.37-.14.35-.47.35-.78.3-.5.4-.5.8-.07s.76,0,1.11-.15c.4-.32,1-.36,1.31-.77a6.75,6.75,0,0,1,.78-.56c.17-.18,0-.53.29-.64s.61.26.8-.16a6.19,6.19,0,0,0,1.28-1.13,12.93,12.93,0,0,1,1.14-1.13A8.5,8.5,0,0,0,74,57.44c-.28.25-.47.35-.68.17l1.06-1.46c.17.09.31.35.56.12.48-.12.64.15.68.56a4.63,4.63,0,0,1-.05,1.83c-.13.46-.14,1-.25,1.43a3.16,3.16,0,0,0-.13,1.61.67.67,0,0,1-.11.56,5.31,5.31,0,0,0-.91,2,3.21,3.21,0,0,1-.43,1.1c-.23.41-.24.92-.56,1.3a2.44,2.44,0,0,0-.43.69,7.78,7.78,0,0,1-1,1.93,3.37,3.37,0,0,0-.16.32,1,1,0,0,1-.49.62c-.54.4-.63,1.06-.93,1.59a3.07,3.07,0,0,1-.31.73c-.39.87-1,1.63-1.44,2.47a1.18,1.18,0,0,1-.51.52c-.6.33-.72,1-1.2,1.46l-.27.4A.69.69,0,0,1,66,78.07Z"/><path class="cls-1" d="M7.43,20.81a12.35,12.35,0,0,1,1.92,1.47q2.22,1.76,4.37,3.61a23,23,0,0,1,2.47,2.48,1.43,1.43,0,0,0,.41.41c0,.36.34.5.51.75a10.72,10.72,0,0,1,1.95,4.21,7.24,7.24,0,0,1-.93,5,10.78,10.78,0,0,1-2.6,3,18.81,18.81,0,0,0,1.2-2.33,9.1,9.1,0,0,0-.11-6.51,20.91,20.91,0,0,0-3.72-6c-1.58-1.87-3.26-3.63-5-5.37A2.16,2.16,0,0,1,7.43,20.81Z"/><path class="cls-1" d="M47,61.06a.93.93,0,0,1-.94-.83A.38.38,0,0,0,46,60c-.58-.46-.24-.82.11-1.19l1.46,1.46c.12.57.67.67,1.07.93h0c.14.27.45.26.66.4a5.67,5.67,0,0,1,1.57.82,17.17,17.17,0,0,0,6.2,2,16.4,16.4,0,0,0,9.72-1.73A21,21,0,0,0,71.89,59l1.43-1.37c.36.09.51-.28.84-.37a8.06,8.06,0,0,1-1.63,2.5c-.22.32-.66.45-.94.88a3.71,3.71,0,0,1-1.45,1.24c-.12.21-.28.16-.45.09s-.33-.13-.48,0,.31.52-.13.66c-.28.15-.73.05-.8.53-.28.54-.9.5-1.33.8-.52-.31-.92,0-1.33.27,0-.2,0-.41-.3-.39s-.22.21-.23.39a.67.67,0,0,1-1,.48c-.74-.3-1.4.27-2.12.23-.08,0-.15.1-.14.19s.14.14.25.11a1.23,1.23,0,0,1,.65-.08c.34.09.48.25.13.52A3.81,3.81,0,0,1,61.5,66a.25.25,0,0,1-.36,0c-.87-.93-1.88-.72-2.89-.35a1.14,1.14,0,0,1-1.62-.47.55.55,0,0,0-.45-.22,6.05,6.05,0,0,1-2-.37.87.87,0,0,0-.87.19,1.56,1.56,0,0,1-1.49.19.83.83,0,0,1-.4-.4c0-.47.33-.35.61-.33s.35.06.36-.16-.18-.23-.33-.25a4.12,4.12,0,0,0-.71-.13.88.88,0,0,1-1-.64c-.2-.48-.78-.41-1.24-.41-.26,0-.52.12-.76-.07a.32.32,0,0,1-.3-.44c0-.14.22-.29.07-.41s-.28.13-.43.19c-.25-.17-.5-.33-.53-.66,0,0,.1-.1.06-.14S47.09,61.05,47,61.06Z"/><path class="cls-13" d="M49.14,60.93c1.35.41,2.57,1.17,4,1.46A20.8,20.8,0,0,0,59,63a21.82,21.82,0,0,0,7.26-1.79,25.84,25.84,0,0,0,6.38-3.95c.49-.42.83-1,1.52-1.21a15.68,15.68,0,0,1-2.55,2.85A23.19,23.19,0,0,1,67.47,62a16.77,16.77,0,0,1-6.32,2.17A17.58,17.58,0,0,1,49.51,61.3,2.26,2.26,0,0,1,49.14,60.93Z"/><path class="cls-14" d="M11.83,58.81c.6,0,1.13-.34,1.78-.33C6.27,63.61,1.58,70.42.34,79.41a13.93,13.93,0,0,1,1.2-7.62A3.27,3.27,0,0,0,2,70.48a22.34,22.34,0,0,1,2.5-4.35,30.94,30.94,0,0,1,3.71-4.39A14.43,14.43,0,0,1,11.83,58.81Z"/><path class="cls-15" d="M17,49.77c-1.12.11-2.23-.09-3.35,0a22.27,22.27,0,0,0-5.23,1A1.75,1.75,0,0,0,7.13,51.9C6.2,54.6,7.1,57,9.5,58.77l.73.56-2,1.87c-.15.14-.29.13-.45,0-2.63-2.79-3.4-5.86-1.45-9.4a2.87,2.87,0,0,1,1.68-1.2,18.81,18.81,0,0,1,4.77-1,23.13,23.13,0,0,1,3.75,0C16.73,49.65,16.89,49.63,17,49.77Z"/><path class="cls-13" d="M.53,81.38c.36-.94.67-1.89,1.09-2.81A15.07,15.07,0,0,1,8,71.46a17.93,17.93,0,0,1,5.71-2,3.38,3.38,0,0,1,2.25-.06,8.32,8.32,0,0,1-1.4.27,20.44,20.44,0,0,0-6.87,2.6,10.48,10.48,0,0,0-5,7.48A16.39,16.39,0,0,0,3,85.94a.54.54,0,0,1,0,.46A14.61,14.61,0,0,1,.53,81.38Z"/><path class="cls-16" d="M34.13,72.23c-.21.25-.41,0-.6,0A45,45,0,0,0,25,70.47a38.21,38.21,0,0,0-6-.08,27.58,27.58,0,0,0-9.87,2.45c-.37.17-.37.17-1,.13a6.8,6.8,0,0,1,1.94-1.11A23.21,23.21,0,0,1,17,69.94,56.77,56.77,0,0,1,24,69.69,27.59,27.59,0,0,1,34.13,72.23Z"/><path class="cls-17" d="M75.19,26.52a3,3,0,0,1-1.06-1.6c-.07-.29-.1-.6-.34-.76a2.47,2.47,0,0,1-1-1.65.69.69,0,0,0-.4-.56c-.53-.25-.57-.81-.69-1.26a2.6,2.6,0,0,0-.32-.84l-.35.57a1,1,0,0,1-.4,0A29,29,0,0,0,68.36,16c0-.06-.15-.07-.23-.1a.36.36,0,0,1-.26-.26.45.45,0,0,0,0-.54,41.22,41.22,0,0,0-4.07-5.66,21.43,21.43,0,0,0-1.84-2,.47.47,0,0,1-.16-.35,5.15,5.15,0,0,1,1.68,1.46,53.31,53.31,0,0,1,5.19,6.31,62.53,62.53,0,0,1,5.27,8.89A21.65,21.65,0,0,1,75.19,26.52Z"/><path class="cls-18" d="M16.46,56.94a1.39,1.39,0,0,0-.79.27,2.69,2.69,0,0,0-1.54.42c-.25.11-.69.38-.59-.3A27.75,27.75,0,0,1,25,52.59,6.86,6.86,0,0,1,27,52.43c-.27.31-.68.28-1,.38-1.65.51-3.28,1.1-4.88,1.76-1.34.55-2.64,1.19-3.92,1.84A1.27,1.27,0,0,0,16.46,56.94Z"/><path class="cls-19" d="M22,30.79c-.23.08-.24.08-.36-.1l-1.32-2a34.27,34.27,0,0,0-4.89-5.78,18.8,18.8,0,0,0-6.13-4,7.49,7.49,0,0,0-3-.5A1.6,1.6,0,0,1,8.22,18a13.79,13.79,0,0,1,5.09,2.58A30,30,0,0,1,20,27.18,21.43,21.43,0,0,1,22,30.79Z"/><path class="cls-1" d="M55.92,87h.4c-.06.52.24.67.68.58a8.89,8.89,0,0,1,1.44,0c.44,0,.73.16.66.66-6.12,0-10.93-2.65-14.74-7.31.2-.1.4-.21.59,0a22.28,22.28,0,0,0,5,4.17c.55.38,1.32.42,1.66,1.12,0,0,.08.07.11.06.91-.37,1.58.27,2.35.5.34.1.77-.07,1.15.09C55.43,87.08,55.69,86.95,55.92,87Z"/><path class="cls-20" d="M32.8,18.43c-.27.43,0,.86,0,1.28a21.08,21.08,0,0,0,.52,4.44c0,.21.1.44-.09.62a40.27,40.27,0,0,1-1.17-6.2,3.46,3.46,0,0,1,.06-1.75Z"/><path class="cls-1" d="M74.78,56.41c-.48.42-.2-.27-.4-.27a.26.26,0,0,0-.13-.26c0-.34.28-.5.53-.67.48-.3.95-.07,1.4.05a.45.45,0,0,1,.29.59.66.66,0,0,1-.67.44C75.46,56.33,75.1,56.14,74.78,56.41Z"/><path class="cls-1" d="M43,78.73c.68.32.78,1.13,1.3,1.59.08.07,0,.2-.1.27A5.25,5.25,0,0,1,43,78.73Z"/><path class="cls-12" d="M48.62,61.19c-1-.16-1.14-.3-1.07-.93C47.9,60.58,48.37,60.76,48.62,61.19Z"/><path class="cls-12" d="M49.28,61.59c-.28,0-.7.15-.66-.4A.85.85,0,0,1,49.28,61.59Z"/><path class="cls-8" d="M44.49,1a4.59,4.59,0,0,1,1.6-.28c-.3.28-.61.56-.91.85a5.88,5.88,0,0,0-1.47,6.19,1.67,1.67,0,0,1,.17,1c-2-1.71-4-3.1-6.7-2.74-.06-.35.23-.51.42-.7A18.31,18.31,0,0,1,43.82,1.3,3,3,0,0,0,44.49,1Z"/><path class="cls-21" d="M44.49,1c-.08.22-.3.23-.48.31a19.07,19.07,0,0,0-6.83,4.73c-.56-.08-1,.32-1.6.27a17.79,17.79,0,0,1,6.84-4.65A8.22,8.22,0,0,1,44.49,1Z"/><path class="cls-22" d="M35.59,21.21A9.75,9.75,0,0,1,32,14.87a5.81,5.81,0,0,1,1.54-4.38,7.18,7.18,0,0,1,5.27-2.59,7,7,0,0,1,3.44.81,9.18,9.18,0,0,1,3.47,5.5A7.45,7.45,0,0,1,46,15.45a3.93,3.93,0,0,1-.48,2.29,7.23,7.23,0,0,1-8.72,4A5.74,5.74,0,0,1,35.59,21.21Z"/><path class="cls-23" d="M42.23,8.72c-.8-.18-1.6-.39-2.4-.53a6.91,6.91,0,0,0-7.58,5.26A6.88,6.88,0,0,0,32,14.87c-.56-2.81.48-5.83,2.7-7.17A6.51,6.51,0,0,1,42.23,8.72Z"/><path class="cls-23" d="M35.59,21.21a11,11,0,0,0,3.05.68A7,7,0,0,0,43,20.53a7.17,7.17,0,0,0,2.22-2.59A8.11,8.11,0,0,0,46,15.45c.51,2.61-.59,6.8-4.54,7.55A6.76,6.76,0,0,1,35.59,21.21Z"/><path class="cls-3" d="M52.77.74A9.28,9.28,0,0,1,58.7,5.29c1.58,3.49-1,8.22-5.08,8.85a7.71,7.71,0,0,1-1.44.18A9.28,9.28,0,0,1,46,9.52,6.79,6.79,0,0,1,51.85.74,9,9,0,0,1,52.77.74Z"/><path class="cls-23" d="M52.77.74c-.9.28-1.84.32-2.73.65a6.74,6.74,0,0,0-4.08,4.8,11.63,11.63,0,0,0,0,3.34,6.6,6.6,0,0,1-.76-5.39A5.49,5.49,0,0,1,50.89.42,5,5,0,0,1,52.77.74Z"/><path class="cls-23" d="M52.19,14.31a6.64,6.64,0,0,1,1.72-.41,6.25,6.25,0,0,0,3.93-2.78,6.32,6.32,0,0,0,.81-5.65c0-.05,0-.12.05-.19a6.71,6.71,0,0,1,.91,5.44,5.3,5.3,0,0,1-4.94,3.83A5.72,5.72,0,0,1,52.19,14.31Z"/><path class="cls-1" d="M74.78,56.41c.2-.39.57-.23.87-.26s.67,0,.7-.41-.32-.37-.61-.4a3.8,3.8,0,0,0-1-.13,3.91,3.91,0,0,0,.93-1.94,40.09,40.09,0,0,0,.82-6.8c0-1.43,0-2.86,0-4.28a38.3,38.3,0,0,0-.58-5.43c-.24-1.34-.46-2.68-.75-4-.19-.88-.44-1.75-.71-2.61-.47-1.51-1-3-1.46-4.52a3,3,0,0,0-.33-.56c-.6-1.34-1-2.77-1.68-4.07l-.31-.58a.35.35,0,0,1,.4,0c.31.4.75.73.81,1.29a.28.28,0,0,0,.08.18c.53.42.42,1.07.56,1.61a1.67,1.67,0,0,0,.89,1.24.67.67,0,0,1,.41,1,2.05,2.05,0,0,0,.1,1.54,5.83,5.83,0,0,0,1.38,1.41c.06.06.21,0,.33,0-.09.28-.27.48-.52.48-.59,0-.52.4-.41.73s.19.63.26.95c.21.86.56,1.09,1.38.78.49-.19.58,0,.68.39a8.45,8.45,0,0,1,.14,2c0,.23-.07.38-.33.38s-.29-.11-.33-.32a5.15,5.15,0,0,1-.13-1.44c0-.4-.09-.64-.55-.62s-.35.34-.38.61c-.06.47.23.84.35,1.26,0,.13.17.24.16.36-.06,1,.6.84,1.21.83a1.75,1.75,0,0,1,.88.08c-.19.3-.48.14-.71.17s-.53,0-.77.12a.31.31,0,0,0-.17.33c0,.16.14.19.28.22a1.9,1.9,0,0,1,1.46,1.36c.07.24.19.52.4.58.91.26.65,1,.6,1.55a3.33,3.33,0,0,0,.53,1.87c.12.23.11.28-.13.36a4.46,4.46,0,0,1-1.71.1c-.34,0-.74-1.1-.5-1.38.39-.46.23-.91.09-1.37a.5.5,0,0,0-.51-.36c-.31,0-.27.3-.27.51,0,.71.12,1.4.16,2.11a17,17,0,0,1,.11,4.33,2.7,2.7,0,0,0,0,.6c0,.25,0,.55.31.59a1.6,1.6,0,0,0,1.16-.08.33.33,0,0,0,.1-.36c0-.21-.18-.27-.37-.31a1.18,1.18,0,0,1-.76-1.31c.09-.24.33-.27.56-.28h1.2c.25,0,.44-.09.45-.37s-.19-.42-.47-.42h-.66a1.14,1.14,0,0,1-.62-.12A5,5,0,0,1,80,43.47a.73.73,0,0,1,.44.93,1.9,1.9,0,0,0,0,1.11c.13.48-.11.54-.47.54s-.62,0-.61.41.35.38.63.39a3.49,3.49,0,0,1,1.24.12,1.52,1.52,0,0,1-.85.14c-.26,0-.56-.08-.78.09a1.13,1.13,0,0,1-1.44,0c-.53-.32-1.4.47-1.3,1.15a3.56,3.56,0,0,1-.2,1.73c-.06.17-.14.33,0,.49a.28.28,0,0,0,.3.09.32.32,0,0,0,.23-.42c-.06-.33.09-.43.41-.38.6.09,1-.06,1-.77a.38.38,0,0,1,.44-.4h1.86c.24,0,.5.1.48.34s-.31.18-.5.18h-.66c-.28,0-.67,0-.67.35s.38.29.64.31a2.18,2.18,0,0,1,1.08.14,3.29,3.29,0,0,1-1.18.13c-.24,0-.55,0-.54.35s.3.28.52.31h.07c1.27.1,1.29.1,1.25.36-.08.53.41,1,.14,1.54a1.44,1.44,0,0,0,0,.91c.16.65,0,.89-.73.9H78.17a2.7,2.7,0,0,0-.59.07c-.12,0-.26.1-.25.27a.29.29,0,0,0,.27.26,3.43,3.43,0,0,0,.65.06h3c-.12.35-.33.26-.48.26H78c-.26,0-.63,0-.62.34s.37.32.63.32h1.93a7.94,7.94,0,0,0,1.83-.08c-.31.46-.64.81-1.22.43a.27.27,0,0,0-.12-.05c-.36,0-.75-.18-1.06.15a.38.38,0,0,0-.07.43c.2.45.6.3.93.3a3.43,3.43,0,0,0,1.31-.09.39.39,0,0,1,.48.12.21.21,0,0,1,0,.3.49.49,0,0,1-.51,0,4.59,4.59,0,0,0-1.45-.09c-.24,0-.56,0-.57.32s.31.34.55.33a14,14,0,0,0,1.86,0c-.85.58-.18,1.42-.42,2.13-.15.43-.26.57-.68.55s-.71,0-1.06,0-.42.13-.42.4.18.38.44.39h1.59c0,.37-.27.25-.41.26-.33,0-.66,0-1,0s-.45.06-.46.3.26.33.47.34c.37,0,.75,0,1.13,0v.28c-.38,0-.76,0-1.14,0-.2,0-.45.06-.46.29s.26.3.47.35a1,1,0,0,0,.2,0c1.15,0,1.15,0,1.15,1.17a7.78,7.78,0,0,1,0,1.19c0,.22,0,.64-.51.45-.16-.06-.36.06-.33.22.13.85-.44,1.65-.1,2.52.16.42-.39.62-.46,1.06-.13.86-.76,1.13-1.64,1.1-2.08-.06-4.16,0-6.24,0-.23,0-.48.06-.69-.13,0-.06.06-.11.09-.11.3-.06.75.08.72-.44s-.47-.34-.78-.37h-.27l.4-.66c.31,0,.19-.13.13-.27l1.06-2c.13,0,.31.16.33-.1a4.14,4.14,0,0,1,.07-.56l.53-1.33c.7-.14.39-.66.4-1.06.31-.72.32-1.59,1-2.14.07-.05,0-.25,0-.38.19-.2.44-.15.67-.18s.33,0,.36-.21-.14-.21-.26-.24a.93.93,0,0,1-.64-1,9,9,0,0,1,.23-1.61,5.25,5.25,0,0,0,0-1.87C75.42,56.14,75,56.48,74.78,56.41Z"/><path class="cls-8" d="M67.88,15.63l.26.26a4.63,4.63,0,0,0-.24,1.6,40.43,40.43,0,0,1-1,6.37A25.11,25.11,0,0,1,63.68,32c-2.44,3.77-5.77,5.94-10.4,5.68a14.26,14.26,0,0,1-3.54-.74,1.6,1.6,0,0,0-.33,0,29.22,29.22,0,0,1-6.71-4,45.46,45.46,0,0,1-6-5.76,7.55,7.55,0,0,1-1.16-1.39c1.1-.11,2.16-.23,3.22-.31a52.09,52.09,0,0,0,5.35-.77,65.41,65.41,0,0,0,9.38-2.45,73.42,73.42,0,0,0,8.27-3.35C63.85,17.9,65.89,16.83,67.88,15.63Z"/><path class="cls-5" d="M61.63,43.15a.53.53,0,0,1,.68,0A.53.53,0,0,1,61.63,43.15Z"/><path class="cls-1" d="M69.73,72.49a1.22,1.22,0,0,1,.4-.66,2.22,2.22,0,0,0,1.2.27H78.5c.24,0,.55-.07.62.24s-.08.5-.45.45-.64.08-.49.56-.13.77-.12,1.17c0,.13-.08.33-.27.31a.34.34,0,0,1-.34-.34c0-.52-.32-.53-.71-.54-.61,0-.89.65-1.47.7-.11,0-.1.28-.07.43s.21.2.37.2a6,6,0,0,1,1.36.11c-1.48.35-3-.26-4.49.09a21.2,21.2,0,0,1-4.56.07l.4-.53a.51.51,0,0,0,.57-.51c0-.34.25-.43.54-.46s.43.16.52.41.14.64.57.59c.23,0,.32-.21.37-.42.09-.41-.21-.47-.5-.54a.48.48,0,0,1-.36-.5A5,5,0,0,0,69.73,72.49Z"/><path class="cls-1" d="M45.46,84.31l.31-.61a5.36,5.36,0,0,1,1.65,1.73c.19.41.88.36,1.16.8,0,0,.12,0,.14-.09.17-.39.35-.18.56,0s.09.4,0,.62-.32.28-.53.18c-1.08-.52-2.17-1-2.56-2.33C46.09,84.19,45.76,84.41,45.46,84.31Z"/><path class="cls-1" d="M42.63,81.79a1.65,1.65,0,0,0-.17-.84c-.14-.35,0-.51.32-.6s.39.13.43.36,0,.57.46.46c.17,0,.26.24.29.39.1.46.58.73.55,1.25,0,.13.13.18.24.17s.45-.13.54.19-.17.49-.39.76c-.17-.47-.39-.81-.85-.9a.29.29,0,0,1-.23-.35c0-.22.08-.32-.26-.33-.59,0,.08-.52-.25-.72-.2,0-.38.45-.7.17Z"/><path class="cls-1" d="M41.4,78c-1.06-.62-1.4-1.33-.6-2.09.28.6.27,1.28.71,1.79s.52,1.23,1,1.74c.24.27.13.41-.22.46a.83.83,0,0,1-.78-.38A1.34,1.34,0,0,1,41.4,78Z"/><path class="cls-1" d="M50.86,88.19c.43-.32.85-.3,1.19-.51s.51,0,.71.21a.36.36,0,0,1,.07.43.71.71,0,0,1-.65.37C51.69,88.73,51.41,88.29,50.86,88.19Z"/><path class="cls-1" d="M50.82,87c-.2.19-.27.57-.58.55s-.62,0-.65-.29.35-.45.59-.53A.61.61,0,0,1,50.82,87Z"/><path class="cls-1" d="M60.57,84l2.52-2.52c.61.27.67.64.1,1a6.87,6.87,0,0,0-1.65,1.68C61.24,84.56,60.91,84.52,60.57,84Z"/><path class="cls-1" d="M71,80.59c-.32,0-.76.13-1-.18s-.45-.73-.11-1a.81.81,0,0,1,1.13.07c.18.19.32.35.59.33s.54.08.51.44-.27.36-.53.36Z"/><path class="cls-1" d="M69.85,78.46c-.26,0-.53,0-.79,0a.35.35,0,0,1-.37-.37.34.34,0,0,1,.34-.4c.55,0,1.1,0,1.65,0a.35.35,0,0,1,.37.37.37.37,0,0,1-.41.41h-.79Z"/><path class="cls-1" d="M66,78.07c.13-.22.19-.49.4-.66a1.8,1.8,0,0,0,1,.29.4.4,0,0,1,.47.36c0,.29-.23.39-.44.39C66.93,78.43,66.35,78.67,66,78.07Z"/><path class="cls-1" d="M58.71,85.77a5.34,5.34,0,0,1,1.2-1.06c.26,0,.59,0,.52.37s0,.77-.55.83A6.44,6.44,0,0,1,58.71,85.77Z"/><path class="cls-1" d="M65.08,79.39c.06-.42.47-.6.66-.93.14.31.42.25.67.27a.36.36,0,0,1,.38.43c0,.24-.17.33-.39.36A7.3,7.3,0,0,1,65.08,79.39Z"/><path class="cls-1" d="M72.5,79.53c-.29,0-.62,0-.62-.39s.37-.4.67-.41.62,0,.62.39S72.8,79.51,72.5,79.53Z"/><path class="cls-1" d="M65.11,83c-.3,0-.67.06-.68-.4s.33-.4.62-.39.67-.07.68.4S65.4,83,65.11,83Z"/><path class="cls-1" d="M70.37,83c-.29,0-.62,0-.62-.39s.37-.4.67-.41.62,0,.62.39S70.67,83,70.37,83Z"/><path class="cls-1" d="M65.09,84c0,.28,0,.62-.37.65s-.43-.34-.43-.65-.05-.62.37-.65S65.08,83.73,65.09,84Z"/><path class="cls-1" d="M65.06,85.11c.3,0,.67-.06.67.41s-.34.39-.62.39-.67.06-.67-.41S64.77,85.11,65.06,85.11Z"/><path class="cls-1" d="M57.91,86.7c-.13-.22-.15-.41.13-.53s.37,0,.34.17A.45.45,0,0,1,57.91,86.7Z"/><path class="cls-1" d="M64.5,81.43a.27.27,0,0,1-.3.2c-.14,0-.27-.08-.24-.24s.2-.13.32-.13S64.5,81.29,64.5,81.43Z"/><path class="cls-1" d="M51.8,64.91c.68.17,1.19-.28,1.76-.52.19-.08.37-.21.56-.1a4.33,4.33,0,0,0,2.36.4.37.37,0,0,1,.36.25c.26.68.73.89,1.36.48.82-.54,1.68-.13,2.51-.21.18,0,.34.19.39.4a.41.41,0,0,0,.41.36,8.45,8.45,0,0,1-2.29.38A13.85,13.85,0,0,1,53,65.45,12.54,12.54,0,0,1,51.8,64.91Z"/><path class="cls-1" d="M48.35,62.52a4.17,4.17,0,0,1,1.68,0c.34.1.57.23.57.6s.13.38.49.34a3.56,3.56,0,0,1,1.27.19.4.4,0,0,1,.29.51.47.47,0,0,1-.6.25c-.28-.15-.48-.2-.65.12A2.52,2.52,0,0,1,50.25,64,20.64,20.64,0,0,1,48.35,62.52Z"/><path class="cls-1" d="M69.73,72.49c.42.19.36.61.38.95s.09.54.48.52.49.17.45.49-.1.72-.53.8a.52.52,0,0,1-.67-.38,3.68,3.68,0,0,1-.12-.44c0-.27-.19-.29-.43-.24s-.37.06-.28.36-.2.49-.45.63-.28,0-.3-.18C68.67,74.12,69.27,73.34,69.73,72.49Z"/><path class="cls-1" d="M62.83,65.71c.07-.77-.42-.35-.67-.29s-.34.23-.53,0,0-.41,0-.62.11-.19.23-.14c.41.17.76-.07,1.14-.15s.54-.24.82-.07a.88.88,0,0,0,1.23-.24c.11.31.06.59-.25.71A7.4,7.4,0,0,1,62.83,65.71Z"/><path class="cls-1" d="M75.18,60.13c.28.34.33.93,1,.86.14,0,.2.21.19.37a.34.34,0,0,1-.33.34c-.33,0-.66,0-1,0A1.9,1.9,0,0,1,75.18,60.13Z"/><path class="cls-1" d="M65.62,64.25c.05,0,.13-.06.16-.11.42-.73.53-.74,1.17-.15C66.43,64.48,65.93,64.58,65.62,64.25Z"/><path class="cls-1" d="M47.68,61.86a.4.4,0,0,1,.34-.48c.18,0,.29.1.37.22s-.06.31-.15.45a2.34,2.34,0,0,0-.16.35A.63.63,0,0,1,47.68,61.86Z"/><path class="cls-1" d="M74,64.25c.44.39.16.84,0,1.19s-.36.22-.41-.13A2.44,2.44,0,0,0,74,64.25Z"/><path class="cls-1" d="M73.06,66.64c.2.17,0,.4.11.6a.28.28,0,0,1-.22.4c-.23,0-.27-.16-.3-.34A.82.82,0,0,1,73.06,66.64Z"/><path class="cls-1" d="M69.2,62c.22-.67.64,0,.93-.13C69.91,62.52,69.54,62.13,69.2,62Z"/><path class="cls-1" d="M68.27,63.19c-.29-.43-.17-.6.34-.53a3.6,3.6,0,0,0,.46,0Z"/><path class="cls-1" d="M71.59,69.3c.28-.13.27.06.26.25s0,.3-.16.32-.21-.15-.24-.3A.27.27,0,0,1,71.59,69.3Z"/><path class="cls-1" d="M47,61.06c0-.15,0-.36.23-.3a.36.36,0,0,1,.23.46c-.06.16-.21,0-.33,0Z"/><path class="cls-1" d="M55.92,87c-.29.31-.55.47-.66-.13C55.48,86.87,55.73,86.74,55.92,87Z"/><path class="cls-24" d="M44.08,16.83A3.88,3.88,0,0,1,41.44,21a4.36,4.36,0,0,1-2.78-.22c-.18-.07-.33-.22-.54-.2a.28.28,0,0,1-.32-.18c.16-.31.22-.51-.17-.79a4.54,4.54,0,0,1-1.9-4.53,2.91,2.91,0,0,1,2.57-2.47,3,3,0,0,0,2.19.43,4.43,4.43,0,0,1,2.33,3.5,4.24,4.24,0,0,1-.7,2.82,4.29,4.29,0,0,0,1.56-2.1C43.73,17.05,43.76,16.8,44.08,16.83Z"/><ellipse class="cls-25" cx="40.07" cy="19.55" rx="1.39" ry="1.05"/><path class="cls-26" d="M40.47,13.11a1.83,1.83,0,0,1-2.18-.42,1.1,1.1,0,0,1-.47-1.11,3.26,3.26,0,0,1,.33-1c-1.74-.06-3,1.16-3.38,3.21a3.42,3.42,0,0,0,0,1.32,1.35,1.35,0,0,1,0,.19,6.83,6.83,0,0,0,2.33,4.33,3.15,3.15,0,0,1,.73.76l.27.18c-.32.23-.63.09-.94,0a6.1,6.1,0,0,1-4-5.49A5.84,5.84,0,0,1,37.7,9.35a5.55,5.55,0,0,1,5.1,1.31,5.83,5.83,0,0,1,1.84,5.73c0,.21-.1.4-.31.46,0,0-.14-.19-.21-.3-.27-.22-.26-.55-.32-.84a6.72,6.72,0,0,0-2-3.52c-.11-.11-.2-.34-.42-.17C41.18,12.47,41,13,40.47,13.11Z"/><path class="cls-27" d="M41.28,11.86c0-.19-.05-.49.24-.23a7.36,7.36,0,0,1,2.44,4c.06.3.11.6.16.9l0,.28c-.39.47-.46,1.1-.82,1.6a4.6,4.6,0,0,1-1.48,1.26,4.57,4.57,0,0,0,.87-3.14c.41.09.22.46.29.62.5-.8.18-1.69.08-2.56a3.11,3.11,0,0,0-1.35-2C41.4,12.45,41.14,12.26,41.28,11.86Z"/><path class="cls-28" d="M53.26,12.6c.28.24.18.32-.13.38a4.88,4.88,0,0,1-2.39-.21,5.42,5.42,0,0,1-3.86-4.64,5.66,5.66,0,0,1,3-5.54,5.53,5.53,0,0,1,7.83,3.31c.15.48.37,1,0,1.5-.19,0-.26-.17-.34-.31a6.65,6.65,0,0,0-3.42-3.16c-.39-.18-.59-.13-.5.35a1.56,1.56,0,0,1-.15.79,1.73,1.73,0,0,1-2.69.57,2,2,0,0,1-.48-.77,2.42,2.42,0,0,1,0-1,3.22,3.22,0,0,0-1.9,3.74A6.12,6.12,0,0,0,49,9.55,7.33,7.33,0,0,0,53,12.43.36.36,0,0,1,53.26,12.6Z"/><path class="cls-29" d="M57.47,7l.21.39a5.06,5.06,0,0,1,.25,2.45A3.59,3.59,0,0,1,55,12.59a7.21,7.21,0,0,1-1.76,0l-.27,0c-.15-.28.09-.35.26-.4a5.47,5.47,0,0,1,1-.31c1,.24,1,.23,1.5-.66a4.09,4.09,0,0,0,1.47-3.51C57.23,7.43,57.13,7.14,57.47,7Z"/><path class="cls-1" d="M76.82,66.24H78c.28,0,.48.09.48.41s-.18.39-.43.39H75.48a.37.37,0,0,1-.42-.4c0-.28.18-.38.43-.39Z"/><path class="cls-1" d="M74.65,71H73.39c-.25,0-.44-.09-.45-.37s.18-.43.46-.43h2.51c.25,0,.44.09.45.37s-.18.43-.46.43Z"/><path class="cls-1" d="M76.65,57.5a4.92,4.92,0,0,1,.52.26c.17.11.15.27,0,.37a1.19,1.19,0,0,1-1,.08.58.58,0,0,1-.44-.65c0-.21-.11-.43-.09-.64s.11-.65.57-.38a.94.94,0,0,0,.36.13c.28,0,.65,0,.72.32S76.87,57.25,76.65,57.5Z"/><path class="cls-1" d="M76.78,63.6c-.42,0-.83,0-1.25-.06a.31.31,0,0,1-.32-.28.31.31,0,0,1,.31-.29A13,13,0,0,1,78,63c.14,0,.32.1.32.28s-.21.29-.37.31c-.39,0-.79,0-1.18,0Z"/><path class="cls-1" d="M76.83,62.65c-.35,0-.71,0-1.06,0a.32.32,0,1,1,0-.64c.73,0,1.46,0,2.18,0,.16,0,.38.09.38.3s-.22.29-.38.3c-.37,0-.75,0-1.12,0Z"/><path class="cls-1" d="M77.28,52.3c.36.06,1-.19,1,.35s-.64.29-1,.29-.84,0-.79.63c0,.17-.08.45-.33.39s-.16-.31-.1-.49a1.32,1.32,0,0,0,.12-.38C76.14,52.3,76.61,52.17,77.28,52.3Z"/><path class="cls-1" d="M77.31,52.05c-.3-.12-.85.2-.85-.33s.51-.38.86-.36,1-.14,1,.33S77.66,52,77.31,52.05Z"/><path class="cls-1" d="M77.83,71c-.28,0-.62,0-.64-.38s.35-.42.66-.42.62,0,.64.37S78.13,71,77.83,71Z"/><path class="cls-1" d="M77.9,50.84c-.26,0-.53-.06-.55-.32s.26-.32.47-.34.49,0,.51.3S78,50.74,77.9,50.84Z"/><path class="cls-1" d="M77.12,37.7a.26.26,0,0,1-.28.23c-.17,0-.3-.1-.28-.28a.2.2,0,0,1,.23-.19C76.93,37.48,77.09,37.53,77.12,37.7Z"/><path class="cls-1" d="M75.84,54.58c.17,0,.25.05.25.18a.29.29,0,0,1-.27.3.17.17,0,0,1-.21-.18A.28.28,0,0,1,75.84,54.58Z"/><path class="cls-30" d="M62.44,32.76l-.25.28c-.34.05-.44-.24-.59-.43a6.22,6.22,0,0,0-1.28-1.24c-.85-.64-1.36-.45-1.6.58a10.25,10.25,0,0,0,.11,3c0,.35.2.69,0,1l-.54.27a3.72,3.72,0,0,1-.92-1,10,10,0,0,0-1.71-1.76c-.76-.61-1.39-.38-1.6.57a10.63,10.63,0,0,0-.25,2.23c0,.19,0,.46-.21.5s-.31-.22-.37-.4a12.37,12.37,0,0,0-.85-1.87c-.18-.32-.4-.7-.84-.66s-.56.45-.69.8a8.1,8.1,0,0,0-.32,1.29c0,.21,0,.45-.22.6h-.25a10.36,10.36,0,0,1-.58-1.67,2.56,2.56,0,0,0-1.37-1.66,6.46,6.46,0,0,1-.48-2.95,3.9,3.9,0,0,1,2.74-2.88,4.91,4.91,0,0,1,5,.89c.13.1.23.27.49.26a7.88,7.88,0,0,1,.3-1.26,2,2,0,0,1,2.71-1.43,9.8,9.8,0,0,1,4.2,2.8.2.2,0,0,1,0,.24,1.37,1.37,0,0,0-.79,1.56A7.85,7.85,0,0,0,62.51,32,.85.85,0,0,1,62.44,32.76Z"/><path class="cls-31" d="M42.11,25.61a73.69,73.69,0,0,0,18.75-5.69l.49-.2c.32,0,.4.26.45.49a22.15,22.15,0,0,1,.52,6.64.57.57,0,0,1-.12.3c-.32.22-.54,0-.77-.17a14.12,14.12,0,0,0-2.05-1.21c-1.69-.7-2.85-.17-3.38,1.57-.24.78-.38.83-1.11.37a5,5,0,0,0-6.56.75c-.4.45-.6,1-1,1.51-.38.22-.63-.05-.87-.25-1.21-1-2.39-2-3.57-3-.25-.22-.51-.42-.76-.63S41.79,25.79,42.11,25.61Z"/><path class="cls-32" d="M42.11,25.61c-.1.15,0,.21.1.31q2.2,1.83,4.37,3.69a1.09,1.09,0,0,0,.68.35c.15.23,0,.47,0,.69a9.65,9.65,0,0,0-.1,3.18,1.27,1.27,0,0,1-.67,1,4.13,4.13,0,0,1-1.06-.67,2.43,2.43,0,0,1-.31-.94,4.13,4.13,0,0,0-.74-1.76,1.34,1.34,0,0,0-2.06-.34c-.18.12-.32.32-.57.29A26,26,0,0,1,38,28c-.36-.38-.72-.78-1.08-1.17-.15-.16-.39-.33-.32-.54s.38-.16.59-.16A43.62,43.62,0,0,0,42.11,25.61Z"/><path class="cls-33" d="M62,27.2c0-.07.12-.15.12-.22a24.53,24.53,0,0,0-.55-6.86,1.41,1.41,0,0,0-.24-.38c2.06-1,4.09-2.05,6.19-3.23a39,39,0,0,1-1.26,7.91,4.84,4.84,0,0,1-1.43,0c-1,.05-1.43.6-1.17,1.58a5.56,5.56,0,0,0,.93,1.81,2,2,0,0,1,.34.71l-.28.54c-.38.16-.71,0-1-.17A7.8,7.8,0,0,1,62,27.2Z"/><path class="cls-34" d="M57.77,36.46a9.74,9.74,0,0,1-3.59.68c-.52-.63-.27-3.29.36-3.73a.74.74,0,0,1,.88,0A8.66,8.66,0,0,1,57.8,36,.37.37,0,0,1,57.77,36.46Z"/><path class="cls-35" d="M61.9,33.44a8.84,8.84,0,0,1-2.66,2.25c-.32-.22-.28-.57-.34-.89A10.88,10.88,0,0,1,58.82,32c.05-.81.59-1.11,1.28-.69A3.81,3.81,0,0,1,61.9,33.44Z"/><path class="cls-36" d="M66.13,24.94a25.08,25.08,0,0,1-.95,3,.25.25,0,0,1-.4-.05,3.89,3.89,0,0,1-1.07-2.28c0-.6.24-.94.83-1S65.69,24.37,66.13,24.94Z"/><path class="cls-37" d="M50.72,36.63a6.74,6.74,0,0,1,.51-2.16c.19-.47.48-.5.77-.11a7.53,7.53,0,0,1,1.08,2.44c.05.18-.11.21-.23.26A7.09,7.09,0,0,1,50.72,36.63Z"/><path class="cls-38" d="M49.42,36.24A9.48,9.48,0,0,1,46.87,35a2.08,2.08,0,0,1,.92-1.31.75.75,0,0,1,1.15.2,5.45,5.45,0,0,1,.79,1.95C49.79,36.09,49.79,36.35,49.42,36.24Z"/><path class="cls-39" d="M44.78,33.84a20.34,20.34,0,0,1-2.67-2,1.22,1.22,0,0,1,1.68-.69A3.31,3.31,0,0,1,45,33.52C45,33.67,45,33.84,44.78,33.84Z"/><path class="cls-36" d="M64.43,29.58a15.86,15.86,0,0,1-1.49,2.63.24.24,0,0,1-.27-.15,3.69,3.69,0,0,1-.2-2.38C62.66,29,63.79,28.92,64.43,29.58Z"/><path class="cls-1" d="M71.82,74.38a3.69,3.69,0,0,0,.38-1.4c.08-.31.58-.31.6-.07.07.61.53,1.16.27,1.8-.12.3-.23.65-.69.54S72,74.75,71.82,74.38Z"/><path class="cls-40" d="M37.85,20.38a7,7,0,0,1-3.2-5.12,4.59,4.59,0,0,1,2.52-3.71c.25-.13.52-.26.8,0a2.34,2.34,0,0,0,.33,1.18,2.89,2.89,0,0,0-2.45,2.86,4.49,4.49,0,0,0,2.21,4.17c.14.1.32.15.37.34C38.29,20.28,37.93,20.07,37.85,20.38Z"/><path class="cls-41" d="M41.28,11.86c0,.35.23.5.47.66A3.3,3.3,0,0,1,43,14a4.91,4.91,0,0,1,.08,3.46,3.1,3.1,0,0,1-.15.29c-.32-.45,0-.9-.29-1.21a4.49,4.49,0,0,0-1.82-3.15l-.35-.29A2.33,2.33,0,0,0,41.28,11.86Z"/><path class="cls-42" d="M38,11.51a3.43,3.43,0,0,0-2.41,1.67,13.39,13.39,0,0,0-.92,2.08h0a5.1,5.1,0,0,1,0-1.49,3.54,3.54,0,0,1,3.89-3.37A2.66,2.66,0,0,0,38,11.51Z"/><path class="cls-40" d="M34.64,13.77q0,.74,0,1.49A2.37,2.37,0,0,1,34.64,13.77Z"/><path class="cls-24" d="M50.64,5.5A1.62,1.62,0,0,0,53.15,5a.44.44,0,0,1,.5,0,4.53,4.53,0,0,1,3.11,3.52,2.52,2.52,0,0,1-.15,1.24,4.49,4.49,0,0,1-1.15,1.06l-.18,0a.79.79,0,0,0-.89.34.64.64,0,0,1-.22.16.88.88,0,0,1-.64,0c.19.16.42,0,.61.15a.18.18,0,0,1,.1.16.25.25,0,0,1-.14.15,4.22,4.22,0,0,1-4.69-4.5C49.51,6.51,49.73,5.73,50.64,5.5Z"/><path class="cls-24" d="M53.57,9.28s-1.32,1.41-1.24,1.65a7.19,7.19,0,0,0,.93,1.22,3.57,3.57,0,0,0,1.41.19c.42,0,1.76-.29,1.9-.68s.75-1.26.51-1.72A1.68,1.68,0,0,0,55.86,9,11.12,11.12,0,0,0,53.57,9.28Z"/><path class="cls-43" d="M50.64,5.5a3.1,3.1,0,0,0-.18,4.6,4.35,4.35,0,0,0,3.75,1.55c.23,0,.2.14.1.28-.39.31-1,.21-1.31.63a6.75,6.75,0,0,1-4.11-2.9,4.41,4.41,0,0,1,.29-3.86,1.48,1.48,0,0,1,1-.93Z"/><path class="cls-44" d="M50.21,4.86a4.46,4.46,0,0,0-1.48,3.81c0,.35.39.61.15,1A4.39,4.39,0,0,1,48,6a3.27,3.27,0,0,1,2.27-2.44A3,3,0,0,0,50.21,4.86Z"/><path class="cls-45" d="M56.44,9.81c.25-.43.1-.91.15-1.37a2.77,2.77,0,0,0-.19-1.77,3.55,3.55,0,0,0-2.29-2.09,1.82,1.82,0,0,1-.83-.38l-.18-.72A6.78,6.78,0,0,1,57.47,7c-.16.32,0,.64,0,1a4.37,4.37,0,0,1-1.31,3.14,1.31,1.31,0,0,1-.35.16c-.41-.16-.21-.4,0-.59A8.4,8.4,0,0,0,56.44,9.81Z"/><path class="cls-46" d="M53.29,4.21a4.12,4.12,0,0,1,3.5,3.12,1.11,1.11,0,0,1-.2,1.12A4.48,4.48,0,0,0,53.15,5Z"/><path class="cls-30" d="M63.63,28.75h-.55a14.19,14.19,0,0,0-3.53-2.54,3.66,3.66,0,0,0-1.33-.36A1.71,1.71,0,0,0,56.42,27,4.77,4.77,0,0,0,56,28.48c0,.13,0,.29-.09.36s-.27-.09-.38-.19a4.87,4.87,0,0,0-3.78-1.45,4.53,4.53,0,0,0-3.86,2.41,2,2,0,0,0-.14.5,9.2,9.2,0,0,0-.33,2.47,2,2,0,0,1-.17,1A.52.52,0,0,1,47,34a7.43,7.43,0,0,1,.25-4,4.74,4.74,0,0,1,3.59-3.18A5.48,5.48,0,0,1,55.55,28c.25-.26.23-.57.32-.83a2.3,2.3,0,0,1,3.31-1.62A13.12,13.12,0,0,1,62,27.2,14.09,14.09,0,0,1,63.63,28.75Z"/><path class="cls-47" d="M47.31,33.6a8.38,8.38,0,0,1,.19-2.86,1.16,1.16,0,0,1,.31-.64,11.26,11.26,0,0,0,.39,3C47.82,33.13,47.6,33.44,47.31,33.6Z"/><ellipse class="cls-25" cx="54.6" cy="11.02" rx="1.39" ry="1.05"/><path class="cls-48" d="M44.07,37.63s5.48,5.67,15.37,2.69c0,0-.87,12.08-5.5,15.7-3.71,2.9-6.57,2.26-7.24-3.22S39,34.41,39,34.41,43.21,37,44.07,37.63Z"/><path class="cls-49" d="M46.72,64.79s6.51,5.28,13.9,4.22c0,0-7.22,10.73-11.26,12.67,0,0-6.34-4.58-7.22-9.33A11.86,11.86,0,0,0,46.72,64.79Z"/><path class="cls-49" d="M37.39,73.94H34.23S26.66,75.7,27,83.26c0,0,2.64,4.22,12.85.7C39.86,84,36,79,37.39,73.94Z"/><path class="cls-50" d="M8.15,73S5,77.1,9.51,78.83s12.62,2.63,12.62,2.63a12.75,12.75,0,0,1,10.35-9.53S21.58,67,8.15,73Z"/><path class="cls-51" d="M12.77,59.36s9.46.08,11.78,3.24l-5.56,4s-12.87-1-17.88,8.53C1.11,75.11,4.64,61.93,12.77,59.36Z"/><path class="cls-1" d="M77,42.58c0-1.93-.21-11.3-.21-11.3s-2.57-4.42-3-5.55a13.46,13.46,0,0,0-2.09-2.92l2.78,7.34C74.51,64,51.36,61.06,48.67,61c-.39.16,0-.23-.41-.08h0A9.08,9.08,0,0,0,53.48,63c1.88.12,2.44.49,2.57.79a.4.4,0,0,1,0,.38l8.61-.55,5.65-3.72,1-.93c1.08-1,2.76-2.47,3.9-3.56a7,7,0,0,0,1.24-1.32C76.43,53.75,77,44.51,77,42.58Z"/><path class="cls-52" d="M44.33,10.37,32.07,10.3s1.72-3.18,2.86-3.7a7,7,0,0,1,6.8.55C43.11,8.12,44.33,8.77,44.33,10.37Z"/><path class="cls-52" d="M46.73.33s-5.36,2-2.78,8.19L45,10,50.22.08A9.85,9.85,0,0,0,46.73.33Z"/><path class="cls-1" d="M33.1,9.49"/><path class="cls-21" d="M44.62,8.54S41.27,1.85,48.57.61C48.57.61,43.48,4.32,44.62,8.54Z"/><path class="cls-21" d="M32.94,9.83a4.86,4.86,0,0,1,5.37-3.45,6,6,0,0,0-1.94,3.51Z"/></g></g></svg>