<svg xmlns="http://www.w3.org/2000/svg" xmlns:xlink="http://www.w3.org/1999/xlink" viewBox="0 0 139.81 100.5"><defs><style>.cls-1{mask:url(#mask);filter:url(#luminosity-noclip-3);}.cls-16,.cls-2,.cls-21,.cls-24,.cls-37,.cls-4,.cls-42,.cls-44,.cls-8{mix-blend-mode:multiply;}.cls-2{fill:url(#linear-gradient);}.cls-3{mask:url(#mask-2);filter:url(#luminosity-noclip-4);}.cls-4{fill:url(#linear-gradient-2);}.cls-5{fill:none;}.cls-6{isolation:isolate;}.cls-7{fill:url(#linear-gradient-3);}.cls-8{fill:#c5c8c9;opacity:0.8;}.cls-9{clip-path:url(#clip-path);}.cls-10{fill:url(#linear-gradient-4);}.cls-11{mask:url(#mask-3);}.cls-12{fill:url(#linear-gradient-5);}.cls-13,.cls-17,.cls-18,.cls-19,.cls-20,.cls-27,.cls-28,.cls-29,.cls-30,.cls-39,.cls-40{fill:#fff;}.cls-14{fill:url(#linear-gradient-6);}.cls-15{fill:#4d2480;}.cls-16,.cls-23,.cls-24,.cls-33,.cls-34,.cls-35,.cls-36{fill:#71479a;}.cls-16,.cls-20,.cls-21,.cls-27,.cls-36,.cls-44{opacity:0.3;}.cls-17,.cls-18,.cls-19,.cls-20,.cls-26,.cls-30{mix-blend-mode:overlay;}.cls-18,.cls-29,.cls-34{opacity:0.7;}.cls-19,.cls-24,.cls-28,.cls-33,.cls-42{opacity:0.5;}.cls-21{fill:#100020;}.cls-22{fill:url(#linear-gradient-7);}.cls-25{fill:url(#radial-gradient);}.cls-30,.cls-35{opacity:0.4;}.cls-31{fill:url(#linear-gradient-8);}.cls-32{fill:#572e91;}.cls-33,.cls-34,.cls-35,.cls-36{mix-blend-mode:screen;}.cls-37,.cls-42,.cls-44{fill:#f68d1f;}.cls-37{opacity:0.9;}.cls-38{fill:url(#radial-gradient-2);}.cls-39{opacity:0.1;}.cls-40{opacity:0.6;}.cls-41{fill:url(#linear-gradient-9);}.cls-43{fill:#784d18;}.cls-45{fill:#c5d3d6;}.cls-46{fill:url(#linear-gradient-10);}.cls-47{fill:url(#linear-gradient-11);}.cls-48{mask:url(#mask-4);}.cls-49{fill:url(#linear-gradient-12);}.cls-50{filter:url(#luminosity-noclip-2);}.cls-51{filter:url(#luminosity-noclip);}</style><filter id="luminosity-noclip" x="5.45" y="-4658.31" width="1.62" height="32766" filterUnits="userSpaceOnUse" color-interpolation-filters="sRGB"><feFlood flood-color="#fff" result="bg"/><feBlend in="SourceGraphic" in2="bg"/></filter><mask id="mask" x="5.45" y="-4658.31" width="1.62" height="32766" maskUnits="userSpaceOnUse"><g class="cls-51"/></mask><linearGradient id="linear-gradient" x1="3375.77" y1="-55.06" x2="3382.66" y2="-55.06" gradientTransform="matrix(0.3, 0.42, -0.56, 0.89, -1029.07, -1326.85)" gradientUnits="userSpaceOnUse"><stop offset="0"/><stop offset="0.41" stop-color="#fff"/><stop offset="0.47" stop-color="#fafafa"/><stop offset="0.54" stop-color="#ececec"/><stop offset="0.62" stop-color="#d5d5d5"/><stop offset="0.7" stop-color="#b4b4b4"/><stop offset="0.79" stop-color="#8a8a8a"/><stop offset="0.88" stop-color="#565656"/><stop offset="0.96" stop-color="#1b1b1b"/><stop offset="1"/></linearGradient><filter id="luminosity-noclip-2" x="11.62" y="-4658.31" width="5.27" height="32766" filterUnits="userSpaceOnUse" color-interpolation-filters="sRGB"><feFlood flood-color="#fff" result="bg"/><feBlend in="SourceGraphic" in2="bg"/></filter><mask id="mask-2" x="11.62" y="-4658.31" width="5.27" height="32766" maskUnits="userSpaceOnUse"><g class="cls-50"/></mask><linearGradient id="linear-gradient-2" x1="1867.22" y1="35.76" x2="1872.8" y2="35.76" gradientTransform="matrix(0.99, 0.37, -0.18, 1.09, -1840.15, -667.84)" xlink:href="#linear-gradient"/><linearGradient id="linear-gradient-3" x1="447.16" y1="386.78" x2="459.46" y2="386.78" gradientTransform="matrix(1, 0.09, -0.09, 1, -406.45, -374.54)" gradientUnits="userSpaceOnUse"><stop offset="0.3" stop-color="#fff"/><stop offset="0.92" stop-color="#e2eaec"/></linearGradient><clipPath id="clip-path"><path class="cls-5" d="M6.88,58.75c2.28,2.45,5.63,1,7.67-2.35,1.87-3.07,3.53-7.25,3.3-10.91-.2-3.06-2-5.32-4.6-4.51S8,44.44,6.45,47.62C4.59,51.38,4.2,55.86,6.88,58.75Z"/></clipPath><linearGradient id="linear-gradient-4" x1="3376.59" y1="-63.85" x2="3381.49" y2="-51.12" gradientTransform="matrix(0.3, 0.42, -0.56, 0.89, -1029.07, -1326.85)" gradientUnits="userSpaceOnUse"><stop offset="0" stop-color="#690044"/><stop offset="0.39" stop-color="#ab00bb"/><stop offset="1" stop-color="#4a5993"/></linearGradient><filter id="luminosity-noclip-3" x="5.45" y="48.97" width="1.62" height="5.83" filterUnits="userSpaceOnUse" color-interpolation-filters="sRGB"><feFlood flood-color="#fff" result="bg"/><feBlend in="SourceGraphic" in2="bg"/></filter><mask id="mask-3" x="5.45" y="48.97" width="1.62" height="5.83" maskUnits="userSpaceOnUse"><g class="cls-1"><path class="cls-2" d="M6.34,54.78c.23-.05.56-.36.69-1,.1-.42,0-.57-.09-.62s-.55.2-.69-.14a4.4,4.4,0,0,1,0-2.71c.28-1,.41-1.4.16-1.31a5.6,5.6,0,0,0-.78,2.19,5.66,5.66,0,0,0,.14,3.11c.13.29.3.53.54.53Z"/></g></mask><linearGradient id="linear-gradient-5" x1="3375.77" y1="-55.06" x2="3382.66" y2="-55.06" gradientTransform="matrix(0.3, 0.42, -0.56, 0.89, -1029.07, -1326.85)" gradientUnits="userSpaceOnUse"><stop offset="0" stop-color="#690044"/><stop offset="0.41" stop-color="#6b7fcc"/><stop offset="0.5" stop-color="#6b7ac7"/><stop offset="0.61" stop-color="#6b6db9"/><stop offset="0.72" stop-color="#6a56a2"/><stop offset="0.84" stop-color="#6a3681"/><stop offset="0.96" stop-color="#690d58"/><stop offset="1" stop-color="#69004a"/></linearGradient><linearGradient id="linear-gradient-6" x1="85.94" y1="52.57" x2="139.86" y2="37.26" gradientUnits="userSpaceOnUse"><stop offset="0" stop-color="#3c1965"/><stop offset="0.16" stop-color="#552e7e"/><stop offset="0.31" stop-color="#71479a"/><stop offset="0.39" stop-color="#795191"/><stop offset="0.52" stop-color="#8f6b7a"/><stop offset="0.69" stop-color="#b29653"/><stop offset="0.89" stop-color="#e3d01f"/><stop offset="1" stop-color="#fff200"/></linearGradient><linearGradient id="linear-gradient-7" x1="14.22" y1="13.24" x2="83.31" y2="45.12" gradientUnits="userSpaceOnUse"><stop offset="0.05" stop-color="#fff200"/><stop offset="0.06" stop-color="#fbed05"/><stop offset="0.16" stop-color="#d6c12c"/><stop offset="0.27" stop-color="#b79b4e"/><stop offset="0.39" stop-color="#9e7d6a"/><stop offset="0.5" stop-color="#8a657f"/><stop offset="0.63" stop-color="#7c548e"/><stop offset="0.76" stop-color="#744a97"/><stop offset="0.93" stop-color="#71479a"/></linearGradient><radialGradient id="radial-gradient" cx="1912.55" cy="-2880.91" r="10.78" gradientTransform="translate(-8364.78 12736.63) scale(4.4 4.4)" gradientUnits="userSpaceOnUse"><stop offset="0.69" stop-color="#71479a"/><stop offset="0.72" stop-color="#7a5290"/><stop offset="0.78" stop-color="#926e77"/><stop offset="0.84" stop-color="#b89d4d"/><stop offset="0.92" stop-color="#eddc13"/><stop offset="0.95" stop-color="#fff200"/></radialGradient><linearGradient id="linear-gradient-8" x1="0.06" y1="56.8" x2="96.78" y2="56.8" gradientUnits="userSpaceOnUse"><stop offset="0.78" stop-color="#fff02e"/><stop offset="0.83" stop-color="#feec2e"/><stop offset="0.88" stop-color="#fcdf2e"/><stop offset="0.92" stop-color="#f8c92e"/><stop offset="0.97" stop-color="#f2ac2f"/><stop offset="1" stop-color="#ef992f"/></linearGradient><radialGradient id="radial-gradient-2" cx="1907.72" cy="-2881.77" r="3.32" gradientTransform="translate(-8364.78 12736.63) scale(4.4 4.4)" gradientUnits="userSpaceOnUse"><stop offset="0.26" stop-color="#300e45"/><stop offset="0.6" stop-color="#5b3283"/><stop offset="0.75" stop-color="#5d3483"/><stop offset="0.8" stop-color="#623b82"/><stop offset="0.85" stop-color="#6d4781"/><stop offset="0.88" stop-color="#7b5880"/><stop offset="0.91" stop-color="#8e6f7e"/><stop offset="0.94" stop-color="#a58b7c"/><stop offset="0.96" stop-color="#c1ac79"/><stop offset="0.98" stop-color="#e0d176"/><stop offset="1" stop-color="#faf074"/></radialGradient><linearGradient id="linear-gradient-9" y1="61.47" x2="30.76" y2="61.47" gradientUnits="userSpaceOnUse"><stop offset="0" stop-color="#ef992f"/><stop offset="0.06" stop-color="#f4b22f"/><stop offset="0.14" stop-color="#fad42e"/><stop offset="0.21" stop-color="#fee92e"/><stop offset="0.26" stop-color="#fff02e"/></linearGradient><linearGradient id="linear-gradient-10" x1="8755.57" y1="-209.62" x2="8772.81" y2="-209.62" gradientTransform="matrix(-0.79, -0.09, -0.1, 0.99, 6948.76, 1037.71)" gradientUnits="userSpaceOnUse"><stop offset="0.56" stop-color="#fff"/><stop offset="1" stop-color="#e2eaec"/></linearGradient><linearGradient id="linear-gradient-11" x1="1868.13" y1="25.92" x2="1873.22" y2="39.11" gradientTransform="matrix(0.99, 0.37, -0.18, 1.09, -1840.15, -667.84)" xlink:href="#linear-gradient-4"/><filter id="luminosity-noclip-4" x="11.62" y="50.69" width="5.27" height="5.89" filterUnits="userSpaceOnUse" color-interpolation-filters="sRGB"><feFlood flood-color="#fff" result="bg"/><feBlend in="SourceGraphic" in2="bg"/></filter><mask id="mask-4" x="11.62" y="50.69" width="5.27" height="5.89" maskUnits="userSpaceOnUse"><g class="cls-3"><path class="cls-4" d="M16.08,56.43a1.36,1.36,0,0,0,.77-1.51c-.12-.48-.38-.58-.65-.55a1.84,1.84,0,0,1-1.59.38,3.36,3.36,0,0,1-2.09-2.59c-.12-1.16-.12-1.66-.6-1.39s-.33,1.89-.09,2.7a4.41,4.41,0,0,0,2.55,2.91,2.27,2.27,0,0,0,1.56.1Z"/></g></mask><linearGradient id="linear-gradient-12" x1="1867.22" y1="35.76" x2="1872.8" y2="35.76" gradientTransform="matrix(0.99, 0.37, -0.18, 1.09, -1840.15, -667.84)" xlink:href="#linear-gradient-5"/></defs><title>fish1</title><g class="cls-6"><g id="Layer_2" data-name="Layer 2"><g id="Layer_2-2" data-name="Layer 2"><path class="cls-7" d="M17.84,45.49a7.61,7.61,0,0,0-.14-1.07,1.46,1.46,0,0,0-.06-.27,1,1,0,0,0,0-.15,4.86,4.86,0,0,0-1.29-2.36,2.91,2.91,0,0,0-1-.64.69.69,0,0,0-.18-.05l-.09,0-.05,0-.08,0-.09,0a3.28,3.28,0,0,0-1.58.11c-2.66.79-5.24,3.46-6.8,6.63-1.74,3.52-2.2,7.67-.06,10.55l0,.06a.08.08,0,0,1,0,0c.13.16.27.32.41.48l.07.07a4.09,4.09,0,0,0,.49.43,3.75,3.75,0,0,0,4.48-.05,5.47,5.47,0,0,0,.57-.41,8.86,8.86,0,0,0,1.76-1.94h0c.1-.14.19-.28.28-.43.41-.67.81-1.4,1.18-2.16.09-.18.18-.37.27-.56.2-.42.38-.85.55-1.29.25-.62.47-1.26.66-1.9.09-.31.17-.63.25-.95s.19-.85.25-1.26A13,13,0,0,0,17.84,45.49Z"/><path class="cls-8" d="M17.84,45.49a7.61,7.61,0,0,0-.14-1.07,1.46,1.46,0,0,0-.06-.27,1,1,0,0,0,0-.15,4.86,4.86,0,0,0-1.29-2.36,2.91,2.91,0,0,0-1-.64.69.69,0,0,0-.18-.05l-.09,0-.05,0-.08,0-.09,0a3.28,3.28,0,0,0-1.58.11c-2.66.79-5.24,3.46-6.8,6.63-1.74,3.52-2.2,7.67-.06,10.55l0,.06a.08.08,0,0,1,0,0c.13.16.27.32.41.48l.07.07a4.09,4.09,0,0,0,.49.43,3.75,3.75,0,0,0,4.48-.05,5.47,5.47,0,0,0,.57-.41,8.86,8.86,0,0,0,1.76-1.94h0c.1-.14.19-.28.28-.43.41-.67.81-1.4,1.18-2.16.09-.18.18-.37.27-.56.2-.42.38-.85.55-1.29.25-.62.47-1.26.66-1.9.09-.31.17-.63.25-.95s.19-.85.25-1.26A13,13,0,0,0,17.84,45.49Zm-11,1.64a10.63,10.63,0,0,1,4.44-4.81c.69-.39.8.27.7,1.22h0c-.12,1.13-.54,2.67-.64,3.36a17.17,17.17,0,0,1-1.78,5.59l0,0c-1.17,2.12-2.49,2.86-3,1.64A8.59,8.59,0,0,1,6.82,47.13Z"/><g class="cls-9"><path class="cls-10" d="M8.9,52c-1.22,2.82-2.72,4-3.35,2.65s-.14-4.72,1.08-7.53,2.72-4,3.35-2.65S10.13,49.14,8.9,52Z"/><path d="M8.45,51c-.73,1.7-1.63,2.4-2,1.6s-.08-2.83.65-4.52,1.63-2.4,2-1.59S9.19,49.3,8.45,51Z"/><g class="cls-11"><path class="cls-12" d="M6.34,54.78c.23-.05.56-.36.69-1,.1-.42,0-.57-.09-.62s-.55.2-.69-.14a4.4,4.4,0,0,1,0-2.71c.28-1,.41-1.4.16-1.31a5.6,5.6,0,0,0-.78,2.19,5.66,5.66,0,0,0,.14,3.11c.13.29.3.53.54.53Z"/></g><path class="cls-13" d="M10.27,45.28c.12-2-.6-1-1.11.44s-.77,3.67-.32,4.3S10.1,47.92,10.27,45.28Z"/></g><path class="cls-14" d="M92.45,45.83s-.95-2.78-.41-4.62S91.87,29,99,21.9,119.38,12.46,121.75,0c0,0,1.53,25-7.47,34.72-10.13,11-15.68,8.44-14.79,12.87,0,0,3.42.71,5.44,8.09s3.77,14.11,12,15.11,18.66-9.68,22.91,2.72a5.6,5.6,0,0,0-4.72-1.77c-2.95.35-3.48,2.24-6.32,5.73s-7.91,10.39-18.54,8.86S91,75.29,90.54,60.67l-3.87-4.22Z"/><path class="cls-15" d="M96.16,50.39a2.5,2.5,0,0,1,.06-.34,6.51,6.51,0,0,1,.27-.92,9.88,9.88,0,0,1,1.76-3,13.53,13.53,0,0,1,1.64-1.64A15.22,15.22,0,0,1,102,43.06l1.19-.66c.41-.22.82-.43,1.22-.68l.61-.35.59-.38c.4-.25.8-.51,1.19-.77s.79-.54,1.17-.81.77-.56,1.14-.84c.74-.56,1.45-1.15,2.12-1.72s1.31-1.16,1.89-1.72c.3-.28.58-.57.84-.84s.52-.55.76-.81.46-.52.67-.77.41-.48.58-.71l.49-.64.38-.57c.24-.34.39-.63.51-.82l.17-.29-.16.31c-.11.2-.24.5-.47.85l-.37.59-.46.67c-.16.24-.36.47-.55.74s-.42.53-.66.8-.47.56-.74.83-.53.58-.83.87c-.57.59-1.19,1.19-1.87,1.77s-1.38,1.18-2.13,1.76c-.38.29-.75.58-1.14.86s-.77.56-1.17.82-.79.52-1.2.77l-.61.37-.61.35c-.41.24-.83.46-1.22.67s-.81.43-1.2.64a17.84,17.84,0,0,0-2.12,1.4,13.57,13.57,0,0,0-1.65,1.56,10.8,10.8,0,0,0-1.16,1.55,10.6,10.6,0,0,0-.69,1.32,9.08,9.08,0,0,0-.32.91A3.25,3.25,0,0,0,96.16,50.39Z"/><path class="cls-15" d="M93.46,46.23q0-1.82.08-3.63h0a32.66,32.66,0,0,1,.35-6.67,30.37,30.37,0,0,1,.68-3.29,23.14,23.14,0,0,1,1.08-3.18,16.48,16.48,0,0,1,3.79-5.57l.64-.56c.22-.18.45-.35.68-.52.48-.33.93-.61,1.4-.92.94-.6,1.92-1.16,2.9-1.68L108,18.63c.49-.26,1-.53,1.45-.81l.71-.41.69-.44.7-.44.67-.48.67-.48.64-.52.63-.52c.21-.18.39-.38.59-.57a13.06,13.06,0,0,0,1.15-1.17l.54-.62a6.15,6.15,0,0,0,.51-.65l1-1.34a27,27,0,0,0,1.57-2.9l.35-.75.18-.38.15-.38.58-1.56c.21-.51.33-1.05.5-1.58l.48-1.59-.38,1.62a15.83,15.83,0,0,1-.43,1.61l-.52,1.59-.13.4c0,.13-.1.25-.16.38l-.32.77a26.45,26.45,0,0,1-1.5,3l-.94,1.39a5.53,5.53,0,0,1-.51.67l-.53.65a14.16,14.16,0,0,1-1.15,1.24c-.2.2-.39.41-.6.59l-.64.55-.65.55-.68.49-.68.5-.7.45-.71.46-.72.42c-.48.28-1,.57-1.45.83l-2.91,1.61c-1,.55-1.91,1.09-2.85,1.67-.46.3-.95.6-1.39.89l-.64.48-.62.52a15.85,15.85,0,0,0-3.69,5.33,25.82,25.82,0,0,0-1.13,3.09A29.33,29.33,0,0,0,94.33,36c-.2,1.08-.34,2.18-.44,3.28a30.53,30.53,0,0,0-.15,3.31h0C93.65,43.81,93.56,45,93.46,46.23Z"/><path class="cls-15" d="M94.79,46.32,94,42.88h0a27.11,27.11,0,0,1,.26-3.23,30.33,30.33,0,0,1,.62-3.19l.21-.78.23-.78c.15-.52.35-1,.53-1.55s.41-1,.62-1.5l.36-.73c.12-.25.24-.49.39-.72A14.56,14.56,0,0,1,98.1,29l.46-.68.5-.63a26.41,26.41,0,0,1,2.18-2.42,27.34,27.34,0,0,1,2.49-2.11,28.7,28.7,0,0,1,2.73-1.77c.93-.55,1.9-1,2.86-1.54.47-.25.95-.5,1.41-.79.23-.13.44-.28.67-.43s.46-.3.67-.45a28.58,28.58,0,0,0,2.51-2,25,25,0,0,0,2.28-2.27l.53-.61.49-.63c.35-.42.62-.87.93-1.32s.55-.92.81-1.38l.35-.73.18-.36c.06-.12.09-.25.14-.37l.29-.75c.1-.25.16-.52.24-.77s.15-.52.21-.78l.14-.79.07-.4c0-.13,0-.26,0-.4l.06-.81,0-.2v-.2l0-.4,0-.81.07.81,0,.4v.4l0,.81c0,.13,0,.27,0,.4l-.07.4-.11.8c0,.27-.13.53-.2.79s-.12.53-.22.78l-.28.77a6.32,6.32,0,0,1-.31.75l-.34.73c-.26.47-.52,1-.81,1.41s-.58.92-.92,1.34l-.49.66-.53.62a25.59,25.59,0,0,1-2.27,2.33,31.48,31.48,0,0,1-2.54,2l-.67.46c-.22.15-.44.31-.69.44-.46.29-.94.55-1.41.8-1,.51-1.91,1-2.84,1.54s-1.83,1.13-2.69,1.75a27.15,27.15,0,0,0-2.46,2.07,25.37,25.37,0,0,0-2.16,2.38l-.5.64-.45.66a13.11,13.11,0,0,0-.85,1.35,6,6,0,0,0-.38.71l-.37.71c-.22.48-.44,1-.64,1.48s-.39,1-.54,1.52l-.24.77-.21.77a31.8,31.8,0,0,0-.67,3.16,27.83,27.83,0,0,0-.34,3.21h0Z"/><path class="cls-15" d="M95.11,48.77s0,0,0,0a.16.16,0,0,0,.12,0,.79.79,0,0,0,.4-.22,1,1,0,0,0,.3-.68,2.09,2.09,0,0,0,0-.47,2,2,0,0,1,0-.56,3.73,3.73,0,0,1,.39-1.27,7.67,7.67,0,0,1,.82-1.31,12.24,12.24,0,0,1,2.68-2.56c.27-.2.58-.37.87-.57s.62-.37.94-.53l1-.49c.34-.16.67-.33,1-.51a34,34,0,0,0,4.05-2.55,31.58,31.58,0,0,0,3.87-3.34,27.84,27.84,0,0,0,3.3-4.11A25.47,25.47,0,0,0,117.27,25c.15-.41.31-.81.47-1.22s.26-.82.39-1.23l.77-2.44.6-2.38.3-1.15c.08-.38.15-.77.23-1.14.15-.75.3-1.48.45-2.19s.22-1.4.33-2.06c0-.33.1-.65.15-1s.08-.63.11-.93c.07-.61.15-1.19.22-1.73s.09-1,.12-1.52.09-.9.1-1.29c0-.78.07-1.4.06-1.82V2.3l0,.64c0,.42,0,1,0,1.82,0,.39,0,.83,0,1.3s0,1-.06,1.53-.08,1.13-.14,1.74c0,.3-.05.62-.08.94s-.09.65-.13,1q-.14,1-.27,2.08c-.13.72-.26,1.46-.39,2.22-.07.38-.14.77-.21,1.16l-.27,1.17c-.18.8-.38,1.61-.58,2.42l-.75,2.45c-.13.42-.24.82-.39,1.26l-.47,1.24a25.85,25.85,0,0,1-2.5,4.79A28.63,28.63,0,0,1,112,34.22a32.72,32.72,0,0,1-4,3.38,29.4,29.4,0,0,1-4.19,2.51c-.35.18-.69.34-1,.49l-1,.45c-.32.15-.62.33-.93.48s-.59.34-.86.54a12.53,12.53,0,0,0-2.7,2.39,7.1,7.1,0,0,0-.85,1.24A3.63,3.63,0,0,0,96,46.89c-.06.37.08.73,0,1a1.1,1.1,0,0,1-.36.69.82.82,0,0,1-.43.21c-.05,0-.1,0-.12,0S95.12,48.77,95.11,48.77Z"/><path class="cls-15" d="M94.76,47.18l.86-1.25h0A4.73,4.73,0,0,1,96,44.49l.29-.69c.11-.22.24-.43.36-.65s.23-.44.37-.65l.43-.6a11.27,11.27,0,0,1,.92-1.17l1-1.11c.35-.36.72-.69,1.07-1s.72-.69,1.09-1,.76-.64,1.15-.94c.78-.62,1.58-1.21,2.37-1.79s1.59-1.18,2.36-1.78a50.15,50.15,0,0,0,4.46-3.87c.7-.69,1.37-1.41,2-2.16.31-.37.63-.75.93-1.15s.59-.78.87-1.19.54-.82.82-1.22.51-.84.75-1.27c.47-.86.93-1.73,1.32-2.64.2-.44.4-.9.57-1.36l.27-.68.24-.7.23-.7.21-.71.2-.71.18-.72c.12-.48.24-1,.33-1.44s.21-1,.28-1.46.16-1,.22-1.46l.18-1.47-.13,1.47c0,.5-.12,1-.19,1.47s-.16,1-.25,1.47-.18,1-.29,1.45l-.17.72-.2.72-.2.72-.23.7-.22.71-.26.7c-.17.47-.36.93-.55,1.39a28.39,28.39,0,0,1-1.3,2.68c-.24.43-.49.85-.75,1.28s-.53.84-.82,1.25-.57.82-.87,1.2-.61.78-.93,1.17c-.64.76-1.31,1.5-2,2.19s-1.44,1.37-2.19,2-1.53,1.27-2.31,1.87c-1.57,1.21-3.19,2.34-4.76,3.53q-.58.44-1.15.92c-.38.32-.73.65-1.1,1s-.73.66-1.08,1l-1,1.09A11.3,11.3,0,0,0,97.55,42l-.44.59c-.13.2-.26.41-.38.63s-.26.42-.38.64l-.3.67a4.46,4.46,0,0,0-.37,1.41h0Z"/><path class="cls-15" d="M94.17,48.09l.59-2.16c.1-.35.2-.72.32-1.14s.24-.87.41-1.34a22.29,22.29,0,0,1,1.37-3.06A23.88,23.88,0,0,1,99,37.06a25.06,25.06,0,0,1,3-3.27c.28-.28.58-.51.88-.76s.61-.52.91-.75l1.88-1.46q1.91-1.46,3.79-3l.91-.79.46-.4.44-.41.87-.82.83-.87.41-.42.38-.45.76-.9.68-.93a9.75,9.75,0,0,0,.66-.93c.39-.64.82-1.26,1.15-1.91l.51-.95c.18-.31.3-.64.45-1a39,39,0,0,0,1.47-3.63c.36-1.16.73-2.22,1-3.18s.49-1.78.62-2.49l.47-2.19s-.12.8-.34,2.21c-.1.71-.29,1.55-.5,2.52s-.51,2.06-.84,3.25a35,35,0,0,1-1.37,3.72c-.15.32-.26.66-.44,1l-.5,1a22.49,22.49,0,0,1-1.14,2c-.19.33-.42.64-.65,1l-.69,1-.76.93-.39.46-.41.44-.84.89-.88.85-.44.42-.47.4-.92.81c-1.27,1-2.55,2-3.83,3l-1.9,1.44c-.32.24-.61.48-.91.72s-.6.47-.88.73a26.55,26.55,0,0,0-3,3.14,24.92,24.92,0,0,0-3.71,6.15c-.19.46-.35.9-.47,1.3L94.89,46C94.43,47.32,94.17,48.09,94.17,48.09Z"/><path class="cls-15" d="M93.11,48.18l1.54-4.09v0a14.23,14.23,0,0,1,.49-2.92,17.09,17.09,0,0,1,1-2.79c.19-.46.45-.88.68-1.32s.51-.85.8-1.25a16.73,16.73,0,0,1,1.9-2.29,21.32,21.32,0,0,1,2.23-2l2.33-1.82c.77-.6,1.54-1.22,2.3-1.84l1.13-.94c.37-.32.76-.63,1.11-1l1.1-1,1.07-1c.36-.33.7-.69,1-1s.69-.69,1-1.07c.65-.73,1.32-1.45,1.91-2.23s1.2-1.55,1.79-2.35c.29-.39.54-.82.82-1.23s.54-.82.77-1.25l.72-1.29c.12-.21.23-.44.33-.66l.32-.67.32-.66.16-.33.14-.34.54-1.37c.19-.45.32-.93.47-1.39l.45-1.41-.4,1.42a13.63,13.63,0,0,1-.44,1.41l-.51,1.38-.12.35-.15.34-.31.68c-.21.44-.39.91-.63,1.34l-.71,1.3c-.22.44-.5.85-.76,1.28s-.51.85-.8,1.25c-.57.8-1.13,1.63-1.75,2.38s-1.27,1.52-1.93,2.25c-.32.38-.67.72-1,1.08s-.68.71-1,1.05l-1.07,1-1.1,1c-.36.34-.74.65-1.11,1s-.75.64-1.14.95c-.76.63-1.53,1.24-2.31,1.84L102,31.82a23.33,23.33,0,0,0-2.21,1.93A18.84,18.84,0,0,0,97.87,36c-.28.39-.54.81-.8,1.22s-.5.85-.69,1.29a16.47,16.47,0,0,0-1.06,2.74,13.82,13.82,0,0,0-.55,2.89h0Z"/><path class="cls-15" d="M92.93,49.77c.15-1.16.31-2.31.48-3.47l.49-3.47v0a12.24,12.24,0,0,1,.31-2.76c0-.23.1-.45.17-.67s.12-.45.19-.66c.15-.44.27-.88.45-1.3s.34-.86.56-1.27A12.73,12.73,0,0,1,96.22,35a21.61,21.61,0,0,1,1.52-2.31l.87-1.07c.29-.36.62-.68.94-1l.47-.51.52-.46c.34-.31.67-.63,1-.92.73-.56,1.44-1.16,2.18-1.68s1.47-1.08,2.19-1.62,1.42-1.11,2.15-1.67,1.41-1.13,2.09-1.72,1.37-1.19,2-1.79,1.33-1.22,2-1.87c.33-.31.64-.63,1-1s.63-.65.93-1c.61-.67,1.19-1.36,1.76-2.07.28-.35.57-.7.82-1.08l.4-.55.37-.57a22.4,22.4,0,0,0,1.32-2.38,18.39,18.39,0,0,1-1.19,2.46c-.11.2-.22.4-.34.6l-.37.58c-.24.38-.51.76-.77,1.13q-.8,1.12-1.69,2.16c-.29.36-.6.69-.9,1s-.62.68-.94,1c-.62.67-1.28,1.3-1.94,1.94s-1.34,1.24-2,1.84-1.39,1.19-2.09,1.77-1.41,1.15-2.14,1.69-1.45,1.11-2.19,1.64-1.43,1.1-2.15,1.64c-.34.29-.66.6-1,.9l-.5.45-.47.48c-.3.32-.63.64-.92,1l-.86,1a22.33,22.33,0,0,0-1.51,2.22c-.25.38-.44.78-.65,1.18s-.38.8-.57,1.22-.32.83-.48,1.24-.27.86-.38,1.3a12.12,12.12,0,0,0-.4,2.64v0h0l-.66,3.44C93.38,47.48,93.17,48.63,92.93,49.77Z"/><path class="cls-15" d="M91.63,57.1s0,.62.12,1.69c.05.54.14,1.19.26,1.92s.29,1.57.48,2.47l.34,1.4c.14.47.28,1,.41,1.48s.31,1,.49,1.55.36,1.06.56,1.6.41,1.08.64,1.63l.72,1.64.78,1.63.91,1.61c.32.51.67,1,1,1.51s.76.94,1.13,1.4.81.87,1.21,1.29L102,81.12l1.32,1c.45.31.89.63,1.34.91s.88.54,1.31.78.85.47,1.26.66a24.79,24.79,0,0,0,4.14,1.63c.51.14.93.25,1.21.31l.44.06-.44,0c-.29,0-.71-.09-1.24-.2A22.84,22.84,0,0,1,107,84.88c-.43-.18-.87-.4-1.33-.62s-.9-.49-1.37-.75-.91-.58-1.4-.88-.91-.68-1.38-1-.9-.78-1.35-1.18-.86-.86-1.27-1.32-.8-1-1.18-1.46-.72-1-1.06-1.56l-.89-1.62L95,72.77c-.25-.56-.47-1.13-.7-1.68s-.42-1.12-.61-1.67-.36-1.09-.54-1.63-.3-1.07-.44-1.59-.25-1-.36-1.51l-.28-1.42c-.08-.46-.15-.9-.21-1.32s-.11-.82-.14-1.2c-.07-.75-.12-1.4-.13-2s0-1,0-1.26S91.63,57.1,91.63,57.1Z"/><path class="cls-15" d="M93.22,56.63l-.17,4.55v0c.28.88.59,1.76.91,2.63s.66,1.73,1,2.59.74,1.71,1.13,2.55l.6,1.25.64,1.24c.43.82.87,1.64,1.37,2.42.24.4.48.79.75,1.18s.5.78.79,1.14.55.74.84,1.1l.9,1.05c.32.32.65.67,1,1s.68.61,1,.9.73.56,1.11.82.77.52,1.17.75.8.44,1.22.65l1.26.56,1.31.48,1.34.36c.45.11.9.17,1.35.26a5.43,5.43,0,0,0,.69.09l.69.06a11.76,11.76,0,0,0,1.38.06h.7l.69-.06a20.28,20.28,0,0,0,2.74-.39l1.34-.36.34-.09.33-.12.65-.24.66-.24c.21-.08.42-.19.63-.29l1.26-.59-1.25.64c-.21.1-.41.21-.63.3l-.65.26-.65.26-.32.13-.33.1L119.7,84a20.12,20.12,0,0,1-2.76.45l-.7.06h-.7a11.47,11.47,0,0,1-1.4,0l-.7-.05a5.41,5.41,0,0,1-.7-.08c-.46-.08-.92-.15-1.39-.25L110,83.72l-1.33-.46-1.29-.57c-.42-.21-.83-.44-1.24-.66s-.79-.51-1.19-.75-.76-.56-1.14-.84-.72-.61-1.07-.92-.65-.64-1-1l-.91-1.07c-.3-.36-.57-.75-.85-1.12s-.52-.78-.79-1.16-.51-.78-.75-1.19c-.5-.8-.93-1.62-1.37-2.44l-.63-1.25L95.84,69c-.37-.85-.74-1.71-1.09-2.58s-.66-1.74-1-2.62-.6-1.77-.85-2.66h0Z"/><path class="cls-15" d="M132.84,72.62l-.49.43L131,74.31l-2,2c-.75.8-1.56,1.74-2.48,2.74A10.75,10.75,0,0,1,125,80.59a8.81,8.81,0,0,1-2,1.12,14.77,14.77,0,0,1-4.88.93,23.34,23.34,0,0,1-10.48-2.15,14.85,14.85,0,0,1-4.48-3.18,21.12,21.12,0,0,1-1.78-2l-.77-1.07-.69-1.1a29.47,29.47,0,0,1-2.12-4.45c-.57-1.46-1-2.86-1.5-4.13a21.53,21.53,0,0,0-1.48-3.36c-.54-.94-1.21-1.65-1.61-2.35a2.51,2.51,0,0,1-.41-1,.35.35,0,0,1,.22-.38.82.82,0,0,1,.37,0,2.3,2.3,0,0,1,.47.13l.15.06-.16-.05a2.5,2.5,0,0,0-.47-.1.72.72,0,0,0-.33,0,.27.27,0,0,0-.16.32,2.54,2.54,0,0,0,.44.93c.42.66,1.11,1.33,1.72,2.28A19.37,19.37,0,0,1,96.6,64.4c.49,1.26,1,2.64,1.6,4.08a33.91,33.91,0,0,0,2.17,4.32l.69,1.07.77,1a20,20,0,0,0,1.74,1.94,14.44,14.44,0,0,0,4.31,3,22.34,22.34,0,0,0,5,1.69A21.91,21.91,0,0,0,118,82a15.3,15.3,0,0,0,4.72-.81,8.29,8.29,0,0,0,2-1,10.39,10.39,0,0,0,1.52-1.4c.94-1,1.79-1.89,2.59-2.66l2.1-1.95L132.33,73Z"/><path class="cls-15" d="M139.46,72.8a3.94,3.94,0,0,0-1.19-1.5,4.76,4.76,0,0,0-1.73-.85c-.15-.05-.31-.06-.47-.1a2.53,2.53,0,0,0-.48-.07l-.47,0h-.49a8.46,8.46,0,0,0-1,.08l-.24,0-.24.05a2.37,2.37,0,0,0-.46.12,9.53,9.53,0,0,0-3.16,2.14c-.94.89-1.84,1.82-2.78,2.72a23.37,23.37,0,0,1-3,2.5,13.44,13.44,0,0,1-3.52,1.73,11.8,11.8,0,0,1-3.89.51c-.33,0-.65,0-1-.06s-.65-.09-1-.13l-1-.21-.95-.27a19.55,19.55,0,0,1-6.74-3.92,27.21,27.21,0,0,1-5.07-5.92,28.46,28.46,0,0,1-3.2-7.1,23.54,23.54,0,0,1-.89-7.71l0,0L94,54.73l2.67,0h0v0a24.12,24.12,0,0,0,1,7.65,28.07,28.07,0,0,0,3.26,7,26.93,26.93,0,0,0,5,5.83,19.58,19.58,0,0,0,6.62,3.84l.93.27c.31.06.62.14.93.2s.65.1,1,.14.64.07,1,.07a11.69,11.69,0,0,0,3.79-.49,13.1,13.1,0,0,0,3.44-1.68,23.76,23.76,0,0,0,3-2.44c.94-.88,1.85-1.81,2.81-2.68a16.64,16.64,0,0,1,1.52-1.24,6.61,6.61,0,0,1,1.74-.9,4.2,4.2,0,0,1,.48-.12l.24,0,.25,0a7.3,7.3,0,0,1,1-.05h.49l.49.05a8.43,8.43,0,0,1,1,.2,4.93,4.93,0,0,1,1.73.89A4,4,0,0,1,139.46,72.8Z"/><path class="cls-15" d="M96.83,48.09s.18.06.51.2A11.89,11.89,0,0,1,98.7,49a13,13,0,0,1,1.89,1.48,14.24,14.24,0,0,1,2,2.4,16.31,16.31,0,0,1,1.64,3.31c.1.31.21.62.32.94s.19.65.3,1c.19.66.4,1.32.62,2,.44,1.35.92,2.74,1.48,4.12a32,32,0,0,0,2,4.06,17.23,17.23,0,0,0,2.67,3.59,9.65,9.65,0,0,0,3.59,2.35,15.38,15.38,0,0,0,4,.83,18,18,0,0,0,3.65-.08,16.08,16.08,0,0,0,3-.63l.63-.21.58-.23a8,8,0,0,0,1-.46,7.94,7.94,0,0,0,.76-.45c.11-.07.22-.13.3-.2l.23-.18.42-.34-.41.36-.22.2c-.09.07-.19.13-.29.21a7.71,7.71,0,0,1-.75.48,10.27,10.27,0,0,1-1,.5l-.58.24-.64.23a6.26,6.26,0,0,1-.69.21l-.73.2c-.52.1-1,.22-1.62.29a18.85,18.85,0,0,1-3.69.14,14.57,14.57,0,0,1-4.05-.8,10,10,0,0,1-3.7-2.4,17.71,17.71,0,0,1-2.75-3.64,32.81,32.81,0,0,1-2-4.12c-.55-1.39-1-2.79-1.47-4.14-.21-.68-.42-1.35-.6-2-.1-.32-.18-.65-.29-1s-.19-.63-.29-.94A15.67,15.67,0,0,0,102.42,53a15.18,15.18,0,0,0-1.92-2.41,13.52,13.52,0,0,0-1.84-1.52A9.43,9.43,0,0,0,96.83,48.09Z"/><path class="cls-15" d="M95.06,49.48a2.39,2.39,0,0,1,.53-.16,3.43,3.43,0,0,1,1.56.09,5,5,0,0,1,2.07,1.28,10,10,0,0,1,1,1.16,15.52,15.52,0,0,1,.85,1.45,29.89,29.89,0,0,1,1.43,3.45c.45,1.24.94,2.54,1.45,3.88s1,2.72,1.65,4.1c.32.67.6,1.38,1,2l.53,1c.19.33.39.65.58,1s.38.66.59,1l.64.94.32.47.07.1.09.11.18.22.35.45.38.38a13.11,13.11,0,0,0,3.51,2.47,15.8,15.8,0,0,0,1.92.77l1,.27c.31.1.65.12,1,.19l.48.08c.16,0,.32,0,.47,0l.93.07.9,0h.44l.42,0a11.4,11.4,0,0,0,1.61-.26,10.1,10.1,0,0,0,1.43-.38l.64-.21a4.7,4.7,0,0,0,.58-.23l1-.46a7.09,7.09,0,0,0,.79-.42l.57-.33.48-.28s-.16.12-.45.31l-.55.37a6.23,6.23,0,0,1-.77.47l-1,.52a5,5,0,0,1-.58.26l-.64.26a11.38,11.38,0,0,1-1.43.46,10,10,0,0,1-1.64.33,2.82,2.82,0,0,1-.43.06l-.45,0-.92.05-1,0-.49,0-.5-.07c-.33-.06-.68-.08-1-.17l-1-.25a14.82,14.82,0,0,1-2-.77,13.14,13.14,0,0,1-3.74-2.57l-.41-.42L109,72l-.18-.22-.09-.11-.09-.13-.33-.47-.66-1c-.22-.32-.41-.66-.61-1s-.4-.66-.59-1l-.53-1c-.37-.68-.65-1.39-1-2.09-.6-1.4-1.12-2.79-1.61-4.15s-.93-2.67-1.36-3.92a32.94,32.94,0,0,0-1.3-3.45A14.2,14.2,0,0,0,99.92,52,8.94,8.94,0,0,0,99,50.88a4.69,4.69,0,0,0-1.92-1.34,3.3,3.3,0,0,0-1.51-.17A1.88,1.88,0,0,0,95.06,49.48Z"/><path class="cls-15" d="M92.52,52.19l4.3-.47h0a1.8,1.8,0,0,1,.28.24,1.6,1.6,0,0,1,.23.27,5.77,5.77,0,0,1,.42.56A13,13,0,0,1,98.53,54l.66,1.23.6,1.26c.42.83.75,1.7,1.12,2.55.18.43.36.86.53,1.29l.48,1.31,1,2.61c.31.87.67,1.71,1.06,2.55a27.56,27.56,0,0,0,1.34,2.41,25.22,25.22,0,0,0,1.6,2.25,20.11,20.11,0,0,0,1.87,2,17.76,17.76,0,0,0,2.14,1.71,14.65,14.65,0,0,0,2.41,1.32,12.94,12.94,0,0,0,2.62.85c.44.11.9.17,1.35.23s.92.08,1.38.07a13.19,13.19,0,0,0,2.74-.26c.46-.07.9-.2,1.35-.31s.89-.26,1.31-.44a21.53,21.53,0,0,0,2.52-1.18,19.25,19.25,0,0,1-2.48,1.25c-.43.19-.87.32-1.31.48s-.9.27-1.36.35a13,13,0,0,1-2.78.31c-.46,0-.93,0-1.4-.05s-.93-.11-1.39-.22a12.94,12.94,0,0,1-2.68-.83,15.14,15.14,0,0,1-2.47-1.33,17.59,17.59,0,0,1-2.2-1.73,18.59,18.59,0,0,1-1.92-2.05A20.9,20.9,0,0,1,105,69.37a26.37,26.37,0,0,1-1.35-2.46c-.39-.84-.76-1.71-1.07-2.58l-.95-2.61-.48-1.31c-.16-.43-.34-.86-.51-1.29-.35-.85-.67-1.72-1.07-2.56L99,55.3l-.64-1.23c-.2-.42-.47-.79-.7-1.19a6.83,6.83,0,0,0-.4-.56,2.14,2.14,0,0,0-.21-.26,2.34,2.34,0,0,0-.24-.23h0Z"/><path class="cls-15" d="M93.75,53.2l2.7,1.27h0a1,1,0,0,1,.32.17,1.47,1.47,0,0,1,.26.21l.24.23a2.83,2.83,0,0,1,.21.25l.41.52.34.56.34.57.29.59c.18.4.37.78.55,1.18.3.82.63,1.62.91,2.44l.76,2.49.38,1.23c.15.39.27.79.44,1.19l.25.59.27.57c.17.39.38.75.58,1.14a21.2,21.2,0,0,0,1.36,2.15c.48.7,1,1.36,1.57,2a23.65,23.65,0,0,0,1.79,1.82,22.19,22.19,0,0,0,2,1.61,18.85,18.85,0,0,0,2.16,1.35,15.51,15.51,0,0,0,2.32,1c.4.16.8.26,1.21.38s.82.2,1.24.25a11.26,11.26,0,0,0,2.54.13,10.32,10.32,0,0,0,2.51-.45l.61-.2.6-.26.3-.12.28-.15.58-.3a10.43,10.43,0,0,1-4.85,1.8,11.16,11.16,0,0,1-2.62,0,12.21,12.21,0,0,1-1.3-.22c-.43-.11-.86-.21-1.27-.35a16.1,16.1,0,0,1-2.43-1,19.92,19.92,0,0,1-2.25-1.35,19,19,0,0,1-2.05-1.64A24.7,24.7,0,0,1,105.37,73a22.31,22.31,0,0,1-1.62-2.06,24.3,24.3,0,0,1-1.38-2.23,21.47,21.47,0,0,1-1.1-2.38c-.17-.4-.29-.83-.44-1.25l-.36-1.25-.69-2.48c-.24-.82-.55-1.62-.82-2.43-.15-.4-.33-.79-.5-1.19l-.25-.59-.31-.56-.3-.56-.36-.52a3.15,3.15,0,0,0-.19-.26L96.85,55a1.6,1.6,0,0,0-.45-.36h0Z"/><path class="cls-15" d="M99.61,47.62s-.25,0-.61,0a5.33,5.33,0,0,0-.59.09,3,3,0,0,0-.64.22,2.25,2.25,0,0,0-.3.16,1.93,1.93,0,0,0-.26.2,2.13,2.13,0,0,0-.23.21,1.53,1.53,0,0,0-.18.22,2.38,2.38,0,0,0-.16.2,1.77,1.77,0,0,1-.1.16l-.1.14s0-.06,0-.17,0-.11.05-.19a1.09,1.09,0,0,1,.1-.25,1.07,1.07,0,0,1,.15-.27,1.7,1.7,0,0,1,.22-.28,1.54,1.54,0,0,1,.28-.24,1.72,1.72,0,0,1,.34-.2,3,3,0,0,1,.36-.14l.37-.07a2.58,2.58,0,0,1,.65,0A1.88,1.88,0,0,1,99.61,47.62Z"/><path class="cls-16" d="M118,85.78c-9.08.67-14.35-2-17.71-5.84-4-4.54,1.87-.71,1.87-.71s-4.3-4.34-1.2-4.78c0,0-2.89-6,.71-3.37,0,0-5.09-9.43-.67-6.25,0,0-2.17-10.73,1.5-6.52,0,0-2.76-6.64.13-4.63a6.11,6.11,0,0,0-2-5.26,3.89,3.89,0,0,1-.43-.38,2.79,2.79,0,0,0-.79-.35,3,3,0,0,1,0-1.55c-2.07-2.37,1.28-4.56,1.28-4.56-5.8,2.5-2.8-2.63-2.8-2.63-1.75,2-2.59,1-1.12-1.71s-2.8,3.21-3-.13a20.91,20.91,0,0,1,1.81-10.77C92,32.75,92.39,39.81,92,41.3c-.54,1.84.41,4.63.41,4.63L86.58,56.53l3.86,4.22c.44,14.61,9.07,24.12,19.7,25.66a17.78,17.78,0,0,0,8.35-.65Z"/><path class="cls-17" d="M120.74,3.1a10.43,10.43,0,0,1-.31,1.3c-.12.41-.27.9-.48,1.47a19.7,19.7,0,0,1-.8,1.84c-.15.33-.33.67-.53,1s-.4.7-.62,1.06-.48.72-.74,1.07c-.13.19-.25.37-.4.55l-.44.53c-.15.18-.3.36-.45.54l-.5.51c-.16.18-.33.35-.51.53l-.56.47-.56.49-.6.43-.6.44c-.21.14-.43.26-.64.39l-.66.38-.16.09-.16.08-.32.17-1.27.68-1.25.66c-.41.22-.81.45-1.21.67-.78.45-1.56.85-2.27,1.28s-1.4.8-2,1.2-1.18.72-1.67,1.05-.92.6-1.27.85c-.7.48-1.08.79-1.08.79s.08-.09.24-.26a9.59,9.59,0,0,1,.71-.69c.31-.3.7-.64,1.16-1s1-.79,1.57-1.23,1.24-.89,1.93-1.36,1.45-.94,2.23-1.42,1.59-1,2.43-1.42l1.26-.69.32-.18.17-.09.15-.09.6-.35.61-.35.57-.41.58-.4.53-.45.54-.44c.17-.15.33-.32.5-.47l.49-.48c.16-.16.3-.33.45-.49l.44-.49.42-.51c.27-.33.54-.65.77-1s.47-.65.68-1,.42-.63.6-.94c.37-.61.69-1.2,1-1.72s.49-1,.66-1.37.3-.69.39-.91Z"/><path class="cls-18" d="M119.8,8.74a6.15,6.15,0,0,1-.24.76,8.63,8.63,0,0,1-.36.84,11.69,11.69,0,0,1-.56,1.06,13.41,13.41,0,0,1-.78,1.18,14.65,14.65,0,0,1-1,1.24c-.17.22-.37.41-.56.62s-.38.42-.58.62c-.43.39-.84.81-1.29,1.18s-.9.75-1.37,1.08l-.69.49c-.23.16-.46.31-.7.45l-1.35.81-1.25.64-.55.28-.52.21-.85.35-.74.29.68-.41.79-.46.48-.28.52-.33c.36-.24.75-.49,1.17-.74l1.27-.88c.45-.29.87-.65,1.33-1s.88-.71,1.31-1.07.85-.75,1.27-1.12.8-.77,1.15-1.17.72-.76,1-1.15.59-.74.85-1.08l.35-.5c.11-.16.22-.32.31-.46s.35-.55.47-.77.22-.38.27-.51Z"/><path class="cls-18" d="M119.38,11.93s-.14.27-.42.74c-.14.24-.32.52-.53.83s-.45.68-.74,1-.59.77-.94,1.2-.72.84-1.12,1.27-.81.88-1.27,1.29l-.68.64-.71.61c-.47.41-1,.79-1.47,1.17s-1,.71-1.49,1-1,.61-1.44.88l-.68.39-.67.32c-.42.21-.8.4-1.15.55l-.92.36-.81.3.75-.43.86-.46c.33-.19.69-.43,1.09-.66l.62-.37.64-.44c.44-.3.91-.6,1.37-.95s1-.68,1.43-1.07l.72-.56c.24-.19.47-.4.7-.6l.7-.6.69-.62c.45-.4.87-.82,1.29-1.22l1.17-1.19c.36-.39.71-.75,1-1.1C118.61,12.91,119.38,11.93,119.38,11.93Z"/><path class="cls-19" d="M117.55,17.61s-.11.27-.34.73c-.12.23-.26.5-.43.82s-.38.67-.61,1-.51.76-.79,1.19-.61.85-1,1.27-.7.88-1.1,1.3c-.19.22-.38.44-.58.65l-.62.63c-.4.42-.85.8-1.28,1.2l-.32.29-.33.27-.66.53c-.41.36-.87.64-1.28.94a12.3,12.3,0,0,1-1.18.78c-.38.23-.71.45-1,.61l-.82.42-.72.36.66-.45.77-.5c.3-.2.61-.45,1-.7s.74-.53,1.12-.85l.6-.48.31-.24.3-.27c.41-.36.84-.71,1.26-1.11s.85-.77,1.24-1.19l.62-.62.59-.63c.38-.41.76-.84,1.11-1.25s.68-.82,1-1.22.6-.76.85-1.12c.53-.7.93-1.3,1.21-1.73Z"/><path class="cls-20" d="M117.55,20.55s0,.07-.09.21-.15.36-.28.61-.29.57-.48.93-.41.75-.67,1.18l-.41.66-.46.69c-.31.47-.68.95-1,1.46s-.78,1-1.21,1.48l-.66.73-.33.36-.35.35c-.47.46-.95.93-1.45,1.35l-.73.64-.76.57-.74.55-.74.47a11.64,11.64,0,0,1-1.38.81c-.45.23-.85.44-1.21.61l-1,.39-.85.32.81-.42.93-.46,1.14-.7c.43-.24.86-.55,1.32-.87.22-.17.46-.33.71-.5l.7-.56.73-.58.71-.64c.49-.42,1-.89,1.41-1.35l.35-.34.33-.36.66-.71c.41-.49.84-1,1.22-1.44s.76-.94,1.09-1.4.66-.88.94-1.28.53-.78.76-1.11.41-.63.55-.88l.34-.57Z"/><path class="cls-21" d="M100.21,45.22c1.77-1.59,6.73-2.38,14.15-10.43C118.11,30.73,120,24,121,17.61,119.63,24,116,31.53,100.21,45.22Z"/><path class="cls-21" d="M138.81,72.61c-2-2.57-6.11-3.46-11.25,4S111.2,85.33,104.8,81c-9-6-14.08-17.54-14.13-19.59.69,14.22,9.2,23.45,19.66,25C120.95,87.93,126,81,128.86,77.54s3.37-5.38,6.32-5.73a5.46,5.46,0,0,1,3.72.92Z"/><path class="cls-17" d="M136.59,69.53a1.68,1.68,0,0,0-.28-.17,4.59,4.59,0,0,0-.86-.32,6.4,6.4,0,0,0-1.4-.2,10.65,10.65,0,0,0-1.82.1,16.55,16.55,0,0,0-2.1.47c-.37.11-.75.21-1.12.36s-.77.27-1.16.44l-1.19.51c-.41.17-.81.35-1.24.51l-1.3.48c-.44.14-.87.29-1.33.42a21.62,21.62,0,0,1-2.73.57,10,10,0,0,1-1.37.14l-.68,0-.67,0a10.69,10.69,0,0,1-2.53-.38,4.81,4.81,0,0,1-.58-.19l-.55-.2c-.35-.16-.68-.34-1-.49l-.85-.55c-.26-.19-.48-.4-.7-.59l-.31-.27-.26-.28-.45-.51c-.26-.31-.42-.59-.55-.76l-.19-.27.89.89.51.41.28.24.33.23c.23.15.45.33.73.47s.54.3.85.44.62.26,1,.37.69.22,1.06.28l.57.11.28,0,.3,0,.59.05c.2,0,.41,0,.62,0H118l.64-.05c.42,0,.85-.11,1.29-.17a21.59,21.59,0,0,0,2.59-.59c.43-.12.86-.26,1.29-.39s.83-.29,1.25-.45l1.24-.47,1.23-.46a19,19,0,0,1,2.42-.7,13.31,13.31,0,0,1,2.25-.31,9,9,0,0,1,1.91.1,5.68,5.68,0,0,1,1.42.4,3.82,3.82,0,0,1,.82.46A2.4,2.4,0,0,1,136.59,69.53Z"/><path class="cls-19" d="M130.37,71.81l-.27.28c-.18.17-.45.43-.83.73a16.7,16.7,0,0,1-1.39,1c-.27.19-.59.36-.91.55s-.67.35-1,.52a12.63,12.63,0,0,1-1.18.49l-.64.22-.67.19a15.79,15.79,0,0,1-2.94.47c-.51,0-1,0-1.57,0s-1.06-.07-1.62-.16c-.26,0-.53-.08-.79-.14s-.55-.13-.81-.21l-.79-.26c-.26-.11-.52-.21-.77-.32a12.54,12.54,0,0,1-2.78-1.8,14.52,14.52,0,0,1-2.17-2.32,21.21,21.21,0,0,1-2.7-4.89,36.33,36.33,0,0,1-1.24-3.73c-.12-.46-.23-.82-.29-1.06l-.11-.37s.22.5.53,1.39.81,2.15,1.48,3.61a23.57,23.57,0,0,0,2.82,4.67,15.53,15.53,0,0,0,2.12,2.18,12,12,0,0,0,2.63,1.68l.72.31.74.26c.24.08.5.13.75.2s.52.1.78.15c.5.08,1,.11,1.53.17s1,0,1.51,0a15.49,15.49,0,0,0,2.84-.37l.66-.15.62-.2a11,11,0,0,0,1.18-.41c.37-.14.72-.31,1.05-.45s.64-.31.92-.48a15.1,15.1,0,0,0,1.45-.89A12.68,12.68,0,0,0,130.37,71.81Z"/><path class="cls-20" d="M125.11,78.47a7.84,7.84,0,0,1-.94.61,15.76,15.76,0,0,1-2.73,1.23,17.13,17.13,0,0,1-1.94.54,14.68,14.68,0,0,1-2.22.31,14.46,14.46,0,0,1-2.41,0c-.41-.05-.82-.09-1.23-.18s-.82-.17-1.22-.27-.79-.25-1.19-.37l-1.16-.46c-.37-.18-.74-.35-1.09-.54s-.7-.39-1-.6-.65-.42-1-.64l-.87-.67c-.29-.22-.53-.46-.79-.68l-.37-.33c-.12-.12-.22-.23-.33-.33l-.63-.63-.53-.6c-.33-.37-.62-.71-.83-1l-.69-.9.76.83c.24.27.54.58.9.93l.57.56.65.59.35.32.38.31c.26.2.52.42.8.63l.87.62.95.6c.32.2.67.37,1,.56s.71.34,1.07.51l1.11.44c.39.11.76.26,1.16.35a10.7,10.7,0,0,0,1.17.27c.4.08.79.13,1.19.18a15.15,15.15,0,0,0,2.33.08,17.79,17.79,0,0,0,2.18-.22c.68-.11,1.32-.28,1.92-.43s1.12-.36,1.58-.54.86-.35,1.18-.51A10.66,10.66,0,0,0,125.11,78.47Z"/><path class="cls-20" d="M121.86,78.18a8.57,8.57,0,0,1-1,.19,15.31,15.31,0,0,1-2.68.15c-.55,0-1.16-.07-1.78-.16a15.71,15.71,0,0,1-2-.39,16.76,16.76,0,0,1-2-.69,16.06,16.06,0,0,1-2-1A18.14,18.14,0,0,1,108.59,75c-.29-.23-.56-.47-.83-.71s-.51-.51-.76-.75-.46-.51-.68-.76-.41-.52-.61-.77-.37-.5-.54-.75-.34-.48-.47-.72c-.29-.47-.55-.91-.75-1.32s-.39-.75-.52-1c-.25-.59-.39-.93-.39-.93s.17.32.49.88c.15.29.36.62.59,1s.52.79.82,1.25c.15.23.33.44.51.68s.36.48.56.71.41.48.64.72.45.47.7.72.49.47.76.71l.81.67a16.94,16.94,0,0,0,1.78,1.21,14.89,14.89,0,0,0,1.91,1,17.34,17.34,0,0,0,2,.72,17.8,17.8,0,0,0,1.9.46,17.44,17.44,0,0,0,1.75.24c.54,0,1,.07,1.49.08s.83,0,1.15,0C121.5,78.23,121.86,78.18,121.86,78.18Z"/><path class="cls-21" d="M92,41.21a12,12,0,0,1,6,9.66c.82,8.75-5.18,14.53-7.46,9.8Z"/><path class="cls-22" d="M21.31,37.08s-3.54.35-2.24-2.9S21,27.39,25.91,23.62s19.81-11.93,37.67-7.8c16.69,3.86,23.74,16.3,25.63,27.52,0,0-1.18,4.25-3.66.71S70.19,27.39,54.49,26.22,21.31,37.08,21.31,37.08Z"/><path class="cls-23" d="M26.67,23.11s-.13.16-.34.44-.24.31-.37.52-.28.44-.44.7-.31.55-.46.86-.3.63-.45,1c-.08.18-.15.35-.22.53l-.2.56c-.14.37-.22.76-.34,1.14s-.17.78-.26,1.17-.12.78-.18,1.16-.07.73-.1,1.08,0,.67,0,1,0,.58,0,.83,0,.46,0,.64c0,.35,0,.56,0,.56l-.08-.56c0-.18-.06-.39-.09-.64a5.73,5.73,0,0,1-.06-.83c0-.31,0-.64,0-1s0-.73.05-1.11.1-.77.15-1.18.16-.79.26-1.2.21-.79.36-1.17a11.79,11.79,0,0,1,.45-1.09c.15-.35.34-.68.5-1s.36-.59.53-.85.34-.47.5-.67.31-.35.42-.49S26.67,23.11,26.67,23.11Z"/><path class="cls-23" d="M34.56,18.66l-.39.4c-.26.24-.59.62-1,1.05-.2.23-.42.46-.64.73l-.7.84c-.24.29-.47.6-.71.92s-.46.64-.69,1-.44.67-.64,1-.4.67-.56,1-.34.66-.47,1-.26.62-.35.9-.17.55-.24.78a5.08,5.08,0,0,0-.14.62c-.07.35-.11.55-.11.55s0-.21,0-.56a4.63,4.63,0,0,1,.07-.64q.07-.36.17-.82c.09-.29.2-.6.3-.94s.28-.66.43-1,.36-.68.55-1,.42-.69.65-1,.47-.67.72-1,.49-.62.74-.9.5-.56.74-.81.48-.47.7-.7c.44-.41.82-.74,1.1-1S34.56,18.66,34.56,18.66Z"/><path class="cls-23" d="M42.85,15.94s-.18.13-.47.38-.72.62-1.21,1.06c-.23.23-.51.47-.77.74s-.55.56-.84.86-.56.62-.86.95-.56.67-.84,1-.55.7-.78,1.07-.5.71-.68,1.08-.42.69-.58,1a9.11,9.11,0,0,0-.45,1c-.11.31-.22.59-.33.85s-.14.48-.2.67c-.11.38-.17.59-.17.59s0-.22.11-.61c0-.19.07-.42.14-.69s.16-.56.27-.88.26-.65.4-1a10.44,10.44,0,0,1,.54-1.09c.19-.37.44-.73.67-1.11s.52-.73.78-1.09.57-.69.86-1,.59-.65.89-.94.59-.58.88-.83.57-.48.83-.7A16.7,16.7,0,0,1,42.85,15.94Z"/><path class="cls-23" d="M50.15,14.76s-.82.53-2,1.41c-.58.43-1.24,1-1.92,1.57-.35.29-.69.61-1,.94s-.69.67-1,1-.65.71-1,1.07-.59.73-.86,1.1-.5.73-.71,1.09l-.29.52-.26.51c-.14.33-.28.63-.38.91s-.16.53-.23.73l-.15.65a1.47,1.47,0,0,1,0-.17c0-.11,0-.28.07-.49s.08-.47.17-.75a7.47,7.47,0,0,1,.32-.95l.23-.53c.09-.18.18-.36.28-.55.19-.36.42-.75.68-1.14s.54-.76.85-1.14.63-.74,1-1.09a24.33,24.33,0,0,1,2.12-2c.71-.58,1.4-1.07,2-1.49s1.14-.72,1.51-.94S50.15,14.76,50.15,14.76Z"/><path class="cls-23" d="M56.73,14.7,56.2,15c-.34.19-.81.49-1.38.85s-1.22.8-1.9,1.29c-.34.25-.68.51-1,.79s-.69.55-1,.84-.66.6-1,.91-.6.63-.86.95c-.13.16-.26.32-.38.48a5.62,5.62,0,0,0-.34.47,4.46,4.46,0,0,0-.29.47,5.16,5.16,0,0,0-.25.46c-.07.15-.14.3-.19.44a3.86,3.86,0,0,0-.15.4,5,5,0,0,0-.18.69c0,.19,0,.34-.06.44l0,.16v-.17a3.21,3.21,0,0,1,0-.46,5.23,5.23,0,0,1,.12-.7c0-.14.07-.28.12-.42s.11-.31.17-.46a4.45,4.45,0,0,1,.23-.48c.08-.16.17-.33.27-.5s.21-.34.33-.5a5.81,5.81,0,0,1,.37-.51,11.74,11.74,0,0,1,.86-1c.32-.32.64-.63,1-.94a22.54,22.54,0,0,1,2.1-1.61c.7-.48,1.38-.88,2-1.21s1.09-.57,1.45-.74Z"/><path class="cls-23" d="M62,15.44s-.71.37-1.72,1c-.51.31-1.08.69-1.68,1.12-.3.21-.6.44-.91.68s-.61.48-.9.74-.58.53-.85.8a11.15,11.15,0,0,0-.76.83c-.23.29-.45.57-.64.84a8.42,8.42,0,0,0-.49.8c-.13.26-.25.5-.35.72s-.15.42-.21.58l-.16.52s0,0,0-.14,0-.23.06-.4.08-.38.16-.61.07-.24.12-.38l.17-.39A9.22,9.22,0,0,1,55,20.39c.24-.3.49-.6.76-.88s.56-.56.86-.82a16,16,0,0,1,1.87-1.42c.62-.41,1.23-.74,1.76-1s1-.47,1.31-.61Z"/><path class="cls-23" d="M67.54,16.91s-.18.08-.48.25-.33.19-.54.31-.44.26-.68.43-.51.34-.77.55-.53.44-.82.67-.55.51-.82.78a9.34,9.34,0,0,0-.77.88l-.36.45-.32.48c-.1.16-.22.31-.31.48l-.26.49a9.32,9.32,0,0,0-.45,1c-.06.15-.13.31-.19.46s-.08.3-.13.44-.17.54-.23.77-.08.45-.11.61l-.11.54,0-.55c0-.17,0-.38.05-.63a7.36,7.36,0,0,1,.16-.8l.1-.46c0-.15.11-.31.16-.47a6.5,6.5,0,0,1,.4-1,7.23,7.23,0,0,1,.56-1L62,21l.37-.47a10.8,10.8,0,0,1,.8-.9c.28-.29.58-.54.86-.78s.58-.45.87-.64.56-.37.82-.52.5-.27.72-.38L67,17.1A4.27,4.27,0,0,1,67.54,16.91Z"/><path class="cls-23" d="M71.49,18.6l-.37.26c-.24.17-.57.42-1,.73s-.84.69-1.29,1.09a18.55,18.55,0,0,0-1.37,1.36c-.22.24-.43.5-.62.75s-.38.51-.53.77a6.39,6.39,0,0,0-.69,1.52,6,6,0,0,0-.13.65,4,4,0,0,0,0,.52c0,.29,0,.45,0,.45l0-.11a2.85,2.85,0,0,1-.07-.34,5,5,0,0,1,0-.53,3.31,3.31,0,0,1,.07-.7,5.16,5.16,0,0,1,.22-.79,5.39,5.39,0,0,1,.39-.83,8.9,8.9,0,0,1,1.16-1.61c.23-.25.46-.49.7-.71s.49-.44.73-.65a16.73,16.73,0,0,1,1.38-1c.41-.28.78-.48,1-.63Z"/><path class="cls-23" d="M77.52,22.38a3.93,3.93,0,0,0-.42,0,8.44,8.44,0,0,0-1.07.23c-.22,0-.45.13-.69.21s-.49.2-.74.32-.26.12-.38.2-.24.15-.37.22a6.72,6.72,0,0,0-.72.52c-.24.18-.45.39-.67.59l-.58.64L71.4,26c-.15.21-.26.43-.39.62a4.66,4.66,0,0,0-.3.54c-.08.16-.16.31-.22.43l-.19.37s0-.15.13-.4.09-.29.15-.46a3.6,3.6,0,0,1,.25-.58,7.28,7.28,0,0,1,.34-.66c.13-.22.28-.46.45-.7s.38-.46.58-.68.44-.43.69-.63a8,8,0,0,1,.76-.53l.4-.22.4-.18a6.31,6.31,0,0,1,.79-.28,7.42,7.42,0,0,1,.73-.17,5.07,5.07,0,0,1,.62-.07h.49A3,3,0,0,1,77.52,22.38Z"/><path class="cls-23" d="M82.57,27.63H82.2a7.83,7.83,0,0,0-1,0,10.59,10.59,0,0,0-1.32.17c-.24.05-.48.1-.73.18a6.43,6.43,0,0,0-.74.23c-.25.08-.48.2-.72.29l-.66.34c-.22.12-.4.25-.6.37s-.36.25-.52.36-.31.22-.42.32l-.32.27-.28.24s.08-.11.23-.29.17-.19.27-.32a9.18,9.18,0,0,1,.88-.81c.19-.13.38-.29.59-.41s.43-.27.68-.38.48-.24.74-.32a6.94,6.94,0,0,1,.77-.23,4.84,4.84,0,0,1,.76-.15,7,7,0,0,1,.72-.07h.65a7.19,7.19,0,0,1,1,.12Z"/><path class="cls-23" d="M85.31,31.89a3.15,3.15,0,0,0-.76,0L84.2,32a3,3,0,0,0-.39.1l-.4.15a3.37,3.37,0,0,0-.4.19,2.87,2.87,0,0,0-.4.21c-.12.08-.25.14-.36.23l-.34.23-.29.22c-.19.13-.33.26-.44.34l-.17.13a1.56,1.56,0,0,1,.12-.18,5.38,5.38,0,0,1,.36-.44,5.68,5.68,0,0,1,.59-.55,4,4,0,0,1,.37-.27c.13-.09.27-.15.41-.24s.29-.13.43-.19l.45-.13a3.26,3.26,0,0,1,.81-.09,2.18,2.18,0,0,1,.57.09A1.11,1.11,0,0,1,85.31,31.89Z"/><path class="cls-24" d="M87.17,35.94c-4.18-1.33-2.5-4.15-2.5-4.15C78.73,30.86,82,27.5,82,27.5s-4.57-.27-6.17-1.88,1-3.24,1-3.24c-1.84,0-5.08.86-6.79-.39s.43-2.65.64-2.8c-.31.21-4.71,3.14-5.91,1.67s2.06-3.63,2.06-3.63c-2.27.55-5.7,4.33-7.54,2.89s1.67-4.18,1.67-4.18c-1.17.24-7,4.41-7.88,3.24s1.84-3.48,1.84-3.48c-1.6.62-6.05,4.42-7.69,3.87s-.43-2.5-.43-2.5c-.78.51-4.72,4.61-6.48,4s.39-3.4.39-3.4c-1.88,1-6.33,6.41-8.05,6.41S32.14,21,32.14,21a35.71,35.71,0,0,0-3.87,4.57c-1.56,2.3-4.57,2.19-3.67.62l1.64-2.83-.34.25c-5,3.77-5.55,7.32-6.85,10.56s2.24,2.9,2.24,2.9S38.78,25,54.49,26.22,83.07,40.51,85.55,44.05s3.66-.71,3.66-.71a38.39,38.39,0,0,0-2-7.4Z"/><path class="cls-25" d="M17.17,77.13s-3.9,0-2.09,3.68,2.13,6.1,8.7,11.8c4,3.43,23,12,41.88,5.14,17.68-6.4,23.86-21.94,24.58-35.47,0,0-1.79-4.92-4.07-.44S71.46,83.3,54.53,86.42,17.17,77.13,17.17,77.13Z"/><path class="cls-23" d="M24.67,93.14s-.19-.16-.49-.44c-.14-.15-.34-.33-.52-.55s-.41-.48-.63-.76-.44-.61-.67-1-.46-.72-.66-1.13-.42-.82-.61-1.26-.35-.89-.53-1.35-.28-.92-.41-1.38-.2-.92-.3-1.36-.13-.88-.19-1.29-.06-.8-.09-1.17a9,9,0,0,1,0-1c0-.29,0-.55,0-.76,0-.42,0-.66,0-.66s0,.24.05.66c0,.21,0,.46.05.75s.06.62.1,1,.07.75.14,1.15.15.83.23,1.27l.33,1.34c.13.45.28.9.41,1.36s.32.89.51,1.32.36.85.58,1.25.4.78.6,1.14.41.68.61,1,.39.57.57.79.34.43.47.59C24.5,93,24.67,93.14,24.67,93.14Z"/><path class="cls-23" d="M33.77,97.56s-.2-.13-.53-.38-.8-.6-1.33-1.06c-.26-.24-.56-.48-.84-.76s-.61-.57-.91-.89-.62-.65-.92-1-.59-.72-.89-1.09-.56-.77-.82-1.15-.5-.78-.71-1.17-.42-.77-.57-1.15-.31-.72-.43-1.06-.2-.65-.28-.93-.11-.53-.15-.73c-.07-.4-.11-.63-.11-.63l.18.62c.06.19.11.44.21.7s.22.56.34.89.31.66.48,1,.4.72.6,1.09.49.75.72,1.14.54.75.81,1.13.57.73.88,1.08.59.7.89,1,.58.63.86.92.55.56.8.8c.51.48.93.89,1.24,1.16Z"/><path class="cls-23" d="M43.11,99.89s-.23-.11-.62-.36-.93-.58-1.55-1c-.31-.23-.65-.48-1-.77s-.71-.58-1.06-.91-.72-.68-1.09-1-.71-.74-1-1.13-.68-.79-1-1.22-.61-.82-.85-1.23A11.74,11.74,0,0,1,34.21,91c-.19-.4-.41-.77-.54-1.13s-.28-.7-.39-1-.16-.57-.22-.78l-.19-.69s.1.24.25.67c.08.21.16.47.28.76s.29.6.45,1,.38.7.59,1.09.48.77.73,1.17.56.8.86,1.21.64.78,1,1.18.69.76,1,1.14.7.72,1.06,1,.69.65,1,.94.66.56.95.8c.6.49,1.11.89,1.47,1.15Z"/><path class="cls-23" d="M51.18,100.5s-.26-.11-.69-.34-1.06-.54-1.78-1-1.55-1-2.4-1.59a31.53,31.53,0,0,1-2.53-2.12c-.41-.39-.8-.8-1.17-1.21s-.72-.83-1-1.25A15.38,15.38,0,0,1,40,90.55c-.09-.19-.16-.38-.25-.55l-.19-.51c-.12-.33-.2-.61-.27-.85s-.1-.43-.12-.55l0-.2.24.73c.09.23.18.51.33.82l.22.49.28.53c.2.36.43.75.7,1.15s.57.79.89,1.21.67.82,1,1.22.77.79,1.18,1.18a27.92,27.92,0,0,0,2.48,2.12c.83.64,1.62,1.21,2.32,1.67s1.29.85,1.7,1.09Z"/><path class="cls-23" d="M58.34,99.84s-.24-.08-.65-.25-1-.41-1.71-.76a26.16,26.16,0,0,1-2.32-1.26,27.34,27.34,0,0,1-2.51-1.72c-.4-.32-.79-.66-1.16-1a13.71,13.71,0,0,1-1-1.08,9.73,9.73,0,0,1-.86-1.11,9.37,9.37,0,0,1-.64-1.09,6.26,6.26,0,0,1-.4-1,7.32,7.32,0,0,1-.2-.79c0-.22-.05-.4-.07-.53a1.62,1.62,0,0,0,0-.18l0,.18c0,.12.06.29.12.52a5.36,5.36,0,0,0,.26.76,3.25,3.25,0,0,0,.2.45c.09.16.15.33.25.49a11.41,11.41,0,0,0,1.55,2.09,13.38,13.38,0,0,0,1,1c.36.34.76.67,1.16,1a24.57,24.57,0,0,0,2.45,1.74c.81.52,1.57,1,2.25,1.35s1.24.67,1.65.87Z"/><path class="cls-23" d="M64,98.39l-.59-.19c-.37-.14-.91-.33-1.52-.61a22.13,22.13,0,0,1-2.07-1.06A18.86,18.86,0,0,1,57.63,95c-.36-.29-.7-.59-1-.89s-.63-.64-.91-1a10.77,10.77,0,0,1-1.32-1.93c-.08-.15-.15-.3-.21-.44s-.12-.28-.18-.41-.16-.49-.23-.68c-.1-.39-.15-.61-.15-.61l.21.58c.08.18.16.41.29.65l.2.38.24.42a10.38,10.38,0,0,0,.6.9c.23.3.49.62.77.93s.59.61.91.91.66.59,1,.87A23.13,23.13,0,0,0,60,96.26c.72.45,1.4.84,2,1.16s1.11.57,1.47.72Z"/><path class="cls-23" d="M69.82,96a6.06,6.06,0,0,1-.6-.19c-.2-.06-.42-.16-.68-.26s-.55-.23-.85-.39-.63-.34-1-.55-.69-.44-1-.69l-.52-.41-.26-.21-.25-.23-.5-.47c-.16-.17-.31-.35-.47-.52s-.31-.34-.45-.53L62.82,91a10.55,10.55,0,0,1-.71-1.13,3.2,3.2,0,0,0-.16-.28c0-.09-.09-.19-.12-.29l-.25-.56a9,9,0,0,1-.38-1,8.65,8.65,0,0,1-.26-.91c0-.28-.09-.51-.13-.72-.07-.4-.11-.62-.11-.62l.18.6c.05.2.12.43.19.69a2.83,2.83,0,0,0,.14.42l.18.45a7.82,7.82,0,0,0,.43,1c.09.17.18.35.27.53l.13.28.17.27a12.06,12.06,0,0,0,.72,1.09l.4.54c.13.18.3.34.44.51s.29.34.45.51l.49.47.24.23.25.21.5.41c.35.25.66.52,1,.73s.63.42.93.59.57.32.82.45l.65.32C69.6,96,69.82,96,69.82,96Z"/><path class="cls-23" d="M73.92,93.61l-.48-.23c-.3-.14-.73-.36-1.23-.66s-1.07-.66-1.65-1.09a11,11,0,0,1-.87-.7c-.28-.24-.57-.5-.84-.78a11.16,11.16,0,0,1-.77-.87,9.59,9.59,0,0,1-.66-.91,8.68,8.68,0,0,1-.49-.94c-.07-.15-.12-.31-.18-.45l-.14-.43a4.6,4.6,0,0,1-.14-.79c0-.23,0-.44,0-.61s0-.3,0-.39,0-.14,0-.14,0,.19,0,.52a4.91,4.91,0,0,0,.09.6,6.37,6.37,0,0,0,.21.74l.15.41.2.43c.16.29.33.58.52.87a12.52,12.52,0,0,0,1.42,1.7,19,19,0,0,0,1.66,1.5c.55.44,1.08.85,1.56,1.17s.86.6,1.15.77Z"/><path class="cls-23" d="M80,88.46a2.6,2.6,0,0,1-.47.07,4.17,4.17,0,0,1-.55,0h-.34l-.37,0a7,7,0,0,1-.83-.14,5.88,5.88,0,0,1-.91-.27c-.15-.06-.31-.11-.47-.19l-.46-.23a4,4,0,0,1-.45-.27l-.44-.29c-.27-.22-.55-.44-.8-.68s-.48-.49-.69-.74-.39-.52-.56-.76-.29-.5-.43-.73l-.19-.32c-.06-.11-.1-.22-.14-.31s-.15-.37-.22-.5-.18-.44-.18-.44.08.15.25.41.16.29.27.47a6.15,6.15,0,0,0,.38.59c.14.21.29.45.47.68l.58.71c.21.24.46.46.69.7s.51.43.77.64l.42.28a3.3,3.3,0,0,0,.42.26l.44.23c.14.07.3.13.44.2s.59.21.86.31.55.15.8.19a6.93,6.93,0,0,0,.69.1,5,5,0,0,0,.54,0Z"/><path class="cls-23" d="M84.88,81.67a3.23,3.23,0,0,1-.38.14l-.45.11a4.81,4.81,0,0,1-.59.11c-.22,0-.47,0-.72.06a7,7,0,0,1-.8,0l-.43,0L81.07,82c-.29,0-.58-.13-.87-.2s-.57-.21-.84-.3-.53-.26-.78-.38-.46-.29-.68-.43-.39-.31-.57-.44a3.92,3.92,0,0,1-.46-.4l-.33-.33-.28-.3.33.24.36.28c.14.12.31.21.49.34a6.44,6.44,0,0,0,.59.38l.69.37.76.34c.27.09.53.21.81.28a8.31,8.31,0,0,0,.83.21l.42.08.41.05c.26,0,.53,0,.77.06s.49,0,.7,0c.44,0,.8-.06,1.05-.1Z"/><path class="cls-23" d="M87.36,76.32a1.05,1.05,0,0,1-.22.11,2.71,2.71,0,0,1-.62.15,2.58,2.58,0,0,1-.43,0,3.55,3.55,0,0,1-.48,0,4.3,4.3,0,0,1-.5-.12,5,5,0,0,1-.5-.19L84.14,76l-.43-.27a5.37,5.37,0,0,1-.69-.58,5.61,5.61,0,0,1-.42-.46,1.76,1.76,0,0,1-.16-.19l.2.13.51.36.35.23.39.24c.13.09.28.15.42.23a3.76,3.76,0,0,0,.45.22,5.33,5.33,0,0,0,.92.33c.16,0,.3.07.44.08l.4,0h.35l.27,0Z"/><path class="cls-24" d="M88.9,71.31c-4.38,2-2.22,5.18-2.22,5.18-6.34,1.76-2.41,5.4-2.41,5.4s-4.94.83-6.48,2.9,1.45,3.74,1.45,3.74c-2,.25-5.62-.46-7.34,1.21s.78,3.11,1,3.25c-.36-.22-5.49-3.21-6.63-1.34S69,95.75,69,95.75c-2.52-.41-6.71-4.53-8.53-2.61s2.32,4.78,2.32,4.78c-1.3-.16-8.08-4.49-9-3s2.41,3.93,2.41,3.93c-1.81-.57-7.1-4.58-8.82-3.75s-.18,3-.18,3c-.91-.52-5.68-5-7.53-4.07s.83,4,.83,4c-2.16-1-7.64-6.91-9.51-6.73S30.86,95,30.86,95a41.84,41.84,0,0,1-4.75-5c-2-2.57-5.22-2.1-4.07-.34l2.12,3.19a4.09,4.09,0,0,1-.39-.26c-7-6.3-6.91-8.09-8.7-11.8s2.09-3.68,2.09-3.68,20.43,12.4,37.36,9.28S83.89,66.33,86.16,61.85s4.07.44,4.07.44a49.67,49.67,0,0,1-1.31,9Z"/><path class="cls-24" d="M88.15,38.84c-.69.63-2.17-1.91-2.3-2.19A30.75,30.75,0,0,0,83,32.22c-1.18-1.36-6.44-7.08-11-8.56-6-1.91-9.77-3.21-17.14-3.31s-12.83.57-17.84,2.3S26.5,27.12,24.29,29c-1.88,1.61-3.88,2.33-3.77,1.27-.59,1.34-1,2.65-1.49,3.91-1.3,3.24,2.25,2.89,2.25,2.89S38.75,25,54.46,26.2,83,40.49,85.52,44s3.66-.7,3.66-.7A38.12,38.12,0,0,0,88.15,38.84Z"/><path class="cls-24" d="M11.62,73.1l3.19,7.33s8.5,13.11,36.73,13.34,40.74-26.93,39.33-36Z"/><g class="cls-26"><path class="cls-27" d="M76.71,22.84a8.68,8.68,0,0,1,.78.49c.23.16.48.35.75.56s.52.48.78.75l.39.4c.13.13.22.28.33.41s.4.53.55.76a7.34,7.34,0,0,1,.44.82,7.59,7.59,0,0,1-.67-.63c-.2-.18-.44-.4-.67-.65s-.49-.49-.74-.74l-.37-.39c-.12-.12-.23-.27-.35-.38s-.46-.48-.65-.68A9,9,0,0,1,76.71,22.84Z"/><path class="cls-28" d="M71.24,19.26a7.4,7.4,0,0,1,.82.27c.23.09.51.2.79.35s.58.32.88.49a9.52,9.52,0,0,1,.82.58,5.65,5.65,0,0,1,.67.56,6.58,6.58,0,0,1,.59.63,7.37,7.37,0,0,1-.77-.37l-.36-.2-.39-.22-.42-.25c-.14-.08-.27-.18-.42-.26s-.57-.35-.83-.54L72.25,20l-.34-.24A7.13,7.13,0,0,1,71.24,19.26Z"/><path class="cls-28" d="M67,17.46a3.27,3.27,0,0,1,.58.05,6.68,6.68,0,0,1,1.19.32,6.2,6.2,0,0,1,1.1.6,3.59,3.59,0,0,1,.45.36,4.41,4.41,0,0,1-.57-.08,4.54,4.54,0,0,1-.56-.15l-.6-.23a5.56,5.56,0,0,1-1.11-.54A3.07,3.07,0,0,1,67,17.46Z"/><path class="cls-29" d="M61.29,16a5.22,5.22,0,0,1,.77,0,11.13,11.13,0,0,1,1.65.22c.29.07.58.16.86.25s.52.2.73.29a5,5,0,0,1,.69.34,6.88,6.88,0,0,1-.77,0c-.23,0-.49-.07-.76-.12L64,16.88l-.43-.1a13.38,13.38,0,0,1-1.6-.44A6.1,6.1,0,0,1,61.29,16Z"/><path class="cls-29" d="M55.91,15.51a4.41,4.41,0,0,1,.71-.11,10,10,0,0,1,1.54,0,8.92,8.92,0,0,1,1.54.29,4.58,4.58,0,0,1,.67.23,5.08,5.08,0,0,1-.71.07c-.22,0-.46,0-.72,0l-.81-.06a10.65,10.65,0,0,1-1.54-.2A6.62,6.62,0,0,1,55.91,15.51Z"/><path class="cls-13" d="M49.11,15.71A7,7,0,0,1,50,15.5c.25-.05.56-.1.88-.13s.67-.07,1-.09h1c.33,0,.64,0,.89.07a7.33,7.33,0,0,1,.87.14,8.15,8.15,0,0,1-.86.16l-.88.09c-.33,0-.66,0-1,0s-.69,0-1,0-.63,0-.89,0A7.83,7.83,0,0,1,49.11,15.71Z"/><path class="cls-13" d="M42.06,16.84a9.07,9.07,0,0,1,.87-.33c.27-.09.58-.18.91-.27l.52-.13L44.9,16c.37,0,.73-.1,1.09-.12s.67,0,1-.05a9.12,9.12,0,0,1,.93,0,8.69,8.69,0,0,1-.9.28c-.27.07-.58.14-.91.21s-.7.13-1.07.19l-.54.1-.53.08c-.34.05-.66.08-.94.11A7.61,7.61,0,0,1,42.06,16.84Z"/><path class="cls-13" d="M33.93,19.51s.39-.25,1-.57a9.49,9.49,0,0,1,1.06-.5c.4-.17.83-.35,1.27-.49l1.29-.39c.21-.06.41-.1.61-.14l.55-.11c.68-.12,1.14-.16,1.14-.16s-.42.21-1.06.46l-.52.19-.58.22-1.26.44c-.22.06-.43.14-.64.22l-.62.21L35,19.22C34.38,19.42,33.93,19.51,33.93,19.51Z"/><path class="cls-28" d="M26.5,23.8l.2-.23a6.61,6.61,0,0,1,.58-.54,10.45,10.45,0,0,1,.88-.7c.34-.23.7-.46,1.07-.7l.56-.33.57-.28c.37-.17.72-.32,1-.44a10.15,10.15,0,0,1,1-.37s-.35.28-.88.64c-.27.18-.6.38-.94.59l-.54.3c-.19.1-.37.23-.54.34-.37.22-.73.44-1.09.63-.18.1-.35.19-.5.29l-.45.26-.69.38Z"/></g><path class="cls-30" d="M30.17,94.93a7.49,7.49,0,0,1-.88-.19c-.26-.07-.55-.16-.87-.27s-.64-.23-1-.36-.64-.3-.94-.46-.57-.31-.8-.45a5.91,5.91,0,0,1-.74-.5,8.76,8.76,0,0,1,.87.22c.26.08.55.18.86.3s.64.26,1,.39.65.28,1,.43.57.28.8.41A8.38,8.38,0,0,1,30.17,94.93Z"/><path class="cls-18" d="M39.37,97.73s-.48,0-1.19-.15c-.35-.05-.76-.12-1.2-.22l-.68-.15c-.22-.06-.45-.1-.69-.17-.45-.14-.91-.29-1.33-.46s-.81-.31-1.14-.45c-.66-.28-1.08-.5-1.08-.5s.48.06,1.17.21c.35.08.75.18,1.18.29l1.32.39c.23.07.46.13.69.19l.66.19c.43.13.83.26,1.17.38C38.94,97.52,39.37,97.73,39.37,97.73Z"/><path class="cls-18" d="M47.65,98.88s-.42.05-1,.06c-.31,0-.67,0-1,0l-.6,0c-.19,0-.4,0-.6-.05-.41-.07-.81-.13-1.2-.21l-1-.24a10.11,10.11,0,0,1-1-.3,9.28,9.28,0,0,1,1,0l1,.08c.38,0,.78.09,1.18.15.2,0,.41,0,.6.06l.59.08c.38.05.73.11,1,.18A10.09,10.09,0,0,1,47.65,98.88Z"/><path class="cls-17" d="M54.91,98.7a8.28,8.28,0,0,1-.89.22c-.26.05-.58.1-.91.15s-.69.08-1,.1-.72,0-1.06,0-.65,0-.92-.07a8.3,8.3,0,0,1-.9-.14s.36-.09.9-.16c.27,0,.57-.07.91-.09l1,0,.53,0,.52,0c.34,0,.65,0,.92,0A8.85,8.85,0,0,1,54.91,98.7Z"/><path class="cls-17" d="M61,97.59a4.62,4.62,0,0,1-.62.3,9.59,9.59,0,0,1-1.42.44,9,9,0,0,1-1.5.16,4.7,4.7,0,0,1-.69,0,4.17,4.17,0,0,1,.64-.27,9.3,9.3,0,0,1,1.43-.37l.78-.15.69-.08A4.55,4.55,0,0,1,61,97.59Z"/><path class="cls-18" d="M67.17,95.44a6,6,0,0,1-.69.44,13.1,13.1,0,0,1-1.59.76,12,12,0,0,1-1.72.45,7.09,7.09,0,0,1-.8.11,6.3,6.3,0,0,1,.71-.4,14.8,14.8,0,0,1,1.62-.66l.45-.16.44-.15c.29-.09.56-.18.79-.23A6,6,0,0,1,67.17,95.44Z"/><path class="cls-18" d="M71.9,93a3.47,3.47,0,0,1-.4.41,6.38,6.38,0,0,1-1,.71,7.15,7.15,0,0,1-1.14.47,3.82,3.82,0,0,1-.56.12,3.66,3.66,0,0,1,.42-.4,6.72,6.72,0,0,1,1-.66,8.12,8.12,0,0,1,1.12-.52A3.71,3.71,0,0,1,71.9,93Z"/><path class="cls-30" d="M77.53,88.91a8.76,8.76,0,0,1-.61.68c-.19.2-.43.42-.67.65l-.4.34c-.14.11-.27.24-.42.34-.31.21-.61.41-.9.59s-.58.34-.82.46a7.58,7.58,0,0,1-.83.39s.25-.28.66-.64c.2-.18.44-.38.71-.59s.55-.42.84-.63.29-.22.43-.32l.43-.31c.28-.2.54-.37.77-.51A7,7,0,0,1,77.53,88.91Z"/><path class="cls-20" d="M83.19,82.9l-.11.25a7,7,0,0,1-.37.63c-.08.13-.16.27-.27.41a2.93,2.93,0,0,1-.32.44c-.23.3-.49.6-.75.91L81,86c-.14.14-.28.27-.42.39s-.54.48-.78.67a9.39,9.39,0,0,1-.81.59,9.93,9.93,0,0,1,.6-.82c.18-.24.41-.5.66-.77s.25-.29.39-.42l.39-.45c.26-.3.52-.59.79-.85l.37-.39.33-.35c.21-.21.4-.38.52-.5A2.06,2.06,0,0,1,83.19,82.9Z"/><path class="cls-31" d="M96.77,52.33c0,.21,0,.42,0,.63v0c0,.32,0,.64-.08,1l0,.33c0,.09,0,.16,0,.24a2,2,0,0,1,0,.23h0a.12.12,0,0,1,0,.05l0,.14c0,.2-.08.39-.12.58a.59.59,0,0,0,0,.13c0,.19-.1.38-.16.56s-.11.37-.17.55a1,1,0,0,1-.05.14,10.72,10.72,0,0,1-.65,1.51c-.08.16-.16.31-.25.45a9.35,9.35,0,0,1-.59.87l-.23.29h0a1.42,1.42,0,0,1-.15.16s0,0,0,0a4.53,4.53,0,0,1-.78.7l-.27.17-.13.08a2.11,2.11,0,0,1-.79.25,1.41,1.41,0,0,1-.31,0,1.39,1.39,0,0,1-.25,0h0l-.23-.08a1.12,1.12,0,0,1-.24-.13L90.88,61l0,0a2.29,2.29,0,0,1-.32-.34l0,.14c0,.07,0,.16-.05.29s-.11.51-.2.87c0,.08,0,.16-.06.26h0c0,.07,0,.14-.06.22a43.37,43.37,0,0,1-3.08,8.28,42.8,42.8,0,0,1-2.84,4.93l-.19.27a38.92,38.92,0,0,1-4.34,5.3l-.27.27A34.29,34.29,0,0,1,73.92,86l-.28.19a33.16,33.16,0,0,1-3.9,2.18c-.47.23-1,.45-1.45.66l-.32.14h0c-.62.25-1.25.5-1.91.73,0,0,0,0,0,0-.95.33-1.93.63-3,.9l-.37.09q-1.61.41-3.34.71c-.82.14-1.64.27-2.45.37-.56.08-1.11.14-1.66.2l-.29,0h0a65.42,65.42,0,0,1-6.62.36H48a57,57,0,0,1-6.73-.41l-.37,0c-1.11-.14-2.17-.31-3.21-.51h0c-1.13-.21-2.21-.45-3.26-.73a2.55,2.55,0,0,1-.33-.09h0a47.42,47.42,0,0,1-7.32-2.57l0,0L26.38,88l0,0-.16-.07L26,87.87l-.26-.13c-.82-.38-1.61-.78-2.34-1.19-1.12-.61-2.16-1.23-3.09-1.85l-.4-.27a37.83,37.83,0,0,1-5.06-4l-.15-.15-.56-.55c-.75-.78-1.54-1.66-2.31-2.59-1.79-2.13-3.5-4.46-4.6-6l0,0c-.18-.25-.34-.47-.47-.67l-.44-.63c-.2-.27-.31-.43-.31-.43H6l-.65,0a.41.41,0,0,1-.13,0H5l-.19,0-.1,0-.31,0-.34-.07a10.45,10.45,0,0,1-1.25-.32l-.37-.15-.08,0-.3-.13-.13-.06-.16-.09h0l0,0a2,2,0,0,1-.24-.16A1.9,1.9,0,0,1,1.23,68,1.73,1.73,0,0,1,1,67.74a2.71,2.71,0,0,1-.42-.53,3.26,3.26,0,0,1-.38-.82,1.94,1.94,0,0,1,.44-2.06A1.63,1.63,0,0,1,1.18,64a2,2,0,0,1,.33-.09,1.78,1.78,0,0,1,.45,0H2l-.07-.07a2.45,2.45,0,0,1-.21-.24l0,0a4.87,4.87,0,0,1-.34-.44h0a4.78,4.78,0,0,1-.45-.75L.73,62a3.23,3.23,0,0,1-.13-.33l0-.16a1.11,1.11,0,0,1-.05-.17h0a4.93,4.93,0,0,1-.13-1.51c.06-.83.53-1.22,1-1.22a.43.43,0,0,1,.14,0h0a.05.05,0,0,1,0,0l0,0a.9.9,0,0,1,.26.13.68.68,0,0,1,.11.1s0,0,.05,0c.2.23.31.44.48.62l.08.08a1.13,1.13,0,0,0,.6.31l.13,0a.92.92,0,0,0,.2,0h.24L4,60a.51.51,0,0,0,.16,0,2.93,2.93,0,0,0,1.18-.6l.19-.14a5.32,5.32,0,0,0,.54-.51l.37-.4,0,0L6.69,58l.37-.48L7.43,57c.15-.22.31-.46.46-.71s.15-.23.22-.35c.47-.77,1-1.66,1.48-2.69h0l0,0h0c.13-.24.24-.49.37-.74s.2-.42.3-.63q.76-1.6,1.6-3.57L12,48c.62-1.46,1.14-2.69,1.6-3.75l.09-.22c.1-.25.21-.49.31-.72.39-.92.74-1.69,1.06-2.38a.11.11,0,0,0,0,0l.11-.23a32.25,32.25,0,0,1,3.21-5.52L18.5,35c.15-.23.31-.46.49-.71l.07-.1h0l.19-.21a31.46,31.46,0,0,1,2.89-2.74h0c.32-.27.67-.56,1.05-.86l0,0,.34-.27.18-.13c.43-.33.9-.67,1.4-1,1-.67,2-1.36,3.21-2l.33-.19.18-.1.54-.3c.49-.27,1-.53,1.53-.79l.71-.34q.81-.39,1.67-.75c.53-.22,1.07-.43,1.62-.64l.88-.31,0,0h0l.3-.1.07,0,.06,0h0l1-.33,1-.31h0l1.08-.28.91-.22.53-.12,1.13-.22.16,0,.28,0,1.34-.21c.7-.09,1.41-.17,2.14-.24l.19,0,1-.07,1,0H49l1,0c1.54,0,3,0,4.47.05a2.31,2.31,0,0,1,.33,0l1,0c.46,0,.92,0,1.38.08h.14c.39,0,.78.05,1.16.1h.05c1,.09,2,.2,3,.34h0l.37.05h0c.82.12,1.62.26,2.4.42.43.08.86.17,1.28.27s.63.14.94.23h0l.22,0,.07,0,0,0,.49.13.6.16.08,0,.06,0,1.08.33c.4.13.79.27,1.18.42s.7.26,1,.4l.27.11.06,0,.37.16a2.35,2.35,0,0,1,.32.14h0c.55.24,1.08.5,1.6.78.23.11.45.24.67.36l.44.26c.27.14.53.31.78.47a21.31,21.31,0,0,1,1.76,1.22L78,28h0l.31.25.73.6c.24.2.48.42.71.63s.52.49.77.75l.15.15c.21.2.41.42.6.63s.42.45.6.69l.53.65.22.27.37.48.36.48.52.74.13.2.09.14,0,0c.16.25.33.5.49.77s.4.66.6,1l.14.25,0,.06.19.33.18.33,0,0,0,0,.11.2.56,1,1.05,1.84,0,.08v0l.31.55,0,0,.08.14,0,.06s0,0,0,0l.31.52.12.2a.2.2,0,0,1,0,.05l.06.11h0c.14.26.28.49.4.7h0l.18.29,0,0h0l.06.1,0,0c.1.16.2.31.29.43s.29.41.41.56a1.27,1.27,0,0,0,.39.35c.43.23.62-.43,1-1.59l.06-.19a.11.11,0,0,0,0-.05c0-.09.06-.17.09-.26.1-.32.22-.67.35-1.05v0l.13-.37a.4.4,0,0,1,0-.08v0l.09,0,.13.08a5.41,5.41,0,0,1,1.27,1.07,1.71,1.71,0,0,1,.2.21l.16.2a2.81,2.81,0,0,1,.18.24l.12.15v0c.14.2.28.41.42.64a.2.2,0,0,1,0,.05l.11.19h0l0,.05.29.54.12.27c.14.29.27.61.41.95h0l0,0h0c.09.23.16.47.24.72,0,0,0,0,0,0a2.23,2.23,0,0,1,.07.21L96,47h0c.18.62.34,1.29.49,2h0s0,0,0,.06h0v0a.39.39,0,0,0,0,.09v0a.4.4,0,0,1,0,.1c0,.13,0,.27.06.41s0,.28.06.42a12.42,12.42,0,0,1,.12,1.51v.12C96.77,52,96.78,52.17,96.77,52.33Z"/><path class="cls-32" d="M23.67,41.09c5.05-5,10.89-2,15.42-.18a15.32,15.32,0,0,0,11.62.83c6.44-1.89,7.09-1.77,9.81-.12s6.14-1.89,11.69-.76,8.27,2.24,10.69.65,4.31-.77,5.49.65a1.07,1.07,0,0,0,.2.18c-.28-.48-.61-1-1-1.69l-.07-.08c-7.35-7.44-18-5.4-32-5.31-12.5.08-11.22-3.25-21.14-2.18S20.6,40.15,20.6,40.15L15,41c-.42.91-.89,2-1.46,3.32A12.35,12.35,0,0,0,23.67,41.09Z"/><path class="cls-32" d="M41,28.78c6.47,1.68,12.58,5.36,22.58,3.54,11.7-2.13,21.26,5.13,23.92,8.23h0c-.64-1.1-1.39-2.45-2.32-4.06C78.76,25.24,68.13,20.72,49,21.07A42.86,42.86,0,0,0,22.15,31.22l.1-.05C27,28.78,34.57,27.1,41,28.78Z"/><path class="cls-32" d="M26.51,52c1.5,3.72,10.19,4.69,19.39,3.55s4.25-3.63,14.88-2.31,14.44-1.15,17.45-3.36,9.22,1.93,12.14-5A5.66,5.66,0,0,1,89,43a9.28,9.28,0,0,0-6.4-.53c-2.24.88-8,3.43-15.12,1.95s-10.21.47-13.69,1.89S48,49.83,39.44,47.41s-10.75-4.31-15.77.36c-3.35,3.11-8.58,1.63-11.69.29l-.09.21c-.56,1.32-1.09,2.51-1.6,3.58a15,15,0,0,0,4.53.67C20.92,52.51,25,48.26,26.51,52Z"/><path class="cls-32" d="M90.19,60.31c-4.79,3.54-6.65,4.34-11.08,5.5S74,71.65,69.64,73s-11.34.17-16.83,2.75S43.33,77.93,38.11,77s-7.26-3.1-13.64.71C21.62,79.46,17.84,80,14.52,80a34.39,34.39,0,0,0,3,2.63c3.59-.26,7.4-.24,9,.76,3.36,2.13,7.08,4.87,16.74,2.65S54.93,82,63.26,83s15.5-4.17,19.58-9.84,4.52-8.5,7.71-12.49a3.18,3.18,0,0,1,3.94-.91,9.47,9.47,0,0,0,.58-.87A10.13,10.13,0,0,0,90.19,60.31Z"/><path class="cls-32" d="M96.76,53c0,.32,0,.64-.09,1l0,.33c0,.09,0,.16,0,.25l0,.22h0a.13.13,0,0,1,0,.05h0a.82.82,0,0,1,0,.13c0,.2-.08.39-.12.58a.59.59,0,0,0,0,.13c0,.19-.1.38-.16.56s-.11.37-.17.55l0,.14h0c-1,.07-1.91.15-2.77.23h0l-.2,0h0c-.47,0-.91.09-1.34.14h0l-.82.1c-1.05.13-2,.28-2.83.45l-.14,0h0a17.64,17.64,0,0,0-4.05,1.24h0a9.24,9.24,0,0,0-2.16,1.36A15.49,15.49,0,0,1,71.94,64c-2.39-.18-5.84-.89-10.27,2.39S53.34,69,47.5,69.7a39.9,39.9,0,0,1-9.71-.27c-1.57-.17-3.25-.33-5.16-.4h0c-.59,0-1.2,0-1.84,0h-.93c-.6,0-1.12,0-1.58,0-3.79-.12-3.65-.58-9.36-1.17l-2.31-.21a15.12,15.12,0,0,0-8.92,2.3c-.29.16-.56.34-.84.52l0,0-.44-.63L6,69.34H5.94l-.4,0H5.37l-.16,0h0a11.51,11.51,0,0,1-2.35-.52l-.05,0-.2-.07-.2-.07-.3-.13-.13-.06-.16-.09-.3-.19A1.9,1.9,0,0,1,1.23,68,1.73,1.73,0,0,1,1,67.74a2.71,2.71,0,0,1-.42-.53,3.93,3.93,0,0,1-.38-.82,1.94,1.94,0,0,1,.44-2.06A1.63,1.63,0,0,1,1.18,64a1.14,1.14,0,0,1,.33-.09l.05,0,.12,0a.74.74,0,0,1,.23,0H2l-.09-.07-.21-.24,0,0-.34-.44h0a6.38,6.38,0,0,1-.45-.75L.73,62a3.23,3.23,0,0,1-.13-.33l0-.16,0-.16h0a4.93,4.93,0,0,1-.13-1.51c.06-.83.53-1.22,1-1.22a.43.43,0,0,1,.14,0h0a.05.05,0,0,1,0,0l0,0a.9.9,0,0,1,.26.13.68.68,0,0,1,.11.1s0,0,.05,0c.2.23.31.44.48.62l.08.08a1.13,1.13,0,0,0,.6.31,1.24,1.24,0,0,1-.23-.09A1.62,1.62,0,0,0,3.3,60l.2,0h.24L4,60l.16,0a3.2,3.2,0,0,0,1.18-.6l.19-.14c.17-.15.35-.32.54-.51l.37-.4,0,0L6.69,58l.37-.48L7.43,57c.15-.22.31-.46.46-.71s.15-.23.22-.35c.47-.77,1-1.66,1.48-2.69h0l0,0h0c.13-.24.24-.49.37-.74.42,0,.83.09,1.25.16l.24,0c.64.09,1.29.21,1.93.35.88.19,1.75.42,2.59.68l.52.16c.72.24,1.42.51,2.09.81a17.17,17.17,0,0,1,3.27,1.79,10.73,10.73,0,0,1,1.11.89l.3.26a8,8,0,0,0,1.32.85,16.82,16.82,0,0,0,3.62,1.36c.55.14,1.13.27,1.72.39l.62.11h0l.1,0,.2,0,.15,0,.28,0,.14,0,.13,0h.09l.16,0,.21,0,.13,0h0l.13,0h.16l.65.08h.12l1.57.14h.12c.92.06,1.86.1,2.81.11h.7c.69,0,1.39,0,2.09,0h0l1.54-.08.44,0h.13l.23,0H43l.27,0h.16l.2,0,.19,0,1.45-.16a40.89,40.89,0,0,0,7.61-1.67c5.36-1.77,4.73-1.42,16-.82s13-6.47,20.06-5.75h0l.16,0c.62.08,1.32.15,2.07.22s1.8.17,2.8.25h0c.89.08,1.82.15,2.77.21Z"/><path class="cls-33" d="M19.24,33.42s15.55-15,40.7-10.52S89.27,44.28,89.27,44.28,81.36,21.14,57.86,21.37C57.86,21.37,36.36,16.77,19.24,33.42Z"/><path class="cls-34" d="M48.37,35.78c3.25.69,10.37,1.07,17.46.18s8.77,2.57,4.07,3.54-7.7,2.3-9.91.71-6.11-.62-9.83.54a13.49,13.49,0,0,1-12.23-2C33.59,35.69,38.46,33.65,48.37,35.78Z"/><path class="cls-35" d="M48.55,49.42c1-.52,7.88-3.63,12.31-4s6.9,1.5,12.4.79,1.33,6.37-6.64,6.19-9.74-1.76-13.73-.09S41.21,53.14,48.55,49.42Z"/><path class="cls-36" d="M49.44,60.94c2.93-1,8.33-3.1,11.87-1.86a18.34,18.34,0,0,0,12.84-.27c5.22-1.86,2.48,4.26-6.11,4s-8.33,5.13-16.74,5.31-9.92-1.77-4-3.54S44.48,62.71,49.44,60.94Z"/><path class="cls-16" d="M90.54,60.67l0,.14a1.52,1.52,0,0,1,.16-.93c.21,1.09-.21-2,2.15-2.66,2-.6,2.83-1.22,3-2s-.11-2.07-1.89-2.45a4.47,4.47,0,0,0,1.93-4.47c-.37-2.65-2.56-4.64-3.13-3.4-.74,1.65-1.93,1.45-3.1-.63-.13-.24-.26-.49-.38-.77l0,0,0-.07c.2.36,1.31,2.21,1.77.83l.39-1.16a.11.11,0,0,0,0-.05c.24-.67.49-1.42.58-1.69l0-.11.09,0c.56.3,3.64,2.22,4.52,9C97.63,57.66,92.76,63.59,90.54,60.67Z"/><path class="cls-37" d="M29.93,75.7S26.62,84.32,35,87.27s26.56,5.66,41.8-3.55c0,0-18.62,17.34-50.47,4.3a9.9,9.9,0,0,1,.11-5.12C27.3,80.55,29.45,77.62,29.93,75.7Z"/><path class="cls-33" d="M19.06,34.18s14.53-.71,34.37-6.31c22.15-6.26,32.33,10.08,36.95,17,0,0-9.32-24.12-35.36-23.94C55,20.9,31.64,19.13,19.06,34.18Z"/><path class="cls-24" d="M29.71,59.32S31.5,67.47,36.19,68s8.23-6.24,8.15-11.18c0,0-2.91,4.28-7.61,4.32S29.71,59.32,29.71,59.32Z"/><path class="cls-15" d="M30.83,59.24s2.31,1.14,5.19-3.52,4.1-6.54,6-5.49,3.64,8.48.13,13.26-7.41.58-8.83-.93S29.45,58.7,30.83,59.24Z"/><path class="cls-15" d="M44.34,55.71a13.86,13.86,0,0,0-.28-2c-.39-1.76-1.11-3.14-1.88-3.59l0,0a2.22,2.22,0,0,0-1.07-.31,1.59,1.59,0,0,0-.65.13h0a2,2,0,0,0-.55.31l-.16.12h0l-.09.07c-1,.89-2.13,2.67-3.71,5.22l-.16.24a11.3,11.3,0,0,1-1.08,1.44,4.74,4.74,0,0,1-2.8,1.85h-.32a1.28,1.28,0,0,1-.61-.11c-.47-.18-.6,0-.63.06a.08.08,0,0,0,0,.07,0,0,0,0,0,0,0h0a.39.39,0,0,0,0,.13h0a.06.06,0,0,1,0,0h0l0,0a1.3,1.3,0,0,0,.15.25h0l.11.15c.11.15.27.32.45.53s.77.82,1.34,1.4l.38.4h0l.46.48,0,0A13.89,13.89,0,0,0,35.84,65a6.36,6.36,0,0,0,.92.48h0l.1,0,.06,0a4.5,4.5,0,0,0,1,.28,3.72,3.72,0,0,0,.59,0,4.72,4.72,0,0,0,3.77-2.3,10.11,10.11,0,0,0,1.47-2.9.5.5,0,0,0,0-.05.18.18,0,0,0,0-.06A13.29,13.29,0,0,0,44.34,55.71Zm-.91,4.88a.11.11,0,0,1,0,0,.35.35,0,0,1,0,.09A9.71,9.71,0,0,1,42,63.38a8.1,8.1,0,0,1-.54.66c-.12.13-.23.24-.34.35a4.66,4.66,0,0,1-.87.65,3.34,3.34,0,0,1-1.19.44h0l-.13,0h0l-.36,0a2.63,2.63,0,0,1-.56-.05,6.81,6.81,0,0,1-3.39-1.92l0,0c-.42-.39-.78-.77-1.05-1.06l0,0c-.25-.27-.55-.58-.85-.89l-.69-.72,0,0-.33-.34-.24-.27-.07-.07-.34-.4h0c0-.05-.07-.09-.1-.14h0l-.15-.22.09,0a1.77,1.77,0,0,0,.76.14,4.48,4.48,0,0,0,3.18-1.76,12.55,12.55,0,0,0,1.43-1.89l0-.08c1.65-2.67,2.74-4.38,3.69-5.17a2.21,2.21,0,0,1,.79-.46h0a1.18,1.18,0,0,1,.4-.06l.24,0a2,2,0,0,1,.66.24,1.35,1.35,0,0,1,.26.19,3.09,3.09,0,0,1,.38.43v0a7.87,7.87,0,0,1,1.07,2.63h0a.65.65,0,0,1,0,.12,14.28,14.28,0,0,1,.3,3.5v.09A12,12,0,0,1,43.43,60.59Z"/><path class="cls-38" d="M30.16,59.2s2.31,1.13,5.19-3.52,4.1-6.55,6-5.5,3.64,8.47.13,13.26-7.4.59-8.83-.93S28.78,58.66,30.16,59.2Z"/><path class="cls-15" d="M29.76,59.17a0,0,0,0,0,0,0h0a.34.34,0,0,1,0,0Zm0,0h0Zm0,.11h0l.05.11Zm.09.19h0Zm0,0h0a.13.13,0,0,0,0-.05S29.85,59.41,29.85,59.43Zm.14.2a.31.31,0,0,0-.06-.08.69.69,0,0,0,.09.13l0,0Zm1-.31h0Zm0,0h0l.07,0Zm12.78-3.56a13.51,13.51,0,0,0-.31-2.18.15.15,0,0,1,0-.05c-.09-.38-.2-.74-.33-1.1a8.49,8.49,0,0,0-.43-1l-.22-.4,0,0a3.93,3.93,0,0,0-.31-.43l-.05-.07a2.64,2.64,0,0,0-.42-.41l0,0-.2-.13-.16-.08-.12,0a.7.7,0,0,0-.18-.06,2.89,2.89,0,0,0-.35-.09,1.8,1.8,0,0,0-.58,0,2.08,2.08,0,0,0-.54.17,3.72,3.72,0,0,0-.45.28,4,4,0,0,0-.38.34,3,3,0,0,0-.34.36,14.16,14.16,0,0,0-1.13,1.53c-.15.24-.3.46-.43.69-.49.78-.94,1.54-1.36,2.25l-.31.52a11.78,11.78,0,0,1-1.36,1.85A5.64,5.64,0,0,1,32,59a3.49,3.49,0,0,1-.36.15h0l-.16,0,.15,0,.07,0h0a2.83,2.83,0,0,0,.33-.13,6.1,6.1,0,0,0,1.79-1.33,12.25,12.25,0,0,0,1.47-1.88l.3-.44.13-.21.27-.4h0c.46-.71,1-1.47,1.51-2.23a13.35,13.35,0,0,1,1.17-1.43,3.33,3.33,0,0,1,.34-.33,2.41,2.41,0,0,1,.35-.28l.16-.11.11-.05h0l.1-.05a1.61,1.61,0,0,1,.42-.1h0a1.33,1.33,0,0,1,.35,0h.09l.14,0,.13,0,.08,0,.1.05.09,0a1.53,1.53,0,0,1,.2.14,2.38,2.38,0,0,1,.29.32l0,.07.1.16h0l0,.07a6.14,6.14,0,0,1,.53,1.07c0,.13.09.26.13.39s.12.39.17.59l0,.2a12.85,12.85,0,0,1,.35,2.39c0,.3,0,.59,0,.89s0,.32,0,.49v.12c0,.32,0,.65-.09,1h0a12.5,12.5,0,0,1-.54,2.47l0,0a0,0,0,0,1,0,0c0,.11-.08.22-.13.33h0a11,11,0,0,1-.6,1.31v0l-.24.39-.07.11a9.68,9.68,0,0,1-.63.86l0,0c-.09.1-.18.21-.27.31s-.2.2-.3.29a4.19,4.19,0,0,1-.64.49h0a2.62,2.62,0,0,1-.56.31,3.32,3.32,0,0,1-.86.22.8.8,0,0,1-.2,0,2.9,2.9,0,0,1-.69,0l-.24,0h0A4.58,4.58,0,0,1,35.84,65a9.34,9.34,0,0,1-1.54-1c-.2-.16-.38-.31-.56-.49l-.09-.08c-.53-.49-1-1-1.44-1.44-.61-.6-1.14-1.15-1.56-1.6l-.07-.06h0a.41.41,0,0,0-.08-.09l-.36-.41.08.1.34.39h0l.06.08c.42.46,1,1,1.54,1.64s1.22,1.36,2,2.09a8.84,8.84,0,0,0,1.34,1,5,5,0,0,0,1.7.66,3.53,3.53,0,0,0,.71.07h.26a3.86,3.86,0,0,0,.78-.16h0l.16,0A4.53,4.53,0,0,0,40.27,65a4.74,4.74,0,0,0,.57-.48h0l0,0c.13-.12.24-.24.36-.37a8.08,8.08,0,0,0,1-1.27l0,0A9.69,9.69,0,0,0,43.15,61c0-.07.05-.14.08-.22v0l0-.09a12.08,12.08,0,0,0,.59-3.17h0a.76.76,0,0,0,0-.13.13.13,0,0,0,0-.05c0-.19,0-.38,0-.57S43.87,56.07,43.85,55.75Zm-12.42,3.5.08,0-.25.05Z"/><path class="cls-33" d="M41.19,50.41a1.59,1.59,0,0,0-1.69-.05c2,1.25,4.31,7.81,1.76,12.78a7.72,7.72,0,0,1-.77,1.2,6.94,6.94,0,0,0,.81-1C44.61,58.69,43,51.43,41.19,50.41Z"/><path class="cls-15" d="M29.83,59.12a4.31,4.31,0,0,0,.64.34,3.88,3.88,0,0,0,.78.25,3.69,3.69,0,0,0,1,.09,3.59,3.59,0,0,0,1.18-.3,4.33,4.33,0,0,0,.58-.35l.28-.21.26-.24a10.9,10.9,0,0,0,1-1.11c.33-.4.66-.81,1-1.23.66-.82,1.3-1.66,1.94-2.41a17,17,0,0,1,1.89-2,4.28,4.28,0,0,1,1.66-1,1.87,1.87,0,0,1,.54,0l.19,0h-.19a2,2,0,0,0-.52.1,4.46,4.46,0,0,0-1.54,1,20.09,20.09,0,0,0-1.79,2c-.62.77-1.25,1.6-1.89,2.44-.33.41-.66.83-1,1.22a13.32,13.32,0,0,1-1.05,1.12l-.29.25-.31.21a5,5,0,0,1-.63.34A3.74,3.74,0,0,1,32.3,60a3.49,3.49,0,0,1-1.09-.15,4.85,4.85,0,0,1-.77-.32A3.39,3.39,0,0,1,29.83,59.12Z"/><path class="cls-15" d="M43.71,53.66l-.17-.08a2.21,2.21,0,0,0-.49-.14,2,2,0,0,0-.77,0,2.4,2.4,0,0,0-.87.45,4.18,4.18,0,0,0-.8.88c-.27.35-.54.73-.83,1.13s-.59.79-.91,1.19-.67.8-1,1.18a11.36,11.36,0,0,1-1.18,1.06L36,59.8a2.08,2.08,0,0,1-.34.19l-.34.17-.37.17-.34.1-.33.1-.16,0-.18,0a6.5,6.5,0,0,1-.7.08c-.21,0-.44,0-.63,0L32,60.51l-.48-.21a4.8,4.8,0,0,1-.7-.44,3.48,3.48,0,0,1-.42-.33l-.14-.12s.22.13.63.33c.2.1.45.2.74.31l.47.13.52.06.57,0a5.05,5.05,0,0,0,.58-.11l.16,0,.15-.06.33-.13.33-.12h0l0,0,.08,0L35,59.6l.31-.17a1.48,1.48,0,0,0,.3-.19l.58-.42a12,12,0,0,0,1.1-1c.36-.35.68-.74,1-1.12l.94-1.14c.31-.38.62-.73.9-1.07a4.46,4.46,0,0,1,1-.88,2.46,2.46,0,0,1,1.05-.39,1.83,1.83,0,0,1,.85.1,1.75,1.75,0,0,1,.48.24Z"/><path class="cls-15" d="M44.26,57.44a.62.62,0,0,0-.14-.06,2,2,0,0,0-.41-.09h-.3c-.11,0-.22,0-.35,0a1.51,1.51,0,0,0-.39.09,2.86,2.86,0,0,0-.42.14l-.43.21a2.88,2.88,0,0,0-.43.28c-.29.19-.6.43-.92.66a14.2,14.2,0,0,1-2.21,1.19c-.39.17-.79.31-1.19.45a12,12,0,0,1-1.19.32,7.6,7.6,0,0,1-1.15.18,6.8,6.8,0,0,1-1,0l-.46,0-.41-.09-.18,0-.16-.06-.3-.11c-.16-.08-.28-.17-.37-.22l-.13-.08.14.07c.09,0,.22.11.38.17l.29.08.16,0,.18,0a3.54,3.54,0,0,0,.4.05h.44a4.79,4.79,0,0,0,.49,0,4,4,0,0,0,.52-.07c.35,0,.72-.13,1.11-.22.18-.06.38-.1.57-.16l.58-.18c.39-.14.78-.29,1.16-.45a15.5,15.5,0,0,0,2.18-1.13c.17-.1.32-.22.48-.32l.47-.29a2.39,2.39,0,0,1,.47-.27l.47-.2a2.31,2.31,0,0,1,.45-.12,1.37,1.37,0,0,1,.41-.06,3.38,3.38,0,0,1,.37,0l.31,0a1.88,1.88,0,0,1,.41.14A.68.68,0,0,1,44.26,57.44Z"/><path class="cls-15" d="M43.55,60.55l-.11.08-.33.2a8.08,8.08,0,0,1-1.27.54c-.28.08-.57.18-.89.25a9.75,9.75,0,0,1-1,.19c-.35,0-.74.1-1.1.11s-.75,0-1.14,0-.76,0-1.13,0-.74-.06-1.1-.11-.69-.11-1-.19-.62-.16-.9-.25a4.82,4.82,0,0,1-1.25-.59,1.23,1.23,0,0,1-.29-.27l-.07-.11.1.09a1.29,1.29,0,0,0,.33.17,6.57,6.57,0,0,0,1.29.33l.88.12,1,.09c.35,0,.7,0,1.06,0s.73,0,1.1,0,.74,0,1.11,0l1.06-.05c.34,0,.68-.06,1-.08s.61-.09.89-.12l.74-.15c.22-.05.42-.08.57-.13A3.69,3.69,0,0,0,43.55,60.55Z"/><path class="cls-15" d="M42.33,62.86l-.5.08c-.32,0-.79.1-1.35.13s-1.22,0-1.92,0a15.35,15.35,0,0,1-2.19-.27c-.37-.07-.74-.17-1.09-.27a8.88,8.88,0,0,1-1-.36,8.46,8.46,0,0,1-1.7-.92L32.23,61,32,60.77c-.17-.15-.3-.3-.41-.42s-.34-.39-.34-.39l.38.35c.13.1.27.24.46.36s.39.27.62.42.5.29.78.41a9.61,9.61,0,0,0,.92.38c.32.12.66.23,1,.32s.71.18,1.07.25.73.13,1.08.18.72.1,1.06.12c.69.06,1.34.1,1.89.11s1,0,1.34,0Z"/><path class="cls-15" d="M41.7,63.9l-.1.12a2.52,2.52,0,0,1-.33.28,2.89,2.89,0,0,1-.6.34,2.79,2.79,0,0,1-.4.15,2,2,0,0,1-.46.11,4.51,4.51,0,0,1-1.07.08l-.58-.05c-.19,0-.39-.07-.59-.12a2.66,2.66,0,0,1-.31-.07l-.3-.1c-.2-.06-.4-.13-.6-.21l-.59-.27a4.41,4.41,0,0,1-.58-.29,12.93,12.93,0,0,1-1.1-.69l-.52-.37a5.33,5.33,0,0,1-.49-.37l-.88-.76c-.28-.26-.51-.51-.73-.74C30.54,60,30,59.37,30,59.37s.71.47,1.71,1.28l.8.64c.29.21.61.42.92.66s.66.44,1,.68.7.42,1.06.63a5.17,5.17,0,0,0,.55.29l.55.27.56.22.28.1.28.08c.18,0,.36.11.55.15l.53.09a5.43,5.43,0,0,0,1,0,3.57,3.57,0,0,0,.44,0,2.57,2.57,0,0,0,.39-.07,3.33,3.33,0,0,0,.62-.21A2.41,2.41,0,0,0,41.7,63.9Z"/><path class="cls-24" d="M37.5,64.44c-3.24-1.29-1.67-3-1.67-3-2.28-.43,0-1.77,0-1.77-2.1.76.14-2,.14-2s-2.52,1-.62-1.52A5,5,0,0,0,36,54.71l-.61,1c-2.89,4.65-5.19,3.52-5.19,3.52-1.38-.55,1.09,1.81,2.51,3.31s5.31,5.71,8.83.93A10,10,0,0,0,43,60.69C41.41,63.46,39.32,65.15,37.5,64.44Z"/><g class="cls-26"><path class="cls-13" d="M36,56.69a8.18,8.18,0,0,1,.48-1.17,11.67,11.67,0,0,1,.63-1.14,12.11,12.11,0,0,1,.87-1.2c.16-.2.33-.39.5-.58a7.33,7.33,0,0,1,.54-.5,4.24,4.24,0,0,1,.55-.43,4.84,4.84,0,0,1,.54-.33,3.45,3.45,0,0,1,.5-.2A2,2,0,0,1,41,51a1.63,1.63,0,0,1,.35,0l-.08,0-.23.1c-.09,0-.21.12-.33.2l-.39.3a10.7,10.7,0,0,0-.88.87c-.31.33-.62.7-.93,1.08l-.91,1.12-.8,1C36.32,56.31,36,56.69,36,56.69Z"/><path class="cls-29" d="M42.08,52.7s-.09,0-.23,0a1,1,0,0,0-.23.13,2.39,2.39,0,0,0-.27.22l-.3.29c-.1.1-.21.22-.32.34s-.22.26-.34.38l-.35.39-.35.4c-.11.13-.24.26-.35.38s-.44.47-.65.67a6.71,6.71,0,0,1-.7.62,7.06,7.06,0,0,1,.37-.86c.13-.25.3-.53.49-.82a7.5,7.5,0,0,1,.67-.86,6.69,6.69,0,0,1,.79-.76,3.15,3.15,0,0,1,.42-.31,2.84,2.84,0,0,1,.41-.22,2.36,2.36,0,0,1,.39-.13.86.86,0,0,1,.32,0,.39.39,0,0,1,.2.06Z"/><path class="cls-28" d="M42.37,60.25l-.2.1a5.76,5.76,0,0,1-.55.24c-.23.09-.5.17-.8.25l-.47.09a2.83,2.83,0,0,1-.49.08l-.49,0a2.25,2.25,0,0,1-.48,0h-.44a2.38,2.38,0,0,1-.4,0c-.49-.09-.8-.19-.8-.19s.33,0,.82,0c.24,0,.52,0,.81,0l.23,0,.23,0,.48-.05c.15,0,.31,0,.47-.06l.45-.07c.29-.06.57-.1.81-.15Z"/><path class="cls-27" d="M41.5,62.51a7.7,7.7,0,0,1-.77.15,7.38,7.38,0,0,1-.8.08l-.45,0H39c-.3,0-.62,0-.91-.05a4.09,4.09,0,0,1-.42-.06l-.38-.07a4.75,4.75,0,0,1-.54-.18l-.2-.08.21,0c.14,0,.32,0,.56,0l.79,0c.29,0,.6,0,.91,0h.91l.79,0C41.19,62.47,41.5,62.51,41.5,62.51Z"/><path class="cls-39" d="M35.85,63A.92.92,0,0,0,36,63l.2.06.25.07.31.07a2.8,2.8,0,0,0,.33.06c.24,0,.49.07.75.09s.25,0,.38,0l.37,0,.35,0h.31c.39,0,.66,0,.66,0a6.24,6.24,0,0,1-.64.17l-.32.05-.36,0-.39,0-.4,0-.4,0a3.32,3.32,0,0,1-.39-.1,2.07,2.07,0,0,1-.34-.11l-.3-.13c-.09,0-.16-.1-.24-.13A1.35,1.35,0,0,1,36,63.1,1,1,0,0,1,35.85,63Z"/><path class="cls-40" d="M37.51,59.52l.18-.18c.12-.11.29-.28.49-.46s.46-.38.74-.59.59-.42.9-.61a9,9,0,0,1,1-.5,3.56,3.56,0,0,1,.47-.19,2.59,2.59,0,0,1,.44-.13,1.65,1.65,0,0,1,.38-.06,1.49,1.49,0,0,1,.29,0l.26,0-.25,0a1.59,1.59,0,0,0-.28.07l-.35.12a7.55,7.55,0,0,0-.83.4,5.19,5.19,0,0,0-.46.26c-.16.08-.31.18-.47.27l-.91.56-.8.5-.57.35Z"/></g><path class="cls-41" d="M30.76,69v.4A25.16,25.16,0,0,1,30.1,75l-.16.66a.18.18,0,0,0,0,.06l0,.06a.23.23,0,0,0,0,.07c0,.1-.06.21-.1.31v0a.51.51,0,0,1,0,.1l0,.07a1.3,1.3,0,0,1,0,.16,13.89,13.89,0,0,1-.9,2.18,9.17,9.17,0,0,1-.68,1.13,12.1,12.1,0,0,0-1.2,2.1,10.08,10.08,0,0,0-.52,1.43,10,10,0,0,0-.29,1.37s0,.09,0,.13a0,0,0,0,0,0,0h0a.35.35,0,0,0,0,.09,7.42,7.42,0,0,0,.26,2.94l0,.09v0l-.16-.08L26,87.88l-.26-.13c-.51-.24-1-.48-1.49-.73L24.17,87c-1.41-.74-2.68-1.49-3.82-2.23-.13-.09-.27-.17-.4-.27a38.36,38.36,0,0,1-5-4l-.14-.14h0l-.3-.28-.34-.34c-.46-.48-.94-1-1.42-1.54s-1-1.11-1.43-1.69a.15.15,0,0,0,0-.05L11,76.09l0,0-.09-.12-.57-.72-.55-.71c-.65-.85-1.25-1.66-1.78-2.38l-.19-.27c-1-1.37-1.67-2.36-1.76-2.5h0l-.4,0H5.31l-.11,0H5l-.19,0-.1,0-.65-.11a10.45,10.45,0,0,1-1.25-.32l-.37-.15-.16-.06-.21-.1-.13-.06-.16-.09h0l0,0A4.38,4.38,0,0,1,1.2,68a2.17,2.17,0,0,1-.29-.24,2.71,2.71,0,0,1-.42-.53,3.4,3.4,0,0,1-.43-1,0,0,0,0,1,0,0L0,66a.26.26,0,0,1,0-.08.1.1,0,0,1,0,0,3.15,3.15,0,0,1,0-.38.32.32,0,0,1,0-.09,1.76,1.76,0,0,1,1.55-1.55l.12,0a.74.74,0,0,1,.23,0A5.47,5.47,0,0,1,.5,61.51h0a4.59,4.59,0,0,1-.18-1.68c.05-.87.56-1.25,1-1.22a.43.43,0,0,1,.14,0h0l.07,0a.9.9,0,0,1,.26.13.68.68,0,0,1,.11.1s0,0,.05,0c.2.23.31.44.48.62l.08.08a1.13,1.13,0,0,0,.6.31l.07,0H3.3a.92.92,0,0,0,.2,0h.24l.13,0a4.31,4.31,0,0,0,2.58-1.76,26.4,26.4,0,0,0,3.15-5.1l0,0c.45-.89.91-1.87,1.4-3l.09-.22c.24-.53.48-1.09.73-1.68.68-1.61,1.25-3,1.75-4.11h0l.53-1.21c.27-.64.53-1.22.76-1.72l.14-.31a1.55,1.55,0,0,1,.08-.16c.47-1,.88-1.83,1.32-2.59.54-.94,1.11-1.81,1.88-2.92l.09,0a2.15,2.15,0,0,1,.42-.18h0c1.11-.31,2,.47,2.88,1.8l0,0a14.25,14.25,0,0,1,.73,1.3c.44.89.86,1.9,1.28,2.94.28.69.56,1.4.83,2.08L25,44.28a12.39,12.39,0,0,1,.62,1.89,44.92,44.92,0,0,1,.9,5.89h0c0,.38.09.76.13,1.14a23.36,23.36,0,0,0,1.53,6.6,11.75,11.75,0,0,0,.71,1.36,15,15,0,0,1,1.83,7.34C30.75,68.66,30.76,68.83,30.76,69Z"/><path class="cls-42" d="M29.6,62.8s1.82,13.3-3.81,14.52c-6.78,1.48-13-5.77-8-11.54,0,0,.75-1,1.24-1.75a7.36,7.36,0,0,1-.66.4h0c-3.54,1.59-5.31-3-5.31-3,.24,2.13.18,3.88-5.38,4-4.08.05-7.2-4.07-7.2-4.07a7.43,7.43,0,0,0,1.12,2.54S-.2,63.6,0,65.89a1.26,1.26,0,0,0,0,.2.7.7,0,0,1,0-.2c0,.53.31,3.2,6,3.45A47.24,47.24,0,0,0,26.32,88.39a9.32,9.32,0,0,1,1.77-8.58C31.46,75.46,31.29,66.25,29.6,62.8Z"/><path class="cls-42" d="M2.09,63.72s2.27,3.87,6.57,3.82,8.64-2.65,8.64-2.65A6.41,6.41,0,0,1,14,63.29a7.52,7.52,0,0,1-5.89,2.26A12.26,12.26,0,0,1,2.09,63.72Z"/><path class="cls-43" d="M1.79,63.36s.18.14.5.36a14.12,14.12,0,0,0,1.35.85,13.09,13.09,0,0,0,2,.93,10.12,10.12,0,0,0,1.2.34,8.78,8.78,0,0,0,1.26.2,8.86,8.86,0,0,0,1.27,0l.61-.07.31-.06.29-.07c.2,0,.38-.1.57-.16a3.87,3.87,0,0,0,.53-.19c.35-.12.67-.29,1-.42s.56-.29.78-.44.44-.26.59-.37l.51-.34-.42.46c-.13.14-.31.3-.52.48a8.12,8.12,0,0,1-.73.57,6.65,6.65,0,0,1-1,.56c-.17.09-.36.18-.55.26a6.27,6.27,0,0,1-.6.21l-.32.09-.32.07a4.73,4.73,0,0,1-.67.11,8.32,8.32,0,0,1-1.39,0,8.74,8.74,0,0,1-1.36-.23,8.31,8.31,0,0,1-1.26-.43,8.83,8.83,0,0,1-1.1-.56,9.07,9.07,0,0,1-.92-.61,9.74,9.74,0,0,1-1.23-1.08A5.29,5.29,0,0,1,1.79,63.36Z"/><path class="cls-44" d="M26.14,46.13a11.08,11.08,0,0,0-2-3.5,8.92,8.92,0,0,0-2.36-2A8,8,0,0,0,20,40l-.68-.12h0l-.69,0a7.45,7.45,0,0,0-1.93.23A8.38,8.38,0,0,0,14,41.47a10.64,10.64,0,0,0-2.61,3A13.33,13.33,0,0,0,9.72,49c-.05.42-.14.85-.16,1.29a12.74,12.74,0,0,0-.05,1.33c0,.22,0,.46,0,.68s0,.45.06.68a12.63,12.63,0,0,0,1.08,4.08,13.21,13.21,0,0,0,.66,1.28,11.53,11.53,0,0,0,.86,1.18,8.19,8.19,0,0,0,2.2,1.89,7.49,7.49,0,0,0,2.74.94A7.23,7.23,0,0,0,20,62.05a7.73,7.73,0,0,0,2.53-1.37,9.74,9.74,0,0,0,1.07-1,11.61,11.61,0,0,0,.9-1.11,12.56,12.56,0,0,0,.76-1.2c.12-.21.21-.42.32-.63a5.57,5.57,0,0,0,.29-.64,14.65,14.65,0,0,0,1.06-5.25A13.9,13.9,0,0,0,26.14,46.13Z"/><path class="cls-45" d="M18.57,40.55c-4.45-.5-8.52,3.61-9.08,9.19s2.59,10.49,7,11,8.52-3.61,9.08-9.19S23,41,18.57,40.55Z"/><path class="cls-46" d="M11.15,48.92c-.47,4.59,2.22,8.65,6,9.08s7.21-3,7.68-7.55-2.22-8.66-6-9.08S11.61,44.32,11.15,48.92Z"/><path class="cls-47" d="M19.59,51.76c-.61,3.64-3,5.91-5.33,5.07s-3.74-4.47-3.12-8.12,3-5.91,5.33-5.07S20.2,48.12,19.59,51.76Z"/><path d="M17.9,51.15c-.36,2.19-1.8,3.55-3.2,3s-2.25-2.68-1.88-4.87,1.8-3.55,3.2-3S18.27,49,17.9,51.15Z"/><g class="cls-48"><path class="cls-49" d="M16.08,56.43a1.36,1.36,0,0,0,.77-1.51c-.12-.48-.38-.58-.65-.55a1.84,1.84,0,0,1-1.59.38,3.36,3.36,0,0,1-2.09-2.59c-.12-1.16-.12-1.66-.6-1.39s-.33,1.89-.09,2.7a4.41,4.41,0,0,0,2.55,2.91,2.27,2.27,0,0,0,1.56.1Z"/></g><path class="cls-13" d="M18.31,44.95c-1.24-2.3-2.54-1-2.82.95s.78,4.52,2.58,5.08S20,48.06,18.31,44.95Z"/><path class="cls-37" d="M30.22,75l-.09,0s-3.54,8.23-10.54,5.93S6.31,67.76,6.31,67.76c-.71.71-2.48.35-4.25.26H1.7a9.24,9.24,0,0,0,4.37,1.06A47.29,47.29,0,0,0,26.41,88.13a9.31,9.31,0,0,1,1.77-8.57A12.26,12.26,0,0,0,30.22,75Z"/><path class="cls-28" d="M20.91,63.73s4.85-.43,5.39-3.65c0,0,5.65,12.45-2,12.3C16.4,72.22,18.9,64.65,20.91,63.73Z"/><path class="cls-13" d="M8.24,57s-2.33,4.13-4.56,3.64S6.5,64.3,8.24,57Z"/><path class="cls-13" d="M16.76,38.85s1.41-3.6,3-3.43S15.7,41.45,16.76,38.85Z"/></g></g></g></svg>