<svg xmlns="http://www.w3.org/2000/svg" 
	xmlns:xlink="http://www.w3.org/1999/xlink" viewBox="0 0 294.3 262.04">
	<defs>
		<style>.cls-1{mask:url(#mask);filter:url(#luminosity-noclip-3);}.cls-18,.cls-2,.cls-20,.cls-21,.cls-33,.cls-34,.cls-4,.cls-46,.cls-48,.cls-50,.cls-52,.cls-53,.cls-8{mix-blend-mode:multiply;}.cls-2{fill:url(#linear-gradient);}.cls-3{mask:url(#mask-2);filter:url(#luminosity-noclip-4);}.cls-4{fill:url(#linear-gradient-2);}.cls-5{fill:none;}.cls-6{isolation:isolate;}.cls-7{fill:url(#linear-gradient-3);}.cls-8{fill:#c5c8c9;}.cls-22,.cls-36,.cls-8{opacity:0.8;}.cls-9{clip-path:url(#clip-path);}.cls-10{fill:url(#linear-gradient-4);}.cls-11{mask:url(#mask-3);}.cls-12{fill:url(#linear-gradient-5);}.cls-13,.cls-22,.cls-24,.cls-25,.cls-28,.cls-29,.cls-30,.cls-36,.cls-59{fill:#fff;}.cls-14{fill:url(#linear-gradient-6);}.cls-15{fill:#fcb116;}.cls-16,.cls-19{fill:#fdb604;}.cls-17{fill:#f68d1f;}.cls-19,.cls-28,.cls-33,.cls-48{opacity:0.3;}.cls-20,.cls-46,.cls-53{fill:#f0accd;}.cls-21,.cls-37{fill:#ffdf00;}.cls-22,.cls-27,.cls-59{mix-blend-mode:overlay;}.cls-23,.cls-30{opacity:0.6;}.cls-24,.cls-46,.cls-52{opacity:0.7;}.cls-25,.cls-50,.cls-53,.cls-59{opacity:0.5;}.cls-26{fill:url(#linear-gradient-7);}.cls-29{opacity:0.1;}.cls-31{fill:url(#linear-gradient-8);}.cls-32{fill:url(#linear-gradient-9);}.cls-34{fill:#eb74ad;}.cls-35{fill:url(#linear-gradient-10);}.cls-38{fill:url(#linear-gradient-11);}.cls-39{fill:#f37321;}.cls-40{fill:url(#linear-gradient-12);}.cls-41{fill:url(#linear-gradient-13);}.cls-42{fill:url(#linear-gradient-14);}.cls-43{fill:url(#linear-gradient-15);}.cls-44{fill:url(#linear-gradient-16);}.cls-45{fill:url(#linear-gradient-17);}.cls-47{fill:url(#linear-gradient-18);}.cls-48{fill:#900124;}.cls-49,.cls-50,.cls-52{fill:#d98290;}.cls-51{fill:#9c1e0f;}.cls-54{fill:#c5d3d6;}.cls-55{fill:url(#linear-gradient-19);}.cls-56{fill:url(#linear-gradient-20);}.cls-57{mask:url(#mask-4);}.cls-58{fill:url(#linear-gradient-21);}.cls-60{filter:url(#luminosity-noclip-2);}.cls-61{filter:url(#luminosity-noclip);}</style>
		<filter id="luminosity-noclip" x="14.74" y="-4572.9" width="5.18" height="32766" filterUnits="userSpaceOnUse" color-interpolation-filters="sRGB">
			<feFlood flood-color="#fff" result="bg"/>
			<feBlend in="SourceGraphic" in2="bg"/>
		</filter>
		<mask id="mask" x="14.74" y="-4572.9" width="5.18" height="32766" maskUnits="userSpaceOnUse">
			<g class="cls-61"/>
		</mask>
		<linearGradient id="linear-gradient" x1="3258.09" y1="507.61" x2="3280.43" y2="507.61" gradientTransform="matrix(0.28, 0.43, -0.59, 0.87, -606.26, -1773.35)" gradientUnits="userSpaceOnUse">
			<stop offset="0"/>
			<stop offset="0.41" stop-color="#fff"/>
			<stop offset="0.47" stop-color="#fafafa"/>
			<stop offset="0.54" stop-color="#ececec"/>
			<stop offset="0.62" stop-color="#d5d5d5"/>
			<stop offset="0.7" stop-color="#b4b4b4"/>
			<stop offset="0.79" stop-color="#8a8a8a"/>
			<stop offset="0.88" stop-color="#565656"/>
			<stop offset="0.96" stop-color="#1b1b1b"/>
			<stop offset="1"/>
		</linearGradient>
		<filter id="luminosity-noclip-2" x="60.8" y="-4572.9" width="20.85" height="32766" filterUnits="userSpaceOnUse" color-interpolation-filters="sRGB">
			<feFlood flood-color="#fff" result="bg"/>
			<feBlend in="SourceGraphic" in2="bg"/>
		</filter>
		<mask id="mask-2" x="60.8" y="-4572.9" width="20.85" height="32766" maskUnits="userSpaceOnUse">
			<g class="cls-60"/>
		</mask>
		<linearGradient id="linear-gradient-2" x1="586.15" y1="-362.94" x2="604.26" y2="-362.94" gradientTransform="matrix(1.06, -0.03, 0.24, 1.08, -472.72, 495.79)" xlink:href="#linear-gradient"/>
		<linearGradient id="linear-gradient-3" x1="613.83" y1="552.73" x2="653.77" y2="552.73" gradientTransform="translate(-527.37 -549.64) rotate(7.01)" gradientUnits="userSpaceOnUse">
			<stop offset="0.3" stop-color="#fff"/>
			<stop offset="0.92" stop-color="#e2eaec"/>
		</linearGradient>
		<clipPath id="clip-path">
			<path class="cls-5" d="M18.73,103c7.11,8.2,18.13,3.83,25.1-6.75,6.42-9.75,12.3-23.11,11.95-35-.32-10-5.72-17.46-14.39-15.17S24,56.75,18.57,66.85C12.13,78.87,10.33,93.33,18.73,103Z"/>
		</clipPath>
		<linearGradient id="linear-gradient-4" x1="3260.74" y1="479.08" x2="3276.67" y2="520.4" gradientTransform="matrix(0.28, 0.43, -0.59, 0.87, -606.26, -1773.35)" gradientUnits="userSpaceOnUse">
			<stop offset="0" stop-color="#690044"/>
			<stop offset="0.39" stop-color="#ed3995"/>
			<stop offset="1" stop-color="#4a5993"/>
		</linearGradient>
		<filter id="luminosity-noclip-3" x="14.74" y="71.25" width="5.18" height="18.88" filterUnits="userSpaceOnUse" color-interpolation-filters="sRGB">
			<feFlood flood-color="#fff" result="bg"/>
			<feBlend in="SourceGraphic" in2="bg"/>
		</filter>
		<mask id="mask-3" x="14.74" y="71.25" width="5.18" height="18.88" maskUnits="userSpaceOnUse">
			<g class="cls-1">
				<path class="cls-2" d="M17.38,90.11c.76-.18,1.86-1.15,2.37-3.22.33-1.37.13-1.86-.23-2-.77.3-1.8.57-2.2-.52-.48-1.38-1.1-4,.15-8.82,1-3.16,1.5-4.49.66-4.21s-2.25,4.66-2.76,7c-.9,4.13-.79,8,.1,10.07.4,1,.95,1.77,1.7,1.76Z"/>
			</g>
		</mask>
		<linearGradient id="linear-gradient-5" x1="3258.09" y1="507.61" x2="3280.43" y2="507.61" gradientTransform="matrix(0.28, 0.43, -0.59, 0.87, -606.26, -1773.35)" gradientUnits="userSpaceOnUse">
			<stop offset="0" stop-color="#690044"/>
			<stop offset="0.41" stop-color="#6b7fcc"/>
			<stop offset="0.5" stop-color="#6b7ac7"/>
			<stop offset="0.61" stop-color="#6b6db9"/>
			<stop offset="0.72" stop-color="#6a56a2"/>
			<stop offset="0.84" stop-color="#6a3681"/>
			<stop offset="0.96" stop-color="#690d58"/>
			<stop offset="1" stop-color="#69004a"/>
		</linearGradient>
		<linearGradient id="linear-gradient-6" x1="5580.64" y1="-3681.57" x2="5619.68" y2="-3681.57" gradientTransform="matrix(-0.3, 0.92, 0.94, 0.25, 5263.63, -3971.43)" gradientUnits="userSpaceOnUse">
			<stop offset="0" stop-color="#e60d75"/>
			<stop offset="0.1" stop-color="#e72b86"/>
			<stop offset="0.22" stop-color="#e84b97"/>
			<stop offset="0.32" stop-color="#e95fa2"/>
			<stop offset="0.39" stop-color="#e966a6"/>
			<stop offset="0.48" stop-color="#e96aa2"/>
			<stop offset="0.58" stop-color="#eb7495"/>
			<stop offset="0.68" stop-color="#ed8680"/>
			<stop offset="0.78" stop-color="#ef9f62"/>
			<stop offset="0.88" stop-color="#f3be3c"/>
			<stop offset="0.98" stop-color="#f7e50e"/>
			<stop offset="1" stop-color="#f8ee03"/>
		</linearGradient>
		<linearGradient id="linear-gradient-7" x1="5060.99" y1="-3798.05" x2="5099.49" y2="-3798.05" gradientTransform="matrix(-0.3, 1, 0.82, 0.24, 4638.93, -3942.49)" xlink:href="#linear-gradient-6"/>
		<linearGradient id="linear-gradient-8" x1="201.87" y1="90.87" x2="269" y2="90.87" gradientTransform="matrix(1, 0, 0, 1, 0, 0)" xlink:href="#linear-gradient-6"/>
		<linearGradient id="linear-gradient-9" x1="192.96" y1="176.27" x2="294.3" y2="176.27" gradientTransform="matrix(1, 0, 0, 1, 0, 0)" xlink:href="#linear-gradient-6"/>
		<linearGradient id="linear-gradient-10" x1="95.48" y1="16.05" x2="141.91" y2="16.05" gradientTransform="matrix(1, 0, 0, 1, 0, 0)" xlink:href="#linear-gradient-6"/>
		<linearGradient id="linear-gradient-11" x1="23.04" y1="80.82" x2="105.82" y2="80.82" gradientUnits="userSpaceOnUse">
			<stop offset="0.08" stop-color="#efc8de"/>
			<stop offset="0.17" stop-color="#eec1da"/>
			<stop offset="0.3" stop-color="#edadce"/>
			<stop offset="0.45" stop-color="#ea8dba"/>
			<stop offset="0.46" stop-color="#ea8bb9"/>
			<stop offset="0.54" stop-color="#ea84b5"/>
			<stop offset="0.65" stop-color="#e970ab"/>
			<stop offset="0.78" stop-color="#e85099"/>
			<stop offset="0.93" stop-color="#e72381"/>
			<stop offset="1" stop-color="#e60d75"/>
		</linearGradient>
		<linearGradient id="linear-gradient-12" x1="40.57" y1="184.42" x2="197.88" y2="184.42" xlink:href="#linear-gradient-11"/>
		<linearGradient id="linear-gradient-13" x1="28.98" y1="159.62" x2="207.25" y2="159.62" xlink:href="#linear-gradient-11"/>
		<linearGradient id="linear-gradient-14" x1="37.25" y1="138.97" x2="208.15" y2="138.97" xlink:href="#linear-gradient-11"/>
		<linearGradient id="linear-gradient-15" x1="30.67" y1="96.26" x2="191.54" y2="96.26" xlink:href="#linear-gradient-11"/>
		<linearGradient id="linear-gradient-16" x1="60.48" y1="214.84" x2="182.09" y2="214.84" xlink:href="#linear-gradient-11"/>
		<linearGradient id="linear-gradient-17" x1="30.89" y1="115.21" x2="205.08" y2="115.21" xlink:href="#linear-gradient-11"/>
		<linearGradient id="linear-gradient-18" x1="103.38" y1="178.24" x2="167.35" y2="178.24" gradientTransform="matrix(1, 0, 0, 1, 0, 0)" xlink:href="#linear-gradient-6"/>
		<linearGradient id="linear-gradient-19" x1="12108.2" y1="-1169.52" x2="12164.15" y2="-1169.52" gradientTransform="matrix(-0.77, 0.21, 0.27, 0.96, 9743.51, -1356.03)" gradientUnits="userSpaceOnUse">
			<stop offset="0.56" stop-color="#fff"/>
			<stop offset="1" stop-color="#e2eaec"/>
		</linearGradient>
		<linearGradient id="linear-gradient-20" x1="589.11" y1="-394.89" x2="605.62" y2="-352.07" gradientTransform="matrix(1.06, -0.03, 0.24, 1.08, -472.72, 495.79)" xlink:href="#linear-gradient-4"/>
		<filter id="luminosity-noclip-4" x="60.8" y="80.76" width="20.85" height="14.51" filterUnits="userSpaceOnUse" color-interpolation-filters="sRGB">
			<feFlood flood-color="#fff" result="bg"/>
			<feBlend in="SourceGraphic" in2="bg"/>
		</filter>
		<mask id="mask-4" x="60.8" y="80.76" width="20.85" height="14.51" maskUnits="userSpaceOnUse">
			<g class="cls-3">
				<path class="cls-4" d="M80.37,93.37a4.36,4.36,0,0,0,.52-5.47c-.94-1.3-1.81-1.28-2.62-.86-1,1.37-2.47,3.11-4.34,3.06a11,11,0,0,1-9.39-5.34c-1.75-3.37-2.36-4.89-3.48-3.48s1.27,6.12,3,8.27c3,3.77,7.36,5.84,11.16,5.71A7.33,7.33,0,0,0,80,93.72,2.87,2.87,0,0,0,80.37,93.37Z"/>
			</g>
		</mask>
		<linearGradient id="linear-gradient-21" x1="586.15" y1="-362.94" x2="604.26" y2="-362.94" gradientTransform="matrix(1.06, -0.03, 0.24, 1.08, -472.72, 495.79)" xlink:href="#linear-gradient-5"/>
	</defs>
	<title>Asset 7</title>
	<g class="cls-6">
		<g id="Layer_2" data-name="Layer 2">
			<g id="Layer_2-2" data-name="Layer 2">
				<path class="cls-7" d="M18.73,103c7.11,8.2,18.13,3.83,25.1-6.75,6.42-9.75,12.3-23.11,11.95-35-.32-10-5.72-17.46-14.39-15.17S24,56.75,18.57,66.85C12.13,78.87,10.33,93.33,18.73,103Z"/>
				<path class="cls-8" d="M18.73,103c7.11,8.2,18.13,3.83,25.1-6.75,6.42-9.75,12.3-23.11,11.95-35-.32-10-5.72-17.46-14.39-15.17S24,56.75,18.57,66.85C12.13,78.87,10.33,93.33,18.73,103Zm1.12-37.68a34.34,34.34,0,0,1,14.94-15.1c5-2.62.41,10.8-.37,14.89-3.6,19.22-14,29.58-16.27,23C15.49,80.55,15.91,73.39,19.85,65.34Z"/>
				<g class="cls-9">
					<path class="cls-10" d="M26,81.22c-4.28,9-9.29,12.67-11.16,8.21S15,74.12,19.24,65.13s9.3-12.66,11.18-8.21S30.32,72.23,26,81.22Z"/>
					<path d="M24.68,78C22.1,83.4,19.11,85.6,18,82.94s.06-9.19,2.63-14.59,5.56-7.59,6.69-4.93S27.25,72.63,24.68,78Z"/>
					<g class="cls-11">
						<path class="cls-12" d="M17.38,90.11c.76-.18,1.86-1.15,2.37-3.22.33-1.37.13-1.86-.23-2-.77.3-1.8.57-2.2-.52-.48-1.38-1.1-4,.15-8.82,1-3.16,1.5-4.49.66-4.21s-2.25,4.66-2.76,7c-.9,4.13-.79,8,.1,10.07.4,1,.95,1.77,1.7,1.76Z"/>
					</g>
					<path class="cls-13" d="M31.23,59.74c.61-6.34-1.82-3.45-3.64,1.29S24.68,72.82,26.06,75,30.39,68.26,31.23,59.74Z"/>
				</g>
				<path class="cls-14" d="M86.38,221.08c3.35.34,17.83,9.58,20.67,21.64S100.94,265.3,91.4,261s-8.9-15.41-4.27-25.23A16.19,16.19,0,0,0,86.38,221.08Z"/>
				<path class="cls-15" d="M86.38,221.08a14.85,14.85,0,0,1,1.28,1.21A19.5,19.5,0,0,1,89,223.84a21.13,21.13,0,0,1,1.48,2.21,17.93,17.93,0,0,1,1.35,2.86,15.21,15.21,0,0,1,.87,3.5,15.56,15.56,0,0,1,0,3.83c-.17,1.32-.4,2.59-.68,3.85s-.62,2.5-.95,3.7-.68,2.38-1,3.52-.62,2.24-.87,3.28c-.13.52-.25,1-.34,1.52s-.23,1-.29,1.43c-.17.92-.22,1.76-.29,2.51a11.2,11.2,0,0,0,.12,1.95,4.29,4.29,0,0,0,.32,1.23l.15.44s-.09-.13-.25-.39A4.63,4.63,0,0,1,88,258.1a8.34,8.34,0,0,1-.48-2,15.13,15.13,0,0,1-.09-2.68,23.92,23.92,0,0,1,.3-3.11c.16-1.11.36-2.25.64-3.4s.51-2.39.83-3.59.61-2.43.86-3.65.55-2.45.71-3.6a17.89,17.89,0,0,0,.17-3.48,18.26,18.26,0,0,0-.55-3.2,23.48,23.48,0,0,0-1-2.82,28.62,28.62,0,0,0-2.1-4C86.77,221.6,86.38,221.08,86.38,221.08Z"/>
				<path class="cls-16" d="M91.4,261s.14-.65.41-1.77.65-2.75,1.15-4.69L94.68,248c.12-.6.27-1.21.42-1.82s.24-1.25.34-1.88.22-1.29.31-1.93.13-1.31.19-2,.07-1.31.11-2,0-1.3,0-1.93-.1-1.27-.16-1.9-.2-1.22-.32-1.83-.32-1.16-.48-1.72-.42-1.09-.62-1.59-.52-1-.77-1.42-.6-.84-.88-1.24a10.74,10.74,0,0,0-.94-1.05,9.86,9.86,0,0,0-.91-.88,19.58,19.58,0,0,0-1.66-1.22l-1.58-.92,1.68.75a20,20,0,0,1,1.79,1.11,9.33,9.33,0,0,1,1,.82,7.14,7.14,0,0,1,1,1c.31.4.69.79,1,1.24s.59,1,.89,1.45.5,1.08.75,1.64.37,1.18.56,1.8.25,1.26.38,1.89.14,1.31.22,2,0,1.34.06,2-.08,1.35-.1,2-.14,1.35-.22,2-.21,1.32-.32,2c-.23,1.31-.55,2.57-.88,3.8-.69,2.37-1.44,4.58-2,6.49s-1.15,3.47-1.51,4.57S91.4,261,91.4,261Z"/>
				<path class="cls-17" d="M97.34,261.88s.61-2.65,1.37-6.59c.17-1,.36-2.06.55-3.19s.33-2.32.49-3.55.21-2.5.27-3.8a28.68,28.68,0,0,0-.08-3.87c-.09-.61-.17-1.29-.27-1.86s-.29-1.29-.44-1.94l-.23-1c-.08-.31-.18-.6-.27-.89-.18-.6-.36-1.17-.54-1.75a29.27,29.27,0,0,0-1.44-3.19,22.86,22.86,0,0,0-1.68-2.66c-.28-.41-.63-.73-.89-1.1s-.55-.68-.85-1c-.59-.56-1.05-1.09-1.49-1.49-.87-.79-1.36-1.26-1.36-1.26l1.61,1c.51.3,1.08.74,1.76,1.23a23.14,23.14,0,0,1,2.09,1.88,18,18,0,0,1,2.1,2.64,22.43,22.43,0,0,1,1.79,3.29c.23.63.45,1.25.68,1.9.13.32.23.64.35,1l.23,1c.17.65.32,1.29.48,1.94s.25,1.4.33,2.12a32.56,32.56,0,0,1,0,4.16c-.08,1.35-.28,2.68-.48,3.94a50.13,50.13,0,0,1-1.65,6.78A46.74,46.74,0,0,1,97.34,261.88Z"/>
				<path class="cls-17" d="M102.17,259.59a11.29,11.29,0,0,0,.5-1.21c.12-.39.32-.85.48-1.43s.35-1.17.51-1.86.34-1.44.47-2.25.23-1.64.36-2.52.13-1.79.2-2.71,0-1.89,0-2.82v-.71a5.12,5.12,0,0,0-.06-.67c0-.48-.1-1-.14-1.43l-.08-.71-.16-.64c-.09-.44-.19-.87-.28-1.29a7.36,7.36,0,0,0-.36-1.23l-.37-1.19c-.26-.77-.61-1.45-.87-2.12s-.59-1.23-.84-1.75-.54-.95-.74-1.31l-.5-.83-.18-.28s.32.34.86,1a24.13,24.13,0,0,1,1.91,2.92c.32.63.74,1.32,1,2.1a19.24,19.24,0,0,1,.91,2.47c.12.44.23.89.36,1.35l.17.69.08.71c.05.47.12.95.18,1.41,0,.25.06.44.06.74v.73c0,1,0,1.93,0,2.89s-.2,1.88-.29,2.78-.35,1.77-.51,2.57-.45,1.56-.65,2.25a16.94,16.94,0,0,1-.7,1.84c-.22.55-.47,1-.65,1.37A12,12,0,0,1,102.17,259.59Z"/>
				<g class="cls-18">
					<path class="cls-19" d="M86.25,221.06a14.15,14.15,0,0,1,1.2,1.27A20.62,20.62,0,0,1,90,226.22a19,19,0,0,1,1.19,2.92,16.42,16.42,0,0,1,.7,3.47c.07.62.07,1.25.09,1.91a18.46,18.46,0,0,1-.14,1.92c-.15,1.27-.4,2.52-.64,3.77s-.58,2.46-.88,3.67-.6,2.36-.89,3.5a55.4,55.4,0,0,0-1.26,6.23,14,14,0,0,0,.05,4.42,6.53,6.53,0,0,0,.37,1.21c.1.28.16.42.16.42l-.27-.37a5.46,5.46,0,0,1-.63-1.13,9.17,9.17,0,0,1-.58-2,13.69,13.69,0,0,1-.24-2.63,34.56,34.56,0,0,1,.69-6.52c.23-1.16.45-2.38.74-3.59l.79-3.64c.28-1.21.51-2.42.68-3.61.1-.6.13-1.13.2-1.76s.07-1.13,0-1.68a21.45,21.45,0,0,0-.41-3.22,26.9,26.9,0,0,0-.81-2.84,27.83,27.83,0,0,0-1.8-4.12C86.59,221.59,86.25,221.06,86.25,221.06Z"/>
					<path class="cls-19" d="M91.25,261s.07-.67.2-1.81c.06-.59.21-1.27.37-2.07s.32-1.69.54-2.66.43-2,.69-3.15.53-2.28.84-3.49.52-2.42.76-3.67.39-2.55.52-3.82c0-.64.08-1.29.12-1.92s0-1.27,0-1.9-.08-1.25-.12-1.86-.18-1.2-.25-1.78-.31-1.14-.43-1.68l-.57-1.56c-.25-.48-.47-1-.71-1.4s-.56-.83-.81-1.24a8,8,0,0,0-.88-1,10,10,0,0,0-.87-.91c-.61-.47-1.11-1-1.59-1.28-1-.63-1.51-1-1.51-1l1.7.65a17.46,17.46,0,0,1,1.88,1,8.16,8.16,0,0,1,1.06.81,8,8,0,0,1,1.08,1,14.91,14.91,0,0,1,1,1.24c.32.47.63,1,.94,1.47s.52,1.1.78,1.68.38,1.2.58,1.83.26,1.3.39,1.93.16,1.35.2,2,0,1.36,0,2-.06,1.36-.11,2c-.15,1.35-.34,2.69-.61,4s-.61,2.57-1,3.78-.76,2.35-1.08,3.41-.7,2.09-1,3-.64,1.79-.92,2.56-.55,1.41-.71,2C91.48,260.36,91.25,261,91.25,261Z"/>
					<path class="cls-19" d="M97.2,261.85s.5-2.63,1.11-6.55c.13-1,.28-2,.44-3.16s.27-2.31.37-3.53.15-2.49.19-3.76a34.71,34.71,0,0,0-.16-3.84c-.08-.61-.18-1.28-.26-1.85s-.29-1.28-.43-1.91c-.26-1.31-.64-2.45-.95-3.64-.21-.56-.42-1.12-.6-1.67a13.2,13.2,0,0,0-.67-1.55,20.19,20.19,0,0,0-1.52-2.72,13.64,13.64,0,0,0-.83-1.12,8.23,8.23,0,0,0-.79-1c-.56-.57-1-1.13-1.44-1.51l-1.33-1.27s.58.33,1.58.95c.51.32,1.07.77,1.72,1.27a17.77,17.77,0,0,1,2,2c.32.41.66.81,1,1.26s.59,1,.93,1.45a23.14,23.14,0,0,1,1.6,3.35c.21.61.42,1.24.63,1.85.11.31.23.63.32,1l.23.95c.14.64.3,1.29.46,1.93s.24,1.38.33,2.08a35.3,35.3,0,0,1,.11,4.1c0,1.35-.21,2.64-.37,3.91s-.39,2.45-.63,3.59-.51,2.17-.78,3.15A44.26,44.26,0,0,1,97.2,261.85Z"/>
					<path class="cls-19" d="M102.33,259.3s.09-.46.23-1.28.29-2,.45-3.35c.07-.68.13-1.43.21-2.21s.12-1.63.17-2.5.07-1.74.1-2.65,0-1.82,0-2.73l0-1.37c0-.41,0-.92-.07-1.37s-.1-.85-.14-1.27-.12-.85-.18-1.27c-.18-.82-.35-1.63-.56-2.38s-.44-1.47-.67-2.11a29.24,29.24,0,0,0-1.91-4.23,9.66,9.66,0,0,1,.93.94,16.22,16.22,0,0,1,2,2.83,14.6,14.6,0,0,1,1,2.08l.47,1.2c.15.41.26.85.39,1.27a20.3,20.3,0,0,1,.53,2.81c0,.46.1.88.12,1.41l0,1.43c0,.95,0,1.91-.07,2.84s-.16,1.85-.28,2.73-.28,1.73-.44,2.53a22.37,22.37,0,0,1-.57,2.25,23.5,23.5,0,0,1-1.18,3.22A11.85,11.85,0,0,1,102.33,259.3Z"/>
				</g>
				<path class="cls-20" d="M91.91,235.46s1.81-8.6,4.53,0c0,0,3-1.71,4.46,3.5,0,0,3.94-2.14,4.44,6.69,0,0,1.08-1.83,2.22-.43a21.89,21.89,0,0,0-.41-2.42c-2.86-12.05-17.32-21.28-20.68-21.63a16.64,16.64,0,0,1,2.14,9.54C90.32,230.55,91.89,231.5,91.91,235.46Z"/>
				<path class="cls-21" d="M91.1,229.31s-1-4.73,2.13-2.52c0,0,.59-2.14,3.68,2.3a1.64,1.64,0,0,1,.77-.83c-4.62-4.25-9.49-6.92-11.25-7.1a16,16,0,0,1,1.78,4.6A6.1,6.1,0,0,1,91.1,229.31Z"/>
				<path class="cls-22" d="M88.63,238.34c3.09-9.27-1-14.74-1.27-15.14a15.84,15.84,0,0,1-.27,12.63c-4.62,9.83-5.27,20.95,4.26,25.23a10.06,10.06,0,0,0,8.46.07C84.32,261.76,85.78,246.87,88.63,238.34Z"/>
				<g class="cls-23">
					<path class="cls-24" d="M98.25,236.62a5.1,5.1,0,0,1,.52.93,9.13,9.13,0,0,1,.46,1.14,14.2,14.2,0,0,1,.46,1.51c.11.57.23,1.19.33,1.84a15.26,15.26,0,0,1,.16,2.07,20.63,20.63,0,0,1,0,2.23c-.07.74-.15,1.5-.23,2.25a16.51,16.51,0,0,1-.39,2.25c-.17.73-.37,1.45-.56,2.12s-.39,1.36-.63,2-.5,1.17-.75,1.69c-.5,1-1,1.87-1.3,2.44s-.56.88-.56.88,0-.39,0-1.06.08-1.62.21-2.72c.06-.55.14-1.15.25-1.77s.14-1.28.2-2,.19-1.37.32-2.07.2-1.41.27-2.12.19-1.44.31-2.15.14-1.37.24-2.06.2-1.32.24-1.93.09-1.19.18-1.75.08-1,.13-1.49.08-.86.08-1.18.05-.6,0-.76S98.25,236.62,98.25,236.62Z"/>
					<path class="cls-25" d="M102.53,239.71a5,5,0,0,1,.45.75,5.69,5.69,0,0,1,.43.89c.12.35.31.76.44,1.2s.23.94.36,1.46a13.12,13.12,0,0,1,.2,1.65,13.47,13.47,0,0,1,.11,1.77c0,.6-.06,1.21-.1,1.82a13.06,13.06,0,0,1-.21,1.8c-.11.6-.24,1.16-.37,1.73s-.29,1.08-.44,1.58-.38,1-.57,1.38a19.22,19.22,0,0,1-1,2c-.28.47-.45.73-.45.73a6.21,6.21,0,0,1-.12-.87,20.1,20.1,0,0,1-.11-2.2c0-.44,0-.91,0-1.41s0-1,0-1.58.06-1.11.12-1.67.08-1.14.12-1.72.11-1.13.19-1.69.08-1.11.15-1.64.16-1.06.19-1.55.11-1,.17-1.4C102.38,240.91,102.53,239.71,102.53,239.71Z"/>
					<path class="cls-13" d="M94.22,232.54a6.66,6.66,0,0,1,.39,1,8.73,8.73,0,0,1,.33,1.23c.11.48.24,1,.32,1.63s.15,1.22.18,1.92a16.09,16.09,0,0,1,0,2.15c0,.74,0,1.52-.11,2.29s-.2,1.56-.33,2.36-.24,1.57-.44,2.32-.43,1.5-.64,2.2-.44,1.4-.67,2-.56,1.21-.81,1.75A27.89,27.89,0,0,1,91.15,256c-.36.6-.6.93-.6.93s0-.42,0-1.11.12-1.69.28-2.84c.07-.57.18-1.2.29-1.85s.15-1.33.26-2.07.24-1.43.38-2.16.22-1.5.35-2.24.25-1.51.4-2.23.2-1.47.34-2.17.27-1.38.35-2,.24-1.24.33-1.82c.16-1.14.37-2.11.48-2.79S94.22,232.54,94.22,232.54Z"/>
				</g>
				<path class="cls-26" d="M30,173.64s.66,7.18-12.38,12S-.72,192.61.08,198.7s16.29,15.93,30.12,9.42,7.53-20.23,5.29-25.23S29.93,169.41,30,173.64Z"/>
				<path class="cls-22" d="M.21,199.24a5.12,5.12,0,0,1,1.23-4.56c1.27,6.1,14.35,16.87,27.71,13.45a17.65,17.65,0,0,0,3.37-1.21,18.7,18.7,0,0,1-2.86,1.51C16.35,214.06,1.09,204.78.21,199.24Z"/>
				<path class="cls-16" d="M30.12,172.63a10.1,10.1,0,0,1,.44,1.88,14.26,14.26,0,0,1,.12,2.2,11.87,11.87,0,0,1-.41,2.87,11.56,11.56,0,0,1-1.46,3.12,14.83,14.83,0,0,1-1.16,1.51,15.81,15.81,0,0,1-1.49,1.32,26.34,26.34,0,0,1-3.46,2.17c-1.2.65-2.45,1.29-3.7,1.91-2.51,1.21-5,2.39-7.36,3.54a47.53,47.53,0,0,0-6.12,3.5,21.23,21.23,0,0,0-2.17,1.77A8.84,8.84,0,0,0,2,200.07a7.25,7.25,0,0,0-.6,1.25l-.16.49s0-.18.1-.49A6.47,6.47,0,0,1,1.8,200a12.23,12.23,0,0,1,3.38-3.78,43,43,0,0,1,6.07-3.83c2.31-1.24,4.83-2.43,7.31-3.65,1.25-.6,2.48-1.22,3.69-1.87a28.6,28.6,0,0,0,3.38-2c.52-.35.94-.81,1.41-1.18a14.61,14.61,0,0,0,1.16-1.34,11,11,0,0,0,1.51-2.89,13.49,13.49,0,0,0,.63-4.89A11.39,11.39,0,0,0,30.12,172.63Z"/>
				<path class="cls-16" d="M6.51,206.09s-.05-.16-.13-.48a6.44,6.44,0,0,1-.09-1.42A6.06,6.06,0,0,1,6.72,202a7.07,7.07,0,0,1,1.61-2.42,11.9,11.9,0,0,1,2.8-2c1-.55,2.15-1.13,3.3-1.7s2.33-1.21,3.54-1.83,2.39-1.3,3.51-2.06l.86-.55.82-.6a17.32,17.32,0,0,0,1.59-1.24l1.45-1.32c.42-.51.85-1,1.27-1.46l.3-.36a2.82,2.82,0,0,0,.26-.37l.52-.78c.18-.25.36-.51.52-.76a7.21,7.21,0,0,0,.4-.76,12.47,12.47,0,0,0,1.14-3c.08-.5.16-1,.22-1.43s0-.9.07-1.32a16.39,16.39,0,0,0-.2-2.15c-.16-1.19-.29-1.88-.29-1.88s0,.17.14.47.22.78.35,1.37a21.13,21.13,0,0,1,.36,2.17c0,.42,0,.89.05,1.36s-.11,1-.17,1.51a13.46,13.46,0,0,1-1,3.26c-.13.28-.25.58-.39.85s-.32.52-.48.79-.33.52-.5.8-.15.25-.27.41l-.31.39c-.43.52-.85,1-1.29,1.56s-1,.94-1.5,1.42-1.09.84-1.63,1.3l-.84.63-.88.56c-1.19.78-2.41,1.43-3.6,2.08s-2.43,1.21-3.59,1.75l-3.39,1.56A11.06,11.06,0,0,0,8.71,200a7.45,7.45,0,0,0-1.64,2.15,5.78,5.78,0,0,0-.6,2A5.5,5.5,0,0,0,6.51,206.09Z"/>
				<path class="cls-16" d="M14.68,210.14a3.36,3.36,0,0,1-.06-.42,7.18,7.18,0,0,1,0-1.19c0-.26.08-.54.13-.86a9.88,9.88,0,0,1,.29-1,4.89,4.89,0,0,1,.44-1.07,10.41,10.41,0,0,1,.61-1.12,15.39,15.39,0,0,1,1.8-2.2c.71-.75,1.47-1.47,2.24-2.22A45.56,45.56,0,0,0,24.47,195c.7-.92,1.36-1.86,2-2.81l.9-1.43c.27-.47.54-1,.81-1.41.49-1,1-1.87,1.38-2.79a11.2,11.2,0,0,0,.54-1.32,13.27,13.27,0,0,0,.44-1.27c.12-.41.23-.8.33-1.17s.15-.74.22-1.09a10.13,10.13,0,0,0,.16-1.79c0-.51-.06-.91-.06-1.18s0-.41,0-.41,0,.15.08.41a9.31,9.31,0,0,1,.22,1.17,13.79,13.79,0,0,1,0,1.84c0,.36-.06.75-.12,1.14s-.18.81-.26,1.24-.25.87-.38,1.33a11.79,11.79,0,0,1-.48,1.38,24.45,24.45,0,0,1-1.28,2.91l-.79,1.48c-.28.47-.59,1-.89,1.46-.62,1-1.26,1.94-2,2.89s-1.43,1.83-2.19,2.71-1.56,1.69-2.35,2.46-1.63,1.43-2.33,2.08a13.24,13.24,0,0,0-1.86,2,9.8,9.8,0,0,0-.67,1,5,5,0,0,0-.52,1c-.13.32-.28.61-.37.91s-.14.56-.2.79a8.9,8.9,0,0,0-.13,1.16C14.66,210,14.68,210.14,14.68,210.14Z"/>
				<path class="cls-16" d="M22.33,210.34s.32-.42.8-1.19,1.09-1.91,1.82-3.29c.32-.71.72-1.44,1-2.26s.71-1.69,1-2.59.67-1.84,1-2.82.63-1.95.92-2.95.6-2,.85-3,.51-1.95.7-2.9a48.26,48.26,0,0,0,1-5.2,19.81,19.81,0,0,0,.18-3.72,6,6,0,0,0-.18-1,1.85,1.85,0,0,1-.15-.33,3.53,3.53,0,0,0,.2.31,4,4,0,0,1,.32,1,16.31,16.31,0,0,1,.19,3.8,43.11,43.11,0,0,1-.64,5.32c-.19,1-.4,2-.65,3s-.53,2-.8,3-.64,2-1,3-.74,1.91-1.11,2.81-.8,1.75-1.18,2.57-.84,1.54-1.21,2.23a31,31,0,0,1-2.14,3.13c-.29.35-.53.62-.69.79A1.51,1.51,0,0,1,22.33,210.34Z"/>
				<path class="cls-16" d="M28.57,208.67s.16-.49.43-1.35c.13-.42.29-.95.47-1.56s.35-1.27.56-2,.4-1.53.62-2.38.43-1.75.61-2.68.39-1.9.56-2.87.33-2,.47-3,.21-2,.3-3,.09-2,.12-2.92,0-1.85-.09-2.72-.2-1.68-.29-2.42-.33-1.43-.45-2a9.37,9.37,0,0,0-.5-1.53l-.48-1.32.66,1.26a7.64,7.64,0,0,1,.66,1.49c.21.59.46,1.25.66,2s.31,1.58.48,2.45.18,1.82.23,2.79,0,2,0,3-.12,2-.29,3.06a50.22,50.22,0,0,1-1.16,5.95c-.21.93-.52,1.82-.76,2.67s-.54,1.61-.79,2.36c-.51,1.45-1,2.63-1.38,3.45S28.57,208.67,28.57,208.67Z"/>
				<path class="cls-16" d="M31.48,207.7a7.28,7.28,0,0,0,1.1-1.11,9.7,9.7,0,0,0,1-1.46,7.39,7.39,0,0,0,.51-1,8.4,8.4,0,0,0,.48-1.09,18.59,18.59,0,0,0,.76-2.62,28,28,0,0,0,.37-3c.13-1.05,0-2.14,0-3.26s-.18-2.23-.34-3.35-.31-2.24-.59-3.32-.47-2.17-.76-3.2-.57-2-.85-3-.61-1.81-.89-2.61c-.57-1.63-1-3-1.31-4s-.47-1.5-.47-1.5.22.52.65,1.43,1,2.22,1.66,3.81c.32.81.71,1.63,1,2.58s.66,1.93,1,3,.58,2.13.86,3.24.41,2.26.63,3.4.23,2.32.31,3.45a27.61,27.61,0,0,1-.12,3.37A20.81,20.81,0,0,1,36,200.6a18.55,18.55,0,0,1-1,2.66,8.36,8.36,0,0,1-.57,1.11,8.52,8.52,0,0,1-.61.95,10.37,10.37,0,0,1-1.19,1.4A6.22,6.22,0,0,1,31.48,207.7Z"/>
				<path class="cls-20" d="M36.07,196.82c-.34-9.56-5.51-6.52-5.51-6.52.87-6.41-4-1.32-4-1.32,3.41-5.09-4.68-1-4.68-1s4.4-6-3-2.71a11.35,11.35,0,0,1-3.87,1l2.7-1C30.69,180.75,30,173.83,30,173.83c-.13-4.07,3.25,4.15,5.55,9s8.74,18.12-5,24.26A22.86,22.86,0,0,1,23.13,209C30.69,206.61,36.24,202.18,36.07,196.82Z"/>
				<g class="cls-27">
					<path class="cls-13" d="M19.64,187.41s-1.14.69-2.85,1.58c-.43.21-.88.49-1.38.71s-1,.54-1.55.79-1.07.56-1.61.83-1.12.56-1.68.87-1.12.57-1.65.89-1.09.57-1.57.88a26.88,26.88,0,0,0-2.65,1.76,9.66,9.66,0,0,0-1,.82,4.29,4.29,0,0,0-.69.7c-.36.43-.59.69-.59.69s.08-.32.25-.89a3.32,3.32,0,0,1,.45-1,4.9,4.9,0,0,1,.76-1.16A8.89,8.89,0,0,1,5,193.71c.21-.2.43-.4.64-.63s.48-.36.72-.56a15.66,15.66,0,0,1,1.58-1.1c.54-.37,1.13-.67,1.7-1a28,28,0,0,1,3.55-1.56,29.22,29.22,0,0,1,3.21-1A19.77,19.77,0,0,1,19.64,187.41Z"/>
					<path class="cls-24" d="M5.61,201.06s0-.06-.07-.16a1.45,1.45,0,0,1,0-.54,2.88,2.88,0,0,1,.23-.8,8.05,8.05,0,0,1,.52-.93,10.27,10.27,0,0,1,.79-.92,5.54,5.54,0,0,1,1-.92c.37-.28.73-.58,1.13-.85a6.83,6.83,0,0,1,.59-.42l.64-.36c.84-.46,1.72-.88,2.55-1.24.43-.18.84-.3,1.23-.43s.78-.23,1.13-.32a14.15,14.15,0,0,1,2.39-.47,16.36,16.36,0,0,1-1.91,1.5c-.59.42-1.29.84-2.06,1.28s-1.52,1-2.35,1.39a11.67,11.67,0,0,0-1.19.68c-.37.23-.76.44-1.14.65a8.92,8.92,0,0,0-1,.64c-.32.21-.65.4-.94.59s-.48.39-.71.55-.33.36-.49.52a1.5,1.5,0,0,0-.23.39C5.61,201,5.63,201.06,5.61,201.06Z"/>
					<path class="cls-25" d="M22.59,207s.39-.82,1-2c.31-.6.6-1.34,1-2.09.16-.37.32-.77.5-1.16a12,12,0,0,0,.53-1.23c.18-.41.35-.82.51-1.21s.34-.81.47-1.2c.26-.79.59-1.51.77-2.15.38-1.27.72-2.15.72-2.15s0,.91-.16,2.27a6.74,6.74,0,0,1-.21,1.09c-.09.39-.2.78-.29,1.19a10.28,10.28,0,0,1-.39,1.27c-.17.42-.33.86-.49,1.28s-.38.84-.57,1.24-.41.79-.61,1.17c-.44.72-.83,1.42-1.25,2A13.29,13.29,0,0,1,22.59,207Z"/>
					<path class="cls-28" d="M28.45,206.21s.16-.87.48-2.14c.14-.63.34-1.35.56-2.15s.46-1.6.68-2.43.46-1.65.71-2.43.39-1.5.61-2.12.25-1.14.37-1.51.15-.59.15-.59,0,.22,0,.59a13.63,13.63,0,0,1,0,1.6c-.09.67-.15,1.44-.31,2.25s-.36,1.65-.61,2.5L30.74,201c-.12.42-.29.81-.43,1.19-.28.77-.57,1.47-.86,2.07A18.47,18.47,0,0,1,28.45,206.21Z"/>
					<path class="cls-29" d="M34.07,191.39a3.73,3.73,0,0,1,.17.48c0,.16.11.36.16.57a5.22,5.22,0,0,1,.12.76c0,.27.05.59.06.91a5.74,5.74,0,0,1,0,1,8.77,8.77,0,0,1-.09,1.08c-.07.37-.13.73-.21,1.08a7.81,7.81,0,0,1-.25,1.08c-.1.36-.24.68-.35,1a9.42,9.42,0,0,1-.74,1.75c-.52,1-.93,1.61-.93,1.61s.12-.75.39-1.8c.07-.27.13-.55.24-.84s.14-.62.21-.95c.14-.65.37-1.35.48-2.05s.3-1.38.4-2.05c0-.33.12-.64.14-1s.06-.6.11-.87,0-.51.06-.73,0-.41,0-.57S34.07,191.39,34.07,191.39Z"/>
					<path class="cls-30" d="M24.85,193.47s-.69.74-1.72,1.82c-.53.53-1.13,1.14-1.77,1.81s-1.36,1.37-2,2.1c-.34.34-.69.69-1,1s-.65.71-.95,1.06c-.6.69-1.15,1.36-1.58,1.95-.22.29-.41.57-.57.81a5.67,5.67,0,0,0-.39.68c-.18.39-.31.61-.31.61l.13-.68a4.34,4.34,0,0,1,.25-.76,4.72,4.72,0,0,1,.42-1,7,7,0,0,1,.6-1.07c.23-.37.48-.75.77-1.13a24.37,24.37,0,0,1,1.92-2.26c.7-.73,1.43-1.41,2.13-2s1.4-1.16,2-1.61,1.14-.79,1.5-1S24.85,193.47,24.85,193.47Z"/>
				</g>
				<path class="cls-31" d="M201.87,119s8.59-35,29.71-46.56,36.64-6.6,34.33-19.8c0,0,10.91,9.91-8.26,25.08s-8.24,57.77-54.47,50.52Z"/>
				<path class="cls-32" d="M193,129.57s9.57-7.27,23.76-1.31c8.46,3.53,16.1,8,21.74,15.43s9.19,15.9,14,23.74c6.13,10,12.63,20,21.2,28.06a82.5,82.5,0,0,1,20.65,31.14s-7.84-14-21.21-16.68-45.31-10.64-59.42-29S200.71,142,193,129.57Z"/>
				<path class="cls-15" d="M204.34,123.12s0-.31.09-.91.18-1.48.4-2.6.48-2.44.88-4a50.76,50.76,0,0,1,1.53-5.06,56.84,56.84,0,0,1,2.38-5.79c.46-1,1-2,1.55-3.07s1.2-2.05,1.82-3.11a59,59,0,0,1,4.43-6.07c1.63-1.93,3.21-3.93,5-5.83L225,83.87q1.36-1.38,2.72-2.72c1.75-1.85,3.72-3.41,5.53-5a33.79,33.79,0,0,1,2.81-2.22l2.76-2c1.85-1.23,3.67-2.28,5.31-3.3s3.34-1.65,4.76-2.33c.36-.16.69-.33,1-.5s.68-.25,1-.37l1.75-.65c2.11-.78,3.33-1.2,3.33-1.2s-1.15.6-3.19,1.56c-.5.25-1.06.5-1.65.78-.32.15-.63.28-1,.47s-.61.38-1,.57c-1.34.79-2.84,1.69-4.48,2.65-1.56,1.11-3.28,2.26-5.06,3.52l-2.6,2.13c-.88.73-1.84,1.4-2.69,2.25-1.76,1.6-3.6,3.23-5.33,5l-2.65,2.68c-.85,1-1.71,1.89-2.55,2.84-1.74,1.83-3.36,3.85-5,5.76a69.52,69.52,0,0,0-4.43,5.78c-1.29,2-2.5,4-3.51,5.89-.51,1-1,1.91-1.43,2.84s-.85,1.83-1.22,2.72a68.45,68.45,0,0,0-3.1,8.7C204.59,121.87,204.34,123.12,204.34,123.12Z"/>
				<path class="cls-15" d="M203.35,125.76a2.53,2.53,0,0,0,.84,0,6.2,6.2,0,0,0,2.18-.87,15,15,0,0,0,2.87-2.28,37.61,37.61,0,0,0,3.07-3.64c.53-.71,1-1.48,1.56-2.26s1-1.63,1.54-2.47c1-1.77,2.11-3.63,3.06-5.58.49-1,1-2,1.43-3s1-2.06,1.37-3.14c.92-2.12,1.74-4.33,2.56-6.55s1.65-4.42,2.58-6.6c.23-.54.45-1.08.68-1.63s.51-1,.77-1.57c.47-1,1.06-2,1.63-3a33.08,33.08,0,0,1,3.78-5.3,21.58,21.58,0,0,1,2.06-2.2,19.94,19.94,0,0,1,2.08-1.89c.7-.56,1.38-1.1,2-1.62s1.32-.88,1.93-1.29,1.17-.77,1.71-1.11,1-.6,1.49-.84c1.83-1,2.87-1.54,2.87-1.54s-1,.69-2.66,1.87c-.43.28-.92.59-1.41,1l-1.57,1.25c-.55.46-1.16.91-1.77,1.45s-1.19,1.13-1.83,1.71a20.57,20.57,0,0,0-1.89,2,24.45,24.45,0,0,0-1.87,2.21A38.62,38.62,0,0,0,231,84c-.51,1-1.05,1.93-1.47,3s-.94,2.06-1.36,3.13c-.88,2.14-1.65,4.36-2.5,6.57s-1.7,4.44-2.64,6.61c-.44,1.08-1,2.12-1.47,3.16s-1,2.06-1.57,3c-1,2-2.24,3.8-3.32,5.51-.59.89-1.17,1.68-1.72,2.47s-1.17,1.53-1.76,2.2a29,29,0,0,1-3.47,3.49,14.73,14.73,0,0,1-3.17,2.07,6.3,6.3,0,0,1-2.36.63A2.28,2.28,0,0,1,203.35,125.76Z"/>
				<path class="cls-15" d="M265.75,57.78a3.16,3.16,0,0,1-.36,1,6.53,6.53,0,0,1-.71,1.17,9,9,0,0,1-1.15,1.44,33.33,33.33,0,0,1-3.7,3.35c-.79.55-1.61,1.16-2.49,1.79s-1.89,1.16-2.89,1.79l-3.12,1.91c-.53.35-1.12.64-1.61,1l-1.59,1.12a38.94,38.94,0,0,0-6,5.73A46.42,46.42,0,0,0,233.95,94c-1,3-1.61,5.94-2.29,9-.19.73-.36,1.48-.54,2.22s-.5,1.51-.74,2.25a20.5,20.5,0,0,1-.83,2.15c-.32.71-.56,1.43-.94,2.08a30.83,30.83,0,0,1-4.83,7.17,23.67,23.67,0,0,1-6.05,4.87,19.71,19.71,0,0,1-6.13,2.25c-1,.09-1.88.27-2.71.26a20.25,20.25,0,0,1-2.28-.09c-.69-.09-1.31-.17-1.84-.26l-1.3-.36-1.09-.32,1.1.21c.37.06.81.15,1.33.23l1.82.12a14.82,14.82,0,0,0,2.23-.08,25.7,25.7,0,0,0,2.59-.43l1.37-.45a8,8,0,0,0,1.43-.53l1.47-.67,1.44-.87a10,10,0,0,0,1.43-1,11.19,11.19,0,0,0,1.41-1.13l1.38-1.28,1.28-1.45A31.66,31.66,0,0,0,227,111c.34-.64.56-1.33.84-2a15.53,15.53,0,0,0,.74-2.06c.22-.7.44-1.4.64-2.11s.36-1.48.54-2.24c.63-3,1.31-6.12,2.27-9.14a55,55,0,0,1,3.61-8.79A40.54,40.54,0,0,1,240.85,77a36.64,36.64,0,0,1,6.43-5.77,30.05,30.05,0,0,1,3.39-2.1c1.11-.61,2.2-1.19,3.22-1.75s2-1,2.94-1.6l2.58-1.59a28.87,28.87,0,0,0,3.85-3,8.7,8.7,0,0,0,1.24-1.3,5,5,0,0,0,.78-1.07A2.9,2.9,0,0,0,265.75,57.78Z"/>
				<path class="cls-15" d="M203.35,127.58a31.64,31.64,0,0,0,4.58.41,40,40,0,0,0,5.24-.25,33.44,33.44,0,0,0,6.59-1.5,26.76,26.76,0,0,0,7-3.66,25.77,25.77,0,0,0,5.95-6.39,32.36,32.36,0,0,0,3.92-8.53c.24-.76.43-1.56.65-2.34s.4-1.63.6-2.44c.39-1.61.88-3.24,1.36-4.88a85,85,0,0,1,3.6-9.46A62.22,62.22,0,0,1,247.66,80a50.4,50.4,0,0,1,5.84-7.11,63.46,63.46,0,0,1,6.12-5.43c2-1.59,3.81-3,5.24-4.36a9,9,0,0,0,2.7-4.3,9.2,9.2,0,0,0,.07-3.32c-.16-.77-.25-1.19-.25-1.19l.35,1.17a8.58,8.58,0,0,1,.22,3.42,9.53,9.53,0,0,1-2.55,4.73,59.4,59.4,0,0,1-5.05,4.72,78.63,78.63,0,0,0-5.78,5.58A57.32,57.32,0,0,0,249.12,81a63.63,63.63,0,0,0-4.55,8.39,85.13,85.13,0,0,0-3.46,9.24c-.48,1.58-1,3.15-1.36,4.79-.22.81-.42,1.61-.64,2.41s-.41,1.64-.69,2.44a32.93,32.93,0,0,1-4.29,8.95,25.23,25.23,0,0,1-14,10.15,30.35,30.35,0,0,1-6.85,1.14,34.57,34.57,0,0,1-5.33-.09,31,31,0,0,1-3.38-.49C203.76,127.7,203.35,127.58,203.35,127.58Z"/>
				<path class="cls-15" d="M200.06,132.21l6.13-1.93-.07,0a2,2,0,0,1,2.23.32,4.2,4.2,0,0,1,.79.79,5.36,5.36,0,0,1,.65.88,20,20,0,0,1,1.78,3.94,60.18,60.18,0,0,1,2,8.29c.49,2.79.88,5.6,1.18,8.43a77.18,77.18,0,0,0,1.28,8.3l.2,1,.29,1,.53,2c.37,1.34.9,2.63,1.35,3.93a47.62,47.62,0,0,0,3.75,7.39,38.26,38.26,0,0,0,5.1,6.49,41.84,41.84,0,0,0,6.34,5.27,42.7,42.7,0,0,0,7.3,3.89l1.92.76,2,.7,4,1.43c2.67,1,5.33,1.91,8,2.94s5.27,2.11,7.86,3.24c1.3.57,2.58,1.19,3.87,1.79s2.53,1.3,3.8,1.94,2.48,1.37,3.71,2.12,2.43,1.48,3.57,2.33,2.33,1.63,3.39,2.57l1.65,1.37c.55.47,1,1,1.54,1.48a31.88,31.88,0,0,1,5.24,6.67,35.07,35.07,0,0,0-5.59-6.29c-.53-.47-1-1-1.58-1.39l-1.69-1.27c-1.09-.88-2.31-1.59-3.47-2.36s-2.41-1.43-3.63-2.15-2.47-1.3-3.72-2l-3.81-1.78c-1.28-.57-2.56-1.14-3.86-1.67-2.6-1.08-5.22-2.07-7.86-3s-5.32-1.88-8-2.8l-4-1.36-2-.69-2-.79a44,44,0,0,1-7.65-4,40.09,40.09,0,0,1-6.66-5.53,39.69,39.69,0,0,1-5.31-6.85,44.49,44.49,0,0,1-3.83-7.74c-.43-1.37-1-2.72-1.32-4.09l-.53-2.1-.27-1-.2-1.06a83.11,83.11,0,0,1-1.08-8.49c-.24-2.79-.52-5.6-.89-8.38a69.15,69.15,0,0,0-1.65-8.25,18.53,18.53,0,0,0-1.52-3.85,3.52,3.52,0,0,0-.55-.84A3.16,3.16,0,0,0,208,131a1.61,1.61,0,0,0-1.68-.39l0,0h0Z"/>
				<path class="cls-15" d="M203.18,128.26a8.1,8.1,0,0,1,1.48-.19,13.66,13.66,0,0,1,4.19.49,16.88,16.88,0,0,1,5.85,3,25.17,25.17,0,0,1,5.68,6.42c.39.68.85,1.34,1.23,2.07s.76,1.44,1.14,2.19c.72,1.51,1.47,3.11,2.16,4.76,1.4,3.27,2.77,6.76,4.24,10.32a110.66,110.66,0,0,0,5,10.7,46.42,46.42,0,0,0,6.92,9.85c.33.38.69.73,1,1.07l1.11,1a18.18,18.18,0,0,0,2.3,1.9l1.19.92,1.27.76c.86.5,1.69,1,2.61,1.51l5.31,2.88c1.73,1,3.44,2,5.13,3a93,93,0,0,1,9.26,6.36c.71.55,1.44,1.06,2.11,1.62l1.91,1.69a48.5,48.5,0,0,1,3.56,3.32c1.08,1.13,2.1,2.21,3.09,3.23a19.39,19.39,0,0,1,1.37,1.56c.41.52.83,1,1.22,1.52.8,1,1.55,1.89,2.24,2.72s1.23,1.7,1.77,2.44l3.27,4.64-3.58-4.41c-.57-.68-1.15-1.5-1.9-2.3s-1.51-1.67-2.36-2.59l-1.29-1.44c-.45-.5-.92-1-1.43-1.48l-3.19-3.06c-1.06-1.11-2.37-2.05-3.63-3.12-.64-.54-1.28-1.07-1.93-1.63s-1.4-1-2.11-1.53c-2.82-2.11-6-4.06-9.26-6l-5.09-2.87-5.35-2.81c-.9-.46-1.79-1-2.71-1.54l-1.35-.81-1.27-1a20.42,20.42,0,0,1-2.46-2l-1.17-1.09a10.51,10.51,0,0,1-1.12-1.13,46.87,46.87,0,0,1-7.15-10.28,103,103,0,0,1-5-11c-1.37-3.61-2.71-7.11-4-10.42-.64-1.65-1.32-3.19-2-4.71l-1.06-2.23c-.33-.7-.76-1.37-1.12-2a25.26,25.26,0,0,0-5.16-6.43,16.35,16.35,0,0,0-5.51-3.21,14.87,14.87,0,0,0-4.07-.75A7.51,7.51,0,0,0,203.18,128.26Z"/>
				<path class="cls-15" d="M205,127.26s.5.05,1.43.19,2.33.36,4.06.75,3.84.91,6.19,1.68a49.82,49.82,0,0,1,7.72,3.22,32,32,0,0,1,8.08,5.86,22,22,0,0,1,3.34,4.41c.46.85.88,1.64,1.31,2.48s.82,1.71,1.23,2.57c1.61,3.49,3.08,7.13,4.59,10.81a75.82,75.82,0,0,0,5.21,10.71c.48.87,1.08,1.65,1.62,2.47s1.2,1.55,1.81,2.31a28.64,28.64,0,0,0,4.27,3.93l2.4,1.72,1.2.87c.39.3.77.63,1.16,1,1.59,1.26,3,2.59,4.39,3.9,2.77,2.66,5.25,5.41,7.54,8s4.37,5.21,6.19,7.66,3.46,4.71,4.84,6.76c.69,1,1.32,2,1.9,2.9s1.06,1.76,1.52,2.53.82,1.47,1.13,2.08.55,1.16.74,1.59c.31.89.48,1.38.48,1.38l-.59-1.33-.83-1.53-1.25-2L285,211.74c-.62-.86-1.31-1.78-2-2.77-1.49-2-3.2-4.15-5.14-6.48s-4.09-4.79-6.39-7.38-4.88-5.17-7.64-7.75c-1.38-1.26-2.82-2.55-4.32-3.71-.38-.28-.72-.58-1.12-.88l-1.21-.84c-.81-.58-1.61-1.17-2.44-1.74a29.1,29.1,0,0,1-4.59-4.19c-.67-.8-1.34-1.6-2-2.44s-1.2-1.69-1.7-2.6a77.11,77.11,0,0,1-5.29-11c-1.51-3.71-2.86-7.37-4.4-10.81-.39-.87-.76-1.7-1.16-2.54s-.83-1.64-1.23-2.47a19.82,19.82,0,0,0-3-4.18,31.58,31.58,0,0,0-7.54-5.87,52.29,52.29,0,0,0-7.42-3.52c-2.28-.89-4.34-1.53-6-2C207,127.61,205,127.26,205,127.26Z"/>
				<path class="cls-15" d="M202.36,133.69s0,.41.06,1.16.14,1.88.25,3.29c.25,2.83.78,6.84,1.69,11.61.46,2.36,1,4.92,1.76,7.61s1.62,5.44,2.68,8.26c.5,1.43,1.16,2.8,1.74,4.24s1.4,2.76,2.08,4.18,1.61,2.71,2.45,4.06l1.41,1.91.7,1,.32.45.4.46,1.61,1.82.8.92c.27.31.56.54.85.82a41.28,41.28,0,0,0,3.48,3.16c1.22,1,2.4,2,3.68,2.88s2.5,1.81,3.79,2.57c.65.4,1.27.79,1.89,1.19s1.3.73,1.92,1.1l1.87,1.05,1.87,1c.61.33,1.23.63,1.82.93l1.8.84c1.19.57,2.33,1.08,3.45,1.55s2.19.93,3.21,1.32,2,.81,2.94,1.14c1.84.71,3.47,1.24,4.82,1.68,2.71.89,4.28,1.32,4.28,1.32s-1.61-.26-4.37-.94c-1.37-.34-3.06-.78-5-1.35s-4-1.24-6.34-2.11q-1.72-.62-3.55-1.38l-1.87-.78L239,199.7l-1.94-.9-1.95-1c-.64-.34-1.32-.68-2-1s-1.3-.78-2-1.17c-1.35-.76-2.63-1.66-3.93-2.56a46.09,46.09,0,0,1-3.85-2.9c-1.3-1-2.45-2.2-3.68-3.31-.28-.29-.61-.56-.88-.87L218,185l-1.61-1.82-.4-.47c-.17-.23-.27-.34-.39-.53l-.73-1-1.44-2c-.87-1.4-1.69-2.81-2.51-4.22s-1.46-2.89-2.08-4.34-1.21-2.93-1.7-4.38a85.49,85.49,0,0,1-3.91-16.28,100.45,100.45,0,0,1-.95-11.78C202.24,135.31,202.36,133.69,202.36,133.69Z"/>
				<g class="cls-33">
					<path class="cls-16" d="M202.7,123.23s0-.32.08-.92.18-1.48.39-2.59.5-2.44.88-4a51.82,51.82,0,0,1,1.54-5.06,54.84,54.84,0,0,1,2.4-5.8c.44-1,1-2,1.53-3s1.2-2.06,1.82-3.1a63.45,63.45,0,0,1,4.42-6.09c1.65-1.92,3.23-3.93,5-5.82.87-1,1.75-1.91,2.6-2.87s1.83-1.83,2.73-2.71c1.76-1.85,3.72-3.42,5.55-5,.89-.81,1.87-1.51,2.81-2.2l2.74-2c1.86-1.24,3.68-2.3,5.33-3.31s3.34-1.65,4.75-2.34l1-.49c.33-.15.67-.26,1-.38l1.76-.65c2.11-.78,3.32-1.19,3.32-1.19s-1.16.57-3.17,1.53l-1.68.81-.95.44-1,.59-4.5,2.65c-1.54,1.1-3.26,2.23-5,3.52l-2.61,2.11c-.87.73-1.83,1.41-2.69,2.25-1.75,1.61-3.6,3.22-5.33,5l-2.65,2.69c-.84.95-1.69,1.88-2.55,2.84-1.74,1.84-3.36,3.85-5,5.76a70.71,70.71,0,0,0-4.44,5.79c-1.27,2-2.49,3.94-3.5,5.88-.5,1-1,1.91-1.42,2.84s-.85,1.83-1.22,2.71a70.34,70.34,0,0,0-3.11,8.71C203,122,202.7,123.23,202.7,123.23Z"/>
					<path class="cls-16" d="M201.7,125.87a2,2,0,0,0,.84,0,6.25,6.25,0,0,0,2.2-.87,15.92,15.92,0,0,0,2.84-2.28,36.58,36.58,0,0,0,3.07-3.66c.53-.71,1-1.48,1.57-2.24s1-1.64,1.54-2.47c1-1.77,2.1-3.62,3-5.58.51-1,1-2,1.45-3s.94-2.06,1.37-3.13c.89-2.13,1.73-4.33,2.56-6.54s1.64-4.44,2.58-6.6c.22-.54.44-1.09.69-1.63s.5-1,.76-1.58c.46-1,1.07-2,1.62-3a34.2,34.2,0,0,1,3.78-5.31,19.87,19.87,0,0,1,2.07-2.2,22.81,22.81,0,0,1,2.08-1.89c.69-.57,1.36-1.1,2-1.61s1.33-.87,1.93-1.3l1.69-1.12c.54-.33,1.05-.58,1.5-.84,1.82-1,2.88-1.54,2.88-1.54s-1,.69-2.68,1.87c-.42.3-.9.6-1.4,1l-1.56,1.24c-.56.47-1.17.91-1.77,1.44s-1.2,1.12-1.85,1.73a18.59,18.59,0,0,0-1.87,2,22.64,22.64,0,0,0-1.88,2.22,36.49,36.49,0,0,0-3.42,5.23c-.5,1-1,1.93-1.47,3s-.92,2.05-1.34,3.14c-.89,2.12-1.67,4.36-2.5,6.57s-1.71,4.44-2.66,6.6c-.43,1.1-1,2.13-1.45,3.16s-1,2.07-1.58,3c-1,2-2.23,3.79-3.31,5.51-.61.89-1.16,1.69-1.74,2.47s-1.15,1.51-1.76,2.19a29.62,29.62,0,0,1-3.45,3.49,16.3,16.3,0,0,1-3.18,2.08,6,6,0,0,1-2.35.63A2.12,2.12,0,0,1,201.7,125.87Z"/>
					<path class="cls-16" d="M264.11,57.86a3.33,3.33,0,0,1-.36,1.08,6.58,6.58,0,0,1-.7,1.16,8.44,8.44,0,0,1-1.17,1.44,29.07,29.07,0,0,1-3.7,3.35c-.77.57-1.61,1.16-2.49,1.79s-1.87,1.17-2.87,1.79l-3.13,1.91c-.52.34-1.12.65-1.63,1l-1.56,1.13a39.78,39.78,0,0,0-6,5.71,46.92,46.92,0,0,0-8.21,15.91,92.42,92.42,0,0,0-2.29,9c-.19.74-.38,1.5-.56,2.23s-.48,1.51-.73,2.23a17.37,17.37,0,0,1-.84,2.17c-.31.7-.56,1.41-.93,2.07a31.58,31.58,0,0,1-4.84,7.19,24.26,24.26,0,0,1-6.05,4.87,19.75,19.75,0,0,1-6.12,2.23,26.92,26.92,0,0,1-2.71.28,22.5,22.5,0,0,1-2.31-.09c-.68-.11-1.29-.2-1.83-.26s-1-.27-1.31-.37l-1.08-.32,1.12.2c.35.07.79.17,1.32.25l1.81.12a21.89,21.89,0,0,0,2.23-.07c.81,0,1.68-.3,2.59-.44l1.39-.44a7,7,0,0,0,1.43-.55l1.46-.65,1.44-.87a10.91,10.91,0,0,0,1.44-1,13.23,13.23,0,0,0,1.42-1.14c.44-.42.9-.86,1.36-1.28s.86-1,1.29-1.45a32.29,32.29,0,0,0,4.39-7c.33-.63.54-1.33.83-2A19.08,19.08,0,0,0,227,107c.21-.7.43-1.39.64-2.1s.36-1.49.52-2.24c.65-3,1.31-6.12,2.27-9.14a53.23,53.23,0,0,1,3.61-8.8,40.27,40.27,0,0,1,5.16-7.66,37.94,37.94,0,0,1,6.44-5.78A33.69,33.69,0,0,1,249,69.24l3.24-1.76c1-.55,2-1,2.94-1.61l2.57-1.59a29.78,29.78,0,0,0,3.85-3A11.63,11.63,0,0,0,262.85,60a6.9,6.9,0,0,0,.79-1.08A3.38,3.38,0,0,0,264.11,57.86Z"/>
					<path class="cls-16" d="M201.7,127.69a32.2,32.2,0,0,0,4.58.39,35.54,35.54,0,0,0,5.24-.25,32.39,32.39,0,0,0,6.59-1.5,26.63,26.63,0,0,0,7-3.66,25.72,25.72,0,0,0,6-6.38,32.72,32.72,0,0,0,3.91-8.54c.25-.76.43-1.55.64-2.34s.42-1.61.63-2.43c.37-1.6.87-3.25,1.36-4.89a82.83,82.83,0,0,1,3.59-9.44A59.37,59.37,0,0,1,246,80.08,50.35,50.35,0,0,1,251.86,73,62.09,62.09,0,0,1,258,67.56c2-1.58,3.81-3,5.25-4.36a9.1,9.1,0,0,0,2.7-4.28,9.19,9.19,0,0,0,.06-3.34c-.17-.76-.25-1.18-.25-1.18s.12.4.35,1.15a8.42,8.42,0,0,1,.21,3.44,9.45,9.45,0,0,1-2.55,4.72,58.94,58.94,0,0,1-5,4.72A68.52,68.52,0,0,0,252.93,74a54,54,0,0,0-5.46,7,63.65,63.65,0,0,0-4.54,8.38,79.94,79.94,0,0,0-3.45,9.24c-.48,1.59-1,3.17-1.38,4.79-.2.81-.41,1.61-.63,2.42s-.43,1.64-.69,2.44a33.44,33.44,0,0,1-4.3,8.95,25.27,25.27,0,0,1-14,10.15,30.07,30.07,0,0,1-6.86,1.15,36.3,36.3,0,0,1-5.33-.11,27.46,27.46,0,0,1-3.37-.49C202.11,127.8,201.7,127.69,201.7,127.69Z"/>
					<path class="cls-16" d="M198.4,132.31l6.14-1.92h-.07a2.06,2.06,0,0,1,2.24.32,4.05,4.05,0,0,1,.79.78,5,5,0,0,1,.64.9,19.18,19.18,0,0,1,1.79,3.92,60.13,60.13,0,0,1,2,8.29c.5,2.81.88,5.61,1.17,8.45s.68,5.61,1.29,8.28l.2,1,.28,1,.55,2c.37,1.35.89,2.63,1.33,3.93a45.17,45.17,0,0,0,3.77,7.38,37.59,37.59,0,0,0,5.1,6.5,41.06,41.06,0,0,0,6.34,5.27,44,44,0,0,0,7.29,3.88l1.93.75,2,.72,4,1.42c2.67,1,5.33,1.91,8,2.93s5.26,2.12,7.86,3.26c1.31.57,2.58,1.19,3.88,1.78s2.53,1.3,3.79,1.95,2.49,1.38,3.71,2.13,2.44,1.47,3.58,2.31,2.33,1.64,3.4,2.57l1.64,1.37c.52.47,1,1,1.53,1.48a32.27,32.27,0,0,1,5.25,6.66,35.66,35.66,0,0,0-5.59-6.29c-.55-.45-1-.95-1.59-1.38l-1.68-1.27c-1.11-.88-2.32-1.59-3.47-2.37s-2.42-1.43-3.62-2.15-2.5-1.29-3.72-1.95l-3.83-1.8c-1.28-.55-2.57-1.14-3.86-1.66-2.61-1.08-5.22-2.07-7.88-3s-5.3-1.89-8-2.8l-4-1.37-2-.7-2-.78a43.72,43.72,0,0,1-7.66-4,40.28,40.28,0,0,1-6.65-5.55,39.79,39.79,0,0,1-5.32-6.84,45.09,45.09,0,0,1-3.82-7.75c-.44-1.36-1-2.71-1.31-4.1l-.55-2.08-.27-1-.19-1.07a84.48,84.48,0,0,1-1.1-8.48c-.23-2.8-.5-5.6-.89-8.38a68.66,68.66,0,0,0-1.63-8.23,18.57,18.57,0,0,0-1.52-3.85,6.6,6.6,0,0,0-1.22-1.59,1.6,1.6,0,0,0-1.69-.39l-.06,0h0Z"/>
					<path class="cls-16" d="M201.53,128.35a7.59,7.59,0,0,1,1.48-.18,13.58,13.58,0,0,1,4.17.49,16.75,16.75,0,0,1,5.87,3,24.6,24.6,0,0,1,5.67,6.41c.4.69.86,1.33,1.23,2.08l1.15,2.17c.73,1.52,1.46,3.11,2.15,4.75,1.4,3.27,2.78,6.76,4.24,10.34a114.17,114.17,0,0,0,5,10.69,45.57,45.57,0,0,0,6.91,9.85,10.08,10.08,0,0,0,1.06,1.09l1.08,1A21.34,21.34,0,0,0,243.9,182l1.18.92,1.28.76c.86.49,1.69,1,2.61,1.51l5.3,2.87c1.74,1,3.46,2,5.14,3a98.93,98.93,0,0,1,9.26,6.37c.7.55,1.44,1,2.08,1.61l1.93,1.71c1.22,1.15,2.52,2.15,3.55,3.32l3.09,3.24c.49.5.93,1,1.35,1.55s.83,1,1.24,1.52c.79,1,1.53,1.9,2.22,2.74s1.24,1.69,1.79,2.41c2.08,3,3.27,4.65,3.27,4.65s-1.31-1.6-3.57-4.42c-.59-.7-1.17-1.51-1.9-2.3l-2.37-2.6L280,209.36c-.44-.49-.9-1-1.42-1.46-1-1-2.08-2-3.19-3.07s-2.38-2.07-3.64-3.13l-1.94-1.6c-.66-.55-1.39-1-2.1-1.54-2.81-2.12-6-4.05-9.27-6.05l-5.1-2.87L248,186.83c-.89-.44-1.77-1-2.69-1.56l-1.37-.8-1.26-1a21.8,21.8,0,0,1-2.47-2l-1.16-1.08c-.38-.36-.76-.73-1.11-1.13A48.16,48.16,0,0,1,230.84,169a102.87,102.87,0,0,1-4.94-11c-1.39-3.62-2.73-7.11-4-10.42-.63-1.65-1.32-3.2-2-4.72-.36-.75-.71-1.5-1.06-2.22s-.75-1.37-1.11-2a25.44,25.44,0,0,0-5.17-6.44,16.46,16.46,0,0,0-5.51-3.19,13.63,13.63,0,0,0-4.07-.75A9.12,9.12,0,0,0,201.53,128.35Z"/>
					<path class="cls-16" d="M203.35,127.36s.51.05,1.44.17,2.32.36,4.06.74,3.83.92,6.19,1.69a48.37,48.37,0,0,1,7.72,3.22,31.46,31.46,0,0,1,8.07,5.85,21.08,21.08,0,0,1,3.34,4.42c.48.84.88,1.64,1.31,2.47s.83,1.72,1.25,2.58c1.61,3.48,3.08,7.14,4.58,10.81A76.79,76.79,0,0,0,246.52,170c.48.86,1.08,1.64,1.62,2.47s1.2,1.56,1.82,2.31a26,26,0,0,0,4.26,3.93c.8.6,1.6,1.16,2.39,1.73l1.21.87c.39.3.76.62,1.16,1,1.58,1.25,3,2.6,4.39,3.91,2.77,2.65,5.23,5.4,7.53,8s4.36,5.21,6.19,7.65,3.46,4.71,4.85,6.76c.67,1,1.31,2,1.9,2.9l1.51,2.52c.43.79.81,1.48,1.13,2.09s.53,1.16.75,1.59c.29.9.47,1.39.47,1.39s-.2-.48-.57-1.35l-.85-1.52c-.35-.57-.78-1.25-1.25-2s-1-1.54-1.64-2.43-1.31-1.79-2-2.78c-1.5-2-3.2-4.15-5.14-6.48s-4.09-4.81-6.4-7.38-4.87-5.17-7.63-7.73c-1.39-1.26-2.81-2.58-4.31-3.72-.38-.31-.73-.61-1.12-.88l-1.21-.87-2.45-1.72a30.88,30.88,0,0,1-4.59-4.18c-.65-.81-1.33-1.6-1.94-2.45s-1.21-1.68-1.72-2.59a78.94,78.94,0,0,1-5.29-11c-1.51-3.72-2.86-7.37-4.39-10.81-.39-.84-.77-1.7-1.17-2.53s-.83-1.64-1.23-2.45a19.09,19.09,0,0,0-3-4.17,32.21,32.21,0,0,0-7.55-5.89,58.12,58.12,0,0,0-7.4-3.52c-2.29-.89-4.35-1.52-6.05-2A55.48,55.48,0,0,0,203.35,127.36Z"/>
					<path class="cls-16" d="M200.71,133.79s0,.39.07,1.17.13,1.87.25,3.28c.25,2.82.77,6.85,1.69,11.61.46,2.37,1,4.93,1.75,7.6s1.63,5.46,2.66,8.27c.52,1.43,1.18,2.8,1.75,4.23s1.4,2.77,2.08,4.2,1.61,2.71,2.44,4l1.4,1.93.7,1,.33.44.4.44,1.6,1.84.8.91c.28.31.57.55.85.84,1.16,1.05,2.21,2.19,3.48,3.16s2.4,2,3.7,2.87,2.48,1.81,3.78,2.57l1.89,1.19c.63.39,1.27.73,1.91,1.09l1.87,1.07,1.87,1c.61.33,1.21.62,1.82.94s1.21.56,1.81.83c1.17.57,2.32,1.1,3.44,1.56s2.18.93,3.21,1.33,2,.81,2.93,1.13c1.85.7,3.48,1.25,4.83,1.69,2.7.87,4.27,1.3,4.27,1.3s-1.59-.25-4.36-.92c-1.39-.35-3.06-.79-5-1.36s-4.05-1.23-6.33-2.1c-1.16-.41-2.33-.89-3.56-1.4-.6-.25-1.22-.53-1.84-.78l-1.89-.88-1.93-.9c-.64-.35-1.29-.68-1.94-1s-1.33-.68-2-1l-2-1.19c-1.35-.76-2.63-1.64-3.94-2.55a47.17,47.17,0,0,1-3.84-2.9,48,48,0,0,1-3.68-3.3c-.29-.29-.63-.57-.9-.87l-.81-.9-1.61-1.82-.4-.47c-.18-.23-.25-.35-.39-.53l-.72-1-1.45-2c-.85-1.4-1.68-2.82-2.48-4.23s-1.46-2.89-2.09-4.34-1.22-2.91-1.7-4.38A84.51,84.51,0,0,1,201.6,150a98,98,0,0,1-.95-11.76C200.6,135.42,200.71,133.79,200.71,133.79Z"/>
				</g>
				<path class="cls-20" d="M256.84,78.68c-9.32,6.66-12.5,26.08-26.9,42.61,0,0,4.89-11.11,4.79-31.54,0,0-8.88,6.29-12.73,14.66,0,0,4.66-18.42,12.42-27.3,0,0-16,12.21-24.41,28.4,0,0,2.79-11.88,8.73-21.49-11.84,14.8-16.88,35.3-16.88,35.3l1.32,9.24c46,7.22,35.44-34.89,54.21-50.28Z"/>
				<path class="cls-34" d="M218.73,126.51c6.36-1.53,10.12-10.94,10.12-10.94-1.88,2.95-8.6,5.07-8.6,5.07,6.35-5.42,7.79-20,7.79-20-4.72,5.77-14.25,16.47-14.25,16.47,4.59-8.24,9.76-25.9,9.76-25.9-6.12,9.08-17.29,24.73-17.29,24.73.36-1.88,1.29-8.6,1.29-8.6l-3.6,5.41c-1.33,3.93-2,6.47-2,6.47l1.32,9.24c12.06,1.89,20.22.39,26.06-3.13A29.11,29.11,0,0,1,218.73,126.51Z"/>
				<path class="cls-20" d="M253.54,197.91c-39.64-9.75-38.46-40.77-38.46-40.77,8.58,23.6,36.16,29.06,36.16,29.06-19.16-8.43-26.43-39.29-26.43-39.29,7.77,13.53,22.61,24.26,22.61,24.26-4.28-4.47-13.36-29-13.36-29s9,9.28,14.77,18.94c-3.23-5.93-6.25-12-10.37-17.37-5.64-7.38-13.27-11.89-21.74-15.43-14.19-6-23.76,1.31-23.76,1.31,7.75,12.47,6.6,33.09,20.71,51.41a45.28,45.28,0,0,0,6,6.32C236.93,201.07,253.54,197.91,253.54,197.91Z"/>
				<path class="cls-20" d="M203,144.92c2.15,12.06,10.06,23.92,10.06,23.92-6.77-18-.65-27.55-.65-27.55,4.79,17.16,12.71,21.3,12.71,21.3-6-8.59-8.59-28.57-8.59-28.57,10.74,6.95,15.85,13.54,15.85,13.54a75.59,75.59,0,0,1-5.28-11.72c2.81,1.4,6.18,3.16,8.17,4.2-5.2-5.29-11.59-8.87-18.57-11.8-14.19-5.94-23.76,1.33-23.76,1.33,5.12,8.23,6.36,20.06,10.7,32.42C202.91,152.57,203,144.92,203,144.92Z"/>
				<path class="cls-25" d="M237.35,96.07s0-.51.12-1.38a26.93,26.93,0,0,1,.75-3.59c.19-.73.44-1.51.73-2.36s.6-1.69,1-2.55.78-1.77,1.28-2.64c.22-.44.47-.87.71-1.32l.8-1.3c.52-.88,1.13-1.69,1.71-2.5s1.26-1.53,1.87-2.28a21.07,21.07,0,0,1,1.9-2c.31-.3.59-.62.91-.89s.62-.51.92-.74c.6-.49,1.12-.93,1.63-1.28s1-.63,1.33-.87c.75-.47,1.17-.72,1.17-.72l-.93,1c-.3.31-.66.69-1.08,1.14s-.83,1-1.34,1.52-1,1.16-1.55,1.82-1.12,1.33-1.64,2.09-1.12,1.48-1.65,2.3S244.9,81.13,244.4,82l-.79,1.23c-.24.43-.48.84-.73,1.26-.48.83-.94,1.68-1.38,2.47l-1.2,2.37c-.36.76-.72,1.48-1,2.17C238.06,94.17,237.35,96.07,237.35,96.07Z"/>
				<path class="cls-24" d="M230.26,90a11.14,11.14,0,0,1,.32-1.42c.12-.44.28-1,.51-1.59s.46-1.28.8-2a33.6,33.6,0,0,1,2.57-4.76c.57-.81,1.12-1.67,1.78-2.47.33-.41.65-.81,1-1.24l1.07-1.18c.71-.78,1.47-1.51,2.25-2.23a30.07,30.07,0,0,1,2.35-1.95,23.94,23.94,0,0,1,2.36-1.62c.39-.23.76-.49,1.13-.7l1.1-.56c.7-.35,1.35-.67,1.95-.91s1.13-.42,1.57-.57c.88-.3,1.38-.44,1.38-.44s-.39.37-1.08,1l-1.27,1c-.5.4-1,.89-1.6,1.36s-1.21,1-1.84,1.62-1.33,1.16-2,1.84-1.39,1.31-2.06,2-1.41,1.4-2.06,2.16-1.35,1.47-2,2.22-1.27,1.5-1.89,2.2c-1.19,1.46-2.31,2.84-3.23,4.07s-1.7,2.23-2.24,3Z"/>
				<path class="cls-25" d="M217,89.3s.13-.34.42-.94A20.84,20.84,0,0,1,218.79,86c.3-.47.65-1,1-1.47A15.62,15.62,0,0,1,221.06,83c.46-.52.9-1.07,1.4-1.61s1-1,1.57-1.56,1.08-1,1.63-1.49,1.14-.89,1.69-1.31,1.09-.81,1.61-1.19,1-.65,1.52-1a33.89,33.89,0,0,1,3.26-1.72,36.84,36.84,0,0,1-2.57,2.64c-.39.37-.83.76-1.28,1.19s-.89.9-1.4,1.36-1,1-1.54,1.43l-1.53,1.49-1.56,1.46c-.49.51-1,1-1.49,1.45s-1,.91-1.4,1.35-.86.84-1.25,1.21c-.75.78-1.45,1.4-1.89,1.86Z"/>
				<path class="cls-25" d="M241.8,153.17s.88,1.54,2.07,3.86l2,3.95c.75,1.43,1.51,3,2.34,4.48.39.76.78,1.51,1.21,2.23s.81,1.47,1.23,2.15.83,1.34,1.22,2,.8,1.16,1.16,1.69a14.57,14.57,0,0,0,1.08,1.37l.45.59.44.44.83.88s-.39-.19-1.08-.57l-.56-.32c-.19-.15-.39-.29-.6-.47a10.07,10.07,0,0,1-1.4-1.17,18.18,18.18,0,0,1-1.49-1.56,18.89,18.89,0,0,1-1.49-1.89,21.24,21.24,0,0,1-1.42-2.13c-.47-.73-.9-1.51-1.32-2.28s-.78-1.59-1.16-2.36-.68-1.57-1-2.33a44.09,44.09,0,0,1-1.48-4.26A33.89,33.89,0,0,1,241.8,153.17Z"/>
				<path class="cls-24" d="M231.58,159.45s.32.65.92,1.76,1.47,2.67,2.63,4.46c.28.44.58.91.91,1.37l1,1.43c.71,1,1.55,1.91,2.37,2.89.45.47.89.95,1.37,1.39s1,.92,1.47,1.31c1,.84,2.21,1.64,3.38,2.49l6.86,4.79c1.12.76,2.16,1.54,3.16,2.3s1.92,1.47,2.77,2.18a28.28,28.28,0,0,1,2.23,2,19.76,19.76,0,0,1,1.62,1.64c.85,1,1.31,1.53,1.31,1.53s-.65-.38-1.69-1.07c-.52-.36-1.19-.75-1.93-1.19s-1.58-1-2.52-1.49c-1.85-1.08-4.05-2.3-6.37-3.67-1.17-.7-2.37-1.42-3.57-2.17s-2.45-1.59-3.63-2.42l-1.72-1.3c-.57-.39-1.21-.94-1.76-1.41a24,24,0,0,1-3-3.22,27.2,27.2,0,0,1-2.22-3.37,28.33,28.33,0,0,1-1.58-3.21,30.65,30.65,0,0,1-1.68-5A16.47,16.47,0,0,1,231.58,159.45Z"/>
				<path class="cls-25" d="M220.69,171.32l.31.51,1,1.35a53,53,0,0,0,3.79,4.57c.84.88,1.77,1.82,2.8,2.75.53.45,1.07.93,1.64,1.36.28.23.57.46.87.68s.61.44.92.65a27.47,27.47,0,0,0,3.95,2.35,38.68,38.68,0,0,0,4.44,1.8c1.55.57,3.09,1.16,4.61,1.72s3,1.18,4.44,1.74,2.83,1.1,4.12,1.75,2.51,1.19,3.62,1.73a22.7,22.7,0,0,1,3,1.68c.87.52,1.61,1,2.23,1.37l1.91,1.23-2.09-.89-2.37-1a29.22,29.22,0,0,0-3.1-1.31c-1.14-.43-2.39-.9-3.7-1.42s-2.74-1-4.19-1.47c-2.91-1-6-2.13-9.11-3.25-.77-.31-1.52-.57-2.31-.89s-1.57-.64-2.31-1.06a24.88,24.88,0,0,1-4.13-2.66,21.9,21.9,0,0,1-1.79-1.48,19.67,19.67,0,0,1-1.6-1.55,33.23,33.23,0,0,1-2.66-3.08,35.82,35.82,0,0,1-3.25-5.08A22,22,0,0,1,220.69,171.32Z"/>
				<path class="cls-35" d="M127.17,29.25c-7,3.72-12.12,3.74-19.52.39-7.09-3.2-11.78-.34-12.17-.1,5.11-4.33,9.9-11.48,9.9-11.48.81-1.17,1.66-2.29,2.51-3.37a0,0,0,0,0,0,0C117.84,2.3,131.14-4.49,139.12,3.35a10.55,10.55,0,0,1,1.54,1.93C145.84,13.81,133.63,25.81,127.17,29.25Z"/>
				<path class="cls-15" d="M139.74,16.72a16.18,16.18,0,0,1-1.25,1.59,35.71,35.71,0,0,1-3.77,3.76,35.21,35.21,0,0,1-2.81,2.22,35.58,35.58,0,0,1-3.36,2.16c-.61.35-1.23.68-1.88,1a19.23,19.23,0,0,1-2,.9c-.68.29-1.37.55-2.08.79l-1.05.34-1.09.29c-.36.07-.71.17-1.08.24l-1.14.15a16,16,0,0,1-2.28.12,16.84,16.84,0,0,1-4.32-.75c-1.34-.44-2.57-.93-3.72-1.32a15.1,15.1,0,0,0-3.33-.71c-.53-.07-1,0-1.51,0s-.94.11-1.38.15a21.59,21.59,0,0,0-2.22.52c-1.19.42-1.9.65-1.9.65s.65-.35,1.8-.92c.59-.21,1.32-.53,2.2-.77.45-.1.91-.25,1.41-.32a14.72,14.72,0,0,1,1.63-.12,13.54,13.54,0,0,1,3.62.51c1.24.33,2.5.76,3.77,1.12a16.85,16.85,0,0,0,4,.59,14.72,14.72,0,0,0,2-.14l1-.14c.36-.07.7-.18,1.06-.25l1-.25,1-.33a15.55,15.55,0,0,0,2-.73,19.53,19.53,0,0,0,1.94-.81c.63-.27,1.25-.57,1.84-.89,1.2-.63,2.32-1.27,3.38-1.94s2-1.32,2.89-2a50.24,50.24,0,0,0,4.09-3.29C139.24,17.26,139.74,16.72,139.74,16.72Z"/>
				<path class="cls-15" d="M140.58,5.2a6.05,6.05,0,0,0-2-1A9.84,9.84,0,0,0,136,3.78c-.5,0-1,0-1.57,0a12.6,12.6,0,0,0-1.72.2,17,17,0,0,0-1.84.41c-.63.18-1.28.38-1.93.6l-2,.8-2,1c-.66.39-1.34.76-2,1.15s-1.33.87-2,1.29a45.81,45.81,0,0,0-4,2.76l-2,1.43c-.66.47-1.26,1-1.88,1.55l-1.84,1.52c-.6.53-1.18,1-1.75,1.57-1.15,1-2.25,2-3.29,3s-2,1.87-3,2.69-1.84,1.54-2.63,2.17-1.51,1.13-2.1,1.56l-1.89,1.28s.63-.57,1.71-1.51c.55-.48,1.23-1,1.93-1.75s1.53-1.48,2.39-2.38l2.78-2.85c1-1,2-2.12,3.17-3.16.55-.55,1.15-1.1,1.71-1.64s1.21-1.08,1.84-1.61,1.24-1.08,1.9-1.59l2-1.51c1.35-1,2.75-1.88,4.13-2.75.69-.43,1.33-.85,2.08-1.27l2.13-1.12c.73-.31,1.44-.62,2.13-.92L128.65,4c.7-.17,1.37-.39,2-.52s1.33-.26,2-.28a12.52,12.52,0,0,1,3.45.07,10.44,10.44,0,0,1,2.56.71,6.55,6.55,0,0,1,1.47.84A3,3,0,0,1,140.58,5.2Z"/>
				<path class="cls-15" d="M141.65,7.59s-.16.08-.46.26-.76.45-1.35.74l-2.15,1.08c-.82.43-1.79.8-2.82,1.26s-2.19.94-3.41,1.37-2.56.81-3.91,1.27l-2.06.65c-.69.2-1.38.42-2.08.65l-2,.76-2.06.87c-.69.33-1.35.63-2,.93l-2,1c-1.3.68-2.59,1.33-3.84,2l-3.55,2c-1.11.65-2.18,1.27-3.16,1.82-2,1.15-3.59,2.1-4.73,2.75s-1.81,1-1.81,1l1.65-1.26c1.07-.79,2.56-1.95,4.43-3.23s4.08-2.75,6.52-4.2c1.22-.72,2.49-1.45,3.82-2.15l2-1,2.05-1,2.12-.87,2.16-.77,4.2-1.18,3.92-1.07c1.23-.36,2.37-.78,3.44-1.13s2.09-.63,2.94-1l2.23-.82,1.42-.55Z"/>
				<path class="cls-15" d="M141.94,11.25l-.31.39c-.23.25-.52.65-1,1.1s-1,1-1.63,1.56a21.34,21.34,0,0,1-2.27,1.85l-1.35,1c-.48.33-1,.6-1.54.92s-1.09.64-1.65,1-1.2.54-1.82.81-1.24.57-1.89.81l-2,.61c-.67.2-1.35.41-2,.6l-2.08.48c-1.38.28-2.77.57-4.14.87s-2.71.52-4,.77l-3.76.72c-1.16.28-2.3.45-3.32.73s-2,.46-2.79.71-1.56.42-2.13.65l-1.85.61s.63-.33,1.73-.88c.56-.3,1.26-.57,2.06-.91a27.92,27.92,0,0,1,2.75-1c1-.37,2.13-.66,3.3-1s2.44-.64,3.73-.92c2.6-.61,5.35-1.19,8.11-1.82.7-.15,1.39-.29,2.08-.46s1.33-.36,2-.53l2-.56c.65-.2,1.25-.48,1.86-.71l1.78-.7,1.64-.84c.55-.26,1.07-.51,1.56-.79l1.39-.84c.92-.52,1.69-1.1,2.39-1.58a20.27,20.27,0,0,0,1.77-1.36C141.42,11.73,141.94,11.25,141.94,11.25Z"/>
				<path class="cls-28" d="M121.44,24s1.19-.49,2.91-1.16c.87-.33,1.85-.74,2.93-1.15.53-.19,1.07-.45,1.61-.67l1.65-.73,1.6-.76c.52-.29,1.07-.5,1.55-.79s1-.52,1.41-.8.88-.51,1.25-.76a9.37,9.37,0,0,1,1-.71l.77-.6.71-.5s-.14.29-.42.78c-.15.23-.31.54-.55.85s-.51.66-.83,1A10.5,10.5,0,0,1,136,19.15a11,11,0,0,1-1.35,1.08c-.48.37-1,.68-1.56,1s-1.14.57-1.71.86a20.52,20.52,0,0,1-3.54,1.24,20.53,20.53,0,0,1-3.19.6A14.8,14.8,0,0,1,121.44,24Z"/>
				<path class="cls-25" d="M115.94,19.23s1.53-.69,3.82-1.58c1.15-.45,2.5-1,3.93-1.51l2.19-.84c.77-.28,1.53-.57,2.28-.88,1.53-.55,3-1.19,4.43-1.75.7-.31,1.37-.6,2-.86l1.8-.81,1.5-.73c.45-.21.83-.42,1.15-.6.63-.34,1-.52,1-.52s-.27.32-.77.84a8.88,8.88,0,0,1-1,.92c-.39.33-.83.71-1.34,1.08s-1.07.76-1.68,1.15-1.26.76-2,1.12-1.42.74-2.16,1.06-1.52.66-2.3,1a47.81,47.81,0,0,1-4.65,1.53c-.74.22-1.47.36-2.17.54s-1.36.29-2,.4A28.28,28.28,0,0,1,115.94,19.23Z"/>
				<path class="cls-36" d="M138.84,6.35s-1.68.3-4.12.9c-.6.14-1.25.33-1.95.5s-1.4.39-2.15.62l-1.13.35c-.38.13-.76.27-1.14.39-.79.25-1.54.56-2.31.85s-1.53.61-2.28.91l-2.19,1-2,1c-.66.3-1.24.63-1.8.92s-1.09.54-1.52.79-.83.47-1.17.65l-1,.55a10.9,10.9,0,0,1,.81-.86l1-1c.37-.37.84-.72,1.34-1.13a16.71,16.71,0,0,1,1.68-1.24c.61-.41,1.25-.87,2-1.27s1.43-.81,2.2-1.15,1.56-.74,2.36-1,1.63-.58,2.45-.81a20.46,20.46,0,0,1,2.41-.6,22.45,22.45,0,0,1,2.31-.4c.74-.09,1.42-.16,2.06-.18A17,17,0,0,1,138.84,6.35Z"/>
				<path class="cls-22" d="M140.66,5.28C131-1,112.54,11.37,107.9,14.67,117.84,2.3,131.14-4.49,139.12,3.35A10.55,10.55,0,0,1,140.66,5.28Z"/>
				<path class="cls-20" d="M115.87,16.83c-9,4.57-4-2.1-4-2.1-6.12,5.72-6.06,3.53-5.75,2.31l-.64.89s-4.82,7.16-9.93,11.5c0,0,4.79-3.27,12.18.09s12.55,3.32,19.51-.39c4.9-2.61,13-10.1,14.51-17.3-6.1,6-17.13,8.71-17.13,8.71C108.2,23.88,115.87,16.83,115.87,16.83Z"/>
				<path class="cls-37" d="M59.67,44.06S83.36,21,116,22.62s92.09,26.74,92.76,105c0,0-2.64,96.4-89.8,101,0,0-12.78,1.9-44.73-11.47,0,0-6.18,4.7-23.27-11.89s-26.23-25-23-34.92,3.47-53.71-19.56-69.81c0,0,14.89,3.3,25-24.27C46,41.85,59.67,44.06,59.67,44.06Z"/>
				<path class="cls-38" d="M78.32,41.77a66.83,66.83,0,0,1,27.5-18.56,73.33,73.33,0,0,0-18.06,4.64A69,69,0,0,0,64.38,51.92C48.66,79.28,38.25,102.18,23,115.44a77,77,0,0,1,7.2,23C63.29,114.45,52.86,70.74,78.32,41.77Z"/>
				<path class="cls-39" d="M29.88,139.3l-.12-.79a76.93,76.93,0,0,0-7.16-22.85l-.19-.34.29-.25c11.82-10.28,20.95-26.85,31.54-46,3-5.57,6.24-11.33,9.69-17.35A69.7,69.7,0,0,1,87.49,27.43a73.91,73.91,0,0,1,18.26-4.73l4.21-.5-4,1.47A66.43,66.43,0,0,0,78.69,42.09C67.32,55,63.1,71.18,59,86.79c-5,19-10.16,38.73-28.48,52Zm-6.23-23.75a76.66,76.66,0,0,1,6.93,22C48.11,124.48,52.93,106,58,86.53c4.12-15.72,8.36-32,19.9-45.09a66.44,66.44,0,0,1,23.69-17.1,73.5,73.5,0,0,0-13.7,4A68.61,68.61,0,0,0,64.8,52.17c-3.46,6-6.63,11.75-9.71,17.33C44.57,88.61,35.45,105.14,23.65,115.55Z"/>
				<path class="cls-40" d="M151,188.66c-38.74-3.77-55.43-22.17-56.91-23.87l-.63.14L40.57,194.49c2.76,2.87,6,6,9.55,9.55,19.79-13.35,53.4-8.93,53.4-8.93,37.86,17.83,69,4.49,89.42-11.11,1.86-3.41,3.5-6.83,4.94-10.22C186.93,182.95,171.42,190.65,151,188.66Z"/>
				<path class="cls-39" d="M50.06,204.68l-.29-.29c-3.92-3.84-6.91-6.79-9.57-9.56l-.44-.46,53.59-29.91.93-.23.19.24c1.76,2,18.25,20,56.58,23.7,17.12,1.67,32.86-3.34,46.51-14.77l1.57-1.32-.79,1.89c-1.52,3.56-3.19,7-5,10.26l-.12.16c-17.12,13.09-35.16,19.74-53.64,19.74a84.76,84.76,0,0,1-36.22-8.54,110.93,110.93,0,0,0-12.84-.69c-11.85,0-28.44,1.67-40.15,9.56Zm-8.7-10.08c2.48,2.57,5.25,5.32,8.82,8.82,11.88-7.85,28.48-9.5,40.36-9.5a111.33,111.33,0,0,1,13,.71l.15,0a83.78,83.78,0,0,0,35.87,8.48c18.23,0,36-6.55,53-19.48,1.41-2.6,2.78-5.36,4-8.2-11.74,9.31-24.9,14-39.19,14a64,64,0,0,1-6.44-.32c-37.59-3.67-54.47-20.92-57.06-23.81l-.27.06Z"/>
				<path class="cls-41" d="M207.05,139.8c-14,7.94-36.22,16.19-77.67,5L59.27,163A221.53,221.53,0,0,1,29,174.44a12.92,12.92,0,0,0,.72,5.11l63.75-14.62.5-.28.13.14L126,157.48c41.18,11.14,65.69-1.67,79.77-9.61.61-3,1.09-5.75,1.44-8.18A1.29,1.29,0,0,1,207.05,139.8Z"/>
				<path class="cls-39" d="M29.41,180.12l-.15-.42a13.62,13.62,0,0,1-.75-5.29l0-.36.33-.09a221.44,221.44,0,0,0,30.2-11.4l70.32-18.31.13.05c13.37,3.61,25.77,5.45,36.84,5.45,19.81,0,32.58-5.91,40.46-10.36l1.07-.61-.14,1c-.39,2.71-.88,5.47-1.44,8.22l0,.21-.2.12c-8.69,4.89-24.86,14-49.21,14A118.78,118.78,0,0,1,126,158l-32.11,7.36-.05-.07-.28.13Zm.08-5.31a12.46,12.46,0,0,0,.56,4.15l63.23-14.49.81-.45.19.21L126,157l.13,0a117.79,117.79,0,0,0,30.67,4.35c23.9,0,39.87-8.9,48.54-13.79.47-2.31.87-4.63,1.23-6.92-8,4.45-20.78,10.11-40.25,10.11-11.13,0-23.56-1.85-37-5.45l-70,18.2A221.31,221.31,0,0,1,29.49,174.82Z"/>
				<path class="cls-42" d="M208.15,121.66c-.11-2-.27-4-.46-6l-.14.47s-35.49,10.39-75.64-6.93c0,0-53.82,45-94.66,59.54l22-5.73c35.62-16,72.89-39.7,72.89-39.7C179.9,136.38,206.16,122.74,208.15,121.66Z"/>
				<path class="cls-39" d="M37.37,169.21l-.29-1C58.13,160.76,82.7,145,99.61,133.1c18.33-12.9,31.85-24.19,32-24.28l.23-.2.28.12a122.16,122.16,0,0,0,48.77,10,107.73,107.73,0,0,0,26.27-3l.77-2.62.24,2.51c.2,2.11.36,4.07.47,6v.31l-.27.16c-1.37.75-14.06,7.36-37.09,7.36h0a148.78,148.78,0,0,1-39-5.6c-2.92,1.83-38.82,24.32-72.78,39.62ZM132,109.77c-1.87,1.55-14.77,12.14-31.81,24.14-14.95,10.52-35.87,24-55.1,32.27l14.07-3.66c35.09-15.81,72.36-39.4,72.74-39.64l.19-.11.2.06a148.53,148.53,0,0,0,39,5.61c21.68,0,34-5.88,36.34-7.08-.08-1.51-.2-3-.34-4.65a108.14,108.14,0,0,1-26.41,3A123.35,123.35,0,0,1,132,109.77Z"/>
				<path class="cls-43" d="M73.91,103.75s26.38-52.46,64.37-56.69c24.38-2.73,42.7,9.83,53.25,20a92.54,92.54,0,0,0-9.13-11.86c-10.88-9-28.86-18.91-53.42-15.59C89.63,44.93,71,97.79,71,97.79s-16.38,36-40.3,48.61c.22,2.47.36,4.86.44,7.15C56.39,142.25,73.91,103.75,73.91,103.75Z"/>
				<path class="cls-39" d="M30.64,154.3l0-.73c-.07-2.38-.23-4.77-.44-7.13l0-.33.29-.15C54,133.58,70.36,98,70.52,97.6s19.19-53.18,58.4-58.47a72.7,72.7,0,0,1,9.68-.67c20.17,0,35.13,8.91,44.13,16.37a93.14,93.14,0,0,1,9.23,12l2.35,3.63-3.1-3c-9.6-9.24-25.38-20.26-46.19-20.26a58.81,58.81,0,0,0-6.67.37c-19.47,2.17-35.82,17.37-46.12,29.76A159.32,159.32,0,0,0,74.36,104c-.18.38-17.9,38.8-43.06,50Zm.55-7.62c.19,2,.32,4.08.39,6.11,24.49-11.46,41.72-48.88,41.9-49.25.27-.55,26.93-52.77,64.75-57a61.07,61.07,0,0,1,6.79-.39c19,0,33.83,9,43.7,17.63A93.41,93.41,0,0,0,182,55.55,67.88,67.88,0,0,0,138.6,39.47a74.77,74.77,0,0,0-9.55.63C90.44,45.32,71.62,97.46,71.44,98S54.84,134,31.18,146.68Z"/>
				<path class="cls-44" d="M91.29,210.72l-30.81,2.57c10.78,8,14.9,4.84,14.9,4.84,31.58,13.37,44.23,11.46,44.23,11.46,29.58-1.59,49.32-14,62.48-29.62C126.57,237.09,91.29,210.72,91.29,210.72Z"/>
				<path class="cls-45" d="M94.22,108c20.07-42.34,71.47-26,83.95-21.8,6.22,2.1,17.45,6,26.91,13.4q-1-4.19-2.2-8.11c-.33-.36-.67-.71-1-1.08-8.57-10.63-52.63-31.69-80-19.8-25.76,11.16-49.79,73.24-90.77,88.3,0,1.61-.11,3.1-.23,4.51C48,155.79,79.89,138.19,94.22,108Z"/>
				<path class="cls-39" d="M30.33,164.17l.08-.84c.09-1.43.17-2.94.21-4.47v-.33l.31-.12c23.07-8.47,40.84-32.08,56.5-52.9,12.31-16.37,23-30.5,34.24-35.4a47.79,47.79,0,0,1,19.11-3.57c24.29,0,54.06,14.27,61.51,23.51a14.09,14.09,0,0,0,.94,1.05l.08.08,0,.12c.83,2.65,1.56,5.4,2.2,8.15l.32,1.36-1.1-.86c-9.64-7.54-21.21-11.46-26.77-13.33C173.18,85,158.46,80,142.14,80c-22.65,0-38.62,9.46-47.48,28.13-14.32,30.21-46,47.84-63.58,55.66Zm1.28-4.94c0,1.13-.1,2.27-.17,3.36,17.62-7.94,48.34-25.36,62.33-54.85,9-19,25.3-28.7,48.37-28.7,16.47,0,31.3,5,36.19,6.66,5.4,1.82,16.42,5.54,25.95,12.64-.54-2.25-1.17-4.47-1.83-6.63a11.73,11.73,0,0,1-.92-1c-6.4-7.94-35-23.15-60.74-23.15A47.3,47.3,0,0,0,122.07,71c-11,4.81-21.61,18.85-33.84,35.1C72.56,126.95,54.8,150.54,31.62,159.24Z"/>
				<path class="cls-46" d="M129.89,138.15c-19.13,49.52-67,32.35-63-6.93S49,93.73,42.69,98.36s-19.86,6.9-26,.27c-4.75,2.32-8.23,1.56-8.23,1.56a40.71,40.71,0,0,1,12.64,15.16c-.23.17-.44.37-.67.57a76.69,76.69,0,0,1,7.28,23c.19-.15.36-.28.54-.4.39,2.47.69,4.9.9,7.26l-.5.28c.23,2.47.38,4.87.44,7.16l.45-.21c0,1.9,0,3.69,0,5.38l-.41.16c0,1.61-.12,3.1-.22,4.5l.35-.18A34.89,34.89,0,0,1,28,170a12.61,12.61,0,0,0-.64,4l-.41.11a13.08,13.08,0,0,0,.73,5.1l.75-.17c1.75,4.33,5.57,8.92,11.13,14.6,0,0,9.36,9.7,9.65,9.53.61.57,1.21,1.15,1.81,1.75a74.44,74.44,0,0,0,9.42,7.91,20.25,20.25,0,0,0,6.35,3.9,29.55,29.55,0,0,0,7.06,1.08c32,13.37,44.73,11.48,44.73,11.48,30-1.58,49.89-14,63.21-29.61l-1,.65a95.46,95.46,0,0,0,11.79-16.5c.08,0,.15-.11.24-.17,1.67-3,3.15-6.1,4.49-9.13a139.49,139.49,0,0,0,11.4-45C165.8,188.78,129.89,138.15,129.89,138.15Z"/>
				<path class="cls-47" d="M103.43,153.56c-.87,5.55,8.09,33.59,26.73,44.55s39.86,2.18,36.92-15.35-21.54-22.39-39.72-20.21C112.92,164.29,103.43,153.56,103.43,153.56Z"/>
				<path class="cls-15" d="M103.43,153.56s.63.91,1.85,2.37a47.26,47.26,0,0,0,5.53,5.61,24.19,24.19,0,0,0,2,1.59c.69.55,1.44,1,2.19,1.57a31.91,31.91,0,0,0,5.08,2.72c.47.19.91.4,1.39.56l1.45.45.37.12.16.06.19,0,.79.2c.51.13,1,.22,1.51.33,2.08.39,4.23.65,6.4.84s4.34.39,6.49.55,4.27.34,6.33.51a72.52,72.52,0,0,1,11.19,1.76,28.05,28.05,0,0,1,4.33,1.44,18.29,18.29,0,0,1,3.07,1.69,10.26,10.26,0,0,1,1.7,1.47l.53.6-.61-.52a13.15,13.15,0,0,0-1.83-1.21,17.61,17.61,0,0,0-3.14-1.34,39.28,39.28,0,0,0-4.29-1A94.52,94.52,0,0,0,145,172.81l-6.33-.35c-2.16-.14-4.35-.28-6.56-.48a62.85,62.85,0,0,1-6.57-1c-.53-.11-1.09-.22-1.62-.36l-.77-.2-.2-.05-.22-.08-.39-.13-1.54-.54c-.5-.2-1-.43-1.45-.65a27.27,27.27,0,0,1-5.22-3.1,33.89,33.89,0,0,1-4.09-3.53,32.46,32.46,0,0,1-3-3.4c-.84-1.05-1.52-2-2.06-2.81s-.92-1.45-1.17-1.9Z"/>
				<path class="cls-16" d="M167.08,182.76l-3.15,0c-2,0-4.85,0-8.29-.14l-5.53-.13c-2-.07-4-.07-6.17-.21a78.16,78.16,0,0,1-13.35-1.91,45,45,0,0,1-12.52-5,26.66,26.66,0,0,1-8.57-8.07,22.56,22.56,0,0,1-1.27-2.13c-.34-.72-.69-1.37-.93-2a23.15,23.15,0,0,1-1.12-3.44,19.52,19.52,0,0,1-.45-2.28c-.08-.54-.12-.82-.12-.82s.06.28.18.8c.07.27.12.59.22,1s.22.8.36,1.28a22.25,22.25,0,0,0,1.27,3.35,24.45,24.45,0,0,0,2.31,4,25.66,25.66,0,0,0,3.63,4.07,32.24,32.24,0,0,0,4.93,3.58,44.58,44.58,0,0,0,12.33,4.79,76.12,76.12,0,0,0,13.17,2l11.68.65c3.42.18,6.27.39,8.27.52Z"/>
				<path class="cls-17" d="M165.91,192.72l-.83.08c-.55,0-1.34.09-2.36.12s-2.25.07-3.68.09-3,0-4.78-.07l-2.72-.13-2.92-.25-3.08-.32c-1-.13-2.11-.31-3.2-.48-2.16-.37-4.41-.81-6.65-1.4-1.11-.29-2.23-.67-3.36-1s-2.21-.84-3.32-1.26-2.16-1-3.22-1.62l-3-1.77c-.49-.3-1-.58-1.47-.89l-1.39-1c-.93-.68-1.84-1.34-2.73-2a39.38,39.38,0,0,1-4.59-4.46,20,20,0,0,1-1.89-2.27l-1.56-2.28c-.49-.76-.86-1.52-1.25-2.22s-.76-1.37-1-2c-.55-1.33-1.07-2.45-1.39-3.42-.66-1.93-1-3-1-3s.52,1,1.35,2.89c.41.93,1.06,2,1.7,3.24a18.23,18.23,0,0,0,1.19,1.91c.44.65.83,1.37,1.35,2.06a39,39,0,0,0,3.6,4.19,46.91,46.91,0,0,0,4.59,4.08c.86.63,1.76,1.24,2.66,1.86l1.36.94c.47.3,1,.57,1.45.87l3,1.74c.94.53,2,1,3,1.48s2.11.84,3.16,1.25,2.15.7,3.25,1,2.16.6,3.24.85,2.14.5,3.2.7c2.13.4,4.18.76,6.14,1.06s3.84.51,5.55.69c3.46.37,6.36.63,8.39.74S165.91,192.72,165.91,192.72Z"/>
				<path class="cls-17" d="M160.08,199.24l-.59.12c-.38.07-.93.21-1.65.29s-1.58.22-2.61.25-2.15.15-3.39.06l-1.94-.09c-.68,0-1.37-.06-2.07-.15-1.42-.2-2.93-.3-4.45-.63l-4.71-1-4.74-1.47-1.19-.39-1.13-.49-1.15-.47-1.12-.55c-.74-.36-1.46-.76-2.15-1.16s-1.37-.83-2-1.26a37.27,37.27,0,0,1-3.62-2.68c-1.1-.92-2.09-1.83-3-2.69a47.6,47.6,0,0,1-4-4.5c-.89-1.14-1.33-1.85-1.33-1.85s.51.65,1.48,1.73a54.87,54.87,0,0,0,4.22,4.21,50.74,50.74,0,0,0,6.68,5.08c.66.4,1.31.83,2,1.2s1.39.76,2.12,1.08l1.08.53,1.14.46,1.14.46,1.17.36,4.66,1.52,4.6,1.09c1.51.33,3,.49,4.38.74a13.31,13.31,0,0,0,2,.24l1.92.17a16.48,16.48,0,0,0,1.77.08l1.6,0c1,0,1.87-.06,2.6-.07s1.28-.12,1.67-.14Z"/>
				<g class="cls-18">
					<path class="cls-19" d="M103.45,153.33s.67.85,2,2.25a48.39,48.39,0,0,0,5.8,5.23,38,38,0,0,0,9.45,5.41c.92.36,1.88.65,2.85.93.48.12,1,.25,1.52.35s1,.23,1.52.32c2.06.38,4.19.65,6.34.88s4.31.44,6.44.64,4.23.42,6.28.67a66.32,66.32,0,0,1,11,2.15,26,26,0,0,1,4.21,1.67,18.05,18.05,0,0,1,3,1.82,10.83,10.83,0,0,1,1.63,1.53l.5.6-.57-.52a12.49,12.49,0,0,0-1.77-1.29,16.22,16.22,0,0,0-3.05-1.48,35.57,35.57,0,0,0-4.2-1.24,85.19,85.19,0,0,0-10.92-1.51l-6.26-.52c-2.13-.17-4.3-.35-6.49-.57s-4.35-.55-6.5-1c-.53-.09-1.07-.23-1.6-.35s-1-.27-1.56-.41a31.64,31.64,0,0,1-3-1.1,31.31,31.31,0,0,1-5.28-2.86,38.29,38.29,0,0,1-4.23-3.28,43.61,43.61,0,0,1-5.37-5.87A24.24,24.24,0,0,1,103.45,153.33Z"/>
					<path class="cls-19" d="M167.08,182.52s-1.14,0-3.14-.12c-1-.08-2.21,0-3.6,0s-3,0-4.68,0-3.55-.07-5.5-.09-4-.07-6.16-.15-4.38-.25-6.64-.55-4.53-.68-6.79-1.2a52.81,52.81,0,0,1-6.64-2,38.4,38.4,0,0,1-6.05-2.95,28.83,28.83,0,0,1-5-3.85,23.82,23.82,0,0,1-3.58-4.39A23.24,23.24,0,0,1,108,165c-.31-.72-.64-1.41-.87-2.08a25.08,25.08,0,0,1-1-3.48,20.25,20.25,0,0,1-.38-2.3c-.06-.54-.11-.82-.11-.82s.09.28.21.8c.05.26.14.57.24.95s.25.79.4,1.27a24.4,24.4,0,0,0,1.33,3.3,26.32,26.32,0,0,0,2.39,3.9,25.64,25.64,0,0,0,3.64,3.93,32.12,32.12,0,0,0,4.91,3.43,41,41,0,0,0,5.85,2.66,52,52,0,0,0,6.4,1.88,67.14,67.14,0,0,0,6.61,1.23c2.19.29,4.37.54,6.48.7s4.19.26,6.15.42l5.52.43c1.71.14,3.27.3,4.65.43s2.6.21,3.58.38C166,182.32,167.08,182.52,167.08,182.52Z"/>
					<path class="cls-19" d="M165.94,192.5l-.83,0c-.53,0-1.33.05-2.35,0s-2.23,0-3.64,0-3-.1-4.72-.23l-2.69-.23-2.87-.32-3-.42c-1-.15-2.08-.36-3.15-.55-2.13-.44-4.33-.92-6.54-1.57-1.09-.32-2.19-.7-3.29-1.05s-2.19-.84-3.28-1.29-2.12-1-3.17-1.59-2-1.16-3-1.72c-.47-.3-1-.58-1.45-.86s-.93-.66-1.4-1l-2.75-1.91a45.11,45.11,0,0,1-4.73-4.2l-1-1.07a8.68,8.68,0,0,1-.95-1.08l-1.66-2.18c-.52-.7-.92-1.45-1.33-2.13a19.37,19.37,0,0,1-1.08-2c-.56-1.29-1.14-2.4-1.46-3.35-.66-1.91-1-3-1-3s.52,1,1.37,2.84c.41.92,1.08,1.95,1.76,3.15a15.11,15.11,0,0,0,1.23,1.83c.47.63.87,1.33,1.44,2s1.15,1.3,1.75,2l.46.52.51.48,1,1c.36.33.71.68,1.08,1a14.58,14.58,0,0,0,1.18.94c.81.62,1.63,1.27,2.47,1.91l2.71,1.77c.47.3.92.59,1.37.89l1.47.84,3,1.69c.95.52,2,1,3,1.48s2.08.86,3.12,1.25,2.13.74,3.21,1.07,2.12.63,3.19.9,2.1.54,3.15.78c2.09.46,4.11.87,6,1.22s3.77.63,5.47.88c3.41.47,6.26.84,8.27,1Z"/>
					<path class="cls-19" d="M159.52,199.35s-.8.14-2.23.23a47.49,47.49,0,0,1-5.91-.08c-1.22-.08-2.55-.21-3.94-.4l-2.15-.32c-.72-.12-1.46-.28-2.21-.41-1.49-.33-3.05-.64-4.59-1.08s-3.13-.92-4.68-1.41L131.5,195l-2.25-.92c-.75-.35-1.49-.71-2.2-1.08L125,191.86c-.64-.42-1.29-.81-1.9-1.25s-1.2-.87-1.75-1.31a34.43,34.43,0,0,1-3-2.63,29.15,29.15,0,0,1-2.29-2.46c-.66-.74-1.17-1.45-1.59-2a20.89,20.89,0,0,1-1.21-1.88,44.76,44.76,0,0,0,5.84,5.51c.94.76,2,1.51,3.1,2.29.57.39,1.18.74,1.77,1.13l1.89,1.12c.67.33,1.33.69,2,1l2.08.95,2.2.87c.77.24,1.53.51,2.29.78,1.51.5,3,1,4.55,1.43s3,.86,4.47,1.23,2.88.68,4.23,1,2.63.52,3.82.72c2.39.41,4.39.67,5.79.81S159.52,199.35,159.52,199.35Z"/>
				</g>
				<path class="cls-20" d="M124.75,170s-15-1.68-2,7.23c0,0-4.08,3.85,3.85,9,0,0-5.22,5.18,9.11,10.67,0,0-3.5.74-1.66,3.29a34.86,34.86,0,0,1-3.81-1.94c-18.64-10.95-27.6-39-26.73-44.53a30.7,30.7,0,0,0,14.83,8.47C117.34,164.88,118.25,167.9,124.75,170Z"/>
				<path class="cls-21" d="M114.94,165.47s-7.33-4.14-5.06,2.09c0,0-3.76-.19,2.2,7.08a2.63,2.63,0,0,0-1.71.8c-5-9.64-7.28-18.85-6.82-21.78a30,30,0,0,0,6.82,5.31C110.74,160.94,112,163.16,114.94,165.47Z"/>
				<path class="cls-22" d="M130.92,166.29c-16.64,0-23.89-9.35-24.41-10,3.88,3.06,11.31,7.45,20.93,6.28,18.19-2.18,36.8,2.68,39.73,20.21a15.94,15.94,0,0,1-3.53,13.55C171.35,171.83,146.18,166.27,130.92,166.29Z"/>
				<g class="cls-23">
					<path class="cls-24" d="M123.92,180.8l.43.17c.28.13.72.25,1.23.46l.85.31c.33.09.67.2,1,.33.74.23,1.53.52,2.45.78s1.92.49,2.94.82l.79.22.84.18c.55.11,1.11.24,1.68.39,1.16.23,2.31.59,3.52.81s2.45.45,3.69.68,2.45.53,3.69.67,2.43.35,3.6.54l3.37.58c1.08.1,2.1.24,3,.38,1.89.23,3.47.51,4.58.73s1.75.35,1.75.35-.63.12-1.76.23-2.73.28-4.66.38c-1,.07-2,.13-3.13.15s-2.28-.09-3.48-.17-2.45-.2-3.72-.33a30.67,30.67,0,0,1-3.83-.6c-1.27-.25-2.53-.52-3.79-.79a14.47,14.47,0,0,1-1.83-.52l-1.77-.58c-.57-.18-1.14-.36-1.69-.57l-.82-.3-.78-.36c-1-.45-2-.89-2.86-1.32s-1.63-.93-2.31-1.33l-.94-.58c-.27-.21-.53-.41-.76-.57A11.38,11.38,0,0,1,123.92,180.8Z"/>
					<path class="cls-25" d="M127.17,189.29l.36.11c.22.09.58.18,1,.32s.93.28,1.54.47,1.26.39,2,.59,1.52.39,2.35.63,1.73.43,2.62.68,1.85.5,2.81.73,1.93.44,2.91.66,1.94.53,2.92.7,1.92.41,2.83.61l2.66.67c.85.16,1.65.34,2.4.52,1.48.33,2.73.68,3.6.93s1.37.45,1.37.45-.51.07-1.42.15-2.19.15-3.74.17c-.79,0-1.63,0-2.51,0s-1.82-.17-2.8-.28-2-.24-3-.4a24.92,24.92,0,0,1-3-.63l-3-.77c-1-.28-1.92-.68-2.83-1a26.28,26.28,0,0,1-2.6-1.08c-.81-.41-1.56-.8-2.24-1.17s-1.29-.79-1.82-1.13a12.54,12.54,0,0,1-1.34-1A9.61,9.61,0,0,1,127.17,189.29Z"/>
					<path class="cls-13" d="M118.93,172.18l.47.13c.3.09.77.16,1.32.31s1.25.31,2.07.48,1.69.36,2.64.6,2,.39,3.14.63,2.29.44,3.51.64,2.47.45,3.73.72,2.58.37,3.89.55,2.6.47,3.88.63,2.56.31,3.79.47,2.4.35,3.53.54l3.2.35c2,.23,3.64.48,4.81.68s1.83.33,1.83.33-.67.12-1.84.25-2.85.32-4.87.44c-1,.07-2.11.17-3.27.16s-2.36-.07-3.64-.15-2.57-.13-3.89-.22-2.66-.37-4-.55-2.66-.44-4-.69-2.56-.63-3.78-1c-.62-.16-1.22-.32-1.8-.49s-1.14-.39-1.7-.57c-1.1-.39-2.12-.78-3.07-1.15s-1.77-.8-2.53-1.16a17.79,17.79,0,0,1-1.88-1A15.3,15.3,0,0,1,118.93,172.18Z"/>
				</g>
				<path class="cls-37" d="M130.09,138.43c-6.45,37.83-27.44,74-55.83,78.71a3.84,3.84,0,0,1-1.95.56,11.36,11.36,0,0,1-5.25-.9,28.67,28.67,0,0,1-4.2-2.07l-.07-.05A65.38,65.38,0,0,1,51,205.24C39,193.63,30.94,186,28.3,179.07a13.2,13.2,0,0,1-.95-5.06,13.52,13.52,0,0,1,.64-3.67,48.81,48.81,0,0,0,1.49-11.93c0-.52,0-1,0-1.59,0-.93,0-1.9,0-2.88,0-.3,0-.61,0-.91-.05-2.29-.19-4.72-.42-7.21s-.51-4.77-.91-7.23a76.57,76.57,0,0,0-7.21-23.12A40.53,40.53,0,0,0,8.46,100.53a4.91,4.91,0,0,1,.54.08H9a16.08,16.08,0,0,0,8.28-1.35c5.38-2.34,12-8.29,16.13-23,9.28-32.91,26.25-32.2,26.25-32.2s44.48-14.85,65.27,32C132.65,93.42,133.89,116.22,130.09,138.43Z"/>
				<path class="cls-46" d="M130.09,138.43c-6.45,37.83-27.44,74-55.83,78.71a3.84,3.84,0,0,1-1.95.56,27.44,27.44,0,0,1-5.25-.9,2.05,2.05,0,0,1-.3-.08,15.61,15.61,0,0,1-3.89-2l-.07-.05a24.33,24.33,0,0,1-2.39-1.86A75,75,0,0,1,51,204.92c-.59-.61-1.2-1.18-1.81-1.74-.29.17-9.65-9.53-9.65-9.53C34,188,30.16,183.37,28.41,179l-.12,0-.63.14a12.72,12.72,0,0,1-.73-5.09l.41-.1a12.42,12.42,0,0,1,.64-4,36,36,0,0,0,1.22-7.11l-.36.17c.1-1.4.19-2.89.22-4.5a4,4,0,0,1,.41-.15c0-.52,0-1,0-1.59,0-.93,0-1.9,0-2.88,0-.3,0-.61,0-.91h0c-.15.07-.29.15-.44.2-.07-2.29-.2-4.67-.44-7.14.15-.1.32-.19.46-.27l0,0c-.2-2.37-.49-4.79-.88-7.26l-.07.05a4.32,4.32,0,0,0-.47.36,76.67,76.67,0,0,0-7.3-23c.2-.17.37-.34.56-.47l.12-.1A41.3,41.3,0,0,0,9,100.61H9c-.19-.15-.37-.29-.58-.42,0,0,3.49.76,8.23-1.56.2.22.42.42.64.63,6.45,5.84,19.45,3.47,25.39-.9,6.28-4.62,28.13-6.43,24.17,32.86s43.91,56.45,63,6.94C129.89,138.16,130,138.26,130.09,138.43Z"/>
				<path class="cls-30" d="M16,174.19l.38,0c.24,0,.56.12.91.2s.73.18,1.12.32c.19.07.41.09.61.17a3.74,3.74,0,0,0,.61.2c.4.16.83.31,1.2.47a11.48,11.48,0,0,1,1.08.48,6.74,6.74,0,0,1,1.14.65l-.33.18a5.52,5.52,0,0,1-.92.31,5.19,5.19,0,0,1-1.33.09,5.32,5.32,0,0,1-1.5-.31,5.17,5.17,0,0,1-.71-.31,2.83,2.83,0,0,1-.64-.39,3.73,3.73,0,0,1-.56-.46,4.74,4.74,0,0,1-.44-.47,3.86,3.86,0,0,1-.49-.83A2.33,2.33,0,0,1,16,174.19Z"/>
				<path class="cls-48" d="M193.13,181.06a54.94,54.94,0,0,1-14.52,12.11c-39.7,22.23-70.47-.52-70.47-.52-26.08,31.54-54.83-5.73-47.76-35.23,7.93-33-1.49-49.42-5.46-54-6-6.83-11.27,3.37-33.64,12.71l.06.14c-.21.2-.44.38-.65.57a76.82,76.82,0,0,1,7.29,23c.18-.13.35-.27.53-.39.38,2.47.69,4.89.89,7.26a4.4,4.4,0,0,1-.5.28c.24,2.48.37,4.88.46,7.16.14-.05.28-.13.45-.21,0,1.9,0,3.7,0,5.4l-.4.14c0,1.61-.11,3.12-.23,4.51l.36-.18A33.37,33.37,0,0,1,28.26,171a12.12,12.12,0,0,0-.62,4l-.41.12a12.94,12.94,0,0,0,.72,5.11l.75-.17c1.75,4.31,5.57,8.92,11.13,14.61,0,0,9.35,9.69,9.65,9.51l1.82,1.75a75,75,0,0,0,9.4,7.91,20.06,20.06,0,0,0,6.36,3.88,29.47,29.47,0,0,0,7.07,1.1c31.93,13.38,44.73,11.47,44.73,11.47,29.93-1.59,49.9-14,63.2-29.61-.34.23-.69.44-1,.66a95.22,95.22,0,0,0,11.8-16.5l.22-.16c1.39-2.52,2.65-5.07,3.81-7.59C195.62,178.42,194.4,179.76,193.13,181.06Z"/>
				<path class="cls-49" d="M24.92,103.59c6.5,1.63,14.43-.89,18.74-3.24S61.15,98.9,61,125.76s-18.31,49-33.3,53.79-24-12.7-14.27-23.89,4-30.26-6.67-40.53-2-25.23,9.56-16.58C16.29,98.55,22,102.88,24.92,103.59Z"/>
				<path class="cls-50" d="M22.34,171.95a22.78,22.78,0,0,0,8.71-3.39,31.61,31.61,0,0,0,11-12.38c3.23-6.37,4-13.51,4-20.57,0-4.14,0-8.3-.26-12.43a9.45,9.45,0,0,0-.17-2.12,10,10,0,0,1-3.09-2.6c-.32-.44-2.53,5.4-11.83,5.58-8.95.18-16.33-6.4-16.33-6.4-3.85-2-10.31-7.28-11.82-10.84a15.45,15.45,0,0,0,4.6,8.07c10.65,10.27,16.42,29.37,6.68,40.56a16.06,16.06,0,0,0-3.7,7.3C7.88,171.21,18.41,172.57,22.34,171.95Z"/>
				<path class="cls-51" d="M44.78,122.48S46,146.91,31.21,158.93s-11.44-1.7-9.46-13.14-4.7-24.31-4.7-24.31,6.82,6.22,14.31,6.65C31.37,128.14,39.26,128.14,44.78,122.48Z"/>
				<path class="cls-52" d="M16.26,158.94c-3.15,9.74,11.38,15.78,24.35-5.44,6-9.85,4.34-30.94,4.34-30.94a20.62,20.62,0,0,1-12.32,4.49c-.37,0-.75.05-1.14.05a17.48,17.48,0,0,1-8.18-2.31,31.69,31.69,0,0,1-9-7.19h0l-.5-.29-.08,0a36.39,36.39,0,0,1-6.51-4.88,18.54,18.54,0,0,1-4.53-5.53A15.32,15.32,0,0,0,7.25,115a39.5,39.5,0,0,1,11.47,22.91,1.89,1.89,0,0,0,0,.2C19.65,145.91,19.4,149.21,16.26,158.94Z"/>
				<path class="cls-30" d="M6.11,110.27a7.93,7.93,0,0,1-2.21-6.37,6.19,6.19,0,0,1,1.53-3.37,6.45,6.45,0,0,1,3.38-1.91,7.81,7.81,0,0,1,3.9.15,14.39,14.39,0,0,1,3.33,1.55c2,1.21,3.75,2.41,5.6,3.53a26.13,26.13,0,0,0,5.52,2.62,12.16,12.16,0,0,0,5.48.48,16.75,16.75,0,0,0,5.18-2.26A33.87,33.87,0,0,1,41,103l.38-.15.51-.2a9.72,9.72,0,0,1,1-.34,13.37,13.37,0,0,1,2.06-.45,10.46,10.46,0,0,1,4.47.34,10.89,10.89,0,0,1,3.89,2.25,16.65,16.65,0,0,1,4.32,6.64,29.16,29.16,0,0,1,1.11,3.53l.19.89.19.87.29,1.63c.39,2.34.64,4.6.82,6.91a61.45,61.45,0,0,1,.05,6.94,51,51,0,0,1-.81,6.95,46.62,46.62,0,0,1-1.84,6.79,41.72,41.72,0,0,1-3,6.38l.09-.15c-.41.82-.8,1.52-1.22,2.26s-.84,1.44-1.29,2.14c-.88,1.42-1.81,2.78-2.79,4.12s-2,2.63-3.1,3.88-2.24,2.45-3.44,3.61c-.59.58-1.23,1.11-1.86,1.65s-1.29,1.06-2,1.54-1.34,1-2,1.43l-1.05.66-1.1.6c-.74.37-1.48.74-2.24,1a22.78,22.78,0,0,1-2.33.84,21,21,0,0,1-2.39.55,19.6,19.6,0,0,1-2.43.28c.78-.23,1.55-.44,2.3-.74s1.46-.62,2.19-1A22.22,22.22,0,0,0,32,173.6c.68-.4,1.31-.87,1.95-1.32s1.24-1,1.84-1.46,1.16-1,1.72-1.59,1.11-1.11,1.63-1.68,1-1.17,1.52-1.77c1-1.2,2-2.45,2.86-3.72s1.74-2.6,2.54-3.94,1.58-2.7,2.31-4.08c.35-.68.7-1.4,1-2.09s.68-1.43.93-2.07l.09-.17A45,45,0,0,0,52.67,144,55.23,55.23,0,0,0,54,137.9a59.47,59.47,0,0,0,.52-6.24c0-2.1,0-4.2-.2-6.3s-.44-4.23-.77-6.26l-.32-1.61-.15-.75-.15-.73a20.38,20.38,0,0,0-.85-2.8,11.89,11.89,0,0,0-2.7-4.47,4.69,4.69,0,0,0-3.83-1.32,7.87,7.87,0,0,0-1.19.22l-.58.18-.28.08-.37.15c-.86.34-1.8.81-2.8,1.31a19.81,19.81,0,0,1-7.13,2.46,16.32,16.32,0,0,1-7.53-1.19,27.32,27.32,0,0,1-6.16-3.6c-.91-.68-1.8-1.37-2.66-2.07s-1.73-1.43-2.54-2.06a14.4,14.4,0,0,0-2.49-1.58,5.08,5.08,0,0,0-2.63-.47,4.56,4.56,0,0,0-4.06,3.32A6.78,6.78,0,0,0,5,107.22,9.39,9.39,0,0,0,6.11,110.27Z"/>
				<path class="cls-53" d="M108.26,63.8a43.66,43.66,0,0,0-8.13-13.46,35.68,35.68,0,0,0-10.47-8.15,29.3,29.3,0,0,0-9.81-3,26.52,26.52,0,0,0-6.61.25l-2.31.48h0l-2.21.75a25.87,25.87,0,0,0-5.82,3.16A28.33,28.33,0,0,0,56,51.46,35,35,0,0,0,51.37,63.9a43,43,0,0,0,.26,15.71c.35,1.35.6,2.74,1.05,4.13a41.09,41.09,0,0,0,1.45,4.1c.28.68.57,1.36.86,2.06s.67,1.33,1,2a37.74,37.74,0,0,0,2.31,3.93,39.28,39.28,0,0,0,6,7.11A42.8,42.8,0,0,0,68,106a37,37,0,0,0,4.12,2.49,27.61,27.61,0,0,0,9.24,3,25.89,25.89,0,0,0,9.77-.57,25.6,25.6,0,0,0,8.71-4.47,26.76,26.76,0,0,0,6.37-7.34,35.92,35.92,0,0,0,2.21-4.26,35.48,35.48,0,0,0,1.5-4.51,37.89,37.89,0,0,0,1-4.6c.12-.77.15-1.56.24-2.32s.15-1.53.13-2.31A45.66,45.66,0,0,0,108.26,63.8Z"/>
				<path class="cls-54" d="M68.86,42.49c-14,3.83-21.37,21.11-16.38,38.6s20.38,28.55,34.42,24.73,21.38-21.11,16.39-38.58S82.91,38.66,68.86,42.49Z"/>
				<path class="cls-55" d="M56.5,76.63c4.1,14.41,17.06,23.46,29,20.21s18.21-17.56,14.11-32-17.06-23.46-29-20.21S52.39,62.23,56.5,76.63Z"/>
				<path class="cls-56" d="M85.39,75.08c2.53,11.73-2,21.43-10,21.7S58.73,87.75,56.22,76s2-21.42,10-21.69S82.87,63.37,85.39,75.08Z"/>
				<path d="M79.56,75.29c1.52,7-1.18,12.84-6,13S63.56,82.88,62,75.86s1.18-12.85,6-13S78,68.25,79.56,75.29Z"/>
				<g class="cls-57">
					<path class="cls-58" d="M80.37,93.37a4.36,4.36,0,0,0,.52-5.47c-.94-1.3-1.81-1.28-2.62-.86-1,1.37-2.47,3.11-4.34,3.06a11,11,0,0,1-9.39-5.34c-1.75-3.37-2.36-4.89-3.48-3.48s1.27,6.12,3,8.27c3,3.77,7.36,5.84,11.16,5.71A7.33,7.33,0,0,0,80,93.72,2.87,2.87,0,0,0,80.37,93.37Z"/>
				</g>
				<path class="cls-13" d="M73.38,56.08c-6.51-5.46-8.85.15-7.36,6.23S73.75,75,79.87,74.57,82.12,63.46,73.38,56.08Z"/>
				<path class="cls-25" d="M59.67,44.06s28-9.78,47.05,8.62c0,0,73.35-43,99.81,52.84,0,0-6-60.13-69.86-79.51C136.67,26,96.31,11.63,59.67,44.06Z"/>
				<path class="cls-13" d="M82.22,40.47s.24-.27.71-.71,1.19-1.12,2.17-1.86a37.6,37.6,0,0,1,3.61-2.59,46.35,46.35,0,0,1,5-2.86,57.77,57.77,0,0,1,13.76-4.8,60.22,60.22,0,0,1,8.19-1.15,66.74,66.74,0,0,1,8.53-.1q2.16.16,4.28.39c1.41.22,2.81.4,4.19.66a71.69,71.69,0,0,1,8,2c1.26.44,2.52.82,3.72,1.27l3.47,1.41c1.11.47,2.17,1,3.21,1.5s2,1,2.92,1.52l2.64,1.49c.82.48,1.57,1,2.3,1.45,1.44.92,2.67,1.75,3.64,2.5,2,1.48,3,2.36,3,2.36s-1.31-.52-3.51-1.51c-1.1-.5-2.49-1-4-1.68s-3.33-1.29-5.24-2c-1-.39-2-.72-3-1.05s-2.11-.75-3.24-1.06l-3.44-1-3.61-.92c-1.23-.29-2.5-.53-3.76-.81s-2.57-.44-3.88-.68-2.63-.33-3.95-.52-2.66-.23-4-.32c-2.67-.13-5.33-.2-8-.07a77.18,77.18,0,0,0-7.7.69c-2.49.36-4.88.81-7.14,1.34s-4.38,1.11-6.32,1.76a77.8,77.8,0,0,0-9.2,3.65C83.43,39.76,82.22,40.47,82.22,40.47Z"/>
				<path class="cls-25" d="M77.38,110.72s26.38,9.37,35.77-15.7c0,0,9.17,38.18-8.16,54C92.1,160.83,79.13,139.07,77.38,110.72Z"/>
				<path class="cls-59" d="M142,49c7.24-.21,29.6,3,43.35,17.14s2,10.57-13.55,3.59c-24.52-11-42.91-3.59-47.13-8.25S128.49,49.39,142,49Z"/>
				<path class="cls-59" d="M166.53,86.17c13.25,2,43.14,20.09,36.14,25s-31.07,7.19-49.47.84S117.48,78.78,166.53,86.17Z"/>
				<path class="cls-59" d="M153.84,131.84c9.75.28,30.86,2.54,44.61-3.17s2.12,15.86-23.46,18-37.43-2.73-39.76-9.51S146.46,131.63,153.84,131.84Z"/>
				<path class="cls-25" d="M24.78,96.7A37.87,37.87,0,0,0,35.7,76.25c2-12.61,11.58-25.91,21.47-30,0,0-16.37,22.16-8.87,35.45S28.2,102.14,24.78,96.7Z"/>
			</g>
		</g>
	</g>
</svg>