<svg xmlns="http://www.w3.org/2000/svg" xmlns:xlink="http://www.w3.org/1999/xlink" viewBox="0 0 114.29 101.76"><defs><style>.cls-1{mask:url(#mask);filter:url(#luminosity-noclip-3);}.cls-18,.cls-2,.cls-20,.cls-21,.cls-33,.cls-34,.cls-4,.cls-46,.cls-48,.cls-50,.cls-52,.cls-53,.cls-8{mix-blend-mode:multiply;}.cls-2{fill:url(#linear-gradient);}.cls-3{mask:url(#mask-2);filter:url(#luminosity-noclip-4);}.cls-4{fill:url(#linear-gradient-2);}.cls-5{fill:none;}.cls-6{isolation:isolate;}.cls-7{fill:url(#linear-gradient-3);}.cls-8{fill:#c5c8c9;}.cls-22,.cls-36,.cls-8{opacity:0.8;}.cls-9{clip-path:url(#clip-path);}.cls-10{fill:url(#linear-gradient-4);}.cls-11{mask:url(#mask-3);}.cls-12{fill:url(#linear-gradient-5);}.cls-13,.cls-22,.cls-24,.cls-25,.cls-28,.cls-29,.cls-30,.cls-36,.cls-59{fill:#fff;}.cls-14{fill:url(#linear-gradient-6);}.cls-15{fill:#fcb116;}.cls-16,.cls-19{fill:#fdb604;}.cls-17{fill:#f68d1f;}.cls-19,.cls-28,.cls-33,.cls-48{opacity:0.3;}.cls-20,.cls-46,.cls-53{fill:#f0accd;}.cls-21,.cls-37{fill:#ffdf00;}.cls-22,.cls-27,.cls-59{mix-blend-mode:overlay;}.cls-23,.cls-30{opacity:0.6;}.cls-24,.cls-46,.cls-52{opacity:0.7;}.cls-25,.cls-50,.cls-53,.cls-59{opacity:0.5;}.cls-26{fill:url(#linear-gradient-7);}.cls-29{opacity:0.1;}.cls-31{fill:url(#linear-gradient-8);}.cls-32{fill:url(#linear-gradient-9);}.cls-34{fill:#eb74ad;}.cls-35{fill:url(#linear-gradient-10);}.cls-38{fill:url(#linear-gradient-11);}.cls-39{fill:#f37321;}.cls-40{fill:url(#linear-gradient-12);}.cls-41{fill:url(#linear-gradient-13);}.cls-42{fill:url(#linear-gradient-14);}.cls-43{fill:url(#linear-gradient-15);}.cls-44{fill:url(#linear-gradient-16);}.cls-45{fill:url(#linear-gradient-17);}.cls-47{fill:url(#linear-gradient-18);}.cls-48{fill:#900124;}.cls-49,.cls-50,.cls-52{fill:#d98290;}.cls-51{fill:#9c1e0f;}.cls-54{fill:#c5d3d6;}.cls-55{fill:url(#linear-gradient-19);}.cls-56{fill:url(#linear-gradient-20);}.cls-57{mask:url(#mask-4);}.cls-58{fill:url(#linear-gradient-21);}.cls-60{filter:url(#luminosity-noclip-2);}.cls-61{filter:url(#luminosity-noclip);}</style><filter id="luminosity-noclip" x="5.73" y="-4658.31" width="2.01" height="32766" filterUnits="userSpaceOnUse" color-interpolation-filters="sRGB"><feFlood flood-color="#fff" result="bg"/><feBlend in="SourceGraphic" in2="bg"/></filter><mask id="mask" x="5.73" y="-4658.31" width="2.01" height="32766" maskUnits="userSpaceOnUse"><g class="cls-61"/></mask><linearGradient id="linear-gradient" x1="4030.07" y1="-584.8" x2="4038.74" y2="-584.8" gradientTransform="matrix(0.28, 0.43, -0.59, 0.87, -1477.17, -1206.64)" gradientUnits="userSpaceOnUse"><stop offset="0"/><stop offset="0.41" stop-color="#fff"/><stop offset="0.47" stop-color="#fafafa"/><stop offset="0.54" stop-color="#ececec"/><stop offset="0.62" stop-color="#d5d5d5"/><stop offset="0.7" stop-color="#b4b4b4"/><stop offset="0.79" stop-color="#8a8a8a"/><stop offset="0.88" stop-color="#565656"/><stop offset="0.96" stop-color="#1b1b1b"/><stop offset="1"/></linearGradient><filter id="luminosity-noclip-2" x="23.61" y="-4658.31" width="8.1" height="32766" filterUnits="userSpaceOnUse" color-interpolation-filters="sRGB"><feFlood flood-color="#fff" result="bg"/><feBlend in="SourceGraphic" in2="bg"/></filter><mask id="mask-2" x="23.61" y="-4658.31" width="8.1" height="32766" maskUnits="userSpaceOnUse"><g class="cls-60"/></mask><linearGradient id="linear-gradient-2" x1="500.31" y1="-375.79" x2="507.34" y2="-375.79" gradientTransform="matrix(1.06, -0.03, 0.24, 1.08, -416.64, 453.31)" xlink:href="#linear-gradient"/><linearGradient id="linear-gradient-3" x1="579.59" y1="352.98" x2="595.1" y2="352.98" gradientTransform="translate(-526.58 -392.37) rotate(7.01)" gradientUnits="userSpaceOnUse"><stop offset="0.3" stop-color="#fff"/><stop offset="0.92" stop-color="#e2eaec"/></linearGradient><clipPath id="clip-path"><path class="cls-5" d="M7.27,40c2.76,3.18,7,1.49,9.75-2.62,2.49-3.78,4.78-9,4.64-13.59-.12-3.86-2.22-6.78-5.59-5.89S9.31,22,7.21,26C4.71,30.63,4,36.24,7.27,40Z"/></clipPath><linearGradient id="linear-gradient-4" x1="4031.1" y1="-595.88" x2="4037.28" y2="-579.83" gradientTransform="matrix(0.28, 0.43, -0.59, 0.87, -1477.17, -1206.64)" gradientUnits="userSpaceOnUse"><stop offset="0" stop-color="#690044"/><stop offset="0.39" stop-color="#ed3995"/><stop offset="1" stop-color="#4a5993"/></linearGradient><filter id="luminosity-noclip-3" x="5.73" y="27.67" width="2.01" height="7.33" filterUnits="userSpaceOnUse" color-interpolation-filters="sRGB"><feFlood flood-color="#fff" result="bg"/><feBlend in="SourceGraphic" in2="bg"/></filter><mask id="mask-3" x="5.73" y="27.67" width="2.01" height="7.33" maskUnits="userSpaceOnUse"><g class="cls-1"><path class="cls-2" d="M6.75,35c.29-.07.72-.45.92-1.25.13-.53,0-.72-.09-.79-.3.12-.7.22-.85-.2a5.63,5.63,0,0,1,.06-3.43c.39-1.23.58-1.74.26-1.64S6.17,29.49,6,30.41a7.26,7.26,0,0,0,0,3.91c.16.38.37.69.66.68Z"/></g></mask><linearGradient id="linear-gradient-5" x1="4030.07" y1="-584.8" x2="4038.74" y2="-584.8" gradientTransform="matrix(0.28, 0.43, -0.59, 0.87, -1477.17, -1206.64)" gradientUnits="userSpaceOnUse"><stop offset="0" stop-color="#690044"/><stop offset="0.41" stop-color="#6b7fcc"/><stop offset="0.5" stop-color="#6b7ac7"/><stop offset="0.61" stop-color="#6b6db9"/><stop offset="0.72" stop-color="#6a56a2"/><stop offset="0.84" stop-color="#6a3681"/><stop offset="0.96" stop-color="#690d58"/><stop offset="1" stop-color="#69004a"/></linearGradient><linearGradient id="linear-gradient-6" x1="3750.41" y1="-2475.22" x2="3765.57" y2="-2475.22" gradientTransform="matrix(-0.3, 0.92, 0.94, 0.25, 3509.83, -2732.46)" gradientUnits="userSpaceOnUse"><stop offset="0" stop-color="#e60d75"/><stop offset="0.1" stop-color="#e72b86"/><stop offset="0.22" stop-color="#e84b97"/><stop offset="0.32" stop-color="#e95fa2"/><stop offset="0.39" stop-color="#e966a6"/><stop offset="0.48" stop-color="#e96aa2"/><stop offset="0.58" stop-color="#eb7495"/><stop offset="0.68" stop-color="#ed8680"/><stop offset="0.78" stop-color="#ef9f62"/><stop offset="0.88" stop-color="#f3be3c"/><stop offset="0.98" stop-color="#f7e50e"/><stop offset="1" stop-color="#f8ee03"/></linearGradient><linearGradient id="linear-gradient-7" x1="3251.92" y1="-2351.72" x2="3266.88" y2="-2351.72" gradientTransform="matrix(-0.3, 1, 0.82, 0.24, 2901.48, -2598.56)" xlink:href="#linear-gradient-6"/><linearGradient id="linear-gradient-8" x1="78.39" y1="35.29" x2="104.46" y2="35.29" gradientTransform="matrix(1, 0, 0, 1, 0, 0)" xlink:href="#linear-gradient-6"/><linearGradient id="linear-gradient-9" x1="74.93" y1="68.45" x2="114.29" y2="68.45" gradientTransform="matrix(1, 0, 0, 1, 0, 0)" xlink:href="#linear-gradient-6"/><linearGradient id="linear-gradient-10" x1="37.08" y1="6.23" x2="55.11" y2="6.23" gradientTransform="matrix(1, 0, 0, 1, 0, 0)" xlink:href="#linear-gradient-6"/><linearGradient id="linear-gradient-11" x1="8.95" y1="31.38" x2="41.09" y2="31.38" gradientUnits="userSpaceOnUse"><stop offset="0.08" stop-color="#efc8de"/><stop offset="0.17" stop-color="#eec1da"/><stop offset="0.3" stop-color="#edadce"/><stop offset="0.45" stop-color="#ea8dba"/><stop offset="0.46" stop-color="#ea8bb9"/><stop offset="0.54" stop-color="#ea84b5"/><stop offset="0.65" stop-color="#e970ab"/><stop offset="0.78" stop-color="#e85099"/><stop offset="0.93" stop-color="#e72381"/><stop offset="1" stop-color="#e60d75"/></linearGradient><linearGradient id="linear-gradient-12" x1="15.75" y1="71.61" x2="76.84" y2="71.61" xlink:href="#linear-gradient-11"/><linearGradient id="linear-gradient-13" x1="11.25" y1="61.98" x2="80.48" y2="61.98" xlink:href="#linear-gradient-11"/><linearGradient id="linear-gradient-14" x1="14.46" y1="53.96" x2="80.83" y2="53.96" xlink:href="#linear-gradient-11"/><linearGradient id="linear-gradient-15" x1="11.91" y1="37.38" x2="74.38" y2="37.38" xlink:href="#linear-gradient-11"/><linearGradient id="linear-gradient-16" x1="23.48" y1="83.43" x2="70.71" y2="83.43" xlink:href="#linear-gradient-11"/><linearGradient id="linear-gradient-17" x1="12" y1="44.74" x2="79.64" y2="44.74" xlink:href="#linear-gradient-11"/><linearGradient id="linear-gradient-18" x1="40.14" y1="69.22" x2="64.99" y2="69.22" gradientTransform="matrix(1, 0, 0, 1, 0, 0)" xlink:href="#linear-gradient-6"/><linearGradient id="linear-gradient-19" x1="9307.94" y1="-882.53" x2="9329.66" y2="-882.53" gradientTransform="matrix(-0.77, 0.21, 0.27, 0.96, 7447.73, -1082.95)" gradientUnits="userSpaceOnUse"><stop offset="0.56" stop-color="#fff"/><stop offset="1" stop-color="#e2eaec"/></linearGradient><linearGradient id="linear-gradient-20" x1="501.46" y1="-388.2" x2="507.87" y2="-371.57" gradientTransform="matrix(1.06, -0.03, 0.24, 1.08, -416.64, 453.31)" xlink:href="#linear-gradient-4"/><filter id="luminosity-noclip-4" x="23.61" y="31.36" width="8.1" height="5.63" filterUnits="userSpaceOnUse" color-interpolation-filters="sRGB"><feFlood flood-color="#fff" result="bg"/><feBlend in="SourceGraphic" in2="bg"/></filter><mask id="mask-4" x="23.61" y="31.36" width="8.1" height="5.63" maskUnits="userSpaceOnUse"><g class="cls-3"><path class="cls-4" d="M31.21,36.26a1.69,1.69,0,0,0,.2-2.12c-.37-.51-.7-.5-1-.33-.39.53-1,1.21-1.69,1.19a4.25,4.25,0,0,1-3.64-2.07c-.68-1.31-.92-1.9-1.35-1.35s.49,2.38,1.16,3.21A5.53,5.53,0,0,0,29.2,37a2.85,2.85,0,0,0,1.87-.6A1.11,1.11,0,0,0,31.21,36.26Z"/></g></mask><linearGradient id="linear-gradient-21" x1="500.31" y1="-375.79" x2="507.34" y2="-375.79" gradientTransform="matrix(1.06, -0.03, 0.24, 1.08, -416.64, 453.31)" xlink:href="#linear-gradient-5"/></defs><title>fish2</title><g class="cls-6"><g id="Layer_2" data-name="Layer 2"><g id="Layer_2-2" data-name="Layer 2"><path class="cls-7" d="M7.27,40c2.76,3.18,7,1.49,9.75-2.62,2.49-3.78,4.78-9,4.64-13.59-.12-3.86-2.22-6.78-5.59-5.89S9.31,22,7.21,26C4.71,30.63,4,36.24,7.27,40Z"/><path class="cls-8" d="M7.27,40c2.76,3.18,7,1.49,9.75-2.62,2.49-3.78,4.78-9,4.64-13.59-.12-3.86-2.22-6.78-5.59-5.89S9.31,22,7.21,26C4.71,30.63,4,36.24,7.27,40Zm.44-14.63a13.34,13.34,0,0,1,5.8-5.86c1.94-1,.16,4.19-.14,5.78C12,32.76,7.95,36.78,7.05,34.22A10.76,10.76,0,0,1,7.71,25.37Z"/><g class="cls-9"><path class="cls-10" d="M10.11,31.54C8.45,35,6.5,36.46,5.78,34.73s0-5.95,1.69-9.44,3.61-4.92,4.34-3.19S11.78,28.05,10.11,31.54Z"/><path d="M9.58,30.29c-1,2.09-2.16,2.95-2.6,1.91s0-3.57,1-5.67,2.16-2.95,2.6-1.91S10.58,28.2,9.58,30.29Z"/><g class="cls-11"><path class="cls-12" d="M6.75,35c.29-.07.72-.45.92-1.25.13-.53,0-.72-.09-.79-.3.12-.7.22-.85-.2a5.63,5.63,0,0,1,.06-3.43c.39-1.23.58-1.74.26-1.64S6.17,29.49,6,30.41a7.26,7.26,0,0,0,0,3.91c.16.38.37.69.66.68Z"/></g><path class="cls-13" d="M12.13,23.2c.24-2.46-.71-1.34-1.41.5s-1.13,4.58-.59,5.41S11.8,26.51,12.13,23.2Z"/></g><path class="cls-14" d="M33.54,85.85c1.3.13,6.92,3.72,8,8.4s-2.38,8.77-6.08,7.11-3.45-6-1.66-9.8A6.29,6.29,0,0,0,33.54,85.85Z"/><path class="cls-15" d="M33.54,85.85a5.77,5.77,0,0,1,.5.47,7.57,7.57,0,0,1,.51.6,8.2,8.2,0,0,1,.57.86,7,7,0,0,1,.52,1.11A5.91,5.91,0,0,1,36,90.25a6,6,0,0,1,0,1.49c-.07.51-.16,1-.26,1.49s-.24,1-.37,1.44S35.1,95.6,35,96s-.24.87-.34,1.27c0,.2-.1.4-.13.59s-.09.38-.11.56c-.07.36-.09.68-.11,1a4.35,4.35,0,0,0,0,.76,1.67,1.67,0,0,0,.12.48l.06.17-.1-.15a1.8,1.8,0,0,1-.23-.46,3.24,3.24,0,0,1-.19-.77,5.88,5.88,0,0,1,0-1,9.29,9.29,0,0,1,.12-1.21c.06-.43.14-.87.25-1.32s.2-.93.32-1.4.24-.94.33-1.42.21-1,.28-1.4a7,7,0,0,0,.07-1.35,7.09,7.09,0,0,0-.21-1.24,9.12,9.12,0,0,0-.38-1.1,11.11,11.11,0,0,0-.81-1.56C33.69,86.05,33.54,85.85,33.54,85.85Z"/><path class="cls-16" d="M35.49,101.36s.05-.25.16-.69.25-1.07.45-1.82l.67-2.55c0-.23.1-.47.16-.71s.09-.49.13-.73.08-.5.12-.75.05-.51.07-.76,0-.51,0-.76,0-.5,0-.75,0-.49-.06-.74-.08-.47-.12-.71l-.19-.67-.24-.62-.3-.55c-.1-.17-.23-.33-.34-.48a4.17,4.17,0,0,0-.36-.41,3.83,3.83,0,0,0-.35-.34,7.6,7.6,0,0,0-.64-.47l-.61-.36.65.29a7.75,7.75,0,0,1,.69.43,3.62,3.62,0,0,1,.39.32,2.77,2.77,0,0,1,.4.4c.12.16.27.31.38.48l.34.56.29.64c.08.23.15.46.22.7s.1.49.15.73.06.51.08.76,0,.52,0,.78,0,.52,0,.78-.05.52-.09.78-.08.51-.13.76c-.09.51-.21,1-.34,1.47-.27.92-.56,1.78-.78,2.52s-.44,1.35-.58,1.77S35.49,101.36,35.49,101.36Z"/><path class="cls-17" d="M37.8,101.7s.24-1,.53-2.56l.21-1.24c.07-.43.13-.9.19-1.38s.08-1,.1-1.47a11.14,11.14,0,0,0,0-1.5c0-.24-.07-.5-.1-.72s-.11-.5-.17-.75l-.09-.38c0-.12-.07-.23-.11-.35l-.21-.68a11.37,11.37,0,0,0-.56-1.24,8.88,8.88,0,0,0-.65-1c-.11-.16-.24-.29-.35-.43s-.21-.26-.33-.37-.41-.42-.58-.58l-.53-.49.62.37c.2.12.42.29.68.48a9,9,0,0,1,.81.73,7,7,0,0,1,.81,1,8.71,8.71,0,0,1,.7,1.28l.27.74c.05.12.09.25.14.37l.09.37.19.75c.06.29.1.55.13.82a12.64,12.64,0,0,1,0,1.62c0,.53-.11,1-.19,1.53a19.47,19.47,0,0,1-.64,2.63A18.15,18.15,0,0,1,37.8,101.7Z"/><path class="cls-17" d="M39.67,100.81a4.39,4.39,0,0,0,.19-.47c0-.15.12-.33.19-.55s.14-.45.2-.72.13-.56.18-.88l.14-1c0-.34,0-.69.08-1.05s0-.73,0-1.09v-.28a2,2,0,0,0,0-.26c0-.19,0-.37-.05-.55l0-.27-.06-.25c0-.17-.07-.34-.11-.5a2.86,2.86,0,0,0-.14-.48L40.09,92c-.1-.3-.24-.56-.34-.82l-.33-.68L39.13,90l-.2-.32-.07-.11s.12.13.33.39a9.37,9.37,0,0,1,.74,1.14c.12.25.29.51.41.81a7.47,7.47,0,0,1,.35,1l.14.53.07.27,0,.28c0,.18,0,.37.07.55s0,.17,0,.29V95c0,.38,0,.75,0,1.12s-.08.73-.11,1.08-.14.69-.2,1-.17.6-.25.88a6.58,6.58,0,0,1-.27.71c-.08.21-.18.39-.25.53A4.67,4.67,0,0,1,39.67,100.81Z"/><g class="cls-18"><path class="cls-19" d="M33.49,85.84a5.5,5.5,0,0,1,.46.49,8,8,0,0,1,1,1.51A7.39,7.39,0,0,1,35.4,89a6.37,6.37,0,0,1,.27,1.35c0,.24,0,.49,0,.74a7.17,7.17,0,0,1-.06.75c-.06.49-.15,1-.25,1.46s-.23,1-.34,1.43l-.35,1.36a21.51,21.51,0,0,0-.49,2.42,5.45,5.45,0,0,0,0,1.71,2.54,2.54,0,0,0,.15.47l.06.16-.11-.14a2.12,2.12,0,0,1-.25-.44,3.56,3.56,0,0,1-.22-.76,5.32,5.32,0,0,1-.09-1,13.42,13.42,0,0,1,.27-2.53c.09-.45.18-.92.29-1.39l.31-1.42c.11-.47.2-.94.26-1.4,0-.23.05-.44.08-.68s0-.44,0-.65a8.33,8.33,0,0,0-.16-1.25,10.45,10.45,0,0,0-.31-1.1,10.81,10.81,0,0,0-.7-1.6C33.62,86,33.49,85.84,33.49,85.84Z"/><path class="cls-19" d="M35.44,101.35s0-.26.08-.7c0-.23.08-.49.14-.8s.12-.66.21-1,.17-.79.27-1.22.2-.89.33-1.36.2-.94.29-1.43.15-1,.2-1.48c0-.25,0-.5,0-.75s0-.49,0-.74,0-.49,0-.72-.07-.47-.1-.69-.12-.44-.17-.65l-.22-.61-.27-.55c-.1-.17-.22-.32-.31-.48a3.1,3.1,0,0,0-.34-.41,3.89,3.89,0,0,0-.34-.35c-.24-.18-.43-.38-.62-.5L34,86.49l.66.25a6.78,6.78,0,0,1,.73.41,3.17,3.17,0,0,1,.41.31,3.1,3.1,0,0,1,.42.39,5.79,5.79,0,0,1,.4.48l.37.57c.1.21.2.43.3.65s.15.47.23.71.1.5.15.75.06.53.08.79,0,.53,0,.79,0,.53,0,.79c-.06.52-.13,1-.24,1.55s-.24,1-.37,1.47-.29.91-.42,1.32-.27.81-.4,1.18-.25.69-.36,1-.21.55-.28.77Z"/><path class="cls-19" d="M37.75,101.68s.19-1,.43-2.54l.17-1.23c.05-.43.1-.9.14-1.37s.06-1,.07-1.46a13.48,13.48,0,0,0-.06-1.49c0-.24-.07-.5-.1-.72s-.11-.5-.17-.74c-.1-.51-.25-1-.37-1.41-.08-.22-.16-.43-.23-.65a5.12,5.12,0,0,0-.26-.6,7.84,7.84,0,0,0-.59-1.06,5.3,5.3,0,0,0-.32-.43,3.2,3.2,0,0,0-.31-.38c-.22-.22-.39-.44-.56-.58l-.52-.49.61.37c.2.12.41.3.67.49a6.9,6.9,0,0,1,.78.76l.39.49c.14.17.23.37.36.56a9,9,0,0,1,.62,1.3l.24.72c0,.12.09.25.12.37l.09.37c.05.25.12.5.18.75s.09.54.13.81a13.71,13.71,0,0,1,0,1.59c0,.52-.08,1-.15,1.52s-.15,1-.25,1.39-.2.84-.3,1.22A17.19,17.19,0,0,1,37.75,101.68Z"/><path class="cls-19" d="M39.74,100.69s0-.18.09-.5.11-.76.18-1.3l.08-.86c0-.31,0-.63.07-1s0-.68,0-1,0-.71,0-1.06v-.53c0-.16,0-.36,0-.53s0-.33-.05-.49,0-.33-.07-.49c-.07-.32-.14-.63-.22-.92s-.17-.57-.26-.82a11.35,11.35,0,0,0-.74-1.64,3.75,3.75,0,0,1,.36.36,6.3,6.3,0,0,1,.78,1.1,5.67,5.67,0,0,1,.41.81l.18.47c.06.16.1.33.15.49a7.88,7.88,0,0,1,.2,1.09c0,.18,0,.34,0,.55L41,95c0,.37,0,.74,0,1.1s-.06.72-.11,1.06-.11.67-.17,1a8.69,8.69,0,0,1-.22.87,9.13,9.13,0,0,1-.46,1.25A4.6,4.6,0,0,1,39.74,100.69Z"/></g><path class="cls-20" d="M35.69,91.43s.7-3.34,1.76,0c0,0,1.16-.66,1.73,1.36,0,0,1.53-.83,1.73,2.6,0,0,.42-.71.86-.17a8.5,8.5,0,0,0-.16-.94c-1.11-4.68-6.73-8.26-8-8.4a6.46,6.46,0,0,1,.83,3.71C35.07,89.53,35.68,89.9,35.69,91.43Z"/><path class="cls-21" d="M35.38,89s-.4-1.84.83-1c0,0,.23-.83,1.43.89a.64.64,0,0,1,.3-.32,11.29,11.29,0,0,0-4.37-2.76,6.2,6.2,0,0,1,.69,1.79A2.37,2.37,0,0,1,35.38,89Z"/><path class="cls-22" d="M34.42,92.55c1.2-3.6-.38-5.72-.49-5.88a6.15,6.15,0,0,1-.1,4.91c-1.79,3.82-2,8.13,1.66,9.8a3.91,3.91,0,0,0,3.29,0C32.74,101.65,33.31,95.87,34.42,92.55Z"/><g class="cls-23"><path class="cls-24" d="M38.15,91.89a2,2,0,0,1,.2.36,3.55,3.55,0,0,1,.18.44,5.51,5.51,0,0,1,.18.59c0,.22.09.46.13.71a5.93,5.93,0,0,1,.06.81,8,8,0,0,1,0,.87c0,.29-.06.58-.09.87a6.41,6.41,0,0,1-.15.87c-.07.29-.14.56-.22.82s-.15.53-.24.76-.19.45-.29.66c-.19.4-.37.73-.51.95s-.22.34-.22.34,0-.15,0-.41,0-.63.08-1.06c0-.21.05-.45.1-.69s.05-.5.08-.76.07-.53.12-.8.08-.55.1-.82.07-.56.12-.83.05-.53.09-.8S38,94.25,38,94s0-.46.07-.68,0-.4.05-.58,0-.33,0-.46,0-.23,0-.3S38.15,91.89,38.15,91.89Z"/><path class="cls-25" d="M39.82,93.08a2,2,0,0,1,.18.29,2.21,2.21,0,0,1,.17.35c0,.14.12.29.17.47s.09.36.14.57a5.1,5.1,0,0,1,.08.64,5.23,5.23,0,0,1,0,.69c0,.23,0,.47,0,.71a5.07,5.07,0,0,1-.08.7c0,.23-.09.45-.15.67s-.11.42-.17.61-.15.37-.22.54a7.46,7.46,0,0,1-.39.77c-.11.18-.17.28-.17.28a2.41,2.41,0,0,1,0-.34,7.81,7.81,0,0,1,0-.86c0-.17,0-.35,0-.55s0-.41,0-.61,0-.43,0-.65,0-.44,0-.67,0-.44.07-.66,0-.43.06-.64.06-.41.07-.6,0-.38.06-.55C39.76,93.55,39.82,93.08,39.82,93.08Z"/><path class="cls-13" d="M36.59,90.3a2.59,2.59,0,0,1,.15.4,3.39,3.39,0,0,1,.13.48c0,.19.09.4.12.63s.06.47.07.75a6.25,6.25,0,0,1,0,.84c0,.29,0,.59,0,.89s-.08.61-.13.92-.09.61-.17.9-.17.58-.25.86-.17.54-.26.79-.22.47-.32.68a10.83,10.83,0,0,1-.52,1c-.14.23-.23.36-.23.36s0-.16,0-.43,0-.66.11-1.1c0-.22.07-.47.11-.72s.06-.52.1-.8.09-.55.15-.84.08-.58.14-.87.1-.58.16-.86.08-.57.13-.84.1-.54.14-.79.09-.48.13-.71c.06-.44.15-.82.19-1.08S36.59,90.3,36.59,90.3Z"/></g><path class="cls-26" d="M11.66,67.43s.26,2.79-4.81,4.67S-.28,74.8,0,77.16s6.33,6.19,11.7,3.66S14.65,73,13.78,71,11.62,65.79,11.66,67.43Z"/><path class="cls-22" d="M.08,77.37A2,2,0,0,1,.56,75.6c.49,2.37,5.57,6.55,10.76,5.22a6.85,6.85,0,0,0,1.31-.47,7.26,7.26,0,0,1-1.11.58C6.35,83.12.42,79.52.08,77.37Z"/><path class="cls-16" d="M11.7,67a3.92,3.92,0,0,1,.17.73,5.54,5.54,0,0,1,0,.86,4.61,4.61,0,0,1-.16,1.11,4.49,4.49,0,0,1-.57,1.21,5.76,5.76,0,0,1-.45.58,6.14,6.14,0,0,1-.58.51,10.23,10.23,0,0,1-1.34.84c-.47.25-1,.5-1.44.74L4.52,75a18.46,18.46,0,0,0-2.38,1.36A8.24,8.24,0,0,0,1.3,77a3.43,3.43,0,0,0-.53.65,2.81,2.81,0,0,0-.23.49l-.06.19s0-.07,0-.19a2.51,2.51,0,0,1,.19-.52A4.75,4.75,0,0,1,2,76.19,16.69,16.69,0,0,1,4.37,74.7c.9-.48,1.88-.94,2.84-1.42.48-.23,1-.47,1.43-.73A11.11,11.11,0,0,0,10,71.77c.2-.14.37-.32.55-.46a5.67,5.67,0,0,0,.45-.52,4.28,4.28,0,0,0,.59-1.12,5.24,5.24,0,0,0,.25-1.9A4.42,4.42,0,0,0,11.7,67Z"/><path class="cls-16" d="M2.53,80s0-.06-.05-.19a2.5,2.5,0,0,1,0-.55,2.35,2.35,0,0,1,.17-.84,2.74,2.74,0,0,1,.62-.94,4.62,4.62,0,0,1,1.09-.77l1.28-.66L7,75.38c.46-.25.93-.51,1.36-.8l.33-.21L9,74.14a6.72,6.72,0,0,0,.62-.48l.56-.51.49-.57.12-.14a1.09,1.09,0,0,0,.1-.14l.2-.3.2-.29a2.8,2.8,0,0,0,.16-.3,4.84,4.84,0,0,0,.44-1.18c0-.19.06-.38.08-.56s0-.35,0-.51a6.36,6.36,0,0,0-.08-.83c-.06-.46-.11-.73-.11-.73l.05.18c0,.12.09.3.14.53a8.2,8.2,0,0,1,.14.84c0,.16,0,.34,0,.53s0,.38-.07.58a5.23,5.23,0,0,1-.4,1.27c0,.11-.1.23-.15.33s-.12.2-.19.31l-.19.31c0,.06-.06.1-.1.16l-.12.15-.5.6-.58.55c-.19.19-.42.33-.63.5l-.33.24-.34.22c-.46.3-.93.56-1.4.81s-.94.47-1.4.68L4.44,77a4.3,4.3,0,0,0-1.06.68,2.89,2.89,0,0,0-.64.83,2.24,2.24,0,0,0-.23.79A2.14,2.14,0,0,0,2.53,80Z"/><path class="cls-16" d="M5.7,81.6a1.31,1.31,0,0,1,0-.16,2.79,2.79,0,0,1,0-.46c0-.1,0-.21.05-.33a3.84,3.84,0,0,1,.11-.37A1.9,1.9,0,0,1,6,79.86a4,4,0,0,1,.24-.43,6,6,0,0,1,.7-.85c.27-.29.57-.57.87-.86a17.69,17.69,0,0,0,1.69-2c.27-.36.53-.72.76-1.09l.35-.55.32-.55c.19-.37.38-.73.54-1.08a4.35,4.35,0,0,0,.21-.51,5.15,5.15,0,0,0,.17-.49c0-.16.09-.31.13-.45s.06-.29.08-.42a3.93,3.93,0,0,0,.06-.69c0-.2,0-.35,0-.46s0-.16,0-.16l0,.16a3.62,3.62,0,0,1,.09.45,5.35,5.35,0,0,1,0,.71c0,.14,0,.29,0,.44s-.07.31-.1.48-.1.34-.15.52a4.58,4.58,0,0,1-.19.54,9.49,9.49,0,0,1-.5,1.13l-.31.58-.35.57c-.24.38-.49.75-.76,1.12S9.26,76.66,9,77s-.6.66-.91,1-.63.55-.9.81a5.14,5.14,0,0,0-.72.79,3.81,3.81,0,0,0-.26.4,1.94,1.94,0,0,0-.2.38c0,.12-.11.24-.14.35s-.05.22-.08.31a3.45,3.45,0,0,0,0,.45C5.69,81.54,5.7,81.6,5.7,81.6Z"/><path class="cls-16" d="M8.67,81.68s.13-.16.31-.46.43-.74.7-1.28c.13-.28.28-.56.41-.88s.28-.66.4-1,.26-.71.39-1.09.25-.76.36-1.14.23-.77.33-1.15.2-.76.27-1.13a18.74,18.74,0,0,0,.37-2,7.69,7.69,0,0,0,.07-1.45,2.35,2.35,0,0,0-.07-.4.72.72,0,0,1-.06-.13l.08.12a1.56,1.56,0,0,1,.12.4,6.33,6.33,0,0,1,.07,1.48,16.74,16.74,0,0,1-.25,2.07c-.07.38-.16.76-.25,1.15s-.21.78-.31,1.17-.25.78-.38,1.16-.29.74-.43,1.09-.31.68-.46,1-.33.6-.47.87A12,12,0,0,1,9,81.27l-.27.31A.59.59,0,0,1,8.67,81.68Z"/><path class="cls-16" d="M11.09,81l.17-.52.18-.6.22-.78.24-.92c.07-.33.17-.68.24-1s.15-.74.22-1.12.13-.77.18-1.16.08-.79.12-1.17,0-.76,0-1.13,0-.72,0-1.06-.08-.65-.11-.94-.13-.55-.18-.78a3.64,3.64,0,0,0-.2-.59L12,68.7l.26.49a3,3,0,0,1,.26.58c.08.23.18.49.26.78s.12.61.19,1,.07.71.09,1.08,0,.76,0,1.16,0,.79-.11,1.19a19.5,19.5,0,0,1-.45,2.31c-.08.36-.2.71-.3,1l-.31.92c-.2.56-.4,1-.54,1.34S11.09,81,11.09,81Z"/><path class="cls-16" d="M12.22,80.66a2.83,2.83,0,0,0,.43-.43,3.77,3.77,0,0,0,.39-.57,2.87,2.87,0,0,0,.2-.38,3.26,3.26,0,0,0,.19-.42,7.22,7.22,0,0,0,.3-1,10.87,10.87,0,0,0,.15-1.17c0-.41,0-.83,0-1.27s-.07-.86-.13-1.3-.12-.87-.23-1.29-.18-.84-.29-1.24-.22-.78-.33-1.15-.24-.7-.34-1c-.22-.63-.39-1.17-.51-1.54s-.18-.58-.18-.58.09.2.25.56.39.86.65,1.48c.12.31.28.63.41,1l.39,1.15c.13.41.22.83.33,1.26s.16.88.25,1.32.09.9.12,1.34a10.72,10.72,0,0,1,0,1.31A8.08,8.08,0,0,1,14,77.9a7.2,7.2,0,0,1-.37,1,3.25,3.25,0,0,1-.22.43,3.31,3.31,0,0,1-.24.37,4,4,0,0,1-.46.55A2.42,2.42,0,0,1,12.22,80.66Z"/><path class="cls-20" d="M14,76.43c-.13-3.71-2.14-2.53-2.14-2.53.34-2.49-1.54-.51-1.54-.51,1.32-2-1.82-.39-1.82-.39s1.71-2.34-1.16-1.05a4.41,4.41,0,0,1-1.5.38l1-.38c5-1.76,4.74-4.45,4.74-4.45-.05-1.58,1.26,1.61,2.16,3.49s3.39,7-1.94,9.42A8.88,8.88,0,0,1,9,81.14C11.92,80.23,14.07,78.51,14,76.43Z"/><g class="cls-27"><path class="cls-13" d="M7.63,72.78s-.44.27-1.11.61c-.17.08-.34.19-.54.28s-.39.21-.6.31l-.63.32-.65.34c-.21.12-.44.22-.64.34s-.42.22-.61.34a10.44,10.44,0,0,0-1,.68,3.75,3.75,0,0,0-.38.32,1.67,1.67,0,0,0-.27.27l-.23.27s0-.12.1-.34a1.29,1.29,0,0,1,.17-.38,1.9,1.9,0,0,1,.3-.45,3.45,3.45,0,0,1,.42-.47L2.19,75l.28-.22a6.08,6.08,0,0,1,.61-.43c.21-.14.44-.26.66-.38a10.86,10.86,0,0,1,1.38-.6A11.35,11.35,0,0,1,6.37,73,7.68,7.68,0,0,1,7.63,72.78Z"/><path class="cls-24" d="M2.18,78.08s0,0,0-.06a.56.56,0,0,1,0-.21,1.12,1.12,0,0,1,.09-.31,3.13,3.13,0,0,1,.2-.36,4,4,0,0,1,.31-.36,2.15,2.15,0,0,1,.38-.36c.15-.11.28-.23.44-.33l.23-.16L4,75.78c.33-.18.67-.34,1-.48.17-.07.32-.12.48-.17L5.95,75a5.5,5.5,0,0,1,.93-.18,6.35,6.35,0,0,1-.74.58c-.23.16-.5.33-.8.5s-.59.37-.91.54a4.53,4.53,0,0,0-.46.27L3.52,77a3.46,3.46,0,0,0-.41.25l-.36.23-.28.21c-.08.07-.13.14-.19.2A.58.58,0,0,0,2.2,78S2.19,78.08,2.18,78.08Z"/><path class="cls-25" d="M8.77,80.37l.37-.79c.12-.23.23-.52.38-.81s.12-.3.19-.45a4.66,4.66,0,0,0,.2-.48l.2-.47c.07-.16.13-.31.18-.47.1-.31.23-.59.3-.83.15-.49.28-.83.28-.83s0,.35-.06.88a2.62,2.62,0,0,1-.08.42c0,.15-.08.3-.11.46a4,4,0,0,1-.15.49l-.19.5c-.07.17-.15.32-.22.48s-.16.31-.24.45-.32.55-.49.77A5.16,5.16,0,0,1,8.77,80.37Z"/><path class="cls-28" d="M11,80.07s.06-.34.19-.83c.05-.24.13-.53.22-.84l.27-.94c.1-.32.18-.64.27-.94s.15-.58.24-.82.1-.44.14-.59l.06-.23s0,.08,0,.23a5.29,5.29,0,0,1,0,.62c0,.26-.06.56-.12.87s-.14.64-.24,1l-.15.48c0,.16-.11.32-.17.46-.11.3-.22.57-.33.8A7.17,7.17,0,0,1,11,80.07Z"/><path class="cls-29" d="M13.23,74.32a1.45,1.45,0,0,1,.07.19c0,.06,0,.14.06.22a2,2,0,0,1,0,.29c0,.1,0,.23,0,.35a2.23,2.23,0,0,1,0,.39,3.41,3.41,0,0,1,0,.42c0,.14-.05.28-.08.42a3,3,0,0,1-.1.42c0,.14-.09.27-.14.39a3.66,3.66,0,0,1-.29.68c-.2.38-.36.62-.36.62s0-.29.15-.7c0-.1.05-.21.09-.33l.08-.37c.05-.25.15-.52.19-.8s.12-.54.15-.8,0-.25.06-.37,0-.23,0-.34,0-.2,0-.29,0-.16,0-.22S13.23,74.32,13.23,74.32Z"/><path class="cls-30" d="M9.65,75.13,9,75.84l-.69.7c-.25.26-.53.53-.78.82l-.39.41-.37.41c-.23.27-.45.53-.61.76s-.16.22-.22.32a2.2,2.2,0,0,0-.15.27c-.07.15-.12.24-.12.24l0-.26a1.69,1.69,0,0,1,.1-.3A1.83,1.83,0,0,1,6,78.82a2.71,2.71,0,0,1,.23-.42c.09-.14.19-.29.3-.44a9.46,9.46,0,0,1,.75-.88c.27-.28.55-.55.83-.79s.54-.45.78-.62.44-.31.58-.4Z"/></g><path class="cls-31" d="M78.39,46.22s3.34-13.59,11.54-18.08,14.23-2.56,13.33-7.69c0,0,4.24,3.85-3.21,9.74S96.85,52.62,78.9,49.81Z"/><path class="cls-32" d="M74.93,50.31s3.72-2.82,9.23-.51a19.62,19.62,0,0,1,8.44,6C94.78,58.64,96.17,62,98,65a52.14,52.14,0,0,0,8.23,10.9,32,32,0,0,1,8,12.09s-3-5.42-8.24-6.48S88.45,77.39,83,70.28,77.94,55.16,74.93,50.31Z"/><path class="cls-15" d="M79.35,47.81l0-.35c0-.23.07-.58.16-1s.19-.95.34-1.54a19.71,19.71,0,0,1,.59-2,22.07,22.07,0,0,1,.93-2.25c.18-.4.4-.78.6-1.19s.47-.8.71-1.21a22.92,22.92,0,0,1,1.72-2.36c.63-.75,1.25-1.53,1.93-2.27l1-1.11,1.06-1.06c.68-.72,1.44-1.32,2.15-1.95a13.12,13.12,0,0,1,1.09-.86l1.07-.79c.72-.48,1.42-.89,2.06-1.28s1.3-.64,1.85-.91l.39-.19.39-.14.68-.25,1.29-.47s-.45.23-1.24.6l-.64.3-.38.18-.37.22L95,27c-.61.43-1.28.88-2,1.37l-1,.83c-.34.28-.71.54-1,.87-.68.62-1.4,1.25-2.07,2l-1,1-1,1.1c-.68.71-1.3,1.49-1.94,2.24a27,27,0,0,0-1.72,2.24c-.5.78-1,1.54-1.36,2.29-.2.38-.38.74-.56,1.1s-.33.71-.47,1.06a26.58,26.58,0,0,0-1.21,3.38C79.45,47.32,79.35,47.81,79.35,47.81Z"/><path class="cls-15" d="M79,48.84a1,1,0,0,0,.33,0,2.41,2.41,0,0,0,.85-.34,5.83,5.83,0,0,0,1.11-.89,14.6,14.6,0,0,0,1.19-1.41c.2-.27.4-.57.6-.88s.41-.63.6-1c.39-.69.82-1.41,1.19-2.17.19-.38.38-.76.56-1.16s.37-.8.53-1.22c.36-.82.68-1.68,1-2.54s.64-1.72,1-2.56l.27-.63.3-.61c.18-.41.41-.79.63-1.18a12.84,12.84,0,0,1,1.47-2.06,8.38,8.38,0,0,1,.8-.86,7.74,7.74,0,0,1,.81-.73L93,28c.25-.19.51-.34.75-.5l.66-.43c.2-.13.4-.23.58-.33.71-.39,1.11-.6,1.11-.6l-1,.73c-.17.11-.36.23-.55.38l-.61.49c-.21.18-.45.35-.69.56l-.71.66a8,8,0,0,0-.74.77,9.49,9.49,0,0,0-.73.86,15,15,0,0,0-1.32,2c-.2.38-.41.75-.57,1.15s-.36.8-.53,1.21c-.34.83-.64,1.69-1,2.55s-.66,1.73-1,2.57c-.17.42-.38.82-.57,1.23s-.39.8-.61,1.18c-.41.79-.87,1.47-1.29,2.14-.23.34-.45.65-.67,1s-.45.59-.68.85a11.27,11.27,0,0,1-1.35,1.36,5.72,5.72,0,0,1-1.23.8,2.45,2.45,0,0,1-.92.25A.89.89,0,0,1,79,48.84Z"/><path class="cls-15" d="M103.2,22.44a1.23,1.23,0,0,1-.14.41,2.54,2.54,0,0,1-.28.45,3.49,3.49,0,0,1-.45.56,12.94,12.94,0,0,1-1.44,1.3l-1,.69c-.34.25-.73.45-1.12.69l-1.21.74c-.2.14-.44.25-.63.4l-.62.43A15.12,15.12,0,0,0,94,30.34a18,18,0,0,0-3.19,6.17c-.37,1.15-.63,2.3-.89,3.5-.07.29-.14.57-.21.86s-.19.58-.29.87a8,8,0,0,1-.32.84c-.12.27-.22.55-.36.81a12,12,0,0,1-1.88,2.78,9.19,9.19,0,0,1-2.35,1.89,7.65,7.65,0,0,1-2.38.88c-.38,0-.73.1-1.05.1a7.86,7.86,0,0,1-.89,0l-.71-.1L79,48.77l-.42-.12.43.08.52.09.7,0a5.76,5.76,0,0,0,.87,0,10,10,0,0,0,1-.17l.53-.18a3.1,3.1,0,0,0,.55-.21l.57-.26.56-.34a3.88,3.88,0,0,0,.56-.39,4.35,4.35,0,0,0,.55-.44l.54-.5.5-.56a12.3,12.3,0,0,0,1.7-2.7c.13-.25.22-.52.32-.78a6,6,0,0,0,.29-.8c.09-.27.17-.55.25-.82s.14-.58.21-.87c.25-1.15.51-2.38.88-3.55a21.38,21.38,0,0,1,1.4-3.41,15.74,15.74,0,0,1,2-3A14.23,14.23,0,0,1,96,27.66a11.67,11.67,0,0,1,1.32-.82l1.25-.68c.4-.22.79-.41,1.14-.62l1-.62a11.21,11.21,0,0,0,1.5-1.18,3.38,3.38,0,0,0,.48-.51,1.94,1.94,0,0,0,.3-.42A1.13,1.13,0,0,0,103.2,22.44Z"/><path class="cls-15" d="M79,49.54a12.29,12.29,0,0,0,1.78.16,15.51,15.51,0,0,0,2-.1A13,13,0,0,0,85.34,49,10.39,10.39,0,0,0,88,47.6a10,10,0,0,0,2.31-2.48,12.56,12.56,0,0,0,1.52-3.31c.09-.3.17-.61.25-.91l.23-.95c.15-.63.34-1.26.53-1.9a33,33,0,0,1,1.4-3.67,24.16,24.16,0,0,1,1.88-3.32,19.57,19.57,0,0,1,2.27-2.76,24.64,24.64,0,0,1,2.38-2.11c.77-.62,1.48-1.15,2-1.69a3.5,3.5,0,0,0,1-1.67,3.57,3.57,0,0,0,0-1.29l-.1-.46.14.45a3.33,3.33,0,0,1,.08,1.33,3.7,3.7,0,0,1-1,1.84,23.07,23.07,0,0,1-2,1.83,30.53,30.53,0,0,0-2.24,2.17,22.26,22.26,0,0,0-2.12,2.74A24.71,24.71,0,0,0,95,34.7a33.06,33.06,0,0,0-1.34,3.59c-.19.61-.37,1.22-.53,1.86-.08.31-.16.63-.25.93s-.16.64-.27.95a12.79,12.79,0,0,1-1.67,3.47,9.8,9.8,0,0,1-5.46,3.94,11.79,11.79,0,0,1-2.66.44,13.43,13.43,0,0,1-2.07,0,12,12,0,0,1-1.31-.19Z"/><path class="cls-15" d="M77.69,51.34l2.38-.75h0a.79.79,0,0,1,.87.12,1.63,1.63,0,0,1,.31.31,2.08,2.08,0,0,1,.25.34,7.78,7.78,0,0,1,.69,1.53,23.37,23.37,0,0,1,.78,3.22c.19,1.08.34,2.17.46,3.27a30,30,0,0,0,.5,3.22L84,63l.11.39.21.78c.15.52.35,1,.52,1.53a18.49,18.49,0,0,0,1.45,2.87,14.86,14.86,0,0,0,2,2.52,16.25,16.25,0,0,0,2.46,2,16.58,16.58,0,0,0,2.84,1.51l.75.3.78.27,1.54.55c1,.37,2.07.74,3.1,1.14s2,.82,3.05,1.26c.51.22,1,.46,1.5.69l1.47.75c.48.27,1,.53,1.44.82s.94.58,1.39.9.9.63,1.32,1l.64.53c.21.18.39.38.6.58a12.38,12.38,0,0,1,2,2.59A13.62,13.62,0,0,0,111,83.61c-.2-.18-.4-.38-.61-.54l-.66-.49c-.42-.34-.9-.62-1.35-.92s-.94-.55-1.41-.84-1-.51-1.44-.76L104,79.36c-.5-.22-1-.44-1.5-.65-1-.42-2-.8-3.05-1.18s-2.06-.73-3.1-1.09l-1.56-.53-.78-.27-.78-.31a17.07,17.07,0,0,1-3-1.57,15.57,15.57,0,0,1-2.59-2.15A15.41,15.41,0,0,1,85.65,69a17.28,17.28,0,0,1-1.49-3c-.17-.53-.37-1.06-.51-1.59l-.21-.82-.1-.4-.08-.41a32.27,32.27,0,0,1-.42-3.3c-.09-1.08-.2-2.17-.35-3.25a26.85,26.85,0,0,0-.64-3.2,7.2,7.2,0,0,0-.59-1.49,1.37,1.37,0,0,0-.21-.33,1.23,1.23,0,0,0-.26-.29.62.62,0,0,0-.65-.15h0Z"/><path class="cls-15" d="M78.9,49.81a3.15,3.15,0,0,1,.58-.07,5.3,5.3,0,0,1,1.63.19,6.55,6.55,0,0,1,2.27,1.16,9.77,9.77,0,0,1,2.2,2.49c.15.26.33.52.48.8s.29.56.44.85c.28.59.57,1.21.84,1.85.54,1.27,1.08,2.62,1.65,4a43,43,0,0,0,1.94,4.15,18,18,0,0,0,2.69,3.83c.13.15.27.28.41.42l.43.4a7.06,7.06,0,0,0,.89.74l.46.36.49.29c.33.19.66.41,1,.59L99.38,73l2,1.16A36.12,36.12,0,0,1,105,76.61c.27.21.56.41.82.63l.74.66a18.83,18.83,0,0,1,1.38,1.29l1.2,1.25a7.53,7.53,0,0,1,.53.61l.47.59.87,1.06c.27.33.48.66.69.95l1.27,1.8-1.39-1.71c-.22-.27-.45-.58-.74-.89l-.92-1-.5-.56c-.17-.19-.36-.39-.56-.58L107.6,79.5c-.41-.43-.92-.8-1.41-1.21l-.75-.63c-.26-.21-.54-.39-.82-.59-1.1-.82-2.32-1.58-3.6-2.34L99,73.6,97,72.51c-.35-.18-.7-.4-1.05-.6l-.53-.31-.49-.37a7.93,7.93,0,0,1-1-.78L93.49,70a4.08,4.08,0,0,1-.43-.44,18.2,18.2,0,0,1-2.78-4,40,40,0,0,1-1.92-4.26l-1.55-4c-.25-.64-.51-1.24-.76-1.83l-.41-.87c-.13-.27-.3-.53-.44-.79a9.81,9.81,0,0,0-2-2.5,6.35,6.35,0,0,0-2.14-1.25,5.77,5.77,0,0,0-1.58-.29A2.91,2.91,0,0,0,78.9,49.81Z"/><path class="cls-15" d="M79.61,49.42l.56.07c.37.05.91.14,1.58.29s1.49.35,2.4.65a19.35,19.35,0,0,1,3,1.25A12.45,12.45,0,0,1,90.28,54a8.56,8.56,0,0,1,1.3,1.71l.51,1c.16.32.32.66.48,1,.63,1.36,1.2,2.77,1.78,4.2a29.44,29.44,0,0,0,2,4.16c.18.34.42.64.63,1s.46.6.7.9a11.12,11.12,0,0,0,1.66,1.53l.93.67.46.34.45.37c.62.49,1.17,1,1.7,1.51,1.07,1,2,2.1,2.93,3.12s1.7,2,2.4,3,1.34,1.83,1.88,2.62c.27.4.51.78.74,1.13l.59,1c.17.3.32.57.44.81l.29.62.18.54-.23-.52-.32-.59-.49-.77-.64-.95-.79-1.08c-.58-.76-1.24-1.61-2-2.52s-1.59-1.86-2.48-2.87-1.9-2-3-3c-.54-.49-1.09-1-1.68-1.44l-.43-.34-.47-.33L98.92,70a11.3,11.3,0,0,1-1.78-1.63c-.26-.31-.52-.62-.76-.95s-.47-.66-.66-1a29.94,29.94,0,0,1-2.05-4.28c-.59-1.44-1.11-2.86-1.71-4.2-.15-.34-.29-.66-.45-1L91,56a7.7,7.7,0,0,0-1.16-1.62,12.26,12.26,0,0,0-2.93-2.28,20.31,20.31,0,0,0-2.88-1.37c-.89-.35-1.68-.59-2.34-.78C80.38,49.55,79.61,49.42,79.61,49.42Z"/><path class="cls-15" d="M78.58,51.92s0,.16,0,.45.05.73.1,1.28c.1,1.1.3,2.66.66,4.51.18.92.41,1.91.68,3s.63,2.11,1,3.21c.19.55.45,1.09.68,1.65s.54,1.07.81,1.62.62,1.05,1,1.58l.55.74.27.38.12.18.16.18.62.71.31.36c.1.12.22.21.33.32a16,16,0,0,0,1.35,1.23c.47.38.93.78,1.43,1.12s1,.7,1.47,1l.73.46.75.43.73.41.73.37.71.36.7.33c.46.22.9.42,1.34.6s.85.36,1.25.51.78.32,1.14.44c.72.27,1.35.48,1.87.65,1.05.34,1.66.51,1.66.51s-.62-.1-1.7-.36c-.53-.13-1.19-.3-1.92-.53s-1.57-.48-2.46-.82q-.67-.24-1.38-.54l-.72-.3-.73-.34-.75-.35-.76-.4c-.25-.13-.51-.26-.77-.41l-.76-.45c-.52-.3-1-.64-1.53-1a17.9,17.9,0,0,1-1.49-1.13c-.51-.38-1-.85-1.43-1.29-.11-.11-.24-.22-.34-.34l-.31-.35L84,71.14,83.88,71l-.15-.21-.28-.39-.56-.79c-.34-.55-.66-1.09-1-1.64s-.57-1.12-.81-1.69-.47-1.14-.66-1.7a33.2,33.2,0,0,1-1.52-6.32,39,39,0,0,1-.37-4.58C78.53,52.55,78.58,51.92,78.58,51.92Z"/><g class="cls-33"><path class="cls-16" d="M78.71,47.85s0-.12,0-.36.07-.58.15-1,.19-.95.34-1.54a20.12,20.12,0,0,1,.6-2,21.3,21.3,0,0,1,.93-2.25c.17-.4.39-.78.59-1.18s.47-.8.71-1.21A24.64,24.64,0,0,1,83.78,36c.64-.75,1.26-1.53,1.94-2.26l1-1.11,1.06-1.05c.68-.72,1.44-1.33,2.15-2,.35-.31.73-.59,1.09-.86L92.1,28c.72-.48,1.43-.89,2.07-1.28s1.3-.64,1.84-.91l.4-.19.38-.15.68-.25c.82-.3,1.29-.46,1.29-.46l-1.23.6-.65.31-.37.17-.38.23-1.75,1c-.6.43-1.27.87-2,1.37l-1,.82c-.34.28-.71.55-1,.88-.68.63-1.4,1.25-2.07,2l-1,1-1,1.1c-.68.71-1.3,1.49-1.94,2.24a27.46,27.46,0,0,0-1.72,2.25c-.49.77-1,1.53-1.36,2.28-.19.37-.38.74-.55,1.1s-.33.71-.47,1.05A27.32,27.32,0,0,0,79,46.53C78.81,47.37,78.71,47.85,78.71,47.85Z"/><path class="cls-16" d="M78.33,48.88a.79.79,0,0,0,.32,0,2.43,2.43,0,0,0,.85-.34,6.18,6.18,0,0,0,1.1-.88,14.21,14.21,0,0,0,1.19-1.42c.21-.27.4-.57.61-.87s.4-.64.6-1c.39-.69.81-1.41,1.18-2.17.2-.38.39-.76.56-1.17s.37-.8.53-1.21c.35-.83.67-1.68,1-2.54s.64-1.73,1-2.56c.09-.21.17-.42.27-.63l.3-.61c.18-.4.41-.79.63-1.18a13.28,13.28,0,0,1,1.47-2.06,7.72,7.72,0,0,1,.8-.86,8.86,8.86,0,0,1,.81-.73l.78-.63c.26-.19.52-.34.75-.5l.66-.43c.21-.13.41-.23.58-.32l1.12-.6-1,.73c-.16.12-.35.23-.55.38l-.61.48c-.22.18-.45.35-.69.56l-.72.67a7.22,7.22,0,0,0-.73.76,8.79,8.79,0,0,0-.73.86,14.17,14.17,0,0,0-1.33,2c-.19.38-.41.75-.57,1.15s-.36.8-.52,1.22c-.35.82-.65,1.69-1,2.55s-.66,1.72-1,2.56c-.17.43-.37.83-.56,1.23s-.4.8-.61,1.18c-.41.79-.87,1.47-1.29,2.14-.24.35-.45.66-.68,1s-.45.59-.68.85a11.5,11.5,0,0,1-1.34,1.36,6.33,6.33,0,0,1-1.23.81,2.33,2.33,0,0,1-.91.24A.82.82,0,0,1,78.33,48.88Z"/><path class="cls-16" d="M102.56,22.47a1.29,1.29,0,0,1-.14.42,2.56,2.56,0,0,1-.27.45,3.28,3.28,0,0,1-.45.56,11.29,11.29,0,0,1-1.44,1.3l-1,.69c-.34.25-.73.45-1.11.69L97,27.32c-.2.13-.44.25-.63.4l-.61.44a15.45,15.45,0,0,0-2.32,2.22,18.22,18.22,0,0,0-3.19,6.18,35.89,35.89,0,0,0-.89,3.49l-.22.87c-.09.29-.19.58-.28.87a6.74,6.74,0,0,1-.33.84c-.12.27-.22.55-.36.8a12.26,12.26,0,0,1-1.88,2.79,9.42,9.42,0,0,1-2.35,1.89,7.67,7.67,0,0,1-2.38.87,10.45,10.45,0,0,1-1.05.11,8.74,8.74,0,0,1-.9,0l-.71-.1-.51-.14-.42-.12.43.08.51.1.7,0a8.5,8.5,0,0,0,.87,0c.32,0,.65-.12,1-.17l.54-.17a2.72,2.72,0,0,0,.55-.21l.57-.25.56-.34a4.24,4.24,0,0,0,.56-.39,5.14,5.14,0,0,0,.55-.44l.53-.5.5-.56a12.54,12.54,0,0,0,1.7-2.7c.13-.25.21-.52.32-.78a7.41,7.41,0,0,0,.29-.8l.25-.82c.07-.29.14-.58.2-.87.25-1.15.51-2.38.88-3.55a20.67,20.67,0,0,1,1.4-3.42,15.64,15.64,0,0,1,2-3,14.73,14.73,0,0,1,2.5-2.25,13.08,13.08,0,0,1,1.31-.81L98,26.2c.39-.21.79-.41,1.14-.62l1-.62a11.56,11.56,0,0,0,1.5-1.17,4.52,4.52,0,0,0,.48-.51,2.68,2.68,0,0,0,.31-.42A1.31,1.31,0,0,0,102.56,22.47Z"/><path class="cls-16" d="M78.33,49.59a12.5,12.5,0,0,0,1.78.15,13.8,13.8,0,0,0,2-.1,12.58,12.58,0,0,0,2.56-.58,10.34,10.34,0,0,0,2.71-1.42,10,10,0,0,0,2.31-2.48,12.71,12.71,0,0,0,1.52-3.32c.1-.29.17-.6.25-.91s.16-.63.24-.94c.15-.62.34-1.26.53-1.9a32.16,32.16,0,0,1,1.4-3.67,23.06,23.06,0,0,1,1.88-3.33,19.55,19.55,0,0,1,2.27-2.75,24.11,24.11,0,0,1,2.38-2.11c.76-.61,1.48-1.15,2-1.69a3.53,3.53,0,0,0,1-1.66,3.57,3.57,0,0,0,0-1.3c-.06-.3-.1-.46-.1-.46l.13.45a3.27,3.27,0,0,1,.08,1.34,3.67,3.67,0,0,1-1,1.83,22.89,22.89,0,0,1-2,1.83,26.61,26.61,0,0,0-2.25,2.17,21,21,0,0,0-2.12,2.73,24.72,24.72,0,0,0-1.76,3.25A31,31,0,0,0,93,38.32c-.19.62-.38,1.23-.54,1.86-.08.32-.16.63-.24.94s-.17.64-.27.95a13,13,0,0,1-1.67,3.47,9.81,9.81,0,0,1-5.45,3.94,11.68,11.68,0,0,1-2.66.45,14.1,14.1,0,0,1-2.07,0,10.66,10.66,0,0,1-1.31-.19Z"/><path class="cls-16" d="M77,51.38l2.39-.75h0a.8.8,0,0,1,.87.12,1.57,1.57,0,0,1,.31.3,1.92,1.92,0,0,1,.25.35,7.45,7.45,0,0,1,.69,1.52,23.35,23.35,0,0,1,.78,3.22c.19,1.09.34,2.18.45,3.28s.26,2.18.5,3.21l.08.4.11.4.21.77c.14.53.35,1,.52,1.53a17.54,17.54,0,0,0,1.46,2.87,14.6,14.6,0,0,0,2,2.52,15.94,15.94,0,0,0,2.46,2,17.07,17.07,0,0,0,2.83,1.51l.75.29.78.28,1.55.55c1,.37,2.07.74,3.1,1.14s2,.82,3.05,1.27c.51.22,1,.46,1.51.69l1.47.76c.48.27,1,.54,1.44.83s.95.57,1.39.9.91.64,1.32,1l.64.53c.2.18.4.38.59.57a12.53,12.53,0,0,1,2,2.59,13.85,13.85,0,0,0-2.17-2.44c-.21-.18-.41-.37-.62-.54l-.65-.49c-.43-.34-.9-.62-1.35-.92s-.94-.55-1.41-.84-1-.5-1.44-.76l-1.49-.7c-.5-.21-1-.44-1.5-.64-1-.42-2-.8-3.06-1.18s-2.06-.73-3.09-1.09L94.19,76l-.78-.27-.79-.3a17,17,0,0,1-3-1.56,15.64,15.64,0,0,1-2.58-2.16A15.45,15.45,0,0,1,85,69a17.51,17.51,0,0,1-1.48-3c-.17-.53-.37-1.05-.51-1.59l-.21-.81-.1-.41-.07-.42a32.8,32.8,0,0,1-.43-3.29c-.09-1.09-.19-2.17-.35-3.25a26.66,26.66,0,0,0-.63-3.2,7.21,7.21,0,0,0-.59-1.5,2.56,2.56,0,0,0-.47-.62.62.62,0,0,0-.66-.15h0Z"/><path class="cls-16" d="M78.26,49.84a3,3,0,0,1,.58-.07,5.27,5.27,0,0,1,1.62.19,6.5,6.5,0,0,1,2.28,1.16,9.55,9.55,0,0,1,2.2,2.49c.16.27.33.52.48.81l.45.84c.28.59.57,1.21.83,1.84.55,1.27,1.08,2.63,1.65,4a44.34,44.34,0,0,0,1.95,4.15A17.7,17.7,0,0,0,93,69.1a3.91,3.91,0,0,0,.41.42l.42.4a8.29,8.29,0,0,0,.9.74l.46.36.5.3c.33.19.66.4,1,.58L98.74,73l2,1.16a38.42,38.42,0,0,1,3.6,2.47c.27.21.56.41.81.62l.75.66c.47.45,1,.83,1.38,1.29l1.2,1.26c.19.19.36.4.53.6l.48.59.86,1.06c.28.33.48.66.69.94l1.27,1.8-1.39-1.71c-.23-.27-.45-.58-.74-.89l-.92-1-.51-.56c-.17-.19-.35-.38-.55-.57L107,79.54c-.42-.43-.92-.8-1.41-1.22l-.75-.62c-.26-.21-.54-.4-.82-.6-1.09-.82-2.32-1.57-3.6-2.35l-2-1.11-2.08-1.09c-.35-.17-.69-.4-1-.6l-.53-.31-.49-.37a8.46,8.46,0,0,1-1-.78l-.45-.42c-.15-.14-.3-.28-.43-.44a18.7,18.7,0,0,1-2.78-4,40,40,0,0,1-1.92-4.26l-1.55-4c-.24-.64-.51-1.24-.77-1.83L85,54.63c-.12-.27-.29-.53-.43-.79a9.88,9.88,0,0,0-2-2.5,6.39,6.39,0,0,0-2.14-1.24,5.29,5.29,0,0,0-1.58-.29A3.54,3.54,0,0,0,78.26,49.84Z"/><path class="cls-16" d="M79,49.46l.56.07c.36.06.9.14,1.58.29s1.49.36,2.4.66a18.78,18.78,0,0,1,3,1.25A12.22,12.22,0,0,1,89.64,54a8.19,8.19,0,0,1,1.3,1.71c.19.33.34.64.51,1s.32.67.48,1c.63,1.35,1.2,2.77,1.78,4.2a29.82,29.82,0,0,0,2,4.16c.19.33.42.64.63,1s.46.6.71.9a10.11,10.11,0,0,0,1.66,1.53l.93.67.47.34c.15.12.3.24.45.37.61.49,1.16,1,1.71,1.52,1.07,1,2,2.1,2.92,3.12s1.69,2,2.4,3,1.34,1.83,1.89,2.62l.74,1.13.59,1,.44.81c.11.24.21.45.29.62l.18.54-.22-.53-.33-.59-.49-.77-.64-.94-.79-1.08c-.58-.76-1.24-1.61-2-2.52s-1.59-1.87-2.49-2.87-1.89-2-3-3c-.54-.49-1.09-1-1.67-1.44-.15-.12-.29-.24-.44-.34l-.47-.34-1-.67a12,12,0,0,1-1.78-1.62c-.25-.31-.52-.62-.75-1s-.47-.65-.67-1A30.65,30.65,0,0,1,93,62.15c-.58-1.44-1.11-2.86-1.7-4.2-.15-.33-.3-.66-.45-1l-.48-1a7.41,7.41,0,0,0-1.16-1.62,12.51,12.51,0,0,0-2.93-2.29,22.57,22.57,0,0,0-2.88-1.37c-.89-.35-1.69-.59-2.35-.78A21.54,21.54,0,0,0,79,49.46Z"/><path class="cls-16" d="M77.94,52s0,.15,0,.45,0,.73.1,1.27c.1,1.1.3,2.66.66,4.51.18.92.41,1.91.68,3s.63,2.12,1,3.21c.2.55.46,1.09.68,1.64s.54,1.08.81,1.63.62,1.05.95,1.57l.55.75.27.37.13.17.16.17.62.71.31.35c.11.12.22.21.33.33.45.41.86.85,1.35,1.23s.93.78,1.44,1.12,1,.7,1.47,1l.73.46c.24.15.49.28.74.42l.72.42.73.37.71.36.7.32c.46.22.9.43,1.34.6s.85.36,1.25.52.78.31,1.14.44c.72.27,1.35.49,1.87.66,1,.34,1.66.51,1.66.51s-.62-.1-1.69-.36c-.54-.14-1.19-.31-1.93-.53s-1.57-.48-2.46-.82c-.45-.16-.9-.34-1.38-.54l-.72-.3-.74-.34-.75-.35-.75-.4c-.25-.13-.52-.26-.76-.4L89.13,76c-.52-.29-1-.64-1.53-1a18.32,18.32,0,0,1-1.49-1.13,18.62,18.62,0,0,1-1.43-1.28c-.11-.11-.24-.22-.35-.34L84,71.88l-.63-.71L83.24,71l-.15-.21-.28-.4-.56-.78c-.33-.54-.65-1.1-1-1.64s-.57-1.12-.81-1.69-.47-1.13-.66-1.7a32.82,32.82,0,0,1-1.52-6.33,38.07,38.07,0,0,1-.37-4.57C77.9,52.59,77.94,52,77.94,52Z"/></g><path class="cls-20" d="M99.74,30.55c-3.62,2.58-4.86,10.13-10.45,16.55,0,0,1.9-4.32,1.86-12.25a16.92,16.92,0,0,0-4.94,5.69S88,33.39,91,29.95c0,0-6.2,4.74-9.48,11a32.33,32.33,0,0,1,3.39-8.34c-4.6,5.75-6.56,13.71-6.56,13.71l.51,3.59C96.76,52.74,92.66,36.38,100,30.41Z"/><path class="cls-34" d="M84.94,49.13c2.47-.59,3.93-4.25,3.93-4.25-.73,1.14-3.34,2-3.34,2,2.47-2.1,3-7.77,3-7.77-1.83,2.24-5.53,6.4-5.53,6.4,1.78-3.2,3.79-10.06,3.79-10.06-2.38,3.52-6.72,9.6-6.72,9.6.14-.73.5-3.34.5-3.34l-1.4,2.1c-.52,1.53-.76,2.51-.76,2.51l.51,3.59c4.68.73,7.85.15,10.12-1.21A11.31,11.31,0,0,1,84.94,49.13Z"/><path class="cls-20" d="M98.46,76.85C83.07,73.07,83.52,61,83.52,61c3.33,9.16,14,11.28,14,11.28C90.12,69,87.3,57,87.3,57c3,5.26,8.78,9.42,8.78,9.42-1.66-1.73-5.19-11.28-5.19-11.28a48.33,48.33,0,0,1,5.73,7.35,50.73,50.73,0,0,0-4-6.74,19.62,19.62,0,0,0-8.44-6c-5.51-2.31-9.23.51-9.23.51,3,4.84,2.56,12.85,8,20a17.58,17.58,0,0,0,2.32,2.45C92,78.08,98.46,76.85,98.46,76.85Z"/><path class="cls-20" d="M78.84,56.27a28.72,28.72,0,0,0,3.91,9.29c-2.63-7-.25-10.7-.25-10.7,1.86,6.67,4.93,8.27,4.93,8.27C85.12,59.8,84.09,52,84.09,52a26.5,26.5,0,0,1,6.15,5.26,29.35,29.35,0,0,1-2.05-4.55c1.09.55,2.4,1.23,3.17,1.63a21.47,21.47,0,0,0-7.21-4.58c-5.51-2.3-9.23.52-9.23.52,2,3.2,2.47,7.79,4.15,12.59C78.79,59.25,78.84,56.27,78.84,56.27Z"/><path class="cls-25" d="M92.17,37.31s0-.2,0-.54a10.46,10.46,0,0,1,.29-1.4c.07-.29.17-.59.29-.92s.23-.66.38-1,.3-.69.5-1c.09-.17.18-.34.28-.51l.31-.51c.2-.34.44-.66.66-1s.49-.6.73-.88a8.18,8.18,0,0,1,.74-.77c.12-.12.23-.24.35-.34l.36-.29c.23-.19.43-.36.63-.5l.52-.34.46-.28-.36.4-.42.44c-.16.17-.32.38-.52.59s-.4.45-.6.71-.43.52-.64.81-.43.58-.64.89-.43.61-.62.94l-.31.48-.28.49c-.19.32-.36.65-.54,1l-.47.92c-.14.3-.28.58-.4.84C92.44,36.57,92.17,37.31,92.17,37.31Z"/><path class="cls-24" d="M89.42,34.93a4.33,4.33,0,0,1,.12-.55c0-.17.11-.38.2-.62s.18-.5.31-.78a13,13,0,0,1,1-1.85c.22-.32.44-.65.69-1l.38-.48.41-.46c.27-.3.57-.59.87-.86a11.68,11.68,0,0,1,.91-.76,9.3,9.3,0,0,1,.92-.63l.44-.27.43-.22c.27-.14.53-.26.76-.35l.61-.22.54-.17s-.15.14-.42.37l-.49.4c-.19.16-.39.34-.62.53s-.47.4-.71.63-.52.45-.78.71-.54.51-.8.79-.55.54-.8.84-.52.57-.77.86-.49.58-.74.86c-.46.57-.9,1.1-1.25,1.58l-.87,1.15Z"/><path class="cls-25" d="M84.29,34.68s0-.13.16-.36A8.09,8.09,0,0,1,85,33.4c.12-.18.25-.37.4-.57a6.06,6.06,0,0,1,.48-.61c.18-.2.35-.42.54-.63s.41-.4.61-.6.42-.4.63-.58l.66-.51.62-.46c.19-.15.41-.25.59-.37a13.16,13.16,0,0,1,1.27-.67,14.31,14.31,0,0,1-1,1l-.5.46c-.17.17-.35.35-.54.53s-.39.37-.6.55l-.6.58-.61.57c-.19.2-.39.38-.58.56s-.38.35-.55.53-.33.32-.49.47c-.29.3-.56.54-.74.72Z"/><path class="cls-25" d="M93.9,59.48s.34.6.8,1.5l.78,1.53c.29.55.59,1.16.91,1.74.15.3.3.59.47.87s.32.57.48.83.32.52.47.76.31.45.45.66a5.66,5.66,0,0,0,.42.53l.18.23.17.17.32.34-.42-.22-.22-.12-.23-.18a3.91,3.91,0,0,1-.55-.45,7.06,7.06,0,0,1-.58-.61,7.33,7.33,0,0,1-.58-.73,8.25,8.25,0,0,1-.55-.83c-.18-.29-.35-.58-.51-.88s-.3-.62-.45-.92-.26-.61-.39-.9a17.12,17.12,0,0,1-.57-1.66A13.16,13.16,0,0,1,93.9,59.48Z"/><path class="cls-24" d="M89.93,61.92s.12.25.36.68.57,1,1,1.73c.11.17.23.35.35.53l.39.56c.28.37.6.74.92,1.12.17.18.35.37.53.54s.37.36.57.51c.38.33.86.64,1.31,1l2.66,1.86c.43.29.84.6,1.23.89s.75.57,1.08.85a11,11,0,0,1,.87.77,7.67,7.67,0,0,1,.63.64c.33.37.51.59.51.59s-.25-.15-.66-.42c-.2-.14-.46-.29-.75-.46l-1-.58c-.72-.42-1.57-.89-2.47-1.43l-1.39-.84c-.47-.3-1-.62-1.41-.94L94,69c-.22-.15-.47-.36-.68-.55a9.32,9.32,0,0,1-1.16-1.25,10.56,10.56,0,0,1-.86-1.31,11,11,0,0,1-.61-1.25,11.9,11.9,0,0,1-.65-2A6.4,6.4,0,0,1,89.93,61.92Z"/><path class="cls-25" d="M85.7,66.53l.12.2.38.52A20.6,20.6,0,0,0,87.67,69c.33.34.69.71,1.09,1.07.2.18.41.36.64.53l.34.26.36.25a10.67,10.67,0,0,0,1.53.91,15,15,0,0,0,1.73.7l1.79.67c.59.21,1.16.46,1.72.68s1.1.43,1.6.68l1.41.67a8.82,8.82,0,0,1,1.15.65l.87.53.74.48-.81-.34-.92-.4a11.35,11.35,0,0,0-1.2-.51l-1.44-.55c-.5-.21-1.06-.37-1.63-.57l-3.54-1.26-.9-.34c-.3-.14-.61-.25-.9-.41a9.66,9.66,0,0,1-1.61-1A8.5,8.5,0,0,1,89,71.1a7.64,7.64,0,0,1-.62-.6,12.9,12.9,0,0,1-1-1.19,13.91,13.91,0,0,1-1.26-2A8.56,8.56,0,0,1,85.7,66.53Z"/><path class="cls-35" d="M49.38,11.36c-2.71,1.45-4.71,1.45-7.58.15a5,5,0,0,0-4.73,0A25.64,25.64,0,0,0,40.92,7c.32-.45.64-.89,1-1.31h0C45.76.89,50.93-1.74,54,1.3a4.1,4.1,0,0,1,.6.75C56.63,5.36,51.89,10,49.38,11.36Z"/><path class="cls-15" d="M54.27,6.49a6.28,6.28,0,0,1-.49.62,13.87,13.87,0,0,1-1.46,1.46,13.67,13.67,0,0,1-1.09.86,13.82,13.82,0,0,1-1.3.84c-.24.14-.48.27-.73.38a7.47,7.47,0,0,1-.77.35c-.26.11-.53.21-.81.31l-.41.13-.42.11-.42.09-.44.06a6.23,6.23,0,0,1-.88,0,6.54,6.54,0,0,1-1.68-.29c-.52-.17-1-.36-1.45-.51a5.87,5.87,0,0,0-1.29-.28c-.21,0-.4,0-.59,0l-.54.06a8.38,8.38,0,0,0-.86.2l-.74.25.7-.36c.23-.08.51-.21.85-.3.17,0,.35-.1.55-.12a5.72,5.72,0,0,1,.63,0,5.26,5.26,0,0,1,1.41.2c.48.13,1,.29,1.47.43A6.54,6.54,0,0,0,45,11.2a5.72,5.72,0,0,0,.79-.05l.4-.05.41-.1.39-.1.4-.13a6,6,0,0,0,.78-.28,7.58,7.58,0,0,0,.75-.31c.25-.1.48-.22.71-.34.46-.25.9-.49,1.31-.75s.78-.51,1.12-.76A19.51,19.51,0,0,0,53.7,7C54.07,6.7,54.27,6.49,54.27,6.49Z"/><path class="cls-15" d="M54.59,2a2.35,2.35,0,0,0-.79-.37,3.82,3.82,0,0,0-1-.18c-.19,0-.39,0-.61,0a4.89,4.89,0,0,0-.67.08,6.58,6.58,0,0,0-.71.16L50.09,2l-.77.31-.78.38-.79.45-.78.5A17.79,17.79,0,0,0,45.4,4.66l-.76.56c-.26.18-.49.4-.73.6l-.71.59L42.52,7,41.24,8.18c-.4.38-.79.73-1.15,1s-.71.6-1,.84-.59.44-.81.61l-.74.5.66-.59c.21-.19.48-.4.75-.68s.59-.58.93-.92l1.08-1.11c.39-.39.78-.82,1.23-1.23L42.84,6c.23-.21.47-.42.71-.62s.48-.42.74-.62l.78-.59c.52-.4,1.07-.73,1.6-1.07.27-.17.52-.33.81-.49l.83-.43.83-.36L50,1.55c.27-.07.53-.15.79-.2s.52-.1.76-.11a4.86,4.86,0,0,1,1.34,0,4.05,4.05,0,0,1,1,.28,2.54,2.54,0,0,1,.57.33A1.18,1.18,0,0,1,54.59,2Z"/><path class="cls-15" d="M55,2.95l-.18.1c-.12.07-.3.18-.52.29l-.83.42c-.32.17-.69.31-1.09.49s-.85.36-1.33.53l-1.52.49-.8.25-.81.25-.79.29-.8.34-.79.36-.77.38-1.49.78-1.38.76-1.23.71-1.84,1.07c-.44.26-.7.4-.7.4l.64-.49c.42-.31,1-.76,1.72-1.25S42.08,8.05,43,7.49c.47-.28,1-.56,1.48-.83l.79-.4.8-.38.82-.34.84-.3,1.63-.46,1.52-.42c.48-.14.92-.3,1.34-.44s.81-.25,1.14-.37l.87-.32L54.81,3Z"/><path class="cls-15" d="M55.12,4.37,55,4.52c-.09.1-.2.25-.37.43s-.37.39-.63.6a8.29,8.29,0,0,1-.88.72l-.53.38c-.19.13-.4.23-.6.36l-.64.37-.71.32c-.24.1-.48.22-.74.32l-.79.24-.8.23-.81.19L45.91,9l-1.56.3-1.46.28c-.45.11-.89.18-1.29.28s-.76.18-1.08.27-.61.16-.83.25l-.72.24.67-.34c.22-.12.49-.22.8-.35a10.84,10.84,0,0,1,1.07-.38c.4-.14.83-.26,1.28-.38s.95-.25,1.45-.36c1-.24,2.08-.46,3.15-.71l.81-.18c.26-.06.52-.14.77-.21l.76-.22c.25-.08.49-.19.72-.28L51.14,7l.64-.32c.21-.1.42-.2.61-.31L52.93,6c.36-.2.66-.43.93-.61a7.87,7.87,0,0,0,.69-.53C54.92,4.56,55.12,4.37,55.12,4.37Z"/><path class="cls-28" d="M47.16,9.33l1.13-.45,1.14-.45c.2-.07.41-.18.62-.26l.64-.28.62-.29c.2-.11.42-.19.6-.31s.38-.2.55-.31.34-.2.49-.3a3.64,3.64,0,0,1,.41-.27l.3-.23L53.93,6s-.05.11-.16.3-.12.21-.21.33-.2.26-.32.4a4.08,4.08,0,0,1-.43.42,4.28,4.28,0,0,1-.52.42c-.19.14-.4.26-.6.4s-.44.22-.66.33a8,8,0,0,1-1.38.48,8,8,0,0,1-1.24.23A5.75,5.75,0,0,1,47.16,9.33Z"/><path class="cls-25" d="M45,7.47s.59-.27,1.48-.61L48,6.27l.85-.33.88-.34c.59-.21,1.17-.46,1.72-.68l.78-.33.7-.31L53.55,4c.18-.08.32-.16.45-.23l.39-.2s-.1.12-.3.32a3.45,3.45,0,0,1-.38.36c-.15.13-.32.28-.52.42s-.42.3-.65.45-.49.29-.76.43-.55.29-.84.41L50,6.32a18.56,18.56,0,0,1-1.81.59c-.29.08-.57.14-.84.21s-.53.11-.76.16A11,11,0,0,1,45,7.47Z"/><path class="cls-36" d="M53.92,2.46s-.65.12-1.6.35L51.56,3l-.83.24-.44.14-.44.15c-.31.1-.6.22-.9.33s-.6.24-.89.35l-.85.38L46.43,5c-.26.12-.48.25-.7.36l-.59.31-.45.25-.4.21a4.23,4.23,0,0,1,.31-.33L45,5.4c.14-.14.33-.28.52-.44a6.49,6.49,0,0,1,.65-.48c.24-.16.49-.34.76-.49s.55-.31.85-.45.6-.29.92-.4.63-.23,1-.31a7.94,7.94,0,0,1,.94-.23,8.72,8.72,0,0,1,.9-.16c.29,0,.55-.06.8-.07A6.61,6.61,0,0,1,53.92,2.46Z"/><path class="cls-22" d="M54.62,2.05C50.88-.38,43.7,4.42,41.9,5.7,45.76.89,50.93-1.74,54,1.3A4.1,4.1,0,0,1,54.62,2.05Z"/><path class="cls-20" d="M45,6.54c-3.51,1.78-1.54-.81-1.54-.81-2.38,2.22-2.35,1.37-2.23.9L41,7a26.07,26.07,0,0,1-3.86,4.47,5,5,0,0,1,4.73,0c2.87,1.3,4.87,1.29,7.58-.15,1.9-1,5.07-3.92,5.63-6.72C52.69,6.91,48.41,8,48.41,8,42,9.27,45,6.54,45,6.54Z"/><path class="cls-37" d="M23.17,17.11s9.2-9,21.89-8.33,35.76,10.38,36,40.76c0,0-1,37.43-34.87,39.23,0,0-5,.74-17.37-4.45,0,0-2.4,1.82-9-4.62S9.62,70,10.87,66.14,12.21,45.28,3.27,39c0,0,5.78,1.28,9.71-9.42C17.88,16.25,23.17,17.11,23.17,17.11Z"/><path class="cls-38" d="M30.41,16.22A26,26,0,0,1,41.09,9a28.48,28.48,0,0,0-7,1.8A26.78,26.78,0,0,0,25,20.16C18.9,30.79,14.85,39.68,8.95,44.83a29.92,29.92,0,0,1,2.8,8.93C24.58,44.44,20.53,27.47,30.41,16.22Z"/><path class="cls-39" d="M11.6,54.09l0-.31a29.87,29.87,0,0,0-2.78-8.87l-.07-.13.11-.1c4.59-4,8.13-10.42,12.25-17.88,1.18-2.16,2.42-4.4,3.76-6.74A27.07,27.07,0,0,1,34,10.65a28.7,28.7,0,0,1,7.09-1.84l1.64-.19-1.54.57a25.8,25.8,0,0,0-10.6,7.15c-4.41,5-6.05,11.29-7.64,17.36C21,41.1,19,48.74,11.86,53.91ZM9.19,44.87a29.77,29.77,0,0,1,2.69,8.54c6.8-5.08,8.68-12.24,10.66-19.81,1.6-6.11,3.25-12.42,7.73-17.51a25.8,25.8,0,0,1,9.2-6.64A28.54,28.54,0,0,0,34.15,11a26.64,26.64,0,0,0-9,9.26c-1.34,2.33-2.57,4.56-3.77,6.73C17.31,34.41,13.77,40.83,9.19,44.87Z"/><path class="cls-40" d="M58.64,73.26c-15-1.46-21.53-8.61-22.1-9.27L36.3,64,15.75,75.52c1.07,1.11,2.31,2.34,3.71,3.71,7.69-5.18,20.74-3.47,20.74-3.47C54.9,82.69,67,77.51,74.92,71.45c.72-1.32,1.36-2.65,1.92-4A24,24,0,0,1,58.64,73.26Z"/><path class="cls-39" d="M19.44,79.48l-.11-.11c-1.52-1.49-2.68-2.64-3.72-3.71l-.17-.18L36.25,63.86l.36-.09.07.09c.68.79,7.09,7.76,22,9.2a23.75,23.75,0,0,0,18.06-5.73l.61-.51-.31.73c-.59,1.38-1.24,2.72-1.93,4l0,.06c-6.65,5.08-13.65,7.67-20.83,7.67A32.91,32.91,0,0,1,40.15,76a43.08,43.08,0,0,0-5-.27c-4.6,0-11,.65-15.59,3.71Zm-3.38-3.91c1,1,2,2.06,3.43,3.42,4.62-3,11.06-3.69,15.67-3.69a43.23,43.23,0,0,1,5.06.27h.06a32.53,32.53,0,0,0,13.93,3.29c7.08,0,14-2.54,20.57-7.57.55-1,1.08-2.08,1.57-3.18a24,24,0,0,1-15.22,5.45,24.83,24.83,0,0,1-2.5-.12C44,72,37.48,65.33,36.47,64.21l-.1,0Z"/><path class="cls-41" d="M80.4,54.29C75,57.37,66.34,60.58,50.24,56.21L23,63.3a86,86,0,0,1-11.75,4.44,5,5,0,0,0,.28,2L36.3,64l.19-.11.05.05,12.4-2.84c16,4.33,25.51-.65,31-3.73.24-1.16.42-2.23.56-3.18Z"/><path class="cls-39" d="M11.42,69.95l-.06-.16a5.29,5.29,0,0,1-.29-2.05v-.14l.13,0a86,86,0,0,0,11.73-4.43L50.25,56l.05,0a55.6,55.6,0,0,0,14.3,2.12,30.52,30.52,0,0,0,15.71-4l.42-.24-.06.39c-.15,1.05-.34,2.12-.56,3.19l0,.08-.08,0A36.85,36.85,0,0,1,60.91,63a46.13,46.13,0,0,1-12-1.69L36.47,64.21l0,0-.11.05Zm0-2.06a4.84,4.84,0,0,0,.22,1.61l24.56-5.63.32-.17.07.08,12.33-2.83,0,0a45.74,45.74,0,0,0,11.91,1.69A36.42,36.42,0,0,0,79.75,57.3c.18-.9.34-1.8.48-2.69A30.92,30.92,0,0,1,64.6,58.54a56,56,0,0,1-14.36-2.12L23.07,63.48A85.94,85.94,0,0,1,11.45,67.89Z"/><path class="cls-42" d="M80.83,47.24c0-.79-.1-1.56-.18-2.33l-.05.18A47.08,47.08,0,0,1,51.22,42.4S30.32,59.87,14.46,65.52L23,63.3a263.63,263.63,0,0,0,28.3-15.42C69.86,53,80.06,47.66,80.83,47.24Z"/><path class="cls-39" d="M14.51,65.71l-.11-.37c8.17-2.91,17.71-9,24.28-13.65,7.12-5,12.37-9.39,12.43-9.43l.09-.08.11,0A47.44,47.44,0,0,0,70.24,46.1a41.84,41.84,0,0,0,10.2-1.16l.3-1,.09,1c.08.82.14,1.58.18,2.33v.12l-.11.06c-.53.29-5.46,2.86-14.4,2.86h0a57.78,57.78,0,0,1-15.16-2.17A267.51,267.51,0,0,1,23.09,63.48ZM51.26,42.63c-.73.6-5.73,4.71-12.35,9.37C33.1,56.08,25,61.34,17.51,64.53L23,63.11A267.11,267.11,0,0,0,51.22,47.72l.07,0,.08,0a57.68,57.68,0,0,0,15.15,2.18c8.42,0,13.21-2.28,14.11-2.75,0-.59-.08-1.18-.13-1.81a42,42,0,0,1-10.25,1.17A47.9,47.9,0,0,1,51.26,42.63Z"/><path class="cls-43" d="M28.7,40.29s10.24-20.37,25-22c9.47-1.06,16.58,3.82,20.68,7.78a35.94,35.94,0,0,0-3.55-4.61,26.3,26.3,0,0,0-20.75-6.06C34.81,17.45,27.56,38,27.56,38S21.2,52,11.91,56.85c.09,1,.14,1.89.17,2.78C21.9,55.24,28.7,40.29,28.7,40.29Z"/><path class="cls-39" d="M11.9,59.92v-.28c0-.92-.09-1.85-.17-2.77l0-.13.11-.06C21,51.87,27.32,38,27.39,37.9S34.84,17.25,50.06,15.2a28.23,28.23,0,0,1,3.76-.26A26.75,26.75,0,0,1,71,21.29a36.17,36.17,0,0,1,3.59,4.65l.91,1.41-1.2-1.17c-3.73-3.59-9.86-7.87-17.94-7.87a22.84,22.84,0,0,0-2.59.14c-7.56.84-13.91,6.74-17.91,11.56a61.87,61.87,0,0,0-6.94,10.35c-.07.15-6.95,15.07-16.72,19.43Zm.21-3c.07.78.13,1.58.15,2.37,9.51-4.45,16.2-19,16.27-19.12S39,19.72,53.67,18.08a23.72,23.72,0,0,1,2.64-.15c7.37,0,13.14,3.49,17,6.85a36.27,36.27,0,0,0-2.59-3.21,26.36,26.36,0,0,0-16.87-6.24,29,29,0,0,0-3.71.25c-15,2-22.3,22.27-22.37,22.47S21.3,52,12.11,57Z"/><path class="cls-44" d="M35.45,81.83l-12,1c4.19,3.1,5.78,1.88,5.78,1.88,12.26,5.19,17.18,4.45,17.18,4.45,11.49-.62,19.15-5.43,24.26-11.5C49.15,92.07,35.45,81.83,35.45,81.83Z"/><path class="cls-45" d="M36.59,41.92c7.79-16.44,27.75-10.1,32.6-8.46a35,35,0,0,1,10.45,5.21q-.38-1.63-.85-3.15c-.13-.14-.26-.27-.38-.42C75.08,31,58,22.79,47.33,27.41,37.33,31.74,28,55.85,12.08,61.7c0,.62,0,1.21-.09,1.75C18.63,60.5,31,53.66,36.59,41.92Z"/><path class="cls-39" d="M11.78,63.75l0-.32c0-.55.07-1.14.08-1.73v-.13l.12,0C21,58.23,27.87,49.06,34,41c4.78-6.35,8.92-11.84,13.3-13.75a18.56,18.56,0,0,1,7.42-1.39c9.43,0,21,5.54,23.88,9.13a5.47,5.47,0,0,0,.36.41l0,0v0c.32,1,.61,2.1.86,3.17l.12.53-.43-.33a35,35,0,0,0-10.39-5.18A44.79,44.79,0,0,0,55.2,31.08c-8.8,0-15,3.67-18.44,10.92C31.2,53.73,18.91,60.58,12.07,63.62Zm.5-1.92c0,.44,0,.88-.07,1.3,6.84-3.08,18.77-9.85,24.2-21.3,3.5-7.39,9.82-11.14,18.78-11.14a44.91,44.91,0,0,1,14.05,2.58,36,36,0,0,1,10.08,4.91c-.21-.87-.45-1.73-.71-2.57a4.55,4.55,0,0,1-.36-.4c-2.49-3.08-13.6-9-23.58-9a18.37,18.37,0,0,0-7.27,1.35C43.12,29.44,39,34.89,34.27,41.21,28.18,49.3,21.28,58.46,12.28,61.84Z"/><path class="cls-46" d="M50.44,53.65C43,72.88,24.42,66.21,26,51S19,36.4,16.58,38.2s-7.71,2.68-10.11.1a5.32,5.32,0,0,1-3.2.61A15.81,15.81,0,0,1,8.18,44.8L7.92,45a29.78,29.78,0,0,1,2.83,8.93l.21-.16c.15,1,.27,1.9.35,2.82l-.19.11c.09,1,.15,1.89.17,2.78l.18-.08c0,.74,0,1.43,0,2.09l-.16.06c0,.62,0,1.2-.09,1.75l.14-.07A13.55,13.55,0,0,1,10.87,66a4.9,4.9,0,0,0-.25,1.55l-.16,0a5.08,5.08,0,0,0,.28,2l.29-.06c.68,1.68,2.16,3.47,4.32,5.67,0,0,3.64,3.77,3.75,3.7l.7.68a28.91,28.91,0,0,0,3.66,3.07,7.86,7.86,0,0,0,2.47,1.51,11.47,11.47,0,0,0,2.74.42C41.08,89.77,46,89,46,89c11.63-.61,19.38-5.44,24.55-11.5l-.4.25a37.07,37.07,0,0,0,4.58-6.41l.09-.07c.65-1.18,1.22-2.37,1.74-3.55A54.17,54.17,0,0,0,81,50.3C64.38,73.31,50.44,53.65,50.44,53.65Z"/><path class="cls-47" d="M40.17,59.63c-.34,2.15,3.14,13,10.38,17.3s15.48.85,14.34-6-8.37-8.7-15.42-7.85A11.44,11.44,0,0,1,40.17,59.63Z"/><path class="cls-15" d="M40.17,59.63s.24.35.72.92A18.35,18.35,0,0,0,43,62.73a9.39,9.39,0,0,0,.76.62c.27.21.56.41.85.61a12.39,12.39,0,0,0,2,1.06c.18.07.35.16.54.22l.56.18.14,0,.06,0H48l.31.08.59.13c.81.15,1.64.25,2.48.33s1.68.15,2.52.21,1.66.13,2.46.2a28.16,28.16,0,0,1,4.34.68,10.89,10.89,0,0,1,1.68.56,7.1,7.1,0,0,1,1.19.66,4,4,0,0,1,.66.57l.21.23-.24-.2a5.11,5.11,0,0,0-.71-.47,6.84,6.84,0,0,0-1.22-.52,15.25,15.25,0,0,0-1.67-.4,36.7,36.7,0,0,0-4.3-.43L53.85,67c-.84-.05-1.69-.11-2.55-.19a24.41,24.41,0,0,1-2.55-.37l-.63-.14-.3-.08-.08,0-.08,0-.15-.05-.6-.21c-.19-.08-.38-.17-.56-.25a10.59,10.59,0,0,1-2-1.2,13.16,13.16,0,0,1-1.59-1.37,12.61,12.61,0,0,1-1.17-1.32c-.33-.41-.59-.78-.8-1.09s-.36-.56-.45-.74Z"/><path class="cls-16" d="M64.88,71H63.66c-.78,0-1.88,0-3.22-.05l-2.15-.05c-.76,0-1.56,0-2.4-.08A30.35,30.35,0,0,1,50.71,70a17.46,17.46,0,0,1-4.86-1.95,10.35,10.35,0,0,1-3.33-3.14,8.76,8.76,0,0,1-.49-.83c-.13-.28-.27-.53-.36-.79A9,9,0,0,1,41.23,62a7.58,7.58,0,0,1-.17-.88c0-.21,0-.32,0-.32s0,.11.07.31,0,.23.08.37l.14.5a8.64,8.64,0,0,0,.49,1.3,9.49,9.49,0,0,0,.9,1.56,10,10,0,0,0,1.41,1.58A12.52,12.52,0,0,0,46,67.8a17.31,17.31,0,0,0,4.79,1.86,29.56,29.56,0,0,0,5.11.78l4.53.25c1.33.07,2.43.15,3.21.2Z"/><path class="cls-17" d="M64.43,74.84l-.32,0-.92,0-1.43,0c-.55,0-1.18,0-1.86,0l-1.06-.05-1.13-.1-1.2-.12-1.24-.19c-.84-.14-1.71-.31-2.58-.55-.43-.11-.86-.26-1.3-.39s-.86-.33-1.29-.49-.84-.39-1.25-.63l-1.15-.69-.57-.35-.54-.4c-.36-.26-.72-.52-1.06-.78a15.29,15.29,0,0,1-1.78-1.73,7.75,7.75,0,0,1-.73-.88l-.61-.88c-.19-.29-.33-.59-.48-.86s-.29-.53-.39-.79c-.21-.52-.41-1-.54-1.33-.26-.75-.39-1.18-.39-1.18s.2.41.53,1.12c.16.36.41.78.66,1.26a7.08,7.08,0,0,0,.46.74c.17.25.32.53.52.8a15.15,15.15,0,0,0,1.4,1.63,18.22,18.22,0,0,0,1.78,1.58c.33.25.68.48,1,.72l.53.36.56.34,1.16.68c.37.21.78.38,1.17.57l1.23.49c.42.12.84.27,1.26.38s.84.23,1.26.33.83.19,1.24.27c.83.16,1.62.3,2.38.41s1.49.2,2.16.27c1.34.14,2.47.24,3.26.29Z"/><path class="cls-17" d="M62.16,77.37l-.23,0c-.15,0-.36.08-.64.11s-.62.08-1,.1-.83.06-1.31,0l-.75,0c-.26,0-.53,0-.8-.06-.55-.08-1.14-.12-1.73-.24l-1.83-.41L52,76.34l-.46-.15L51.11,76l-.45-.18-.44-.21c-.29-.14-.57-.29-.84-.45s-.53-.32-.79-.49a14.47,14.47,0,0,1-1.41-1c-.43-.36-.81-.71-1.16-1a18.49,18.49,0,0,1-1.55-1.75c-.34-.44-.52-.72-.52-.72s.2.25.57.67a21.31,21.31,0,0,0,1.64,1.64,19.7,19.7,0,0,0,2.59,2c.26.16.51.32.78.47s.54.3.82.42l.42.21.44.18.44.18.45.14,1.81.59,1.79.42c.59.13,1.16.19,1.7.29a5.17,5.17,0,0,0,.79.09l.75.07a6.4,6.4,0,0,0,.69,0l.62,0c.39,0,.73,0,1,0l.65-.05Z"/><g class="cls-18"><path class="cls-19" d="M40.17,59.54s.26.33.77.87a18.79,18.79,0,0,0,2.25,2,14.76,14.76,0,0,0,3.67,2.1c.36.14.73.25,1.11.36l.59.14.59.12c.8.15,1.63.25,2.46.34s1.67.17,2.5.25,1.64.16,2.44.26a25.75,25.75,0,0,1,4.28.84,10.11,10.11,0,0,1,1.64.65,7,7,0,0,1,1.15.71,4.21,4.21,0,0,1,.63.6l.19.23-.22-.2a4.85,4.85,0,0,0-.69-.5,6.3,6.3,0,0,0-1.19-.57,13.81,13.81,0,0,0-1.63-.48,33.08,33.08,0,0,0-4.24-.58L54,66.5c-.83-.07-1.67-.14-2.52-.22s-1.69-.21-2.53-.38l-.62-.14-.61-.16a12.29,12.29,0,0,1-1.17-.43,12.16,12.16,0,0,1-2.05-1.11,14.87,14.87,0,0,1-1.64-1.27,16.93,16.93,0,0,1-2.09-2.28A9.41,9.41,0,0,1,40.17,59.54Z"/><path class="cls-19" d="M64.88,70.88s-.44,0-1.22,0c-.39,0-.86,0-1.4,0H60.45l-2.14,0c-.76,0-1.55,0-2.39-.06s-1.7-.1-2.58-.21-1.76-.26-2.64-.47a20.51,20.51,0,0,1-2.58-.78,14.91,14.91,0,0,1-2.35-1.14,11.19,11.19,0,0,1-2-1.49,9.25,9.25,0,0,1-1.39-1.7,9,9,0,0,1-.49-.84c-.12-.28-.25-.55-.34-.81a9.74,9.74,0,0,1-.4-1.35,7.86,7.86,0,0,1-.15-.89c0-.21,0-.32,0-.32s0,.11.08.31.06.22.09.37l.16.49a9.47,9.47,0,0,0,.52,1.28,10.22,10.22,0,0,0,.93,1.51,10,10,0,0,0,1.41,1.53,12.47,12.47,0,0,0,1.91,1.33,15.91,15.91,0,0,0,2.27,1,20.2,20.2,0,0,0,2.49.73,26.07,26.07,0,0,0,2.57.48c.85.11,1.7.21,2.52.27l2.39.16,2.14.17,1.8.17c.54.06,1,.08,1.39.15Z"/><path class="cls-19" d="M64.44,74.75h-.32c-.21,0-.52,0-.91,0s-.86,0-1.42,0-1.16,0-1.83-.09l-1-.09-1.12-.12-1.18-.16-1.22-.21c-.83-.17-1.68-.36-2.54-.61-.42-.12-.85-.27-1.28-.41s-.85-.33-1.27-.5-.82-.39-1.23-.62l-1.15-.67-.56-.33-.54-.38-1.07-.74a17.52,17.52,0,0,1-1.84-1.63l-.4-.42a3.37,3.37,0,0,1-.37-.42l-.64-.85c-.2-.27-.36-.56-.52-.83a7.52,7.52,0,0,1-.42-.77c-.22-.5-.44-.93-.57-1.3-.26-.74-.39-1.17-.39-1.17s.2.4.53,1.1c.16.36.42.76.68,1.22a5.87,5.87,0,0,0,.48.71c.18.24.34.52.56.76l.68.77.18.2.2.19.41.38.42.39a5.66,5.66,0,0,0,.46.36l1,.74,1.05.69.53.35.57.33,1.15.66c.37.2.77.38,1.16.57l1.21.49,1.25.42c.41.11.82.24,1.24.35l1.22.3c.81.18,1.6.34,2.35.47s1.46.25,2.13.34c1.32.18,2.43.33,3.21.4Z"/><path class="cls-19" d="M61.95,77.41s-.31.05-.87.09a18.44,18.44,0,0,1-2.29,0c-.47,0-1-.08-1.53-.16l-.83-.12L55.56,77c-.58-.13-1.18-.25-1.78-.42s-1.21-.36-1.82-.55l-.9-.32-.87-.36L49.33,75l-.8-.46c-.25-.16-.5-.32-.74-.49s-.47-.34-.68-.51a13.37,13.37,0,0,1-1.16-1,11.32,11.32,0,0,1-.89-1c-.26-.29-.45-.56-.62-.79A8.11,8.11,0,0,1,44,70a17.38,17.38,0,0,0,2.27,2.14c.36.29.77.59,1.2.89l.69.44.73.43.78.4.81.37.86.34.89.3c.59.19,1.18.4,1.77.56s1.17.33,1.73.48l1.64.38,1.48.28c.93.16,1.71.26,2.25.31S61.95,77.41,61.95,77.41Z"/></g><path class="cls-20" d="M48.44,66s-5.82-.65-.8,2.81c0,0-1.58,1.49,1.49,3.49,0,0-2,2,3.54,4.14,0,0-1.36.29-.64,1.28A13.54,13.54,0,0,1,50.55,77c-7.24-4.25-10.72-15.14-10.38-17.29A11.92,11.92,0,0,0,45.93,63C45.57,64,45.92,65.2,48.44,66Z"/><path class="cls-21" d="M44.63,64.26s-2.85-1.61-2,.81c0,0-1.46-.07.86,2.75a1,1,0,0,0-.67.31c-1.94-3.75-2.83-7.32-2.65-8.46a11.64,11.64,0,0,0,2.65,2.06A4.37,4.37,0,0,0,44.63,64.26Z"/><path class="cls-22" d="M50.84,64.57c-6.46,0-9.28-3.63-9.48-3.9a11,11,0,0,0,8.13,2.44c7.06-.85,14.29,1,15.43,7.85a6.19,6.19,0,0,1-1.37,5.26C66.54,66.73,56.77,64.57,50.84,64.57Z"/><g class="cls-23"><path class="cls-24" d="M48.12,70.21l.17.07c.11.05.28.1.48.18l.33.12.41.13c.29.09.6.2,1,.3s.75.19,1.14.32l.31.08.32.07.65.15c.45.09.9.23,1.37.31l1.43.27c.48.1,1,.21,1.43.26l1.4.21,1.31.23c.42,0,.81.09,1.18.15.73.09,1.35.2,1.78.28l.68.14s-.24,0-.68.09-1.06.11-1.81.15c-.38,0-.78.05-1.22.06l-1.35-.06L57,73.57a11.91,11.91,0,0,1-1.49-.23L54,73a5.62,5.62,0,0,1-.71-.2l-.69-.23-.66-.22-.32-.12-.3-.14-1.11-.51c-.34-.16-.63-.36-.9-.52l-.36-.23-.29-.22A4.42,4.42,0,0,1,48.12,70.21Z"/><path class="cls-25" d="M49.38,73.51l.14,0,.39.12.6.18.78.23.91.24c.31.11.67.17,1,.26l1.09.29,1.13.26c.38.09.75.21,1.13.27l1.1.24,1,.26.93.2c.58.13,1.06.26,1.4.36s.53.18.53.18l-.55.06c-.34,0-.85.06-1.45.07h-1l-1.09-.11-1.15-.16a9.68,9.68,0,0,1-1.18-.24L54,76c-.38-.11-.74-.26-1.1-.39a10.2,10.2,0,0,1-1-.42L51,74.69c-.27-.14-.5-.31-.71-.44a4.87,4.87,0,0,1-.52-.38A3.73,3.73,0,0,1,49.38,73.51Z"/><path class="cls-13" d="M46.18,66.86l.18.05.51.12.8.19,1,.23c.38.07.8.15,1.22.25s.89.17,1.36.25,1,.17,1.45.28l1.51.21c.51.08,1,.18,1.51.24l1.47.18c.48.06.93.14,1.37.21l1.24.14c.77.09,1.41.19,1.87.27l.71.13-.71.1c-.45.05-1.11.12-1.89.17-.39,0-.82.06-1.27.06s-.92,0-1.41-.06l-1.51-.08c-.52,0-1-.14-1.55-.21s-1-.17-1.54-.27l-1.47-.38-.7-.19c-.23-.06-.44-.15-.66-.22-.43-.15-.82-.3-1.19-.45s-.69-.31-1-.45a6.91,6.91,0,0,1-.73-.38A5.94,5.94,0,0,1,46.18,66.86Z"/></g><path class="cls-37" d="M50.52,53.75C48,68.45,39.86,82.48,28.84,84.32a1.49,1.49,0,0,1-.76.22,4.41,4.41,0,0,1-2-.35,11.13,11.13,0,0,1-1.63-.8l0,0A25.39,25.39,0,0,1,19.8,79.7C15.16,75.19,12,72.23,11,69.54a5.13,5.13,0,0,1-.37-2,5.25,5.25,0,0,1,.25-1.43,19,19,0,0,0,.58-4.63c0-.2,0-.41,0-.62,0-.36,0-.74,0-1.12,0-.12,0-.24,0-.35,0-.89-.07-1.83-.16-2.8s-.2-1.85-.35-2.81a29.73,29.73,0,0,0-2.8-9A15.74,15.74,0,0,0,3.28,39l.21,0h0a6.24,6.24,0,0,0,3.21-.53c2.09-.91,4.65-3.22,6.26-8.93,3.6-12.78,10.2-12.5,10.2-12.5s17.27-5.76,25.35,12.44C51.51,36.28,52,45.13,50.52,53.75Z"/><path class="cls-46" d="M50.52,53.75C48,68.45,39.86,82.48,28.84,84.32a1.49,1.49,0,0,1-.76.22,10.66,10.66,0,0,1-2-.35l-.12,0a6.06,6.06,0,0,1-1.51-.77l0,0a9.45,9.45,0,0,1-.93-.72,29.14,29.14,0,0,1-3.66-3.07c-.23-.24-.47-.46-.7-.68-.11.07-3.75-3.7-3.75-3.7-2.16-2.2-3.64-4-4.32-5.67h0l-.24.05a4.94,4.94,0,0,1-.28-2l.16,0A4.82,4.82,0,0,1,10.87,66a14,14,0,0,0,.47-2.76l-.14.07c0-.55.07-1.12.09-1.75l.16-.06c0-.2,0-.41,0-.62,0-.36,0-.74,0-1.12,0-.12,0-.24,0-.35h0l-.17.08c0-.89-.08-1.81-.17-2.77l.18-.11h0c-.08-.92-.19-1.86-.34-2.82l0,0-.18.14A29.77,29.77,0,0,0,7.92,45l.22-.18,0,0A16,16,0,0,0,3.5,39.07h0l-.22-.16a5.3,5.3,0,0,0,3.19-.6l.25.24c2.5,2.27,7.55,1.35,9.86-.35S27.5,35.7,26,51,43,72.88,50.44,53.65Z"/><path class="cls-30" d="M6.2,67.64l.15,0,.35.08c.13,0,.28.07.44.12l.24.07a1.45,1.45,0,0,0,.24.08l.47.18a4.46,4.46,0,0,1,.42.19,2.62,2.62,0,0,1,.44.25l-.13.07a2.14,2.14,0,0,1-.36.12,2,2,0,0,1-.52,0,2.06,2.06,0,0,1-.58-.12l-.27-.12a1.1,1.1,0,0,1-.25-.15,1.45,1.45,0,0,1-.22-.18,1.84,1.84,0,0,1-.17-.18,1.5,1.5,0,0,1-.19-.32A.9.9,0,0,1,6.2,67.64Z"/><path class="cls-48" d="M75,70.31A21.34,21.34,0,0,1,69.36,75C53.94,83.64,42,74.81,42,74.81,31.87,87.06,20.7,72.58,23.45,61.13c3.08-12.83-.58-19.19-2.12-21C19,37.53,16.95,41.49,8.26,45.12l0,.05L8,45.39a29.83,29.83,0,0,1,2.83,8.93l.21-.15c.15,1,.27,1.9.34,2.82l-.19.11c.09,1,.15,1.9.18,2.78l.17-.08c0,.74,0,1.44,0,2.1l-.16.05c0,.62,0,1.21-.09,1.75l.14-.07A13,13,0,0,1,11,66.39a4.71,4.71,0,0,0-.24,1.55l-.16,0a5,5,0,0,0,.28,2l.29-.07c.68,1.67,2.16,3.46,4.32,5.67,0,0,3.63,3.76,3.75,3.69l.71.68A29.13,29.13,0,0,0,23.57,83,7.79,7.79,0,0,0,26,84.53a11.44,11.44,0,0,0,2.75.43c12.4,5.19,17.37,4.45,17.37,4.45C57.78,88.79,65.53,84,70.7,77.91l-.4.26a37,37,0,0,0,4.58-6.41L75,71.7c.54-1,1-2,1.48-2.95C76,69.29,75.49,69.81,75,70.31Z"/><path class="cls-49" d="M9.68,40.23c2.52.63,5.6-.35,7.28-1.26s6.79-.56,6.72,9.87-7.11,19-12.93,20.89S1.42,64.79,5.2,60.45,6.74,48.7,2.61,44.71s-.77-9.8,3.71-6.44A14.82,14.82,0,0,0,9.68,40.23Z"/><path class="cls-50" d="M8.68,66.77a8.85,8.85,0,0,0,3.38-1.32,12.27,12.27,0,0,0,4.26-4.81,17.52,17.52,0,0,0,1.54-8c0-1.61,0-3.22-.1-4.83a3.67,3.67,0,0,0-.07-.82,3.89,3.89,0,0,1-1.2-1,5.58,5.58,0,0,1-4.6,2.17,10.47,10.47,0,0,1-6.34-2.49c-1.49-.79-4-2.83-4.59-4.21a6,6,0,0,0,1.78,3.13c4.13,4,6.37,11.4,2.59,15.75a6.24,6.24,0,0,0-1.44,2.84C3.06,66.48,7.15,67,8.68,66.77Z"/><path class="cls-51" d="M17.39,47.56s.49,9.49-5.27,14.16-4.44-.66-3.67-5.1-1.82-9.44-1.82-9.44,2.65,2.41,5.56,2.58A8,8,0,0,0,17.39,47.56Z"/><path class="cls-52" d="M6.31,61.72c-1.22,3.78,4.42,6.13,9.46-2.11,2.34-3.82,1.68-12,1.68-12a8,8,0,0,1-4.78,1.75l-.44,0a6.79,6.79,0,0,1-3.17-.9,12.31,12.31,0,0,1-3.5-2.79h0l-.2-.11h0a14.13,14.13,0,0,1-2.53-1.89A7.2,7.2,0,0,1,1,41.51a6,6,0,0,0,1.78,3.14,15.34,15.34,0,0,1,4.45,8.9.73.73,0,0,0,0,.08C7.63,56.66,7.53,57.94,6.31,61.72Z"/><path class="cls-30" d="M2.37,42.82a3.08,3.08,0,0,1-.86-2.47A2.4,2.4,0,0,1,2.11,39a2.51,2.51,0,0,1,1.31-.74,3,3,0,0,1,1.51.06,5.59,5.59,0,0,1,1.29.6c.78.47,1.46.94,2.17,1.37a10.15,10.15,0,0,0,2.15,1,4.72,4.72,0,0,0,2.13.19,6.5,6.5,0,0,0,2-.88A13.15,13.15,0,0,1,15.91,40l.15-.06.2-.08a3.77,3.77,0,0,1,.38-.13,5.19,5.19,0,0,1,.8-.17,4.06,4.06,0,0,1,1.74.13,4.23,4.23,0,0,1,1.51.87,6.47,6.47,0,0,1,1.68,2.58,11.32,11.32,0,0,1,.43,1.37l.07.34.07.34.11.63c.15.91.25,1.79.32,2.68a23.86,23.86,0,0,1,0,2.69,19.82,19.82,0,0,1-.32,2.7,18.1,18.1,0,0,1-.71,2.64A16.2,16.2,0,0,1,21.2,59l0-.06c-.16.32-.31.59-.47.88s-.33.56-.5.83c-.34.55-.7,1.08-1.08,1.6s-.78,1-1.2,1.51-.87,1-1.34,1.4c-.23.23-.48.43-.72.64s-.5.41-.76.6-.52.38-.79.56l-.41.26-.43.23c-.29.14-.57.29-.87.41a8.85,8.85,0,0,1-.91.33,8.13,8.13,0,0,1-.93.21,7.61,7.61,0,0,1-.94.11c.3-.09.6-.17.89-.29s.57-.24.85-.37a8.63,8.63,0,0,0,.8-.45c.26-.16.51-.34.76-.51s.48-.37.72-.57.45-.4.67-.62.43-.43.63-.65.41-.45.59-.69c.39-.47.76-1,1.11-1.45s.68-1,1-1.53.61-1,.9-1.58l.4-.81c.13-.27.26-.55.36-.8l0-.06a17.46,17.46,0,0,0,.88-2.23A21.45,21.45,0,0,0,21,53.55a23.09,23.09,0,0,0,.2-2.42c0-.81,0-1.63-.08-2.45s-.17-1.64-.3-2.43l-.12-.63-.06-.29L20.55,45A7.91,7.91,0,0,0,20.22,44a4.62,4.62,0,0,0-1-1.73,1.82,1.82,0,0,0-1.49-.51,3.05,3.05,0,0,0-.46.08l-.23.07-.11,0-.15.06c-.33.13-.7.32-1.09.51a7.69,7.69,0,0,1-2.77,1A6.34,6.34,0,0,1,10,43a10.61,10.61,0,0,1-2.39-1.4c-.35-.27-.7-.53-1-.81s-.67-.55-1-.8a5.59,5.59,0,0,0-1-.61,2,2,0,0,0-1-.18A1.77,1.77,0,0,0,2,40.45a2.63,2.63,0,0,0-.06,1.19A3.65,3.65,0,0,0,2.37,42.82Z"/><path class="cls-53" d="M42,24.78a17,17,0,0,0-3.16-5.23,13.86,13.86,0,0,0-4.07-3.17A11.38,11.38,0,0,0,31,15.23a10.3,10.3,0,0,0-2.57.1l-.9.19h0l-.86.29A10,10,0,0,0,24.42,17a11,11,0,0,0-2.67,3A13.58,13.58,0,0,0,20,24.81a16.71,16.71,0,0,0,.1,6.1c.14.53.23,1.06.41,1.6A16,16,0,0,0,21,34.11l.33.8c.12.26.26.52.4.77a14.66,14.66,0,0,0,.9,1.53A15.25,15.25,0,0,0,25,40a16.62,16.62,0,0,0,1.42,1.18,14.36,14.36,0,0,0,1.6,1,10.72,10.72,0,0,0,3.59,1.16,10.05,10.05,0,0,0,3.79-.22,9.94,9.94,0,0,0,3.38-1.74,10.39,10.39,0,0,0,2.47-2.85,14,14,0,0,0,.86-1.65,13.78,13.78,0,0,0,.58-1.75,14.71,14.71,0,0,0,.38-1.79c0-.3.06-.6.09-.9s.06-.6.05-.9A17.73,17.73,0,0,0,42,24.78Z"/><path class="cls-54" d="M26.74,16.5c-5.45,1.49-8.3,8.2-6.36,15s7.91,11.09,13.37,9.6,8.3-8.2,6.36-15S32.2,15,26.74,16.5Z"/><path class="cls-55" d="M21.94,29.76c1.59,5.6,6.63,9.11,11.25,7.85s7.07-6.82,5.48-12.41S32,16.09,27.42,17.35,20.34,24.16,21.94,29.76Z"/><path class="cls-56" d="M33.16,29.16c1,4.56-.76,8.32-3.89,8.43s-6.46-3.51-7.44-8.06.76-8.32,3.88-8.42S32.18,24.61,33.16,29.16Z"/><path d="M30.9,29.24c.59,2.73-.46,5-2.34,5.05s-3.88-2.1-4.47-4.83.46-5,2.33-5.06S30.3,26.5,30.9,29.24Z"/><g class="cls-57"><path class="cls-58" d="M31.21,36.26a1.69,1.69,0,0,0,.2-2.12c-.37-.51-.7-.5-1-.33-.39.53-1,1.21-1.69,1.19a4.25,4.25,0,0,1-3.64-2.07c-.68-1.31-.92-1.9-1.35-1.35s.49,2.38,1.16,3.21A5.53,5.53,0,0,0,29.2,37a2.85,2.85,0,0,0,1.87-.6A1.11,1.11,0,0,0,31.21,36.26Z"/></g><path class="cls-13" d="M28.5,21.78c-2.53-2.12-3.44.06-2.86,2.42s3,4.94,5.38,4.76S31.89,24.64,28.5,21.78Z"/><path class="cls-25" d="M23.17,17.11s10.89-3.8,18.27,3.35c0,0,28.48-16.68,38.76,20.52A38,38,0,0,0,53.07,10.1,31.39,31.39,0,0,0,23.17,17.11Z"/><path class="cls-13" d="M31.93,15.72s.09-.1.28-.28.46-.43.84-.72a14.6,14.6,0,0,1,1.4-1,18,18,0,0,1,2-1.11,22.43,22.43,0,0,1,5.35-1.86,23.39,23.39,0,0,1,3.18-.45,25.92,25.92,0,0,1,3.31,0l1.66.15c.55.08,1.09.16,1.63.26a27.84,27.84,0,0,1,3.1.78c.49.17,1,.32,1.44.49l1.35.55c.43.18.84.4,1.25.58s.78.38,1.13.59l1,.58c.32.19.61.39.89.56.56.36,1,.68,1.42,1,.76.58,1.18.92,1.18.92s-.51-.2-1.36-.58c-.43-.19-1-.4-1.57-.65s-1.29-.5-2-.79c-.37-.15-.76-.28-1.17-.41s-.82-.29-1.26-.41l-1.33-.4-1.4-.36-1.46-.32c-.5-.1-1-.17-1.51-.27s-1-.13-1.53-.2l-1.55-.12c-1-.05-2.07-.08-3.09,0a30,30,0,0,0-3,.27c-1,.14-1.89.31-2.77.52s-1.7.43-2.45.68A30.21,30.21,0,0,0,33.25,15C32.4,15.44,31.93,15.72,31.93,15.72Z"/><path class="cls-25" d="M30,43s10.25,3.64,13.89-6.1c0,0,3.56,14.83-3.17,21C35.77,62.45,30.73,54,30,43Z"/><path class="cls-59" d="M55.14,19C58,18.93,66.64,20.16,72,25.67s.8,4.1-5.26,1.4c-9.52-4.27-16.66-1.4-18.3-3.2S49.89,19.18,55.14,19Z"/><path class="cls-59" d="M64.67,33.46c5.14.78,16.75,7.8,14,9.69s-12.06,2.79-19.21.33S45.62,30.59,64.67,33.46Z"/><path class="cls-59" d="M59.74,51.2c3.78.11,12,1,17.32-1.23s.82,6.16-9.11,7-14.53-1.06-15.44-3.69S56.87,51.11,59.74,51.2Z"/><path class="cls-25" d="M9.62,37.55a14.71,14.71,0,0,0,4.24-7.94c.79-4.9,4.5-10.06,8.34-11.65,0,0-6.36,8.61-3.44,13.77S11,39.66,9.62,37.55Z"/></g></g></g></svg>