<svg xmlns="http://www.w3.org/2000/svg" viewBox="0 0 46.32 53.82"><defs><style>.cls-1{fill:#f5f487;}.cls-2{fill:#5b8581;}.cls-3{fill:#f93534;}.cls-4{fill:#fb8685;}.cls-5{fill:#cdcccb;}.cls-6{fill:#fff;}</style></defs><title>lure</title><g id="Layer_2" data-name="Layer 2"><g id="Layer_2-2" data-name="Layer 2"><path class="cls-1" d="M46.32,30.66a23.23,23.23,0,0,1-.68,5.61h0a23.17,23.17,0,0,1-45,0h0a23.33,23.33,0,0,1-.41-9.17,22.87,22.87,0,0,1,.46-2.25,23.17,23.17,0,0,1,44.84,0A22.58,22.58,0,0,1,46,27.09,23.07,23.07,0,0,1,46.32,30.66Z"/><path class="cls-2" d="M46.32,30.66a23.23,23.23,0,0,1-.68,5.61h0a36.74,36.74,0,0,1-22.48,7.37A36.74,36.74,0,0,1,.68,36.27h0a23.33,23.33,0,0,1-.41-9.17,22.87,22.87,0,0,1,.46-2.25c4.32-8.69,12.74-14.59,22.42-14.59s18.09,5.89,22.42,14.58A22.58,22.58,0,0,1,46,27.09,23.07,23.07,0,0,1,46.32,30.66Z"/><path class="cls-3" d="M46,27.09c-5.53,5-13.73,8.09-22.89,8.09S5.8,32,.27,27.09a23.16,23.16,0,0,1,45.77,0Z"/><ellipse class="cls-4" cx="33.41" cy="16.85" rx="4.06" ry="5.67" transform="translate(1.74 36.78) rotate(-58.96)"/><ellipse class="cls-4" cx="26.43" cy="19.13" rx="1.48" ry="2.07" transform="translate(-4.99 10.34) rotate(-20.27)"/><path class="cls-5" d="M26.37,10.9v0L24.91.94,23.39,1l-2,0L20,10.9a1.13,1.13,0,0,0,0,.29,1.17,1.17,0,0,0,.1.46h0c.35.83,1.63,1.44,3.15,1.44s2.8-.61,3.15-1.44h0a1.17,1.17,0,0,0,.1-.46A1.13,1.13,0,0,0,26.37,10.9Z"/><path class="cls-6" d="M24.92,1a.63.63,0,0,1-.05.25h0a1.83,1.83,0,0,1-1.7.78,1.83,1.83,0,0,1-1.7-.78h0A.63.63,0,0,1,21.41,1a.61.61,0,0,1,0-.16l0-.1A1.85,1.85,0,0,1,23.16,0a1.85,1.85,0,0,1,1.7.77l0,.1A.61.61,0,0,1,24.92,1Z"/></g></g></svg>