<svg xmlns="http://www.w3.org/2000/svg" viewBox="0 0 78.45 78.45"><defs><style>.cls-1{opacity:0.3;}.cls-2{fill:#d7e8f0;}.cls-3{fill:#15488d;}.cls-4{fill:#19396e;}.cls-5{fill:#fff;}.cls-6{fill:#9bdaea;}</style></defs><title>Asset 16</title><g id="Layer_2" data-name="Layer 2"><g id="Layer_2-2" data-name="Layer 2"><path class="cls-1" d="M43.09,78.45A35.36,35.36,0,1,1,78.45,43.09,35.4,35.4,0,0,1,43.09,78.45Z"/><path class="cls-2" d="M35.36,70.73A35.36,35.36,0,1,1,70.73,35.36,35.4,35.4,0,0,1,35.36,70.73Z"/><circle class="cls-3" cx="35.36" cy="35.36" r="31.66"/><path class="cls-4" d="M36.93,24.24V28.7L31.62,47.41l-.55,1.94-5.57-4a1.5,1.5,0,0,0-.91-.29c-1.31,0-2.63.09-3.94-.05a2.31,2.31,0,0,1-2.18-2.41V30.56c0-.22,0-.43,0-.64l0-.05a2.33,2.33,0,0,1,2.35-2.07c1.25-.08,2.51,0,3.76,0a1.08,1.08,0,0,0,.72-.15l4.78-3.45,2.84-2a2.47,2.47,0,0,1,3.92,1.23A2.83,2.83,0,0,1,36.93,24.24Z"/><path class="cls-4" d="M54.26,36.49A19.77,19.77,0,0,1,49.79,49a10.23,10.23,0,0,1-1.37,1.49,2.36,2.36,0,0,1-3.35-.06,2.26,2.26,0,0,1-.21-3.19,21.57,21.57,0,0,0,2.87-4,15.19,15.19,0,0,0,1.47-4.54,14.57,14.57,0,0,0-.89-7.85l-.06-.14c-.08-.21-.17-.42-.26-.62a12.47,12.47,0,0,0-.82-1.53,11,11,0,0,0-.88-1.26l.48-1.69,1-3.64a2.62,2.62,0,0,1,.81.59,19.61,19.61,0,0,1,4.42,7,17.51,17.51,0,0,1,1.16,5.8A4.17,4.17,0,0,1,54.26,36.49Z"/><path class="cls-4" d="M46.87,18a2.34,2.34,0,0,1-.09.63l-11,38.86a2.31,2.31,0,0,1-4.44-1.26l11-38.86a2.31,2.31,0,0,1,4.53.63Z"/><path class="cls-4" d="M46.87,36.36a12.54,12.54,0,0,1-3.6,8.72A2.52,2.52,0,0,1,41,45.8l.66-2.3,3.68-13a11.81,11.81,0,0,1,1.4,4.79h0A5.48,5.48,0,0,1,46.87,36.36Z"/><path class="cls-2" d="M34.92,22.1v4.46L29.61,45.27l-.55,1.94-5.57-4a1.5,1.5,0,0,0-.91-.29c-1.31,0-2.63.09-3.94-.05a2.31,2.31,0,0,1-2.18-2.41V28.42c0-.22,0-.43,0-.64l0-.05a2.33,2.33,0,0,1,2.35-2.07c1.25-.08,2.51,0,3.76,0a1.08,1.08,0,0,0,.72-.15L28.07,22l2.84-2a2.47,2.47,0,0,1,3.92,1.23A2.83,2.83,0,0,1,34.92,22.1Z"/><path class="cls-2" d="M42.64,20.88a2.75,2.75,0,0,0-.23.56A1.84,1.84,0,0,1,42.64,20.88Z"/><path class="cls-2" d="M52.25,34.35a19.77,19.77,0,0,1-4.47,12.47,10.23,10.23,0,0,1-1.37,1.49,2.36,2.36,0,0,1-3.35-.06,2.26,2.26,0,0,1-.21-3.19,21.57,21.57,0,0,0,2.87-4,15.19,15.19,0,0,0,1.47-4.54,14.57,14.57,0,0,0-.89-7.85l-.06-.14c-.08-.21-.17-.42-.26-.62a12.47,12.47,0,0,0-.82-1.53,11,11,0,0,0-.88-1.26l.48-1.69,1-3.64a2.62,2.62,0,0,1,.81.59,19.61,19.61,0,0,1,4.42,7,17.51,17.51,0,0,1,1.16,5.8A4.17,4.17,0,0,1,52.25,34.35Z"/><path class="cls-2" d="M44.86,34.22a12.54,12.54,0,0,1-3.6,8.72,2.52,2.52,0,0,1-2.24.72l.66-2.3,3.68-13a11.81,11.81,0,0,1,1.4,4.79h0A5.48,5.48,0,0,1,44.86,34.22Z"/><path class="cls-5" d="M42.64,20.88a2.75,2.75,0,0,0-.23.56A1.84,1.84,0,0,1,42.64,20.88Z"/><path class="cls-6" d="M16.46,28.42c0-.22,0-.43,0-.64l0-.05Z"/><path class="cls-6" d="M29.61,45.27l-.55,1.94-5.57-4a1.5,1.5,0,0,0-.91-.29c-1.31,0-2.63.09-3.94-.05a2.31,2.31,0,0,1-2.18-2.41V38.14a2.31,2.31,0,0,0,2.18,2.41c1.31.14,2.63,0,3.94.06a1.42,1.42,0,0,1,.91.28Z"/><path class="cls-6" d="M47.31,32.78c0,.08,0,.17,0,.26a15.27,15.27,0,0,0-1-4.34l-.06-.14L46,27.94a14,14,0,0,0-.81-1.53,11,11,0,0,0-.88-1.26l.48-1.69A13.77,13.77,0,0,1,46,25.61,14.74,14.74,0,0,1,47.31,32.78Z"/><path class="cls-6" d="M47.78,44.5A10.17,10.17,0,0,1,46.41,46a2.36,2.36,0,0,1-3.35-.06,2.46,2.46,0,0,1-.43-.54,2.26,2.26,0,0,0,.43,2.87,2.36,2.36,0,0,0,3.35.06,10.17,10.17,0,0,0,1.37-1.48,19.78,19.78,0,0,0,4.47-12.47,3.38,3.38,0,0,0-.06-1.08A19.78,19.78,0,0,1,47.78,44.5Z"/><path class="cls-6" d="M44.86,34.22a12.54,12.54,0,0,1-3.6,8.72,2.52,2.52,0,0,1-2.24.72l.66-2.3a2.57,2.57,0,0,0,1.58-.75,12.23,12.23,0,0,0,3.5-7.41A5.48,5.48,0,0,1,44.86,34.22Z"/><path class="cls-2" d="M44.74,15.87a2.34,2.34,0,0,1-.09.63l-11,38.86a2.31,2.31,0,0,1-4.44-1.26l11-38.86a2.31,2.31,0,0,1,4.53.63Z"/><path class="cls-6" d="M43.37,13.77a2.29,2.29,0,0,1,.21,1,2.34,2.34,0,0,1-.09.63l-11,38.86a2.3,2.3,0,0,1-2.22,1.67,2.28,2.28,0,0,1-1-.21,2.31,2.31,0,0,0,4.32-.3l11-38.86a2.3,2.3,0,0,0-1.28-2.74Z"/></g></g></svg>