<svg xmlns="http://www.w3.org/2000/svg" viewBox="0 0 78.45 78.45"><defs><style>.cls-1{opacity:0.3;}.cls-2{fill:#d7e8f0;}.cls-3{fill:#15488d;}.cls-4{fill:#19396e;}.cls-5{fill:#9bdaea;}</style></defs><title>Asset 15</title><g id="Layer_2" data-name="Layer 2"><g id="Layer_2-2" data-name="Layer 2"><path class="cls-1" d="M43.09,78.45A35.36,35.36,0,1,1,78.45,43.09,35.4,35.4,0,0,1,43.09,78.45Z"/><path class="cls-2" d="M35.36,70.73A35.36,35.36,0,1,1,70.73,35.36,35.4,35.4,0,0,1,35.36,70.73Z"/><circle class="cls-3" cx="35.36" cy="35.36" r="31.66"/><path class="cls-4" d="M18.45,29.85a2.35,2.35,0,0,1,2.37-2.12c1.25-.08,2.51,0,3.76-.05a1.14,1.14,0,0,0,.72-.15l4.77-3.46,2.84-2a2.47,2.47,0,0,1,3.93,1.23,2.94,2.94,0,0,1,.08.86q0,12.2,0,24.4a2.46,2.46,0,0,1-4,2L25.5,45.29a1.5,1.5,0,0,0-.91-.28c-1.31,0-2.63.08-3.94-.05a2.32,2.32,0,0,1-2.18-2.41c0-4,0-8,0-12.06C18.46,30.27,18.45,30.06,18.45,29.85Z"/><path class="cls-4" d="M54.26,36.42a19.78,19.78,0,0,1-4.47,12.47,10.17,10.17,0,0,1-1.37,1.48,2.36,2.36,0,0,1-3.35-.06,2.26,2.26,0,0,1-.21-3.19,21.36,21.36,0,0,0,2.87-4,15.17,15.17,0,0,0,1.47-4.54A14.75,14.75,0,0,0,48,30a12.93,12.93,0,0,0-2.59-3.81,3,3,0,0,1-1.06-1.93,2.53,2.53,0,0,1,1.48-2.41,2.41,2.41,0,0,1,2.8.62,19.49,19.49,0,0,1,4.42,7,17.7,17.7,0,0,1,1.17,5.8A4.25,4.25,0,0,1,54.26,36.42Z"/><path class="cls-4" d="M46.86,36.29A12.51,12.51,0,0,1,43.26,45a2.42,2.42,0,1,1-3.49-3.36,7.51,7.51,0,0,0,0-10.62,2.41,2.41,0,0,1,1.07-4,2.29,2.29,0,0,1,2.35.56,11.85,11.85,0,0,1,3.59,7.68A5.21,5.21,0,0,1,46.86,36.29Z"/><path class="cls-2" d="M16.44,27.84a2.35,2.35,0,0,1,2.37-2.12c1.25-.08,2.51,0,3.76-.05a1.14,1.14,0,0,0,.72-.15l4.77-3.46,2.84-2a2.47,2.47,0,0,1,3.93,1.23,2.94,2.94,0,0,1,.08.86q0,12.2,0,24.4a2.46,2.46,0,0,1-4,2l-7.43-5.33a1.5,1.5,0,0,0-.91-.28c-1.31,0-2.63.08-3.94-.05a2.32,2.32,0,0,1-2.18-2.41c0-4,0-8,0-12.06C16.46,28.27,16.45,28.06,16.44,27.84Z"/><path class="cls-2" d="M52.25,34.42a19.78,19.78,0,0,1-4.47,12.47,10.17,10.17,0,0,1-1.37,1.48,2.36,2.36,0,0,1-3.35-.06,2.26,2.26,0,0,1-.21-3.19,21.36,21.36,0,0,0,2.87-4,15.17,15.17,0,0,0,1.47-4.54A14.75,14.75,0,0,0,46,28a12.93,12.93,0,0,0-2.59-3.81,3,3,0,0,1-1.06-1.93,2.53,2.53,0,0,1,1.48-2.41,2.41,2.41,0,0,1,2.8.62,19.49,19.49,0,0,1,4.42,7,17.7,17.7,0,0,1,1.17,5.8A4.25,4.25,0,0,1,52.25,34.42Z"/><path class="cls-2" d="M44.86,34.28A12.51,12.51,0,0,1,41.26,43a2.42,2.42,0,1,1-3.49-3.36,7.51,7.51,0,0,0,0-10.62,2.41,2.41,0,0,1,1.07-4,2.29,2.29,0,0,1,2.35.56,11.85,11.85,0,0,1,3.59,7.68A5.21,5.21,0,0,1,44.86,34.28Z"/><path class="cls-5" d="M33.64,46.53a2.39,2.39,0,0,1-2.71-.25L23.49,41a1.5,1.5,0,0,0-.91-.28c-1.31,0-2.63.08-3.94-.05a2.32,2.32,0,0,1-2.18-2.41q0-5.21,0-10.41l0,0c0,.21,0,.42,0,.64q0,6,0,12.06a2.32,2.32,0,0,0,2.18,2.41c1.31.14,2.62,0,3.94.05a1.5,1.5,0,0,1,.91.28l7.43,5.33a2.46,2.46,0,0,0,4-2c0-.77,0-1.55,0-2.32A2.41,2.41,0,0,1,33.64,46.53Z"/><path class="cls-5" d="M46,28a15.16,15.16,0,0,1,1.32,5.1A14.81,14.81,0,0,0,46,25.68a12.93,12.93,0,0,0-2.59-3.81,4.58,4.58,0,0,1-.74-.92,2.42,2.42,0,0,0-.32,1.32,3,3,0,0,0,1.06,1.93A12.93,12.93,0,0,1,46,28Z"/><path class="cls-5" d="M47.78,44.56A10.17,10.17,0,0,1,46.41,46,2.36,2.36,0,0,1,43.06,46a2.46,2.46,0,0,1-.43-.54,2.26,2.26,0,0,0,.43,2.87,2.36,2.36,0,0,0,3.35.06,10.17,10.17,0,0,0,1.37-1.48,19.78,19.78,0,0,0,4.47-12.47,3.38,3.38,0,0,0-.06-1.08A19.78,19.78,0,0,1,47.78,44.56Z"/><path class="cls-5" d="M39.85,33.16A7.61,7.61,0,0,0,40,32a7.5,7.5,0,0,0-2.22-5.37,2.47,2.47,0,0,1-.38-.52A2.43,2.43,0,0,0,37.75,29,7.63,7.63,0,0,1,39.85,33.16Z"/><path class="cls-5" d="M44.76,33.26a12.28,12.28,0,0,1-3.5,7.42,2.44,2.44,0,0,1-3.39.15,2.56,2.56,0,0,1-.45-.63,2.41,2.41,0,0,0,.45,3A2.44,2.44,0,0,0,41.26,43a12.51,12.51,0,0,0,3.6-8.72,5.21,5.21,0,0,0-.09-1Z"/></g></g></svg>