<svg xmlns="http://www.w3.org/2000/svg" viewBox="0 0 191.61 57.63">
	<defs>
		<style>.cls-1{opacity:0.3;}.cls-2{fill:#71cede;}.cls-3{fill:#15488d;}.cls-4{fill:#2e5aa9;}.cls-5{fill:#19396e;}.cls-6{fill:#fff;}.cls-7{fill:#9bdaea;}</style>
	</defs>
	<title>Asset 14</title>
	<g id="Layer_2" data-name="Layer 2">
		<g id="Layer_2-2" data-name="Layer 2">
			<path class="cls-1" d="M34.17,57.63a8,8,0,0,1-6.48-2.82q-.17-.2-.32-.42a8.82,8.82,0,0,1-7.09,3.23,7.86,7.86,0,0,1-6.4-2.79,7.94,7.94,0,0,1-1.44-6.91l.36-1.75h-.58a7.44,7.44,0,0,1-7.65-9.35A10,10,0,0,1,5.11,35,8.08,8.08,0,0,1,3,27.71L6.2,12.38a8.93,8.93,0,0,1,9-7.49h.2a7.93,7.93,0,0,1,6.3,2.83,8,8,0,0,1,1.49,6.83L21.87,21h8a9.35,9.35,0,0,1,1.89.19l2-9.59a8.92,8.92,0,0,1,9.14-7.46A7.85,7.85,0,0,1,49.24,7a8,8,0,0,1,1.44,7l0,.1a7.21,7.21,0,0,1,3.75,4.51l4.72-7.86c2.82-4.42,6.59-5.07,8.58-5.07A8.31,8.31,0,0,1,76,12.45l0,.22,1.34,7.13,1.67-8.12a8.94,8.94,0,0,1,9.11-7.51A7.88,7.88,0,0,1,94.61,7a8,8,0,0,1,1.45,7L88.92,48.65a8.87,8.87,0,0,1-9.08,7.42,7.64,7.64,0,0,1-8-9.37q-.41,0-.82,0a7.45,7.45,0,0,1-7.43-6.14l0-.24-.69-3.66-3.32,5.53-.09.15a8.65,8.65,0,0,1-7.38,4.36,8.8,8.8,0,0,1-3.75-.86,8.14,8.14,0,0,1-3.62-3l-1.51,7.32A8.89,8.89,0,0,1,34.17,57.63ZM47.29,30.38l.28-.46-.19,0Z"/>
			<path class="cls-1" d="M151.19,57A8,8,0,0,1,144,52.66a8.76,8.76,0,0,1-7.21,3.41,8.36,8.36,0,0,1-5.13-1.57,9.5,9.5,0,0,1-3.6.68,7.78,7.78,0,0,1-6.33-2.77,7.59,7.59,0,0,1-1.62-5.6,10.44,10.44,0,0,1-3.91.07l-.63-.13-.14,0a7.87,7.87,0,0,1-2.13-.93c-2.71-1.7-3.91-4.82-3.19-8.35l3.16-15.33h-2.11A7.59,7.59,0,0,1,105,19.38a7.73,7.73,0,0,1-1.42-6.72,8.47,8.47,0,0,1,8.66-7.06h11.91a7.83,7.83,0,0,1,5.24,1.9,8.93,8.93,0,0,1,6.78-2.89,8.66,8.66,0,0,1,4,.9,9.42,9.42,0,0,1,5-1.35,7.8,7.8,0,0,1,6.35,2.77,7.18,7.18,0,0,1,.69,1,22.84,22.84,0,0,1,3.36-1.61,18.45,18.45,0,0,1,6.58-1.22,16,16,0,0,1,6.62,1.35,15,15,0,0,1,5.06,3.68l.08.09q.34.4.65.82a8.89,8.89,0,0,1,9-6.88A7.89,7.89,0,0,1,189.93,7a8,8,0,0,1,1.46,7l-3.44,16.71a9.6,9.6,0,0,1-1.82,4.05,8.3,8.3,0,0,1,.16,4L184,49.59a9.18,9.18,0,0,1-3.21,5.24A9.06,9.06,0,0,1,175,57Z"/>
			<path class="cls-2" d="M31.3,53.46a8,8,0,0,1-6.48-2.82q-.17-.2-.32-.42a8.82,8.82,0,0,1-7.09,3.23A7.86,7.86,0,0,1,11,50.67a7.94,7.94,0,0,1-1.44-6.91L9.94,42H9.36a7.67,7.67,0,0,1-6.24-2.73A7.61,7.61,0,0,1,1.7,32.66a10,10,0,0,1,.54-1.79A8.08,8.08,0,0,1,.18,23.54L3.34,8.21a8.93,8.93,0,0,1,9-7.49h.2a7.93,7.93,0,0,1,6.3,2.83,8,8,0,0,1,1.49,6.83L19,16.87h8a9.35,9.35,0,0,1,1.89.19l2-9.59A8.92,8.92,0,0,1,40,0a7.85,7.85,0,0,1,6.39,2.8,8,8,0,0,1,1.44,7l0,.1a7.21,7.21,0,0,1,3.75,4.51L56.26,6.5c2.82-4.42,6.59-5.07,8.58-5.07a8.31,8.31,0,0,1,8.31,6.85l0,.22,1.34,7.13,1.67-8.12A8.94,8.94,0,0,1,85.33,0a7.88,7.88,0,0,1,6.42,2.81,8,8,0,0,1,1.45,7L86.05,44.48A8.87,8.87,0,0,1,77,51.9a7.64,7.64,0,0,1-8-9.37q-.41,0-.82,0a7.45,7.45,0,0,1-7.43-6.14l0-.24L60,32.53,56.7,38.06l-.09.15a8.65,8.65,0,0,1-7.38,4.36,8.8,8.8,0,0,1-3.75-.86,8.14,8.14,0,0,1-3.62-3L40.35,46A8.89,8.89,0,0,1,31.3,53.46ZM44.43,26.21l.28-.46-.19,0Z"/>
			<path class="cls-3" d="M85.33,1.13a7.86,7.86,0,0,0-8,6.6L74.5,21.47,72.09,8.71l0-.18a7.22,7.22,0,0,0-7.21-6,8.92,8.92,0,0,0-7.63,4.55L50.56,18.19a6.76,6.76,0,0,0-1.24-5.72,6.15,6.15,0,0,0-2.81-1.94l.21-1a6.89,6.89,0,0,0-1.21-6A6.75,6.75,0,0,0,40,1.13a7.85,7.85,0,0,0-8,6.56L29.73,18.48A7.53,7.53,0,0,0,27,18H17.62l1.61-7.84A6.92,6.92,0,0,0,18,4.26a6.84,6.84,0,0,0-5.45-2.42h-.16A7.85,7.85,0,0,0,4.44,8.43L1.29,23.77a7,7,0,0,0,1.26,5.73,6.81,6.81,0,0,0,1.06,1.1,8.6,8.6,0,0,0-.8,2.28A6.52,6.52,0,0,0,4,38.57a6.57,6.57,0,0,0,5.36,2.31h2L10.69,44a6.85,6.85,0,0,0,1.21,6,6.76,6.76,0,0,0,5.52,2.38,7.64,7.64,0,0,0,7.19-4.4,6.16,6.16,0,0,0,1.09,2,6.85,6.85,0,0,0,5.6,2.4,7.81,7.81,0,0,0,7.94-6.57l2.27-11a6.87,6.87,0,0,0-.28-3.84A8.59,8.59,0,0,0,43.12,27l.45-2.2a7.77,7.77,0,0,0,3.88-1.39l-4.24,7.06a7.2,7.2,0,0,0-1.11,6.06A6.65,6.65,0,0,0,46,40.68a7.68,7.68,0,0,0,3.27.76,7.55,7.55,0,0,0,6.43-3.84l.08-.12,4.85-8.08L61.83,36l0,.19a6.36,6.36,0,0,0,6.33,5.27,8.08,8.08,0,0,0,2.26-.34l-.27,1.32A6.55,6.55,0,0,0,77,50.77a7.79,7.79,0,0,0,8-6.52L92.09,9.56a6.93,6.93,0,0,0-1.22-6A6.79,6.79,0,0,0,85.33,1.13Z"/>
			<path class="cls-2" d="M148.33,52.84a8,8,0,0,1-7.16-4.35,8.76,8.76,0,0,1-7.21,3.41,8.36,8.36,0,0,1-5.13-1.57,9.5,9.5,0,0,1-3.6.68,7.78,7.78,0,0,1-6.33-2.77,7.59,7.59,0,0,1-1.62-5.6,10.44,10.44,0,0,1-3.91.07l-.63-.13-.14,0a7.87,7.87,0,0,1-2.13-.93c-2.71-1.7-3.91-4.82-3.19-8.35l3.16-15.33h-2.11a7.59,7.59,0,0,1-6.17-2.71,7.73,7.73,0,0,1-1.42-6.72,8.47,8.47,0,0,1,8.66-7.06h11.91a7.83,7.83,0,0,1,5.24,1.9A8.93,8.93,0,0,1,133.31.45a8.66,8.66,0,0,1,4,.9,9.42,9.42,0,0,1,5-1.35,7.8,7.8,0,0,1,6.35,2.77,7.18,7.18,0,0,1,.69,1,22.84,22.84,0,0,1,3.36-1.61A18.45,18.45,0,0,1,159.28.94a16,16,0,0,1,6.62,1.35A15,15,0,0,1,171,6l.08.09q.34.4.65.82a8.89,8.89,0,0,1,9-6.88,7.89,7.89,0,0,1,6.42,2.8,8,8,0,0,1,1.46,7l-3.44,16.71a9.6,9.6,0,0,1-1.82,4.05,8.3,8.3,0,0,1,.16,4l-2.24,10.85A9.18,9.18,0,0,1,178,50.66a9.06,9.06,0,0,1-5.83,2.17Z"/>
			<path class="cls-3" d="M186.19,3.51a6.8,6.8,0,0,0-5.54-2.38,7.86,7.86,0,0,0-8,6.61L172.19,10a13.41,13.41,0,0,0-2-3.16l-.06-.07a13.85,13.85,0,0,0-4.68-3.4,14.89,14.89,0,0,0-6.16-1.25,17.31,17.31,0,0,0-6.18,1.15,21.61,21.61,0,0,0-4.27,2.2,6.07,6.07,0,0,0-1.06-1.94,6.71,6.71,0,0,0-5.47-2.35,8.09,8.09,0,0,0-4.94,1.55,7.23,7.23,0,0,0-4.06-1.11,7.62,7.62,0,0,0-6.67,3.48l-.24-.28a5.25,5.25,0,0,0-.45-.45,6.7,6.7,0,0,0-4.66-1.77H109.38a7.38,7.38,0,0,0-7.55,6.16A6.64,6.64,0,0,0,103,14.5a6.5,6.5,0,0,0,5.29,2.3h3.5l-3.44,16.68c-.62,3,.38,5.72,2.69,7.17a6.76,6.76,0,0,0,1.83.8l.11,0,.55.12a9,9,0,0,0,1.58.13,8.37,8.37,0,0,0,3.56-.75l-.13.65a6.78,6.78,0,0,0,1.21,5.9,6.69,6.69,0,0,0,5.46,2.35A8.22,8.22,0,0,0,129,49a7,7,0,0,0,4.95,1.76,7.59,7.59,0,0,0,7.51-5.26,6.82,6.82,0,0,0,6.87,6.2h23.82a7.94,7.94,0,0,0,5.1-1.91,8.07,8.07,0,0,0,2.83-4.6l2.23-10.85a7,7,0,0,0-.33-4,8.37,8.37,0,0,0,2-4l3.44-16.7A6.94,6.94,0,0,0,186.19,3.51Z"/>
			<path class="cls-4" d="M15.38,8.09a2.73,2.73,0,0,1,.24,2.06L13.24,21.74h-.45l-.25,0q.06.48.7.48h.45l2.39-11.59C16.31,9.38,16.07,8.56,15.38,8.09Z"/>
			<path class="cls-4" d="M16.47,36.11a1.4,1.4,0,0,1,0,.72l-.07.36H10.19a2.76,2.76,0,0,1-1.49-.35,2.1,2.1,0,0,0,1.95.8h6.22l.07-.36Q17.13,36.34,16.47,36.11Z"/>
			<path class="cls-4" d="M29.64,24.13a2.45,2.45,0,0,1,.15,1.78,2.86,2.86,0,0,1-3.08,2.55H8.85A2.33,2.33,0,0,1,7.41,28l0,0a2.23,2.23,0,0,0,1.88.87H27.17a2.86,2.86,0,0,0,3.08-2.55Q30.58,24.7,29.64,24.13Z"/>
			<path class="cls-4" d="M30.26,36.1a1.44,1.44,0,0,1,0,.73l-.07.36H23.48l-1.76,8.55a3.24,3.24,0,0,1-3.46,2.91,2.93,2.93,0,0,1-1.64-.4,2.31,2.31,0,0,0,2.09.85,3.24,3.24,0,0,0,3.46-2.91l1.76-8.55h6.71l.07-.36Q30.92,36.33,30.26,36.1Z"/>
			<path class="cls-4" d="M42.91,7.35a2.75,2.75,0,0,1,.21,2.09l-.91,4.43h-.05a1.58,1.58,0,0,1-.53-.08c.12.35.44.53,1,.53h.05l.91-4.43C43.83,8.64,43.6,7.8,42.91,7.35Z"/>
			<path class="cls-4" d="M162.38,13a4.52,4.52,0,0,0-.56-.57l.11.12a4.43,4.43,0,0,1,.77,1.39,4.67,4.67,0,0,0-3.61-1.45,6.75,6.75,0,0,0-4.4,1.68,7,7,0,0,0-2.51,4.05,5.08,5.08,0,0,0,.05,2.45,4.77,4.77,0,0,0,.28.4l.22.25a5,5,0,0,1-.1-2.64,7,7,0,0,1,2.51-4.05,6.75,6.75,0,0,1,4.4-1.68,4.67,4.67,0,0,1,3.61,1.45A4.43,4.43,0,0,0,162.38,13Z"/>
			<path class="cls-4" d="M171.36,35a.91.91,0,0,1,0,.24l-.19.9H155.27a.83.83,0,0,0-.91.72l-.95,4.6h-.54l-.17,0c0,.31.22.48.63.48h.54l.95-4.6a.83.83,0,0,1,.91-.72h15.89l.19-.9C171.88,35.3,171.73,35.08,171.36,35Z"/>
			<path class="cls-4" d="M126.59,23.27a1,1,0,0,1,0,.39l-.15.72h-1.61a2.62,2.62,0,0,1-1.41-.33,2,2,0,0,0,1.86.78h1.61l.15-.72C127.12,23.66,127,23.38,126.59,23.27Z"/>
			<path class="cls-4" d="M38,33.28a1.85,1.85,0,0,0-.41-.38,2.19,2.19,0,0,1,.33,1.78l-2.27,11a3.29,3.29,0,0,1-3.52,3,3,3,0,0,1-1.71-.42,2.4,2.4,0,0,0,2.16.87,3.29,3.29,0,0,0,3.52-3l2.27-11A2.19,2.19,0,0,0,38,33.28Z"/>
			<path class="cls-4" d="M169.86,14.5a8.91,8.91,0,0,0-1.51-3.07q.17.37.32.77a8.59,8.59,0,0,1,.82,6,11.31,11.31,0,0,1-1.79,4.12,15.77,15.77,0,0,1-3.27,3.49,15,15,0,0,1-4.1,2.31,13.23,13.23,0,0,1-4.65.83,10.38,10.38,0,0,1-4.22-.83A9.21,9.21,0,0,1,149,26.54a9.09,9.09,0,0,0,2.93,2,10.38,10.38,0,0,0,4.22.83,13.23,13.23,0,0,0,4.65-.83,15,15,0,0,0,4.1-2.31,15.77,15.77,0,0,0,3.27-3.49,11.31,11.31,0,0,0,1.79-4.12A8.87,8.87,0,0,0,169.86,14.5Z"/>
			<path class="cls-4" d="M148,24.92l-.26-.27c-.1-.12-.19-.25-.28-.37l.09.18C147.71,24.62,147.86,24.78,148,24.92Z"/>
			<path class="cls-4" d="M46.74,16.32a2.71,2.71,0,0,1,.19,2,3.11,3.11,0,0,1-3.35,2.78H42a1.4,1.4,0,0,0-1.51,1.25l-.93,4.52a3.29,3.29,0,0,1-3.52,3,3,3,0,0,1-1.71-.42,2.4,2.4,0,0,0,2.16.87,3.29,3.29,0,0,0,3.52-3l.93-4.52a1.4,1.4,0,0,1,1.51-1.25H44a3.11,3.11,0,0,0,3.35-2.78C47.63,17.57,47.41,16.75,46.74,16.32Z"/>
			<path class="cls-4" d="M145.2,7.33a2.57,2.57,0,0,1,.19,1.93l-7.22,35a3.13,3.13,0,0,1-3.39,2.78,3,3,0,0,1-1.64-.39,2.29,2.29,0,0,0,2.09.84,3.13,3.13,0,0,0,3.39-2.78l7.22-35C146.08,8.55,145.86,7.76,145.2,7.33Z"/>
			<path class="cls-4" d="M178.72,32.67a2.23,2.23,0,0,0-.4-.37,2.35,2.35,0,0,1,.4,2l-2.23,10.83a3.55,3.55,0,0,1-1.29,2A3.43,3.43,0,0,1,173,48H149.16a2.33,2.33,0,0,1-1.45-.45l0,0a2.23,2.23,0,0,0,1.88.87h23.81a3.43,3.43,0,0,0,2.22-.87,3.55,3.55,0,0,0,1.29-2l2.23-10.83A2.34,2.34,0,0,0,178.72,32.67Z"/>
			<path class="cls-4" d="M136.16,7.77a2.6,2.6,0,0,1,.18,1.94l-6.93,33.66a3.14,3.14,0,0,1-3.36,2.82,2.85,2.85,0,0,1-1.58-.38,2.23,2.23,0,0,0,2,.83,3.14,3.14,0,0,0,3.36-2.82l6.93-33.66C137,9,136.82,8.2,136.16,7.77Z"/>
			<path class="cls-4" d="M183.61,7.36a2.78,2.78,0,0,1,.21,2.13l-3.44,16.7a3.28,3.28,0,0,1-3.55,2.91,3,3,0,0,1-1.68-.41,2.36,2.36,0,0,0,2.13.86,3.28,3.28,0,0,0,3.55-2.91l3.44-16.7C184.53,8.67,184.3,7.82,183.61,7.36Z"/>
			<path class="cls-4" d="M88.28,7.36a2.78,2.78,0,0,1,.21,2.13L81.35,44.17a3.29,3.29,0,0,1-3.55,2.91,3,3,0,0,1-1.68-.41,2.36,2.36,0,0,0,2.13.86,3.29,3.29,0,0,0,3.55-2.91L88.95,9.94C89.21,8.67,89,7.82,88.28,7.36Z"/>
			<path class="cls-4" d="M124.43,9.22a1.66,1.66,0,0,0-.13-.15L124.19,9,124,8.83a2.35,2.35,0,0,1,.38,2l-1.54,7.5-.79,3.84-2.7,13.09A3.16,3.16,0,0,1,116,38a4.45,4.45,0,0,1-.81-.07l-.21,0a2.35,2.35,0,0,1-.62-.26,1.54,1.54,0,0,0,.43.44,2.32,2.32,0,0,0,.63.27l.21,0a4.45,4.45,0,0,0,.81.07,3.16,3.16,0,0,0,3.4-2.82l2.7-13.09.79-3.84,1.54-7.5A2.35,2.35,0,0,0,124.43,9.22Z"/>
			<path class="cls-4" d="M63.65,15.68l-.28.47.29,1.54L52.69,36q-1.65,2.55-4,1.43A3.56,3.56,0,0,1,48,37a2.79,2.79,0,0,0,1.15.86q2.36,1.12,4-1.43l11-18.3Z"/>
			<path class="cls-4" d="M73.32,34.11,68.94,10.83a3.31,3.31,0,0,0-1.05-1.89l0,.09a3.88,3.88,0,0,1,.57,1.35l4.38,23.28q.62,2.64-2.3,3.76a2.74,2.74,0,0,1-2.6,0c.58.85,1.59,1,3,.42Q73.94,36.75,73.32,34.11Z"/>
			<path class="cls-4" d="M117,12a1.36,1.36,0,0,1,0,.68l-.08.41h-7.74a2.63,2.63,0,0,1-1.43-.34,2,2,0,0,0,1.88.79h7.74l.08-.41Q117.61,12.24,117,12Z"/>
			<path class="cls-5" d="M26.91,22.46H12.86c-.57,0-.79-.28-.67-.85L14.73,9.26q.55-2.91-2.35-3a3.32,3.32,0,0,0-3.57,3L5.66,24.62a2.46,2.46,0,0,0,.42,2.08A2.23,2.23,0,0,0,8,27.57H25.82A2.86,2.86,0,0,0,28.9,25Q29.42,22.47,26.91,22.46Zm16.93-7.87H42.24c-.84,0-1.17-.42-1-1.25l1-4.79q.61-3-2.3-3a3.33,3.33,0,0,0-3.61,3L32.72,26q-.61,3,2.39,3a3.29,3.29,0,0,0,3.52-3l.93-4.52a1.4,1.4,0,0,1,1.51-1.25h1.61A3.1,3.1,0,0,0,46,17.45Q46.62,14.59,43.85,14.59Zm-7.2,17.34A2,2,0,0,0,35,31.15H10.36a2.94,2.94,0,0,0-3.18,2.59Q6.65,36.3,9.3,36.3h6.26c.84,0,1.17.42,1,1.25l-1.5,7.3c-.4,1.94.37,2.91,2.31,2.91a3.23,3.23,0,0,0,3.46-2.91l1.76-8.55h6.8c.8,0,1.12.42.95,1.25L28.85,44.8q-.61,3,2.39,3a3.29,3.29,0,0,0,3.52-3l2.27-11A2.18,2.18,0,0,0,36.65,31.94ZM72,32.76,67.59,9.49A2.72,2.72,0,0,0,64.79,7,4.53,4.53,0,0,0,61,9.49L47,32.76q-1.7,2.64.8,3.76t4-1.43l11-18.26,3.44,18.26q.59,2.55,3.46,1.43T72,32.76ZM85.27,5.59a3.34,3.34,0,0,0-3.57,3L74.55,43.28q-.6,2.91,2.36,2.91a3.28,3.28,0,0,0,3.55-2.91L87.6,8.59Q88.22,5.6,85.27,5.59Zm37.82,2.28a1.67,1.67,0,0,0-.13-.15l-.11-.11A2.22,2.22,0,0,0,121.23,7H109.32a2.89,2.89,0,0,0-3.12,2.55q-.54,2.64,2.05,2.64h7.83c.8,0,1.12.4,1,1.21l-4.31,20.9c-.24,1.19,0,2,.67,2.44A2.32,2.32,0,0,0,114,37l.21,0a4.45,4.45,0,0,0,.81.07,3.16,3.16,0,0,0,3.4-2.82l2.7-13.09.79-3.84,1.54-7.5A2.35,2.35,0,0,0,123.09,7.88Zm19.16-2.28a3.16,3.16,0,0,0-3.44,2.77l-7.22,35q-.57,2.77,2.29,2.77a3.14,3.14,0,0,0,3.39-2.77l7.22-35C144.88,6.51,144.13,5.59,142.25,5.59Zm-9,.45a3.14,3.14,0,0,0-3.4,2.77l-1.79,8.68a1.06,1.06,0,0,1-1.2.85H125a2.88,2.88,0,0,0-3.09,2.59q-.53,2.55,2,2.55h1.88c.69,0,1,.29.85.89l-3.72,18.09c-.38,1.88.36,2.82,2.24,2.82a3.14,3.14,0,0,0,3.36-2.82l6.93-33.66C135.83,7,135.1,6,133.25,6Zm35.26,7.12a8.94,8.94,0,0,0-1.83-3.49,9.29,9.29,0,0,0-3.15-2.28,10.38,10.38,0,0,0-4.3-.85,12.73,12.73,0,0,0-4.56.85,16.92,16.92,0,0,0-4.14,2.28,15.09,15.09,0,0,0-3.23,3.49,11.94,11.94,0,0,0-1.75,4.17,9.17,9.17,0,0,0,.05,4.11,8.36,8.36,0,0,0,1.79,3.49,9.13,9.13,0,0,0,3.19,2.31,10.38,10.38,0,0,0,4.22.83,13.25,13.25,0,0,0,4.65-.83,15.19,15.19,0,0,0,4.1-2.31,15.7,15.7,0,0,0,3.27-3.49,11.34,11.34,0,0,0,1.79-4.11A8.9,8.9,0,0,0,168.51,13.16Zm-5.65,4.17a6.86,6.86,0,0,1-2.53,4,6.94,6.94,0,0,1-4.5,1.68,4.47,4.47,0,0,1-3.71-1.68,4.62,4.62,0,0,1-.85-4,7,7,0,0,1,2.51-4.05,6.74,6.74,0,0,1,4.4-1.68,4.56,4.56,0,0,1,4.68,5.73ZM180.59,5.59a3.34,3.34,0,0,0-3.57,3l-3.44,16.69c-.4,1.94.38,2.91,2.36,2.91a3.28,3.28,0,0,0,3.55-2.91l3.44-16.69C183.34,6.59,182.56,5.59,180.59,5.59Zm-3.22,25.74a2.28,2.28,0,0,0-1.87-.85H151.7a3.39,3.39,0,0,0-2.23.85,3.53,3.53,0,0,0-1.28,2.06L146,44.22a2.38,2.38,0,0,0,.44,2,2.23,2.23,0,0,0,1.88.87h23.82a3.42,3.42,0,0,0,2.22-.87,3.55,3.55,0,0,0,1.29-2l2.23-10.83A2.34,2.34,0,0,0,177.37,31.33Zm-6,4.65-1.14,5.5a.82.82,0,0,1-.9.72H153c-.51,0-.71-.24-.62-.72l1.14-5.5a.83.83,0,0,1,.91-.71h16.42C171.31,35.27,171.52,35.51,171.42,36Z"/>
			<path class="cls-6" d="M25.84,21.39H11.79c-.57,0-.79-.28-.67-.85L13.66,8.19q.55-2.91-2.35-3a3.32,3.32,0,0,0-3.57,3L4.59,23.54A2.46,2.46,0,0,0,5,25.62a2.23,2.23,0,0,0,1.88.87H24.75a2.86,2.86,0,0,0,3.08-2.55Q28.35,21.39,25.84,21.39Zm16.93-7.87H41.16c-.84,0-1.17-.42-1-1.25l1-4.79q.61-3-2.3-3a3.33,3.33,0,0,0-3.61,3L31.65,24.93q-.61,3,2.39,3a3.29,3.29,0,0,0,3.52-3l.93-4.52A1.4,1.4,0,0,1,40,19.15h1.61A3.1,3.1,0,0,0,45,16.38Q45.55,13.52,42.77,13.52Zm-7.2,17.34a2,2,0,0,0-1.67-.79H9.28a2.94,2.94,0,0,0-3.18,2.59q-.53,2.55,2.12,2.55h6.26c.84,0,1.17.42,1,1.25L14,43.77c-.4,1.94.37,2.91,2.31,2.91a3.23,3.23,0,0,0,3.46-2.91l1.76-8.55h6.8c.8,0,1.12.42.95,1.25l-1.49,7.25q-.61,3,2.39,3a3.29,3.29,0,0,0,3.52-3l2.27-11A2.18,2.18,0,0,0,35.57,30.86Zm35.33.83L66.52,8.42A2.72,2.72,0,0,0,63.71,6a4.53,4.53,0,0,0-3.82,2.46l-14,23.27q-1.7,2.64.8,3.76t4-1.43l11-18.26L65.14,34q.59,2.55,3.46,1.43T70.9,31.69ZM84.2,4.52a3.34,3.34,0,0,0-3.57,3L73.48,42.21q-.6,2.91,2.36,2.91a3.28,3.28,0,0,0,3.55-2.91L86.53,7.52Q87.15,4.52,84.2,4.52ZM122,6.8a1.67,1.67,0,0,0-.13-.15l-.11-.11A2.22,2.22,0,0,0,120.16,6H108.25a2.89,2.89,0,0,0-3.12,2.55q-.54,2.64,2.05,2.64H115c.8,0,1.12.4,1,1.21l-4.31,20.9c-.24,1.19,0,2,.67,2.44A2.32,2.32,0,0,0,113,36l.21,0a4.45,4.45,0,0,0,.81.07,3.16,3.16,0,0,0,3.4-2.82l2.7-13.09.79-3.84,1.54-7.5A2.35,2.35,0,0,0,122,6.8Zm19.16-2.28a3.16,3.16,0,0,0-3.44,2.77l-7.22,35q-.57,2.77,2.29,2.77a3.14,3.14,0,0,0,3.39-2.77l7.22-35C143.8,5.44,143.06,4.52,141.18,4.52Zm-9,.45a3.14,3.14,0,0,0-3.4,2.77L127,16.42a1.06,1.06,0,0,1-1.2.85h-1.88a2.88,2.88,0,0,0-3.09,2.59q-.53,2.55,2,2.55h1.88c.69,0,1,.29.85.89L121.85,41.4c-.38,1.88.36,2.82,2.24,2.82a3.14,3.14,0,0,0,3.36-2.82l6.93-33.66C134.76,5.89,134,5,132.18,5Zm35.26,7.12a8.94,8.94,0,0,0-1.83-3.49,9.29,9.29,0,0,0-3.15-2.28,10.38,10.38,0,0,0-4.3-.85,12.73,12.73,0,0,0-4.56.85,16.92,16.92,0,0,0-4.14,2.28,15.09,15.09,0,0,0-3.23,3.49,11.94,11.94,0,0,0-1.75,4.17,9.17,9.17,0,0,0,.05,4.11,8.36,8.36,0,0,0,1.79,3.49,9.13,9.13,0,0,0,3.19,2.31,10.38,10.38,0,0,0,4.22.83,13.25,13.25,0,0,0,4.65-.83,15.19,15.19,0,0,0,4.1-2.31,15.7,15.7,0,0,0,3.27-3.49,11.34,11.34,0,0,0,1.79-4.11A8.9,8.9,0,0,0,167.44,12.08Zm-5.65,4.17a6.86,6.86,0,0,1-2.53,4,6.94,6.94,0,0,1-4.5,1.68,4.47,4.47,0,0,1-3.71-1.68,4.62,4.62,0,0,1-.85-4,7,7,0,0,1,2.51-4.05,6.74,6.74,0,0,1,4.4-1.68,4.56,4.56,0,0,1,4.68,5.73ZM179.52,4.52a3.34,3.34,0,0,0-3.57,3l-3.44,16.69c-.4,1.94.38,2.91,2.36,2.91a3.28,3.28,0,0,0,3.55-2.91l3.44-16.69C182.26,5.52,181.49,4.52,179.52,4.52ZM176.3,30.26a2.28,2.28,0,0,0-1.87-.85H150.63a3.39,3.39,0,0,0-2.23.85,3.53,3.53,0,0,0-1.28,2.06l-2.23,10.83a2.38,2.38,0,0,0,.44,2,2.23,2.23,0,0,0,1.88.87H171a3.42,3.42,0,0,0,2.22-.87,3.55,3.55,0,0,0,1.29-2l2.23-10.83A2.34,2.34,0,0,0,176.3,30.26Zm-6,4.65-1.14,5.5a.82.82,0,0,1-.9.72H151.88c-.51,0-.71-.24-.62-.72l1.14-5.5a.83.83,0,0,1,.91-.71h16.42C170.24,34.2,170.45,34.44,170.35,34.91Z"/>
			<path class="cls-7" d="M12.69,6.57,10.14,18.93q-.18.85.68.85h.45L13.66,8.19c.26-1.34-.05-2.21-.9-2.64A4.18,4.18,0,0,1,12.69,6.57Z"/>
			<path class="cls-7" d="M14.52,34.86q.26-1.25-1-1.25H7.25A3.22,3.22,0,0,1,6,33.4c0,1.21.71,1.82,2.19,1.82h6.22Z"/>
			<path class="cls-7" d="M6.89,26.5H24.75a2.86,2.86,0,0,0,3.08-2.55q.39-1.89-.89-2.38a4,4,0,0,1-.08.76,2.86,2.86,0,0,1-3.08,2.55H5.92a2.35,2.35,0,0,1-1.37-.4A2.3,2.3,0,0,0,5,25.62,2.23,2.23,0,0,0,6.89,26.5Z"/>
			<path class="cls-7" d="M28.3,34.86q.26-1.25-1-1.25h-6.8l-1.76,8.55a3.24,3.24,0,0,1-3.46,2.91,3.28,3.28,0,0,1-1.43-.28c0,1.26.84,1.89,2.4,1.89a3.24,3.24,0,0,0,3.46-2.91l1.76-8.55h6.71Z"/>
			<path class="cls-7" d="M40.18,5.86l-1,4.79q-.26,1.25,1,1.25h.05l.91-4.43c.28-1.38,0-2.26-.88-2.68A4.28,4.28,0,0,1,40.18,5.86Z"/>
			<path class="cls-7" d="M156.14,8.9a6.75,6.75,0,0,0-4.4,1.68,7,7,0,0,0-2.51,4.05,4.63,4.63,0,0,0,.85,4l.22.25a5,5,0,0,1-.1-2.64,7,7,0,0,1,2.51-4.05,6.75,6.75,0,0,1,4.4-1.68A4.67,4.67,0,0,1,160.72,12a4.43,4.43,0,0,0-.77-1.39A4.63,4.63,0,0,0,156.14,8.9Z"/>
			<path class="cls-7" d="M150.91,39.52h.54l.95-4.6a.83.83,0,0,1,.91-.72h15.89l.19-.9q.15-.72-.61-.72H152.34a.83.83,0,0,0-.91.72L150.3,38.8Q150.15,39.52,150.91,39.52Z"/>
			<path class="cls-7" d="M123.76,20.81h-1.88a3.1,3.1,0,0,1-1.14-.19c0,1.2.68,1.8,2.11,1.8h1.61l.15-.72Q124.79,20.81,123.76,20.81Z"/>
			<path class="cls-7" d="M35,30.38a2.59,2.59,0,0,1,0,.72l-2.27,11a3.29,3.29,0,0,1-3.52,3,3.38,3.38,0,0,1-1.51-.3c.05,1.27.87,1.92,2.48,1.92a3.29,3.29,0,0,0,3.52-3l2.27-11a2.19,2.19,0,0,0-.38-1.86A2,2,0,0,0,35,30.38Z"/>
			<path class="cls-7" d="M166.47,10.47a8.87,8.87,0,0,1,.08,4.16,11.31,11.31,0,0,1-1.79,4.12,15.77,15.77,0,0,1-3.27,3.49,15,15,0,0,1-4.1,2.31,13.23,13.23,0,0,1-4.65.83,10.38,10.38,0,0,1-4.22-.83,9.06,9.06,0,0,1-3.2-2.31c-.1-.12-.19-.25-.28-.37a8.4,8.4,0,0,0,1.25,2,9.06,9.06,0,0,0,3.2,2.31,10.38,10.38,0,0,0,4.22.83,13.23,13.23,0,0,0,4.65-.83,15,15,0,0,0,4.1-2.31,15.77,15.77,0,0,0,3.27-3.49,11.31,11.31,0,0,0,1.79-4.12A8.74,8.74,0,0,0,165.93,9,9.17,9.17,0,0,1,166.47,10.47Z"/>
			<path class="cls-7" d="M44.08,13.76a4.25,4.25,0,0,1-.09,1,3.11,3.11,0,0,1-3.35,2.78H39a1.4,1.4,0,0,0-1.51,1.25l-.93,4.52a3.29,3.29,0,0,1-3.52,3,3.38,3.38,0,0,1-1.51-.3c.05,1.27.87,1.92,2.48,1.92a3.29,3.29,0,0,0,3.52-3l.93-4.52A1.4,1.4,0,0,1,40,19.16h1.61A3.11,3.11,0,0,0,45,16.38C45.24,15,44.94,14.15,44.08,13.76Z"/>
			<path class="cls-7" d="M142.54,4.77a4,4,0,0,1-.08.9l-7.22,35a3.13,3.13,0,0,1-3.39,2.78,3.34,3.34,0,0,1-1.4-.26c0,1.25.81,1.88,2.37,1.88a3.13,3.13,0,0,0,3.39-2.78l7.22-35C143.69,6,143.39,5.16,142.54,4.77Z"/>
			<path class="cls-7" d="M175.81,29.82a2.77,2.77,0,0,1,0,.88l-2.23,10.83a3.55,3.55,0,0,1-1.29,2,3.43,3.43,0,0,1-2.22.87H146.23a2.35,2.35,0,0,1-1.37-.4,2.3,2.3,0,0,0,.46,1.15,2.23,2.23,0,0,0,1.88.87H171a3.43,3.43,0,0,0,2.22-.87,3.55,3.55,0,0,0,1.29-2l2.23-10.83a2.28,2.28,0,0,0-.93-2.5Z"/>
			<path class="cls-7" d="M133.49,5.21a4.07,4.07,0,0,1-.08.91l-6.93,33.66a3.14,3.14,0,0,1-3.36,2.82,3.23,3.23,0,0,1-1.35-.25c0,1.24.8,1.87,2.32,1.87a3.14,3.14,0,0,0,3.36-2.82l6.93-33.66C134.65,6.43,134.35,5.59,133.49,5.21Z"/>
			<path class="cls-7" d="M181,4.81a4.32,4.32,0,0,1-.09,1.09l-3.44,16.7a3.28,3.28,0,0,1-3.55,2.91,3.35,3.35,0,0,1-1.47-.29c0,1.26.85,1.9,2.44,1.9a3.28,3.28,0,0,0,3.55-2.91l3.44-16.7C182.14,6.13,181.84,5.23,181,4.81Z"/>
			<path class="cls-7" d="M85.65,4.81a4.31,4.31,0,0,1-.09,1.09L78.42,40.59a3.29,3.29,0,0,1-3.55,2.91,3.35,3.35,0,0,1-1.47-.29c0,1.26.85,1.91,2.44,1.91a3.29,3.29,0,0,0,3.55-2.91L86.53,7.52C86.82,6.13,86.52,5.23,85.65,4.81Z"/>
			<path class="cls-7" d="M122.43,8.82l-1.54,7.5-.79,3.84-2.7,13.09a3.16,3.16,0,0,1-3.4,2.82,4.45,4.45,0,0,1-.81-.07L113,36a2.32,2.32,0,0,1-.63-.27,1.73,1.73,0,0,1-.75-1.51,3.26,3.26,0,0,0,1.44.28,3.16,3.16,0,0,0,3.4-2.82l5-24.44a2.85,2.85,0,0,0,0-.87l.28.21.11.11a1.67,1.67,0,0,1,.13.15A2.35,2.35,0,0,1,122.43,8.82Z"/>
			<path class="cls-7" d="M61.23,13.26,49.76,32.4q-1.65,2.55-4,1.43a3.92,3.92,0,0,1-.51-.27,2.06,2.06,0,0,0,1.48,1.89q2.36,1.12,4-1.43l11-18.3Z"/>
			<path class="cls-7" d="M66.52,8.41a3.31,3.31,0,0,0-1.05-1.89c0,.09.06.18.08.28l4.38,23.28q.62,2.64-2.3,3.76a2.82,2.82,0,0,1-2.52.07l0,.11q.59,2.55,3.46,1.43t2.3-3.76Z"/>
			<path class="cls-7" d="M115,10.74q.25-1.21-1-1.21h-7.83a3.08,3.08,0,0,1-1.16-.2c0,1.2.7,1.81,2.14,1.81h7.74Z"/>
		</g>
	</g>
</svg>